%TF.GenerationSoftware,KiCad,Pcbnew,8.0.7*%
%TF.CreationDate,2025-01-14T15:22:21-06:00*%
%TF.ProjectId,boethia60,626f6574-6869-4613-9630-2e6b69636164,rev?*%
%TF.SameCoordinates,Original*%
%TF.FileFunction,Drillmap*%
%TF.FilePolarity,Positive*%
%FSLAX45Y45*%
G04 Gerber Fmt 4.5, Leading zero omitted, Abs format (unit mm)*
G04 Created by KiCad (PCBNEW 8.0.7) date 2025-01-14 15:22:21*
%MOMM*%
%LPD*%
G01*
G04 APERTURE LIST*
%ADD10C,0.050000*%
%ADD11C,0.200000*%
%ADD12C,0.100000*%
%ADD13C,0.160000*%
%ADD14C,0.300000*%
G04 APERTURE END LIST*
D10*
X28358197Y-10960197D02*
X28358197Y-1563003D01*
X26783849Y-1307649D02*
X26784751Y-1029151D01*
X28231197Y-1436003D02*
G75*
G02*
X28358197Y-1563003I3J-126997D01*
G01*
X28231197Y-1436003D02*
X26911300Y-1435100D01*
X26911300Y-1435100D02*
G75*
G02*
X26784300Y-1308100I0J127000D01*
G01*
X25640397Y-1307197D02*
X25641300Y-1028700D01*
X26784751Y-1029151D02*
X25641300Y-1028700D01*
X-316597Y-1563003D02*
X-316597Y-10960197D01*
X25513397Y-1434197D02*
X-189597Y-1436003D01*
X-316597Y-1563003D02*
G75*
G02*
X-189597Y-1436003I127000J0D01*
G01*
X25640397Y-1307197D02*
G75*
G02*
X25513397Y-1434197I-126997J-3D01*
G01*
X-189597Y-11087197D02*
G75*
G02*
X-316597Y-10960197I0J127000D01*
G01*
X-189597Y-11087197D02*
X28231197Y-11087197D01*
X28358197Y-10960197D02*
G75*
G02*
X28231197Y-11087197I-126997J-3D01*
G01*
D11*
D12*
X204400Y-8481300D02*
X234400Y-8511300D01*
X234400Y-8481300D02*
X204400Y-8511300D01*
X277100Y-3248900D02*
X307100Y-3278900D01*
X307100Y-3248900D02*
X277100Y-3278900D01*
X778750Y-4668125D02*
X808750Y-4698125D01*
X808750Y-4668125D02*
X778750Y-4698125D01*
X1493125Y-6573125D02*
X1523125Y-6603125D01*
X1523125Y-6573125D02*
X1493125Y-6603125D01*
X1969375Y-3179375D02*
X1999375Y-3209375D01*
X1999375Y-3179375D02*
X1969375Y-3209375D01*
X2921875Y-8398750D02*
X2951875Y-8428750D01*
X2951875Y-8398750D02*
X2921875Y-8428750D01*
X3160000Y-4668125D02*
X3190000Y-4698125D01*
X3190000Y-4668125D02*
X3160000Y-4698125D01*
X3874375Y-3160000D02*
X3904375Y-3190000D01*
X3904375Y-3160000D02*
X3874375Y-3190000D01*
X4264900Y-9460625D02*
X4294900Y-9490625D01*
X4294900Y-9460625D02*
X4264900Y-9490625D01*
X4385000Y-9460625D02*
X4415000Y-9490625D01*
X4415000Y-9460625D02*
X4385000Y-9490625D01*
X4506200Y-9220625D02*
X4536200Y-9250625D01*
X4536200Y-9220625D02*
X4506200Y-9250625D01*
X4588750Y-6573125D02*
X4618750Y-6603125D01*
X4618750Y-6573125D02*
X4588750Y-6603125D01*
X5065000Y-4668125D02*
X5095000Y-4698125D01*
X5095000Y-4668125D02*
X5065000Y-4698125D01*
X5541250Y-8478125D02*
X5571250Y-8508125D01*
X5571250Y-8478125D02*
X5541250Y-8508125D01*
X5779375Y-3160000D02*
X5809375Y-3190000D01*
X5809375Y-3160000D02*
X5779375Y-3190000D01*
X6085000Y-9460625D02*
X6115000Y-9490625D01*
X6115000Y-9460625D02*
X6085000Y-9490625D01*
X6185000Y-9535000D02*
X6215000Y-9565000D01*
X6215000Y-9535000D02*
X6185000Y-9565000D01*
X6246698Y-9595000D02*
X6276698Y-9625000D01*
X6276698Y-9595000D02*
X6246698Y-9625000D01*
X6291103Y-9460625D02*
X6321103Y-9490625D01*
X6321103Y-9460625D02*
X6291103Y-9490625D01*
X6295278Y-9658561D02*
X6325278Y-9688561D01*
X6325278Y-9658561D02*
X6295278Y-9688561D01*
X6385000Y-9535000D02*
X6415000Y-9565000D01*
X6415000Y-9535000D02*
X6385000Y-9565000D01*
X6441569Y-9591569D02*
X6471569Y-9621569D01*
X6471569Y-9591569D02*
X6441569Y-9621569D01*
X6493750Y-6573125D02*
X6523750Y-6603125D01*
X6523750Y-6573125D02*
X6493750Y-6603125D01*
X6498137Y-9648137D02*
X6528137Y-9678137D01*
X6528137Y-9648137D02*
X6498137Y-9678137D01*
X6890625Y-4668125D02*
X6920625Y-4698125D01*
X6920625Y-4668125D02*
X6890625Y-4698125D01*
X7287500Y-10541875D02*
X7317500Y-10571875D01*
X7317500Y-10541875D02*
X7287500Y-10571875D01*
X7446250Y-8398750D02*
X7476250Y-8428750D01*
X7476250Y-8398750D02*
X7446250Y-8428750D01*
X7684375Y-3160000D02*
X7714375Y-3190000D01*
X7714375Y-3160000D02*
X7684375Y-3190000D01*
X8398750Y-6573125D02*
X8428750Y-6603125D01*
X8428750Y-6573125D02*
X8398750Y-6603125D01*
X8795625Y-4668125D02*
X8825625Y-4698125D01*
X8825625Y-4668125D02*
X8795625Y-4698125D01*
X9351250Y-8478125D02*
X9381250Y-8508125D01*
X9381250Y-8478125D02*
X9351250Y-8508125D01*
X9668750Y-3160000D02*
X9698750Y-3190000D01*
X9698750Y-3160000D02*
X9668750Y-3190000D01*
X10224375Y-6493750D02*
X10254375Y-6523750D01*
X10254375Y-6493750D02*
X10224375Y-6523750D01*
X10700625Y-4668125D02*
X10730625Y-4698125D01*
X10730625Y-4668125D02*
X10700625Y-4698125D01*
X11256250Y-8398750D02*
X11286250Y-8428750D01*
X11286250Y-8398750D02*
X11256250Y-8428750D01*
X11573750Y-3160000D02*
X11603750Y-3190000D01*
X11603750Y-3160000D02*
X11573750Y-3190000D01*
X12208750Y-6493750D02*
X12238750Y-6523750D01*
X12238750Y-6493750D02*
X12208750Y-6523750D01*
X12685000Y-4668125D02*
X12715000Y-4698125D01*
X12715000Y-4668125D02*
X12685000Y-4698125D01*
X13129500Y-9080625D02*
X13159500Y-9110625D01*
X13159500Y-9080625D02*
X13129500Y-9110625D01*
X13161250Y-8478125D02*
X13191250Y-8508125D01*
X13191250Y-8478125D02*
X13161250Y-8508125D01*
X13228702Y-9120625D02*
X13258702Y-9150625D01*
X13258702Y-9120625D02*
X13228702Y-9150625D01*
X13294600Y-9180625D02*
X13324600Y-9210625D01*
X13324600Y-9180625D02*
X13294600Y-9210625D01*
X13478750Y-3160000D02*
X13508750Y-3190000D01*
X13508750Y-3160000D02*
X13478750Y-3190000D01*
X14113750Y-6573125D02*
X14143750Y-6603125D01*
X14143750Y-6573125D02*
X14113750Y-6603125D01*
X14510625Y-4668125D02*
X14540625Y-4698125D01*
X14540625Y-4668125D02*
X14510625Y-4698125D01*
X15066250Y-8478125D02*
X15096250Y-8508125D01*
X15096250Y-8478125D02*
X15066250Y-8508125D01*
X15313900Y-9040625D02*
X15343900Y-9070625D01*
X15343900Y-9040625D02*
X15313900Y-9070625D01*
X15383750Y-3160000D02*
X15413750Y-3190000D01*
X15413750Y-3160000D02*
X15383750Y-3190000D01*
X16018750Y-6573125D02*
X16048750Y-6603125D01*
X16048750Y-6573125D02*
X16018750Y-6603125D01*
X16415625Y-4668125D02*
X16445625Y-4698125D01*
X16445625Y-4668125D02*
X16415625Y-4698125D01*
X16876000Y-9802100D02*
X16906000Y-9832100D01*
X16906000Y-9802100D02*
X16876000Y-9832100D01*
X16943876Y-9899324D02*
X16973876Y-9929324D01*
X16973876Y-9899324D02*
X16943876Y-9929324D01*
X16971250Y-8478125D02*
X17001250Y-8508125D01*
X17001250Y-8478125D02*
X16971250Y-8508125D01*
X17056324Y-9460625D02*
X17086324Y-9490625D01*
X17086324Y-9460625D02*
X17056324Y-9490625D01*
X17128431Y-10791569D02*
X17158431Y-10821569D01*
X17158431Y-10791569D02*
X17128431Y-10821569D01*
X17168100Y-10233900D02*
X17198100Y-10263900D01*
X17198100Y-10233900D02*
X17168100Y-10263900D01*
X17185000Y-10735000D02*
X17215000Y-10765000D01*
X17215000Y-10735000D02*
X17185000Y-10765000D01*
X17186005Y-10933995D02*
X17216005Y-10963995D01*
X17216005Y-10933995D02*
X17186005Y-10963995D01*
X17188082Y-10058677D02*
X17218082Y-10088677D01*
X17218082Y-10058677D02*
X17188082Y-10088677D01*
X17245506Y-10674495D02*
X17275506Y-10704495D01*
X17275506Y-10674495D02*
X17245506Y-10704495D01*
X17288750Y-3179375D02*
X17318750Y-3209375D01*
X17318750Y-3179375D02*
X17288750Y-3209375D01*
X17302074Y-10617926D02*
X17332074Y-10647926D01*
X17332074Y-10617926D02*
X17302074Y-10647926D01*
X17320500Y-10437100D02*
X17350500Y-10467100D01*
X17350500Y-10437100D02*
X17320500Y-10467100D01*
X17358600Y-9725900D02*
X17388600Y-9755900D01*
X17388600Y-9725900D02*
X17358600Y-9755900D01*
X17358600Y-9967200D02*
X17388600Y-9997200D01*
X17388600Y-9967200D02*
X17358600Y-9997200D01*
X17688800Y-10538700D02*
X17718800Y-10568700D01*
X17718800Y-10538700D02*
X17688800Y-10568700D01*
X17790400Y-10703800D02*
X17820400Y-10733800D01*
X17820400Y-10703800D02*
X17790400Y-10733800D01*
X17879564Y-10310080D02*
X17909564Y-10340080D01*
X17909564Y-10310080D02*
X17879564Y-10340080D01*
X17892000Y-10703800D02*
X17922000Y-10733800D01*
X17922000Y-10703800D02*
X17892000Y-10733800D01*
X17923750Y-6573125D02*
X17953750Y-6603125D01*
X17953750Y-6573125D02*
X17923750Y-6603125D01*
X17991943Y-10377100D02*
X18021943Y-10407100D01*
X18021943Y-10377100D02*
X17991943Y-10407100D01*
X18120600Y-10614900D02*
X18150600Y-10644900D01*
X18150600Y-10614900D02*
X18120600Y-10644900D01*
X18122100Y-10515950D02*
X18152100Y-10545950D01*
X18152100Y-10515950D02*
X18122100Y-10545950D01*
X18171400Y-9878300D02*
X18201400Y-9908300D01*
X18201400Y-9878300D02*
X18171400Y-9908300D01*
X18209935Y-10159485D02*
X18239935Y-10189485D01*
X18239935Y-10159485D02*
X18209935Y-10189485D01*
X18294206Y-10849050D02*
X18324206Y-10879050D01*
X18324206Y-10849050D02*
X18294206Y-10879050D01*
X18400000Y-4668125D02*
X18430000Y-4698125D01*
X18430000Y-4668125D02*
X18400000Y-4698125D01*
X18425400Y-9028750D02*
X18455400Y-9058750D01*
X18455400Y-9028750D02*
X18425400Y-9058750D01*
X18519773Y-9450227D02*
X18549773Y-9480227D01*
X18549773Y-9450227D02*
X18519773Y-9480227D01*
X18525961Y-10222252D02*
X18555961Y-10252252D01*
X18555961Y-10222252D02*
X18525961Y-10252252D01*
X18635000Y-10585000D02*
X18665000Y-10615000D01*
X18665000Y-10585000D02*
X18635000Y-10615000D01*
X18721300Y-10026880D02*
X18751300Y-10056880D01*
X18751300Y-10026880D02*
X18721300Y-10056880D01*
X18735000Y-10785000D02*
X18765000Y-10815000D01*
X18765000Y-10785000D02*
X18735000Y-10815000D01*
X18742900Y-9028750D02*
X18772900Y-9058750D01*
X18772900Y-9028750D02*
X18742900Y-9058750D01*
X18801300Y-9148850D02*
X18831300Y-9178850D01*
X18831300Y-9148850D02*
X18801300Y-9178850D01*
X18876250Y-8478125D02*
X18906250Y-8508125D01*
X18906250Y-8478125D02*
X18876250Y-8508125D01*
X18923468Y-10213747D02*
X18953468Y-10243747D01*
X18953468Y-10213747D02*
X18923468Y-10243747D01*
X18976013Y-9076013D02*
X19006013Y-9106013D01*
X19006013Y-9076013D02*
X18976013Y-9106013D01*
X19009600Y-9484600D02*
X19039600Y-9514600D01*
X19039600Y-9484600D02*
X19009600Y-9514600D01*
X19060400Y-9217900D02*
X19090400Y-9247900D01*
X19090400Y-9217900D02*
X19060400Y-9247900D01*
X19193750Y-3160000D02*
X19223750Y-3190000D01*
X19223750Y-3160000D02*
X19193750Y-3190000D01*
X19285000Y-10585000D02*
X19315000Y-10615000D01*
X19315000Y-10585000D02*
X19285000Y-10615000D01*
X19422600Y-10265400D02*
X19452600Y-10295400D01*
X19452600Y-10265400D02*
X19422600Y-10295400D01*
X19828750Y-6573125D02*
X19858750Y-6603125D01*
X19858750Y-6573125D02*
X19828750Y-6603125D01*
X19835000Y-10435000D02*
X19865000Y-10465000D01*
X19865000Y-10435000D02*
X19835000Y-10465000D01*
X19835000Y-10535000D02*
X19865000Y-10565000D01*
X19865000Y-10535000D02*
X19835000Y-10565000D01*
X19835000Y-10635000D02*
X19865000Y-10665000D01*
X19865000Y-10635000D02*
X19835000Y-10665000D01*
X19835000Y-10735000D02*
X19865000Y-10765000D01*
X19865000Y-10735000D02*
X19835000Y-10765000D01*
X19847800Y-9637000D02*
X19877800Y-9667000D01*
X19877800Y-9637000D02*
X19847800Y-9667000D01*
X19847800Y-9738600D02*
X19877800Y-9768600D01*
X19877800Y-9738600D02*
X19847800Y-9768600D01*
X19847800Y-9840200D02*
X19877800Y-9870200D01*
X19877800Y-9840200D02*
X19847800Y-9870200D01*
X19935000Y-10035000D02*
X19965000Y-10065000D01*
X19965000Y-10035000D02*
X19935000Y-10065000D01*
X19935000Y-10285000D02*
X19965000Y-10315000D01*
X19965000Y-10285000D02*
X19935000Y-10315000D01*
X20165300Y-10005300D02*
X20195300Y-10035300D01*
X20195300Y-10005300D02*
X20165300Y-10035300D01*
X20305000Y-4668125D02*
X20335000Y-4698125D01*
X20335000Y-4668125D02*
X20305000Y-4698125D01*
X20435000Y-10843550D02*
X20465000Y-10873550D01*
X20465000Y-10843550D02*
X20435000Y-10873550D01*
X20546300Y-10774500D02*
X20576300Y-10804500D01*
X20576300Y-10774500D02*
X20546300Y-10804500D01*
X20609800Y-10306600D02*
X20639800Y-10336600D01*
X20639800Y-10306600D02*
X20609800Y-10336600D01*
X20635200Y-9522700D02*
X20665200Y-9552700D01*
X20665200Y-9522700D02*
X20635200Y-9552700D01*
X20781250Y-8478125D02*
X20811250Y-8508125D01*
X20811250Y-8478125D02*
X20781250Y-8508125D01*
X20800300Y-9840200D02*
X20830300Y-9870200D01*
X20830300Y-9840200D02*
X20800300Y-9870200D01*
X21098750Y-3160000D02*
X21128750Y-3190000D01*
X21128750Y-3160000D02*
X21098750Y-3190000D01*
X21705325Y-10864675D02*
X21735325Y-10894675D01*
X21735325Y-10864675D02*
X21705325Y-10894675D01*
X21733750Y-6573125D02*
X21763750Y-6603125D01*
X21763750Y-6573125D02*
X21733750Y-6603125D01*
X22130625Y-10383125D02*
X22160625Y-10413125D01*
X22160625Y-10383125D02*
X22130625Y-10413125D01*
X22210000Y-4668125D02*
X22240000Y-4698125D01*
X22240000Y-4668125D02*
X22210000Y-4698125D01*
X22686250Y-8478125D02*
X22716250Y-8508125D01*
X22716250Y-8478125D02*
X22686250Y-8508125D01*
X22905312Y-9028750D02*
X22935312Y-9058750D01*
X22935312Y-9028750D02*
X22905312Y-9058750D01*
X23003750Y-3160000D02*
X23033750Y-3190000D01*
X23033750Y-3160000D02*
X23003750Y-3190000D01*
X23638750Y-6573125D02*
X23668750Y-6603125D01*
X23668750Y-6573125D02*
X23638750Y-6603125D01*
X23871274Y-9668873D02*
X23901274Y-9698873D01*
X23901274Y-9668873D02*
X23871274Y-9698873D01*
X23873700Y-9751300D02*
X23903700Y-9781300D01*
X23903700Y-9751300D02*
X23873700Y-9781300D01*
X24035625Y-4668125D02*
X24065625Y-4698125D01*
X24065625Y-4668125D02*
X24035625Y-4698125D01*
X24285000Y-9085000D02*
X24315000Y-9115000D01*
X24315000Y-9085000D02*
X24285000Y-9115000D01*
X24353125Y-10462500D02*
X24383125Y-10492500D01*
X24383125Y-10462500D02*
X24353125Y-10492500D01*
X24908750Y-3160000D02*
X24938750Y-3190000D01*
X24938750Y-3160000D02*
X24908750Y-3190000D01*
X25283400Y-1788400D02*
X25313400Y-1818400D01*
X25313400Y-1788400D02*
X25283400Y-1818400D01*
X25562800Y-1559800D02*
X25592800Y-1589800D01*
X25592800Y-1559800D02*
X25562800Y-1589800D01*
X25689800Y-1813800D02*
X25719800Y-1843800D01*
X25719800Y-1813800D02*
X25689800Y-1843800D01*
X25781875Y-8478125D02*
X25811875Y-8508125D01*
X25811875Y-8478125D02*
X25781875Y-8508125D01*
X25865626Y-1951526D02*
X25895626Y-1981526D01*
X25895626Y-1951526D02*
X25865626Y-1981526D01*
X25917250Y-2259500D02*
X25947250Y-2289500D01*
X25947250Y-2259500D02*
X25917250Y-2289500D01*
X25969200Y-1153400D02*
X25999200Y-1183400D01*
X25999200Y-1153400D02*
X25969200Y-1183400D01*
X26035000Y-10835000D02*
X26065000Y-10865000D01*
X26065000Y-10835000D02*
X26035000Y-10865000D01*
X26147000Y-2512300D02*
X26177000Y-2542300D01*
X26177000Y-2512300D02*
X26147000Y-2542300D01*
X26197800Y-1356600D02*
X26227800Y-1386600D01*
X26227800Y-1356600D02*
X26197800Y-1386600D01*
X26227000Y-2512300D02*
X26257000Y-2542300D01*
X26257000Y-2512300D02*
X26227000Y-2542300D01*
X26258125Y-6573125D02*
X26288125Y-6603125D01*
X26288125Y-6573125D02*
X26258125Y-6603125D01*
X26401000Y-1178800D02*
X26431000Y-1208800D01*
X26431000Y-1178800D02*
X26401000Y-1208800D01*
X26426400Y-3236200D02*
X26456400Y-3266200D01*
X26456400Y-3236200D02*
X26426400Y-3266200D01*
X26470954Y-1947045D02*
X26500954Y-1977045D01*
X26500954Y-1947045D02*
X26470954Y-1977045D01*
X26496250Y-4668125D02*
X26526250Y-4698125D01*
X26526250Y-4668125D02*
X26496250Y-4698125D01*
X26553400Y-2220200D02*
X26583400Y-2250200D01*
X26583400Y-2220200D02*
X26553400Y-2250200D01*
X26629600Y-1839200D02*
X26659600Y-1869200D01*
X26659600Y-1839200D02*
X26629600Y-1869200D01*
X26660198Y-3228698D02*
X26690198Y-3258698D01*
X26690198Y-3228698D02*
X26660198Y-3258698D01*
X26807400Y-1610600D02*
X26837400Y-1640600D01*
X26837400Y-1610600D02*
X26807400Y-1640600D01*
X26813750Y-3160000D02*
X26843750Y-3190000D01*
X26843750Y-3160000D02*
X26813750Y-3190000D01*
X27391600Y-1839200D02*
X27421600Y-1869200D01*
X27421600Y-1839200D02*
X27391600Y-1869200D01*
X27988500Y-6119100D02*
X28018500Y-6149100D01*
X28018500Y-6119100D02*
X27988500Y-6149100D01*
X25798100Y-1160400D02*
G75*
G02*
X25738100Y-1160400I-30000J0D01*
G01*
X25738100Y-1160400D02*
G75*
G02*
X25798100Y-1160400I30000J0D01*
G01*
X25798100Y-1190400D02*
X25798100Y-1130400D01*
X25738100Y-1130400D02*
G75*
G02*
X25798100Y-1130400I30000J0D01*
G01*
X25738100Y-1130400D02*
X25738100Y-1190400D01*
X25738100Y-1190400D02*
G75*
G03*
X25798100Y-1190400I30000J0D01*
G01*
X25798100Y-1578400D02*
G75*
G02*
X25738100Y-1578400I-30000J0D01*
G01*
X25738100Y-1578400D02*
G75*
G02*
X25798100Y-1578400I30000J0D01*
G01*
X25798100Y-1633400D02*
X25798100Y-1523400D01*
X25738100Y-1523400D02*
G75*
G02*
X25798100Y-1523400I30000J0D01*
G01*
X25738100Y-1523400D02*
X25738100Y-1633400D01*
X25738100Y-1633400D02*
G75*
G03*
X25798100Y-1633400I30000J0D01*
G01*
X26662100Y-1160400D02*
G75*
G02*
X26602100Y-1160400I-30000J0D01*
G01*
X26602100Y-1160400D02*
G75*
G02*
X26662100Y-1160400I30000J0D01*
G01*
X26662100Y-1190400D02*
X26662100Y-1130400D01*
X26602100Y-1130400D02*
G75*
G02*
X26662100Y-1130400I30000J0D01*
G01*
X26602100Y-1130400D02*
X26602100Y-1190400D01*
X26602100Y-1190400D02*
G75*
G03*
X26662100Y-1190400I30000J0D01*
G01*
X26662100Y-1578400D02*
G75*
G02*
X26602100Y-1578400I-30000J0D01*
G01*
X26602100Y-1578400D02*
G75*
G02*
X26662100Y-1578400I30000J0D01*
G01*
X26662100Y-1633400D02*
X26662100Y-1523400D01*
X26602100Y-1523400D02*
G75*
G02*
X26662100Y-1523400I30000J0D01*
G01*
X26602100Y-1523400D02*
X26602100Y-1633400D01*
X26602100Y-1633400D02*
G75*
G03*
X26662100Y-1633400I30000J0D01*
G01*
X16344900Y-9602000D02*
X16344900Y-9702000D01*
X16294900Y-9652000D02*
X16394900Y-9652000D01*
X16344900Y-9856000D02*
X16344900Y-9956000D01*
X16294900Y-9906000D02*
X16394900Y-9906000D01*
X16344900Y-10110000D02*
X16344900Y-10210000D01*
X16294900Y-10160000D02*
X16394900Y-10160000D01*
X16598900Y-9602000D02*
X16598900Y-9702000D01*
X16548900Y-9652000D02*
X16648900Y-9652000D01*
X16598900Y-9856000D02*
X16598900Y-9956000D01*
X16548900Y-9906000D02*
X16648900Y-9906000D01*
X16598900Y-10110000D02*
X16598900Y-10210000D01*
X16548900Y-10160000D02*
X16648900Y-10160000D01*
D13*
X191569Y-1936694D02*
X191569Y-1823556D01*
X78431Y-1823556D01*
X78431Y-1936694D01*
X191569Y-1936694D01*
X191569Y-7677819D02*
X191569Y-7564681D01*
X78431Y-7564681D01*
X78431Y-7677819D01*
X191569Y-7677819D01*
X667819Y-3866569D02*
X667819Y-3753431D01*
X554681Y-3753431D01*
X554681Y-3866569D01*
X667819Y-3866569D01*
X1405944Y-5771569D02*
X1405944Y-5658431D01*
X1292806Y-5658431D01*
X1292806Y-5771569D01*
X1405944Y-5771569D01*
X2096569Y-1936694D02*
X2096569Y-1823556D01*
X1983431Y-1823556D01*
X1983431Y-1936694D01*
X2096569Y-1936694D01*
X2817944Y-7677819D02*
X2817944Y-7564681D01*
X2704806Y-7564681D01*
X2704806Y-7677819D01*
X2817944Y-7677819D01*
X3049069Y-3866569D02*
X3049069Y-3753431D01*
X2935931Y-3753431D01*
X2935931Y-3866569D01*
X3049069Y-3866569D01*
X4001569Y-1936694D02*
X4001569Y-1823556D01*
X3888431Y-1823556D01*
X3888431Y-1936694D01*
X4001569Y-1936694D01*
X4477819Y-5772819D02*
X4477819Y-5659681D01*
X4364681Y-5659681D01*
X4364681Y-5772819D01*
X4477819Y-5772819D01*
X4954069Y-3866569D02*
X4954069Y-3753431D01*
X4840931Y-3753431D01*
X4840931Y-3866569D01*
X4954069Y-3866569D01*
X4985569Y-9636069D02*
X4985569Y-9522931D01*
X4872431Y-9522931D01*
X4872431Y-9636069D01*
X4985569Y-9636069D01*
X5430319Y-7676569D02*
X5430319Y-7563431D01*
X5317181Y-7563431D01*
X5317181Y-7676569D01*
X5430319Y-7676569D01*
X5906569Y-1936694D02*
X5906569Y-1823556D01*
X5793431Y-1823556D01*
X5793431Y-1936694D01*
X5906569Y-1936694D01*
X6382819Y-5772819D02*
X6382819Y-5659681D01*
X6269681Y-5659681D01*
X6269681Y-5772819D01*
X6382819Y-5772819D01*
X6859069Y-3866569D02*
X6859069Y-3753431D01*
X6745931Y-3753431D01*
X6745931Y-3866569D01*
X6859069Y-3866569D01*
X7335319Y-7676569D02*
X7335319Y-7563431D01*
X7222181Y-7563431D01*
X7222181Y-7676569D01*
X7335319Y-7676569D01*
X7414694Y-9636069D02*
X7414694Y-9522931D01*
X7301556Y-9522931D01*
X7301556Y-9636069D01*
X7414694Y-9636069D01*
X7811569Y-1936694D02*
X7811569Y-1823556D01*
X7698431Y-1823556D01*
X7698431Y-1936694D01*
X7811569Y-1936694D01*
X8294819Y-5772819D02*
X8294819Y-5659681D01*
X8181681Y-5659681D01*
X8181681Y-5772819D01*
X8294819Y-5772819D01*
X8764069Y-3866569D02*
X8764069Y-3753431D01*
X8650931Y-3753431D01*
X8650931Y-3866569D01*
X8764069Y-3866569D01*
X9240319Y-7676569D02*
X9240319Y-7563431D01*
X9127181Y-7563431D01*
X9127181Y-7676569D01*
X9240319Y-7676569D01*
X9748069Y-1936694D02*
X9748069Y-1823556D01*
X9634931Y-1823556D01*
X9634931Y-1936694D01*
X9748069Y-1936694D01*
X10192819Y-5772819D02*
X10192819Y-5659681D01*
X10079681Y-5659681D01*
X10079681Y-5772819D01*
X10192819Y-5772819D01*
X10669069Y-3866569D02*
X10669069Y-3753431D01*
X10555931Y-3753431D01*
X10555931Y-3866569D01*
X10669069Y-3866569D01*
X11145319Y-7676569D02*
X11145319Y-7563431D01*
X11032181Y-7563431D01*
X11032181Y-7676569D01*
X11145319Y-7676569D01*
X11653069Y-1936694D02*
X11653069Y-1823556D01*
X11539931Y-1823556D01*
X11539931Y-1936694D01*
X11653069Y-1936694D01*
X12097819Y-5772819D02*
X12097819Y-5659681D01*
X11984681Y-5659681D01*
X11984681Y-5772819D01*
X12097819Y-5772819D01*
X12574069Y-3866569D02*
X12574069Y-3753431D01*
X12460931Y-3753431D01*
X12460931Y-3866569D01*
X12574069Y-3866569D01*
X13050319Y-7676569D02*
X13050319Y-7563431D01*
X12937181Y-7563431D01*
X12937181Y-7676569D01*
X13050319Y-7676569D01*
X13558069Y-1936694D02*
X13558069Y-1823556D01*
X13444931Y-1823556D01*
X13444931Y-1936694D01*
X13558069Y-1936694D01*
X14002819Y-5772819D02*
X14002819Y-5659681D01*
X13889681Y-5659681D01*
X13889681Y-5772819D01*
X14002819Y-5772819D01*
X14479069Y-3866569D02*
X14479069Y-3753431D01*
X14365931Y-3753431D01*
X14365931Y-3866569D01*
X14479069Y-3866569D01*
X14479069Y-9622194D02*
X14479069Y-9509056D01*
X14365931Y-9509056D01*
X14365931Y-9622194D01*
X14479069Y-9622194D01*
X14955319Y-7676569D02*
X14955319Y-7563431D01*
X14842181Y-7563431D01*
X14842181Y-7676569D01*
X14955319Y-7676569D01*
X15455319Y-1936694D02*
X15455319Y-1823556D01*
X15342181Y-1823556D01*
X15342181Y-1936694D01*
X15455319Y-1936694D01*
X15907819Y-5772819D02*
X15907819Y-5659681D01*
X15794681Y-5659681D01*
X15794681Y-5772819D01*
X15907819Y-5772819D01*
X16384069Y-3866569D02*
X16384069Y-3753431D01*
X16270931Y-3753431D01*
X16270931Y-3866569D01*
X16384069Y-3866569D01*
X16860319Y-7676569D02*
X16860319Y-7563431D01*
X16747181Y-7563431D01*
X16747181Y-7676569D01*
X16860319Y-7676569D01*
X17360319Y-1936694D02*
X17360319Y-1823556D01*
X17247181Y-1823556D01*
X17247181Y-1936694D01*
X17360319Y-1936694D01*
X17820169Y-5770569D02*
X17820169Y-5657431D01*
X17707031Y-5657431D01*
X17707031Y-5770569D01*
X17820169Y-5770569D01*
X18289069Y-3866569D02*
X18289069Y-3753431D01*
X18175931Y-3753431D01*
X18175931Y-3866569D01*
X18289069Y-3866569D01*
X18765319Y-7676569D02*
X18765319Y-7563431D01*
X18652181Y-7563431D01*
X18652181Y-7676569D01*
X18765319Y-7676569D01*
X19273069Y-1936694D02*
X19273069Y-1823556D01*
X19159931Y-1823556D01*
X19159931Y-1936694D01*
X19273069Y-1936694D01*
X19724819Y-5772819D02*
X19724819Y-5659681D01*
X19611681Y-5659681D01*
X19611681Y-5772819D01*
X19724819Y-5772819D01*
X20194069Y-3866569D02*
X20194069Y-3753431D01*
X20080931Y-3753431D01*
X20080931Y-3866569D01*
X20194069Y-3866569D01*
X20670319Y-7676569D02*
X20670319Y-7563431D01*
X20557181Y-7563431D01*
X20557181Y-7676569D01*
X20670319Y-7676569D01*
X21170319Y-1936694D02*
X21170319Y-1823556D01*
X21057181Y-1823556D01*
X21057181Y-1936694D01*
X21170319Y-1936694D01*
X21622819Y-5771569D02*
X21622819Y-5658431D01*
X21509681Y-5658431D01*
X21509681Y-5771569D01*
X21622819Y-5771569D01*
X22099069Y-3866569D02*
X22099069Y-3753431D01*
X21985931Y-3753431D01*
X21985931Y-3866569D01*
X22099069Y-3866569D01*
X22099069Y-9622194D02*
X22099069Y-9509056D01*
X21985931Y-9509056D01*
X21985931Y-9622194D01*
X22099069Y-9622194D01*
X22599069Y-7676569D02*
X22599069Y-7563431D01*
X22485931Y-7563431D01*
X22485931Y-7676569D01*
X22599069Y-7676569D01*
X23083069Y-1936694D02*
X23083069Y-1823556D01*
X22969931Y-1823556D01*
X22969931Y-1936694D01*
X23083069Y-1936694D01*
X23527819Y-5771569D02*
X23527819Y-5658431D01*
X23414681Y-5658431D01*
X23414681Y-5771569D01*
X23527819Y-5771569D01*
X24004069Y-3866569D02*
X24004069Y-3753431D01*
X23890931Y-3753431D01*
X23890931Y-3866569D01*
X24004069Y-3866569D01*
X24480319Y-9622194D02*
X24480319Y-9509056D01*
X24367181Y-9509056D01*
X24367181Y-9622194D01*
X24480319Y-9622194D01*
X24988069Y-1936694D02*
X24988069Y-1823556D01*
X24874931Y-1823556D01*
X24874931Y-1936694D01*
X24988069Y-1936694D01*
X25694694Y-7676569D02*
X25694694Y-7563431D01*
X25581556Y-7563431D01*
X25581556Y-7676569D01*
X25694694Y-7676569D01*
X26170944Y-5771569D02*
X26170944Y-5658431D01*
X26057806Y-5658431D01*
X26057806Y-5771569D01*
X26170944Y-5771569D01*
X26409069Y-3866569D02*
X26409069Y-3753431D01*
X26295931Y-3753431D01*
X26295931Y-3866569D01*
X26409069Y-3866569D01*
X26885319Y-1936694D02*
X26885319Y-1823556D01*
X26772181Y-1823556D01*
X26772181Y-1936694D01*
X26885319Y-1936694D01*
D14*
X635000Y-3140125D02*
X785000Y-2990125D01*
X635000Y-2840125D01*
X485000Y-2990125D01*
X635000Y-3140125D01*
X635000Y-8881250D02*
X785000Y-8731250D01*
X635000Y-8581250D01*
X485000Y-8731250D01*
X635000Y-8881250D01*
X1111250Y-5070000D02*
X1261250Y-4920000D01*
X1111250Y-4770000D01*
X961250Y-4920000D01*
X1111250Y-5070000D01*
X1135000Y-2920125D02*
X1285000Y-2770125D01*
X1135000Y-2620125D01*
X985000Y-2770125D01*
X1135000Y-2920125D01*
X1135000Y-8661250D02*
X1285000Y-8511250D01*
X1135000Y-8361250D01*
X985000Y-8511250D01*
X1135000Y-8661250D01*
X1611250Y-4850000D02*
X1761250Y-4700000D01*
X1611250Y-4550000D01*
X1461250Y-4700000D01*
X1611250Y-4850000D01*
X1849375Y-6975000D02*
X1999375Y-6825000D01*
X1849375Y-6675000D01*
X1699375Y-6825000D01*
X1849375Y-6975000D01*
X2349375Y-6755000D02*
X2499375Y-6605000D01*
X2349375Y-6455000D01*
X2199375Y-6605000D01*
X2349375Y-6755000D01*
X2540000Y-3140125D02*
X2690000Y-2990125D01*
X2540000Y-2840125D01*
X2390000Y-2990125D01*
X2540000Y-3140125D01*
X3040000Y-2920125D02*
X3190000Y-2770125D01*
X3040000Y-2620125D01*
X2890000Y-2770125D01*
X3040000Y-2920125D01*
X3261375Y-8881250D02*
X3411375Y-8731250D01*
X3261375Y-8581250D01*
X3111375Y-8731250D01*
X3261375Y-8881250D01*
X3492500Y-5070000D02*
X3642500Y-4920000D01*
X3492500Y-4770000D01*
X3342500Y-4920000D01*
X3492500Y-5070000D01*
X3761375Y-8661250D02*
X3911375Y-8511250D01*
X3761375Y-8361250D01*
X3611375Y-8511250D01*
X3761375Y-8661250D01*
X3992500Y-4850000D02*
X4142500Y-4700000D01*
X3992500Y-4550000D01*
X3842500Y-4700000D01*
X3992500Y-4850000D01*
X4445000Y-3140125D02*
X4595000Y-2990125D01*
X4445000Y-2840125D01*
X4295000Y-2990125D01*
X4445000Y-3140125D01*
X4921250Y-6976250D02*
X5071250Y-6826250D01*
X4921250Y-6676250D01*
X4771250Y-6826250D01*
X4921250Y-6976250D01*
X4945000Y-2920125D02*
X5095000Y-2770125D01*
X4945000Y-2620125D01*
X4795000Y-2770125D01*
X4945000Y-2920125D01*
X5397500Y-5070000D02*
X5547500Y-4920000D01*
X5397500Y-4770000D01*
X5247500Y-4920000D01*
X5397500Y-5070000D01*
X5421250Y-6756250D02*
X5571250Y-6606250D01*
X5421250Y-6456250D01*
X5271250Y-6606250D01*
X5421250Y-6756250D01*
X5429000Y-10839500D02*
X5579000Y-10689500D01*
X5429000Y-10539500D01*
X5279000Y-10689500D01*
X5429000Y-10839500D01*
X5873750Y-8880000D02*
X6023750Y-8730000D01*
X5873750Y-8580000D01*
X5723750Y-8730000D01*
X5873750Y-8880000D01*
X5897500Y-4850000D02*
X6047500Y-4700000D01*
X5897500Y-4550000D01*
X5747500Y-4700000D01*
X5897500Y-4850000D01*
X5929000Y-10619500D02*
X6079000Y-10469500D01*
X5929000Y-10319500D01*
X5779000Y-10469500D01*
X5929000Y-10619500D01*
X6350000Y-3140125D02*
X6500000Y-2990125D01*
X6350000Y-2840125D01*
X6200000Y-2990125D01*
X6350000Y-3140125D01*
X6373750Y-8660000D02*
X6523750Y-8510000D01*
X6373750Y-8360000D01*
X6223750Y-8510000D01*
X6373750Y-8660000D01*
X6826250Y-6976250D02*
X6976250Y-6826250D01*
X6826250Y-6676250D01*
X6676250Y-6826250D01*
X6826250Y-6976250D01*
X6850000Y-2920125D02*
X7000000Y-2770125D01*
X6850000Y-2620125D01*
X6700000Y-2770125D01*
X6850000Y-2920125D01*
X7302500Y-5070000D02*
X7452500Y-4920000D01*
X7302500Y-4770000D01*
X7152500Y-4920000D01*
X7302500Y-5070000D01*
X7326250Y-6756250D02*
X7476250Y-6606250D01*
X7326250Y-6456250D01*
X7176250Y-6606250D01*
X7326250Y-6756250D01*
X7778750Y-8880000D02*
X7928750Y-8730000D01*
X7778750Y-8580000D01*
X7628750Y-8730000D01*
X7778750Y-8880000D01*
X7802500Y-4850000D02*
X7952500Y-4700000D01*
X7802500Y-4550000D01*
X7652500Y-4700000D01*
X7802500Y-4850000D01*
X7858125Y-10839500D02*
X8008125Y-10689500D01*
X7858125Y-10539500D01*
X7708125Y-10689500D01*
X7858125Y-10839500D01*
X8255000Y-3140125D02*
X8405000Y-2990125D01*
X8255000Y-2840125D01*
X8105000Y-2990125D01*
X8255000Y-3140125D01*
X8278750Y-8660000D02*
X8428750Y-8510000D01*
X8278750Y-8360000D01*
X8128750Y-8510000D01*
X8278750Y-8660000D01*
X8358125Y-10619500D02*
X8508125Y-10469500D01*
X8358125Y-10319500D01*
X8208125Y-10469500D01*
X8358125Y-10619500D01*
X8738250Y-6976250D02*
X8888250Y-6826250D01*
X8738250Y-6676250D01*
X8588250Y-6826250D01*
X8738250Y-6976250D01*
X8755000Y-2920125D02*
X8905000Y-2770125D01*
X8755000Y-2620125D01*
X8605000Y-2770125D01*
X8755000Y-2920125D01*
X9207500Y-5070000D02*
X9357500Y-4920000D01*
X9207500Y-4770000D01*
X9057500Y-4920000D01*
X9207500Y-5070000D01*
X9238250Y-6756250D02*
X9388250Y-6606250D01*
X9238250Y-6456250D01*
X9088250Y-6606250D01*
X9238250Y-6756250D01*
X9683750Y-8880000D02*
X9833750Y-8730000D01*
X9683750Y-8580000D01*
X9533750Y-8730000D01*
X9683750Y-8880000D01*
X9707500Y-4850000D02*
X9857500Y-4700000D01*
X9707500Y-4550000D01*
X9557500Y-4700000D01*
X9707500Y-4850000D01*
X10183750Y-8660000D02*
X10333750Y-8510000D01*
X10183750Y-8360000D01*
X10033750Y-8510000D01*
X10183750Y-8660000D01*
X10191500Y-3140125D02*
X10341500Y-2990125D01*
X10191500Y-2840125D01*
X10041500Y-2990125D01*
X10191500Y-3140125D01*
X10636250Y-6976250D02*
X10786250Y-6826250D01*
X10636250Y-6676250D01*
X10486250Y-6826250D01*
X10636250Y-6976250D01*
X10691500Y-2920125D02*
X10841500Y-2770125D01*
X10691500Y-2620125D01*
X10541500Y-2770125D01*
X10691500Y-2920125D01*
X11112500Y-5070000D02*
X11262500Y-4920000D01*
X11112500Y-4770000D01*
X10962500Y-4920000D01*
X11112500Y-5070000D01*
X11136250Y-6756250D02*
X11286250Y-6606250D01*
X11136250Y-6456250D01*
X10986250Y-6606250D01*
X11136250Y-6756250D01*
X11588750Y-8880000D02*
X11738750Y-8730000D01*
X11588750Y-8580000D01*
X11438750Y-8730000D01*
X11588750Y-8880000D01*
X11612500Y-4850000D02*
X11762500Y-4700000D01*
X11612500Y-4550000D01*
X11462500Y-4700000D01*
X11612500Y-4850000D01*
X12088750Y-8660000D02*
X12238750Y-8510000D01*
X12088750Y-8360000D01*
X11938750Y-8510000D01*
X12088750Y-8660000D01*
X12096500Y-3140125D02*
X12246500Y-2990125D01*
X12096500Y-2840125D01*
X11946500Y-2990125D01*
X12096500Y-3140125D01*
X12541250Y-6976250D02*
X12691250Y-6826250D01*
X12541250Y-6676250D01*
X12391250Y-6826250D01*
X12541250Y-6976250D01*
X12596500Y-2920125D02*
X12746500Y-2770125D01*
X12596500Y-2620125D01*
X12446500Y-2770125D01*
X12596500Y-2920125D01*
X13017500Y-5070000D02*
X13167500Y-4920000D01*
X13017500Y-4770000D01*
X12867500Y-4920000D01*
X13017500Y-5070000D01*
X13041250Y-6756250D02*
X13191250Y-6606250D01*
X13041250Y-6456250D01*
X12891250Y-6606250D01*
X13041250Y-6756250D01*
X13493750Y-8880000D02*
X13643750Y-8730000D01*
X13493750Y-8580000D01*
X13343750Y-8730000D01*
X13493750Y-8880000D01*
X13517500Y-4850000D02*
X13667500Y-4700000D01*
X13517500Y-4550000D01*
X13367500Y-4700000D01*
X13517500Y-4850000D01*
X13993750Y-8660000D02*
X14143750Y-8510000D01*
X13993750Y-8360000D01*
X13843750Y-8510000D01*
X13993750Y-8660000D01*
X14001500Y-3140125D02*
X14151500Y-2990125D01*
X14001500Y-2840125D01*
X13851500Y-2990125D01*
X14001500Y-3140125D01*
X14446250Y-6976250D02*
X14596250Y-6826250D01*
X14446250Y-6676250D01*
X14296250Y-6826250D01*
X14446250Y-6976250D01*
X14501500Y-2920125D02*
X14651500Y-2770125D01*
X14501500Y-2620125D01*
X14351500Y-2770125D01*
X14501500Y-2920125D01*
X14922500Y-5070000D02*
X15072500Y-4920000D01*
X14922500Y-4770000D01*
X14772500Y-4920000D01*
X14922500Y-5070000D01*
X14922500Y-10825625D02*
X15072500Y-10675625D01*
X14922500Y-10525625D01*
X14772500Y-10675625D01*
X14922500Y-10825625D01*
X14946250Y-6756250D02*
X15096250Y-6606250D01*
X14946250Y-6456250D01*
X14796250Y-6606250D01*
X14946250Y-6756250D01*
X15398750Y-8880000D02*
X15548750Y-8730000D01*
X15398750Y-8580000D01*
X15248750Y-8730000D01*
X15398750Y-8880000D01*
X15422500Y-4850000D02*
X15572500Y-4700000D01*
X15422500Y-4550000D01*
X15272500Y-4700000D01*
X15422500Y-4850000D01*
X15422500Y-10605625D02*
X15572500Y-10455625D01*
X15422500Y-10305625D01*
X15272500Y-10455625D01*
X15422500Y-10605625D01*
X15898750Y-3140125D02*
X16048750Y-2990125D01*
X15898750Y-2840125D01*
X15748750Y-2990125D01*
X15898750Y-3140125D01*
X15898750Y-8660000D02*
X16048750Y-8510000D01*
X15898750Y-8360000D01*
X15748750Y-8510000D01*
X15898750Y-8660000D01*
X16351250Y-6976250D02*
X16501250Y-6826250D01*
X16351250Y-6676250D01*
X16201250Y-6826250D01*
X16351250Y-6976250D01*
X16398750Y-2920125D02*
X16548750Y-2770125D01*
X16398750Y-2620125D01*
X16248750Y-2770125D01*
X16398750Y-2920125D01*
X16827500Y-5070000D02*
X16977500Y-4920000D01*
X16827500Y-4770000D01*
X16677500Y-4920000D01*
X16827500Y-5070000D01*
X16851250Y-6756250D02*
X17001250Y-6606250D01*
X16851250Y-6456250D01*
X16701250Y-6606250D01*
X16851250Y-6756250D01*
X17303750Y-8880000D02*
X17453750Y-8730000D01*
X17303750Y-8580000D01*
X17153750Y-8730000D01*
X17303750Y-8880000D01*
X17327500Y-4850000D02*
X17477500Y-4700000D01*
X17327500Y-4550000D01*
X17177500Y-4700000D01*
X17327500Y-4850000D01*
X17803750Y-3140125D02*
X17953750Y-2990125D01*
X17803750Y-2840125D01*
X17653750Y-2990125D01*
X17803750Y-3140125D01*
X17803750Y-8660000D02*
X17953750Y-8510000D01*
X17803750Y-8360000D01*
X17653750Y-8510000D01*
X17803750Y-8660000D01*
X18263600Y-6974000D02*
X18413600Y-6824000D01*
X18263600Y-6674000D01*
X18113600Y-6824000D01*
X18263600Y-6974000D01*
X18303750Y-2920125D02*
X18453750Y-2770125D01*
X18303750Y-2620125D01*
X18153750Y-2770125D01*
X18303750Y-2920125D01*
X18732500Y-5070000D02*
X18882500Y-4920000D01*
X18732500Y-4770000D01*
X18582500Y-4920000D01*
X18732500Y-5070000D01*
X18763600Y-6754000D02*
X18913600Y-6604000D01*
X18763600Y-6454000D01*
X18613600Y-6604000D01*
X18763600Y-6754000D01*
X19208750Y-8880000D02*
X19358750Y-8730000D01*
X19208750Y-8580000D01*
X19058750Y-8730000D01*
X19208750Y-8880000D01*
X19232500Y-4850000D02*
X19382500Y-4700000D01*
X19232500Y-4550000D01*
X19082500Y-4700000D01*
X19232500Y-4850000D01*
X19708750Y-8660000D02*
X19858750Y-8510000D01*
X19708750Y-8360000D01*
X19558750Y-8510000D01*
X19708750Y-8660000D01*
X19716500Y-3140125D02*
X19866500Y-2990125D01*
X19716500Y-2840125D01*
X19566500Y-2990125D01*
X19716500Y-3140125D01*
X20168250Y-6976250D02*
X20318250Y-6826250D01*
X20168250Y-6676250D01*
X20018250Y-6826250D01*
X20168250Y-6976250D01*
X20216500Y-2920125D02*
X20366500Y-2770125D01*
X20216500Y-2620125D01*
X20066500Y-2770125D01*
X20216500Y-2920125D01*
X20637500Y-5070000D02*
X20787500Y-4920000D01*
X20637500Y-4770000D01*
X20487500Y-4920000D01*
X20637500Y-5070000D01*
X20668250Y-6756250D02*
X20818250Y-6606250D01*
X20668250Y-6456250D01*
X20518250Y-6606250D01*
X20668250Y-6756250D01*
X21113750Y-8880000D02*
X21263750Y-8730000D01*
X21113750Y-8580000D01*
X20963750Y-8730000D01*
X21113750Y-8880000D01*
X21137500Y-4850000D02*
X21287500Y-4700000D01*
X21137500Y-4550000D01*
X20987500Y-4700000D01*
X21137500Y-4850000D01*
X21613750Y-3140125D02*
X21763750Y-2990125D01*
X21613750Y-2840125D01*
X21463750Y-2990125D01*
X21613750Y-3140125D01*
X21613750Y-8660000D02*
X21763750Y-8510000D01*
X21613750Y-8360000D01*
X21463750Y-8510000D01*
X21613750Y-8660000D01*
X22066250Y-6975000D02*
X22216250Y-6825000D01*
X22066250Y-6675000D01*
X21916250Y-6825000D01*
X22066250Y-6975000D01*
X22113750Y-2920125D02*
X22263750Y-2770125D01*
X22113750Y-2620125D01*
X21963750Y-2770125D01*
X22113750Y-2920125D01*
X22542500Y-5070000D02*
X22692500Y-4920000D01*
X22542500Y-4770000D01*
X22392500Y-4920000D01*
X22542500Y-5070000D01*
X22542500Y-10825625D02*
X22692500Y-10675625D01*
X22542500Y-10525625D01*
X22392500Y-10675625D01*
X22542500Y-10825625D01*
X22566250Y-6755000D02*
X22716250Y-6605000D01*
X22566250Y-6455000D01*
X22416250Y-6605000D01*
X22566250Y-6755000D01*
X23042500Y-4850000D02*
X23192500Y-4700000D01*
X23042500Y-4550000D01*
X22892500Y-4700000D01*
X23042500Y-4850000D01*
X23042500Y-8880000D02*
X23192500Y-8730000D01*
X23042500Y-8580000D01*
X22892500Y-8730000D01*
X23042500Y-8880000D01*
X23042500Y-10605625D02*
X23192500Y-10455625D01*
X23042500Y-10305625D01*
X22892500Y-10455625D01*
X23042500Y-10605625D01*
X23526500Y-3140125D02*
X23676500Y-2990125D01*
X23526500Y-2840125D01*
X23376500Y-2990125D01*
X23526500Y-3140125D01*
X23542500Y-8660000D02*
X23692500Y-8510000D01*
X23542500Y-8360000D01*
X23392500Y-8510000D01*
X23542500Y-8660000D01*
X23971250Y-6975000D02*
X24121250Y-6825000D01*
X23971250Y-6675000D01*
X23821250Y-6825000D01*
X23971250Y-6975000D01*
X24026500Y-2920125D02*
X24176500Y-2770125D01*
X24026500Y-2620125D01*
X23876500Y-2770125D01*
X24026500Y-2920125D01*
X24447500Y-5070000D02*
X24597500Y-4920000D01*
X24447500Y-4770000D01*
X24297500Y-4920000D01*
X24447500Y-5070000D01*
X24471250Y-6755000D02*
X24621250Y-6605000D01*
X24471250Y-6455000D01*
X24321250Y-6605000D01*
X24471250Y-6755000D01*
X24923750Y-10825625D02*
X25073750Y-10675625D01*
X24923750Y-10525625D01*
X24773750Y-10675625D01*
X24923750Y-10825625D01*
X24947500Y-4850000D02*
X25097500Y-4700000D01*
X24947500Y-4550000D01*
X24797500Y-4700000D01*
X24947500Y-4850000D01*
X25423750Y-10605625D02*
X25573750Y-10455625D01*
X25423750Y-10305625D01*
X25273750Y-10455625D01*
X25423750Y-10605625D01*
X25431500Y-3140125D02*
X25581500Y-2990125D01*
X25431500Y-2840125D01*
X25281500Y-2990125D01*
X25431500Y-3140125D01*
X25931500Y-2920125D02*
X26081500Y-2770125D01*
X25931500Y-2620125D01*
X25781500Y-2770125D01*
X25931500Y-2920125D01*
X26138125Y-8880000D02*
X26288125Y-8730000D01*
X26138125Y-8580000D01*
X25988125Y-8730000D01*
X26138125Y-8880000D01*
X26614375Y-6975000D02*
X26764375Y-6825000D01*
X26614375Y-6675000D01*
X26464375Y-6825000D01*
X26614375Y-6975000D01*
X26638125Y-8660000D02*
X26788125Y-8510000D01*
X26638125Y-8360000D01*
X26488125Y-8510000D01*
X26638125Y-8660000D01*
X26852500Y-5070000D02*
X27002500Y-4920000D01*
X26852500Y-4770000D01*
X26702500Y-4920000D01*
X26852500Y-5070000D01*
X27114375Y-6755000D02*
X27264375Y-6605000D01*
X27114375Y-6455000D01*
X26964375Y-6605000D01*
X27114375Y-6755000D01*
X27328750Y-3140125D02*
X27478750Y-2990125D01*
X27328750Y-2840125D01*
X27178750Y-2990125D01*
X27328750Y-3140125D01*
X27352500Y-4850000D02*
X27502500Y-4700000D01*
X27352500Y-4550000D01*
X27202500Y-4700000D01*
X27352500Y-4850000D01*
X27828750Y-2920125D02*
X27978750Y-2770125D01*
X27828750Y-2620125D01*
X27678750Y-2770125D01*
X27828750Y-2920125D01*
D11*
X-58320Y-11401181D02*
X-58320Y-11201181D01*
X-58320Y-11201181D02*
X-10702Y-11201181D01*
X-10702Y-11201181D02*
X17870Y-11210705D01*
X17870Y-11210705D02*
X36918Y-11229753D01*
X36918Y-11229753D02*
X46441Y-11248800D01*
X46441Y-11248800D02*
X55965Y-11286895D01*
X55965Y-11286895D02*
X55965Y-11315467D01*
X55965Y-11315467D02*
X46441Y-11353562D01*
X46441Y-11353562D02*
X36918Y-11372610D01*
X36918Y-11372610D02*
X17870Y-11391657D01*
X17870Y-11391657D02*
X-10702Y-11401181D01*
X-10702Y-11401181D02*
X-58320Y-11401181D01*
X141679Y-11401181D02*
X141679Y-11267848D01*
X141679Y-11305943D02*
X151203Y-11286895D01*
X151203Y-11286895D02*
X160727Y-11277372D01*
X160727Y-11277372D02*
X179775Y-11267848D01*
X179775Y-11267848D02*
X198822Y-11267848D01*
X265489Y-11401181D02*
X265489Y-11267848D01*
X265489Y-11201181D02*
X255965Y-11210705D01*
X255965Y-11210705D02*
X265489Y-11220229D01*
X265489Y-11220229D02*
X275013Y-11210705D01*
X275013Y-11210705D02*
X265489Y-11201181D01*
X265489Y-11201181D02*
X265489Y-11220229D01*
X389298Y-11401181D02*
X370251Y-11391657D01*
X370251Y-11391657D02*
X360727Y-11372610D01*
X360727Y-11372610D02*
X360727Y-11201181D01*
X494060Y-11401181D02*
X475013Y-11391657D01*
X475013Y-11391657D02*
X465489Y-11372610D01*
X465489Y-11372610D02*
X465489Y-11201181D01*
X722632Y-11401181D02*
X722632Y-11201181D01*
X722632Y-11201181D02*
X789298Y-11344038D01*
X789298Y-11344038D02*
X855965Y-11201181D01*
X855965Y-11201181D02*
X855965Y-11401181D01*
X1036917Y-11401181D02*
X1036917Y-11296419D01*
X1036917Y-11296419D02*
X1027394Y-11277372D01*
X1027394Y-11277372D02*
X1008346Y-11267848D01*
X1008346Y-11267848D02*
X970251Y-11267848D01*
X970251Y-11267848D02*
X951203Y-11277372D01*
X1036917Y-11391657D02*
X1017870Y-11401181D01*
X1017870Y-11401181D02*
X970251Y-11401181D01*
X970251Y-11401181D02*
X951203Y-11391657D01*
X951203Y-11391657D02*
X941679Y-11372610D01*
X941679Y-11372610D02*
X941679Y-11353562D01*
X941679Y-11353562D02*
X951203Y-11334514D01*
X951203Y-11334514D02*
X970251Y-11324991D01*
X970251Y-11324991D02*
X1017870Y-11324991D01*
X1017870Y-11324991D02*
X1036917Y-11315467D01*
X1132156Y-11267848D02*
X1132156Y-11467848D01*
X1132156Y-11277372D02*
X1151203Y-11267848D01*
X1151203Y-11267848D02*
X1189299Y-11267848D01*
X1189299Y-11267848D02*
X1208346Y-11277372D01*
X1208346Y-11277372D02*
X1217870Y-11286895D01*
X1217870Y-11286895D02*
X1227394Y-11305943D01*
X1227394Y-11305943D02*
X1227394Y-11363086D01*
X1227394Y-11363086D02*
X1217870Y-11382133D01*
X1217870Y-11382133D02*
X1208346Y-11391657D01*
X1208346Y-11391657D02*
X1189299Y-11401181D01*
X1189299Y-11401181D02*
X1151203Y-11401181D01*
X1151203Y-11401181D02*
X1132156Y-11391657D01*
X1313108Y-11382133D02*
X1322632Y-11391657D01*
X1322632Y-11391657D02*
X1313108Y-11401181D01*
X1313108Y-11401181D02*
X1303584Y-11391657D01*
X1303584Y-11391657D02*
X1313108Y-11382133D01*
X1313108Y-11382133D02*
X1313108Y-11401181D01*
X1313108Y-11277372D02*
X1322632Y-11286895D01*
X1322632Y-11286895D02*
X1313108Y-11296419D01*
X1313108Y-11296419D02*
X1303584Y-11286895D01*
X1303584Y-11286895D02*
X1313108Y-11277372D01*
X1313108Y-11277372D02*
X1313108Y-11296419D01*
D12*
X-349097Y-11714697D02*
X-319097Y-11744697D01*
X-319097Y-11714697D02*
X-349097Y-11744697D01*
D11*
X-20225Y-11621181D02*
X-1178Y-11621181D01*
X-1178Y-11621181D02*
X17870Y-11630705D01*
X17870Y-11630705D02*
X27394Y-11640229D01*
X27394Y-11640229D02*
X36918Y-11659276D01*
X36918Y-11659276D02*
X46441Y-11697372D01*
X46441Y-11697372D02*
X46441Y-11744991D01*
X46441Y-11744991D02*
X36918Y-11783086D01*
X36918Y-11783086D02*
X27394Y-11802133D01*
X27394Y-11802133D02*
X17870Y-11811657D01*
X17870Y-11811657D02*
X-1178Y-11821181D01*
X-1178Y-11821181D02*
X-20225Y-11821181D01*
X-20225Y-11821181D02*
X-39273Y-11811657D01*
X-39273Y-11811657D02*
X-48797Y-11802133D01*
X-48797Y-11802133D02*
X-58320Y-11783086D01*
X-58320Y-11783086D02*
X-67844Y-11744991D01*
X-67844Y-11744991D02*
X-67844Y-11697372D01*
X-67844Y-11697372D02*
X-58320Y-11659276D01*
X-58320Y-11659276D02*
X-48797Y-11640229D01*
X-48797Y-11640229D02*
X-39273Y-11630705D01*
X-39273Y-11630705D02*
X-20225Y-11621181D01*
X132156Y-11802133D02*
X141679Y-11811657D01*
X141679Y-11811657D02*
X132156Y-11821181D01*
X132156Y-11821181D02*
X122632Y-11811657D01*
X122632Y-11811657D02*
X132156Y-11802133D01*
X132156Y-11802133D02*
X132156Y-11821181D01*
X208346Y-11621181D02*
X332156Y-11621181D01*
X332156Y-11621181D02*
X265489Y-11697372D01*
X265489Y-11697372D02*
X294060Y-11697372D01*
X294060Y-11697372D02*
X313108Y-11706895D01*
X313108Y-11706895D02*
X322632Y-11716419D01*
X322632Y-11716419D02*
X332156Y-11735467D01*
X332156Y-11735467D02*
X332156Y-11783086D01*
X332156Y-11783086D02*
X322632Y-11802133D01*
X322632Y-11802133D02*
X313108Y-11811657D01*
X313108Y-11811657D02*
X294060Y-11821181D01*
X294060Y-11821181D02*
X236917Y-11821181D01*
X236917Y-11821181D02*
X217870Y-11811657D01*
X217870Y-11811657D02*
X208346Y-11802133D01*
X455965Y-11621181D02*
X475013Y-11621181D01*
X475013Y-11621181D02*
X494060Y-11630705D01*
X494060Y-11630705D02*
X503584Y-11640229D01*
X503584Y-11640229D02*
X513108Y-11659276D01*
X513108Y-11659276D02*
X522632Y-11697372D01*
X522632Y-11697372D02*
X522632Y-11744991D01*
X522632Y-11744991D02*
X513108Y-11783086D01*
X513108Y-11783086D02*
X503584Y-11802133D01*
X503584Y-11802133D02*
X494060Y-11811657D01*
X494060Y-11811657D02*
X475013Y-11821181D01*
X475013Y-11821181D02*
X455965Y-11821181D01*
X455965Y-11821181D02*
X436917Y-11811657D01*
X436917Y-11811657D02*
X427394Y-11802133D01*
X427394Y-11802133D02*
X417870Y-11783086D01*
X417870Y-11783086D02*
X408346Y-11744991D01*
X408346Y-11744991D02*
X408346Y-11697372D01*
X408346Y-11697372D02*
X417870Y-11659276D01*
X417870Y-11659276D02*
X427394Y-11640229D01*
X427394Y-11640229D02*
X436917Y-11630705D01*
X436917Y-11630705D02*
X455965Y-11621181D01*
X646441Y-11621181D02*
X665489Y-11621181D01*
X665489Y-11621181D02*
X684537Y-11630705D01*
X684537Y-11630705D02*
X694060Y-11640229D01*
X694060Y-11640229D02*
X703584Y-11659276D01*
X703584Y-11659276D02*
X713108Y-11697372D01*
X713108Y-11697372D02*
X713108Y-11744991D01*
X713108Y-11744991D02*
X703584Y-11783086D01*
X703584Y-11783086D02*
X694060Y-11802133D01*
X694060Y-11802133D02*
X684537Y-11811657D01*
X684537Y-11811657D02*
X665489Y-11821181D01*
X665489Y-11821181D02*
X646441Y-11821181D01*
X646441Y-11821181D02*
X627394Y-11811657D01*
X627394Y-11811657D02*
X617870Y-11802133D01*
X617870Y-11802133D02*
X608346Y-11783086D01*
X608346Y-11783086D02*
X598822Y-11744991D01*
X598822Y-11744991D02*
X598822Y-11697372D01*
X598822Y-11697372D02*
X608346Y-11659276D01*
X608346Y-11659276D02*
X617870Y-11640229D01*
X617870Y-11640229D02*
X627394Y-11630705D01*
X627394Y-11630705D02*
X646441Y-11621181D01*
X798822Y-11821181D02*
X798822Y-11687848D01*
X798822Y-11706895D02*
X808346Y-11697372D01*
X808346Y-11697372D02*
X827394Y-11687848D01*
X827394Y-11687848D02*
X855965Y-11687848D01*
X855965Y-11687848D02*
X875013Y-11697372D01*
X875013Y-11697372D02*
X884537Y-11716419D01*
X884537Y-11716419D02*
X884537Y-11821181D01*
X884537Y-11716419D02*
X894060Y-11697372D01*
X894060Y-11697372D02*
X913108Y-11687848D01*
X913108Y-11687848D02*
X941679Y-11687848D01*
X941679Y-11687848D02*
X960727Y-11697372D01*
X960727Y-11697372D02*
X970251Y-11716419D01*
X970251Y-11716419D02*
X970251Y-11821181D01*
X1065489Y-11821181D02*
X1065489Y-11687848D01*
X1065489Y-11706895D02*
X1075013Y-11697372D01*
X1075013Y-11697372D02*
X1094060Y-11687848D01*
X1094060Y-11687848D02*
X1122632Y-11687848D01*
X1122632Y-11687848D02*
X1141680Y-11697372D01*
X1141680Y-11697372D02*
X1151203Y-11716419D01*
X1151203Y-11716419D02*
X1151203Y-11821181D01*
X1151203Y-11716419D02*
X1160727Y-11697372D01*
X1160727Y-11697372D02*
X1179775Y-11687848D01*
X1179775Y-11687848D02*
X1208346Y-11687848D01*
X1208346Y-11687848D02*
X1227394Y-11697372D01*
X1227394Y-11697372D02*
X1236918Y-11716419D01*
X1236918Y-11716419D02*
X1236918Y-11821181D01*
X1627394Y-11611657D02*
X1455965Y-11868800D01*
X1884537Y-11621181D02*
X1903584Y-11621181D01*
X1903584Y-11621181D02*
X1922632Y-11630705D01*
X1922632Y-11630705D02*
X1932156Y-11640229D01*
X1932156Y-11640229D02*
X1941680Y-11659276D01*
X1941680Y-11659276D02*
X1951203Y-11697372D01*
X1951203Y-11697372D02*
X1951203Y-11744991D01*
X1951203Y-11744991D02*
X1941680Y-11783086D01*
X1941680Y-11783086D02*
X1932156Y-11802133D01*
X1932156Y-11802133D02*
X1922632Y-11811657D01*
X1922632Y-11811657D02*
X1903584Y-11821181D01*
X1903584Y-11821181D02*
X1884537Y-11821181D01*
X1884537Y-11821181D02*
X1865489Y-11811657D01*
X1865489Y-11811657D02*
X1855965Y-11802133D01*
X1855965Y-11802133D02*
X1846441Y-11783086D01*
X1846441Y-11783086D02*
X1836918Y-11744991D01*
X1836918Y-11744991D02*
X1836918Y-11697372D01*
X1836918Y-11697372D02*
X1846441Y-11659276D01*
X1846441Y-11659276D02*
X1855965Y-11640229D01*
X1855965Y-11640229D02*
X1865489Y-11630705D01*
X1865489Y-11630705D02*
X1884537Y-11621181D01*
X2036918Y-11802133D02*
X2046441Y-11811657D01*
X2046441Y-11811657D02*
X2036918Y-11821181D01*
X2036918Y-11821181D02*
X2027394Y-11811657D01*
X2027394Y-11811657D02*
X2036918Y-11802133D01*
X2036918Y-11802133D02*
X2036918Y-11821181D01*
X2170251Y-11621181D02*
X2189299Y-11621181D01*
X2189299Y-11621181D02*
X2208346Y-11630705D01*
X2208346Y-11630705D02*
X2217870Y-11640229D01*
X2217870Y-11640229D02*
X2227394Y-11659276D01*
X2227394Y-11659276D02*
X2236918Y-11697372D01*
X2236918Y-11697372D02*
X2236918Y-11744991D01*
X2236918Y-11744991D02*
X2227394Y-11783086D01*
X2227394Y-11783086D02*
X2217870Y-11802133D01*
X2217870Y-11802133D02*
X2208346Y-11811657D01*
X2208346Y-11811657D02*
X2189299Y-11821181D01*
X2189299Y-11821181D02*
X2170251Y-11821181D01*
X2170251Y-11821181D02*
X2151203Y-11811657D01*
X2151203Y-11811657D02*
X2141680Y-11802133D01*
X2141680Y-11802133D02*
X2132156Y-11783086D01*
X2132156Y-11783086D02*
X2122632Y-11744991D01*
X2122632Y-11744991D02*
X2122632Y-11697372D01*
X2122632Y-11697372D02*
X2132156Y-11659276D01*
X2132156Y-11659276D02*
X2141680Y-11640229D01*
X2141680Y-11640229D02*
X2151203Y-11630705D01*
X2151203Y-11630705D02*
X2170251Y-11621181D01*
X2427394Y-11821181D02*
X2313108Y-11821181D01*
X2370251Y-11821181D02*
X2370251Y-11621181D01*
X2370251Y-11621181D02*
X2351203Y-11649753D01*
X2351203Y-11649753D02*
X2332156Y-11668800D01*
X2332156Y-11668800D02*
X2313108Y-11678324D01*
X2617870Y-11821181D02*
X2503584Y-11821181D01*
X2560727Y-11821181D02*
X2560727Y-11621181D01*
X2560727Y-11621181D02*
X2541680Y-11649753D01*
X2541680Y-11649753D02*
X2522632Y-11668800D01*
X2522632Y-11668800D02*
X2503584Y-11678324D01*
X2732156Y-11706895D02*
X2713108Y-11697372D01*
X2713108Y-11697372D02*
X2703584Y-11687848D01*
X2703584Y-11687848D02*
X2694061Y-11668800D01*
X2694061Y-11668800D02*
X2694061Y-11659276D01*
X2694061Y-11659276D02*
X2703584Y-11640229D01*
X2703584Y-11640229D02*
X2713108Y-11630705D01*
X2713108Y-11630705D02*
X2732156Y-11621181D01*
X2732156Y-11621181D02*
X2770251Y-11621181D01*
X2770251Y-11621181D02*
X2789299Y-11630705D01*
X2789299Y-11630705D02*
X2798822Y-11640229D01*
X2798822Y-11640229D02*
X2808346Y-11659276D01*
X2808346Y-11659276D02*
X2808346Y-11668800D01*
X2808346Y-11668800D02*
X2798822Y-11687848D01*
X2798822Y-11687848D02*
X2789299Y-11697372D01*
X2789299Y-11697372D02*
X2770251Y-11706895D01*
X2770251Y-11706895D02*
X2732156Y-11706895D01*
X2732156Y-11706895D02*
X2713108Y-11716419D01*
X2713108Y-11716419D02*
X2703584Y-11725943D01*
X2703584Y-11725943D02*
X2694061Y-11744991D01*
X2694061Y-11744991D02*
X2694061Y-11783086D01*
X2694061Y-11783086D02*
X2703584Y-11802133D01*
X2703584Y-11802133D02*
X2713108Y-11811657D01*
X2713108Y-11811657D02*
X2732156Y-11821181D01*
X2732156Y-11821181D02*
X2770251Y-11821181D01*
X2770251Y-11821181D02*
X2789299Y-11811657D01*
X2789299Y-11811657D02*
X2798822Y-11802133D01*
X2798822Y-11802133D02*
X2808346Y-11783086D01*
X2808346Y-11783086D02*
X2808346Y-11744991D01*
X2808346Y-11744991D02*
X2798822Y-11725943D01*
X2798822Y-11725943D02*
X2789299Y-11716419D01*
X2789299Y-11716419D02*
X2770251Y-11706895D01*
X2884537Y-11621181D02*
X2884537Y-11659276D01*
X2960727Y-11621181D02*
X2960727Y-11659276D01*
X3255965Y-11897372D02*
X3246442Y-11887848D01*
X3246442Y-11887848D02*
X3227394Y-11859276D01*
X3227394Y-11859276D02*
X3217870Y-11840229D01*
X3217870Y-11840229D02*
X3208346Y-11811657D01*
X3208346Y-11811657D02*
X3198823Y-11764038D01*
X3198823Y-11764038D02*
X3198823Y-11725943D01*
X3198823Y-11725943D02*
X3208346Y-11678324D01*
X3208346Y-11678324D02*
X3217870Y-11649753D01*
X3217870Y-11649753D02*
X3227394Y-11630705D01*
X3227394Y-11630705D02*
X3246442Y-11602133D01*
X3246442Y-11602133D02*
X3255965Y-11592610D01*
X3436918Y-11821181D02*
X3322632Y-11821181D01*
X3379775Y-11821181D02*
X3379775Y-11621181D01*
X3379775Y-11621181D02*
X3360727Y-11649753D01*
X3360727Y-11649753D02*
X3341680Y-11668800D01*
X3341680Y-11668800D02*
X3322632Y-11678324D01*
X3608346Y-11687848D02*
X3608346Y-11821181D01*
X3560727Y-11611657D02*
X3513108Y-11754514D01*
X3513108Y-11754514D02*
X3636918Y-11754514D01*
X3722632Y-11821181D02*
X3760727Y-11821181D01*
X3760727Y-11821181D02*
X3779775Y-11811657D01*
X3779775Y-11811657D02*
X3789299Y-11802133D01*
X3789299Y-11802133D02*
X3808346Y-11773562D01*
X3808346Y-11773562D02*
X3817870Y-11735467D01*
X3817870Y-11735467D02*
X3817870Y-11659276D01*
X3817870Y-11659276D02*
X3808346Y-11640229D01*
X3808346Y-11640229D02*
X3798823Y-11630705D01*
X3798823Y-11630705D02*
X3779775Y-11621181D01*
X3779775Y-11621181D02*
X3741680Y-11621181D01*
X3741680Y-11621181D02*
X3722632Y-11630705D01*
X3722632Y-11630705D02*
X3713108Y-11640229D01*
X3713108Y-11640229D02*
X3703584Y-11659276D01*
X3703584Y-11659276D02*
X3703584Y-11706895D01*
X3703584Y-11706895D02*
X3713108Y-11725943D01*
X3713108Y-11725943D02*
X3722632Y-11735467D01*
X3722632Y-11735467D02*
X3741680Y-11744991D01*
X3741680Y-11744991D02*
X3779775Y-11744991D01*
X3779775Y-11744991D02*
X3798823Y-11735467D01*
X3798823Y-11735467D02*
X3808346Y-11725943D01*
X3808346Y-11725943D02*
X3817870Y-11706895D01*
X4055965Y-11821181D02*
X4055965Y-11621181D01*
X4141680Y-11821181D02*
X4141680Y-11716419D01*
X4141680Y-11716419D02*
X4132156Y-11697372D01*
X4132156Y-11697372D02*
X4113108Y-11687848D01*
X4113108Y-11687848D02*
X4084537Y-11687848D01*
X4084537Y-11687848D02*
X4065489Y-11697372D01*
X4065489Y-11697372D02*
X4055965Y-11706895D01*
X4265489Y-11821181D02*
X4246442Y-11811657D01*
X4246442Y-11811657D02*
X4236918Y-11802133D01*
X4236918Y-11802133D02*
X4227394Y-11783086D01*
X4227394Y-11783086D02*
X4227394Y-11725943D01*
X4227394Y-11725943D02*
X4236918Y-11706895D01*
X4236918Y-11706895D02*
X4246442Y-11697372D01*
X4246442Y-11697372D02*
X4265489Y-11687848D01*
X4265489Y-11687848D02*
X4294061Y-11687848D01*
X4294061Y-11687848D02*
X4313108Y-11697372D01*
X4313108Y-11697372D02*
X4322632Y-11706895D01*
X4322632Y-11706895D02*
X4332156Y-11725943D01*
X4332156Y-11725943D02*
X4332156Y-11783086D01*
X4332156Y-11783086D02*
X4322632Y-11802133D01*
X4322632Y-11802133D02*
X4313108Y-11811657D01*
X4313108Y-11811657D02*
X4294061Y-11821181D01*
X4294061Y-11821181D02*
X4265489Y-11821181D01*
X4446442Y-11821181D02*
X4427394Y-11811657D01*
X4427394Y-11811657D02*
X4417870Y-11792610D01*
X4417870Y-11792610D02*
X4417870Y-11621181D01*
X4598823Y-11811657D02*
X4579775Y-11821181D01*
X4579775Y-11821181D02*
X4541680Y-11821181D01*
X4541680Y-11821181D02*
X4522632Y-11811657D01*
X4522632Y-11811657D02*
X4513108Y-11792610D01*
X4513108Y-11792610D02*
X4513108Y-11716419D01*
X4513108Y-11716419D02*
X4522632Y-11697372D01*
X4522632Y-11697372D02*
X4541680Y-11687848D01*
X4541680Y-11687848D02*
X4579775Y-11687848D01*
X4579775Y-11687848D02*
X4598823Y-11697372D01*
X4598823Y-11697372D02*
X4608347Y-11716419D01*
X4608347Y-11716419D02*
X4608347Y-11735467D01*
X4608347Y-11735467D02*
X4513108Y-11754514D01*
X4684537Y-11811657D02*
X4703585Y-11821181D01*
X4703585Y-11821181D02*
X4741680Y-11821181D01*
X4741680Y-11821181D02*
X4760728Y-11811657D01*
X4760728Y-11811657D02*
X4770251Y-11792610D01*
X4770251Y-11792610D02*
X4770251Y-11783086D01*
X4770251Y-11783086D02*
X4760728Y-11764038D01*
X4760728Y-11764038D02*
X4741680Y-11754514D01*
X4741680Y-11754514D02*
X4713108Y-11754514D01*
X4713108Y-11754514D02*
X4694061Y-11744991D01*
X4694061Y-11744991D02*
X4684537Y-11725943D01*
X4684537Y-11725943D02*
X4684537Y-11716419D01*
X4684537Y-11716419D02*
X4694061Y-11697372D01*
X4694061Y-11697372D02*
X4713108Y-11687848D01*
X4713108Y-11687848D02*
X4741680Y-11687848D01*
X4741680Y-11687848D02*
X4760728Y-11697372D01*
X4836918Y-11897372D02*
X4846442Y-11887848D01*
X4846442Y-11887848D02*
X4865489Y-11859276D01*
X4865489Y-11859276D02*
X4875013Y-11840229D01*
X4875013Y-11840229D02*
X4884537Y-11811657D01*
X4884537Y-11811657D02*
X4894061Y-11764038D01*
X4894061Y-11764038D02*
X4894061Y-11725943D01*
X4894061Y-11725943D02*
X4884537Y-11678324D01*
X4884537Y-11678324D02*
X4875013Y-11649753D01*
X4875013Y-11649753D02*
X4865489Y-11630705D01*
X4865489Y-11630705D02*
X4846442Y-11602133D01*
X4846442Y-11602133D02*
X4836918Y-11592610D01*
D12*
X-319097Y-11993697D02*
G75*
G02*
X-379097Y-11993697I-30000J0D01*
G01*
X-379097Y-11993697D02*
G75*
G02*
X-319097Y-11993697I30000J0D01*
G01*
D11*
X-20225Y-11885181D02*
X-1178Y-11885181D01*
X-1178Y-11885181D02*
X17870Y-11894705D01*
X17870Y-11894705D02*
X27394Y-11904229D01*
X27394Y-11904229D02*
X36918Y-11923276D01*
X36918Y-11923276D02*
X46441Y-11961372D01*
X46441Y-11961372D02*
X46441Y-12008991D01*
X46441Y-12008991D02*
X36918Y-12047086D01*
X36918Y-12047086D02*
X27394Y-12066133D01*
X27394Y-12066133D02*
X17870Y-12075657D01*
X17870Y-12075657D02*
X-1178Y-12085181D01*
X-1178Y-12085181D02*
X-20225Y-12085181D01*
X-20225Y-12085181D02*
X-39273Y-12075657D01*
X-39273Y-12075657D02*
X-48797Y-12066133D01*
X-48797Y-12066133D02*
X-58320Y-12047086D01*
X-58320Y-12047086D02*
X-67844Y-12008991D01*
X-67844Y-12008991D02*
X-67844Y-11961372D01*
X-67844Y-11961372D02*
X-58320Y-11923276D01*
X-58320Y-11923276D02*
X-48797Y-11904229D01*
X-48797Y-11904229D02*
X-39273Y-11894705D01*
X-39273Y-11894705D02*
X-20225Y-11885181D01*
X132156Y-12066133D02*
X141679Y-12075657D01*
X141679Y-12075657D02*
X132156Y-12085181D01*
X132156Y-12085181D02*
X122632Y-12075657D01*
X122632Y-12075657D02*
X132156Y-12066133D01*
X132156Y-12066133D02*
X132156Y-12085181D01*
X313108Y-11885181D02*
X275013Y-11885181D01*
X275013Y-11885181D02*
X255965Y-11894705D01*
X255965Y-11894705D02*
X246441Y-11904229D01*
X246441Y-11904229D02*
X227394Y-11932800D01*
X227394Y-11932800D02*
X217870Y-11970895D01*
X217870Y-11970895D02*
X217870Y-12047086D01*
X217870Y-12047086D02*
X227394Y-12066133D01*
X227394Y-12066133D02*
X236917Y-12075657D01*
X236917Y-12075657D02*
X255965Y-12085181D01*
X255965Y-12085181D02*
X294060Y-12085181D01*
X294060Y-12085181D02*
X313108Y-12075657D01*
X313108Y-12075657D02*
X322632Y-12066133D01*
X322632Y-12066133D02*
X332156Y-12047086D01*
X332156Y-12047086D02*
X332156Y-11999467D01*
X332156Y-11999467D02*
X322632Y-11980419D01*
X322632Y-11980419D02*
X313108Y-11970895D01*
X313108Y-11970895D02*
X294060Y-11961372D01*
X294060Y-11961372D02*
X255965Y-11961372D01*
X255965Y-11961372D02*
X236917Y-11970895D01*
X236917Y-11970895D02*
X227394Y-11980419D01*
X227394Y-11980419D02*
X217870Y-11999467D01*
X455965Y-11885181D02*
X475013Y-11885181D01*
X475013Y-11885181D02*
X494060Y-11894705D01*
X494060Y-11894705D02*
X503584Y-11904229D01*
X503584Y-11904229D02*
X513108Y-11923276D01*
X513108Y-11923276D02*
X522632Y-11961372D01*
X522632Y-11961372D02*
X522632Y-12008991D01*
X522632Y-12008991D02*
X513108Y-12047086D01*
X513108Y-12047086D02*
X503584Y-12066133D01*
X503584Y-12066133D02*
X494060Y-12075657D01*
X494060Y-12075657D02*
X475013Y-12085181D01*
X475013Y-12085181D02*
X455965Y-12085181D01*
X455965Y-12085181D02*
X436917Y-12075657D01*
X436917Y-12075657D02*
X427394Y-12066133D01*
X427394Y-12066133D02*
X417870Y-12047086D01*
X417870Y-12047086D02*
X408346Y-12008991D01*
X408346Y-12008991D02*
X408346Y-11961372D01*
X408346Y-11961372D02*
X417870Y-11923276D01*
X417870Y-11923276D02*
X427394Y-11904229D01*
X427394Y-11904229D02*
X436917Y-11894705D01*
X436917Y-11894705D02*
X455965Y-11885181D01*
X646441Y-11885181D02*
X665489Y-11885181D01*
X665489Y-11885181D02*
X684537Y-11894705D01*
X684537Y-11894705D02*
X694060Y-11904229D01*
X694060Y-11904229D02*
X703584Y-11923276D01*
X703584Y-11923276D02*
X713108Y-11961372D01*
X713108Y-11961372D02*
X713108Y-12008991D01*
X713108Y-12008991D02*
X703584Y-12047086D01*
X703584Y-12047086D02*
X694060Y-12066133D01*
X694060Y-12066133D02*
X684537Y-12075657D01*
X684537Y-12075657D02*
X665489Y-12085181D01*
X665489Y-12085181D02*
X646441Y-12085181D01*
X646441Y-12085181D02*
X627394Y-12075657D01*
X627394Y-12075657D02*
X617870Y-12066133D01*
X617870Y-12066133D02*
X608346Y-12047086D01*
X608346Y-12047086D02*
X598822Y-12008991D01*
X598822Y-12008991D02*
X598822Y-11961372D01*
X598822Y-11961372D02*
X608346Y-11923276D01*
X608346Y-11923276D02*
X617870Y-11904229D01*
X617870Y-11904229D02*
X627394Y-11894705D01*
X627394Y-11894705D02*
X646441Y-11885181D01*
X798822Y-12085181D02*
X798822Y-11951848D01*
X798822Y-11970895D02*
X808346Y-11961372D01*
X808346Y-11961372D02*
X827394Y-11951848D01*
X827394Y-11951848D02*
X855965Y-11951848D01*
X855965Y-11951848D02*
X875013Y-11961372D01*
X875013Y-11961372D02*
X884537Y-11980419D01*
X884537Y-11980419D02*
X884537Y-12085181D01*
X884537Y-11980419D02*
X894060Y-11961372D01*
X894060Y-11961372D02*
X913108Y-11951848D01*
X913108Y-11951848D02*
X941679Y-11951848D01*
X941679Y-11951848D02*
X960727Y-11961372D01*
X960727Y-11961372D02*
X970251Y-11980419D01*
X970251Y-11980419D02*
X970251Y-12085181D01*
X1065489Y-12085181D02*
X1065489Y-11951848D01*
X1065489Y-11970895D02*
X1075013Y-11961372D01*
X1075013Y-11961372D02*
X1094060Y-11951848D01*
X1094060Y-11951848D02*
X1122632Y-11951848D01*
X1122632Y-11951848D02*
X1141680Y-11961372D01*
X1141680Y-11961372D02*
X1151203Y-11980419D01*
X1151203Y-11980419D02*
X1151203Y-12085181D01*
X1151203Y-11980419D02*
X1160727Y-11961372D01*
X1160727Y-11961372D02*
X1179775Y-11951848D01*
X1179775Y-11951848D02*
X1208346Y-11951848D01*
X1208346Y-11951848D02*
X1227394Y-11961372D01*
X1227394Y-11961372D02*
X1236918Y-11980419D01*
X1236918Y-11980419D02*
X1236918Y-12085181D01*
X1627394Y-11875657D02*
X1455965Y-12132800D01*
X1884537Y-11885181D02*
X1903584Y-11885181D01*
X1903584Y-11885181D02*
X1922632Y-11894705D01*
X1922632Y-11894705D02*
X1932156Y-11904229D01*
X1932156Y-11904229D02*
X1941680Y-11923276D01*
X1941680Y-11923276D02*
X1951203Y-11961372D01*
X1951203Y-11961372D02*
X1951203Y-12008991D01*
X1951203Y-12008991D02*
X1941680Y-12047086D01*
X1941680Y-12047086D02*
X1932156Y-12066133D01*
X1932156Y-12066133D02*
X1922632Y-12075657D01*
X1922632Y-12075657D02*
X1903584Y-12085181D01*
X1903584Y-12085181D02*
X1884537Y-12085181D01*
X1884537Y-12085181D02*
X1865489Y-12075657D01*
X1865489Y-12075657D02*
X1855965Y-12066133D01*
X1855965Y-12066133D02*
X1846441Y-12047086D01*
X1846441Y-12047086D02*
X1836918Y-12008991D01*
X1836918Y-12008991D02*
X1836918Y-11961372D01*
X1836918Y-11961372D02*
X1846441Y-11923276D01*
X1846441Y-11923276D02*
X1855965Y-11904229D01*
X1855965Y-11904229D02*
X1865489Y-11894705D01*
X1865489Y-11894705D02*
X1884537Y-11885181D01*
X2036918Y-12066133D02*
X2046441Y-12075657D01*
X2046441Y-12075657D02*
X2036918Y-12085181D01*
X2036918Y-12085181D02*
X2027394Y-12075657D01*
X2027394Y-12075657D02*
X2036918Y-12066133D01*
X2036918Y-12066133D02*
X2036918Y-12085181D01*
X2170251Y-11885181D02*
X2189299Y-11885181D01*
X2189299Y-11885181D02*
X2208346Y-11894705D01*
X2208346Y-11894705D02*
X2217870Y-11904229D01*
X2217870Y-11904229D02*
X2227394Y-11923276D01*
X2227394Y-11923276D02*
X2236918Y-11961372D01*
X2236918Y-11961372D02*
X2236918Y-12008991D01*
X2236918Y-12008991D02*
X2227394Y-12047086D01*
X2227394Y-12047086D02*
X2217870Y-12066133D01*
X2217870Y-12066133D02*
X2208346Y-12075657D01*
X2208346Y-12075657D02*
X2189299Y-12085181D01*
X2189299Y-12085181D02*
X2170251Y-12085181D01*
X2170251Y-12085181D02*
X2151203Y-12075657D01*
X2151203Y-12075657D02*
X2141680Y-12066133D01*
X2141680Y-12066133D02*
X2132156Y-12047086D01*
X2132156Y-12047086D02*
X2122632Y-12008991D01*
X2122632Y-12008991D02*
X2122632Y-11961372D01*
X2122632Y-11961372D02*
X2132156Y-11923276D01*
X2132156Y-11923276D02*
X2141680Y-11904229D01*
X2141680Y-11904229D02*
X2151203Y-11894705D01*
X2151203Y-11894705D02*
X2170251Y-11885181D01*
X2313108Y-11904229D02*
X2322632Y-11894705D01*
X2322632Y-11894705D02*
X2341680Y-11885181D01*
X2341680Y-11885181D02*
X2389299Y-11885181D01*
X2389299Y-11885181D02*
X2408346Y-11894705D01*
X2408346Y-11894705D02*
X2417870Y-11904229D01*
X2417870Y-11904229D02*
X2427394Y-11923276D01*
X2427394Y-11923276D02*
X2427394Y-11942324D01*
X2427394Y-11942324D02*
X2417870Y-11970895D01*
X2417870Y-11970895D02*
X2303584Y-12085181D01*
X2303584Y-12085181D02*
X2427394Y-12085181D01*
X2494061Y-11885181D02*
X2617870Y-11885181D01*
X2617870Y-11885181D02*
X2551203Y-11961372D01*
X2551203Y-11961372D02*
X2579775Y-11961372D01*
X2579775Y-11961372D02*
X2598823Y-11970895D01*
X2598823Y-11970895D02*
X2608346Y-11980419D01*
X2608346Y-11980419D02*
X2617870Y-11999467D01*
X2617870Y-11999467D02*
X2617870Y-12047086D01*
X2617870Y-12047086D02*
X2608346Y-12066133D01*
X2608346Y-12066133D02*
X2598823Y-12075657D01*
X2598823Y-12075657D02*
X2579775Y-12085181D01*
X2579775Y-12085181D02*
X2522632Y-12085181D01*
X2522632Y-12085181D02*
X2503584Y-12075657D01*
X2503584Y-12075657D02*
X2494061Y-12066133D01*
X2789299Y-11885181D02*
X2751203Y-11885181D01*
X2751203Y-11885181D02*
X2732156Y-11894705D01*
X2732156Y-11894705D02*
X2722632Y-11904229D01*
X2722632Y-11904229D02*
X2703584Y-11932800D01*
X2703584Y-11932800D02*
X2694061Y-11970895D01*
X2694061Y-11970895D02*
X2694061Y-12047086D01*
X2694061Y-12047086D02*
X2703584Y-12066133D01*
X2703584Y-12066133D02*
X2713108Y-12075657D01*
X2713108Y-12075657D02*
X2732156Y-12085181D01*
X2732156Y-12085181D02*
X2770251Y-12085181D01*
X2770251Y-12085181D02*
X2789299Y-12075657D01*
X2789299Y-12075657D02*
X2798822Y-12066133D01*
X2798822Y-12066133D02*
X2808346Y-12047086D01*
X2808346Y-12047086D02*
X2808346Y-11999467D01*
X2808346Y-11999467D02*
X2798822Y-11980419D01*
X2798822Y-11980419D02*
X2789299Y-11970895D01*
X2789299Y-11970895D02*
X2770251Y-11961372D01*
X2770251Y-11961372D02*
X2732156Y-11961372D01*
X2732156Y-11961372D02*
X2713108Y-11970895D01*
X2713108Y-11970895D02*
X2703584Y-11980419D01*
X2703584Y-11980419D02*
X2694061Y-11999467D01*
X2884537Y-11885181D02*
X2884537Y-11923276D01*
X2960727Y-11885181D02*
X2960727Y-11923276D01*
X3255965Y-12161372D02*
X3246442Y-12151848D01*
X3246442Y-12151848D02*
X3227394Y-12123276D01*
X3227394Y-12123276D02*
X3217870Y-12104229D01*
X3217870Y-12104229D02*
X3208346Y-12075657D01*
X3208346Y-12075657D02*
X3198823Y-12028038D01*
X3198823Y-12028038D02*
X3198823Y-11989943D01*
X3198823Y-11989943D02*
X3208346Y-11942324D01*
X3208346Y-11942324D02*
X3217870Y-11913753D01*
X3217870Y-11913753D02*
X3227394Y-11894705D01*
X3227394Y-11894705D02*
X3246442Y-11866133D01*
X3246442Y-11866133D02*
X3255965Y-11856610D01*
X3370251Y-11885181D02*
X3389299Y-11885181D01*
X3389299Y-11885181D02*
X3408346Y-11894705D01*
X3408346Y-11894705D02*
X3417870Y-11904229D01*
X3417870Y-11904229D02*
X3427394Y-11923276D01*
X3427394Y-11923276D02*
X3436918Y-11961372D01*
X3436918Y-11961372D02*
X3436918Y-12008991D01*
X3436918Y-12008991D02*
X3427394Y-12047086D01*
X3427394Y-12047086D02*
X3417870Y-12066133D01*
X3417870Y-12066133D02*
X3408346Y-12075657D01*
X3408346Y-12075657D02*
X3389299Y-12085181D01*
X3389299Y-12085181D02*
X3370251Y-12085181D01*
X3370251Y-12085181D02*
X3351203Y-12075657D01*
X3351203Y-12075657D02*
X3341680Y-12066133D01*
X3341680Y-12066133D02*
X3332156Y-12047086D01*
X3332156Y-12047086D02*
X3322632Y-12008991D01*
X3322632Y-12008991D02*
X3322632Y-11961372D01*
X3322632Y-11961372D02*
X3332156Y-11923276D01*
X3332156Y-11923276D02*
X3341680Y-11904229D01*
X3341680Y-11904229D02*
X3351203Y-11894705D01*
X3351203Y-11894705D02*
X3370251Y-11885181D01*
X3675013Y-12085181D02*
X3675013Y-11885181D01*
X3760727Y-12085181D02*
X3760727Y-11980419D01*
X3760727Y-11980419D02*
X3751204Y-11961372D01*
X3751204Y-11961372D02*
X3732156Y-11951848D01*
X3732156Y-11951848D02*
X3703584Y-11951848D01*
X3703584Y-11951848D02*
X3684537Y-11961372D01*
X3684537Y-11961372D02*
X3675013Y-11970895D01*
X3884537Y-12085181D02*
X3865489Y-12075657D01*
X3865489Y-12075657D02*
X3855965Y-12066133D01*
X3855965Y-12066133D02*
X3846442Y-12047086D01*
X3846442Y-12047086D02*
X3846442Y-11989943D01*
X3846442Y-11989943D02*
X3855965Y-11970895D01*
X3855965Y-11970895D02*
X3865489Y-11961372D01*
X3865489Y-11961372D02*
X3884537Y-11951848D01*
X3884537Y-11951848D02*
X3913108Y-11951848D01*
X3913108Y-11951848D02*
X3932156Y-11961372D01*
X3932156Y-11961372D02*
X3941680Y-11970895D01*
X3941680Y-11970895D02*
X3951204Y-11989943D01*
X3951204Y-11989943D02*
X3951204Y-12047086D01*
X3951204Y-12047086D02*
X3941680Y-12066133D01*
X3941680Y-12066133D02*
X3932156Y-12075657D01*
X3932156Y-12075657D02*
X3913108Y-12085181D01*
X3913108Y-12085181D02*
X3884537Y-12085181D01*
X4065489Y-12085181D02*
X4046442Y-12075657D01*
X4046442Y-12075657D02*
X4036918Y-12056610D01*
X4036918Y-12056610D02*
X4036918Y-11885181D01*
X4217870Y-12075657D02*
X4198823Y-12085181D01*
X4198823Y-12085181D02*
X4160727Y-12085181D01*
X4160727Y-12085181D02*
X4141680Y-12075657D01*
X4141680Y-12075657D02*
X4132156Y-12056610D01*
X4132156Y-12056610D02*
X4132156Y-11980419D01*
X4132156Y-11980419D02*
X4141680Y-11961372D01*
X4141680Y-11961372D02*
X4160727Y-11951848D01*
X4160727Y-11951848D02*
X4198823Y-11951848D01*
X4198823Y-11951848D02*
X4217870Y-11961372D01*
X4217870Y-11961372D02*
X4227394Y-11980419D01*
X4227394Y-11980419D02*
X4227394Y-11999467D01*
X4227394Y-11999467D02*
X4132156Y-12018514D01*
X4303585Y-12075657D02*
X4322632Y-12085181D01*
X4322632Y-12085181D02*
X4360727Y-12085181D01*
X4360727Y-12085181D02*
X4379775Y-12075657D01*
X4379775Y-12075657D02*
X4389299Y-12056610D01*
X4389299Y-12056610D02*
X4389299Y-12047086D01*
X4389299Y-12047086D02*
X4379775Y-12028038D01*
X4379775Y-12028038D02*
X4360727Y-12018514D01*
X4360727Y-12018514D02*
X4332156Y-12018514D01*
X4332156Y-12018514D02*
X4313108Y-12008991D01*
X4313108Y-12008991D02*
X4303585Y-11989943D01*
X4303585Y-11989943D02*
X4303585Y-11980419D01*
X4303585Y-11980419D02*
X4313108Y-11961372D01*
X4313108Y-11961372D02*
X4332156Y-11951848D01*
X4332156Y-11951848D02*
X4360727Y-11951848D01*
X4360727Y-11951848D02*
X4379775Y-11961372D01*
X4627394Y-12008991D02*
X4779775Y-12008991D01*
X4703585Y-12085181D02*
X4703585Y-11932800D01*
X5113109Y-11951848D02*
X5113109Y-12085181D01*
X5065489Y-11875657D02*
X5017870Y-12018514D01*
X5017870Y-12018514D02*
X5141680Y-12018514D01*
X5360728Y-12075657D02*
X5379775Y-12085181D01*
X5379775Y-12085181D02*
X5417870Y-12085181D01*
X5417870Y-12085181D02*
X5436918Y-12075657D01*
X5436918Y-12075657D02*
X5446442Y-12056610D01*
X5446442Y-12056610D02*
X5446442Y-12047086D01*
X5446442Y-12047086D02*
X5436918Y-12028038D01*
X5436918Y-12028038D02*
X5417870Y-12018514D01*
X5417870Y-12018514D02*
X5389299Y-12018514D01*
X5389299Y-12018514D02*
X5370251Y-12008991D01*
X5370251Y-12008991D02*
X5360728Y-11989943D01*
X5360728Y-11989943D02*
X5360728Y-11980419D01*
X5360728Y-11980419D02*
X5370251Y-11961372D01*
X5370251Y-11961372D02*
X5389299Y-11951848D01*
X5389299Y-11951848D02*
X5417870Y-11951848D01*
X5417870Y-11951848D02*
X5436918Y-11961372D01*
X5560728Y-12085181D02*
X5541680Y-12075657D01*
X5541680Y-12075657D02*
X5532156Y-12056610D01*
X5532156Y-12056610D02*
X5532156Y-11885181D01*
X5665489Y-12085181D02*
X5646442Y-12075657D01*
X5646442Y-12075657D02*
X5636918Y-12066133D01*
X5636918Y-12066133D02*
X5627394Y-12047086D01*
X5627394Y-12047086D02*
X5627394Y-11989943D01*
X5627394Y-11989943D02*
X5636918Y-11970895D01*
X5636918Y-11970895D02*
X5646442Y-11961372D01*
X5646442Y-11961372D02*
X5665489Y-11951848D01*
X5665489Y-11951848D02*
X5694061Y-11951848D01*
X5694061Y-11951848D02*
X5713109Y-11961372D01*
X5713109Y-11961372D02*
X5722632Y-11970895D01*
X5722632Y-11970895D02*
X5732156Y-11989943D01*
X5732156Y-11989943D02*
X5732156Y-12047086D01*
X5732156Y-12047086D02*
X5722632Y-12066133D01*
X5722632Y-12066133D02*
X5713109Y-12075657D01*
X5713109Y-12075657D02*
X5694061Y-12085181D01*
X5694061Y-12085181D02*
X5665489Y-12085181D01*
X5789299Y-11951848D02*
X5865489Y-11951848D01*
X5817870Y-11885181D02*
X5817870Y-12056610D01*
X5817870Y-12056610D02*
X5827394Y-12075657D01*
X5827394Y-12075657D02*
X5846442Y-12085181D01*
X5846442Y-12085181D02*
X5865489Y-12085181D01*
X5922632Y-12075657D02*
X5941680Y-12085181D01*
X5941680Y-12085181D02*
X5979775Y-12085181D01*
X5979775Y-12085181D02*
X5998823Y-12075657D01*
X5998823Y-12075657D02*
X6008347Y-12056610D01*
X6008347Y-12056610D02*
X6008347Y-12047086D01*
X6008347Y-12047086D02*
X5998823Y-12028038D01*
X5998823Y-12028038D02*
X5979775Y-12018514D01*
X5979775Y-12018514D02*
X5951204Y-12018514D01*
X5951204Y-12018514D02*
X5932156Y-12008991D01*
X5932156Y-12008991D02*
X5922632Y-11989943D01*
X5922632Y-11989943D02*
X5922632Y-11980419D01*
X5922632Y-11980419D02*
X5932156Y-11961372D01*
X5932156Y-11961372D02*
X5951204Y-11951848D01*
X5951204Y-11951848D02*
X5979775Y-11951848D01*
X5979775Y-11951848D02*
X5998823Y-11961372D01*
X6075013Y-12161372D02*
X6084537Y-12151848D01*
X6084537Y-12151848D02*
X6103585Y-12123276D01*
X6103585Y-12123276D02*
X6113109Y-12104229D01*
X6113109Y-12104229D02*
X6122632Y-12075657D01*
X6122632Y-12075657D02*
X6132156Y-12028038D01*
X6132156Y-12028038D02*
X6132156Y-11989943D01*
X6132156Y-11989943D02*
X6122632Y-11942324D01*
X6122632Y-11942324D02*
X6113109Y-11913753D01*
X6113109Y-11913753D02*
X6103585Y-11894705D01*
X6103585Y-11894705D02*
X6084537Y-11866133D01*
X6084537Y-11866133D02*
X6075013Y-11856610D01*
D12*
X-369097Y-12207697D02*
X-369097Y-12307697D01*
X-419097Y-12257697D02*
X-319097Y-12257697D01*
D11*
X46441Y-12349181D02*
X-67844Y-12349181D01*
X-10702Y-12349181D02*
X-10702Y-12149181D01*
X-10702Y-12149181D02*
X-29749Y-12177753D01*
X-29749Y-12177753D02*
X-48797Y-12196800D01*
X-48797Y-12196800D02*
X-67844Y-12206324D01*
X132156Y-12330133D02*
X141679Y-12339657D01*
X141679Y-12339657D02*
X132156Y-12349181D01*
X132156Y-12349181D02*
X122632Y-12339657D01*
X122632Y-12339657D02*
X132156Y-12330133D01*
X132156Y-12330133D02*
X132156Y-12349181D01*
X265489Y-12149181D02*
X284537Y-12149181D01*
X284537Y-12149181D02*
X303584Y-12158705D01*
X303584Y-12158705D02*
X313108Y-12168229D01*
X313108Y-12168229D02*
X322632Y-12187276D01*
X322632Y-12187276D02*
X332156Y-12225372D01*
X332156Y-12225372D02*
X332156Y-12272991D01*
X332156Y-12272991D02*
X322632Y-12311086D01*
X322632Y-12311086D02*
X313108Y-12330133D01*
X313108Y-12330133D02*
X303584Y-12339657D01*
X303584Y-12339657D02*
X284537Y-12349181D01*
X284537Y-12349181D02*
X265489Y-12349181D01*
X265489Y-12349181D02*
X246441Y-12339657D01*
X246441Y-12339657D02*
X236917Y-12330133D01*
X236917Y-12330133D02*
X227394Y-12311086D01*
X227394Y-12311086D02*
X217870Y-12272991D01*
X217870Y-12272991D02*
X217870Y-12225372D01*
X217870Y-12225372D02*
X227394Y-12187276D01*
X227394Y-12187276D02*
X236917Y-12168229D01*
X236917Y-12168229D02*
X246441Y-12158705D01*
X246441Y-12158705D02*
X265489Y-12149181D01*
X455965Y-12149181D02*
X475013Y-12149181D01*
X475013Y-12149181D02*
X494060Y-12158705D01*
X494060Y-12158705D02*
X503584Y-12168229D01*
X503584Y-12168229D02*
X513108Y-12187276D01*
X513108Y-12187276D02*
X522632Y-12225372D01*
X522632Y-12225372D02*
X522632Y-12272991D01*
X522632Y-12272991D02*
X513108Y-12311086D01*
X513108Y-12311086D02*
X503584Y-12330133D01*
X503584Y-12330133D02*
X494060Y-12339657D01*
X494060Y-12339657D02*
X475013Y-12349181D01*
X475013Y-12349181D02*
X455965Y-12349181D01*
X455965Y-12349181D02*
X436917Y-12339657D01*
X436917Y-12339657D02*
X427394Y-12330133D01*
X427394Y-12330133D02*
X417870Y-12311086D01*
X417870Y-12311086D02*
X408346Y-12272991D01*
X408346Y-12272991D02*
X408346Y-12225372D01*
X408346Y-12225372D02*
X417870Y-12187276D01*
X417870Y-12187276D02*
X427394Y-12168229D01*
X427394Y-12168229D02*
X436917Y-12158705D01*
X436917Y-12158705D02*
X455965Y-12149181D01*
X646441Y-12149181D02*
X665489Y-12149181D01*
X665489Y-12149181D02*
X684537Y-12158705D01*
X684537Y-12158705D02*
X694060Y-12168229D01*
X694060Y-12168229D02*
X703584Y-12187276D01*
X703584Y-12187276D02*
X713108Y-12225372D01*
X713108Y-12225372D02*
X713108Y-12272991D01*
X713108Y-12272991D02*
X703584Y-12311086D01*
X703584Y-12311086D02*
X694060Y-12330133D01*
X694060Y-12330133D02*
X684537Y-12339657D01*
X684537Y-12339657D02*
X665489Y-12349181D01*
X665489Y-12349181D02*
X646441Y-12349181D01*
X646441Y-12349181D02*
X627394Y-12339657D01*
X627394Y-12339657D02*
X617870Y-12330133D01*
X617870Y-12330133D02*
X608346Y-12311086D01*
X608346Y-12311086D02*
X598822Y-12272991D01*
X598822Y-12272991D02*
X598822Y-12225372D01*
X598822Y-12225372D02*
X608346Y-12187276D01*
X608346Y-12187276D02*
X617870Y-12168229D01*
X617870Y-12168229D02*
X627394Y-12158705D01*
X627394Y-12158705D02*
X646441Y-12149181D01*
X798822Y-12349181D02*
X798822Y-12215848D01*
X798822Y-12234895D02*
X808346Y-12225372D01*
X808346Y-12225372D02*
X827394Y-12215848D01*
X827394Y-12215848D02*
X855965Y-12215848D01*
X855965Y-12215848D02*
X875013Y-12225372D01*
X875013Y-12225372D02*
X884537Y-12244419D01*
X884537Y-12244419D02*
X884537Y-12349181D01*
X884537Y-12244419D02*
X894060Y-12225372D01*
X894060Y-12225372D02*
X913108Y-12215848D01*
X913108Y-12215848D02*
X941679Y-12215848D01*
X941679Y-12215848D02*
X960727Y-12225372D01*
X960727Y-12225372D02*
X970251Y-12244419D01*
X970251Y-12244419D02*
X970251Y-12349181D01*
X1065489Y-12349181D02*
X1065489Y-12215848D01*
X1065489Y-12234895D02*
X1075013Y-12225372D01*
X1075013Y-12225372D02*
X1094060Y-12215848D01*
X1094060Y-12215848D02*
X1122632Y-12215848D01*
X1122632Y-12215848D02*
X1141680Y-12225372D01*
X1141680Y-12225372D02*
X1151203Y-12244419D01*
X1151203Y-12244419D02*
X1151203Y-12349181D01*
X1151203Y-12244419D02*
X1160727Y-12225372D01*
X1160727Y-12225372D02*
X1179775Y-12215848D01*
X1179775Y-12215848D02*
X1208346Y-12215848D01*
X1208346Y-12215848D02*
X1227394Y-12225372D01*
X1227394Y-12225372D02*
X1236918Y-12244419D01*
X1236918Y-12244419D02*
X1236918Y-12349181D01*
X1627394Y-12139657D02*
X1455965Y-12396800D01*
X1884537Y-12149181D02*
X1903584Y-12149181D01*
X1903584Y-12149181D02*
X1922632Y-12158705D01*
X1922632Y-12158705D02*
X1932156Y-12168229D01*
X1932156Y-12168229D02*
X1941680Y-12187276D01*
X1941680Y-12187276D02*
X1951203Y-12225372D01*
X1951203Y-12225372D02*
X1951203Y-12272991D01*
X1951203Y-12272991D02*
X1941680Y-12311086D01*
X1941680Y-12311086D02*
X1932156Y-12330133D01*
X1932156Y-12330133D02*
X1922632Y-12339657D01*
X1922632Y-12339657D02*
X1903584Y-12349181D01*
X1903584Y-12349181D02*
X1884537Y-12349181D01*
X1884537Y-12349181D02*
X1865489Y-12339657D01*
X1865489Y-12339657D02*
X1855965Y-12330133D01*
X1855965Y-12330133D02*
X1846441Y-12311086D01*
X1846441Y-12311086D02*
X1836918Y-12272991D01*
X1836918Y-12272991D02*
X1836918Y-12225372D01*
X1836918Y-12225372D02*
X1846441Y-12187276D01*
X1846441Y-12187276D02*
X1855965Y-12168229D01*
X1855965Y-12168229D02*
X1865489Y-12158705D01*
X1865489Y-12158705D02*
X1884537Y-12149181D01*
X2036918Y-12330133D02*
X2046441Y-12339657D01*
X2046441Y-12339657D02*
X2036918Y-12349181D01*
X2036918Y-12349181D02*
X2027394Y-12339657D01*
X2027394Y-12339657D02*
X2036918Y-12330133D01*
X2036918Y-12330133D02*
X2036918Y-12349181D01*
X2170251Y-12149181D02*
X2189299Y-12149181D01*
X2189299Y-12149181D02*
X2208346Y-12158705D01*
X2208346Y-12158705D02*
X2217870Y-12168229D01*
X2217870Y-12168229D02*
X2227394Y-12187276D01*
X2227394Y-12187276D02*
X2236918Y-12225372D01*
X2236918Y-12225372D02*
X2236918Y-12272991D01*
X2236918Y-12272991D02*
X2227394Y-12311086D01*
X2227394Y-12311086D02*
X2217870Y-12330133D01*
X2217870Y-12330133D02*
X2208346Y-12339657D01*
X2208346Y-12339657D02*
X2189299Y-12349181D01*
X2189299Y-12349181D02*
X2170251Y-12349181D01*
X2170251Y-12349181D02*
X2151203Y-12339657D01*
X2151203Y-12339657D02*
X2141680Y-12330133D01*
X2141680Y-12330133D02*
X2132156Y-12311086D01*
X2132156Y-12311086D02*
X2122632Y-12272991D01*
X2122632Y-12272991D02*
X2122632Y-12225372D01*
X2122632Y-12225372D02*
X2132156Y-12187276D01*
X2132156Y-12187276D02*
X2141680Y-12168229D01*
X2141680Y-12168229D02*
X2151203Y-12158705D01*
X2151203Y-12158705D02*
X2170251Y-12149181D01*
X2303584Y-12149181D02*
X2427394Y-12149181D01*
X2427394Y-12149181D02*
X2360727Y-12225372D01*
X2360727Y-12225372D02*
X2389299Y-12225372D01*
X2389299Y-12225372D02*
X2408346Y-12234895D01*
X2408346Y-12234895D02*
X2417870Y-12244419D01*
X2417870Y-12244419D02*
X2427394Y-12263467D01*
X2427394Y-12263467D02*
X2427394Y-12311086D01*
X2427394Y-12311086D02*
X2417870Y-12330133D01*
X2417870Y-12330133D02*
X2408346Y-12339657D01*
X2408346Y-12339657D02*
X2389299Y-12349181D01*
X2389299Y-12349181D02*
X2332156Y-12349181D01*
X2332156Y-12349181D02*
X2313108Y-12339657D01*
X2313108Y-12339657D02*
X2303584Y-12330133D01*
X2522632Y-12349181D02*
X2560727Y-12349181D01*
X2560727Y-12349181D02*
X2579775Y-12339657D01*
X2579775Y-12339657D02*
X2589299Y-12330133D01*
X2589299Y-12330133D02*
X2608346Y-12301562D01*
X2608346Y-12301562D02*
X2617870Y-12263467D01*
X2617870Y-12263467D02*
X2617870Y-12187276D01*
X2617870Y-12187276D02*
X2608346Y-12168229D01*
X2608346Y-12168229D02*
X2598823Y-12158705D01*
X2598823Y-12158705D02*
X2579775Y-12149181D01*
X2579775Y-12149181D02*
X2541680Y-12149181D01*
X2541680Y-12149181D02*
X2522632Y-12158705D01*
X2522632Y-12158705D02*
X2513108Y-12168229D01*
X2513108Y-12168229D02*
X2503584Y-12187276D01*
X2503584Y-12187276D02*
X2503584Y-12234895D01*
X2503584Y-12234895D02*
X2513108Y-12253943D01*
X2513108Y-12253943D02*
X2522632Y-12263467D01*
X2522632Y-12263467D02*
X2541680Y-12272991D01*
X2541680Y-12272991D02*
X2579775Y-12272991D01*
X2579775Y-12272991D02*
X2598823Y-12263467D01*
X2598823Y-12263467D02*
X2608346Y-12253943D01*
X2608346Y-12253943D02*
X2617870Y-12234895D01*
X2789299Y-12215848D02*
X2789299Y-12349181D01*
X2741680Y-12139657D02*
X2694061Y-12282514D01*
X2694061Y-12282514D02*
X2817870Y-12282514D01*
X2884537Y-12149181D02*
X2884537Y-12187276D01*
X2960727Y-12149181D02*
X2960727Y-12187276D01*
X3255965Y-12425372D02*
X3246442Y-12415848D01*
X3246442Y-12415848D02*
X3227394Y-12387276D01*
X3227394Y-12387276D02*
X3217870Y-12368229D01*
X3217870Y-12368229D02*
X3208346Y-12339657D01*
X3208346Y-12339657D02*
X3198823Y-12292038D01*
X3198823Y-12292038D02*
X3198823Y-12253943D01*
X3198823Y-12253943D02*
X3208346Y-12206324D01*
X3208346Y-12206324D02*
X3217870Y-12177753D01*
X3217870Y-12177753D02*
X3227394Y-12158705D01*
X3227394Y-12158705D02*
X3246442Y-12130133D01*
X3246442Y-12130133D02*
X3255965Y-12120610D01*
X3417870Y-12149181D02*
X3379775Y-12149181D01*
X3379775Y-12149181D02*
X3360727Y-12158705D01*
X3360727Y-12158705D02*
X3351203Y-12168229D01*
X3351203Y-12168229D02*
X3332156Y-12196800D01*
X3332156Y-12196800D02*
X3322632Y-12234895D01*
X3322632Y-12234895D02*
X3322632Y-12311086D01*
X3322632Y-12311086D02*
X3332156Y-12330133D01*
X3332156Y-12330133D02*
X3341680Y-12339657D01*
X3341680Y-12339657D02*
X3360727Y-12349181D01*
X3360727Y-12349181D02*
X3398823Y-12349181D01*
X3398823Y-12349181D02*
X3417870Y-12339657D01*
X3417870Y-12339657D02*
X3427394Y-12330133D01*
X3427394Y-12330133D02*
X3436918Y-12311086D01*
X3436918Y-12311086D02*
X3436918Y-12263467D01*
X3436918Y-12263467D02*
X3427394Y-12244419D01*
X3427394Y-12244419D02*
X3417870Y-12234895D01*
X3417870Y-12234895D02*
X3398823Y-12225372D01*
X3398823Y-12225372D02*
X3360727Y-12225372D01*
X3360727Y-12225372D02*
X3341680Y-12234895D01*
X3341680Y-12234895D02*
X3332156Y-12244419D01*
X3332156Y-12244419D02*
X3322632Y-12263467D01*
X3675013Y-12349181D02*
X3675013Y-12149181D01*
X3760727Y-12349181D02*
X3760727Y-12244419D01*
X3760727Y-12244419D02*
X3751204Y-12225372D01*
X3751204Y-12225372D02*
X3732156Y-12215848D01*
X3732156Y-12215848D02*
X3703584Y-12215848D01*
X3703584Y-12215848D02*
X3684537Y-12225372D01*
X3684537Y-12225372D02*
X3675013Y-12234895D01*
X3884537Y-12349181D02*
X3865489Y-12339657D01*
X3865489Y-12339657D02*
X3855965Y-12330133D01*
X3855965Y-12330133D02*
X3846442Y-12311086D01*
X3846442Y-12311086D02*
X3846442Y-12253943D01*
X3846442Y-12253943D02*
X3855965Y-12234895D01*
X3855965Y-12234895D02*
X3865489Y-12225372D01*
X3865489Y-12225372D02*
X3884537Y-12215848D01*
X3884537Y-12215848D02*
X3913108Y-12215848D01*
X3913108Y-12215848D02*
X3932156Y-12225372D01*
X3932156Y-12225372D02*
X3941680Y-12234895D01*
X3941680Y-12234895D02*
X3951204Y-12253943D01*
X3951204Y-12253943D02*
X3951204Y-12311086D01*
X3951204Y-12311086D02*
X3941680Y-12330133D01*
X3941680Y-12330133D02*
X3932156Y-12339657D01*
X3932156Y-12339657D02*
X3913108Y-12349181D01*
X3913108Y-12349181D02*
X3884537Y-12349181D01*
X4065489Y-12349181D02*
X4046442Y-12339657D01*
X4046442Y-12339657D02*
X4036918Y-12320610D01*
X4036918Y-12320610D02*
X4036918Y-12149181D01*
X4217870Y-12339657D02*
X4198823Y-12349181D01*
X4198823Y-12349181D02*
X4160727Y-12349181D01*
X4160727Y-12349181D02*
X4141680Y-12339657D01*
X4141680Y-12339657D02*
X4132156Y-12320610D01*
X4132156Y-12320610D02*
X4132156Y-12244419D01*
X4132156Y-12244419D02*
X4141680Y-12225372D01*
X4141680Y-12225372D02*
X4160727Y-12215848D01*
X4160727Y-12215848D02*
X4198823Y-12215848D01*
X4198823Y-12215848D02*
X4217870Y-12225372D01*
X4217870Y-12225372D02*
X4227394Y-12244419D01*
X4227394Y-12244419D02*
X4227394Y-12263467D01*
X4227394Y-12263467D02*
X4132156Y-12282514D01*
X4303585Y-12339657D02*
X4322632Y-12349181D01*
X4322632Y-12349181D02*
X4360727Y-12349181D01*
X4360727Y-12349181D02*
X4379775Y-12339657D01*
X4379775Y-12339657D02*
X4389299Y-12320610D01*
X4389299Y-12320610D02*
X4389299Y-12311086D01*
X4389299Y-12311086D02*
X4379775Y-12292038D01*
X4379775Y-12292038D02*
X4360727Y-12282514D01*
X4360727Y-12282514D02*
X4332156Y-12282514D01*
X4332156Y-12282514D02*
X4313108Y-12272991D01*
X4313108Y-12272991D02*
X4303585Y-12253943D01*
X4303585Y-12253943D02*
X4303585Y-12244419D01*
X4303585Y-12244419D02*
X4313108Y-12225372D01*
X4313108Y-12225372D02*
X4332156Y-12215848D01*
X4332156Y-12215848D02*
X4360727Y-12215848D01*
X4360727Y-12215848D02*
X4379775Y-12225372D01*
X4455966Y-12425372D02*
X4465489Y-12415848D01*
X4465489Y-12415848D02*
X4484537Y-12387276D01*
X4484537Y-12387276D02*
X4494061Y-12368229D01*
X4494061Y-12368229D02*
X4503585Y-12339657D01*
X4503585Y-12339657D02*
X4513108Y-12292038D01*
X4513108Y-12292038D02*
X4513108Y-12253943D01*
X4513108Y-12253943D02*
X4503585Y-12206324D01*
X4503585Y-12206324D02*
X4494061Y-12177753D01*
X4494061Y-12177753D02*
X4484537Y-12158705D01*
X4484537Y-12158705D02*
X4465489Y-12130133D01*
X4465489Y-12130133D02*
X4455966Y-12120610D01*
D13*
X-342528Y-12578266D02*
X-342528Y-12465128D01*
X-455666Y-12465128D01*
X-455666Y-12578266D01*
X-342528Y-12578266D01*
D11*
X46441Y-12613181D02*
X-67844Y-12613181D01*
X-10702Y-12613181D02*
X-10702Y-12413181D01*
X-10702Y-12413181D02*
X-29749Y-12441753D01*
X-29749Y-12441753D02*
X-48797Y-12460800D01*
X-48797Y-12460800D02*
X-67844Y-12470324D01*
X132156Y-12594133D02*
X141679Y-12603657D01*
X141679Y-12603657D02*
X132156Y-12613181D01*
X132156Y-12613181D02*
X122632Y-12603657D01*
X122632Y-12603657D02*
X132156Y-12594133D01*
X132156Y-12594133D02*
X132156Y-12613181D01*
X313108Y-12413181D02*
X275013Y-12413181D01*
X275013Y-12413181D02*
X255965Y-12422705D01*
X255965Y-12422705D02*
X246441Y-12432229D01*
X246441Y-12432229D02*
X227394Y-12460800D01*
X227394Y-12460800D02*
X217870Y-12498895D01*
X217870Y-12498895D02*
X217870Y-12575086D01*
X217870Y-12575086D02*
X227394Y-12594133D01*
X227394Y-12594133D02*
X236917Y-12603657D01*
X236917Y-12603657D02*
X255965Y-12613181D01*
X255965Y-12613181D02*
X294060Y-12613181D01*
X294060Y-12613181D02*
X313108Y-12603657D01*
X313108Y-12603657D02*
X322632Y-12594133D01*
X322632Y-12594133D02*
X332156Y-12575086D01*
X332156Y-12575086D02*
X332156Y-12527467D01*
X332156Y-12527467D02*
X322632Y-12508419D01*
X322632Y-12508419D02*
X313108Y-12498895D01*
X313108Y-12498895D02*
X294060Y-12489372D01*
X294060Y-12489372D02*
X255965Y-12489372D01*
X255965Y-12489372D02*
X236917Y-12498895D01*
X236917Y-12498895D02*
X227394Y-12508419D01*
X227394Y-12508419D02*
X217870Y-12527467D01*
X455965Y-12413181D02*
X475013Y-12413181D01*
X475013Y-12413181D02*
X494060Y-12422705D01*
X494060Y-12422705D02*
X503584Y-12432229D01*
X503584Y-12432229D02*
X513108Y-12451276D01*
X513108Y-12451276D02*
X522632Y-12489372D01*
X522632Y-12489372D02*
X522632Y-12536991D01*
X522632Y-12536991D02*
X513108Y-12575086D01*
X513108Y-12575086D02*
X503584Y-12594133D01*
X503584Y-12594133D02*
X494060Y-12603657D01*
X494060Y-12603657D02*
X475013Y-12613181D01*
X475013Y-12613181D02*
X455965Y-12613181D01*
X455965Y-12613181D02*
X436917Y-12603657D01*
X436917Y-12603657D02*
X427394Y-12594133D01*
X427394Y-12594133D02*
X417870Y-12575086D01*
X417870Y-12575086D02*
X408346Y-12536991D01*
X408346Y-12536991D02*
X408346Y-12489372D01*
X408346Y-12489372D02*
X417870Y-12451276D01*
X417870Y-12451276D02*
X427394Y-12432229D01*
X427394Y-12432229D02*
X436917Y-12422705D01*
X436917Y-12422705D02*
X455965Y-12413181D01*
X646441Y-12413181D02*
X665489Y-12413181D01*
X665489Y-12413181D02*
X684537Y-12422705D01*
X684537Y-12422705D02*
X694060Y-12432229D01*
X694060Y-12432229D02*
X703584Y-12451276D01*
X703584Y-12451276D02*
X713108Y-12489372D01*
X713108Y-12489372D02*
X713108Y-12536991D01*
X713108Y-12536991D02*
X703584Y-12575086D01*
X703584Y-12575086D02*
X694060Y-12594133D01*
X694060Y-12594133D02*
X684537Y-12603657D01*
X684537Y-12603657D02*
X665489Y-12613181D01*
X665489Y-12613181D02*
X646441Y-12613181D01*
X646441Y-12613181D02*
X627394Y-12603657D01*
X627394Y-12603657D02*
X617870Y-12594133D01*
X617870Y-12594133D02*
X608346Y-12575086D01*
X608346Y-12575086D02*
X598822Y-12536991D01*
X598822Y-12536991D02*
X598822Y-12489372D01*
X598822Y-12489372D02*
X608346Y-12451276D01*
X608346Y-12451276D02*
X617870Y-12432229D01*
X617870Y-12432229D02*
X627394Y-12422705D01*
X627394Y-12422705D02*
X646441Y-12413181D01*
X798822Y-12613181D02*
X798822Y-12479848D01*
X798822Y-12498895D02*
X808346Y-12489372D01*
X808346Y-12489372D02*
X827394Y-12479848D01*
X827394Y-12479848D02*
X855965Y-12479848D01*
X855965Y-12479848D02*
X875013Y-12489372D01*
X875013Y-12489372D02*
X884537Y-12508419D01*
X884537Y-12508419D02*
X884537Y-12613181D01*
X884537Y-12508419D02*
X894060Y-12489372D01*
X894060Y-12489372D02*
X913108Y-12479848D01*
X913108Y-12479848D02*
X941679Y-12479848D01*
X941679Y-12479848D02*
X960727Y-12489372D01*
X960727Y-12489372D02*
X970251Y-12508419D01*
X970251Y-12508419D02*
X970251Y-12613181D01*
X1065489Y-12613181D02*
X1065489Y-12479848D01*
X1065489Y-12498895D02*
X1075013Y-12489372D01*
X1075013Y-12489372D02*
X1094060Y-12479848D01*
X1094060Y-12479848D02*
X1122632Y-12479848D01*
X1122632Y-12479848D02*
X1141680Y-12489372D01*
X1141680Y-12489372D02*
X1151203Y-12508419D01*
X1151203Y-12508419D02*
X1151203Y-12613181D01*
X1151203Y-12508419D02*
X1160727Y-12489372D01*
X1160727Y-12489372D02*
X1179775Y-12479848D01*
X1179775Y-12479848D02*
X1208346Y-12479848D01*
X1208346Y-12479848D02*
X1227394Y-12489372D01*
X1227394Y-12489372D02*
X1236918Y-12508419D01*
X1236918Y-12508419D02*
X1236918Y-12613181D01*
X1627394Y-12403657D02*
X1455965Y-12660800D01*
X1884537Y-12413181D02*
X1903584Y-12413181D01*
X1903584Y-12413181D02*
X1922632Y-12422705D01*
X1922632Y-12422705D02*
X1932156Y-12432229D01*
X1932156Y-12432229D02*
X1941680Y-12451276D01*
X1941680Y-12451276D02*
X1951203Y-12489372D01*
X1951203Y-12489372D02*
X1951203Y-12536991D01*
X1951203Y-12536991D02*
X1941680Y-12575086D01*
X1941680Y-12575086D02*
X1932156Y-12594133D01*
X1932156Y-12594133D02*
X1922632Y-12603657D01*
X1922632Y-12603657D02*
X1903584Y-12613181D01*
X1903584Y-12613181D02*
X1884537Y-12613181D01*
X1884537Y-12613181D02*
X1865489Y-12603657D01*
X1865489Y-12603657D02*
X1855965Y-12594133D01*
X1855965Y-12594133D02*
X1846441Y-12575086D01*
X1846441Y-12575086D02*
X1836918Y-12536991D01*
X1836918Y-12536991D02*
X1836918Y-12489372D01*
X1836918Y-12489372D02*
X1846441Y-12451276D01*
X1846441Y-12451276D02*
X1855965Y-12432229D01*
X1855965Y-12432229D02*
X1865489Y-12422705D01*
X1865489Y-12422705D02*
X1884537Y-12413181D01*
X2036918Y-12594133D02*
X2046441Y-12603657D01*
X2046441Y-12603657D02*
X2036918Y-12613181D01*
X2036918Y-12613181D02*
X2027394Y-12603657D01*
X2027394Y-12603657D02*
X2036918Y-12594133D01*
X2036918Y-12594133D02*
X2036918Y-12613181D01*
X2170251Y-12413181D02*
X2189299Y-12413181D01*
X2189299Y-12413181D02*
X2208346Y-12422705D01*
X2208346Y-12422705D02*
X2217870Y-12432229D01*
X2217870Y-12432229D02*
X2227394Y-12451276D01*
X2227394Y-12451276D02*
X2236918Y-12489372D01*
X2236918Y-12489372D02*
X2236918Y-12536991D01*
X2236918Y-12536991D02*
X2227394Y-12575086D01*
X2227394Y-12575086D02*
X2217870Y-12594133D01*
X2217870Y-12594133D02*
X2208346Y-12603657D01*
X2208346Y-12603657D02*
X2189299Y-12613181D01*
X2189299Y-12613181D02*
X2170251Y-12613181D01*
X2170251Y-12613181D02*
X2151203Y-12603657D01*
X2151203Y-12603657D02*
X2141680Y-12594133D01*
X2141680Y-12594133D02*
X2132156Y-12575086D01*
X2132156Y-12575086D02*
X2122632Y-12536991D01*
X2122632Y-12536991D02*
X2122632Y-12489372D01*
X2122632Y-12489372D02*
X2132156Y-12451276D01*
X2132156Y-12451276D02*
X2141680Y-12432229D01*
X2141680Y-12432229D02*
X2151203Y-12422705D01*
X2151203Y-12422705D02*
X2170251Y-12413181D01*
X2408346Y-12413181D02*
X2370251Y-12413181D01*
X2370251Y-12413181D02*
X2351203Y-12422705D01*
X2351203Y-12422705D02*
X2341680Y-12432229D01*
X2341680Y-12432229D02*
X2322632Y-12460800D01*
X2322632Y-12460800D02*
X2313108Y-12498895D01*
X2313108Y-12498895D02*
X2313108Y-12575086D01*
X2313108Y-12575086D02*
X2322632Y-12594133D01*
X2322632Y-12594133D02*
X2332156Y-12603657D01*
X2332156Y-12603657D02*
X2351203Y-12613181D01*
X2351203Y-12613181D02*
X2389299Y-12613181D01*
X2389299Y-12613181D02*
X2408346Y-12603657D01*
X2408346Y-12603657D02*
X2417870Y-12594133D01*
X2417870Y-12594133D02*
X2427394Y-12575086D01*
X2427394Y-12575086D02*
X2427394Y-12527467D01*
X2427394Y-12527467D02*
X2417870Y-12508419D01*
X2417870Y-12508419D02*
X2408346Y-12498895D01*
X2408346Y-12498895D02*
X2389299Y-12489372D01*
X2389299Y-12489372D02*
X2351203Y-12489372D01*
X2351203Y-12489372D02*
X2332156Y-12498895D01*
X2332156Y-12498895D02*
X2322632Y-12508419D01*
X2322632Y-12508419D02*
X2313108Y-12527467D01*
X2494061Y-12413181D02*
X2617870Y-12413181D01*
X2617870Y-12413181D02*
X2551203Y-12489372D01*
X2551203Y-12489372D02*
X2579775Y-12489372D01*
X2579775Y-12489372D02*
X2598823Y-12498895D01*
X2598823Y-12498895D02*
X2608346Y-12508419D01*
X2608346Y-12508419D02*
X2617870Y-12527467D01*
X2617870Y-12527467D02*
X2617870Y-12575086D01*
X2617870Y-12575086D02*
X2608346Y-12594133D01*
X2608346Y-12594133D02*
X2598823Y-12603657D01*
X2598823Y-12603657D02*
X2579775Y-12613181D01*
X2579775Y-12613181D02*
X2522632Y-12613181D01*
X2522632Y-12613181D02*
X2503584Y-12603657D01*
X2503584Y-12603657D02*
X2494061Y-12594133D01*
X2741680Y-12413181D02*
X2760727Y-12413181D01*
X2760727Y-12413181D02*
X2779775Y-12422705D01*
X2779775Y-12422705D02*
X2789299Y-12432229D01*
X2789299Y-12432229D02*
X2798822Y-12451276D01*
X2798822Y-12451276D02*
X2808346Y-12489372D01*
X2808346Y-12489372D02*
X2808346Y-12536991D01*
X2808346Y-12536991D02*
X2798822Y-12575086D01*
X2798822Y-12575086D02*
X2789299Y-12594133D01*
X2789299Y-12594133D02*
X2779775Y-12603657D01*
X2779775Y-12603657D02*
X2760727Y-12613181D01*
X2760727Y-12613181D02*
X2741680Y-12613181D01*
X2741680Y-12613181D02*
X2722632Y-12603657D01*
X2722632Y-12603657D02*
X2713108Y-12594133D01*
X2713108Y-12594133D02*
X2703584Y-12575086D01*
X2703584Y-12575086D02*
X2694061Y-12536991D01*
X2694061Y-12536991D02*
X2694061Y-12489372D01*
X2694061Y-12489372D02*
X2703584Y-12451276D01*
X2703584Y-12451276D02*
X2713108Y-12432229D01*
X2713108Y-12432229D02*
X2722632Y-12422705D01*
X2722632Y-12422705D02*
X2741680Y-12413181D01*
X2884537Y-12413181D02*
X2884537Y-12451276D01*
X2960727Y-12413181D02*
X2960727Y-12451276D01*
X3255965Y-12689372D02*
X3246442Y-12679848D01*
X3246442Y-12679848D02*
X3227394Y-12651276D01*
X3227394Y-12651276D02*
X3217870Y-12632229D01*
X3217870Y-12632229D02*
X3208346Y-12603657D01*
X3208346Y-12603657D02*
X3198823Y-12556038D01*
X3198823Y-12556038D02*
X3198823Y-12517943D01*
X3198823Y-12517943D02*
X3208346Y-12470324D01*
X3208346Y-12470324D02*
X3217870Y-12441753D01*
X3217870Y-12441753D02*
X3227394Y-12422705D01*
X3227394Y-12422705D02*
X3246442Y-12394133D01*
X3246442Y-12394133D02*
X3255965Y-12384610D01*
X3417870Y-12413181D02*
X3379775Y-12413181D01*
X3379775Y-12413181D02*
X3360727Y-12422705D01*
X3360727Y-12422705D02*
X3351203Y-12432229D01*
X3351203Y-12432229D02*
X3332156Y-12460800D01*
X3332156Y-12460800D02*
X3322632Y-12498895D01*
X3322632Y-12498895D02*
X3322632Y-12575086D01*
X3322632Y-12575086D02*
X3332156Y-12594133D01*
X3332156Y-12594133D02*
X3341680Y-12603657D01*
X3341680Y-12603657D02*
X3360727Y-12613181D01*
X3360727Y-12613181D02*
X3398823Y-12613181D01*
X3398823Y-12613181D02*
X3417870Y-12603657D01*
X3417870Y-12603657D02*
X3427394Y-12594133D01*
X3427394Y-12594133D02*
X3436918Y-12575086D01*
X3436918Y-12575086D02*
X3436918Y-12527467D01*
X3436918Y-12527467D02*
X3427394Y-12508419D01*
X3427394Y-12508419D02*
X3417870Y-12498895D01*
X3417870Y-12498895D02*
X3398823Y-12489372D01*
X3398823Y-12489372D02*
X3360727Y-12489372D01*
X3360727Y-12489372D02*
X3341680Y-12498895D01*
X3341680Y-12498895D02*
X3332156Y-12508419D01*
X3332156Y-12508419D02*
X3322632Y-12527467D01*
X3560727Y-12413181D02*
X3579775Y-12413181D01*
X3579775Y-12413181D02*
X3598823Y-12422705D01*
X3598823Y-12422705D02*
X3608346Y-12432229D01*
X3608346Y-12432229D02*
X3617870Y-12451276D01*
X3617870Y-12451276D02*
X3627394Y-12489372D01*
X3627394Y-12489372D02*
X3627394Y-12536991D01*
X3627394Y-12536991D02*
X3617870Y-12575086D01*
X3617870Y-12575086D02*
X3608346Y-12594133D01*
X3608346Y-12594133D02*
X3598823Y-12603657D01*
X3598823Y-12603657D02*
X3579775Y-12613181D01*
X3579775Y-12613181D02*
X3560727Y-12613181D01*
X3560727Y-12613181D02*
X3541680Y-12603657D01*
X3541680Y-12603657D02*
X3532156Y-12594133D01*
X3532156Y-12594133D02*
X3522632Y-12575086D01*
X3522632Y-12575086D02*
X3513108Y-12536991D01*
X3513108Y-12536991D02*
X3513108Y-12489372D01*
X3513108Y-12489372D02*
X3522632Y-12451276D01*
X3522632Y-12451276D02*
X3532156Y-12432229D01*
X3532156Y-12432229D02*
X3541680Y-12422705D01*
X3541680Y-12422705D02*
X3560727Y-12413181D01*
X3865489Y-12613181D02*
X3865489Y-12413181D01*
X3951204Y-12613181D02*
X3951204Y-12508419D01*
X3951204Y-12508419D02*
X3941680Y-12489372D01*
X3941680Y-12489372D02*
X3922632Y-12479848D01*
X3922632Y-12479848D02*
X3894061Y-12479848D01*
X3894061Y-12479848D02*
X3875013Y-12489372D01*
X3875013Y-12489372D02*
X3865489Y-12498895D01*
X4075013Y-12613181D02*
X4055965Y-12603657D01*
X4055965Y-12603657D02*
X4046442Y-12594133D01*
X4046442Y-12594133D02*
X4036918Y-12575086D01*
X4036918Y-12575086D02*
X4036918Y-12517943D01*
X4036918Y-12517943D02*
X4046442Y-12498895D01*
X4046442Y-12498895D02*
X4055965Y-12489372D01*
X4055965Y-12489372D02*
X4075013Y-12479848D01*
X4075013Y-12479848D02*
X4103585Y-12479848D01*
X4103585Y-12479848D02*
X4122632Y-12489372D01*
X4122632Y-12489372D02*
X4132156Y-12498895D01*
X4132156Y-12498895D02*
X4141680Y-12517943D01*
X4141680Y-12517943D02*
X4141680Y-12575086D01*
X4141680Y-12575086D02*
X4132156Y-12594133D01*
X4132156Y-12594133D02*
X4122632Y-12603657D01*
X4122632Y-12603657D02*
X4103585Y-12613181D01*
X4103585Y-12613181D02*
X4075013Y-12613181D01*
X4255966Y-12613181D02*
X4236918Y-12603657D01*
X4236918Y-12603657D02*
X4227394Y-12584610D01*
X4227394Y-12584610D02*
X4227394Y-12413181D01*
X4408347Y-12603657D02*
X4389299Y-12613181D01*
X4389299Y-12613181D02*
X4351204Y-12613181D01*
X4351204Y-12613181D02*
X4332156Y-12603657D01*
X4332156Y-12603657D02*
X4322632Y-12584610D01*
X4322632Y-12584610D02*
X4322632Y-12508419D01*
X4322632Y-12508419D02*
X4332156Y-12489372D01*
X4332156Y-12489372D02*
X4351204Y-12479848D01*
X4351204Y-12479848D02*
X4389299Y-12479848D01*
X4389299Y-12479848D02*
X4408347Y-12489372D01*
X4408347Y-12489372D02*
X4417870Y-12508419D01*
X4417870Y-12508419D02*
X4417870Y-12527467D01*
X4417870Y-12527467D02*
X4322632Y-12546514D01*
X4494061Y-12603657D02*
X4513108Y-12613181D01*
X4513108Y-12613181D02*
X4551204Y-12613181D01*
X4551204Y-12613181D02*
X4570251Y-12603657D01*
X4570251Y-12603657D02*
X4579775Y-12584610D01*
X4579775Y-12584610D02*
X4579775Y-12575086D01*
X4579775Y-12575086D02*
X4570251Y-12556038D01*
X4570251Y-12556038D02*
X4551204Y-12546514D01*
X4551204Y-12546514D02*
X4522632Y-12546514D01*
X4522632Y-12546514D02*
X4503585Y-12536991D01*
X4503585Y-12536991D02*
X4494061Y-12517943D01*
X4494061Y-12517943D02*
X4494061Y-12508419D01*
X4494061Y-12508419D02*
X4503585Y-12489372D01*
X4503585Y-12489372D02*
X4522632Y-12479848D01*
X4522632Y-12479848D02*
X4551204Y-12479848D01*
X4551204Y-12479848D02*
X4570251Y-12489372D01*
X4646442Y-12689372D02*
X4655966Y-12679848D01*
X4655966Y-12679848D02*
X4675013Y-12651276D01*
X4675013Y-12651276D02*
X4684537Y-12632229D01*
X4684537Y-12632229D02*
X4694061Y-12603657D01*
X4694061Y-12603657D02*
X4703585Y-12556038D01*
X4703585Y-12556038D02*
X4703585Y-12517943D01*
X4703585Y-12517943D02*
X4694061Y-12470324D01*
X4694061Y-12470324D02*
X4684537Y-12441753D01*
X4684537Y-12441753D02*
X4675013Y-12422705D01*
X4675013Y-12422705D02*
X4655966Y-12394133D01*
X4655966Y-12394133D02*
X4646442Y-12384610D01*
X-419097Y-12901697D02*
X-319097Y-12801697D01*
X-419097Y-12701697D01*
X-519097Y-12801697D01*
X-419097Y-12901697D01*
X-77368Y-12693181D02*
X46441Y-12693181D01*
X46441Y-12693181D02*
X-20225Y-12769372D01*
X-20225Y-12769372D02*
X8346Y-12769372D01*
X8346Y-12769372D02*
X27394Y-12778895D01*
X27394Y-12778895D02*
X36918Y-12788419D01*
X36918Y-12788419D02*
X46441Y-12807467D01*
X46441Y-12807467D02*
X46441Y-12855086D01*
X46441Y-12855086D02*
X36918Y-12874133D01*
X36918Y-12874133D02*
X27394Y-12883657D01*
X27394Y-12883657D02*
X8346Y-12893181D01*
X8346Y-12893181D02*
X-48797Y-12893181D01*
X-48797Y-12893181D02*
X-67844Y-12883657D01*
X-67844Y-12883657D02*
X-77368Y-12874133D01*
X132156Y-12874133D02*
X141679Y-12883657D01*
X141679Y-12883657D02*
X132156Y-12893181D01*
X132156Y-12893181D02*
X122632Y-12883657D01*
X122632Y-12883657D02*
X132156Y-12874133D01*
X132156Y-12874133D02*
X132156Y-12893181D01*
X265489Y-12693181D02*
X284537Y-12693181D01*
X284537Y-12693181D02*
X303584Y-12702705D01*
X303584Y-12702705D02*
X313108Y-12712229D01*
X313108Y-12712229D02*
X322632Y-12731276D01*
X322632Y-12731276D02*
X332156Y-12769372D01*
X332156Y-12769372D02*
X332156Y-12816991D01*
X332156Y-12816991D02*
X322632Y-12855086D01*
X322632Y-12855086D02*
X313108Y-12874133D01*
X313108Y-12874133D02*
X303584Y-12883657D01*
X303584Y-12883657D02*
X284537Y-12893181D01*
X284537Y-12893181D02*
X265489Y-12893181D01*
X265489Y-12893181D02*
X246441Y-12883657D01*
X246441Y-12883657D02*
X236917Y-12874133D01*
X236917Y-12874133D02*
X227394Y-12855086D01*
X227394Y-12855086D02*
X217870Y-12816991D01*
X217870Y-12816991D02*
X217870Y-12769372D01*
X217870Y-12769372D02*
X227394Y-12731276D01*
X227394Y-12731276D02*
X236917Y-12712229D01*
X236917Y-12712229D02*
X246441Y-12702705D01*
X246441Y-12702705D02*
X265489Y-12693181D01*
X455965Y-12693181D02*
X475013Y-12693181D01*
X475013Y-12693181D02*
X494060Y-12702705D01*
X494060Y-12702705D02*
X503584Y-12712229D01*
X503584Y-12712229D02*
X513108Y-12731276D01*
X513108Y-12731276D02*
X522632Y-12769372D01*
X522632Y-12769372D02*
X522632Y-12816991D01*
X522632Y-12816991D02*
X513108Y-12855086D01*
X513108Y-12855086D02*
X503584Y-12874133D01*
X503584Y-12874133D02*
X494060Y-12883657D01*
X494060Y-12883657D02*
X475013Y-12893181D01*
X475013Y-12893181D02*
X455965Y-12893181D01*
X455965Y-12893181D02*
X436917Y-12883657D01*
X436917Y-12883657D02*
X427394Y-12874133D01*
X427394Y-12874133D02*
X417870Y-12855086D01*
X417870Y-12855086D02*
X408346Y-12816991D01*
X408346Y-12816991D02*
X408346Y-12769372D01*
X408346Y-12769372D02*
X417870Y-12731276D01*
X417870Y-12731276D02*
X427394Y-12712229D01*
X427394Y-12712229D02*
X436917Y-12702705D01*
X436917Y-12702705D02*
X455965Y-12693181D01*
X646441Y-12693181D02*
X665489Y-12693181D01*
X665489Y-12693181D02*
X684537Y-12702705D01*
X684537Y-12702705D02*
X694060Y-12712229D01*
X694060Y-12712229D02*
X703584Y-12731276D01*
X703584Y-12731276D02*
X713108Y-12769372D01*
X713108Y-12769372D02*
X713108Y-12816991D01*
X713108Y-12816991D02*
X703584Y-12855086D01*
X703584Y-12855086D02*
X694060Y-12874133D01*
X694060Y-12874133D02*
X684537Y-12883657D01*
X684537Y-12883657D02*
X665489Y-12893181D01*
X665489Y-12893181D02*
X646441Y-12893181D01*
X646441Y-12893181D02*
X627394Y-12883657D01*
X627394Y-12883657D02*
X617870Y-12874133D01*
X617870Y-12874133D02*
X608346Y-12855086D01*
X608346Y-12855086D02*
X598822Y-12816991D01*
X598822Y-12816991D02*
X598822Y-12769372D01*
X598822Y-12769372D02*
X608346Y-12731276D01*
X608346Y-12731276D02*
X617870Y-12712229D01*
X617870Y-12712229D02*
X627394Y-12702705D01*
X627394Y-12702705D02*
X646441Y-12693181D01*
X798822Y-12893181D02*
X798822Y-12759848D01*
X798822Y-12778895D02*
X808346Y-12769372D01*
X808346Y-12769372D02*
X827394Y-12759848D01*
X827394Y-12759848D02*
X855965Y-12759848D01*
X855965Y-12759848D02*
X875013Y-12769372D01*
X875013Y-12769372D02*
X884537Y-12788419D01*
X884537Y-12788419D02*
X884537Y-12893181D01*
X884537Y-12788419D02*
X894060Y-12769372D01*
X894060Y-12769372D02*
X913108Y-12759848D01*
X913108Y-12759848D02*
X941679Y-12759848D01*
X941679Y-12759848D02*
X960727Y-12769372D01*
X960727Y-12769372D02*
X970251Y-12788419D01*
X970251Y-12788419D02*
X970251Y-12893181D01*
X1065489Y-12893181D02*
X1065489Y-12759848D01*
X1065489Y-12778895D02*
X1075013Y-12769372D01*
X1075013Y-12769372D02*
X1094060Y-12759848D01*
X1094060Y-12759848D02*
X1122632Y-12759848D01*
X1122632Y-12759848D02*
X1141680Y-12769372D01*
X1141680Y-12769372D02*
X1151203Y-12788419D01*
X1151203Y-12788419D02*
X1151203Y-12893181D01*
X1151203Y-12788419D02*
X1160727Y-12769372D01*
X1160727Y-12769372D02*
X1179775Y-12759848D01*
X1179775Y-12759848D02*
X1208346Y-12759848D01*
X1208346Y-12759848D02*
X1227394Y-12769372D01*
X1227394Y-12769372D02*
X1236918Y-12788419D01*
X1236918Y-12788419D02*
X1236918Y-12893181D01*
X1627394Y-12683657D02*
X1455965Y-12940800D01*
X1884537Y-12693181D02*
X1903584Y-12693181D01*
X1903584Y-12693181D02*
X1922632Y-12702705D01*
X1922632Y-12702705D02*
X1932156Y-12712229D01*
X1932156Y-12712229D02*
X1941680Y-12731276D01*
X1941680Y-12731276D02*
X1951203Y-12769372D01*
X1951203Y-12769372D02*
X1951203Y-12816991D01*
X1951203Y-12816991D02*
X1941680Y-12855086D01*
X1941680Y-12855086D02*
X1932156Y-12874133D01*
X1932156Y-12874133D02*
X1922632Y-12883657D01*
X1922632Y-12883657D02*
X1903584Y-12893181D01*
X1903584Y-12893181D02*
X1884537Y-12893181D01*
X1884537Y-12893181D02*
X1865489Y-12883657D01*
X1865489Y-12883657D02*
X1855965Y-12874133D01*
X1855965Y-12874133D02*
X1846441Y-12855086D01*
X1846441Y-12855086D02*
X1836918Y-12816991D01*
X1836918Y-12816991D02*
X1836918Y-12769372D01*
X1836918Y-12769372D02*
X1846441Y-12731276D01*
X1846441Y-12731276D02*
X1855965Y-12712229D01*
X1855965Y-12712229D02*
X1865489Y-12702705D01*
X1865489Y-12702705D02*
X1884537Y-12693181D01*
X2036918Y-12874133D02*
X2046441Y-12883657D01*
X2046441Y-12883657D02*
X2036918Y-12893181D01*
X2036918Y-12893181D02*
X2027394Y-12883657D01*
X2027394Y-12883657D02*
X2036918Y-12874133D01*
X2036918Y-12874133D02*
X2036918Y-12893181D01*
X2236918Y-12893181D02*
X2122632Y-12893181D01*
X2179775Y-12893181D02*
X2179775Y-12693181D01*
X2179775Y-12693181D02*
X2160727Y-12721753D01*
X2160727Y-12721753D02*
X2141680Y-12740800D01*
X2141680Y-12740800D02*
X2122632Y-12750324D01*
X2427394Y-12893181D02*
X2313108Y-12893181D01*
X2370251Y-12893181D02*
X2370251Y-12693181D01*
X2370251Y-12693181D02*
X2351203Y-12721753D01*
X2351203Y-12721753D02*
X2332156Y-12740800D01*
X2332156Y-12740800D02*
X2313108Y-12750324D01*
X2541680Y-12778895D02*
X2522632Y-12769372D01*
X2522632Y-12769372D02*
X2513108Y-12759848D01*
X2513108Y-12759848D02*
X2503584Y-12740800D01*
X2503584Y-12740800D02*
X2503584Y-12731276D01*
X2503584Y-12731276D02*
X2513108Y-12712229D01*
X2513108Y-12712229D02*
X2522632Y-12702705D01*
X2522632Y-12702705D02*
X2541680Y-12693181D01*
X2541680Y-12693181D02*
X2579775Y-12693181D01*
X2579775Y-12693181D02*
X2598823Y-12702705D01*
X2598823Y-12702705D02*
X2608346Y-12712229D01*
X2608346Y-12712229D02*
X2617870Y-12731276D01*
X2617870Y-12731276D02*
X2617870Y-12740800D01*
X2617870Y-12740800D02*
X2608346Y-12759848D01*
X2608346Y-12759848D02*
X2598823Y-12769372D01*
X2598823Y-12769372D02*
X2579775Y-12778895D01*
X2579775Y-12778895D02*
X2541680Y-12778895D01*
X2541680Y-12778895D02*
X2522632Y-12788419D01*
X2522632Y-12788419D02*
X2513108Y-12797943D01*
X2513108Y-12797943D02*
X2503584Y-12816991D01*
X2503584Y-12816991D02*
X2503584Y-12855086D01*
X2503584Y-12855086D02*
X2513108Y-12874133D01*
X2513108Y-12874133D02*
X2522632Y-12883657D01*
X2522632Y-12883657D02*
X2541680Y-12893181D01*
X2541680Y-12893181D02*
X2579775Y-12893181D01*
X2579775Y-12893181D02*
X2598823Y-12883657D01*
X2598823Y-12883657D02*
X2608346Y-12874133D01*
X2608346Y-12874133D02*
X2617870Y-12855086D01*
X2617870Y-12855086D02*
X2617870Y-12816991D01*
X2617870Y-12816991D02*
X2608346Y-12797943D01*
X2608346Y-12797943D02*
X2598823Y-12788419D01*
X2598823Y-12788419D02*
X2579775Y-12778895D01*
X2808346Y-12893181D02*
X2694061Y-12893181D01*
X2751203Y-12893181D02*
X2751203Y-12693181D01*
X2751203Y-12693181D02*
X2732156Y-12721753D01*
X2732156Y-12721753D02*
X2713108Y-12740800D01*
X2713108Y-12740800D02*
X2694061Y-12750324D01*
X2884537Y-12693181D02*
X2884537Y-12731276D01*
X2960727Y-12693181D02*
X2960727Y-12731276D01*
X3255965Y-12969372D02*
X3246442Y-12959848D01*
X3246442Y-12959848D02*
X3227394Y-12931276D01*
X3227394Y-12931276D02*
X3217870Y-12912229D01*
X3217870Y-12912229D02*
X3208346Y-12883657D01*
X3208346Y-12883657D02*
X3198823Y-12836038D01*
X3198823Y-12836038D02*
X3198823Y-12797943D01*
X3198823Y-12797943D02*
X3208346Y-12750324D01*
X3208346Y-12750324D02*
X3217870Y-12721753D01*
X3217870Y-12721753D02*
X3227394Y-12702705D01*
X3227394Y-12702705D02*
X3246442Y-12674133D01*
X3246442Y-12674133D02*
X3255965Y-12664610D01*
X3436918Y-12893181D02*
X3322632Y-12893181D01*
X3379775Y-12893181D02*
X3379775Y-12693181D01*
X3379775Y-12693181D02*
X3360727Y-12721753D01*
X3360727Y-12721753D02*
X3341680Y-12740800D01*
X3341680Y-12740800D02*
X3322632Y-12750324D01*
X3513108Y-12712229D02*
X3522632Y-12702705D01*
X3522632Y-12702705D02*
X3541680Y-12693181D01*
X3541680Y-12693181D02*
X3589299Y-12693181D01*
X3589299Y-12693181D02*
X3608346Y-12702705D01*
X3608346Y-12702705D02*
X3617870Y-12712229D01*
X3617870Y-12712229D02*
X3627394Y-12731276D01*
X3627394Y-12731276D02*
X3627394Y-12750324D01*
X3627394Y-12750324D02*
X3617870Y-12778895D01*
X3617870Y-12778895D02*
X3503584Y-12893181D01*
X3503584Y-12893181D02*
X3627394Y-12893181D01*
X3751203Y-12693181D02*
X3770251Y-12693181D01*
X3770251Y-12693181D02*
X3789299Y-12702705D01*
X3789299Y-12702705D02*
X3798823Y-12712229D01*
X3798823Y-12712229D02*
X3808346Y-12731276D01*
X3808346Y-12731276D02*
X3817870Y-12769372D01*
X3817870Y-12769372D02*
X3817870Y-12816991D01*
X3817870Y-12816991D02*
X3808346Y-12855086D01*
X3808346Y-12855086D02*
X3798823Y-12874133D01*
X3798823Y-12874133D02*
X3789299Y-12883657D01*
X3789299Y-12883657D02*
X3770251Y-12893181D01*
X3770251Y-12893181D02*
X3751203Y-12893181D01*
X3751203Y-12893181D02*
X3732156Y-12883657D01*
X3732156Y-12883657D02*
X3722632Y-12874133D01*
X3722632Y-12874133D02*
X3713108Y-12855086D01*
X3713108Y-12855086D02*
X3703584Y-12816991D01*
X3703584Y-12816991D02*
X3703584Y-12769372D01*
X3703584Y-12769372D02*
X3713108Y-12731276D01*
X3713108Y-12731276D02*
X3722632Y-12712229D01*
X3722632Y-12712229D02*
X3732156Y-12702705D01*
X3732156Y-12702705D02*
X3751203Y-12693181D01*
X4055965Y-12893181D02*
X4055965Y-12693181D01*
X4141680Y-12893181D02*
X4141680Y-12788419D01*
X4141680Y-12788419D02*
X4132156Y-12769372D01*
X4132156Y-12769372D02*
X4113108Y-12759848D01*
X4113108Y-12759848D02*
X4084537Y-12759848D01*
X4084537Y-12759848D02*
X4065489Y-12769372D01*
X4065489Y-12769372D02*
X4055965Y-12778895D01*
X4265489Y-12893181D02*
X4246442Y-12883657D01*
X4246442Y-12883657D02*
X4236918Y-12874133D01*
X4236918Y-12874133D02*
X4227394Y-12855086D01*
X4227394Y-12855086D02*
X4227394Y-12797943D01*
X4227394Y-12797943D02*
X4236918Y-12778895D01*
X4236918Y-12778895D02*
X4246442Y-12769372D01*
X4246442Y-12769372D02*
X4265489Y-12759848D01*
X4265489Y-12759848D02*
X4294061Y-12759848D01*
X4294061Y-12759848D02*
X4313108Y-12769372D01*
X4313108Y-12769372D02*
X4322632Y-12778895D01*
X4322632Y-12778895D02*
X4332156Y-12797943D01*
X4332156Y-12797943D02*
X4332156Y-12855086D01*
X4332156Y-12855086D02*
X4322632Y-12874133D01*
X4322632Y-12874133D02*
X4313108Y-12883657D01*
X4313108Y-12883657D02*
X4294061Y-12893181D01*
X4294061Y-12893181D02*
X4265489Y-12893181D01*
X4446442Y-12893181D02*
X4427394Y-12883657D01*
X4427394Y-12883657D02*
X4417870Y-12864610D01*
X4417870Y-12864610D02*
X4417870Y-12693181D01*
X4598823Y-12883657D02*
X4579775Y-12893181D01*
X4579775Y-12893181D02*
X4541680Y-12893181D01*
X4541680Y-12893181D02*
X4522632Y-12883657D01*
X4522632Y-12883657D02*
X4513108Y-12864610D01*
X4513108Y-12864610D02*
X4513108Y-12788419D01*
X4513108Y-12788419D02*
X4522632Y-12769372D01*
X4522632Y-12769372D02*
X4541680Y-12759848D01*
X4541680Y-12759848D02*
X4579775Y-12759848D01*
X4579775Y-12759848D02*
X4598823Y-12769372D01*
X4598823Y-12769372D02*
X4608347Y-12788419D01*
X4608347Y-12788419D02*
X4608347Y-12807467D01*
X4608347Y-12807467D02*
X4513108Y-12826514D01*
X4684537Y-12883657D02*
X4703585Y-12893181D01*
X4703585Y-12893181D02*
X4741680Y-12893181D01*
X4741680Y-12893181D02*
X4760728Y-12883657D01*
X4760728Y-12883657D02*
X4770251Y-12864610D01*
X4770251Y-12864610D02*
X4770251Y-12855086D01*
X4770251Y-12855086D02*
X4760728Y-12836038D01*
X4760728Y-12836038D02*
X4741680Y-12826514D01*
X4741680Y-12826514D02*
X4713108Y-12826514D01*
X4713108Y-12826514D02*
X4694061Y-12816991D01*
X4694061Y-12816991D02*
X4684537Y-12797943D01*
X4684537Y-12797943D02*
X4684537Y-12788419D01*
X4684537Y-12788419D02*
X4694061Y-12769372D01*
X4694061Y-12769372D02*
X4713108Y-12759848D01*
X4713108Y-12759848D02*
X4741680Y-12759848D01*
X4741680Y-12759848D02*
X4760728Y-12769372D01*
X4836918Y-12969372D02*
X4846442Y-12959848D01*
X4846442Y-12959848D02*
X4865489Y-12931276D01*
X4865489Y-12931276D02*
X4875013Y-12912229D01*
X4875013Y-12912229D02*
X4884537Y-12883657D01*
X4884537Y-12883657D02*
X4894061Y-12836038D01*
X4894061Y-12836038D02*
X4894061Y-12797943D01*
X4894061Y-12797943D02*
X4884537Y-12750324D01*
X4884537Y-12750324D02*
X4875013Y-12721753D01*
X4875013Y-12721753D02*
X4865489Y-12702705D01*
X4865489Y-12702705D02*
X4846442Y-12674133D01*
X4846442Y-12674133D02*
X4836918Y-12664610D01*
M02*
