%TF.GenerationSoftware,KiCad,Pcbnew,8.0.7*%
%TF.CreationDate,2025-01-14T15:22:21-06:00*%
%TF.ProjectId,boethia60,626f6574-6869-4613-9630-2e6b69636164,rev?*%
%TF.SameCoordinates,Original*%
%TF.FileFunction,Drillmap*%
%TF.FilePolarity,Positive*%
%FSLAX45Y45*%
G04 Gerber Fmt 4.5, Leading zero omitted, Abs format (unit mm)*
G04 Created by KiCad (PCBNEW 8.0.7) date 2025-01-14 15:22:21*
%MOMM*%
%LPD*%
G01*
G04 APERTURE LIST*
%ADD10C,0.050000*%
%ADD11C,0.200000*%
%ADD12C,0.100000*%
%ADD13C,0.500000*%
G04 APERTURE END LIST*
D10*
X28358197Y-10960197D02*
X28358197Y-1563003D01*
X26783849Y-1307649D02*
X26784751Y-1029151D01*
X28231197Y-1436003D02*
G75*
G02*
X28358197Y-1563003I3J-126997D01*
G01*
X28231197Y-1436003D02*
X26911300Y-1435100D01*
X26911300Y-1435100D02*
G75*
G02*
X26784300Y-1308100I0J127000D01*
G01*
X25640397Y-1307197D02*
X25641300Y-1028700D01*
X26784751Y-1029151D02*
X25641300Y-1028700D01*
X-316597Y-1563003D02*
X-316597Y-10960197D01*
X25513397Y-1434197D02*
X-189597Y-1436003D01*
X-316597Y-1563003D02*
G75*
G02*
X-189597Y-1436003I127000J0D01*
G01*
X25640397Y-1307197D02*
G75*
G02*
X25513397Y-1434197I-126997J-3D01*
G01*
X-189597Y-11087197D02*
G75*
G02*
X-316597Y-10960197I0J127000D01*
G01*
X-189597Y-11087197D02*
X28231197Y-11087197D01*
X28358197Y-10960197D02*
G75*
G02*
X28231197Y-11087197I-126997J-3D01*
G01*
D11*
D12*
X25878600Y-1492900D02*
X25943600Y-1557900D01*
X25943600Y-1492900D02*
X25878600Y-1557900D01*
X26456600Y-1492900D02*
X26521600Y-1557900D01*
X26521600Y-1492900D02*
X26456600Y-1557900D01*
D13*
X885000Y-2395125D02*
G75*
G02*
X385000Y-2395125I-250000J0D01*
G01*
X385000Y-2395125D02*
G75*
G02*
X885000Y-2395125I250000J0D01*
G01*
X885000Y-8136250D02*
G75*
G02*
X385000Y-8136250I-250000J0D01*
G01*
X385000Y-8136250D02*
G75*
G02*
X885000Y-8136250I250000J0D01*
G01*
X1361250Y-4325000D02*
G75*
G02*
X861250Y-4325000I-250000J0D01*
G01*
X861250Y-4325000D02*
G75*
G02*
X1361250Y-4325000I250000J0D01*
G01*
X2099375Y-6230000D02*
G75*
G02*
X1599375Y-6230000I-250000J0D01*
G01*
X1599375Y-6230000D02*
G75*
G02*
X2099375Y-6230000I250000J0D01*
G01*
X2790000Y-2395125D02*
G75*
G02*
X2290000Y-2395125I-250000J0D01*
G01*
X2290000Y-2395125D02*
G75*
G02*
X2790000Y-2395125I250000J0D01*
G01*
X3511375Y-8136250D02*
G75*
G02*
X3011375Y-8136250I-250000J0D01*
G01*
X3011375Y-8136250D02*
G75*
G02*
X3511375Y-8136250I250000J0D01*
G01*
X3742500Y-4325000D02*
G75*
G02*
X3242500Y-4325000I-250000J0D01*
G01*
X3242500Y-4325000D02*
G75*
G02*
X3742500Y-4325000I250000J0D01*
G01*
X4695000Y-2395125D02*
G75*
G02*
X4195000Y-2395125I-250000J0D01*
G01*
X4195000Y-2395125D02*
G75*
G02*
X4695000Y-2395125I250000J0D01*
G01*
X5171250Y-6231250D02*
G75*
G02*
X4671250Y-6231250I-250000J0D01*
G01*
X4671250Y-6231250D02*
G75*
G02*
X5171250Y-6231250I250000J0D01*
G01*
X5647500Y-4325000D02*
G75*
G02*
X5147500Y-4325000I-250000J0D01*
G01*
X5147500Y-4325000D02*
G75*
G02*
X5647500Y-4325000I250000J0D01*
G01*
X5679000Y-10094500D02*
G75*
G02*
X5179000Y-10094500I-250000J0D01*
G01*
X5179000Y-10094500D02*
G75*
G02*
X5679000Y-10094500I250000J0D01*
G01*
X6123750Y-8135000D02*
G75*
G02*
X5623750Y-8135000I-250000J0D01*
G01*
X5623750Y-8135000D02*
G75*
G02*
X6123750Y-8135000I250000J0D01*
G01*
X6600000Y-2395125D02*
G75*
G02*
X6100000Y-2395125I-250000J0D01*
G01*
X6100000Y-2395125D02*
G75*
G02*
X6600000Y-2395125I250000J0D01*
G01*
X7076250Y-6231250D02*
G75*
G02*
X6576250Y-6231250I-250000J0D01*
G01*
X6576250Y-6231250D02*
G75*
G02*
X7076250Y-6231250I250000J0D01*
G01*
X7552500Y-4325000D02*
G75*
G02*
X7052500Y-4325000I-250000J0D01*
G01*
X7052500Y-4325000D02*
G75*
G02*
X7552500Y-4325000I250000J0D01*
G01*
X8028750Y-8135000D02*
G75*
G02*
X7528750Y-8135000I-250000J0D01*
G01*
X7528750Y-8135000D02*
G75*
G02*
X8028750Y-8135000I250000J0D01*
G01*
X8108125Y-10094500D02*
G75*
G02*
X7608125Y-10094500I-250000J0D01*
G01*
X7608125Y-10094500D02*
G75*
G02*
X8108125Y-10094500I250000J0D01*
G01*
X8505000Y-2395125D02*
G75*
G02*
X8005000Y-2395125I-250000J0D01*
G01*
X8005000Y-2395125D02*
G75*
G02*
X8505000Y-2395125I250000J0D01*
G01*
X8988250Y-6231250D02*
G75*
G02*
X8488250Y-6231250I-250000J0D01*
G01*
X8488250Y-6231250D02*
G75*
G02*
X8988250Y-6231250I250000J0D01*
G01*
X9457500Y-4325000D02*
G75*
G02*
X8957500Y-4325000I-250000J0D01*
G01*
X8957500Y-4325000D02*
G75*
G02*
X9457500Y-4325000I250000J0D01*
G01*
X9933750Y-8135000D02*
G75*
G02*
X9433750Y-8135000I-250000J0D01*
G01*
X9433750Y-8135000D02*
G75*
G02*
X9933750Y-8135000I250000J0D01*
G01*
X10441500Y-2395125D02*
G75*
G02*
X9941500Y-2395125I-250000J0D01*
G01*
X9941500Y-2395125D02*
G75*
G02*
X10441500Y-2395125I250000J0D01*
G01*
X10886250Y-6231250D02*
G75*
G02*
X10386250Y-6231250I-250000J0D01*
G01*
X10386250Y-6231250D02*
G75*
G02*
X10886250Y-6231250I250000J0D01*
G01*
X11362500Y-4325000D02*
G75*
G02*
X10862500Y-4325000I-250000J0D01*
G01*
X10862500Y-4325000D02*
G75*
G02*
X11362500Y-4325000I250000J0D01*
G01*
X11838750Y-8135000D02*
G75*
G02*
X11338750Y-8135000I-250000J0D01*
G01*
X11338750Y-8135000D02*
G75*
G02*
X11838750Y-8135000I250000J0D01*
G01*
X12346500Y-2395125D02*
G75*
G02*
X11846500Y-2395125I-250000J0D01*
G01*
X11846500Y-2395125D02*
G75*
G02*
X12346500Y-2395125I250000J0D01*
G01*
X12791250Y-6231250D02*
G75*
G02*
X12291250Y-6231250I-250000J0D01*
G01*
X12291250Y-6231250D02*
G75*
G02*
X12791250Y-6231250I250000J0D01*
G01*
X13267500Y-4325000D02*
G75*
G02*
X12767500Y-4325000I-250000J0D01*
G01*
X12767500Y-4325000D02*
G75*
G02*
X13267500Y-4325000I250000J0D01*
G01*
X13743750Y-8135000D02*
G75*
G02*
X13243750Y-8135000I-250000J0D01*
G01*
X13243750Y-8135000D02*
G75*
G02*
X13743750Y-8135000I250000J0D01*
G01*
X14251500Y-2395125D02*
G75*
G02*
X13751500Y-2395125I-250000J0D01*
G01*
X13751500Y-2395125D02*
G75*
G02*
X14251500Y-2395125I250000J0D01*
G01*
X14696250Y-6231250D02*
G75*
G02*
X14196250Y-6231250I-250000J0D01*
G01*
X14196250Y-6231250D02*
G75*
G02*
X14696250Y-6231250I250000J0D01*
G01*
X15172500Y-4325000D02*
G75*
G02*
X14672500Y-4325000I-250000J0D01*
G01*
X14672500Y-4325000D02*
G75*
G02*
X15172500Y-4325000I250000J0D01*
G01*
X15172500Y-10080625D02*
G75*
G02*
X14672500Y-10080625I-250000J0D01*
G01*
X14672500Y-10080625D02*
G75*
G02*
X15172500Y-10080625I250000J0D01*
G01*
X15648750Y-8135000D02*
G75*
G02*
X15148750Y-8135000I-250000J0D01*
G01*
X15148750Y-8135000D02*
G75*
G02*
X15648750Y-8135000I250000J0D01*
G01*
X16148750Y-2395125D02*
G75*
G02*
X15648750Y-2395125I-250000J0D01*
G01*
X15648750Y-2395125D02*
G75*
G02*
X16148750Y-2395125I250000J0D01*
G01*
X16601250Y-6231250D02*
G75*
G02*
X16101250Y-6231250I-250000J0D01*
G01*
X16101250Y-6231250D02*
G75*
G02*
X16601250Y-6231250I250000J0D01*
G01*
X17077500Y-4325000D02*
G75*
G02*
X16577500Y-4325000I-250000J0D01*
G01*
X16577500Y-4325000D02*
G75*
G02*
X17077500Y-4325000I250000J0D01*
G01*
X17553750Y-8135000D02*
G75*
G02*
X17053750Y-8135000I-250000J0D01*
G01*
X17053750Y-8135000D02*
G75*
G02*
X17553750Y-8135000I250000J0D01*
G01*
X18053750Y-2395125D02*
G75*
G02*
X17553750Y-2395125I-250000J0D01*
G01*
X17553750Y-2395125D02*
G75*
G02*
X18053750Y-2395125I250000J0D01*
G01*
X18513600Y-6229000D02*
G75*
G02*
X18013600Y-6229000I-250000J0D01*
G01*
X18013600Y-6229000D02*
G75*
G02*
X18513600Y-6229000I250000J0D01*
G01*
X18982500Y-4325000D02*
G75*
G02*
X18482500Y-4325000I-250000J0D01*
G01*
X18482500Y-4325000D02*
G75*
G02*
X18982500Y-4325000I250000J0D01*
G01*
X19458750Y-8135000D02*
G75*
G02*
X18958750Y-8135000I-250000J0D01*
G01*
X18958750Y-8135000D02*
G75*
G02*
X19458750Y-8135000I250000J0D01*
G01*
X19966500Y-2395125D02*
G75*
G02*
X19466500Y-2395125I-250000J0D01*
G01*
X19466500Y-2395125D02*
G75*
G02*
X19966500Y-2395125I250000J0D01*
G01*
X20418250Y-6231250D02*
G75*
G02*
X19918250Y-6231250I-250000J0D01*
G01*
X19918250Y-6231250D02*
G75*
G02*
X20418250Y-6231250I250000J0D01*
G01*
X20887500Y-4325000D02*
G75*
G02*
X20387500Y-4325000I-250000J0D01*
G01*
X20387500Y-4325000D02*
G75*
G02*
X20887500Y-4325000I250000J0D01*
G01*
X21363750Y-8135000D02*
G75*
G02*
X20863750Y-8135000I-250000J0D01*
G01*
X20863750Y-8135000D02*
G75*
G02*
X21363750Y-8135000I250000J0D01*
G01*
X21863750Y-2395125D02*
G75*
G02*
X21363750Y-2395125I-250000J0D01*
G01*
X21363750Y-2395125D02*
G75*
G02*
X21863750Y-2395125I250000J0D01*
G01*
X22316250Y-6230000D02*
G75*
G02*
X21816250Y-6230000I-250000J0D01*
G01*
X21816250Y-6230000D02*
G75*
G02*
X22316250Y-6230000I250000J0D01*
G01*
X22792500Y-4325000D02*
G75*
G02*
X22292500Y-4325000I-250000J0D01*
G01*
X22292500Y-4325000D02*
G75*
G02*
X22792500Y-4325000I250000J0D01*
G01*
X22792500Y-10080625D02*
G75*
G02*
X22292500Y-10080625I-250000J0D01*
G01*
X22292500Y-10080625D02*
G75*
G02*
X22792500Y-10080625I250000J0D01*
G01*
X23292500Y-8135000D02*
G75*
G02*
X22792500Y-8135000I-250000J0D01*
G01*
X22792500Y-8135000D02*
G75*
G02*
X23292500Y-8135000I250000J0D01*
G01*
X23776500Y-2395125D02*
G75*
G02*
X23276500Y-2395125I-250000J0D01*
G01*
X23276500Y-2395125D02*
G75*
G02*
X23776500Y-2395125I250000J0D01*
G01*
X24221250Y-6230000D02*
G75*
G02*
X23721250Y-6230000I-250000J0D01*
G01*
X23721250Y-6230000D02*
G75*
G02*
X24221250Y-6230000I250000J0D01*
G01*
X24697500Y-4325000D02*
G75*
G02*
X24197500Y-4325000I-250000J0D01*
G01*
X24197500Y-4325000D02*
G75*
G02*
X24697500Y-4325000I250000J0D01*
G01*
X25173750Y-10080625D02*
G75*
G02*
X24673750Y-10080625I-250000J0D01*
G01*
X24673750Y-10080625D02*
G75*
G02*
X25173750Y-10080625I250000J0D01*
G01*
X25681500Y-2395125D02*
G75*
G02*
X25181500Y-2395125I-250000J0D01*
G01*
X25181500Y-2395125D02*
G75*
G02*
X25681500Y-2395125I250000J0D01*
G01*
X26388125Y-8135000D02*
G75*
G02*
X25888125Y-8135000I-250000J0D01*
G01*
X25888125Y-8135000D02*
G75*
G02*
X26388125Y-8135000I250000J0D01*
G01*
X26864375Y-6230000D02*
G75*
G02*
X26364375Y-6230000I-250000J0D01*
G01*
X26364375Y-6230000D02*
G75*
G02*
X26864375Y-6230000I250000J0D01*
G01*
X27102500Y-4325000D02*
G75*
G02*
X26602500Y-4325000I-250000J0D01*
G01*
X26602500Y-4325000D02*
G75*
G02*
X27102500Y-4325000I250000J0D01*
G01*
X27578750Y-2395125D02*
G75*
G02*
X27078750Y-2395125I-250000J0D01*
G01*
X27078750Y-2395125D02*
G75*
G02*
X27578750Y-2395125I250000J0D01*
G01*
D11*
X-58320Y-11401181D02*
X-58320Y-11201181D01*
X-58320Y-11201181D02*
X-10702Y-11201181D01*
X-10702Y-11201181D02*
X17870Y-11210705D01*
X17870Y-11210705D02*
X36918Y-11229753D01*
X36918Y-11229753D02*
X46441Y-11248800D01*
X46441Y-11248800D02*
X55965Y-11286895D01*
X55965Y-11286895D02*
X55965Y-11315467D01*
X55965Y-11315467D02*
X46441Y-11353562D01*
X46441Y-11353562D02*
X36918Y-11372610D01*
X36918Y-11372610D02*
X17870Y-11391657D01*
X17870Y-11391657D02*
X-10702Y-11401181D01*
X-10702Y-11401181D02*
X-58320Y-11401181D01*
X141679Y-11401181D02*
X141679Y-11267848D01*
X141679Y-11305943D02*
X151203Y-11286895D01*
X151203Y-11286895D02*
X160727Y-11277372D01*
X160727Y-11277372D02*
X179775Y-11267848D01*
X179775Y-11267848D02*
X198822Y-11267848D01*
X265489Y-11401181D02*
X265489Y-11267848D01*
X265489Y-11201181D02*
X255965Y-11210705D01*
X255965Y-11210705D02*
X265489Y-11220229D01*
X265489Y-11220229D02*
X275013Y-11210705D01*
X275013Y-11210705D02*
X265489Y-11201181D01*
X265489Y-11201181D02*
X265489Y-11220229D01*
X389298Y-11401181D02*
X370251Y-11391657D01*
X370251Y-11391657D02*
X360727Y-11372610D01*
X360727Y-11372610D02*
X360727Y-11201181D01*
X494060Y-11401181D02*
X475013Y-11391657D01*
X475013Y-11391657D02*
X465489Y-11372610D01*
X465489Y-11372610D02*
X465489Y-11201181D01*
X722632Y-11401181D02*
X722632Y-11201181D01*
X722632Y-11201181D02*
X789298Y-11344038D01*
X789298Y-11344038D02*
X855965Y-11201181D01*
X855965Y-11201181D02*
X855965Y-11401181D01*
X1036917Y-11401181D02*
X1036917Y-11296419D01*
X1036917Y-11296419D02*
X1027394Y-11277372D01*
X1027394Y-11277372D02*
X1008346Y-11267848D01*
X1008346Y-11267848D02*
X970251Y-11267848D01*
X970251Y-11267848D02*
X951203Y-11277372D01*
X1036917Y-11391657D02*
X1017870Y-11401181D01*
X1017870Y-11401181D02*
X970251Y-11401181D01*
X970251Y-11401181D02*
X951203Y-11391657D01*
X951203Y-11391657D02*
X941679Y-11372610D01*
X941679Y-11372610D02*
X941679Y-11353562D01*
X941679Y-11353562D02*
X951203Y-11334514D01*
X951203Y-11334514D02*
X970251Y-11324991D01*
X970251Y-11324991D02*
X1017870Y-11324991D01*
X1017870Y-11324991D02*
X1036917Y-11315467D01*
X1132156Y-11267848D02*
X1132156Y-11467848D01*
X1132156Y-11277372D02*
X1151203Y-11267848D01*
X1151203Y-11267848D02*
X1189299Y-11267848D01*
X1189299Y-11267848D02*
X1208346Y-11277372D01*
X1208346Y-11277372D02*
X1217870Y-11286895D01*
X1217870Y-11286895D02*
X1227394Y-11305943D01*
X1227394Y-11305943D02*
X1227394Y-11363086D01*
X1227394Y-11363086D02*
X1217870Y-11382133D01*
X1217870Y-11382133D02*
X1208346Y-11391657D01*
X1208346Y-11391657D02*
X1189299Y-11401181D01*
X1189299Y-11401181D02*
X1151203Y-11401181D01*
X1151203Y-11401181D02*
X1132156Y-11391657D01*
X1313108Y-11382133D02*
X1322632Y-11391657D01*
X1322632Y-11391657D02*
X1313108Y-11401181D01*
X1313108Y-11401181D02*
X1303584Y-11391657D01*
X1303584Y-11391657D02*
X1313108Y-11382133D01*
X1313108Y-11382133D02*
X1313108Y-11401181D01*
X1313108Y-11277372D02*
X1322632Y-11286895D01*
X1322632Y-11286895D02*
X1313108Y-11296419D01*
X1313108Y-11296419D02*
X1303584Y-11286895D01*
X1303584Y-11286895D02*
X1313108Y-11277372D01*
X1313108Y-11277372D02*
X1313108Y-11296419D01*
D12*
X-384097Y-11697197D02*
X-319097Y-11762197D01*
X-319097Y-11697197D02*
X-384097Y-11762197D01*
D11*
X-20225Y-11621181D02*
X-1178Y-11621181D01*
X-1178Y-11621181D02*
X17870Y-11630705D01*
X17870Y-11630705D02*
X27394Y-11640229D01*
X27394Y-11640229D02*
X36918Y-11659276D01*
X36918Y-11659276D02*
X46441Y-11697372D01*
X46441Y-11697372D02*
X46441Y-11744991D01*
X46441Y-11744991D02*
X36918Y-11783086D01*
X36918Y-11783086D02*
X27394Y-11802133D01*
X27394Y-11802133D02*
X17870Y-11811657D01*
X17870Y-11811657D02*
X-1178Y-11821181D01*
X-1178Y-11821181D02*
X-20225Y-11821181D01*
X-20225Y-11821181D02*
X-39273Y-11811657D01*
X-39273Y-11811657D02*
X-48797Y-11802133D01*
X-48797Y-11802133D02*
X-58320Y-11783086D01*
X-58320Y-11783086D02*
X-67844Y-11744991D01*
X-67844Y-11744991D02*
X-67844Y-11697372D01*
X-67844Y-11697372D02*
X-58320Y-11659276D01*
X-58320Y-11659276D02*
X-48797Y-11640229D01*
X-48797Y-11640229D02*
X-39273Y-11630705D01*
X-39273Y-11630705D02*
X-20225Y-11621181D01*
X132156Y-11802133D02*
X141679Y-11811657D01*
X141679Y-11811657D02*
X132156Y-11821181D01*
X132156Y-11821181D02*
X122632Y-11811657D01*
X122632Y-11811657D02*
X132156Y-11802133D01*
X132156Y-11802133D02*
X132156Y-11821181D01*
X313108Y-11621181D02*
X275013Y-11621181D01*
X275013Y-11621181D02*
X255965Y-11630705D01*
X255965Y-11630705D02*
X246441Y-11640229D01*
X246441Y-11640229D02*
X227394Y-11668800D01*
X227394Y-11668800D02*
X217870Y-11706895D01*
X217870Y-11706895D02*
X217870Y-11783086D01*
X217870Y-11783086D02*
X227394Y-11802133D01*
X227394Y-11802133D02*
X236917Y-11811657D01*
X236917Y-11811657D02*
X255965Y-11821181D01*
X255965Y-11821181D02*
X294060Y-11821181D01*
X294060Y-11821181D02*
X313108Y-11811657D01*
X313108Y-11811657D02*
X322632Y-11802133D01*
X322632Y-11802133D02*
X332156Y-11783086D01*
X332156Y-11783086D02*
X332156Y-11735467D01*
X332156Y-11735467D02*
X322632Y-11716419D01*
X322632Y-11716419D02*
X313108Y-11706895D01*
X313108Y-11706895D02*
X294060Y-11697372D01*
X294060Y-11697372D02*
X255965Y-11697372D01*
X255965Y-11697372D02*
X236917Y-11706895D01*
X236917Y-11706895D02*
X227394Y-11716419D01*
X227394Y-11716419D02*
X217870Y-11735467D01*
X513108Y-11621181D02*
X417870Y-11621181D01*
X417870Y-11621181D02*
X408346Y-11716419D01*
X408346Y-11716419D02*
X417870Y-11706895D01*
X417870Y-11706895D02*
X436917Y-11697372D01*
X436917Y-11697372D02*
X484537Y-11697372D01*
X484537Y-11697372D02*
X503584Y-11706895D01*
X503584Y-11706895D02*
X513108Y-11716419D01*
X513108Y-11716419D02*
X522632Y-11735467D01*
X522632Y-11735467D02*
X522632Y-11783086D01*
X522632Y-11783086D02*
X513108Y-11802133D01*
X513108Y-11802133D02*
X503584Y-11811657D01*
X503584Y-11811657D02*
X484537Y-11821181D01*
X484537Y-11821181D02*
X436917Y-11821181D01*
X436917Y-11821181D02*
X417870Y-11811657D01*
X417870Y-11811657D02*
X408346Y-11802133D01*
X646441Y-11621181D02*
X665489Y-11621181D01*
X665489Y-11621181D02*
X684537Y-11630705D01*
X684537Y-11630705D02*
X694060Y-11640229D01*
X694060Y-11640229D02*
X703584Y-11659276D01*
X703584Y-11659276D02*
X713108Y-11697372D01*
X713108Y-11697372D02*
X713108Y-11744991D01*
X713108Y-11744991D02*
X703584Y-11783086D01*
X703584Y-11783086D02*
X694060Y-11802133D01*
X694060Y-11802133D02*
X684537Y-11811657D01*
X684537Y-11811657D02*
X665489Y-11821181D01*
X665489Y-11821181D02*
X646441Y-11821181D01*
X646441Y-11821181D02*
X627394Y-11811657D01*
X627394Y-11811657D02*
X617870Y-11802133D01*
X617870Y-11802133D02*
X608346Y-11783086D01*
X608346Y-11783086D02*
X598822Y-11744991D01*
X598822Y-11744991D02*
X598822Y-11697372D01*
X598822Y-11697372D02*
X608346Y-11659276D01*
X608346Y-11659276D02*
X617870Y-11640229D01*
X617870Y-11640229D02*
X627394Y-11630705D01*
X627394Y-11630705D02*
X646441Y-11621181D01*
X798822Y-11821181D02*
X798822Y-11687848D01*
X798822Y-11706895D02*
X808346Y-11697372D01*
X808346Y-11697372D02*
X827394Y-11687848D01*
X827394Y-11687848D02*
X855965Y-11687848D01*
X855965Y-11687848D02*
X875013Y-11697372D01*
X875013Y-11697372D02*
X884537Y-11716419D01*
X884537Y-11716419D02*
X884537Y-11821181D01*
X884537Y-11716419D02*
X894060Y-11697372D01*
X894060Y-11697372D02*
X913108Y-11687848D01*
X913108Y-11687848D02*
X941679Y-11687848D01*
X941679Y-11687848D02*
X960727Y-11697372D01*
X960727Y-11697372D02*
X970251Y-11716419D01*
X970251Y-11716419D02*
X970251Y-11821181D01*
X1065489Y-11821181D02*
X1065489Y-11687848D01*
X1065489Y-11706895D02*
X1075013Y-11697372D01*
X1075013Y-11697372D02*
X1094060Y-11687848D01*
X1094060Y-11687848D02*
X1122632Y-11687848D01*
X1122632Y-11687848D02*
X1141680Y-11697372D01*
X1141680Y-11697372D02*
X1151203Y-11716419D01*
X1151203Y-11716419D02*
X1151203Y-11821181D01*
X1151203Y-11716419D02*
X1160727Y-11697372D01*
X1160727Y-11697372D02*
X1179775Y-11687848D01*
X1179775Y-11687848D02*
X1208346Y-11687848D01*
X1208346Y-11687848D02*
X1227394Y-11697372D01*
X1227394Y-11697372D02*
X1236918Y-11716419D01*
X1236918Y-11716419D02*
X1236918Y-11821181D01*
X1627394Y-11611657D02*
X1455965Y-11868800D01*
X1884537Y-11621181D02*
X1903584Y-11621181D01*
X1903584Y-11621181D02*
X1922632Y-11630705D01*
X1922632Y-11630705D02*
X1932156Y-11640229D01*
X1932156Y-11640229D02*
X1941680Y-11659276D01*
X1941680Y-11659276D02*
X1951203Y-11697372D01*
X1951203Y-11697372D02*
X1951203Y-11744991D01*
X1951203Y-11744991D02*
X1941680Y-11783086D01*
X1941680Y-11783086D02*
X1932156Y-11802133D01*
X1932156Y-11802133D02*
X1922632Y-11811657D01*
X1922632Y-11811657D02*
X1903584Y-11821181D01*
X1903584Y-11821181D02*
X1884537Y-11821181D01*
X1884537Y-11821181D02*
X1865489Y-11811657D01*
X1865489Y-11811657D02*
X1855965Y-11802133D01*
X1855965Y-11802133D02*
X1846441Y-11783086D01*
X1846441Y-11783086D02*
X1836918Y-11744991D01*
X1836918Y-11744991D02*
X1836918Y-11697372D01*
X1836918Y-11697372D02*
X1846441Y-11659276D01*
X1846441Y-11659276D02*
X1855965Y-11640229D01*
X1855965Y-11640229D02*
X1865489Y-11630705D01*
X1865489Y-11630705D02*
X1884537Y-11621181D01*
X2036918Y-11802133D02*
X2046441Y-11811657D01*
X2046441Y-11811657D02*
X2036918Y-11821181D01*
X2036918Y-11821181D02*
X2027394Y-11811657D01*
X2027394Y-11811657D02*
X2036918Y-11802133D01*
X2036918Y-11802133D02*
X2036918Y-11821181D01*
X2170251Y-11621181D02*
X2189299Y-11621181D01*
X2189299Y-11621181D02*
X2208346Y-11630705D01*
X2208346Y-11630705D02*
X2217870Y-11640229D01*
X2217870Y-11640229D02*
X2227394Y-11659276D01*
X2227394Y-11659276D02*
X2236918Y-11697372D01*
X2236918Y-11697372D02*
X2236918Y-11744991D01*
X2236918Y-11744991D02*
X2227394Y-11783086D01*
X2227394Y-11783086D02*
X2217870Y-11802133D01*
X2217870Y-11802133D02*
X2208346Y-11811657D01*
X2208346Y-11811657D02*
X2189299Y-11821181D01*
X2189299Y-11821181D02*
X2170251Y-11821181D01*
X2170251Y-11821181D02*
X2151203Y-11811657D01*
X2151203Y-11811657D02*
X2141680Y-11802133D01*
X2141680Y-11802133D02*
X2132156Y-11783086D01*
X2132156Y-11783086D02*
X2122632Y-11744991D01*
X2122632Y-11744991D02*
X2122632Y-11697372D01*
X2122632Y-11697372D02*
X2132156Y-11659276D01*
X2132156Y-11659276D02*
X2141680Y-11640229D01*
X2141680Y-11640229D02*
X2151203Y-11630705D01*
X2151203Y-11630705D02*
X2170251Y-11621181D01*
X2313108Y-11640229D02*
X2322632Y-11630705D01*
X2322632Y-11630705D02*
X2341680Y-11621181D01*
X2341680Y-11621181D02*
X2389299Y-11621181D01*
X2389299Y-11621181D02*
X2408346Y-11630705D01*
X2408346Y-11630705D02*
X2417870Y-11640229D01*
X2417870Y-11640229D02*
X2427394Y-11659276D01*
X2427394Y-11659276D02*
X2427394Y-11678324D01*
X2427394Y-11678324D02*
X2417870Y-11706895D01*
X2417870Y-11706895D02*
X2303584Y-11821181D01*
X2303584Y-11821181D02*
X2427394Y-11821181D01*
X2608346Y-11621181D02*
X2513108Y-11621181D01*
X2513108Y-11621181D02*
X2503584Y-11716419D01*
X2503584Y-11716419D02*
X2513108Y-11706895D01*
X2513108Y-11706895D02*
X2532156Y-11697372D01*
X2532156Y-11697372D02*
X2579775Y-11697372D01*
X2579775Y-11697372D02*
X2598823Y-11706895D01*
X2598823Y-11706895D02*
X2608346Y-11716419D01*
X2608346Y-11716419D02*
X2617870Y-11735467D01*
X2617870Y-11735467D02*
X2617870Y-11783086D01*
X2617870Y-11783086D02*
X2608346Y-11802133D01*
X2608346Y-11802133D02*
X2598823Y-11811657D01*
X2598823Y-11811657D02*
X2579775Y-11821181D01*
X2579775Y-11821181D02*
X2532156Y-11821181D01*
X2532156Y-11821181D02*
X2513108Y-11811657D01*
X2513108Y-11811657D02*
X2503584Y-11802133D01*
X2789299Y-11621181D02*
X2751203Y-11621181D01*
X2751203Y-11621181D02*
X2732156Y-11630705D01*
X2732156Y-11630705D02*
X2722632Y-11640229D01*
X2722632Y-11640229D02*
X2703584Y-11668800D01*
X2703584Y-11668800D02*
X2694061Y-11706895D01*
X2694061Y-11706895D02*
X2694061Y-11783086D01*
X2694061Y-11783086D02*
X2703584Y-11802133D01*
X2703584Y-11802133D02*
X2713108Y-11811657D01*
X2713108Y-11811657D02*
X2732156Y-11821181D01*
X2732156Y-11821181D02*
X2770251Y-11821181D01*
X2770251Y-11821181D02*
X2789299Y-11811657D01*
X2789299Y-11811657D02*
X2798822Y-11802133D01*
X2798822Y-11802133D02*
X2808346Y-11783086D01*
X2808346Y-11783086D02*
X2808346Y-11735467D01*
X2808346Y-11735467D02*
X2798822Y-11716419D01*
X2798822Y-11716419D02*
X2789299Y-11706895D01*
X2789299Y-11706895D02*
X2770251Y-11697372D01*
X2770251Y-11697372D02*
X2732156Y-11697372D01*
X2732156Y-11697372D02*
X2713108Y-11706895D01*
X2713108Y-11706895D02*
X2703584Y-11716419D01*
X2703584Y-11716419D02*
X2694061Y-11735467D01*
X2884537Y-11621181D02*
X2884537Y-11659276D01*
X2960727Y-11621181D02*
X2960727Y-11659276D01*
X3255965Y-11897372D02*
X3246442Y-11887848D01*
X3246442Y-11887848D02*
X3227394Y-11859276D01*
X3227394Y-11859276D02*
X3217870Y-11840229D01*
X3217870Y-11840229D02*
X3208346Y-11811657D01*
X3208346Y-11811657D02*
X3198823Y-11764038D01*
X3198823Y-11764038D02*
X3198823Y-11725943D01*
X3198823Y-11725943D02*
X3208346Y-11678324D01*
X3208346Y-11678324D02*
X3217870Y-11649753D01*
X3217870Y-11649753D02*
X3227394Y-11630705D01*
X3227394Y-11630705D02*
X3246442Y-11602133D01*
X3246442Y-11602133D02*
X3255965Y-11592610D01*
X3322632Y-11640229D02*
X3332156Y-11630705D01*
X3332156Y-11630705D02*
X3351203Y-11621181D01*
X3351203Y-11621181D02*
X3398823Y-11621181D01*
X3398823Y-11621181D02*
X3417870Y-11630705D01*
X3417870Y-11630705D02*
X3427394Y-11640229D01*
X3427394Y-11640229D02*
X3436918Y-11659276D01*
X3436918Y-11659276D02*
X3436918Y-11678324D01*
X3436918Y-11678324D02*
X3427394Y-11706895D01*
X3427394Y-11706895D02*
X3313108Y-11821181D01*
X3313108Y-11821181D02*
X3436918Y-11821181D01*
X3675013Y-11821181D02*
X3675013Y-11621181D01*
X3760727Y-11821181D02*
X3760727Y-11716419D01*
X3760727Y-11716419D02*
X3751204Y-11697372D01*
X3751204Y-11697372D02*
X3732156Y-11687848D01*
X3732156Y-11687848D02*
X3703584Y-11687848D01*
X3703584Y-11687848D02*
X3684537Y-11697372D01*
X3684537Y-11697372D02*
X3675013Y-11706895D01*
X3884537Y-11821181D02*
X3865489Y-11811657D01*
X3865489Y-11811657D02*
X3855965Y-11802133D01*
X3855965Y-11802133D02*
X3846442Y-11783086D01*
X3846442Y-11783086D02*
X3846442Y-11725943D01*
X3846442Y-11725943D02*
X3855965Y-11706895D01*
X3855965Y-11706895D02*
X3865489Y-11697372D01*
X3865489Y-11697372D02*
X3884537Y-11687848D01*
X3884537Y-11687848D02*
X3913108Y-11687848D01*
X3913108Y-11687848D02*
X3932156Y-11697372D01*
X3932156Y-11697372D02*
X3941680Y-11706895D01*
X3941680Y-11706895D02*
X3951204Y-11725943D01*
X3951204Y-11725943D02*
X3951204Y-11783086D01*
X3951204Y-11783086D02*
X3941680Y-11802133D01*
X3941680Y-11802133D02*
X3932156Y-11811657D01*
X3932156Y-11811657D02*
X3913108Y-11821181D01*
X3913108Y-11821181D02*
X3884537Y-11821181D01*
X4065489Y-11821181D02*
X4046442Y-11811657D01*
X4046442Y-11811657D02*
X4036918Y-11792610D01*
X4036918Y-11792610D02*
X4036918Y-11621181D01*
X4217870Y-11811657D02*
X4198823Y-11821181D01*
X4198823Y-11821181D02*
X4160727Y-11821181D01*
X4160727Y-11821181D02*
X4141680Y-11811657D01*
X4141680Y-11811657D02*
X4132156Y-11792610D01*
X4132156Y-11792610D02*
X4132156Y-11716419D01*
X4132156Y-11716419D02*
X4141680Y-11697372D01*
X4141680Y-11697372D02*
X4160727Y-11687848D01*
X4160727Y-11687848D02*
X4198823Y-11687848D01*
X4198823Y-11687848D02*
X4217870Y-11697372D01*
X4217870Y-11697372D02*
X4227394Y-11716419D01*
X4227394Y-11716419D02*
X4227394Y-11735467D01*
X4227394Y-11735467D02*
X4132156Y-11754514D01*
X4303585Y-11811657D02*
X4322632Y-11821181D01*
X4322632Y-11821181D02*
X4360727Y-11821181D01*
X4360727Y-11821181D02*
X4379775Y-11811657D01*
X4379775Y-11811657D02*
X4389299Y-11792610D01*
X4389299Y-11792610D02*
X4389299Y-11783086D01*
X4389299Y-11783086D02*
X4379775Y-11764038D01*
X4379775Y-11764038D02*
X4360727Y-11754514D01*
X4360727Y-11754514D02*
X4332156Y-11754514D01*
X4332156Y-11754514D02*
X4313108Y-11744991D01*
X4313108Y-11744991D02*
X4303585Y-11725943D01*
X4303585Y-11725943D02*
X4303585Y-11716419D01*
X4303585Y-11716419D02*
X4313108Y-11697372D01*
X4313108Y-11697372D02*
X4332156Y-11687848D01*
X4332156Y-11687848D02*
X4360727Y-11687848D01*
X4360727Y-11687848D02*
X4379775Y-11697372D01*
X4455966Y-11897372D02*
X4465489Y-11887848D01*
X4465489Y-11887848D02*
X4484537Y-11859276D01*
X4484537Y-11859276D02*
X4494061Y-11840229D01*
X4494061Y-11840229D02*
X4503585Y-11811657D01*
X4503585Y-11811657D02*
X4513108Y-11764038D01*
X4513108Y-11764038D02*
X4513108Y-11725943D01*
X4513108Y-11725943D02*
X4503585Y-11678324D01*
X4503585Y-11678324D02*
X4494061Y-11649753D01*
X4494061Y-11649753D02*
X4484537Y-11630705D01*
X4484537Y-11630705D02*
X4465489Y-11602133D01*
X4465489Y-11602133D02*
X4455966Y-11592610D01*
X4817870Y-11897372D02*
X4808347Y-11887848D01*
X4808347Y-11887848D02*
X4789299Y-11859276D01*
X4789299Y-11859276D02*
X4779775Y-11840229D01*
X4779775Y-11840229D02*
X4770251Y-11811657D01*
X4770251Y-11811657D02*
X4760728Y-11764038D01*
X4760728Y-11764038D02*
X4760728Y-11725943D01*
X4760728Y-11725943D02*
X4770251Y-11678324D01*
X4770251Y-11678324D02*
X4779775Y-11649753D01*
X4779775Y-11649753D02*
X4789299Y-11630705D01*
X4789299Y-11630705D02*
X4808347Y-11602133D01*
X4808347Y-11602133D02*
X4817870Y-11592610D01*
X4894061Y-11687848D02*
X4894061Y-11821181D01*
X4894061Y-11706895D02*
X4903585Y-11697372D01*
X4903585Y-11697372D02*
X4922632Y-11687848D01*
X4922632Y-11687848D02*
X4951204Y-11687848D01*
X4951204Y-11687848D02*
X4970251Y-11697372D01*
X4970251Y-11697372D02*
X4979775Y-11716419D01*
X4979775Y-11716419D02*
X4979775Y-11821181D01*
X5103585Y-11821181D02*
X5084537Y-11811657D01*
X5084537Y-11811657D02*
X5075013Y-11802133D01*
X5075013Y-11802133D02*
X5065489Y-11783086D01*
X5065489Y-11783086D02*
X5065489Y-11725943D01*
X5065489Y-11725943D02*
X5075013Y-11706895D01*
X5075013Y-11706895D02*
X5084537Y-11697372D01*
X5084537Y-11697372D02*
X5103585Y-11687848D01*
X5103585Y-11687848D02*
X5132156Y-11687848D01*
X5132156Y-11687848D02*
X5151204Y-11697372D01*
X5151204Y-11697372D02*
X5160728Y-11706895D01*
X5160728Y-11706895D02*
X5170251Y-11725943D01*
X5170251Y-11725943D02*
X5170251Y-11783086D01*
X5170251Y-11783086D02*
X5160728Y-11802133D01*
X5160728Y-11802133D02*
X5151204Y-11811657D01*
X5151204Y-11811657D02*
X5132156Y-11821181D01*
X5132156Y-11821181D02*
X5103585Y-11821181D01*
X5227394Y-11687848D02*
X5303585Y-11687848D01*
X5255966Y-11621181D02*
X5255966Y-11792610D01*
X5255966Y-11792610D02*
X5265489Y-11811657D01*
X5265489Y-11811657D02*
X5284537Y-11821181D01*
X5284537Y-11821181D02*
X5303585Y-11821181D01*
X5522632Y-11687848D02*
X5522632Y-11887848D01*
X5522632Y-11697372D02*
X5541680Y-11687848D01*
X5541680Y-11687848D02*
X5579775Y-11687848D01*
X5579775Y-11687848D02*
X5598823Y-11697372D01*
X5598823Y-11697372D02*
X5608347Y-11706895D01*
X5608347Y-11706895D02*
X5617870Y-11725943D01*
X5617870Y-11725943D02*
X5617870Y-11783086D01*
X5617870Y-11783086D02*
X5608347Y-11802133D01*
X5608347Y-11802133D02*
X5598823Y-11811657D01*
X5598823Y-11811657D02*
X5579775Y-11821181D01*
X5579775Y-11821181D02*
X5541680Y-11821181D01*
X5541680Y-11821181D02*
X5522632Y-11811657D01*
X5732156Y-11821181D02*
X5713108Y-11811657D01*
X5713108Y-11811657D02*
X5703585Y-11792610D01*
X5703585Y-11792610D02*
X5703585Y-11621181D01*
X5894061Y-11821181D02*
X5894061Y-11716419D01*
X5894061Y-11716419D02*
X5884537Y-11697372D01*
X5884537Y-11697372D02*
X5865489Y-11687848D01*
X5865489Y-11687848D02*
X5827394Y-11687848D01*
X5827394Y-11687848D02*
X5808347Y-11697372D01*
X5894061Y-11811657D02*
X5875013Y-11821181D01*
X5875013Y-11821181D02*
X5827394Y-11821181D01*
X5827394Y-11821181D02*
X5808347Y-11811657D01*
X5808347Y-11811657D02*
X5798823Y-11792610D01*
X5798823Y-11792610D02*
X5798823Y-11773562D01*
X5798823Y-11773562D02*
X5808347Y-11754514D01*
X5808347Y-11754514D02*
X5827394Y-11744991D01*
X5827394Y-11744991D02*
X5875013Y-11744991D01*
X5875013Y-11744991D02*
X5894061Y-11735467D01*
X5960728Y-11687848D02*
X6036918Y-11687848D01*
X5989299Y-11621181D02*
X5989299Y-11792610D01*
X5989299Y-11792610D02*
X5998823Y-11811657D01*
X5998823Y-11811657D02*
X6017870Y-11821181D01*
X6017870Y-11821181D02*
X6036918Y-11821181D01*
X6179775Y-11811657D02*
X6160728Y-11821181D01*
X6160728Y-11821181D02*
X6122632Y-11821181D01*
X6122632Y-11821181D02*
X6103585Y-11811657D01*
X6103585Y-11811657D02*
X6094061Y-11792610D01*
X6094061Y-11792610D02*
X6094061Y-11716419D01*
X6094061Y-11716419D02*
X6103585Y-11697372D01*
X6103585Y-11697372D02*
X6122632Y-11687848D01*
X6122632Y-11687848D02*
X6160728Y-11687848D01*
X6160728Y-11687848D02*
X6179775Y-11697372D01*
X6179775Y-11697372D02*
X6189299Y-11716419D01*
X6189299Y-11716419D02*
X6189299Y-11735467D01*
X6189299Y-11735467D02*
X6094061Y-11754514D01*
X6360728Y-11821181D02*
X6360728Y-11621181D01*
X6360728Y-11811657D02*
X6341680Y-11821181D01*
X6341680Y-11821181D02*
X6303585Y-11821181D01*
X6303585Y-11821181D02*
X6284537Y-11811657D01*
X6284537Y-11811657D02*
X6275013Y-11802133D01*
X6275013Y-11802133D02*
X6265489Y-11783086D01*
X6265489Y-11783086D02*
X6265489Y-11725943D01*
X6265489Y-11725943D02*
X6275013Y-11706895D01*
X6275013Y-11706895D02*
X6284537Y-11697372D01*
X6284537Y-11697372D02*
X6303585Y-11687848D01*
X6303585Y-11687848D02*
X6341680Y-11687848D01*
X6341680Y-11687848D02*
X6360728Y-11697372D01*
X6436918Y-11897372D02*
X6446442Y-11887848D01*
X6446442Y-11887848D02*
X6465489Y-11859276D01*
X6465489Y-11859276D02*
X6475013Y-11840229D01*
X6475013Y-11840229D02*
X6484537Y-11811657D01*
X6484537Y-11811657D02*
X6494061Y-11764038D01*
X6494061Y-11764038D02*
X6494061Y-11725943D01*
X6494061Y-11725943D02*
X6484537Y-11678324D01*
X6484537Y-11678324D02*
X6475013Y-11649753D01*
X6475013Y-11649753D02*
X6465489Y-11630705D01*
X6465489Y-11630705D02*
X6446442Y-11602133D01*
X6446442Y-11602133D02*
X6436918Y-11592610D01*
X-319097Y-11993697D02*
G75*
G02*
X-519097Y-11993697I-100000J0D01*
G01*
X-519097Y-11993697D02*
G75*
G02*
X-319097Y-11993697I100000J0D01*
G01*
X36918Y-11885181D02*
X-58320Y-11885181D01*
X-58320Y-11885181D02*
X-67844Y-11980419D01*
X-67844Y-11980419D02*
X-58320Y-11970895D01*
X-58320Y-11970895D02*
X-39273Y-11961372D01*
X-39273Y-11961372D02*
X8346Y-11961372D01*
X8346Y-11961372D02*
X27394Y-11970895D01*
X27394Y-11970895D02*
X36918Y-11980419D01*
X36918Y-11980419D02*
X46441Y-11999467D01*
X46441Y-11999467D02*
X46441Y-12047086D01*
X46441Y-12047086D02*
X36918Y-12066133D01*
X36918Y-12066133D02*
X27394Y-12075657D01*
X27394Y-12075657D02*
X8346Y-12085181D01*
X8346Y-12085181D02*
X-39273Y-12085181D01*
X-39273Y-12085181D02*
X-58320Y-12075657D01*
X-58320Y-12075657D02*
X-67844Y-12066133D01*
X132156Y-12066133D02*
X141679Y-12075657D01*
X141679Y-12075657D02*
X132156Y-12085181D01*
X132156Y-12085181D02*
X122632Y-12075657D01*
X122632Y-12075657D02*
X132156Y-12066133D01*
X132156Y-12066133D02*
X132156Y-12085181D01*
X265489Y-11885181D02*
X284537Y-11885181D01*
X284537Y-11885181D02*
X303584Y-11894705D01*
X303584Y-11894705D02*
X313108Y-11904229D01*
X313108Y-11904229D02*
X322632Y-11923276D01*
X322632Y-11923276D02*
X332156Y-11961372D01*
X332156Y-11961372D02*
X332156Y-12008991D01*
X332156Y-12008991D02*
X322632Y-12047086D01*
X322632Y-12047086D02*
X313108Y-12066133D01*
X313108Y-12066133D02*
X303584Y-12075657D01*
X303584Y-12075657D02*
X284537Y-12085181D01*
X284537Y-12085181D02*
X265489Y-12085181D01*
X265489Y-12085181D02*
X246441Y-12075657D01*
X246441Y-12075657D02*
X236917Y-12066133D01*
X236917Y-12066133D02*
X227394Y-12047086D01*
X227394Y-12047086D02*
X217870Y-12008991D01*
X217870Y-12008991D02*
X217870Y-11961372D01*
X217870Y-11961372D02*
X227394Y-11923276D01*
X227394Y-11923276D02*
X236917Y-11904229D01*
X236917Y-11904229D02*
X246441Y-11894705D01*
X246441Y-11894705D02*
X265489Y-11885181D01*
X455965Y-11885181D02*
X475013Y-11885181D01*
X475013Y-11885181D02*
X494060Y-11894705D01*
X494060Y-11894705D02*
X503584Y-11904229D01*
X503584Y-11904229D02*
X513108Y-11923276D01*
X513108Y-11923276D02*
X522632Y-11961372D01*
X522632Y-11961372D02*
X522632Y-12008991D01*
X522632Y-12008991D02*
X513108Y-12047086D01*
X513108Y-12047086D02*
X503584Y-12066133D01*
X503584Y-12066133D02*
X494060Y-12075657D01*
X494060Y-12075657D02*
X475013Y-12085181D01*
X475013Y-12085181D02*
X455965Y-12085181D01*
X455965Y-12085181D02*
X436917Y-12075657D01*
X436917Y-12075657D02*
X427394Y-12066133D01*
X427394Y-12066133D02*
X417870Y-12047086D01*
X417870Y-12047086D02*
X408346Y-12008991D01*
X408346Y-12008991D02*
X408346Y-11961372D01*
X408346Y-11961372D02*
X417870Y-11923276D01*
X417870Y-11923276D02*
X427394Y-11904229D01*
X427394Y-11904229D02*
X436917Y-11894705D01*
X436917Y-11894705D02*
X455965Y-11885181D01*
X646441Y-11885181D02*
X665489Y-11885181D01*
X665489Y-11885181D02*
X684537Y-11894705D01*
X684537Y-11894705D02*
X694060Y-11904229D01*
X694060Y-11904229D02*
X703584Y-11923276D01*
X703584Y-11923276D02*
X713108Y-11961372D01*
X713108Y-11961372D02*
X713108Y-12008991D01*
X713108Y-12008991D02*
X703584Y-12047086D01*
X703584Y-12047086D02*
X694060Y-12066133D01*
X694060Y-12066133D02*
X684537Y-12075657D01*
X684537Y-12075657D02*
X665489Y-12085181D01*
X665489Y-12085181D02*
X646441Y-12085181D01*
X646441Y-12085181D02*
X627394Y-12075657D01*
X627394Y-12075657D02*
X617870Y-12066133D01*
X617870Y-12066133D02*
X608346Y-12047086D01*
X608346Y-12047086D02*
X598822Y-12008991D01*
X598822Y-12008991D02*
X598822Y-11961372D01*
X598822Y-11961372D02*
X608346Y-11923276D01*
X608346Y-11923276D02*
X617870Y-11904229D01*
X617870Y-11904229D02*
X627394Y-11894705D01*
X627394Y-11894705D02*
X646441Y-11885181D01*
X798822Y-12085181D02*
X798822Y-11951848D01*
X798822Y-11970895D02*
X808346Y-11961372D01*
X808346Y-11961372D02*
X827394Y-11951848D01*
X827394Y-11951848D02*
X855965Y-11951848D01*
X855965Y-11951848D02*
X875013Y-11961372D01*
X875013Y-11961372D02*
X884537Y-11980419D01*
X884537Y-11980419D02*
X884537Y-12085181D01*
X884537Y-11980419D02*
X894060Y-11961372D01*
X894060Y-11961372D02*
X913108Y-11951848D01*
X913108Y-11951848D02*
X941679Y-11951848D01*
X941679Y-11951848D02*
X960727Y-11961372D01*
X960727Y-11961372D02*
X970251Y-11980419D01*
X970251Y-11980419D02*
X970251Y-12085181D01*
X1065489Y-12085181D02*
X1065489Y-11951848D01*
X1065489Y-11970895D02*
X1075013Y-11961372D01*
X1075013Y-11961372D02*
X1094060Y-11951848D01*
X1094060Y-11951848D02*
X1122632Y-11951848D01*
X1122632Y-11951848D02*
X1141680Y-11961372D01*
X1141680Y-11961372D02*
X1151203Y-11980419D01*
X1151203Y-11980419D02*
X1151203Y-12085181D01*
X1151203Y-11980419D02*
X1160727Y-11961372D01*
X1160727Y-11961372D02*
X1179775Y-11951848D01*
X1179775Y-11951848D02*
X1208346Y-11951848D01*
X1208346Y-11951848D02*
X1227394Y-11961372D01*
X1227394Y-11961372D02*
X1236918Y-11980419D01*
X1236918Y-11980419D02*
X1236918Y-12085181D01*
X1627394Y-11875657D02*
X1455965Y-12132800D01*
X1884537Y-11885181D02*
X1903584Y-11885181D01*
X1903584Y-11885181D02*
X1922632Y-11894705D01*
X1922632Y-11894705D02*
X1932156Y-11904229D01*
X1932156Y-11904229D02*
X1941680Y-11923276D01*
X1941680Y-11923276D02*
X1951203Y-11961372D01*
X1951203Y-11961372D02*
X1951203Y-12008991D01*
X1951203Y-12008991D02*
X1941680Y-12047086D01*
X1941680Y-12047086D02*
X1932156Y-12066133D01*
X1932156Y-12066133D02*
X1922632Y-12075657D01*
X1922632Y-12075657D02*
X1903584Y-12085181D01*
X1903584Y-12085181D02*
X1884537Y-12085181D01*
X1884537Y-12085181D02*
X1865489Y-12075657D01*
X1865489Y-12075657D02*
X1855965Y-12066133D01*
X1855965Y-12066133D02*
X1846441Y-12047086D01*
X1846441Y-12047086D02*
X1836918Y-12008991D01*
X1836918Y-12008991D02*
X1836918Y-11961372D01*
X1836918Y-11961372D02*
X1846441Y-11923276D01*
X1846441Y-11923276D02*
X1855965Y-11904229D01*
X1855965Y-11904229D02*
X1865489Y-11894705D01*
X1865489Y-11894705D02*
X1884537Y-11885181D01*
X2036918Y-12066133D02*
X2046441Y-12075657D01*
X2046441Y-12075657D02*
X2036918Y-12085181D01*
X2036918Y-12085181D02*
X2027394Y-12075657D01*
X2027394Y-12075657D02*
X2036918Y-12066133D01*
X2036918Y-12066133D02*
X2036918Y-12085181D01*
X2236918Y-12085181D02*
X2122632Y-12085181D01*
X2179775Y-12085181D02*
X2179775Y-11885181D01*
X2179775Y-11885181D02*
X2160727Y-11913753D01*
X2160727Y-11913753D02*
X2141680Y-11932800D01*
X2141680Y-11932800D02*
X2122632Y-11942324D01*
X2332156Y-12085181D02*
X2370251Y-12085181D01*
X2370251Y-12085181D02*
X2389299Y-12075657D01*
X2389299Y-12075657D02*
X2398823Y-12066133D01*
X2398823Y-12066133D02*
X2417870Y-12037562D01*
X2417870Y-12037562D02*
X2427394Y-11999467D01*
X2427394Y-11999467D02*
X2427394Y-11923276D01*
X2427394Y-11923276D02*
X2417870Y-11904229D01*
X2417870Y-11904229D02*
X2408346Y-11894705D01*
X2408346Y-11894705D02*
X2389299Y-11885181D01*
X2389299Y-11885181D02*
X2351203Y-11885181D01*
X2351203Y-11885181D02*
X2332156Y-11894705D01*
X2332156Y-11894705D02*
X2322632Y-11904229D01*
X2322632Y-11904229D02*
X2313108Y-11923276D01*
X2313108Y-11923276D02*
X2313108Y-11970895D01*
X2313108Y-11970895D02*
X2322632Y-11989943D01*
X2322632Y-11989943D02*
X2332156Y-11999467D01*
X2332156Y-11999467D02*
X2351203Y-12008991D01*
X2351203Y-12008991D02*
X2389299Y-12008991D01*
X2389299Y-12008991D02*
X2408346Y-11999467D01*
X2408346Y-11999467D02*
X2417870Y-11989943D01*
X2417870Y-11989943D02*
X2427394Y-11970895D01*
X2598823Y-11885181D02*
X2560727Y-11885181D01*
X2560727Y-11885181D02*
X2541680Y-11894705D01*
X2541680Y-11894705D02*
X2532156Y-11904229D01*
X2532156Y-11904229D02*
X2513108Y-11932800D01*
X2513108Y-11932800D02*
X2503584Y-11970895D01*
X2503584Y-11970895D02*
X2503584Y-12047086D01*
X2503584Y-12047086D02*
X2513108Y-12066133D01*
X2513108Y-12066133D02*
X2522632Y-12075657D01*
X2522632Y-12075657D02*
X2541680Y-12085181D01*
X2541680Y-12085181D02*
X2579775Y-12085181D01*
X2579775Y-12085181D02*
X2598823Y-12075657D01*
X2598823Y-12075657D02*
X2608346Y-12066133D01*
X2608346Y-12066133D02*
X2617870Y-12047086D01*
X2617870Y-12047086D02*
X2617870Y-11999467D01*
X2617870Y-11999467D02*
X2608346Y-11980419D01*
X2608346Y-11980419D02*
X2598823Y-11970895D01*
X2598823Y-11970895D02*
X2579775Y-11961372D01*
X2579775Y-11961372D02*
X2541680Y-11961372D01*
X2541680Y-11961372D02*
X2522632Y-11970895D01*
X2522632Y-11970895D02*
X2513108Y-11980419D01*
X2513108Y-11980419D02*
X2503584Y-11999467D01*
X2713108Y-12085181D02*
X2751203Y-12085181D01*
X2751203Y-12085181D02*
X2770251Y-12075657D01*
X2770251Y-12075657D02*
X2779775Y-12066133D01*
X2779775Y-12066133D02*
X2798822Y-12037562D01*
X2798822Y-12037562D02*
X2808346Y-11999467D01*
X2808346Y-11999467D02*
X2808346Y-11923276D01*
X2808346Y-11923276D02*
X2798822Y-11904229D01*
X2798822Y-11904229D02*
X2789299Y-11894705D01*
X2789299Y-11894705D02*
X2770251Y-11885181D01*
X2770251Y-11885181D02*
X2732156Y-11885181D01*
X2732156Y-11885181D02*
X2713108Y-11894705D01*
X2713108Y-11894705D02*
X2703584Y-11904229D01*
X2703584Y-11904229D02*
X2694061Y-11923276D01*
X2694061Y-11923276D02*
X2694061Y-11970895D01*
X2694061Y-11970895D02*
X2703584Y-11989943D01*
X2703584Y-11989943D02*
X2713108Y-11999467D01*
X2713108Y-11999467D02*
X2732156Y-12008991D01*
X2732156Y-12008991D02*
X2770251Y-12008991D01*
X2770251Y-12008991D02*
X2789299Y-11999467D01*
X2789299Y-11999467D02*
X2798822Y-11989943D01*
X2798822Y-11989943D02*
X2808346Y-11970895D01*
X2884537Y-11885181D02*
X2884537Y-11923276D01*
X2960727Y-11885181D02*
X2960727Y-11923276D01*
X3255965Y-12161372D02*
X3246442Y-12151848D01*
X3246442Y-12151848D02*
X3227394Y-12123276D01*
X3227394Y-12123276D02*
X3217870Y-12104229D01*
X3217870Y-12104229D02*
X3208346Y-12075657D01*
X3208346Y-12075657D02*
X3198823Y-12028038D01*
X3198823Y-12028038D02*
X3198823Y-11989943D01*
X3198823Y-11989943D02*
X3208346Y-11942324D01*
X3208346Y-11942324D02*
X3217870Y-11913753D01*
X3217870Y-11913753D02*
X3227394Y-11894705D01*
X3227394Y-11894705D02*
X3246442Y-11866133D01*
X3246442Y-11866133D02*
X3255965Y-11856610D01*
X3417870Y-11885181D02*
X3379775Y-11885181D01*
X3379775Y-11885181D02*
X3360727Y-11894705D01*
X3360727Y-11894705D02*
X3351203Y-11904229D01*
X3351203Y-11904229D02*
X3332156Y-11932800D01*
X3332156Y-11932800D02*
X3322632Y-11970895D01*
X3322632Y-11970895D02*
X3322632Y-12047086D01*
X3322632Y-12047086D02*
X3332156Y-12066133D01*
X3332156Y-12066133D02*
X3341680Y-12075657D01*
X3341680Y-12075657D02*
X3360727Y-12085181D01*
X3360727Y-12085181D02*
X3398823Y-12085181D01*
X3398823Y-12085181D02*
X3417870Y-12075657D01*
X3417870Y-12075657D02*
X3427394Y-12066133D01*
X3427394Y-12066133D02*
X3436918Y-12047086D01*
X3436918Y-12047086D02*
X3436918Y-11999467D01*
X3436918Y-11999467D02*
X3427394Y-11980419D01*
X3427394Y-11980419D02*
X3417870Y-11970895D01*
X3417870Y-11970895D02*
X3398823Y-11961372D01*
X3398823Y-11961372D02*
X3360727Y-11961372D01*
X3360727Y-11961372D02*
X3341680Y-11970895D01*
X3341680Y-11970895D02*
X3332156Y-11980419D01*
X3332156Y-11980419D02*
X3322632Y-11999467D01*
X3560727Y-11885181D02*
X3579775Y-11885181D01*
X3579775Y-11885181D02*
X3598823Y-11894705D01*
X3598823Y-11894705D02*
X3608346Y-11904229D01*
X3608346Y-11904229D02*
X3617870Y-11923276D01*
X3617870Y-11923276D02*
X3627394Y-11961372D01*
X3627394Y-11961372D02*
X3627394Y-12008991D01*
X3627394Y-12008991D02*
X3617870Y-12047086D01*
X3617870Y-12047086D02*
X3608346Y-12066133D01*
X3608346Y-12066133D02*
X3598823Y-12075657D01*
X3598823Y-12075657D02*
X3579775Y-12085181D01*
X3579775Y-12085181D02*
X3560727Y-12085181D01*
X3560727Y-12085181D02*
X3541680Y-12075657D01*
X3541680Y-12075657D02*
X3532156Y-12066133D01*
X3532156Y-12066133D02*
X3522632Y-12047086D01*
X3522632Y-12047086D02*
X3513108Y-12008991D01*
X3513108Y-12008991D02*
X3513108Y-11961372D01*
X3513108Y-11961372D02*
X3522632Y-11923276D01*
X3522632Y-11923276D02*
X3532156Y-11904229D01*
X3532156Y-11904229D02*
X3541680Y-11894705D01*
X3541680Y-11894705D02*
X3560727Y-11885181D01*
X3865489Y-12085181D02*
X3865489Y-11885181D01*
X3951204Y-12085181D02*
X3951204Y-11980419D01*
X3951204Y-11980419D02*
X3941680Y-11961372D01*
X3941680Y-11961372D02*
X3922632Y-11951848D01*
X3922632Y-11951848D02*
X3894061Y-11951848D01*
X3894061Y-11951848D02*
X3875013Y-11961372D01*
X3875013Y-11961372D02*
X3865489Y-11970895D01*
X4075013Y-12085181D02*
X4055965Y-12075657D01*
X4055965Y-12075657D02*
X4046442Y-12066133D01*
X4046442Y-12066133D02*
X4036918Y-12047086D01*
X4036918Y-12047086D02*
X4036918Y-11989943D01*
X4036918Y-11989943D02*
X4046442Y-11970895D01*
X4046442Y-11970895D02*
X4055965Y-11961372D01*
X4055965Y-11961372D02*
X4075013Y-11951848D01*
X4075013Y-11951848D02*
X4103585Y-11951848D01*
X4103585Y-11951848D02*
X4122632Y-11961372D01*
X4122632Y-11961372D02*
X4132156Y-11970895D01*
X4132156Y-11970895D02*
X4141680Y-11989943D01*
X4141680Y-11989943D02*
X4141680Y-12047086D01*
X4141680Y-12047086D02*
X4132156Y-12066133D01*
X4132156Y-12066133D02*
X4122632Y-12075657D01*
X4122632Y-12075657D02*
X4103585Y-12085181D01*
X4103585Y-12085181D02*
X4075013Y-12085181D01*
X4255966Y-12085181D02*
X4236918Y-12075657D01*
X4236918Y-12075657D02*
X4227394Y-12056610D01*
X4227394Y-12056610D02*
X4227394Y-11885181D01*
X4408347Y-12075657D02*
X4389299Y-12085181D01*
X4389299Y-12085181D02*
X4351204Y-12085181D01*
X4351204Y-12085181D02*
X4332156Y-12075657D01*
X4332156Y-12075657D02*
X4322632Y-12056610D01*
X4322632Y-12056610D02*
X4322632Y-11980419D01*
X4322632Y-11980419D02*
X4332156Y-11961372D01*
X4332156Y-11961372D02*
X4351204Y-11951848D01*
X4351204Y-11951848D02*
X4389299Y-11951848D01*
X4389299Y-11951848D02*
X4408347Y-11961372D01*
X4408347Y-11961372D02*
X4417870Y-11980419D01*
X4417870Y-11980419D02*
X4417870Y-11999467D01*
X4417870Y-11999467D02*
X4322632Y-12018514D01*
X4494061Y-12075657D02*
X4513108Y-12085181D01*
X4513108Y-12085181D02*
X4551204Y-12085181D01*
X4551204Y-12085181D02*
X4570251Y-12075657D01*
X4570251Y-12075657D02*
X4579775Y-12056610D01*
X4579775Y-12056610D02*
X4579775Y-12047086D01*
X4579775Y-12047086D02*
X4570251Y-12028038D01*
X4570251Y-12028038D02*
X4551204Y-12018514D01*
X4551204Y-12018514D02*
X4522632Y-12018514D01*
X4522632Y-12018514D02*
X4503585Y-12008991D01*
X4503585Y-12008991D02*
X4494061Y-11989943D01*
X4494061Y-11989943D02*
X4494061Y-11980419D01*
X4494061Y-11980419D02*
X4503585Y-11961372D01*
X4503585Y-11961372D02*
X4522632Y-11951848D01*
X4522632Y-11951848D02*
X4551204Y-11951848D01*
X4551204Y-11951848D02*
X4570251Y-11961372D01*
X4646442Y-12161372D02*
X4655966Y-12151848D01*
X4655966Y-12151848D02*
X4675013Y-12123276D01*
X4675013Y-12123276D02*
X4684537Y-12104229D01*
X4684537Y-12104229D02*
X4694061Y-12075657D01*
X4694061Y-12075657D02*
X4703585Y-12028038D01*
X4703585Y-12028038D02*
X4703585Y-11989943D01*
X4703585Y-11989943D02*
X4694061Y-11942324D01*
X4694061Y-11942324D02*
X4684537Y-11913753D01*
X4684537Y-11913753D02*
X4675013Y-11894705D01*
X4675013Y-11894705D02*
X4655966Y-11866133D01*
X4655966Y-11866133D02*
X4646442Y-11856610D01*
X5008347Y-12161372D02*
X4998823Y-12151848D01*
X4998823Y-12151848D02*
X4979775Y-12123276D01*
X4979775Y-12123276D02*
X4970251Y-12104229D01*
X4970251Y-12104229D02*
X4960728Y-12075657D01*
X4960728Y-12075657D02*
X4951204Y-12028038D01*
X4951204Y-12028038D02*
X4951204Y-11989943D01*
X4951204Y-11989943D02*
X4960728Y-11942324D01*
X4960728Y-11942324D02*
X4970251Y-11913753D01*
X4970251Y-11913753D02*
X4979775Y-11894705D01*
X4979775Y-11894705D02*
X4998823Y-11866133D01*
X4998823Y-11866133D02*
X5008347Y-11856610D01*
X5084537Y-11951848D02*
X5084537Y-12085181D01*
X5084537Y-11970895D02*
X5094061Y-11961372D01*
X5094061Y-11961372D02*
X5113108Y-11951848D01*
X5113108Y-11951848D02*
X5141680Y-11951848D01*
X5141680Y-11951848D02*
X5160728Y-11961372D01*
X5160728Y-11961372D02*
X5170251Y-11980419D01*
X5170251Y-11980419D02*
X5170251Y-12085181D01*
X5294061Y-12085181D02*
X5275013Y-12075657D01*
X5275013Y-12075657D02*
X5265489Y-12066133D01*
X5265489Y-12066133D02*
X5255966Y-12047086D01*
X5255966Y-12047086D02*
X5255966Y-11989943D01*
X5255966Y-11989943D02*
X5265489Y-11970895D01*
X5265489Y-11970895D02*
X5275013Y-11961372D01*
X5275013Y-11961372D02*
X5294061Y-11951848D01*
X5294061Y-11951848D02*
X5322632Y-11951848D01*
X5322632Y-11951848D02*
X5341680Y-11961372D01*
X5341680Y-11961372D02*
X5351204Y-11970895D01*
X5351204Y-11970895D02*
X5360728Y-11989943D01*
X5360728Y-11989943D02*
X5360728Y-12047086D01*
X5360728Y-12047086D02*
X5351204Y-12066133D01*
X5351204Y-12066133D02*
X5341680Y-12075657D01*
X5341680Y-12075657D02*
X5322632Y-12085181D01*
X5322632Y-12085181D02*
X5294061Y-12085181D01*
X5417870Y-11951848D02*
X5494061Y-11951848D01*
X5446442Y-11885181D02*
X5446442Y-12056610D01*
X5446442Y-12056610D02*
X5455966Y-12075657D01*
X5455966Y-12075657D02*
X5475013Y-12085181D01*
X5475013Y-12085181D02*
X5494061Y-12085181D01*
X5713108Y-11951848D02*
X5713108Y-12151848D01*
X5713108Y-11961372D02*
X5732156Y-11951848D01*
X5732156Y-11951848D02*
X5770251Y-11951848D01*
X5770251Y-11951848D02*
X5789299Y-11961372D01*
X5789299Y-11961372D02*
X5798823Y-11970895D01*
X5798823Y-11970895D02*
X5808347Y-11989943D01*
X5808347Y-11989943D02*
X5808347Y-12047086D01*
X5808347Y-12047086D02*
X5798823Y-12066133D01*
X5798823Y-12066133D02*
X5789299Y-12075657D01*
X5789299Y-12075657D02*
X5770251Y-12085181D01*
X5770251Y-12085181D02*
X5732156Y-12085181D01*
X5732156Y-12085181D02*
X5713108Y-12075657D01*
X5922632Y-12085181D02*
X5903585Y-12075657D01*
X5903585Y-12075657D02*
X5894061Y-12056610D01*
X5894061Y-12056610D02*
X5894061Y-11885181D01*
X6084537Y-12085181D02*
X6084537Y-11980419D01*
X6084537Y-11980419D02*
X6075013Y-11961372D01*
X6075013Y-11961372D02*
X6055966Y-11951848D01*
X6055966Y-11951848D02*
X6017870Y-11951848D01*
X6017870Y-11951848D02*
X5998823Y-11961372D01*
X6084537Y-12075657D02*
X6065489Y-12085181D01*
X6065489Y-12085181D02*
X6017870Y-12085181D01*
X6017870Y-12085181D02*
X5998823Y-12075657D01*
X5998823Y-12075657D02*
X5989299Y-12056610D01*
X5989299Y-12056610D02*
X5989299Y-12037562D01*
X5989299Y-12037562D02*
X5998823Y-12018514D01*
X5998823Y-12018514D02*
X6017870Y-12008991D01*
X6017870Y-12008991D02*
X6065489Y-12008991D01*
X6065489Y-12008991D02*
X6084537Y-11999467D01*
X6151204Y-11951848D02*
X6227394Y-11951848D01*
X6179775Y-11885181D02*
X6179775Y-12056610D01*
X6179775Y-12056610D02*
X6189299Y-12075657D01*
X6189299Y-12075657D02*
X6208347Y-12085181D01*
X6208347Y-12085181D02*
X6227394Y-12085181D01*
X6370251Y-12075657D02*
X6351204Y-12085181D01*
X6351204Y-12085181D02*
X6313108Y-12085181D01*
X6313108Y-12085181D02*
X6294061Y-12075657D01*
X6294061Y-12075657D02*
X6284537Y-12056610D01*
X6284537Y-12056610D02*
X6284537Y-11980419D01*
X6284537Y-11980419D02*
X6294061Y-11961372D01*
X6294061Y-11961372D02*
X6313108Y-11951848D01*
X6313108Y-11951848D02*
X6351204Y-11951848D01*
X6351204Y-11951848D02*
X6370251Y-11961372D01*
X6370251Y-11961372D02*
X6379775Y-11980419D01*
X6379775Y-11980419D02*
X6379775Y-11999467D01*
X6379775Y-11999467D02*
X6284537Y-12018514D01*
X6551204Y-12085181D02*
X6551204Y-11885181D01*
X6551204Y-12075657D02*
X6532156Y-12085181D01*
X6532156Y-12085181D02*
X6494061Y-12085181D01*
X6494061Y-12085181D02*
X6475013Y-12075657D01*
X6475013Y-12075657D02*
X6465489Y-12066133D01*
X6465489Y-12066133D02*
X6455966Y-12047086D01*
X6455966Y-12047086D02*
X6455966Y-11989943D01*
X6455966Y-11989943D02*
X6465489Y-11970895D01*
X6465489Y-11970895D02*
X6475013Y-11961372D01*
X6475013Y-11961372D02*
X6494061Y-11951848D01*
X6494061Y-11951848D02*
X6532156Y-11951848D01*
X6532156Y-11951848D02*
X6551204Y-11961372D01*
X6627394Y-12161372D02*
X6636918Y-12151848D01*
X6636918Y-12151848D02*
X6655966Y-12123276D01*
X6655966Y-12123276D02*
X6665489Y-12104229D01*
X6665489Y-12104229D02*
X6675013Y-12075657D01*
X6675013Y-12075657D02*
X6684537Y-12028038D01*
X6684537Y-12028038D02*
X6684537Y-11989943D01*
X6684537Y-11989943D02*
X6675013Y-11942324D01*
X6675013Y-11942324D02*
X6665489Y-11913753D01*
X6665489Y-11913753D02*
X6655966Y-11894705D01*
X6655966Y-11894705D02*
X6636918Y-11866133D01*
X6636918Y-11866133D02*
X6627394Y-11856610D01*
M02*
