M48
; DRILL file {KiCad 8.0.7} date 2025-01-18T13:07:15-0600
; FORMAT={-:-/ absolute / inch / decimal}
; #@! TF.CreationDate,2025-01-18T13:07:15-06:00
; #@! TF.GenerationSoftware,Kicad,Pcbnew,8.0.7
; #@! TF.FileFunction,Plated,1,2,PTH
FMAT,2
INCH
; #@! TA.AperFunction,Plated,PTH,ViaDrill
T1C0.0157
; #@! TA.AperFunction,Plated,PTH,ComponentDrill
T2C0.0236
; #@! TA.AperFunction,Plated,PTH,ComponentDrill
T3C0.0394
%
G90
G05
T1
X0.1855Y-2.9945
X0.23Y-2.765
X0.275Y-3.04
X0.3Y-3.178
X0.3Y-3.21
X0.3Y-3.2461
X0.3125Y-0.6875
X0.408Y-3.176
X0.415Y-1.265
X0.416Y-3.216
X0.435Y-3.485
X0.475Y-3.37
X0.49Y-0.17
X0.54Y-0.1
X0.558Y-3.098
X0.5622Y-2.9802
X0.57Y-3.5711
X0.594Y-2.98
X0.5965Y-3.4755
X0.622Y-2.98
X0.634Y-3.064
X0.645Y-3.48
X0.65Y-0.17
X0.658Y-2.98
X0.66Y0.16
X0.685Y-2.9489
X0.705Y-2.03
X0.715Y-0.64
X0.73Y0.08
X0.735Y-2.57
X0.7889Y-0.23
X0.798Y-2.938
X0.8Y0.16
X0.813Y-0.5041
X0.813Y-0.5852
X0.813Y-2.655
X0.82Y-0.17
X0.82Y-3.04
X0.85Y-3.465
X0.8511Y-0.195
X0.86Y-1.095
X0.865Y-0.495
X0.865Y-0.565
X0.87Y-3.33
X0.895Y-0.645
X0.9Y-1.0
X0.92Y-3.4934
X0.93Y-0.1
X0.95Y-1.05
X1.01Y-0.95
X1.01Y-1.02
X1.0173Y-2.5777
X1.03Y-3.15
X1.055Y-3.255
X1.0973Y-3.4127
X1.195Y-0.99
X1.26Y-3.13
X1.2624Y-3.2244
X1.265Y-2.785
X1.266Y-3.184
X1.36Y-1.265
X1.41Y-0.24
X1.66Y-0.635
X1.895Y-2.905
X1.925Y-2.015
X1.95Y-2.9124
X2.04Y-3.6
X2.105Y-1.28
X2.245Y-3.0758
X2.305Y-2.775
X2.41Y-0.635
X2.675Y-2.01
X2.86Y-1.28
X3.01Y-3.0581
X3.045Y-2.775
X3.045Y-3.53
X3.145Y-0.645
X3.425Y-2.025
X3.59Y-3.0404
X3.61Y-1.27
X3.8Y-2.78
X3.9Y-0.635
X4.17Y-2.035
X4.355Y-1.28
X4.5433Y-3.0657
X4.55Y-2.78
X4.64Y-3.525
X4.645Y-0.63
X4.925Y-2.02
X5.035Y-3.0404
X5.105Y-1.27
X5.3Y-2.775
X5.395Y-0.64
X5.675Y-2.015
X5.855Y-1.28
X6.05Y-2.77
X6.05Y-3.185
X6.05Y-3.51
X6.145Y-0.64
X6.425Y-2.02
X6.615Y-1.265
X6.8Y-2.78
X6.8Y-3.1046
X6.895Y-0.64
X7.17Y-2.025
X7.27Y-3.515
X7.355Y-1.27
X7.555Y-2.765
X7.655Y-0.635
X7.925Y-2.01
X8.08Y-1.28
X8.305Y-2.77
X8.395Y-0.635
X8.625Y-3.515
X8.67Y-2.0
X8.84Y-1.275
X9.055Y-2.76
X9.145Y-0.63
X9.42Y-2.025
X9.585Y-3.525
X9.605Y-1.285
X9.905Y-0.63
X10.255Y-2.99
X10.27Y-2.765
X10.455Y-2.015
X10.54Y-1.275
X10.65Y-0.635
T3
X1.575Y-3.07
X1.575Y-3.17
X1.575Y-3.27
X1.675Y-3.07
X1.675Y-3.17
X1.675Y-3.27
T2
G00X0.5648Y0.1278
M15
G01X0.5648Y0.1514
M16
G05
G00X0.5648Y-0.0467
M15
G01X0.5648Y-0.0033
M16
G05
G00X0.905Y0.1278
M15
G01X0.905Y0.1514
M16
G05
G00X0.905Y-0.0467
M15
G01X0.905Y-0.0033
M16
G05
M30
