M48
; DRILL file {KiCad 8.0.7} date 2025-01-15T11:07:48-0600
; FORMAT={-:-/ absolute / inch / decimal}
; #@! TF.CreationDate,2025-01-15T11:07:48-06:00
; #@! TF.GenerationSoftware,Kicad,Pcbnew,8.0.7
; #@! TF.FileFunction,NonPlated,1,2,NPTH
FMAT,2
INCH
; #@! TA.AperFunction,NonPlated,NPTH,ComponentDrill
T1C0.0256
; #@! TA.AperFunction,NonPlated,NPTH,ComponentDrill
T2C0.1969
%
G90
G05
T1
X10.2012Y-0.6006
X10.4288Y-0.6006
T2
X0.25Y-0.943
X0.25Y-3.2032
X0.4375Y-1.7028
X0.7281Y-2.4528
X1.0Y-0.943
X1.284Y-3.2032
X1.375Y-1.7028
X1.75Y-0.943
X1.9375Y-2.4532
X2.125Y-1.7028
X2.1374Y-3.9742
X2.3125Y-3.2028
X2.5Y-0.943
X2.6875Y-2.4532
X2.875Y-1.7028
X3.0625Y-3.2028
X3.0938Y-3.9742
X3.25Y-0.943
X3.4403Y-2.4532
X3.625Y-1.7028
X3.8125Y-3.2028
X4.0124Y-0.943
X4.1875Y-2.4532
X4.375Y-1.7028
X4.5625Y-3.2028
X4.7624Y-0.943
X4.9375Y-2.4532
X5.125Y-1.7028
X5.3125Y-3.2028
X5.5124Y-0.943
X5.6875Y-2.4532
X5.875Y-1.7028
X5.875Y-3.9688
X6.0625Y-3.2028
X6.2594Y-0.943
X6.4375Y-2.4532
X6.625Y-1.7028
X6.8125Y-3.2028
X7.0094Y-0.943
X7.1904Y-2.4524
X7.375Y-1.7028
X7.5625Y-3.2028
X7.7624Y-0.943
X7.9403Y-2.4532
X8.125Y-1.7028
X8.3125Y-3.2028
X8.5094Y-0.943
X8.6875Y-2.4528
X8.875Y-1.7028
X8.875Y-3.9688
X9.0719Y-3.2028
X9.2624Y-0.943
X9.4375Y-2.4528
X9.625Y-1.7028
X9.8125Y-3.9688
X10.0124Y-0.943
X10.2906Y-3.2028
X10.4781Y-2.4528
X10.5719Y-1.7028
X10.7594Y-0.943
M30
