%TF.GenerationSoftware,KiCad,Pcbnew,8.0.7*%
%TF.CreationDate,2025-01-14T15:22:23-06:00*%
%TF.ProjectId,boethia60,626f6574-6869-4613-9630-2e6b69636164,rev?*%
%TF.SameCoordinates,Original*%
%TF.FileFunction,Paste,Top*%
%TF.FilePolarity,Positive*%
%FSLAX46Y46*%
G04 Gerber Fmt 4.6, Leading zero omitted, Abs format (unit mm)*
G04 Created by KiCad (PCBNEW 8.0.7) date 2025-01-14 15:22:23*
%MOMM*%
%LPD*%
G01*
G04 APERTURE LIST*
G04 Aperture macros list*
%AMRoundRect*
0 Rectangle with rounded corners*
0 $1 Rounding radius*
0 $2 $3 $4 $5 $6 $7 $8 $9 X,Y pos of 4 corners*
0 Add a 4 corners polygon primitive as box body*
4,1,4,$2,$3,$4,$5,$6,$7,$8,$9,$2,$3,0*
0 Add four circle primitives for the rounded corners*
1,1,$1+$1,$2,$3*
1,1,$1+$1,$4,$5*
1,1,$1+$1,$6,$7*
1,1,$1+$1,$8,$9*
0 Add four rect primitives between the rounded corners*
20,1,$1+$1,$2,$3,$4,$5,0*
20,1,$1+$1,$4,$5,$6,$7,0*
20,1,$1+$1,$6,$7,$8,$9,0*
20,1,$1+$1,$8,$9,$2,$3,0*%
G04 Aperture macros list end*
%ADD10RoundRect,0.135000X0.185000X-0.135000X0.185000X0.135000X-0.185000X0.135000X-0.185000X-0.135000X0*%
%ADD11RoundRect,0.135000X-0.135000X-0.185000X0.135000X-0.185000X0.135000X0.185000X-0.135000X0.185000X0*%
%ADD12RoundRect,0.135000X0.135000X0.185000X-0.135000X0.185000X-0.135000X-0.185000X0.135000X-0.185000X0*%
%ADD13RoundRect,0.243750X-0.456250X0.243750X-0.456250X-0.243750X0.456250X-0.243750X0.456250X0.243750X0*%
%ADD14RoundRect,0.150000X-0.200000X0.150000X-0.200000X-0.150000X0.200000X-0.150000X0.200000X0.150000X0*%
%ADD15RoundRect,0.218750X-0.218750X-0.256250X0.218750X-0.256250X0.218750X0.256250X-0.218750X0.256250X0*%
%ADD16RoundRect,0.260000X-1.065000X-1.040000X1.065000X-1.040000X1.065000X1.040000X-1.065000X1.040000X0*%
%ADD17RoundRect,0.140000X-0.140000X-0.170000X0.140000X-0.170000X0.140000X0.170000X-0.140000X0.170000X0*%
%ADD18RoundRect,0.140000X-0.170000X0.140000X-0.170000X-0.140000X0.170000X-0.140000X0.170000X0.140000X0*%
%ADD19RoundRect,0.140000X0.170000X-0.140000X0.170000X0.140000X-0.170000X0.140000X-0.170000X-0.140000X0*%
%ADD20RoundRect,0.249999X-0.395001X0.395001X-0.395001X-0.395001X0.395001X-0.395001X0.395001X0.395001X0*%
%ADD21RoundRect,0.050000X-0.050000X0.387500X-0.050000X-0.387500X0.050000X-0.387500X0.050000X0.387500X0*%
%ADD22RoundRect,0.050000X-0.387500X0.050000X-0.387500X-0.050000X0.387500X-0.050000X0.387500X0.050000X0*%
%ADD23R,0.600000X2.450000*%
%ADD24R,0.300000X2.450000*%
%ADD25RoundRect,0.375000X-0.375000X0.625000X-0.375000X-0.625000X0.375000X-0.625000X0.375000X0.625000X0*%
%ADD26RoundRect,0.500000X-1.400000X0.500000X-1.400000X-0.500000X1.400000X-0.500000X1.400000X0.500000X0*%
%ADD27R,1.800000X1.100000*%
%ADD28R,0.700000X1.000000*%
%ADD29R,0.700000X0.600000*%
%ADD30R,1.200000X1.400000*%
%ADD31RoundRect,0.150000X0.650000X0.150000X-0.650000X0.150000X-0.650000X-0.150000X0.650000X-0.150000X0*%
G04 APERTURE END LIST*
D10*
%TO.C,R7*%
X205740000Y-105160000D03*
X205740000Y-104140000D03*
%TD*%
D11*
%TO.C,R6*%
X265197500Y-21336000D03*
X266217500Y-21336000D03*
%TD*%
D12*
%TO.C,R5*%
X259209000Y-21209000D03*
X258189000Y-21209000D03*
%TD*%
D11*
%TO.C,R4*%
X196594000Y-101000000D03*
X197614000Y-101000000D03*
%TD*%
D12*
%TO.C,R3*%
X197614000Y-102500000D03*
X196594000Y-102500000D03*
%TD*%
D11*
%TO.C,R2*%
X179578000Y-101219000D03*
X180598000Y-101219000D03*
%TD*%
D10*
%TO.C,R1*%
X180086000Y-106428000D03*
X180086000Y-105408000D03*
%TD*%
D13*
%TO.C,F1*%
X265684000Y-23703500D03*
X265684000Y-25578500D03*
%TD*%
D14*
%TO.C,D60*%
X62706250Y-109443750D03*
X62706250Y-108043750D03*
%TD*%
%TO.C,D59*%
X87312500Y-109300000D03*
X87312500Y-107900000D03*
%TD*%
%TO.C,D58*%
X157956250Y-109443750D03*
X157956250Y-108043750D03*
%TD*%
%TO.C,D57*%
X234156250Y-109443750D03*
X234156250Y-108043750D03*
%TD*%
%TO.C,D56*%
X257968750Y-109443750D03*
X257968750Y-108043750D03*
%TD*%
%TO.C,D55*%
X15081250Y-89456250D03*
X15081250Y-88056250D03*
%TD*%
%TO.C,D54*%
X41275000Y-89600000D03*
X41275000Y-88200000D03*
%TD*%
%TO.C,D53*%
X67468750Y-89456250D03*
X67468750Y-88056250D03*
%TD*%
%TO.C,D52*%
X86518750Y-89456250D03*
X86518750Y-88056250D03*
%TD*%
%TO.C,D51*%
X105568750Y-89456250D03*
X105568750Y-88056250D03*
%TD*%
%TO.C,D50*%
X124618750Y-89456250D03*
X124618750Y-88056250D03*
%TD*%
%TO.C,D49*%
X143668750Y-89456250D03*
X143668750Y-88056250D03*
%TD*%
%TO.C,D48*%
X162718750Y-89456250D03*
X162718750Y-88056250D03*
%TD*%
%TO.C,D47*%
X181768750Y-89600000D03*
X181768750Y-88200000D03*
%TD*%
%TO.C,D46*%
X200818750Y-89600000D03*
X200818750Y-88200000D03*
%TD*%
%TO.C,D45*%
X219868750Y-89600000D03*
X219868750Y-88200000D03*
%TD*%
%TO.C,D44*%
X238918750Y-89600000D03*
X238918750Y-88200000D03*
%TD*%
%TO.C,D43*%
X269875000Y-89600000D03*
X269875000Y-88200000D03*
%TD*%
%TO.C,D42*%
X26987500Y-70550000D03*
X26987500Y-69150000D03*
%TD*%
%TO.C,D41*%
X57943750Y-70550000D03*
X57943750Y-69150000D03*
%TD*%
%TO.C,D40*%
X76993750Y-70406250D03*
X76993750Y-69006250D03*
%TD*%
%TO.C,D39*%
X96043750Y-70406250D03*
X96043750Y-69006250D03*
%TD*%
%TO.C,D38*%
X115093750Y-70550000D03*
X115093750Y-69150000D03*
%TD*%
%TO.C,D37*%
X134143750Y-70406250D03*
X134143750Y-69006250D03*
%TD*%
%TO.C,D36*%
X153193750Y-70550000D03*
X153193750Y-69150000D03*
%TD*%
%TO.C,D35*%
X172243750Y-70550000D03*
X172243750Y-69150000D03*
%TD*%
%TO.C,D34*%
X191293750Y-70550000D03*
X191293750Y-69150000D03*
%TD*%
%TO.C,D33*%
X210343750Y-70406250D03*
X210343750Y-69006250D03*
%TD*%
%TO.C,D32*%
X229393750Y-70550000D03*
X229393750Y-69150000D03*
%TD*%
%TO.C,D31*%
X248443750Y-70406250D03*
X248443750Y-69006250D03*
%TD*%
%TO.C,D30*%
X274637500Y-70406250D03*
X274637500Y-69006250D03*
%TD*%
%TO.C,D29*%
X19843750Y-51500000D03*
X19843750Y-50100000D03*
%TD*%
%TO.C,D28*%
X43656250Y-51356250D03*
X43656250Y-49956250D03*
%TD*%
%TO.C,D27*%
X62706250Y-51356250D03*
X62706250Y-49956250D03*
%TD*%
%TO.C,D26*%
X81756250Y-51500000D03*
X81756250Y-50100000D03*
%TD*%
%TO.C,D25*%
X100806250Y-51500000D03*
X100806250Y-50100000D03*
%TD*%
%TO.C,D24*%
X119856250Y-51356250D03*
X119856250Y-49956250D03*
%TD*%
%TO.C,D23*%
X138906250Y-51356250D03*
X138906250Y-49956250D03*
%TD*%
%TO.C,D22*%
X157956250Y-51500000D03*
X157956250Y-50100000D03*
%TD*%
%TO.C,D21*%
X177006250Y-51500000D03*
X177006250Y-50100000D03*
%TD*%
%TO.C,D20*%
X196056250Y-51500000D03*
X196056250Y-50100000D03*
%TD*%
%TO.C,D19*%
X215106250Y-51500000D03*
X215106250Y-50100000D03*
%TD*%
%TO.C,D18*%
X234156250Y-51500000D03*
X234156250Y-50100000D03*
%TD*%
%TO.C,D17*%
X253206250Y-51643750D03*
X253206250Y-50243750D03*
%TD*%
%TO.C,D16*%
X277018750Y-51500000D03*
X277018750Y-50100000D03*
%TD*%
%TO.C,D15*%
X15081250Y-32306250D03*
X15081250Y-30906250D03*
%TD*%
%TO.C,D14*%
X34131250Y-32450000D03*
X34131250Y-31050000D03*
%TD*%
%TO.C,D13*%
X53181250Y-32450000D03*
X53181250Y-31050000D03*
%TD*%
%TO.C,D12*%
X72231250Y-32450000D03*
X72231250Y-31050000D03*
%TD*%
%TO.C,D11*%
X91281250Y-32306250D03*
X91281250Y-30906250D03*
%TD*%
%TO.C,D10*%
X110331250Y-32306250D03*
X110331250Y-30906250D03*
%TD*%
%TO.C,D9*%
X129381250Y-32306250D03*
X129381250Y-30906250D03*
%TD*%
%TO.C,D8*%
X148431250Y-32306250D03*
X148431250Y-30906250D03*
%TD*%
%TO.C,D7*%
X167481250Y-32306250D03*
X167481250Y-30906250D03*
%TD*%
%TO.C,D6*%
X186531250Y-32306250D03*
X186531250Y-30906250D03*
%TD*%
%TO.C,D5*%
X205581250Y-32306250D03*
X205581250Y-30906250D03*
%TD*%
%TO.C,D4*%
X224631250Y-32450000D03*
X224631250Y-31050000D03*
%TD*%
%TO.C,D3*%
X243681250Y-32306250D03*
X243681250Y-30906250D03*
%TD*%
%TO.C,D2*%
X262731250Y-32306250D03*
X262731250Y-30906250D03*
%TD*%
%TO.C,D1*%
X281781250Y-32306250D03*
X281781250Y-30906250D03*
%TD*%
D15*
%TO.C,FB1*%
X270150000Y-16129000D03*
X271725000Y-16129000D03*
%TD*%
D16*
%TO.C,SW44*%
X269626250Y-85100000D03*
X258136250Y-87300000D03*
%TD*%
%TO.C,SW43*%
X26738750Y-66050000D03*
X15248750Y-68250000D03*
%TD*%
D17*
%TO.C,C16*%
X200843000Y-99187000D03*
X201803000Y-99187000D03*
%TD*%
%TO.C,C15*%
X196624000Y-96520000D03*
X197584000Y-96520000D03*
%TD*%
D18*
%TO.C,C14*%
X179070000Y-105410000D03*
X179070000Y-106370000D03*
%TD*%
D17*
%TO.C,C13*%
X196690000Y-104500000D03*
X197650000Y-104500000D03*
%TD*%
%TO.C,C12*%
X196520000Y-107500000D03*
X197480000Y-107500000D03*
%TD*%
%TO.C,C11*%
X196624000Y-98552000D03*
X197584000Y-98552000D03*
%TD*%
%TO.C,C10*%
X196624000Y-106500000D03*
X197584000Y-106500000D03*
%TD*%
D19*
%TO.C,C9*%
X191262000Y-94968000D03*
X191262000Y-94008000D03*
%TD*%
D17*
%TO.C,C8*%
X196624000Y-97536000D03*
X197584000Y-97536000D03*
%TD*%
D18*
%TO.C,C7*%
X186500000Y-107000000D03*
X186500000Y-107960000D03*
%TD*%
%TO.C,C6*%
X178054000Y-105438000D03*
X178054000Y-106398000D03*
%TD*%
D17*
%TO.C,C5*%
X196624000Y-105500000D03*
X197584000Y-105500000D03*
%TD*%
D18*
%TO.C,C4*%
X177292000Y-96830000D03*
X177292000Y-97790000D03*
%TD*%
D17*
%TO.C,C3*%
X279019000Y-86614000D03*
X279979000Y-86614000D03*
%TD*%
%TO.C,C2*%
X277015000Y-75692000D03*
X277975000Y-75692000D03*
%TD*%
%TO.C,C1*%
X177292000Y-100076000D03*
X176332000Y-100076000D03*
%TD*%
D16*
%TO.C,SW35*%
X190881000Y-66040000D03*
X179391000Y-68240000D03*
%TD*%
%TO.C,SW32*%
X247957500Y-66050000D03*
X236467500Y-68250000D03*
%TD*%
%TO.C,SW53*%
X86032500Y-85100000D03*
X74542500Y-87300000D03*
%TD*%
%TO.C,SW4*%
X243510000Y-27701250D03*
X232020000Y-29901250D03*
%TD*%
%TO.C,SW47*%
X200332500Y-85100000D03*
X188842500Y-87300000D03*
%TD*%
%TO.C,SW6*%
X205410000Y-27701250D03*
X193920000Y-29901250D03*
%TD*%
%TO.C,SW45*%
X238670000Y-85100000D03*
X227180000Y-87300000D03*
%TD*%
%TO.C,SW36*%
X171757500Y-66062500D03*
X160267500Y-68262500D03*
%TD*%
%TO.C,SW10*%
X129210000Y-27701250D03*
X117720000Y-29901250D03*
%TD*%
%TO.C,SW7*%
X186282500Y-27701250D03*
X174792500Y-29901250D03*
%TD*%
%TO.C,SW9*%
X148260000Y-27701250D03*
X136770000Y-29901250D03*
%TD*%
%TO.C,SW15*%
X33645000Y-27701250D03*
X22155000Y-29901250D03*
%TD*%
%TO.C,SW14*%
X52695000Y-27701250D03*
X41205000Y-29901250D03*
%TD*%
%TO.C,SW24*%
X138420000Y-47000000D03*
X126930000Y-49200000D03*
%TD*%
%TO.C,SW50*%
X143182500Y-85100000D03*
X131692500Y-87300000D03*
%TD*%
%TO.C,SW5*%
X224382500Y-27701250D03*
X212892500Y-29901250D03*
%TD*%
%TO.C,SW21*%
X195570000Y-47000000D03*
X184080000Y-49200000D03*
%TD*%
%TO.C,SW20*%
X214620000Y-47000000D03*
X203130000Y-49200000D03*
%TD*%
%TO.C,SW34*%
X209927500Y-66062500D03*
X198437500Y-68262500D03*
%TD*%
%TO.C,SW16*%
X14595000Y-27701250D03*
X3105000Y-29901250D03*
%TD*%
%TO.C,SW2*%
X281532500Y-27701250D03*
X270042500Y-29901250D03*
%TD*%
%TO.C,SW40*%
X95627500Y-66062500D03*
X84137500Y-68262500D03*
%TD*%
%TO.C,SW3*%
X262560000Y-27701250D03*
X251070000Y-29901250D03*
%TD*%
%TO.C,SW28*%
X62220000Y-47000000D03*
X50730000Y-49200000D03*
%TD*%
%TO.C,SW39*%
X114607500Y-66062500D03*
X103117500Y-68262500D03*
%TD*%
%TO.C,SW25*%
X119370000Y-47000000D03*
X107880000Y-49200000D03*
%TD*%
%TO.C,SW22*%
X176520000Y-47000000D03*
X165030000Y-49200000D03*
%TD*%
%TO.C,SW54*%
X66982500Y-85100000D03*
X55492500Y-87300000D03*
%TD*%
%TO.C,SW29*%
X43170000Y-47000000D03*
X31680000Y-49200000D03*
%TD*%
%TO.C,SW46*%
X219382500Y-85100000D03*
X207892500Y-87300000D03*
%TD*%
%TO.C,SW23*%
X157470000Y-47000000D03*
X145980000Y-49200000D03*
%TD*%
%TO.C,SW37*%
X152707500Y-66062500D03*
X141217500Y-68262500D03*
%TD*%
%TO.C,SW12*%
X90795000Y-27701250D03*
X79305000Y-29901250D03*
%TD*%
%TO.C,SW26*%
X100320000Y-47000000D03*
X88830000Y-49200000D03*
%TD*%
%TO.C,SW61*%
X62535000Y-104695000D03*
X51045000Y-106895000D03*
%TD*%
%TO.C,SW52*%
X105082500Y-85100000D03*
X93592500Y-87300000D03*
%TD*%
%TO.C,SW41*%
X76507500Y-66062500D03*
X65017500Y-68262500D03*
%TD*%
%TO.C,SW27*%
X81270000Y-47000000D03*
X69780000Y-49200000D03*
%TD*%
%TO.C,SW56*%
X14595000Y-85112500D03*
X3105000Y-87312500D03*
%TD*%
%TO.C,SW59*%
X157470000Y-104556250D03*
X145980000Y-106756250D03*
%TD*%
%TO.C,SW11*%
X110160000Y-27701250D03*
X98670000Y-29901250D03*
%TD*%
%TO.C,SW57*%
X257482500Y-104556250D03*
X245992500Y-106756250D03*
%TD*%
%TO.C,SW42*%
X57457500Y-66062500D03*
X45967500Y-68262500D03*
%TD*%
%TO.C,SW13*%
X71745000Y-27701250D03*
X60255000Y-29901250D03*
%TD*%
%TO.C,SW8*%
X167232500Y-27701250D03*
X155742500Y-29901250D03*
%TD*%
%TO.C,SW51*%
X124132500Y-85100000D03*
X112642500Y-87300000D03*
%TD*%
%TO.C,SW19*%
X233670000Y-47000000D03*
X222180000Y-49200000D03*
%TD*%
%TO.C,SW38*%
X133657500Y-66062500D03*
X122167500Y-68262500D03*
%TD*%
%TO.C,SW49*%
X162232500Y-85100000D03*
X150742500Y-87300000D03*
%TD*%
%TO.C,SW48*%
X181282500Y-85100000D03*
X169792500Y-87300000D03*
%TD*%
%TO.C,SW33*%
X228907500Y-66050000D03*
X217417500Y-68250000D03*
%TD*%
%TO.C,SW18*%
X252720000Y-47000000D03*
X241230000Y-49200000D03*
%TD*%
D20*
%TO.C,U3*%
X188163000Y-99618800D03*
X186563000Y-99618800D03*
X188163000Y-101218800D03*
X186563000Y-101218800D03*
D21*
X189963000Y-96981300D03*
X189563000Y-96981300D03*
X189163000Y-96981300D03*
X188763000Y-96981300D03*
X188363000Y-96981300D03*
X187963000Y-96981300D03*
X187563000Y-96981300D03*
X187163000Y-96981300D03*
X186763000Y-96981300D03*
X186363000Y-96981300D03*
X185963000Y-96981300D03*
X185563000Y-96981300D03*
X185163000Y-96981300D03*
X184763000Y-96981300D03*
D22*
X183925500Y-97818800D03*
X183925500Y-98218800D03*
X183925500Y-98618800D03*
X183925500Y-99018800D03*
X183925500Y-99418800D03*
X183925500Y-99818800D03*
X183925500Y-100218800D03*
X183925500Y-100618800D03*
X183925500Y-101018800D03*
X183925500Y-101418800D03*
X183925500Y-101818800D03*
X183925500Y-102218800D03*
X183925500Y-102618800D03*
X183925500Y-103018800D03*
D21*
X184763000Y-103856300D03*
X185163000Y-103856300D03*
X185563000Y-103856300D03*
X185963000Y-103856300D03*
X186363000Y-103856300D03*
X186763000Y-103856300D03*
X187163000Y-103856300D03*
X187563000Y-103856300D03*
X187963000Y-103856300D03*
X188363000Y-103856300D03*
X188763000Y-103856300D03*
X189163000Y-103856300D03*
X189563000Y-103856300D03*
X189963000Y-103856300D03*
D22*
X190800500Y-103018800D03*
X190800500Y-102618800D03*
X190800500Y-102218800D03*
X190800500Y-101818800D03*
X190800500Y-101418800D03*
X190800500Y-101018800D03*
X190800500Y-100618800D03*
X190800500Y-100218800D03*
X190800500Y-99818800D03*
X190800500Y-99418800D03*
X190800500Y-99018800D03*
X190800500Y-98618800D03*
X190800500Y-98218800D03*
X190800500Y-97818800D03*
%TD*%
D16*
%TO.C,SW58*%
X233670000Y-104556250D03*
X222180000Y-106756250D03*
%TD*%
%TO.C,SW31*%
X274388750Y-66050000D03*
X262898750Y-68250000D03*
%TD*%
D23*
%TO.C,USB1*%
X265226000Y-17199000D03*
X264451000Y-17199000D03*
D24*
X263751000Y-17199000D03*
X263251000Y-17199000D03*
X262751000Y-17199000D03*
X262251000Y-17199000D03*
X261751000Y-17199000D03*
X261251000Y-17199000D03*
X260751000Y-17199000D03*
X260251000Y-17199000D03*
D23*
X259551000Y-17199000D03*
X258776000Y-17199000D03*
%TD*%
D25*
%TO.C,U1*%
X279795000Y-78511000D03*
X277495000Y-78511000D03*
D26*
X277495000Y-84811000D03*
D25*
X275195000Y-78511000D03*
%TD*%
D16*
%TO.C,SW17*%
X276770000Y-47000000D03*
X265280000Y-49200000D03*
%TD*%
%TO.C,SW60*%
X86826250Y-104695000D03*
X75336250Y-106895000D03*
%TD*%
D27*
%TO.C,SW1*%
X213666000Y-107895000D03*
X207466000Y-107895000D03*
X213666000Y-104195000D03*
X207466000Y-104195000D03*
%TD*%
D16*
%TO.C,SW55*%
X40858750Y-85112500D03*
X29368750Y-87312500D03*
%TD*%
D28*
%TO.C,U2*%
X261001000Y-22745000D03*
D29*
X261001000Y-24445000D03*
X263001000Y-24445000D03*
X263001000Y-22545000D03*
%TD*%
D30*
%TO.C,Y1*%
X180301000Y-99601200D03*
X180301000Y-97401200D03*
X178601000Y-97401200D03*
X178601000Y-99601200D03*
%TD*%
D16*
%TO.C,SW30*%
X19357500Y-47000000D03*
X7867500Y-49200000D03*
%TD*%
D31*
%TO.C,U4*%
X201041000Y-97663000D03*
X201041000Y-96393000D03*
X201041000Y-95123000D03*
X201041000Y-93853000D03*
X208241000Y-93853000D03*
X208241000Y-95123000D03*
X208241000Y-96393000D03*
X208241000Y-97663000D03*
%TD*%
M02*
