%TF.GenerationSoftware,KiCad,Pcbnew,8.0.7*%
%TF.CreationDate,2025-01-18T13:07:10-06:00*%
%TF.ProjectId,boethia60,626f6574-6869-4613-9630-2e6b69636164,rev?*%
%TF.SameCoordinates,Original*%
%TF.FileFunction,Drillmap*%
%TF.FilePolarity,Positive*%
%FSLAX45Y45*%
G04 Gerber Fmt 4.5, Leading zero omitted, Abs format (unit mm)*
G04 Created by KiCad (PCBNEW 8.0.7) date 2025-01-18 13:07:10*
%MOMM*%
%LPD*%
G01*
G04 APERTURE LIST*
%ADD10C,0.200000*%
%ADD11C,0.120000*%
%ADD12C,0.100000*%
G04 APERTURE END LIST*
D10*
X317500Y-9366250D02*
G75*
G02*
X-79375Y-8969375I0J396875D01*
G01*
X-79375Y-536575D02*
X-79375Y-8969375D01*
X28257500Y-139700D02*
X2460625Y-139700D01*
X1270000Y-139700D02*
X317500Y-139700D01*
X2460625Y-139700D02*
G75*
G02*
X2381250Y-60325I5J79380D01*
G01*
X28654375Y-8969375D02*
G75*
G02*
X28257500Y-9366245I-396875J5D01*
G01*
X28654375Y-8969375D02*
X28654375Y-536575D01*
X1349375Y-60325D02*
G75*
G02*
X1270000Y-139700I-79375J0D01*
G01*
X28257500Y-139700D02*
G75*
G02*
X28654370Y-536575I0J-396870D01*
G01*
X-79375Y-536575D02*
G75*
G02*
X317500Y-139700I396875J0D01*
G01*
X1349375Y476250D02*
X1349375Y-60325D01*
X317500Y-9366250D02*
X28257500Y-9366250D01*
X2381250Y476250D02*
X2381250Y-60325D01*
X2381250Y476250D02*
X1349375Y476250D01*
D11*
X17346875Y-8302500D02*
X17346875Y-8752500D01*
X17411875Y-7722500D02*
X17411875Y-7972500D01*
X17761875Y-7672500D02*
X17461875Y-7672500D01*
X17761875Y-8022500D02*
X17461875Y-8022500D01*
X17811875Y-7722500D02*
X17811875Y-7972500D01*
X17826875Y-8252500D02*
X17396875Y-8252500D01*
X17826875Y-8802500D02*
X17396875Y-8802500D01*
X17876875Y-8302500D02*
X17876875Y-8752500D01*
X19746875Y-8302500D02*
X19746875Y-8752500D01*
X19796875Y-8252500D02*
X20226875Y-8252500D01*
X19796875Y-8802500D02*
X20226875Y-8802500D01*
X19811875Y-7722500D02*
X19811875Y-7972500D01*
X19861875Y-7672500D02*
X20161875Y-7672500D01*
X19861875Y-8022500D02*
X20161875Y-8022500D01*
X20211875Y-7722500D02*
X20211875Y-7972500D01*
X20276875Y-8302500D02*
X20276875Y-8752500D01*
X17346875Y-8302500D02*
G75*
G02*
X17396875Y-8252500I50000J0D01*
G01*
X17396875Y-8802500D02*
G75*
G02*
X17346875Y-8752500I0J50000D01*
G01*
X17411875Y-7722500D02*
G75*
G02*
X17461875Y-7672500I50000J0D01*
G01*
X17461875Y-8022500D02*
G75*
G02*
X17411875Y-7972500I0J50000D01*
G01*
X17761875Y-7672500D02*
G75*
G02*
X17811875Y-7722500I0J-50000D01*
G01*
X17811875Y-7972500D02*
G75*
G02*
X17761875Y-8022500I-50000J0D01*
G01*
X17826875Y-8252500D02*
G75*
G02*
X17876875Y-8302500I0J-50000D01*
G01*
X17876875Y-8752500D02*
G75*
G02*
X17826875Y-8802500I-50000J0D01*
G01*
X19746875Y-8302500D02*
G75*
G02*
X19796875Y-8252500I50000J0D01*
G01*
X19796875Y-8802500D02*
G75*
G02*
X19746875Y-8752500I0J50000D01*
G01*
X19811875Y-7722500D02*
G75*
G02*
X19861875Y-7672500I50000J0D01*
G01*
X19861875Y-8022500D02*
G75*
G02*
X19811875Y-7972500I0J50000D01*
G01*
X20161875Y-7672500D02*
G75*
G02*
X20211875Y-7722500I0J-50000D01*
G01*
X20211875Y-7972500D02*
G75*
G02*
X20161875Y-8022500I-50000J0D01*
G01*
X20226875Y-8252500D02*
G75*
G02*
X20276875Y-8302500I0J-50000D01*
G01*
X20276875Y-8752500D02*
G75*
G02*
X20226875Y-8802500I-50000J0D01*
G01*
X10679375Y-8302500D02*
X10679375Y-8752500D01*
X10744375Y-7722500D02*
X10744375Y-7972500D01*
X11094375Y-7672500D02*
X10794375Y-7672500D01*
X11094375Y-8022500D02*
X10794375Y-8022500D01*
X11144375Y-7722500D02*
X11144375Y-7972500D01*
X11159375Y-8252500D02*
X10729375Y-8252500D01*
X11159375Y-8802500D02*
X10729375Y-8802500D01*
X11209375Y-8302500D02*
X11209375Y-8752500D01*
X13079375Y-8302500D02*
X13079375Y-8752500D01*
X13129375Y-8252500D02*
X13559375Y-8252500D01*
X13129375Y-8802500D02*
X13559375Y-8802500D01*
X13144375Y-7722500D02*
X13144375Y-7972500D01*
X13194375Y-7672500D02*
X13494375Y-7672500D01*
X13194375Y-8022500D02*
X13494375Y-8022500D01*
X13544375Y-7722500D02*
X13544375Y-7972500D01*
X13609375Y-8302500D02*
X13609375Y-8752500D01*
X10679375Y-8302500D02*
G75*
G02*
X10729375Y-8252500I50000J0D01*
G01*
X10729375Y-8802500D02*
G75*
G02*
X10679375Y-8752500I0J50000D01*
G01*
X10744375Y-7722500D02*
G75*
G02*
X10794375Y-7672500I50000J0D01*
G01*
X10794375Y-8022500D02*
G75*
G02*
X10744375Y-7972500I0J50000D01*
G01*
X11094375Y-7672500D02*
G75*
G02*
X11144375Y-7722500I0J-50000D01*
G01*
X11144375Y-7972500D02*
G75*
G02*
X11094375Y-8022500I-50000J0D01*
G01*
X11159375Y-8252500D02*
G75*
G02*
X11209375Y-8302500I0J-50000D01*
G01*
X11209375Y-8752500D02*
G75*
G02*
X11159375Y-8802500I-50000J0D01*
G01*
X13079375Y-8302500D02*
G75*
G02*
X13129375Y-8252500I50000J0D01*
G01*
X13129375Y-8802500D02*
G75*
G02*
X13079375Y-8752500I0J50000D01*
G01*
X13144375Y-7722500D02*
G75*
G02*
X13194375Y-7672500I50000J0D01*
G01*
X13194375Y-8022500D02*
G75*
G02*
X13144375Y-7972500I0J50000D01*
G01*
X13494375Y-7672500D02*
G75*
G02*
X13544375Y-7722500I0J-50000D01*
G01*
X13544375Y-7972500D02*
G75*
G02*
X13494375Y-8022500I-50000J0D01*
G01*
X13559375Y-8252500D02*
G75*
G02*
X13609375Y-8302500I0J-50000D01*
G01*
X13609375Y-8752500D02*
G75*
G02*
X13559375Y-8802500I-50000J0D01*
G01*
X678125Y-4492500D02*
X678125Y-4942500D01*
X743125Y-3912500D02*
X743125Y-4162500D01*
X1093125Y-3862500D02*
X793125Y-3862500D01*
X1093125Y-4212500D02*
X793125Y-4212500D01*
X1143125Y-3912500D02*
X1143125Y-4162500D01*
X1158125Y-4442500D02*
X728125Y-4442500D01*
X1158125Y-4992500D02*
X728125Y-4992500D01*
X1208125Y-4492500D02*
X1208125Y-4942500D01*
X3078125Y-4492500D02*
X3078125Y-4942500D01*
X3128125Y-4442500D02*
X3558125Y-4442500D01*
X3128125Y-4992500D02*
X3558125Y-4992500D01*
X3143125Y-3912500D02*
X3143125Y-4162500D01*
X3193125Y-3862500D02*
X3493125Y-3862500D01*
X3193125Y-4212500D02*
X3493125Y-4212500D01*
X3543125Y-3912500D02*
X3543125Y-4162500D01*
X3608125Y-4492500D02*
X3608125Y-4942500D01*
X678125Y-4492500D02*
G75*
G02*
X728125Y-4442500I50000J0D01*
G01*
X728125Y-4992500D02*
G75*
G02*
X678125Y-4942500I0J50000D01*
G01*
X743125Y-3912500D02*
G75*
G02*
X793125Y-3862500I50000J0D01*
G01*
X793125Y-4212500D02*
G75*
G02*
X743125Y-4162500I0J50000D01*
G01*
X1093125Y-3862500D02*
G75*
G02*
X1143125Y-3912500I0J-50000D01*
G01*
X1143125Y-4162500D02*
G75*
G02*
X1093125Y-4212500I-50000J0D01*
G01*
X1158125Y-4442500D02*
G75*
G02*
X1208125Y-4492500I0J-50000D01*
G01*
X1208125Y-4942500D02*
G75*
G02*
X1158125Y-4992500I-50000J0D01*
G01*
X3078125Y-4492500D02*
G75*
G02*
X3128125Y-4442500I50000J0D01*
G01*
X3128125Y-4992500D02*
G75*
G02*
X3078125Y-4942500I0J50000D01*
G01*
X3143125Y-3912500D02*
G75*
G02*
X3193125Y-3862500I50000J0D01*
G01*
X3193125Y-4212500D02*
G75*
G02*
X3143125Y-4162500I0J50000D01*
G01*
X3493125Y-3862500D02*
G75*
G02*
X3543125Y-3912500I0J-50000D01*
G01*
X3543125Y-4162500D02*
G75*
G02*
X3493125Y-4212500I-50000J0D01*
G01*
X3558125Y-4442500D02*
G75*
G02*
X3608125Y-4492500I0J-50000D01*
G01*
X3608125Y-4942500D02*
G75*
G02*
X3558125Y-4992500I-50000J0D01*
G01*
X24966875Y-6397500D02*
X24966875Y-6847500D01*
X25031875Y-5817500D02*
X25031875Y-6067500D01*
X25381875Y-5767500D02*
X25081875Y-5767500D01*
X25381875Y-6117500D02*
X25081875Y-6117500D01*
X25431875Y-5817500D02*
X25431875Y-6067500D01*
X25446875Y-6347500D02*
X25016875Y-6347500D01*
X25446875Y-6897500D02*
X25016875Y-6897500D01*
X25496875Y-6397500D02*
X25496875Y-6847500D01*
X27366875Y-6397500D02*
X27366875Y-6847500D01*
X27416875Y-6347500D02*
X27846875Y-6347500D01*
X27416875Y-6897500D02*
X27846875Y-6897500D01*
X27431875Y-5817500D02*
X27431875Y-6067500D01*
X27481875Y-5767500D02*
X27781875Y-5767500D01*
X27481875Y-6117500D02*
X27781875Y-6117500D01*
X27831875Y-5817500D02*
X27831875Y-6067500D01*
X27896875Y-6397500D02*
X27896875Y-6847500D01*
X24966875Y-6397500D02*
G75*
G02*
X25016875Y-6347500I50000J0D01*
G01*
X25016875Y-6897500D02*
G75*
G02*
X24966875Y-6847500I0J50000D01*
G01*
X25031875Y-5817500D02*
G75*
G02*
X25081875Y-5767500I50000J0D01*
G01*
X25081875Y-6117500D02*
G75*
G02*
X25031875Y-6067500I0J50000D01*
G01*
X25381875Y-5767500D02*
G75*
G02*
X25431875Y-5817500I0J-50000D01*
G01*
X25431875Y-6067500D02*
G75*
G02*
X25381875Y-6117500I-50000J0D01*
G01*
X25446875Y-6347500D02*
G75*
G02*
X25496875Y-6397500I0J-50000D01*
G01*
X25496875Y-6847500D02*
G75*
G02*
X25446875Y-6897500I-50000J0D01*
G01*
X27366875Y-6397500D02*
G75*
G02*
X27416875Y-6347500I50000J0D01*
G01*
X27416875Y-6897500D02*
G75*
G02*
X27366875Y-6847500I0J50000D01*
G01*
X27431875Y-5817500D02*
G75*
G02*
X27481875Y-5767500I50000J0D01*
G01*
X27481875Y-6117500D02*
G75*
G02*
X27431875Y-6067500I0J50000D01*
G01*
X27781875Y-5767500D02*
G75*
G02*
X27831875Y-5817500I0J-50000D01*
G01*
X27831875Y-6067500D02*
G75*
G02*
X27781875Y-6117500I-50000J0D01*
G01*
X27846875Y-6347500D02*
G75*
G02*
X27896875Y-6397500I0J-50000D01*
G01*
X27896875Y-6847500D02*
G75*
G02*
X27846875Y-6897500I-50000J0D01*
G01*
D10*
D12*
X451153Y-7586047D02*
X491153Y-7626047D01*
X491153Y-7586047D02*
X451153Y-7626047D01*
X564200Y-7003100D02*
X604200Y-7043100D01*
X604200Y-7003100D02*
X564200Y-7043100D01*
X678500Y-7701600D02*
X718500Y-7741600D01*
X718500Y-7701600D02*
X678500Y-7741600D01*
X742000Y-8052120D02*
X782000Y-8092120D01*
X782000Y-8052120D02*
X742000Y-8092120D01*
X742000Y-8133400D02*
X782000Y-8173400D01*
X782000Y-8133400D02*
X742000Y-8173400D01*
X742000Y-8225000D02*
X782000Y-8265000D01*
X782000Y-8225000D02*
X742000Y-8265000D01*
X773750Y-1726250D02*
X813750Y-1766250D01*
X813750Y-1726250D02*
X773750Y-1766250D01*
X1016320Y-8047040D02*
X1056320Y-8087040D01*
X1056320Y-8047040D02*
X1016320Y-8087040D01*
X1034100Y-3193100D02*
X1074100Y-3233100D01*
X1074100Y-3193100D02*
X1034100Y-3233100D01*
X1036640Y-8148640D02*
X1076640Y-8188640D01*
X1076640Y-8148640D02*
X1036640Y-8188640D01*
X1084900Y-8831900D02*
X1124900Y-8871900D01*
X1124900Y-8831900D02*
X1084900Y-8871900D01*
X1186500Y-8539800D02*
X1226500Y-8579800D01*
X1226500Y-8539800D02*
X1186500Y-8579800D01*
X1224600Y-411800D02*
X1264600Y-451800D01*
X1264600Y-411800D02*
X1224600Y-451800D01*
X1351600Y-234000D02*
X1391600Y-274000D01*
X1391600Y-234000D02*
X1351600Y-274000D01*
X1397320Y-7848920D02*
X1437320Y-7888920D01*
X1437320Y-7848920D02*
X1397320Y-7888920D01*
X1407891Y-7549611D02*
X1447891Y-7589611D01*
X1447891Y-7549611D02*
X1407891Y-7589611D01*
X1427800Y-9050650D02*
X1467800Y-9090650D01*
X1467800Y-9050650D02*
X1427800Y-9090650D01*
X1488760Y-7549200D02*
X1528760Y-7589200D01*
X1528760Y-7549200D02*
X1488760Y-7589200D01*
X1495093Y-8807787D02*
X1535093Y-8847787D01*
X1535093Y-8807787D02*
X1495093Y-8847787D01*
X1559880Y-7549200D02*
X1599880Y-7589200D01*
X1599880Y-7549200D02*
X1559880Y-7589200D01*
X1590360Y-7762560D02*
X1630360Y-7802560D01*
X1630360Y-7762560D02*
X1590360Y-7802560D01*
X1618300Y-8819200D02*
X1658300Y-8859200D01*
X1658300Y-8819200D02*
X1618300Y-8859200D01*
X1631000Y-411800D02*
X1671000Y-451800D01*
X1671000Y-411800D02*
X1631000Y-451800D01*
X1651320Y-7549200D02*
X1691320Y-7589200D01*
X1691320Y-7549200D02*
X1651320Y-7589200D01*
X1656400Y426400D02*
X1696400Y386400D01*
X1696400Y426400D02*
X1656400Y386400D01*
X1719900Y-7470150D02*
X1759900Y-7510150D01*
X1759900Y-7470150D02*
X1719900Y-7510150D01*
X1770700Y-5136200D02*
X1810700Y-5176200D01*
X1810700Y-5136200D02*
X1770700Y-5176200D01*
X1796100Y-1605600D02*
X1836100Y-1645600D01*
X1836100Y-1605600D02*
X1796100Y-1645600D01*
X1834200Y223200D02*
X1874200Y183200D01*
X1874200Y223200D02*
X1834200Y183200D01*
X1846900Y-6507800D02*
X1886900Y-6547800D01*
X1886900Y-6507800D02*
X1846900Y-6547800D01*
X1983750Y-564200D02*
X2023750Y-604200D01*
X2023750Y-564200D02*
X1983750Y-604200D01*
X2006920Y-7442520D02*
X2046920Y-7482520D01*
X2046920Y-7442520D02*
X2006920Y-7482520D01*
X2012000Y426400D02*
X2052000Y386400D01*
X2052000Y426400D02*
X2012000Y386400D01*
X2045000Y-1260428D02*
X2085000Y-1300428D01*
X2085000Y-1260428D02*
X2045000Y-1300428D01*
X2045000Y-1466365D02*
X2085000Y-1506365D01*
X2085000Y-1466365D02*
X2045000Y-1506365D01*
X2045000Y-6723700D02*
X2085000Y-6763700D01*
X2085000Y-6723700D02*
X2045000Y-6763700D01*
X2062800Y-411800D02*
X2102800Y-451800D01*
X2102800Y-411800D02*
X2062800Y-451800D01*
X2062800Y-7701600D02*
X2102800Y-7741600D01*
X2102800Y-7701600D02*
X2062800Y-7741600D01*
X2139000Y-8781100D02*
X2179000Y-8821100D01*
X2179000Y-8781100D02*
X2139000Y-8821100D01*
X2141850Y-475300D02*
X2181850Y-515300D01*
X2181850Y-475300D02*
X2141850Y-515300D01*
X2164400Y-2761300D02*
X2204400Y-2801300D01*
X2204400Y-2761300D02*
X2164400Y-2801300D01*
X2177100Y-1237300D02*
X2217100Y-1277300D01*
X2217100Y-1237300D02*
X2177100Y-1277300D01*
X2177100Y-1415100D02*
X2217100Y-1455100D01*
X2217100Y-1415100D02*
X2177100Y-1455100D01*
X2189800Y-8438200D02*
X2229800Y-8478200D01*
X2229800Y-8438200D02*
X2189800Y-8478200D01*
X2253300Y-1618300D02*
X2293300Y-1658300D01*
X2293300Y-1618300D02*
X2253300Y-1658300D01*
X2266000Y-2520000D02*
X2306000Y-2560000D01*
X2306000Y-2520000D02*
X2266000Y-2560000D01*
X2316800Y-8853340D02*
X2356800Y-8893340D01*
X2356800Y-8853340D02*
X2316800Y-8893340D01*
X2342200Y-234000D02*
X2382200Y-274000D01*
X2382200Y-234000D02*
X2342200Y-274000D01*
X2393000Y-2647000D02*
X2433000Y-2687000D01*
X2433000Y-2647000D02*
X2393000Y-2687000D01*
X2545400Y-2393000D02*
X2585400Y-2433000D01*
X2585400Y-2393000D02*
X2545400Y-2433000D01*
X2545400Y-2570800D02*
X2585400Y-2610800D01*
X2585400Y-2570800D02*
X2545400Y-2610800D01*
X2563985Y-6527315D02*
X2603985Y-6567315D01*
X2603985Y-6527315D02*
X2563985Y-6567315D01*
X2596200Y-7981000D02*
X2636200Y-8021000D01*
X2636200Y-7981000D02*
X2596200Y-8021000D01*
X2659700Y-8247700D02*
X2699700Y-8287700D01*
X2699700Y-8247700D02*
X2659700Y-8287700D01*
X2767022Y-8648378D02*
X2807022Y-8688378D01*
X2807022Y-8648378D02*
X2767022Y-8688378D01*
X3015300Y-2494600D02*
X3055300Y-2534600D01*
X3055300Y-2494600D02*
X3015300Y-2534600D01*
X3180400Y-7930200D02*
X3220400Y-7970200D01*
X3220400Y-7930200D02*
X3180400Y-7970200D01*
X3186527Y-8170041D02*
X3226527Y-8210041D01*
X3226527Y-8170041D02*
X3186527Y-8210041D01*
X3193100Y-7053900D02*
X3233100Y-7093900D01*
X3233100Y-7053900D02*
X3193100Y-7093900D01*
X3195640Y-8067360D02*
X3235640Y-8107360D01*
X3235640Y-8067360D02*
X3195640Y-8107360D01*
X3434400Y-3193100D02*
X3474400Y-3233100D01*
X3474400Y-3193100D02*
X3434400Y-3233100D01*
X3561400Y-589600D02*
X3601400Y-629600D01*
X3601400Y-589600D02*
X3561400Y-629600D01*
X4196400Y-1592900D02*
X4236400Y-1632900D01*
X4236400Y-1592900D02*
X4196400Y-1632900D01*
X4793300Y-7358700D02*
X4833300Y-7398700D01*
X4833300Y-7358700D02*
X4793300Y-7398700D01*
X4869500Y-5098100D02*
X4909500Y-5138100D01*
X4909500Y-5098100D02*
X4869500Y-5138100D01*
X4933000Y-7377500D02*
X4973000Y-7417500D01*
X4973000Y-7377500D02*
X4933000Y-7417500D01*
X5161600Y-9124000D02*
X5201600Y-9164000D01*
X5201600Y-9124000D02*
X5161600Y-9164000D01*
X5326700Y-3231200D02*
X5366700Y-3271200D01*
X5366700Y-3231200D02*
X5326700Y-3271200D01*
X5682300Y-7792500D02*
X5722300Y-7832500D01*
X5722300Y-7792500D02*
X5682300Y-7832500D01*
X5834700Y-7028500D02*
X5874700Y-7068500D01*
X5874700Y-7028500D02*
X5834700Y-7068500D01*
X6101400Y-1592900D02*
X6141400Y-1632900D01*
X6141400Y-1592900D02*
X6101400Y-1632900D01*
X6774500Y-5085400D02*
X6814500Y-5125400D01*
X6814500Y-5085400D02*
X6774500Y-5125400D01*
X7244400Y-3231200D02*
X7284400Y-3271200D01*
X7284400Y-3231200D02*
X7244400Y-3271200D01*
X7625400Y-7747500D02*
X7665400Y-7787500D01*
X7665400Y-7747500D02*
X7625400Y-7787500D01*
X7714300Y-7028500D02*
X7754300Y-7068500D01*
X7754300Y-7028500D02*
X7714300Y-7068500D01*
X7714300Y-8946200D02*
X7754300Y-8986200D01*
X7754300Y-8946200D02*
X7714300Y-8986200D01*
X7968300Y-1618300D02*
X8008300Y-1658300D01*
X8008300Y-1618300D02*
X7968300Y-1658300D01*
X8679500Y-5123500D02*
X8719500Y-5163500D01*
X8719500Y-5123500D02*
X8679500Y-5163500D01*
X9098600Y-7702500D02*
X9138600Y-7742500D01*
X9138600Y-7702500D02*
X9098600Y-7742500D01*
X9149400Y-3205800D02*
X9189400Y-3245800D01*
X9189400Y-3205800D02*
X9149400Y-3245800D01*
X9632000Y-7041200D02*
X9672000Y-7081200D01*
X9672000Y-7041200D02*
X9632000Y-7081200D01*
X9886000Y-1592900D02*
X9926000Y-1632900D01*
X9926000Y-1592900D02*
X9886000Y-1632900D01*
X10571800Y-5148900D02*
X10611800Y-5188900D01*
X10611800Y-5148900D02*
X10571800Y-5188900D01*
X11041700Y-3231200D02*
X11081700Y-3271200D01*
X11081700Y-3231200D02*
X11041700Y-3271200D01*
X11520025Y-7766980D02*
X11560025Y-7806980D01*
X11560025Y-7766980D02*
X11520025Y-7806980D01*
X11537000Y-7041200D02*
X11577000Y-7081200D01*
X11577000Y-7041200D02*
X11537000Y-7081200D01*
X11765600Y-8933500D02*
X11805600Y-8973500D01*
X11805600Y-8933500D02*
X11765600Y-8973500D01*
X11778300Y-1580200D02*
X11818300Y-1620200D01*
X11818300Y-1580200D02*
X11778300Y-1620200D01*
X12489500Y-5110800D02*
X12529500Y-5150800D01*
X12529500Y-5110800D02*
X12489500Y-5150800D01*
X12768900Y-7702500D02*
X12808900Y-7742500D01*
X12808900Y-7702500D02*
X12768900Y-7742500D01*
X12946700Y-3205800D02*
X12986700Y-3245800D01*
X12986700Y-3205800D02*
X12946700Y-3245800D01*
X13442000Y-7028500D02*
X13482000Y-7068500D01*
X13482000Y-7028500D02*
X13442000Y-7068500D01*
X13683300Y-1605600D02*
X13723300Y-1645600D01*
X13723300Y-1605600D02*
X13683300Y-1645600D01*
X14394500Y-5098100D02*
X14434500Y-5138100D01*
X14434500Y-5098100D02*
X14394500Y-5138100D01*
X14851700Y-3231200D02*
X14891700Y-3271200D01*
X14891700Y-3231200D02*
X14851700Y-3271200D01*
X15347000Y-7015800D02*
X15387000Y-7055800D01*
X15387000Y-7015800D02*
X15347000Y-7055800D01*
X15347000Y-8069900D02*
X15387000Y-8109900D01*
X15387000Y-8069900D02*
X15347000Y-8109900D01*
X15347000Y-8895400D02*
X15387000Y-8935400D01*
X15387000Y-8895400D02*
X15347000Y-8935400D01*
X15588300Y-1605600D02*
X15628300Y-1645600D01*
X15628300Y-1605600D02*
X15588300Y-1645600D01*
X16299500Y-5110800D02*
X16339500Y-5150800D01*
X16339500Y-5110800D02*
X16299500Y-5150800D01*
X16782100Y-3193100D02*
X16822100Y-3233100D01*
X16822100Y-3193100D02*
X16782100Y-3233100D01*
X17252000Y-7041200D02*
X17292000Y-7081200D01*
X17292000Y-7041200D02*
X17252000Y-7081200D01*
X17252000Y-7865563D02*
X17292000Y-7905563D01*
X17292000Y-7865563D02*
X17252000Y-7905563D01*
X17493300Y-1605600D02*
X17533300Y-1645600D01*
X17533300Y-1605600D02*
X17493300Y-1645600D01*
X18191800Y-5123500D02*
X18231800Y-5163500D01*
X18231800Y-5123500D02*
X18191800Y-5163500D01*
X18445800Y-8908100D02*
X18485800Y-8948100D01*
X18485800Y-8908100D02*
X18445800Y-8948100D01*
X18661700Y-3205800D02*
X18701700Y-3245800D01*
X18701700Y-3205800D02*
X18661700Y-3245800D01*
X19169700Y-7003100D02*
X19209700Y-7043100D01*
X19209700Y-7003100D02*
X19169700Y-7043100D01*
X19423700Y-1592900D02*
X19463700Y-1632900D01*
X19463700Y-1592900D02*
X19423700Y-1632900D01*
X20109500Y-5085400D02*
X20149500Y-5125400D01*
X20149500Y-5085400D02*
X20109500Y-5125400D01*
X20503200Y-3231200D02*
X20543200Y-3271200D01*
X20543200Y-3231200D02*
X20503200Y-3271200D01*
X21074700Y-7015800D02*
X21114700Y-7055800D01*
X21114700Y-7015800D02*
X21074700Y-7055800D01*
X21303300Y-1592900D02*
X21343300Y-1632900D01*
X21343300Y-1592900D02*
X21303300Y-1632900D01*
X21887500Y-8908100D02*
X21927500Y-8948100D01*
X21927500Y-8908100D02*
X21887500Y-8948100D01*
X22001800Y-5060000D02*
X22041800Y-5100000D01*
X22041800Y-5060000D02*
X22001800Y-5100000D01*
X22433600Y-3218500D02*
X22473600Y-3258500D01*
X22473600Y-3218500D02*
X22433600Y-3258500D01*
X22979700Y-6990400D02*
X23019700Y-7030400D01*
X23019700Y-6990400D02*
X22979700Y-7030400D01*
X23208300Y-1580200D02*
X23248300Y-1620200D01*
X23248300Y-1580200D02*
X23208300Y-1620200D01*
X23906800Y-5123500D02*
X23946800Y-5163500D01*
X23946800Y-5123500D02*
X23906800Y-5163500D01*
X24325900Y-8933500D02*
X24365900Y-8973500D01*
X24365900Y-8933500D02*
X24325900Y-8973500D01*
X24376700Y-3243900D02*
X24416700Y-3283900D01*
X24416700Y-3243900D02*
X24376700Y-3283900D01*
X25138700Y-1580200D02*
X25178700Y-1620200D01*
X25178700Y-1580200D02*
X25138700Y-1620200D01*
X26027700Y-7574600D02*
X26067700Y-7614600D01*
X26067700Y-7574600D02*
X26027700Y-7614600D01*
X26065800Y-7003100D02*
X26105800Y-7043100D01*
X26105800Y-7003100D02*
X26065800Y-7043100D01*
X26535700Y-5098100D02*
X26575700Y-5138100D01*
X26575700Y-5098100D02*
X26535700Y-5138100D01*
X26751600Y-3218500D02*
X26791600Y-3258500D01*
X26791600Y-3218500D02*
X26751600Y-3258500D01*
X27031000Y-1592900D02*
X27071000Y-1632900D01*
X27071000Y-1592900D02*
X27031000Y-1632900D01*
X1464700Y354500D02*
G75*
G02*
X1404700Y354500I-30000J0D01*
G01*
X1404700Y354500D02*
G75*
G02*
X1464700Y354500I30000J0D01*
G01*
X1464700Y324500D02*
X1464700Y384500D01*
X1404700Y384500D02*
G75*
G02*
X1464700Y384500I30000J0D01*
G01*
X1404700Y384500D02*
X1404700Y324500D01*
X1404700Y324500D02*
G75*
G03*
X1464700Y324500I30000J0D01*
G01*
X1464700Y-63500D02*
G75*
G02*
X1404700Y-63500I-30000J0D01*
G01*
X1404700Y-63500D02*
G75*
G02*
X1464700Y-63500I30000J0D01*
G01*
X1464700Y-118500D02*
X1464700Y-8500D01*
X1404700Y-8500D02*
G75*
G02*
X1464700Y-8500I30000J0D01*
G01*
X1404700Y-8500D02*
X1404700Y-118500D01*
X1404700Y-118500D02*
G75*
G03*
X1464700Y-118500I30000J0D01*
G01*
X2328700Y354500D02*
G75*
G02*
X2268700Y354500I-30000J0D01*
G01*
X2268700Y354500D02*
G75*
G02*
X2328700Y354500I30000J0D01*
G01*
X2328700Y324500D02*
X2328700Y384500D01*
X2268700Y384500D02*
G75*
G02*
X2328700Y384500I30000J0D01*
G01*
X2268700Y384500D02*
X2268700Y324500D01*
X2268700Y324500D02*
G75*
G03*
X2328700Y324500I30000J0D01*
G01*
X2328700Y-63500D02*
G75*
G02*
X2268700Y-63500I-30000J0D01*
G01*
X2268700Y-63500D02*
G75*
G02*
X2328700Y-63500I30000J0D01*
G01*
X2328700Y-118500D02*
X2328700Y-8500D01*
X2268700Y-8500D02*
G75*
G02*
X2328700Y-8500I30000J0D01*
G01*
X2268700Y-8500D02*
X2268700Y-118500D01*
X2268700Y-118500D02*
G75*
G03*
X2328700Y-118500I30000J0D01*
G01*
X4000500Y-7747800D02*
X4000500Y-7847800D01*
X3950500Y-7797800D02*
X4050500Y-7797800D01*
X4000500Y-8001800D02*
X4000500Y-8101800D01*
X3950500Y-8051800D02*
X4050500Y-8051800D01*
X4000500Y-8255800D02*
X4000500Y-8355800D01*
X3950500Y-8305800D02*
X4050500Y-8305800D01*
X4254500Y-7747800D02*
X4254500Y-7847800D01*
X4204500Y-7797800D02*
X4304500Y-7797800D01*
X4254500Y-8001800D02*
X4254500Y-8101800D01*
X4204500Y-8051800D02*
X4304500Y-8051800D01*
X4254500Y-8255800D02*
X4254500Y-8355800D01*
X4204500Y-8305800D02*
X4304500Y-8305800D01*
D10*
X171402Y-9687734D02*
X171402Y-9487734D01*
X171402Y-9487734D02*
X219021Y-9487734D01*
X219021Y-9487734D02*
X247592Y-9497258D01*
X247592Y-9497258D02*
X266640Y-9516305D01*
X266640Y-9516305D02*
X276164Y-9535353D01*
X276164Y-9535353D02*
X285688Y-9573448D01*
X285688Y-9573448D02*
X285688Y-9602020D01*
X285688Y-9602020D02*
X276164Y-9640115D01*
X276164Y-9640115D02*
X266640Y-9659162D01*
X266640Y-9659162D02*
X247592Y-9678210D01*
X247592Y-9678210D02*
X219021Y-9687734D01*
X219021Y-9687734D02*
X171402Y-9687734D01*
X371402Y-9687734D02*
X371402Y-9554400D01*
X371402Y-9592496D02*
X380926Y-9573448D01*
X380926Y-9573448D02*
X390449Y-9563924D01*
X390449Y-9563924D02*
X409497Y-9554400D01*
X409497Y-9554400D02*
X428545Y-9554400D01*
X495211Y-9687734D02*
X495211Y-9554400D01*
X495211Y-9487734D02*
X485687Y-9497258D01*
X485687Y-9497258D02*
X495211Y-9506781D01*
X495211Y-9506781D02*
X504735Y-9497258D01*
X504735Y-9497258D02*
X495211Y-9487734D01*
X495211Y-9487734D02*
X495211Y-9506781D01*
X619021Y-9687734D02*
X599973Y-9678210D01*
X599973Y-9678210D02*
X590449Y-9659162D01*
X590449Y-9659162D02*
X590449Y-9487734D01*
X723783Y-9687734D02*
X704735Y-9678210D01*
X704735Y-9678210D02*
X695211Y-9659162D01*
X695211Y-9659162D02*
X695211Y-9487734D01*
X952354Y-9687734D02*
X952354Y-9487734D01*
X952354Y-9487734D02*
X1019021Y-9630591D01*
X1019021Y-9630591D02*
X1085688Y-9487734D01*
X1085688Y-9487734D02*
X1085688Y-9687734D01*
X1266640Y-9687734D02*
X1266640Y-9582972D01*
X1266640Y-9582972D02*
X1257116Y-9563924D01*
X1257116Y-9563924D02*
X1238069Y-9554400D01*
X1238069Y-9554400D02*
X1199973Y-9554400D01*
X1199973Y-9554400D02*
X1180926Y-9563924D01*
X1266640Y-9678210D02*
X1247592Y-9687734D01*
X1247592Y-9687734D02*
X1199973Y-9687734D01*
X1199973Y-9687734D02*
X1180926Y-9678210D01*
X1180926Y-9678210D02*
X1171402Y-9659162D01*
X1171402Y-9659162D02*
X1171402Y-9640115D01*
X1171402Y-9640115D02*
X1180926Y-9621067D01*
X1180926Y-9621067D02*
X1199973Y-9611543D01*
X1199973Y-9611543D02*
X1247592Y-9611543D01*
X1247592Y-9611543D02*
X1266640Y-9602020D01*
X1361878Y-9554400D02*
X1361878Y-9754400D01*
X1361878Y-9563924D02*
X1380926Y-9554400D01*
X1380926Y-9554400D02*
X1419021Y-9554400D01*
X1419021Y-9554400D02*
X1438068Y-9563924D01*
X1438068Y-9563924D02*
X1447592Y-9573448D01*
X1447592Y-9573448D02*
X1457116Y-9592496D01*
X1457116Y-9592496D02*
X1457116Y-9649639D01*
X1457116Y-9649639D02*
X1447592Y-9668686D01*
X1447592Y-9668686D02*
X1438068Y-9678210D01*
X1438068Y-9678210D02*
X1419021Y-9687734D01*
X1419021Y-9687734D02*
X1380926Y-9687734D01*
X1380926Y-9687734D02*
X1361878Y-9678210D01*
X1542830Y-9668686D02*
X1552354Y-9678210D01*
X1552354Y-9678210D02*
X1542830Y-9687734D01*
X1542830Y-9687734D02*
X1533307Y-9678210D01*
X1533307Y-9678210D02*
X1542830Y-9668686D01*
X1542830Y-9668686D02*
X1542830Y-9687734D01*
X1542830Y-9563924D02*
X1552354Y-9573448D01*
X1552354Y-9573448D02*
X1542830Y-9582972D01*
X1542830Y-9582972D02*
X1533307Y-9573448D01*
X1533307Y-9573448D02*
X1542830Y-9563924D01*
X1542830Y-9563924D02*
X1542830Y-9582972D01*
D12*
X-129375Y-9996250D02*
X-89375Y-10036250D01*
X-89375Y-9996250D02*
X-129375Y-10036250D01*
D10*
X209497Y-9907734D02*
X228545Y-9907734D01*
X228545Y-9907734D02*
X247592Y-9917258D01*
X247592Y-9917258D02*
X257116Y-9926781D01*
X257116Y-9926781D02*
X266640Y-9945829D01*
X266640Y-9945829D02*
X276164Y-9983924D01*
X276164Y-9983924D02*
X276164Y-10031543D01*
X276164Y-10031543D02*
X266640Y-10069639D01*
X266640Y-10069639D02*
X257116Y-10088686D01*
X257116Y-10088686D02*
X247592Y-10098210D01*
X247592Y-10098210D02*
X228545Y-10107734D01*
X228545Y-10107734D02*
X209497Y-10107734D01*
X209497Y-10107734D02*
X190449Y-10098210D01*
X190449Y-10098210D02*
X180926Y-10088686D01*
X180926Y-10088686D02*
X171402Y-10069639D01*
X171402Y-10069639D02*
X161878Y-10031543D01*
X161878Y-10031543D02*
X161878Y-9983924D01*
X161878Y-9983924D02*
X171402Y-9945829D01*
X171402Y-9945829D02*
X180926Y-9926781D01*
X180926Y-9926781D02*
X190449Y-9917258D01*
X190449Y-9917258D02*
X209497Y-9907734D01*
X361878Y-10088686D02*
X371402Y-10098210D01*
X371402Y-10098210D02*
X361878Y-10107734D01*
X361878Y-10107734D02*
X352354Y-10098210D01*
X352354Y-10098210D02*
X361878Y-10088686D01*
X361878Y-10088686D02*
X361878Y-10107734D01*
X542830Y-9974400D02*
X542830Y-10107734D01*
X495211Y-9898210D02*
X447592Y-10041067D01*
X447592Y-10041067D02*
X571402Y-10041067D01*
X685688Y-9907734D02*
X704735Y-9907734D01*
X704735Y-9907734D02*
X723783Y-9917258D01*
X723783Y-9917258D02*
X733307Y-9926781D01*
X733307Y-9926781D02*
X742830Y-9945829D01*
X742830Y-9945829D02*
X752354Y-9983924D01*
X752354Y-9983924D02*
X752354Y-10031543D01*
X752354Y-10031543D02*
X742830Y-10069639D01*
X742830Y-10069639D02*
X733307Y-10088686D01*
X733307Y-10088686D02*
X723783Y-10098210D01*
X723783Y-10098210D02*
X704735Y-10107734D01*
X704735Y-10107734D02*
X685688Y-10107734D01*
X685688Y-10107734D02*
X666640Y-10098210D01*
X666640Y-10098210D02*
X657116Y-10088686D01*
X657116Y-10088686D02*
X647592Y-10069639D01*
X647592Y-10069639D02*
X638069Y-10031543D01*
X638069Y-10031543D02*
X638069Y-9983924D01*
X638069Y-9983924D02*
X647592Y-9945829D01*
X647592Y-9945829D02*
X657116Y-9926781D01*
X657116Y-9926781D02*
X666640Y-9917258D01*
X666640Y-9917258D02*
X685688Y-9907734D01*
X876164Y-9907734D02*
X895211Y-9907734D01*
X895211Y-9907734D02*
X914259Y-9917258D01*
X914259Y-9917258D02*
X923783Y-9926781D01*
X923783Y-9926781D02*
X933307Y-9945829D01*
X933307Y-9945829D02*
X942830Y-9983924D01*
X942830Y-9983924D02*
X942830Y-10031543D01*
X942830Y-10031543D02*
X933307Y-10069639D01*
X933307Y-10069639D02*
X923783Y-10088686D01*
X923783Y-10088686D02*
X914259Y-10098210D01*
X914259Y-10098210D02*
X895211Y-10107734D01*
X895211Y-10107734D02*
X876164Y-10107734D01*
X876164Y-10107734D02*
X857116Y-10098210D01*
X857116Y-10098210D02*
X847592Y-10088686D01*
X847592Y-10088686D02*
X838068Y-10069639D01*
X838068Y-10069639D02*
X828545Y-10031543D01*
X828545Y-10031543D02*
X828545Y-9983924D01*
X828545Y-9983924D02*
X838068Y-9945829D01*
X838068Y-9945829D02*
X847592Y-9926781D01*
X847592Y-9926781D02*
X857116Y-9917258D01*
X857116Y-9917258D02*
X876164Y-9907734D01*
X1028545Y-10107734D02*
X1028545Y-9974400D01*
X1028545Y-9993448D02*
X1038068Y-9983924D01*
X1038068Y-9983924D02*
X1057116Y-9974400D01*
X1057116Y-9974400D02*
X1085688Y-9974400D01*
X1085688Y-9974400D02*
X1104735Y-9983924D01*
X1104735Y-9983924D02*
X1114259Y-10002972D01*
X1114259Y-10002972D02*
X1114259Y-10107734D01*
X1114259Y-10002972D02*
X1123783Y-9983924D01*
X1123783Y-9983924D02*
X1142830Y-9974400D01*
X1142830Y-9974400D02*
X1171402Y-9974400D01*
X1171402Y-9974400D02*
X1190450Y-9983924D01*
X1190450Y-9983924D02*
X1199973Y-10002972D01*
X1199973Y-10002972D02*
X1199973Y-10107734D01*
X1295211Y-10107734D02*
X1295211Y-9974400D01*
X1295211Y-9993448D02*
X1304735Y-9983924D01*
X1304735Y-9983924D02*
X1323783Y-9974400D01*
X1323783Y-9974400D02*
X1352354Y-9974400D01*
X1352354Y-9974400D02*
X1371402Y-9983924D01*
X1371402Y-9983924D02*
X1380926Y-10002972D01*
X1380926Y-10002972D02*
X1380926Y-10107734D01*
X1380926Y-10002972D02*
X1390450Y-9983924D01*
X1390450Y-9983924D02*
X1409497Y-9974400D01*
X1409497Y-9974400D02*
X1438068Y-9974400D01*
X1438068Y-9974400D02*
X1457116Y-9983924D01*
X1457116Y-9983924D02*
X1466640Y-10002972D01*
X1466640Y-10002972D02*
X1466640Y-10107734D01*
X1857116Y-9898210D02*
X1685688Y-10155353D01*
X2114259Y-9907734D02*
X2133307Y-9907734D01*
X2133307Y-9907734D02*
X2152354Y-9917258D01*
X2152354Y-9917258D02*
X2161878Y-9926781D01*
X2161878Y-9926781D02*
X2171402Y-9945829D01*
X2171402Y-9945829D02*
X2180926Y-9983924D01*
X2180926Y-9983924D02*
X2180926Y-10031543D01*
X2180926Y-10031543D02*
X2171402Y-10069639D01*
X2171402Y-10069639D02*
X2161878Y-10088686D01*
X2161878Y-10088686D02*
X2152354Y-10098210D01*
X2152354Y-10098210D02*
X2133307Y-10107734D01*
X2133307Y-10107734D02*
X2114259Y-10107734D01*
X2114259Y-10107734D02*
X2095211Y-10098210D01*
X2095211Y-10098210D02*
X2085688Y-10088686D01*
X2085688Y-10088686D02*
X2076164Y-10069639D01*
X2076164Y-10069639D02*
X2066640Y-10031543D01*
X2066640Y-10031543D02*
X2066640Y-9983924D01*
X2066640Y-9983924D02*
X2076164Y-9945829D01*
X2076164Y-9945829D02*
X2085688Y-9926781D01*
X2085688Y-9926781D02*
X2095211Y-9917258D01*
X2095211Y-9917258D02*
X2114259Y-9907734D01*
X2266640Y-10088686D02*
X2276164Y-10098210D01*
X2276164Y-10098210D02*
X2266640Y-10107734D01*
X2266640Y-10107734D02*
X2257116Y-10098210D01*
X2257116Y-10098210D02*
X2266640Y-10088686D01*
X2266640Y-10088686D02*
X2266640Y-10107734D01*
X2399973Y-9907734D02*
X2419021Y-9907734D01*
X2419021Y-9907734D02*
X2438069Y-9917258D01*
X2438069Y-9917258D02*
X2447593Y-9926781D01*
X2447593Y-9926781D02*
X2457116Y-9945829D01*
X2457116Y-9945829D02*
X2466640Y-9983924D01*
X2466640Y-9983924D02*
X2466640Y-10031543D01*
X2466640Y-10031543D02*
X2457116Y-10069639D01*
X2457116Y-10069639D02*
X2447593Y-10088686D01*
X2447593Y-10088686D02*
X2438069Y-10098210D01*
X2438069Y-10098210D02*
X2419021Y-10107734D01*
X2419021Y-10107734D02*
X2399973Y-10107734D01*
X2399973Y-10107734D02*
X2380926Y-10098210D01*
X2380926Y-10098210D02*
X2371402Y-10088686D01*
X2371402Y-10088686D02*
X2361878Y-10069639D01*
X2361878Y-10069639D02*
X2352354Y-10031543D01*
X2352354Y-10031543D02*
X2352354Y-9983924D01*
X2352354Y-9983924D02*
X2361878Y-9945829D01*
X2361878Y-9945829D02*
X2371402Y-9926781D01*
X2371402Y-9926781D02*
X2380926Y-9917258D01*
X2380926Y-9917258D02*
X2399973Y-9907734D01*
X2657116Y-10107734D02*
X2542831Y-10107734D01*
X2599973Y-10107734D02*
X2599973Y-9907734D01*
X2599973Y-9907734D02*
X2580926Y-9936305D01*
X2580926Y-9936305D02*
X2561878Y-9955353D01*
X2561878Y-9955353D02*
X2542831Y-9964877D01*
X2838069Y-9907734D02*
X2742831Y-9907734D01*
X2742831Y-9907734D02*
X2733307Y-10002972D01*
X2733307Y-10002972D02*
X2742831Y-9993448D01*
X2742831Y-9993448D02*
X2761878Y-9983924D01*
X2761878Y-9983924D02*
X2809497Y-9983924D01*
X2809497Y-9983924D02*
X2828545Y-9993448D01*
X2828545Y-9993448D02*
X2838069Y-10002972D01*
X2838069Y-10002972D02*
X2847592Y-10022020D01*
X2847592Y-10022020D02*
X2847592Y-10069639D01*
X2847592Y-10069639D02*
X2838069Y-10088686D01*
X2838069Y-10088686D02*
X2828545Y-10098210D01*
X2828545Y-10098210D02*
X2809497Y-10107734D01*
X2809497Y-10107734D02*
X2761878Y-10107734D01*
X2761878Y-10107734D02*
X2742831Y-10098210D01*
X2742831Y-10098210D02*
X2733307Y-10088686D01*
X2914259Y-9907734D02*
X3047592Y-9907734D01*
X3047592Y-9907734D02*
X2961878Y-10107734D01*
X3114259Y-9907734D02*
X3114259Y-9945829D01*
X3190450Y-9907734D02*
X3190450Y-9945829D01*
X3485688Y-10183924D02*
X3476164Y-10174400D01*
X3476164Y-10174400D02*
X3457116Y-10145829D01*
X3457116Y-10145829D02*
X3447593Y-10126781D01*
X3447593Y-10126781D02*
X3438069Y-10098210D01*
X3438069Y-10098210D02*
X3428545Y-10050591D01*
X3428545Y-10050591D02*
X3428545Y-10012496D01*
X3428545Y-10012496D02*
X3438069Y-9964877D01*
X3438069Y-9964877D02*
X3447593Y-9936305D01*
X3447593Y-9936305D02*
X3457116Y-9917258D01*
X3457116Y-9917258D02*
X3476164Y-9888686D01*
X3476164Y-9888686D02*
X3485688Y-9879162D01*
X3666640Y-10107734D02*
X3552354Y-10107734D01*
X3609497Y-10107734D02*
X3609497Y-9907734D01*
X3609497Y-9907734D02*
X3590450Y-9936305D01*
X3590450Y-9936305D02*
X3571402Y-9955353D01*
X3571402Y-9955353D02*
X3552354Y-9964877D01*
X3742831Y-9926781D02*
X3752354Y-9917258D01*
X3752354Y-9917258D02*
X3771402Y-9907734D01*
X3771402Y-9907734D02*
X3819021Y-9907734D01*
X3819021Y-9907734D02*
X3838069Y-9917258D01*
X3838069Y-9917258D02*
X3847593Y-9926781D01*
X3847593Y-9926781D02*
X3857116Y-9945829D01*
X3857116Y-9945829D02*
X3857116Y-9964877D01*
X3857116Y-9964877D02*
X3847593Y-9993448D01*
X3847593Y-9993448D02*
X3733307Y-10107734D01*
X3733307Y-10107734D02*
X3857116Y-10107734D01*
X3923783Y-9907734D02*
X4057116Y-9907734D01*
X4057116Y-9907734D02*
X3971402Y-10107734D01*
X4285688Y-10107734D02*
X4285688Y-9907734D01*
X4371402Y-10107734D02*
X4371402Y-10002972D01*
X4371402Y-10002972D02*
X4361878Y-9983924D01*
X4361878Y-9983924D02*
X4342831Y-9974400D01*
X4342831Y-9974400D02*
X4314259Y-9974400D01*
X4314259Y-9974400D02*
X4295212Y-9983924D01*
X4295212Y-9983924D02*
X4285688Y-9993448D01*
X4495212Y-10107734D02*
X4476164Y-10098210D01*
X4476164Y-10098210D02*
X4466640Y-10088686D01*
X4466640Y-10088686D02*
X4457117Y-10069639D01*
X4457117Y-10069639D02*
X4457117Y-10012496D01*
X4457117Y-10012496D02*
X4466640Y-9993448D01*
X4466640Y-9993448D02*
X4476164Y-9983924D01*
X4476164Y-9983924D02*
X4495212Y-9974400D01*
X4495212Y-9974400D02*
X4523783Y-9974400D01*
X4523783Y-9974400D02*
X4542831Y-9983924D01*
X4542831Y-9983924D02*
X4552355Y-9993448D01*
X4552355Y-9993448D02*
X4561878Y-10012496D01*
X4561878Y-10012496D02*
X4561878Y-10069639D01*
X4561878Y-10069639D02*
X4552355Y-10088686D01*
X4552355Y-10088686D02*
X4542831Y-10098210D01*
X4542831Y-10098210D02*
X4523783Y-10107734D01*
X4523783Y-10107734D02*
X4495212Y-10107734D01*
X4676164Y-10107734D02*
X4657117Y-10098210D01*
X4657117Y-10098210D02*
X4647593Y-10079162D01*
X4647593Y-10079162D02*
X4647593Y-9907734D01*
X4828545Y-10098210D02*
X4809498Y-10107734D01*
X4809498Y-10107734D02*
X4771402Y-10107734D01*
X4771402Y-10107734D02*
X4752355Y-10098210D01*
X4752355Y-10098210D02*
X4742831Y-10079162D01*
X4742831Y-10079162D02*
X4742831Y-10002972D01*
X4742831Y-10002972D02*
X4752355Y-9983924D01*
X4752355Y-9983924D02*
X4771402Y-9974400D01*
X4771402Y-9974400D02*
X4809498Y-9974400D01*
X4809498Y-9974400D02*
X4828545Y-9983924D01*
X4828545Y-9983924D02*
X4838069Y-10002972D01*
X4838069Y-10002972D02*
X4838069Y-10022020D01*
X4838069Y-10022020D02*
X4742831Y-10041067D01*
X4914259Y-10098210D02*
X4933307Y-10107734D01*
X4933307Y-10107734D02*
X4971402Y-10107734D01*
X4971402Y-10107734D02*
X4990450Y-10098210D01*
X4990450Y-10098210D02*
X4999974Y-10079162D01*
X4999974Y-10079162D02*
X4999974Y-10069639D01*
X4999974Y-10069639D02*
X4990450Y-10050591D01*
X4990450Y-10050591D02*
X4971402Y-10041067D01*
X4971402Y-10041067D02*
X4942831Y-10041067D01*
X4942831Y-10041067D02*
X4923783Y-10031543D01*
X4923783Y-10031543D02*
X4914259Y-10012496D01*
X4914259Y-10012496D02*
X4914259Y-10002972D01*
X4914259Y-10002972D02*
X4923783Y-9983924D01*
X4923783Y-9983924D02*
X4942831Y-9974400D01*
X4942831Y-9974400D02*
X4971402Y-9974400D01*
X4971402Y-9974400D02*
X4990450Y-9983924D01*
X5066640Y-10183924D02*
X5076164Y-10174400D01*
X5076164Y-10174400D02*
X5095212Y-10145829D01*
X5095212Y-10145829D02*
X5104736Y-10126781D01*
X5104736Y-10126781D02*
X5114259Y-10098210D01*
X5114259Y-10098210D02*
X5123783Y-10050591D01*
X5123783Y-10050591D02*
X5123783Y-10012496D01*
X5123783Y-10012496D02*
X5114259Y-9964877D01*
X5114259Y-9964877D02*
X5104736Y-9936305D01*
X5104736Y-9936305D02*
X5095212Y-9917258D01*
X5095212Y-9917258D02*
X5076164Y-9888686D01*
X5076164Y-9888686D02*
X5066640Y-9879162D01*
D12*
X-89375Y-10280250D02*
G75*
G02*
X-149375Y-10280250I-30000J0D01*
G01*
X-149375Y-10280250D02*
G75*
G02*
X-89375Y-10280250I30000J0D01*
G01*
D10*
X209497Y-10171734D02*
X228545Y-10171734D01*
X228545Y-10171734D02*
X247592Y-10181258D01*
X247592Y-10181258D02*
X257116Y-10190781D01*
X257116Y-10190781D02*
X266640Y-10209829D01*
X266640Y-10209829D02*
X276164Y-10247924D01*
X276164Y-10247924D02*
X276164Y-10295543D01*
X276164Y-10295543D02*
X266640Y-10333639D01*
X266640Y-10333639D02*
X257116Y-10352686D01*
X257116Y-10352686D02*
X247592Y-10362210D01*
X247592Y-10362210D02*
X228545Y-10371734D01*
X228545Y-10371734D02*
X209497Y-10371734D01*
X209497Y-10371734D02*
X190449Y-10362210D01*
X190449Y-10362210D02*
X180926Y-10352686D01*
X180926Y-10352686D02*
X171402Y-10333639D01*
X171402Y-10333639D02*
X161878Y-10295543D01*
X161878Y-10295543D02*
X161878Y-10247924D01*
X161878Y-10247924D02*
X171402Y-10209829D01*
X171402Y-10209829D02*
X180926Y-10190781D01*
X180926Y-10190781D02*
X190449Y-10181258D01*
X190449Y-10181258D02*
X209497Y-10171734D01*
X361878Y-10352686D02*
X371402Y-10362210D01*
X371402Y-10362210D02*
X361878Y-10371734D01*
X361878Y-10371734D02*
X352354Y-10362210D01*
X352354Y-10362210D02*
X361878Y-10352686D01*
X361878Y-10352686D02*
X361878Y-10371734D01*
X542830Y-10171734D02*
X504735Y-10171734D01*
X504735Y-10171734D02*
X485687Y-10181258D01*
X485687Y-10181258D02*
X476164Y-10190781D01*
X476164Y-10190781D02*
X457116Y-10219353D01*
X457116Y-10219353D02*
X447592Y-10257448D01*
X447592Y-10257448D02*
X447592Y-10333639D01*
X447592Y-10333639D02*
X457116Y-10352686D01*
X457116Y-10352686D02*
X466640Y-10362210D01*
X466640Y-10362210D02*
X485687Y-10371734D01*
X485687Y-10371734D02*
X523783Y-10371734D01*
X523783Y-10371734D02*
X542830Y-10362210D01*
X542830Y-10362210D02*
X552354Y-10352686D01*
X552354Y-10352686D02*
X561878Y-10333639D01*
X561878Y-10333639D02*
X561878Y-10286020D01*
X561878Y-10286020D02*
X552354Y-10266972D01*
X552354Y-10266972D02*
X542830Y-10257448D01*
X542830Y-10257448D02*
X523783Y-10247924D01*
X523783Y-10247924D02*
X485687Y-10247924D01*
X485687Y-10247924D02*
X466640Y-10257448D01*
X466640Y-10257448D02*
X457116Y-10266972D01*
X457116Y-10266972D02*
X447592Y-10286020D01*
X685688Y-10171734D02*
X704735Y-10171734D01*
X704735Y-10171734D02*
X723783Y-10181258D01*
X723783Y-10181258D02*
X733307Y-10190781D01*
X733307Y-10190781D02*
X742830Y-10209829D01*
X742830Y-10209829D02*
X752354Y-10247924D01*
X752354Y-10247924D02*
X752354Y-10295543D01*
X752354Y-10295543D02*
X742830Y-10333639D01*
X742830Y-10333639D02*
X733307Y-10352686D01*
X733307Y-10352686D02*
X723783Y-10362210D01*
X723783Y-10362210D02*
X704735Y-10371734D01*
X704735Y-10371734D02*
X685688Y-10371734D01*
X685688Y-10371734D02*
X666640Y-10362210D01*
X666640Y-10362210D02*
X657116Y-10352686D01*
X657116Y-10352686D02*
X647592Y-10333639D01*
X647592Y-10333639D02*
X638069Y-10295543D01*
X638069Y-10295543D02*
X638069Y-10247924D01*
X638069Y-10247924D02*
X647592Y-10209829D01*
X647592Y-10209829D02*
X657116Y-10190781D01*
X657116Y-10190781D02*
X666640Y-10181258D01*
X666640Y-10181258D02*
X685688Y-10171734D01*
X876164Y-10171734D02*
X895211Y-10171734D01*
X895211Y-10171734D02*
X914259Y-10181258D01*
X914259Y-10181258D02*
X923783Y-10190781D01*
X923783Y-10190781D02*
X933307Y-10209829D01*
X933307Y-10209829D02*
X942830Y-10247924D01*
X942830Y-10247924D02*
X942830Y-10295543D01*
X942830Y-10295543D02*
X933307Y-10333639D01*
X933307Y-10333639D02*
X923783Y-10352686D01*
X923783Y-10352686D02*
X914259Y-10362210D01*
X914259Y-10362210D02*
X895211Y-10371734D01*
X895211Y-10371734D02*
X876164Y-10371734D01*
X876164Y-10371734D02*
X857116Y-10362210D01*
X857116Y-10362210D02*
X847592Y-10352686D01*
X847592Y-10352686D02*
X838068Y-10333639D01*
X838068Y-10333639D02*
X828545Y-10295543D01*
X828545Y-10295543D02*
X828545Y-10247924D01*
X828545Y-10247924D02*
X838068Y-10209829D01*
X838068Y-10209829D02*
X847592Y-10190781D01*
X847592Y-10190781D02*
X857116Y-10181258D01*
X857116Y-10181258D02*
X876164Y-10171734D01*
X1028545Y-10371734D02*
X1028545Y-10238400D01*
X1028545Y-10257448D02*
X1038068Y-10247924D01*
X1038068Y-10247924D02*
X1057116Y-10238400D01*
X1057116Y-10238400D02*
X1085688Y-10238400D01*
X1085688Y-10238400D02*
X1104735Y-10247924D01*
X1104735Y-10247924D02*
X1114259Y-10266972D01*
X1114259Y-10266972D02*
X1114259Y-10371734D01*
X1114259Y-10266972D02*
X1123783Y-10247924D01*
X1123783Y-10247924D02*
X1142830Y-10238400D01*
X1142830Y-10238400D02*
X1171402Y-10238400D01*
X1171402Y-10238400D02*
X1190450Y-10247924D01*
X1190450Y-10247924D02*
X1199973Y-10266972D01*
X1199973Y-10266972D02*
X1199973Y-10371734D01*
X1295211Y-10371734D02*
X1295211Y-10238400D01*
X1295211Y-10257448D02*
X1304735Y-10247924D01*
X1304735Y-10247924D02*
X1323783Y-10238400D01*
X1323783Y-10238400D02*
X1352354Y-10238400D01*
X1352354Y-10238400D02*
X1371402Y-10247924D01*
X1371402Y-10247924D02*
X1380926Y-10266972D01*
X1380926Y-10266972D02*
X1380926Y-10371734D01*
X1380926Y-10266972D02*
X1390450Y-10247924D01*
X1390450Y-10247924D02*
X1409497Y-10238400D01*
X1409497Y-10238400D02*
X1438068Y-10238400D01*
X1438068Y-10238400D02*
X1457116Y-10247924D01*
X1457116Y-10247924D02*
X1466640Y-10266972D01*
X1466640Y-10266972D02*
X1466640Y-10371734D01*
X1857116Y-10162210D02*
X1685688Y-10419353D01*
X2114259Y-10171734D02*
X2133307Y-10171734D01*
X2133307Y-10171734D02*
X2152354Y-10181258D01*
X2152354Y-10181258D02*
X2161878Y-10190781D01*
X2161878Y-10190781D02*
X2171402Y-10209829D01*
X2171402Y-10209829D02*
X2180926Y-10247924D01*
X2180926Y-10247924D02*
X2180926Y-10295543D01*
X2180926Y-10295543D02*
X2171402Y-10333639D01*
X2171402Y-10333639D02*
X2161878Y-10352686D01*
X2161878Y-10352686D02*
X2152354Y-10362210D01*
X2152354Y-10362210D02*
X2133307Y-10371734D01*
X2133307Y-10371734D02*
X2114259Y-10371734D01*
X2114259Y-10371734D02*
X2095211Y-10362210D01*
X2095211Y-10362210D02*
X2085688Y-10352686D01*
X2085688Y-10352686D02*
X2076164Y-10333639D01*
X2076164Y-10333639D02*
X2066640Y-10295543D01*
X2066640Y-10295543D02*
X2066640Y-10247924D01*
X2066640Y-10247924D02*
X2076164Y-10209829D01*
X2076164Y-10209829D02*
X2085688Y-10190781D01*
X2085688Y-10190781D02*
X2095211Y-10181258D01*
X2095211Y-10181258D02*
X2114259Y-10171734D01*
X2266640Y-10352686D02*
X2276164Y-10362210D01*
X2276164Y-10362210D02*
X2266640Y-10371734D01*
X2266640Y-10371734D02*
X2257116Y-10362210D01*
X2257116Y-10362210D02*
X2266640Y-10352686D01*
X2266640Y-10352686D02*
X2266640Y-10371734D01*
X2399973Y-10171734D02*
X2419021Y-10171734D01*
X2419021Y-10171734D02*
X2438069Y-10181258D01*
X2438069Y-10181258D02*
X2447593Y-10190781D01*
X2447593Y-10190781D02*
X2457116Y-10209829D01*
X2457116Y-10209829D02*
X2466640Y-10247924D01*
X2466640Y-10247924D02*
X2466640Y-10295543D01*
X2466640Y-10295543D02*
X2457116Y-10333639D01*
X2457116Y-10333639D02*
X2447593Y-10352686D01*
X2447593Y-10352686D02*
X2438069Y-10362210D01*
X2438069Y-10362210D02*
X2419021Y-10371734D01*
X2419021Y-10371734D02*
X2399973Y-10371734D01*
X2399973Y-10371734D02*
X2380926Y-10362210D01*
X2380926Y-10362210D02*
X2371402Y-10352686D01*
X2371402Y-10352686D02*
X2361878Y-10333639D01*
X2361878Y-10333639D02*
X2352354Y-10295543D01*
X2352354Y-10295543D02*
X2352354Y-10247924D01*
X2352354Y-10247924D02*
X2361878Y-10209829D01*
X2361878Y-10209829D02*
X2371402Y-10190781D01*
X2371402Y-10190781D02*
X2380926Y-10181258D01*
X2380926Y-10181258D02*
X2399973Y-10171734D01*
X2542831Y-10190781D02*
X2552354Y-10181258D01*
X2552354Y-10181258D02*
X2571402Y-10171734D01*
X2571402Y-10171734D02*
X2619021Y-10171734D01*
X2619021Y-10171734D02*
X2638069Y-10181258D01*
X2638069Y-10181258D02*
X2647593Y-10190781D01*
X2647593Y-10190781D02*
X2657116Y-10209829D01*
X2657116Y-10209829D02*
X2657116Y-10228877D01*
X2657116Y-10228877D02*
X2647593Y-10257448D01*
X2647593Y-10257448D02*
X2533307Y-10371734D01*
X2533307Y-10371734D02*
X2657116Y-10371734D01*
X2723783Y-10171734D02*
X2847592Y-10171734D01*
X2847592Y-10171734D02*
X2780926Y-10247924D01*
X2780926Y-10247924D02*
X2809497Y-10247924D01*
X2809497Y-10247924D02*
X2828545Y-10257448D01*
X2828545Y-10257448D02*
X2838069Y-10266972D01*
X2838069Y-10266972D02*
X2847592Y-10286020D01*
X2847592Y-10286020D02*
X2847592Y-10333639D01*
X2847592Y-10333639D02*
X2838069Y-10352686D01*
X2838069Y-10352686D02*
X2828545Y-10362210D01*
X2828545Y-10362210D02*
X2809497Y-10371734D01*
X2809497Y-10371734D02*
X2752354Y-10371734D01*
X2752354Y-10371734D02*
X2733307Y-10362210D01*
X2733307Y-10362210D02*
X2723783Y-10352686D01*
X3019021Y-10171734D02*
X2980926Y-10171734D01*
X2980926Y-10171734D02*
X2961878Y-10181258D01*
X2961878Y-10181258D02*
X2952354Y-10190781D01*
X2952354Y-10190781D02*
X2933307Y-10219353D01*
X2933307Y-10219353D02*
X2923783Y-10257448D01*
X2923783Y-10257448D02*
X2923783Y-10333639D01*
X2923783Y-10333639D02*
X2933307Y-10352686D01*
X2933307Y-10352686D02*
X2942831Y-10362210D01*
X2942831Y-10362210D02*
X2961878Y-10371734D01*
X2961878Y-10371734D02*
X2999973Y-10371734D01*
X2999973Y-10371734D02*
X3019021Y-10362210D01*
X3019021Y-10362210D02*
X3028545Y-10352686D01*
X3028545Y-10352686D02*
X3038069Y-10333639D01*
X3038069Y-10333639D02*
X3038069Y-10286020D01*
X3038069Y-10286020D02*
X3028545Y-10266972D01*
X3028545Y-10266972D02*
X3019021Y-10257448D01*
X3019021Y-10257448D02*
X2999973Y-10247924D01*
X2999973Y-10247924D02*
X2961878Y-10247924D01*
X2961878Y-10247924D02*
X2942831Y-10257448D01*
X2942831Y-10257448D02*
X2933307Y-10266972D01*
X2933307Y-10266972D02*
X2923783Y-10286020D01*
X3114259Y-10171734D02*
X3114259Y-10209829D01*
X3190450Y-10171734D02*
X3190450Y-10209829D01*
X3485688Y-10447924D02*
X3476164Y-10438400D01*
X3476164Y-10438400D02*
X3457116Y-10409829D01*
X3457116Y-10409829D02*
X3447593Y-10390781D01*
X3447593Y-10390781D02*
X3438069Y-10362210D01*
X3438069Y-10362210D02*
X3428545Y-10314591D01*
X3428545Y-10314591D02*
X3428545Y-10276496D01*
X3428545Y-10276496D02*
X3438069Y-10228877D01*
X3438069Y-10228877D02*
X3447593Y-10200305D01*
X3447593Y-10200305D02*
X3457116Y-10181258D01*
X3457116Y-10181258D02*
X3476164Y-10152686D01*
X3476164Y-10152686D02*
X3485688Y-10143162D01*
X3599973Y-10171734D02*
X3619021Y-10171734D01*
X3619021Y-10171734D02*
X3638069Y-10181258D01*
X3638069Y-10181258D02*
X3647593Y-10190781D01*
X3647593Y-10190781D02*
X3657116Y-10209829D01*
X3657116Y-10209829D02*
X3666640Y-10247924D01*
X3666640Y-10247924D02*
X3666640Y-10295543D01*
X3666640Y-10295543D02*
X3657116Y-10333639D01*
X3657116Y-10333639D02*
X3647593Y-10352686D01*
X3647593Y-10352686D02*
X3638069Y-10362210D01*
X3638069Y-10362210D02*
X3619021Y-10371734D01*
X3619021Y-10371734D02*
X3599973Y-10371734D01*
X3599973Y-10371734D02*
X3580926Y-10362210D01*
X3580926Y-10362210D02*
X3571402Y-10352686D01*
X3571402Y-10352686D02*
X3561878Y-10333639D01*
X3561878Y-10333639D02*
X3552354Y-10295543D01*
X3552354Y-10295543D02*
X3552354Y-10247924D01*
X3552354Y-10247924D02*
X3561878Y-10209829D01*
X3561878Y-10209829D02*
X3571402Y-10190781D01*
X3571402Y-10190781D02*
X3580926Y-10181258D01*
X3580926Y-10181258D02*
X3599973Y-10171734D01*
X3904735Y-10371734D02*
X3904735Y-10171734D01*
X3990450Y-10371734D02*
X3990450Y-10266972D01*
X3990450Y-10266972D02*
X3980926Y-10247924D01*
X3980926Y-10247924D02*
X3961878Y-10238400D01*
X3961878Y-10238400D02*
X3933307Y-10238400D01*
X3933307Y-10238400D02*
X3914259Y-10247924D01*
X3914259Y-10247924D02*
X3904735Y-10257448D01*
X4114259Y-10371734D02*
X4095212Y-10362210D01*
X4095212Y-10362210D02*
X4085688Y-10352686D01*
X4085688Y-10352686D02*
X4076164Y-10333639D01*
X4076164Y-10333639D02*
X4076164Y-10276496D01*
X4076164Y-10276496D02*
X4085688Y-10257448D01*
X4085688Y-10257448D02*
X4095212Y-10247924D01*
X4095212Y-10247924D02*
X4114259Y-10238400D01*
X4114259Y-10238400D02*
X4142831Y-10238400D01*
X4142831Y-10238400D02*
X4161878Y-10247924D01*
X4161878Y-10247924D02*
X4171402Y-10257448D01*
X4171402Y-10257448D02*
X4180926Y-10276496D01*
X4180926Y-10276496D02*
X4180926Y-10333639D01*
X4180926Y-10333639D02*
X4171402Y-10352686D01*
X4171402Y-10352686D02*
X4161878Y-10362210D01*
X4161878Y-10362210D02*
X4142831Y-10371734D01*
X4142831Y-10371734D02*
X4114259Y-10371734D01*
X4295212Y-10371734D02*
X4276164Y-10362210D01*
X4276164Y-10362210D02*
X4266640Y-10343162D01*
X4266640Y-10343162D02*
X4266640Y-10171734D01*
X4447593Y-10362210D02*
X4428545Y-10371734D01*
X4428545Y-10371734D02*
X4390450Y-10371734D01*
X4390450Y-10371734D02*
X4371402Y-10362210D01*
X4371402Y-10362210D02*
X4361878Y-10343162D01*
X4361878Y-10343162D02*
X4361878Y-10266972D01*
X4361878Y-10266972D02*
X4371402Y-10247924D01*
X4371402Y-10247924D02*
X4390450Y-10238400D01*
X4390450Y-10238400D02*
X4428545Y-10238400D01*
X4428545Y-10238400D02*
X4447593Y-10247924D01*
X4447593Y-10247924D02*
X4457117Y-10266972D01*
X4457117Y-10266972D02*
X4457117Y-10286020D01*
X4457117Y-10286020D02*
X4361878Y-10305067D01*
X4533307Y-10362210D02*
X4552355Y-10371734D01*
X4552355Y-10371734D02*
X4590450Y-10371734D01*
X4590450Y-10371734D02*
X4609498Y-10362210D01*
X4609498Y-10362210D02*
X4619021Y-10343162D01*
X4619021Y-10343162D02*
X4619021Y-10333639D01*
X4619021Y-10333639D02*
X4609498Y-10314591D01*
X4609498Y-10314591D02*
X4590450Y-10305067D01*
X4590450Y-10305067D02*
X4561878Y-10305067D01*
X4561878Y-10305067D02*
X4542831Y-10295543D01*
X4542831Y-10295543D02*
X4533307Y-10276496D01*
X4533307Y-10276496D02*
X4533307Y-10266972D01*
X4533307Y-10266972D02*
X4542831Y-10247924D01*
X4542831Y-10247924D02*
X4561878Y-10238400D01*
X4561878Y-10238400D02*
X4590450Y-10238400D01*
X4590450Y-10238400D02*
X4609498Y-10247924D01*
X4857117Y-10295543D02*
X5009498Y-10295543D01*
X4933307Y-10371734D02*
X4933307Y-10219353D01*
X5342831Y-10238400D02*
X5342831Y-10371734D01*
X5295212Y-10162210D02*
X5247593Y-10305067D01*
X5247593Y-10305067D02*
X5371402Y-10305067D01*
X5590450Y-10362210D02*
X5609498Y-10371734D01*
X5609498Y-10371734D02*
X5647593Y-10371734D01*
X5647593Y-10371734D02*
X5666640Y-10362210D01*
X5666640Y-10362210D02*
X5676164Y-10343162D01*
X5676164Y-10343162D02*
X5676164Y-10333639D01*
X5676164Y-10333639D02*
X5666640Y-10314591D01*
X5666640Y-10314591D02*
X5647593Y-10305067D01*
X5647593Y-10305067D02*
X5619021Y-10305067D01*
X5619021Y-10305067D02*
X5599974Y-10295543D01*
X5599974Y-10295543D02*
X5590450Y-10276496D01*
X5590450Y-10276496D02*
X5590450Y-10266972D01*
X5590450Y-10266972D02*
X5599974Y-10247924D01*
X5599974Y-10247924D02*
X5619021Y-10238400D01*
X5619021Y-10238400D02*
X5647593Y-10238400D01*
X5647593Y-10238400D02*
X5666640Y-10247924D01*
X5790450Y-10371734D02*
X5771402Y-10362210D01*
X5771402Y-10362210D02*
X5761879Y-10343162D01*
X5761879Y-10343162D02*
X5761879Y-10171734D01*
X5895212Y-10371734D02*
X5876164Y-10362210D01*
X5876164Y-10362210D02*
X5866640Y-10352686D01*
X5866640Y-10352686D02*
X5857117Y-10333639D01*
X5857117Y-10333639D02*
X5857117Y-10276496D01*
X5857117Y-10276496D02*
X5866640Y-10257448D01*
X5866640Y-10257448D02*
X5876164Y-10247924D01*
X5876164Y-10247924D02*
X5895212Y-10238400D01*
X5895212Y-10238400D02*
X5923783Y-10238400D01*
X5923783Y-10238400D02*
X5942831Y-10247924D01*
X5942831Y-10247924D02*
X5952355Y-10257448D01*
X5952355Y-10257448D02*
X5961879Y-10276496D01*
X5961879Y-10276496D02*
X5961879Y-10333639D01*
X5961879Y-10333639D02*
X5952355Y-10352686D01*
X5952355Y-10352686D02*
X5942831Y-10362210D01*
X5942831Y-10362210D02*
X5923783Y-10371734D01*
X5923783Y-10371734D02*
X5895212Y-10371734D01*
X6019021Y-10238400D02*
X6095212Y-10238400D01*
X6047593Y-10171734D02*
X6047593Y-10343162D01*
X6047593Y-10343162D02*
X6057117Y-10362210D01*
X6057117Y-10362210D02*
X6076164Y-10371734D01*
X6076164Y-10371734D02*
X6095212Y-10371734D01*
X6152355Y-10362210D02*
X6171402Y-10371734D01*
X6171402Y-10371734D02*
X6209498Y-10371734D01*
X6209498Y-10371734D02*
X6228545Y-10362210D01*
X6228545Y-10362210D02*
X6238069Y-10343162D01*
X6238069Y-10343162D02*
X6238069Y-10333639D01*
X6238069Y-10333639D02*
X6228545Y-10314591D01*
X6228545Y-10314591D02*
X6209498Y-10305067D01*
X6209498Y-10305067D02*
X6180926Y-10305067D01*
X6180926Y-10305067D02*
X6161879Y-10295543D01*
X6161879Y-10295543D02*
X6152355Y-10276496D01*
X6152355Y-10276496D02*
X6152355Y-10266972D01*
X6152355Y-10266972D02*
X6161879Y-10247924D01*
X6161879Y-10247924D02*
X6180926Y-10238400D01*
X6180926Y-10238400D02*
X6209498Y-10238400D01*
X6209498Y-10238400D02*
X6228545Y-10247924D01*
X6304736Y-10447924D02*
X6314260Y-10438400D01*
X6314260Y-10438400D02*
X6333307Y-10409829D01*
X6333307Y-10409829D02*
X6342831Y-10390781D01*
X6342831Y-10390781D02*
X6352355Y-10362210D01*
X6352355Y-10362210D02*
X6361879Y-10314591D01*
X6361879Y-10314591D02*
X6361879Y-10276496D01*
X6361879Y-10276496D02*
X6352355Y-10228877D01*
X6352355Y-10228877D02*
X6342831Y-10200305D01*
X6342831Y-10200305D02*
X6333307Y-10181258D01*
X6333307Y-10181258D02*
X6314260Y-10152686D01*
X6314260Y-10152686D02*
X6304736Y-10143162D01*
D12*
X-139375Y-10494250D02*
X-139375Y-10594250D01*
X-189375Y-10544250D02*
X-89375Y-10544250D01*
D10*
X276164Y-10635734D02*
X161878Y-10635734D01*
X219021Y-10635734D02*
X219021Y-10435734D01*
X219021Y-10435734D02*
X199973Y-10464305D01*
X199973Y-10464305D02*
X180926Y-10483353D01*
X180926Y-10483353D02*
X161878Y-10492877D01*
X361878Y-10616686D02*
X371402Y-10626210D01*
X371402Y-10626210D02*
X361878Y-10635734D01*
X361878Y-10635734D02*
X352354Y-10626210D01*
X352354Y-10626210D02*
X361878Y-10616686D01*
X361878Y-10616686D02*
X361878Y-10635734D01*
X495211Y-10435734D02*
X514259Y-10435734D01*
X514259Y-10435734D02*
X533307Y-10445258D01*
X533307Y-10445258D02*
X542830Y-10454781D01*
X542830Y-10454781D02*
X552354Y-10473829D01*
X552354Y-10473829D02*
X561878Y-10511924D01*
X561878Y-10511924D02*
X561878Y-10559543D01*
X561878Y-10559543D02*
X552354Y-10597639D01*
X552354Y-10597639D02*
X542830Y-10616686D01*
X542830Y-10616686D02*
X533307Y-10626210D01*
X533307Y-10626210D02*
X514259Y-10635734D01*
X514259Y-10635734D02*
X495211Y-10635734D01*
X495211Y-10635734D02*
X476164Y-10626210D01*
X476164Y-10626210D02*
X466640Y-10616686D01*
X466640Y-10616686D02*
X457116Y-10597639D01*
X457116Y-10597639D02*
X447592Y-10559543D01*
X447592Y-10559543D02*
X447592Y-10511924D01*
X447592Y-10511924D02*
X457116Y-10473829D01*
X457116Y-10473829D02*
X466640Y-10454781D01*
X466640Y-10454781D02*
X476164Y-10445258D01*
X476164Y-10445258D02*
X495211Y-10435734D01*
X685688Y-10435734D02*
X704735Y-10435734D01*
X704735Y-10435734D02*
X723783Y-10445258D01*
X723783Y-10445258D02*
X733307Y-10454781D01*
X733307Y-10454781D02*
X742830Y-10473829D01*
X742830Y-10473829D02*
X752354Y-10511924D01*
X752354Y-10511924D02*
X752354Y-10559543D01*
X752354Y-10559543D02*
X742830Y-10597639D01*
X742830Y-10597639D02*
X733307Y-10616686D01*
X733307Y-10616686D02*
X723783Y-10626210D01*
X723783Y-10626210D02*
X704735Y-10635734D01*
X704735Y-10635734D02*
X685688Y-10635734D01*
X685688Y-10635734D02*
X666640Y-10626210D01*
X666640Y-10626210D02*
X657116Y-10616686D01*
X657116Y-10616686D02*
X647592Y-10597639D01*
X647592Y-10597639D02*
X638069Y-10559543D01*
X638069Y-10559543D02*
X638069Y-10511924D01*
X638069Y-10511924D02*
X647592Y-10473829D01*
X647592Y-10473829D02*
X657116Y-10454781D01*
X657116Y-10454781D02*
X666640Y-10445258D01*
X666640Y-10445258D02*
X685688Y-10435734D01*
X876164Y-10435734D02*
X895211Y-10435734D01*
X895211Y-10435734D02*
X914259Y-10445258D01*
X914259Y-10445258D02*
X923783Y-10454781D01*
X923783Y-10454781D02*
X933307Y-10473829D01*
X933307Y-10473829D02*
X942830Y-10511924D01*
X942830Y-10511924D02*
X942830Y-10559543D01*
X942830Y-10559543D02*
X933307Y-10597639D01*
X933307Y-10597639D02*
X923783Y-10616686D01*
X923783Y-10616686D02*
X914259Y-10626210D01*
X914259Y-10626210D02*
X895211Y-10635734D01*
X895211Y-10635734D02*
X876164Y-10635734D01*
X876164Y-10635734D02*
X857116Y-10626210D01*
X857116Y-10626210D02*
X847592Y-10616686D01*
X847592Y-10616686D02*
X838068Y-10597639D01*
X838068Y-10597639D02*
X828545Y-10559543D01*
X828545Y-10559543D02*
X828545Y-10511924D01*
X828545Y-10511924D02*
X838068Y-10473829D01*
X838068Y-10473829D02*
X847592Y-10454781D01*
X847592Y-10454781D02*
X857116Y-10445258D01*
X857116Y-10445258D02*
X876164Y-10435734D01*
X1028545Y-10635734D02*
X1028545Y-10502400D01*
X1028545Y-10521448D02*
X1038068Y-10511924D01*
X1038068Y-10511924D02*
X1057116Y-10502400D01*
X1057116Y-10502400D02*
X1085688Y-10502400D01*
X1085688Y-10502400D02*
X1104735Y-10511924D01*
X1104735Y-10511924D02*
X1114259Y-10530972D01*
X1114259Y-10530972D02*
X1114259Y-10635734D01*
X1114259Y-10530972D02*
X1123783Y-10511924D01*
X1123783Y-10511924D02*
X1142830Y-10502400D01*
X1142830Y-10502400D02*
X1171402Y-10502400D01*
X1171402Y-10502400D02*
X1190450Y-10511924D01*
X1190450Y-10511924D02*
X1199973Y-10530972D01*
X1199973Y-10530972D02*
X1199973Y-10635734D01*
X1295211Y-10635734D02*
X1295211Y-10502400D01*
X1295211Y-10521448D02*
X1304735Y-10511924D01*
X1304735Y-10511924D02*
X1323783Y-10502400D01*
X1323783Y-10502400D02*
X1352354Y-10502400D01*
X1352354Y-10502400D02*
X1371402Y-10511924D01*
X1371402Y-10511924D02*
X1380926Y-10530972D01*
X1380926Y-10530972D02*
X1380926Y-10635734D01*
X1380926Y-10530972D02*
X1390450Y-10511924D01*
X1390450Y-10511924D02*
X1409497Y-10502400D01*
X1409497Y-10502400D02*
X1438068Y-10502400D01*
X1438068Y-10502400D02*
X1457116Y-10511924D01*
X1457116Y-10511924D02*
X1466640Y-10530972D01*
X1466640Y-10530972D02*
X1466640Y-10635734D01*
X1857116Y-10426210D02*
X1685688Y-10683353D01*
X2114259Y-10435734D02*
X2133307Y-10435734D01*
X2133307Y-10435734D02*
X2152354Y-10445258D01*
X2152354Y-10445258D02*
X2161878Y-10454781D01*
X2161878Y-10454781D02*
X2171402Y-10473829D01*
X2171402Y-10473829D02*
X2180926Y-10511924D01*
X2180926Y-10511924D02*
X2180926Y-10559543D01*
X2180926Y-10559543D02*
X2171402Y-10597639D01*
X2171402Y-10597639D02*
X2161878Y-10616686D01*
X2161878Y-10616686D02*
X2152354Y-10626210D01*
X2152354Y-10626210D02*
X2133307Y-10635734D01*
X2133307Y-10635734D02*
X2114259Y-10635734D01*
X2114259Y-10635734D02*
X2095211Y-10626210D01*
X2095211Y-10626210D02*
X2085688Y-10616686D01*
X2085688Y-10616686D02*
X2076164Y-10597639D01*
X2076164Y-10597639D02*
X2066640Y-10559543D01*
X2066640Y-10559543D02*
X2066640Y-10511924D01*
X2066640Y-10511924D02*
X2076164Y-10473829D01*
X2076164Y-10473829D02*
X2085688Y-10454781D01*
X2085688Y-10454781D02*
X2095211Y-10445258D01*
X2095211Y-10445258D02*
X2114259Y-10435734D01*
X2266640Y-10616686D02*
X2276164Y-10626210D01*
X2276164Y-10626210D02*
X2266640Y-10635734D01*
X2266640Y-10635734D02*
X2257116Y-10626210D01*
X2257116Y-10626210D02*
X2266640Y-10616686D01*
X2266640Y-10616686D02*
X2266640Y-10635734D01*
X2399973Y-10435734D02*
X2419021Y-10435734D01*
X2419021Y-10435734D02*
X2438069Y-10445258D01*
X2438069Y-10445258D02*
X2447593Y-10454781D01*
X2447593Y-10454781D02*
X2457116Y-10473829D01*
X2457116Y-10473829D02*
X2466640Y-10511924D01*
X2466640Y-10511924D02*
X2466640Y-10559543D01*
X2466640Y-10559543D02*
X2457116Y-10597639D01*
X2457116Y-10597639D02*
X2447593Y-10616686D01*
X2447593Y-10616686D02*
X2438069Y-10626210D01*
X2438069Y-10626210D02*
X2419021Y-10635734D01*
X2419021Y-10635734D02*
X2399973Y-10635734D01*
X2399973Y-10635734D02*
X2380926Y-10626210D01*
X2380926Y-10626210D02*
X2371402Y-10616686D01*
X2371402Y-10616686D02*
X2361878Y-10597639D01*
X2361878Y-10597639D02*
X2352354Y-10559543D01*
X2352354Y-10559543D02*
X2352354Y-10511924D01*
X2352354Y-10511924D02*
X2361878Y-10473829D01*
X2361878Y-10473829D02*
X2371402Y-10454781D01*
X2371402Y-10454781D02*
X2380926Y-10445258D01*
X2380926Y-10445258D02*
X2399973Y-10435734D01*
X2533307Y-10435734D02*
X2657116Y-10435734D01*
X2657116Y-10435734D02*
X2590450Y-10511924D01*
X2590450Y-10511924D02*
X2619021Y-10511924D01*
X2619021Y-10511924D02*
X2638069Y-10521448D01*
X2638069Y-10521448D02*
X2647593Y-10530972D01*
X2647593Y-10530972D02*
X2657116Y-10550020D01*
X2657116Y-10550020D02*
X2657116Y-10597639D01*
X2657116Y-10597639D02*
X2647593Y-10616686D01*
X2647593Y-10616686D02*
X2638069Y-10626210D01*
X2638069Y-10626210D02*
X2619021Y-10635734D01*
X2619021Y-10635734D02*
X2561878Y-10635734D01*
X2561878Y-10635734D02*
X2542831Y-10626210D01*
X2542831Y-10626210D02*
X2533307Y-10616686D01*
X2752354Y-10635734D02*
X2790450Y-10635734D01*
X2790450Y-10635734D02*
X2809497Y-10626210D01*
X2809497Y-10626210D02*
X2819021Y-10616686D01*
X2819021Y-10616686D02*
X2838069Y-10588115D01*
X2838069Y-10588115D02*
X2847592Y-10550020D01*
X2847592Y-10550020D02*
X2847592Y-10473829D01*
X2847592Y-10473829D02*
X2838069Y-10454781D01*
X2838069Y-10454781D02*
X2828545Y-10445258D01*
X2828545Y-10445258D02*
X2809497Y-10435734D01*
X2809497Y-10435734D02*
X2771402Y-10435734D01*
X2771402Y-10435734D02*
X2752354Y-10445258D01*
X2752354Y-10445258D02*
X2742831Y-10454781D01*
X2742831Y-10454781D02*
X2733307Y-10473829D01*
X2733307Y-10473829D02*
X2733307Y-10521448D01*
X2733307Y-10521448D02*
X2742831Y-10540496D01*
X2742831Y-10540496D02*
X2752354Y-10550020D01*
X2752354Y-10550020D02*
X2771402Y-10559543D01*
X2771402Y-10559543D02*
X2809497Y-10559543D01*
X2809497Y-10559543D02*
X2828545Y-10550020D01*
X2828545Y-10550020D02*
X2838069Y-10540496D01*
X2838069Y-10540496D02*
X2847592Y-10521448D01*
X3019021Y-10502400D02*
X3019021Y-10635734D01*
X2971402Y-10426210D02*
X2923783Y-10569067D01*
X2923783Y-10569067D02*
X3047592Y-10569067D01*
X3114259Y-10435734D02*
X3114259Y-10473829D01*
X3190450Y-10435734D02*
X3190450Y-10473829D01*
X3485688Y-10711924D02*
X3476164Y-10702400D01*
X3476164Y-10702400D02*
X3457116Y-10673829D01*
X3457116Y-10673829D02*
X3447593Y-10654781D01*
X3447593Y-10654781D02*
X3438069Y-10626210D01*
X3438069Y-10626210D02*
X3428545Y-10578591D01*
X3428545Y-10578591D02*
X3428545Y-10540496D01*
X3428545Y-10540496D02*
X3438069Y-10492877D01*
X3438069Y-10492877D02*
X3447593Y-10464305D01*
X3447593Y-10464305D02*
X3457116Y-10445258D01*
X3457116Y-10445258D02*
X3476164Y-10416686D01*
X3476164Y-10416686D02*
X3485688Y-10407162D01*
X3647593Y-10435734D02*
X3609497Y-10435734D01*
X3609497Y-10435734D02*
X3590450Y-10445258D01*
X3590450Y-10445258D02*
X3580926Y-10454781D01*
X3580926Y-10454781D02*
X3561878Y-10483353D01*
X3561878Y-10483353D02*
X3552354Y-10521448D01*
X3552354Y-10521448D02*
X3552354Y-10597639D01*
X3552354Y-10597639D02*
X3561878Y-10616686D01*
X3561878Y-10616686D02*
X3571402Y-10626210D01*
X3571402Y-10626210D02*
X3590450Y-10635734D01*
X3590450Y-10635734D02*
X3628545Y-10635734D01*
X3628545Y-10635734D02*
X3647593Y-10626210D01*
X3647593Y-10626210D02*
X3657116Y-10616686D01*
X3657116Y-10616686D02*
X3666640Y-10597639D01*
X3666640Y-10597639D02*
X3666640Y-10550020D01*
X3666640Y-10550020D02*
X3657116Y-10530972D01*
X3657116Y-10530972D02*
X3647593Y-10521448D01*
X3647593Y-10521448D02*
X3628545Y-10511924D01*
X3628545Y-10511924D02*
X3590450Y-10511924D01*
X3590450Y-10511924D02*
X3571402Y-10521448D01*
X3571402Y-10521448D02*
X3561878Y-10530972D01*
X3561878Y-10530972D02*
X3552354Y-10550020D01*
X3904735Y-10635734D02*
X3904735Y-10435734D01*
X3990450Y-10635734D02*
X3990450Y-10530972D01*
X3990450Y-10530972D02*
X3980926Y-10511924D01*
X3980926Y-10511924D02*
X3961878Y-10502400D01*
X3961878Y-10502400D02*
X3933307Y-10502400D01*
X3933307Y-10502400D02*
X3914259Y-10511924D01*
X3914259Y-10511924D02*
X3904735Y-10521448D01*
X4114259Y-10635734D02*
X4095212Y-10626210D01*
X4095212Y-10626210D02*
X4085688Y-10616686D01*
X4085688Y-10616686D02*
X4076164Y-10597639D01*
X4076164Y-10597639D02*
X4076164Y-10540496D01*
X4076164Y-10540496D02*
X4085688Y-10521448D01*
X4085688Y-10521448D02*
X4095212Y-10511924D01*
X4095212Y-10511924D02*
X4114259Y-10502400D01*
X4114259Y-10502400D02*
X4142831Y-10502400D01*
X4142831Y-10502400D02*
X4161878Y-10511924D01*
X4161878Y-10511924D02*
X4171402Y-10521448D01*
X4171402Y-10521448D02*
X4180926Y-10540496D01*
X4180926Y-10540496D02*
X4180926Y-10597639D01*
X4180926Y-10597639D02*
X4171402Y-10616686D01*
X4171402Y-10616686D02*
X4161878Y-10626210D01*
X4161878Y-10626210D02*
X4142831Y-10635734D01*
X4142831Y-10635734D02*
X4114259Y-10635734D01*
X4295212Y-10635734D02*
X4276164Y-10626210D01*
X4276164Y-10626210D02*
X4266640Y-10607162D01*
X4266640Y-10607162D02*
X4266640Y-10435734D01*
X4447593Y-10626210D02*
X4428545Y-10635734D01*
X4428545Y-10635734D02*
X4390450Y-10635734D01*
X4390450Y-10635734D02*
X4371402Y-10626210D01*
X4371402Y-10626210D02*
X4361878Y-10607162D01*
X4361878Y-10607162D02*
X4361878Y-10530972D01*
X4361878Y-10530972D02*
X4371402Y-10511924D01*
X4371402Y-10511924D02*
X4390450Y-10502400D01*
X4390450Y-10502400D02*
X4428545Y-10502400D01*
X4428545Y-10502400D02*
X4447593Y-10511924D01*
X4447593Y-10511924D02*
X4457117Y-10530972D01*
X4457117Y-10530972D02*
X4457117Y-10550020D01*
X4457117Y-10550020D02*
X4361878Y-10569067D01*
X4533307Y-10626210D02*
X4552355Y-10635734D01*
X4552355Y-10635734D02*
X4590450Y-10635734D01*
X4590450Y-10635734D02*
X4609498Y-10626210D01*
X4609498Y-10626210D02*
X4619021Y-10607162D01*
X4619021Y-10607162D02*
X4619021Y-10597639D01*
X4619021Y-10597639D02*
X4609498Y-10578591D01*
X4609498Y-10578591D02*
X4590450Y-10569067D01*
X4590450Y-10569067D02*
X4561878Y-10569067D01*
X4561878Y-10569067D02*
X4542831Y-10559543D01*
X4542831Y-10559543D02*
X4533307Y-10540496D01*
X4533307Y-10540496D02*
X4533307Y-10530972D01*
X4533307Y-10530972D02*
X4542831Y-10511924D01*
X4542831Y-10511924D02*
X4561878Y-10502400D01*
X4561878Y-10502400D02*
X4590450Y-10502400D01*
X4590450Y-10502400D02*
X4609498Y-10511924D01*
X4685688Y-10711924D02*
X4695212Y-10702400D01*
X4695212Y-10702400D02*
X4714259Y-10673829D01*
X4714259Y-10673829D02*
X4723783Y-10654781D01*
X4723783Y-10654781D02*
X4733307Y-10626210D01*
X4733307Y-10626210D02*
X4742831Y-10578591D01*
X4742831Y-10578591D02*
X4742831Y-10540496D01*
X4742831Y-10540496D02*
X4733307Y-10492877D01*
X4733307Y-10492877D02*
X4723783Y-10464305D01*
X4723783Y-10464305D02*
X4714259Y-10445258D01*
X4714259Y-10445258D02*
X4695212Y-10416686D01*
X4695212Y-10416686D02*
X4685688Y-10407162D01*
M02*
