G04 #@! TF.GenerationSoftware,KiCad,Pcbnew,8.0.7*
G04 #@! TF.CreationDate,2025-01-18T13:06:30-06:00*
G04 #@! TF.ProjectId,boethia60,626f6574-6869-4613-9630-2e6b69636164,rev?*
G04 #@! TF.SameCoordinates,Original*
G04 #@! TF.FileFunction,Profile,NP*
%FSLAX46Y46*%
G04 Gerber Fmt 4.6, Leading zero omitted, Abs format (unit mm)*
G04 Created by KiCad (PCBNEW 8.0.7) date 2025-01-18 13:06:30*
%MOMM*%
%LPD*%
G01*
G04 APERTURE LIST*
G04 #@! TA.AperFunction,Profile*
%ADD10C,0.200000*%
G04 #@! TD*
G04 #@! TA.AperFunction,Profile*
%ADD11C,0.120000*%
G04 #@! TD*
G04 APERTURE END LIST*
D10*
X3175000Y-93662500D02*
G75*
G02*
X-793750Y-89693750I0J3968750D01*
G01*
X-793750Y-5365750D02*
X-793750Y-89693750D01*
X282575000Y-1397000D02*
X24606250Y-1397000D01*
X12700000Y-1397000D02*
X3175000Y-1397000D01*
X24606250Y-1397000D02*
G75*
G02*
X23812500Y-603250I50J793800D01*
G01*
X286543750Y-89693750D02*
G75*
G02*
X282575000Y-93662450I-3968750J50D01*
G01*
X286543750Y-89693750D02*
X286543750Y-5365750D01*
X13493750Y-603250D02*
G75*
G02*
X12700000Y-1397000I-793750J0D01*
G01*
X282575000Y-1397000D02*
G75*
G02*
X286543700Y-5365750I0J-3968700D01*
G01*
X-793750Y-5365750D02*
G75*
G02*
X3175000Y-1397000I3968750J0D01*
G01*
X13493750Y4762500D02*
X13493750Y-603250D01*
X3175000Y-93662500D02*
X282575000Y-93662500D01*
X23812500Y4762500D02*
X23812500Y-603250D01*
X23812500Y4762500D02*
X13493750Y4762500D01*
D11*
X173468750Y-83025000D02*
X173468750Y-87525000D01*
X174118750Y-77225000D02*
X174118750Y-79725000D01*
X177618750Y-76725000D02*
X174618750Y-76725000D01*
X177618750Y-80225000D02*
X174618750Y-80225000D01*
X178118750Y-77225000D02*
X178118750Y-79725000D01*
X178268750Y-82525000D02*
X173968750Y-82525000D01*
X178268750Y-88025000D02*
X173968750Y-88025000D01*
X178768750Y-83025000D02*
X178768750Y-87525000D01*
X197468750Y-83025000D02*
X197468750Y-87525000D01*
X197968750Y-82525000D02*
X202268750Y-82525000D01*
X197968750Y-88025000D02*
X202268750Y-88025000D01*
X198118750Y-77225000D02*
X198118750Y-79725000D01*
X198618750Y-76725000D02*
X201618750Y-76725000D01*
X198618750Y-80225000D02*
X201618750Y-80225000D01*
X202118750Y-77225000D02*
X202118750Y-79725000D01*
X202768750Y-83025000D02*
X202768750Y-87525000D01*
X173468750Y-83025000D02*
G75*
G02*
X173968750Y-82525000I500000J0D01*
G01*
X173968750Y-88025000D02*
G75*
G02*
X173468750Y-87525000I0J500000D01*
G01*
X174118750Y-77225000D02*
G75*
G02*
X174618750Y-76725000I500000J0D01*
G01*
X174618750Y-80225000D02*
G75*
G02*
X174118750Y-79725000I0J500000D01*
G01*
X177618750Y-76725000D02*
G75*
G02*
X178118750Y-77225000I0J-500000D01*
G01*
X178118750Y-79725000D02*
G75*
G02*
X177618750Y-80225000I-500000J0D01*
G01*
X178268750Y-82525000D02*
G75*
G02*
X178768750Y-83025000I0J-500000D01*
G01*
X178768750Y-87525000D02*
G75*
G02*
X178268750Y-88025000I-500000J0D01*
G01*
X197468750Y-83025000D02*
G75*
G02*
X197968750Y-82525000I500001J-1D01*
G01*
X197968750Y-88025000D02*
G75*
G02*
X197468750Y-87525000I1J500001D01*
G01*
X198118750Y-77225000D02*
G75*
G02*
X198618750Y-76725000I500001J-1D01*
G01*
X198618750Y-80225000D02*
G75*
G02*
X198118750Y-79725000I1J500001D01*
G01*
X201618750Y-76725000D02*
G75*
G02*
X202118750Y-77225000I-1J-500001D01*
G01*
X202118750Y-79725000D02*
G75*
G02*
X201618750Y-80225000I-500001J1D01*
G01*
X202268750Y-82525000D02*
G75*
G02*
X202768750Y-83025000I-1J-500001D01*
G01*
X202768750Y-87525000D02*
G75*
G02*
X202268750Y-88025000I-500001J1D01*
G01*
X106793750Y-83025000D02*
X106793750Y-87525000D01*
X107443750Y-77225000D02*
X107443750Y-79725000D01*
X110943750Y-76725000D02*
X107943750Y-76725000D01*
X110943750Y-80225000D02*
X107943750Y-80225000D01*
X111443750Y-77225000D02*
X111443750Y-79725000D01*
X111593750Y-82525000D02*
X107293750Y-82525000D01*
X111593750Y-88025000D02*
X107293750Y-88025000D01*
X112093750Y-83025000D02*
X112093750Y-87525000D01*
X130793750Y-83025000D02*
X130793750Y-87525000D01*
X131293750Y-82525000D02*
X135593750Y-82525000D01*
X131293750Y-88025000D02*
X135593750Y-88025000D01*
X131443750Y-77225000D02*
X131443750Y-79725000D01*
X131943750Y-76725000D02*
X134943750Y-76725000D01*
X131943750Y-80225000D02*
X134943750Y-80225000D01*
X135443750Y-77225000D02*
X135443750Y-79725000D01*
X136093750Y-83025000D02*
X136093750Y-87525000D01*
X106793750Y-83025000D02*
G75*
G02*
X107293750Y-82525000I500000J0D01*
G01*
X107293750Y-88025000D02*
G75*
G02*
X106793750Y-87525000I0J500000D01*
G01*
X107443750Y-77225000D02*
G75*
G02*
X107943750Y-76725000I500000J0D01*
G01*
X107943750Y-80225000D02*
G75*
G02*
X107443750Y-79725000I0J500000D01*
G01*
X110943750Y-76725000D02*
G75*
G02*
X111443750Y-77225000I0J-500000D01*
G01*
X111443750Y-79725000D02*
G75*
G02*
X110943750Y-80225000I-500000J0D01*
G01*
X111593750Y-82525000D02*
G75*
G02*
X112093750Y-83025000I0J-500000D01*
G01*
X112093750Y-87525000D02*
G75*
G02*
X111593750Y-88025000I-500000J0D01*
G01*
X130793750Y-83025000D02*
G75*
G02*
X131293750Y-82525000I500001J-1D01*
G01*
X131293750Y-88025000D02*
G75*
G02*
X130793750Y-87525000I1J500001D01*
G01*
X131443750Y-77225000D02*
G75*
G02*
X131943750Y-76725000I500001J-1D01*
G01*
X131943750Y-80225000D02*
G75*
G02*
X131443750Y-79725000I1J500001D01*
G01*
X134943750Y-76725000D02*
G75*
G02*
X135443750Y-77225000I-1J-500001D01*
G01*
X135443750Y-79725000D02*
G75*
G02*
X134943750Y-80225000I-500001J1D01*
G01*
X135593750Y-82525000D02*
G75*
G02*
X136093750Y-83025000I-1J-500001D01*
G01*
X136093750Y-87525000D02*
G75*
G02*
X135593750Y-88025000I-500001J1D01*
G01*
X6781250Y-44925000D02*
X6781250Y-49425000D01*
X7431250Y-39125000D02*
X7431250Y-41625000D01*
X10931250Y-38625000D02*
X7931250Y-38625000D01*
X10931250Y-42125000D02*
X7931250Y-42125000D01*
X11431250Y-39125000D02*
X11431250Y-41625000D01*
X11581250Y-44425000D02*
X7281250Y-44425000D01*
X11581250Y-49925000D02*
X7281250Y-49925000D01*
X12081250Y-44925000D02*
X12081250Y-49425000D01*
X30781250Y-44925000D02*
X30781250Y-49425000D01*
X31281250Y-44425000D02*
X35581250Y-44425000D01*
X31281250Y-49925000D02*
X35581250Y-49925000D01*
X31431250Y-39125000D02*
X31431250Y-41625000D01*
X31931250Y-38625000D02*
X34931250Y-38625000D01*
X31931250Y-42125000D02*
X34931250Y-42125000D01*
X35431250Y-39125000D02*
X35431250Y-41625000D01*
X36081250Y-44925000D02*
X36081250Y-49425000D01*
X6781250Y-44925000D02*
G75*
G02*
X7281250Y-44425000I500000J0D01*
G01*
X7281250Y-49925000D02*
G75*
G02*
X6781250Y-49425000I0J500000D01*
G01*
X7431250Y-39125000D02*
G75*
G02*
X7931250Y-38625000I500000J0D01*
G01*
X7931250Y-42125000D02*
G75*
G02*
X7431250Y-41625000I0J500000D01*
G01*
X10931250Y-38625000D02*
G75*
G02*
X11431250Y-39125000I0J-500000D01*
G01*
X11431250Y-41625000D02*
G75*
G02*
X10931250Y-42125000I-500000J0D01*
G01*
X11581250Y-44425000D02*
G75*
G02*
X12081250Y-44925000I0J-500000D01*
G01*
X12081250Y-49425000D02*
G75*
G02*
X11581250Y-49925000I-500000J0D01*
G01*
X30781250Y-44925000D02*
G75*
G02*
X31281250Y-44425000I500001J-1D01*
G01*
X31281250Y-49925000D02*
G75*
G02*
X30781250Y-49425000I1J500001D01*
G01*
X31431250Y-39125000D02*
G75*
G02*
X31931250Y-38625000I500001J-1D01*
G01*
X31931250Y-42125000D02*
G75*
G02*
X31431250Y-41625000I1J500001D01*
G01*
X34931250Y-38625000D02*
G75*
G02*
X35431250Y-39125000I-1J-500001D01*
G01*
X35431250Y-41625000D02*
G75*
G02*
X34931250Y-42125000I-500001J1D01*
G01*
X35581250Y-44425000D02*
G75*
G02*
X36081250Y-44925000I-1J-500001D01*
G01*
X36081250Y-49425000D02*
G75*
G02*
X35581250Y-49925000I-500001J1D01*
G01*
X249668750Y-63975000D02*
X249668750Y-68475000D01*
X250318750Y-58175000D02*
X250318750Y-60675000D01*
X253818750Y-57675000D02*
X250818750Y-57675000D01*
X253818750Y-61175000D02*
X250818750Y-61175000D01*
X254318750Y-58175000D02*
X254318750Y-60675000D01*
X254468750Y-63475000D02*
X250168750Y-63475000D01*
X254468750Y-68975000D02*
X250168750Y-68975000D01*
X254968750Y-63975000D02*
X254968750Y-68475000D01*
X273668750Y-63975000D02*
X273668750Y-68475000D01*
X274168750Y-63475000D02*
X278468750Y-63475000D01*
X274168750Y-68975000D02*
X278468750Y-68975000D01*
X274318750Y-58175000D02*
X274318750Y-60675000D01*
X274818750Y-57675000D02*
X277818750Y-57675000D01*
X274818750Y-61175000D02*
X277818750Y-61175000D01*
X278318750Y-58175000D02*
X278318750Y-60675000D01*
X278968750Y-63975000D02*
X278968750Y-68475000D01*
X249668750Y-63975000D02*
G75*
G02*
X250168750Y-63475000I500000J0D01*
G01*
X250168750Y-68975000D02*
G75*
G02*
X249668750Y-68475000I0J500000D01*
G01*
X250318750Y-58175000D02*
G75*
G02*
X250818750Y-57675000I500000J0D01*
G01*
X250818750Y-61175000D02*
G75*
G02*
X250318750Y-60675000I0J500000D01*
G01*
X253818750Y-57675000D02*
G75*
G02*
X254318750Y-58175000I0J-500000D01*
G01*
X254318750Y-60675000D02*
G75*
G02*
X253818750Y-61175000I-500000J0D01*
G01*
X254468750Y-63475000D02*
G75*
G02*
X254968750Y-63975000I0J-500000D01*
G01*
X254968750Y-68475000D02*
G75*
G02*
X254468750Y-68975000I-500000J0D01*
G01*
X273668750Y-63975000D02*
G75*
G02*
X274168750Y-63475000I500001J-1D01*
G01*
X274168750Y-68975000D02*
G75*
G02*
X273668750Y-68475000I1J500001D01*
G01*
X274318750Y-58175000D02*
G75*
G02*
X274818750Y-57675000I500001J-1D01*
G01*
X274818750Y-61175000D02*
G75*
G02*
X274318750Y-60675000I1J500001D01*
G01*
X277818750Y-57675000D02*
G75*
G02*
X278318750Y-58175000I-1J-500001D01*
G01*
X278318750Y-60675000D02*
G75*
G02*
X277818750Y-61175000I-500001J1D01*
G01*
X278468750Y-63475000D02*
G75*
G02*
X278968750Y-63975000I-1J-500001D01*
G01*
X278968750Y-68475000D02*
G75*
G02*
X278468750Y-68975000I-500001J1D01*
G01*
M02*
