M48
; DRILL file {KiCad 8.0.7} date 2025-01-18T13:07:15-0600
; FORMAT={-:-/ absolute / inch / decimal}
; #@! TF.CreationDate,2025-01-18T13:07:15-06:00
; #@! TF.GenerationSoftware,Kicad,Pcbnew,8.0.7
; #@! TF.FileFunction,NonPlated,1,2,NPTH
FMAT,2
INCH
; #@! TA.AperFunction,NonPlated,NPTH,ComponentDrill
T1C0.0256
; #@! TA.AperFunction,NonPlated,NPTH,ComponentDrill
T2C0.0630
; #@! TA.AperFunction,NonPlated,NPTH,ComponentDrill
T3C0.0748
; #@! TA.AperFunction,NonPlated,NPTH,ComponentDrill
T4C0.1201
; #@! TA.AperFunction,NonPlated,NPTH,ComponentDrill
T5C0.1988
%
G90
G05
T1
X0.6211Y-0.0041
X0.8487Y-0.0041
T2
X0.1781Y-0.1722
X0.1781Y-2.4222
X0.3656Y-0.9222
X0.6469Y-1.6722
X0.9281Y-0.1722
X1.2094Y-2.4222
X1.3031Y-0.9222
X1.6781Y-0.1722
X1.8656Y-1.6722
X2.0531Y-0.9222
X2.0531Y-3.1722
X2.2406Y-2.4222
X2.4281Y-0.1722
X2.6156Y-1.6722
X2.8031Y-0.9222
X2.9906Y-2.4222
X2.9906Y-3.1722
X3.1781Y-0.1722
X3.3656Y-1.6722
X3.5531Y-0.9222
X3.7406Y-2.4222
X3.9281Y-0.1722
X4.1156Y-1.6722
X4.3031Y-0.9222
X4.4906Y-2.4222
X4.5844Y-3.1722
X4.6781Y-0.1722
X4.8656Y-1.6722
X5.0531Y-0.9222
X5.2406Y-2.4222
X5.4281Y-0.1722
X5.6156Y-1.6722
X5.8031Y-0.9222
X5.9906Y-2.4222
X5.9906Y-3.1722
X6.1781Y-0.1722
X6.3656Y-1.6722
X6.5531Y-0.9222
X6.7406Y-2.4222
X6.9281Y-0.1722
X7.1156Y-1.6722
X7.2094Y-3.1722
X7.3031Y-0.9222
X7.4906Y-2.4222
X7.6781Y-0.1722
X7.8656Y-1.6722
X8.0531Y-0.9222
X8.2406Y-2.4222
X8.4281Y-0.1722
X8.6156Y-1.6722
X8.6156Y-3.1722
X8.8031Y-0.9222
X8.9906Y-2.4222
X9.1781Y-0.1722
X9.3656Y-1.6722
X9.5531Y-0.9222
X9.5531Y-3.1722
X9.9281Y-0.1722
X10.2094Y-2.4222
X10.3969Y-1.6722
X10.4906Y-0.9222
X10.6781Y-0.1722
T3
X0.1585Y-0.375
X0.1585Y-2.625
X0.346Y-1.125
X0.5915Y-0.375
X0.5915Y-2.625
X0.6272Y-1.875
X0.779Y-1.125
X0.9085Y-0.375
X1.0603Y-1.875
X1.1897Y-2.625
X1.2835Y-1.125
X1.3415Y-0.375
X1.6228Y-2.625
X1.6585Y-0.375
X1.7165Y-1.125
X1.846Y-1.875
X2.0335Y-1.125
X2.0335Y-3.375
X2.0915Y-0.375
X2.221Y-2.625
X2.279Y-1.875
X2.4085Y-0.375
X2.4665Y-1.125
X2.4665Y-3.375
X2.596Y-1.875
X2.654Y-2.625
X2.7835Y-1.125
X2.8415Y-0.375
X2.971Y-2.625
X2.971Y-3.375
X3.029Y-1.875
X3.1585Y-0.375
X3.2165Y-1.125
X3.346Y-1.875
X3.404Y-2.625
X3.404Y-3.375
X3.5335Y-1.125
X3.5915Y-0.375
X3.721Y-2.625
X3.779Y-1.875
X3.9085Y-0.375
X3.9665Y-1.125
X4.096Y-1.875
X4.154Y-2.625
X4.2835Y-1.125
X4.3415Y-0.375
X4.471Y-2.625
X4.529Y-1.875
X4.5647Y-3.375
X4.6585Y-0.375
X4.7165Y-1.125
X4.846Y-1.875
X4.904Y-2.625
X4.9978Y-3.375
X5.0335Y-1.125
X5.0915Y-0.375
X5.221Y-2.625
X5.279Y-1.875
X5.4085Y-0.375
X5.4665Y-1.125
X5.596Y-1.875
X5.654Y-2.625
X5.7835Y-1.125
X5.8415Y-0.375
X5.971Y-2.625
X5.971Y-3.375
X6.029Y-1.875
X6.1585Y-0.375
X6.2165Y-1.125
X6.346Y-1.875
X6.404Y-2.625
X6.404Y-3.375
X6.5335Y-1.125
X6.5915Y-0.375
X6.721Y-2.625
X6.779Y-1.875
X6.9085Y-0.375
X6.9665Y-1.125
X7.096Y-1.875
X7.154Y-2.625
X7.1897Y-3.375
X7.2835Y-1.125
X7.3415Y-0.375
X7.471Y-2.625
X7.529Y-1.875
X7.6228Y-3.375
X7.6585Y-0.375
X7.7165Y-1.125
X7.846Y-1.875
X7.904Y-2.625
X8.0335Y-1.125
X8.0915Y-0.375
X8.221Y-2.625
X8.279Y-1.875
X8.4085Y-0.375
X8.4665Y-1.125
X8.596Y-1.875
X8.596Y-3.375
X8.654Y-2.625
X8.7835Y-1.125
X8.8415Y-0.375
X8.971Y-2.625
X9.029Y-1.875
X9.029Y-3.375
X9.1585Y-0.375
X9.2165Y-1.125
X9.346Y-1.875
X9.404Y-2.625
X9.5335Y-1.125
X9.5335Y-3.375
X9.5915Y-0.375
X9.779Y-1.875
X9.9085Y-0.375
X9.9665Y-1.125
X9.9665Y-3.375
X10.1897Y-2.625
X10.3415Y-0.375
X10.3772Y-1.875
X10.471Y-1.125
X10.6228Y-2.625
X10.6585Y-0.375
X10.8103Y-1.875
X10.904Y-1.125
X11.0915Y-0.375
T4
X0.375Y-0.6073
X0.375Y-2.8573
X0.5625Y-1.3573
X0.5719Y-0.5246
X0.5719Y-2.7746
X0.7594Y-1.2746
X0.8438Y-2.1073
X1.0406Y-2.0246
X1.125Y-0.6073
X1.3219Y-0.5246
X1.4062Y-2.8573
X1.5Y-1.3573
X1.6031Y-2.7746
X1.6969Y-1.2746
X1.875Y-0.6073
X2.0625Y-2.1073
X2.0719Y-0.5246
X2.25Y-1.3573
X2.25Y-3.6073
X2.2594Y-2.0246
X2.4375Y-2.8573
X2.4469Y-1.2746
X2.4469Y-3.5246
X2.625Y-0.6073
X2.6344Y-2.7746
X2.8125Y-2.1073
X2.8219Y-0.5246
X3.0Y-1.3573
X3.0094Y-2.0246
X3.1875Y-2.8573
X3.1875Y-3.6073
X3.1969Y-1.2746
X3.375Y-0.6073
X3.3844Y-2.7746
X3.3844Y-3.5246
X3.5625Y-2.1073
X3.5719Y-0.5246
X3.75Y-1.3573
X3.7594Y-2.0246
X3.9375Y-2.8573
X3.9469Y-1.2746
X4.125Y-0.6073
X4.1344Y-2.7746
X4.3125Y-2.1073
X4.3219Y-0.5246
X4.5Y-1.3573
X4.5094Y-2.0246
X4.6875Y-2.8573
X4.6969Y-1.2746
X4.7812Y-3.6073
X4.875Y-0.6073
X4.8844Y-2.7746
X4.9781Y-3.5246
X5.0625Y-2.1073
X5.0719Y-0.5246
X5.25Y-1.3573
X5.2594Y-2.0246
X5.4375Y-2.8573
X5.4469Y-1.2746
X5.625Y-0.6073
X5.6344Y-2.7746
X5.8125Y-2.1073
X5.8219Y-0.5246
X6.0Y-1.3573
X6.0094Y-2.0246
X6.1875Y-2.8573
X6.1875Y-3.6073
X6.1969Y-1.2746
X6.375Y-0.6073
X6.3844Y-2.7746
X6.3844Y-3.5246
X6.5625Y-2.1073
X6.5719Y-0.5246
X6.75Y-1.3573
X6.7594Y-2.0246
X6.9375Y-2.8573
X6.9469Y-1.2746
X7.125Y-0.6073
X7.1344Y-2.7746
X7.3125Y-2.1073
X7.3219Y-0.5246
X7.4062Y-3.6073
X7.5Y-1.3573
X7.5094Y-2.0246
X7.6031Y-3.5246
X7.6875Y-2.8573
X7.6969Y-1.2746
X7.875Y-0.6073
X7.8844Y-2.7746
X8.0625Y-2.1073
X8.0719Y-0.5246
X8.25Y-1.3573
X8.2594Y-2.0246
X8.4375Y-2.8573
X8.4469Y-1.2746
X8.625Y-0.6073
X8.6344Y-2.7746
X8.8125Y-2.1073
X8.8125Y-3.6073
X8.8219Y-0.5246
X9.0Y-1.3573
X9.0094Y-2.0246
X9.0094Y-3.5246
X9.1875Y-2.8573
X9.1969Y-1.2746
X9.375Y-0.6073
X9.3844Y-2.7746
X9.5625Y-2.1073
X9.5719Y-0.5246
X9.75Y-1.3573
X9.75Y-3.6073
X9.7594Y-2.0246
X9.9469Y-1.2746
X9.9469Y-3.5246
X10.125Y-0.6073
X10.3219Y-0.5246
X10.4062Y-2.8573
X10.5938Y-2.1073
X10.6031Y-2.7746
X10.6875Y-1.3573
X10.7906Y-2.0246
X10.875Y-0.6073
X10.8844Y-1.2746
X11.0719Y-0.5246
T5
X0.375Y-0.375
X0.375Y-2.625
X0.5625Y-1.125
X0.8438Y-1.875
X1.125Y-0.375
X1.4062Y-2.625
X1.5Y-1.125
X1.875Y-0.375
X2.0625Y-1.875
X2.25Y-1.125
X2.25Y-3.375
X2.4375Y-2.625
X2.625Y-0.375
X2.8125Y-1.875
X3.0Y-1.125
X3.1875Y-2.625
X3.1875Y-3.375
X3.375Y-0.375
X3.5625Y-1.875
X3.75Y-1.125
X3.9375Y-2.625
X4.125Y-0.375
X4.3125Y-1.875
X4.5Y-1.125
X4.6875Y-2.625
X4.7812Y-3.375
X4.875Y-0.375
X5.0625Y-1.875
X5.25Y-1.125
X5.4375Y-2.625
X5.625Y-0.375
X5.8125Y-1.875
X6.0Y-1.125
X6.1875Y-2.625
X6.1875Y-3.375
X6.375Y-0.375
X6.5625Y-1.875
X6.75Y-1.125
X6.9375Y-2.625
X7.125Y-0.375
X7.3125Y-1.875
X7.4062Y-3.375
X7.5Y-1.125
X7.6875Y-2.625
X7.875Y-0.375
X8.0625Y-1.875
X8.25Y-1.125
X8.4375Y-2.625
X8.625Y-0.375
X8.8125Y-1.875
X8.8125Y-3.375
X9.0Y-1.125
X9.1875Y-2.625
X9.375Y-0.375
X9.5625Y-1.875
X9.75Y-1.125
X9.75Y-3.375
X10.125Y-0.375
X10.4062Y-2.625
X10.5938Y-1.875
X10.6875Y-1.125
X10.875Y-0.375
M30
