M48
; DRILL file {KiCad 8.0.7} date 2025-01-15T11:07:48-0600
; FORMAT={-:-/ absolute / inch / decimal}
; #@! TF.CreationDate,2025-01-15T11:07:48-06:00
; #@! TF.GenerationSoftware,Kicad,Pcbnew,8.0.7
; #@! TF.FileFunction,Plated,1,2,PTH
FMAT,2
INCH
; #@! TA.AperFunction,Plated,PTH,ViaDrill
T1C0.0118
; #@! TA.AperFunction,Plated,PTH,ComponentDrill
T2C0.0236
; #@! TA.AperFunction,Plated,PTH,ComponentDrill
T3C0.0394
; #@! TA.AperFunction,Plated,PTH,ComponentDrill
T4C0.0630
; #@! TA.AperFunction,Plated,PTH,ComponentDrill
T5C0.1181
%
G90
G05
T1
X0.0864Y-3.345
X0.115Y-1.285
X0.3125Y-1.8438
X0.5938Y-2.5938
X0.7812Y-1.2576
X1.1562Y-3.3125
X1.25Y-1.8438
X1.5312Y-1.25
X1.685Y-3.7306
X1.7323Y-3.7306
X1.78Y-3.6361
X1.8125Y-2.5938
X2.0Y-1.8438
X2.1875Y-3.3438
X2.2812Y-1.25
X2.4016Y-3.7306
X2.4409Y-3.7598
X2.4652Y-3.7835
X2.4827Y-3.7306
X2.4844Y-3.8085
X2.5197Y-3.7598
X2.542Y-3.7821
X2.5625Y-2.5938
X2.5642Y-3.8044
X2.7188Y-1.8438
X2.875Y-4.1562
X2.9375Y-3.3125
X3.0312Y-1.25
X3.3125Y-2.5938
X3.4688Y-1.8438
X3.6875Y-3.3438
X3.8125Y-1.25
X4.0312Y-2.5625
X4.2188Y-1.8438
X4.4375Y-3.3125
X4.5625Y-1.25
X4.8125Y-2.5625
X5.0Y-1.8438
X5.175Y-3.581
X5.1875Y-3.3438
X5.2141Y-3.5967
X5.24Y-3.6203
X5.3125Y-1.25
X5.5625Y-2.5938
X5.7188Y-1.8438
X5.9375Y-3.3438
X6.035Y-3.5652
X6.0625Y-1.25
X6.3125Y-2.5938
X6.4688Y-1.8438
X6.65Y-3.865
X6.6767Y-3.9033
X6.6875Y-3.3438
X6.721Y-3.7306
X6.7494Y-4.2546
X6.765Y-4.035
X6.7717Y-4.2323
X6.772Y-4.3106
X6.7729Y-3.966
X6.7955Y-4.2085
X6.8125Y-1.2576
X6.8177Y-4.1862
X6.825Y-4.115
X6.84Y-3.835
X6.84Y-3.93
X6.97Y-4.155
X7.01Y-4.22
X7.0451Y-4.065
X7.05Y-4.22
X7.0625Y-2.5938
X7.0893Y-4.0914
X7.14Y-4.185
X7.1406Y-4.146
X7.16Y-3.895
X7.1752Y-4.0057
X7.2083Y-4.2772
X7.25Y-1.8438
X7.26Y-3.5605
X7.2972Y-3.7265
X7.2996Y-4.0304
X7.3425Y-4.1732
X7.3765Y-3.9535
X7.3819Y-4.252
X7.385Y-3.5605
X7.408Y-3.6078
X7.4375Y-3.3438
X7.4561Y-4.0271
X7.4768Y-3.5791
X7.49Y-3.74
X7.51Y-3.635
X7.5625Y-1.25
X7.5984Y-4.1732
X7.6526Y-4.0474
X7.8125Y-2.5938
X7.815Y-4.1142
X7.815Y-4.1535
X7.815Y-4.1929
X7.815Y-4.2323
X7.82Y-3.8
X7.82Y-3.84
X7.82Y-3.88
X7.8543Y-3.9567
X7.8543Y-4.0551
X7.945Y-3.945
X8.0Y-1.8438
X8.0512Y-4.275
X8.095Y-4.2478
X8.12Y-4.0636
X8.13Y-3.755
X8.1875Y-3.3438
X8.195Y-3.88
X8.3125Y-1.25
X8.5513Y-4.2833
X8.5625Y-2.5938
X8.7188Y-4.0938
X8.75Y-1.8438
X8.9375Y-3.3438
X9.0237Y-3.5605
X9.0625Y-1.25
X9.3125Y-2.5938
X9.404Y-3.8125
X9.405Y-3.845
X9.4688Y-1.8438
X9.5669Y-3.5827
X9.5938Y-4.125
X9.8125Y-1.25
X9.96Y-0.71
X10.07Y-0.62
X10.12Y-0.72
X10.1562Y-3.3438
X10.1892Y-0.7742
X10.2095Y-0.8955
X10.23Y-0.46
X10.3Y-0.995
X10.32Y-0.54
X10.3315Y-0.995
X10.3438Y-2.5938
X10.4Y-0.47
X10.41Y-1.28
X10.4275Y-0.7725
X10.4375Y-1.8438
X10.46Y-0.88
X10.49Y-0.73
X10.502Y-1.277
X10.56Y-0.64
X10.5625Y-1.25
X10.79Y-0.73
X10.885Y-3.265
X11.025Y-2.415
T3
X6.435Y-3.8
X6.435Y-3.9
X6.435Y-4.0
X6.535Y-3.8
X6.535Y-3.9
X6.535Y-4.0
T4
X0.0531Y-0.7402
X0.0531Y-3.0005
X0.2406Y-1.5
X0.5312Y-2.25
X0.8031Y-0.7402
X1.0872Y-3.0005
X1.1781Y-1.5
X1.5531Y-0.7402
X1.7406Y-2.2505
X1.9281Y-1.5
X1.9406Y-3.7715
X2.1156Y-3.0
X2.3031Y-0.7402
X2.4906Y-2.2505
X2.6781Y-1.5
X2.8656Y-3.0
X2.8969Y-3.7715
X3.0531Y-0.7402
X3.2434Y-2.2505
X3.4281Y-1.5
X3.6156Y-3.0
X3.8156Y-0.7402
X3.9906Y-2.2505
X4.1781Y-1.5
X4.3656Y-3.0
X4.5656Y-0.7402
X4.7406Y-2.2505
X4.9281Y-1.5
X5.1156Y-3.0
X5.3156Y-0.7402
X5.4906Y-2.2505
X5.6781Y-1.5
X5.6781Y-3.766
X5.8656Y-3.0
X6.0625Y-0.7402
X6.2406Y-2.2505
X6.4281Y-1.5
X6.6156Y-3.0
X6.8125Y-0.7402
X6.9935Y-2.2496
X7.1781Y-1.5
X7.3656Y-3.0
X7.5656Y-0.7402
X7.7434Y-2.2505
X7.9281Y-1.5
X8.1156Y-3.0
X8.3125Y-0.7402
X8.4906Y-2.25
X8.6781Y-1.5
X8.6781Y-3.766
X8.875Y-3.0
X9.0656Y-0.7402
X9.2406Y-2.25
X9.4281Y-1.5
X9.6156Y-3.766
X9.8156Y-0.7402
X10.0938Y-3.0
X10.2812Y-2.25
X10.375Y-1.5
X10.5625Y-0.7402
T5
X0.25Y-1.1772
X0.25Y-3.4375
X0.4375Y-1.937
X0.4469Y-1.0906
X0.4469Y-3.3509
X0.6344Y-1.8504
X0.7281Y-2.687
X0.925Y-2.6004
X1.0Y-1.1772
X1.1969Y-1.0906
X1.284Y-3.4375
X1.375Y-1.937
X1.4809Y-3.3509
X1.5719Y-1.8504
X1.75Y-1.1772
X1.9375Y-2.6875
X1.9469Y-1.0906
X2.125Y-1.937
X2.1344Y-2.6009
X2.1374Y-4.2085
X2.3125Y-3.437
X2.3219Y-1.8504
X2.3343Y-4.1219
X2.5Y-1.1772
X2.5094Y-3.3504
X2.6875Y-2.6875
X2.6969Y-1.0906
X2.875Y-1.937
X2.8844Y-2.6009
X3.0625Y-3.437
X3.0719Y-1.8504
X3.0938Y-4.2085
X3.25Y-1.1772
X3.2594Y-3.3504
X3.2906Y-4.1219
X3.4403Y-2.6875
X3.4469Y-1.0906
X3.625Y-1.937
X3.6371Y-2.6009
X3.8125Y-3.437
X3.8219Y-1.8504
X4.0094Y-3.3504
X4.0124Y-1.1772
X4.1875Y-2.6875
X4.2093Y-1.0906
X4.375Y-1.937
X4.3844Y-2.6009
X4.5625Y-3.437
X4.5719Y-1.8504
X4.7594Y-3.3504
X4.7624Y-1.1772
X4.9375Y-2.6875
X4.9593Y-1.0906
X5.125Y-1.937
X5.1344Y-2.6009
X5.3125Y-3.437
X5.3219Y-1.8504
X5.5094Y-3.3504
X5.5124Y-1.1772
X5.6875Y-2.6875
X5.7093Y-1.0906
X5.875Y-1.937
X5.875Y-4.203
X5.8844Y-2.6009
X6.0625Y-3.437
X6.0719Y-1.8504
X6.0719Y-4.1164
X6.2594Y-1.1772
X6.2594Y-3.3504
X6.4375Y-2.6875
X6.4562Y-1.0906
X6.625Y-1.937
X6.6344Y-2.6009
X6.8125Y-3.437
X6.8219Y-1.8504
X7.0094Y-1.1772
X7.0094Y-3.3504
X7.1904Y-2.6866
X7.2062Y-1.0906
X7.375Y-1.937
X7.3872Y-2.6
X7.5625Y-3.437
X7.5719Y-1.8504
X7.7594Y-3.3504
X7.7624Y-1.1772
X7.9403Y-2.6875
X7.9593Y-1.0906
X8.125Y-1.937
X8.1371Y-2.6009
X8.3125Y-3.437
X8.3219Y-1.8504
X8.5094Y-1.1772
X8.5094Y-3.3504
X8.6875Y-2.687
X8.7062Y-1.0906
X8.875Y-1.937
X8.875Y-4.203
X8.8844Y-2.6004
X9.0719Y-1.8504
X9.0719Y-3.437
X9.0719Y-4.1164
X9.2624Y-1.1772
X9.2687Y-3.3504
X9.4375Y-2.687
X9.4593Y-1.0906
X9.625Y-1.937
X9.6344Y-2.6004
X9.8125Y-4.203
X9.8219Y-1.8504
X10.0094Y-4.1164
X10.0124Y-1.1772
X10.2093Y-1.0906
X10.2906Y-3.437
X10.4781Y-2.687
X10.4875Y-3.3504
X10.5719Y-1.937
X10.675Y-2.6004
X10.7594Y-1.1772
X10.7687Y-1.8504
X10.9562Y-1.0906
T2
G00X10.1449Y-0.4687
M15
G01X10.1449Y-0.445
M16
G05
G00X10.1449Y-0.6431
M15
G01X10.1449Y-0.5998
M16
G05
G00X10.4851Y-0.4687
M15
G01X10.4851Y-0.445
M16
G05
G00X10.4851Y-0.6431
M15
G01X10.4851Y-0.5998
M16
G05
M30
