%TF.GenerationSoftware,KiCad,Pcbnew,8.0.7*%
%TF.CreationDate,2025-01-15T11:07:51-06:00*%
%TF.ProjectId,boethia60,626f6574-6869-4613-9630-2e6b69636164,rev?*%
%TF.SameCoordinates,Original*%
%TF.FileFunction,Soldermask,Bot*%
%TF.FilePolarity,Negative*%
%FSLAX46Y46*%
G04 Gerber Fmt 4.6, Leading zero omitted, Abs format (unit mm)*
G04 Created by KiCad (PCBNEW 8.0.7) date 2025-01-15 11:07:51*
%MOMM*%
%LPD*%
G01*
G04 APERTURE LIST*
%ADD10C,5.000000*%
%ADD11C,0.650000*%
%ADD12O,1.000000X2.100000*%
%ADD13O,1.000000X1.600000*%
G04 APERTURE END LIST*
D10*
%TO.C,SW32*%
X239712500Y-62300000D03*
%TD*%
%TO.C,SW53*%
X77787500Y-81350000D03*
%TD*%
%TO.C,SW4*%
X235265000Y-23951250D03*
%TD*%
%TO.C,SW47*%
X192087500Y-81350000D03*
%TD*%
%TO.C,SW6*%
X197165000Y-23951250D03*
%TD*%
%TO.C,SW45*%
X230425000Y-81350000D03*
%TD*%
%TO.C,SW36*%
X163512500Y-62312500D03*
%TD*%
%TO.C,SW10*%
X120965000Y-23951250D03*
%TD*%
%TO.C,SW58*%
X225425000Y-100806250D03*
%TD*%
%TO.C,SW7*%
X178037500Y-23951250D03*
%TD*%
%TO.C,SW31*%
X266143750Y-62300000D03*
%TD*%
%TO.C,SW9*%
X140015000Y-23951250D03*
%TD*%
D11*
%TO.C,USB1*%
X264891000Y-15254000D03*
X259111000Y-15254000D03*
D12*
X266321000Y-15784000D03*
D13*
X266321000Y-11604000D03*
D12*
X257681000Y-15784000D03*
D13*
X257681000Y-11604000D03*
%TD*%
D10*
%TO.C,SW15*%
X25400000Y-23951250D03*
%TD*%
%TO.C,SW14*%
X44450000Y-23951250D03*
%TD*%
%TO.C,SW24*%
X130175000Y-43250000D03*
%TD*%
%TO.C,SW50*%
X134937500Y-81350000D03*
%TD*%
%TO.C,SW17*%
X268525000Y-43250000D03*
%TD*%
%TO.C,SW44*%
X261381250Y-81350000D03*
%TD*%
%TO.C,SW5*%
X216137500Y-23951250D03*
%TD*%
%TO.C,SW21*%
X187325000Y-43250000D03*
%TD*%
%TO.C,SW20*%
X206375000Y-43250000D03*
%TD*%
%TO.C,SW43*%
X18493750Y-62300000D03*
%TD*%
%TO.C,SW34*%
X201682500Y-62312500D03*
%TD*%
%TO.C,SW16*%
X6350000Y-23951250D03*
%TD*%
%TO.C,SW2*%
X273287500Y-23951250D03*
%TD*%
%TO.C,SW40*%
X87382500Y-62312500D03*
%TD*%
%TO.C,SW60*%
X78581250Y-100945000D03*
%TD*%
%TO.C,SW3*%
X254315000Y-23951250D03*
%TD*%
%TO.C,SW28*%
X53975000Y-43250000D03*
%TD*%
%TO.C,SW39*%
X106362500Y-62312500D03*
%TD*%
%TO.C,SW25*%
X111125000Y-43250000D03*
%TD*%
%TO.C,SW22*%
X168275000Y-43250000D03*
%TD*%
%TO.C,SW55*%
X32613750Y-81362500D03*
%TD*%
%TO.C,SW54*%
X58737500Y-81350000D03*
%TD*%
%TO.C,SW29*%
X34925000Y-43250000D03*
%TD*%
%TO.C,SW46*%
X211137500Y-81350000D03*
%TD*%
%TO.C,SW23*%
X149225000Y-43250000D03*
%TD*%
%TO.C,SW35*%
X182636000Y-62290000D03*
%TD*%
%TO.C,SW37*%
X144462500Y-62312500D03*
%TD*%
%TO.C,SW12*%
X82550000Y-23951250D03*
%TD*%
%TO.C,SW26*%
X92075000Y-43250000D03*
%TD*%
%TO.C,SW61*%
X54290000Y-100945000D03*
%TD*%
%TO.C,SW52*%
X96837500Y-81350000D03*
%TD*%
%TO.C,SW41*%
X68262500Y-62312500D03*
%TD*%
%TO.C,SW27*%
X73025000Y-43250000D03*
%TD*%
%TO.C,SW56*%
X6350000Y-81362500D03*
%TD*%
%TO.C,SW59*%
X149225000Y-100806250D03*
%TD*%
%TO.C,SW11*%
X101915000Y-23951250D03*
%TD*%
%TO.C,SW57*%
X249237500Y-100806250D03*
%TD*%
%TO.C,SW42*%
X49212500Y-62312500D03*
%TD*%
%TO.C,SW13*%
X63500000Y-23951250D03*
%TD*%
%TO.C,SW30*%
X11112500Y-43250000D03*
%TD*%
%TO.C,SW8*%
X158987500Y-23951250D03*
%TD*%
%TO.C,SW51*%
X115887500Y-81350000D03*
%TD*%
%TO.C,SW19*%
X225425000Y-43250000D03*
%TD*%
%TO.C,SW38*%
X125412500Y-62312500D03*
%TD*%
%TO.C,SW49*%
X153987500Y-81350000D03*
%TD*%
%TO.C,SW48*%
X173037500Y-81350000D03*
%TD*%
%TO.C,SW33*%
X220662500Y-62300000D03*
%TD*%
%TO.C,SW18*%
X244475000Y-43250000D03*
%TD*%
M02*
