G04 #@! TF.GenerationSoftware,KiCad,Pcbnew,8.0.7*
G04 #@! TF.CreationDate,2025-01-18T13:06:30-06:00*
G04 #@! TF.ProjectId,boethia60,626f6574-6869-4613-9630-2e6b69636164,rev?*
G04 #@! TF.SameCoordinates,Original*
G04 #@! TF.FileFunction,Soldermask,Top*
G04 #@! TF.FilePolarity,Negative*
%FSLAX46Y46*%
G04 Gerber Fmt 4.6, Leading zero omitted, Abs format (unit mm)*
G04 Created by KiCad (PCBNEW 8.0.7) date 2025-01-18 13:06:30*
%MOMM*%
%LPD*%
G01*
G04 APERTURE LIST*
G04 Aperture macros list*
%AMRoundRect*
0 Rectangle with rounded corners*
0 $1 Rounding radius*
0 $2 $3 $4 $5 $6 $7 $8 $9 X,Y pos of 4 corners*
0 Add a 4 corners polygon primitive as box body*
4,1,4,$2,$3,$4,$5,$6,$7,$8,$9,$2,$3,0*
0 Add four circle primitives for the rounded corners*
1,1,$1+$1,$2,$3*
1,1,$1+$1,$4,$5*
1,1,$1+$1,$6,$7*
1,1,$1+$1,$8,$9*
0 Add four rect primitives between the rounded corners*
20,1,$1+$1,$2,$3,$4,$5,0*
20,1,$1+$1,$4,$5,$6,$7,0*
20,1,$1+$1,$6,$7,$8,$9,0*
20,1,$1+$1,$8,$9,$2,$3,0*%
G04 Aperture macros list end*
%ADD10RoundRect,0.112500X-0.112500X0.187500X-0.112500X-0.187500X0.112500X-0.187500X0.112500X0.187500X0*%
%ADD11RoundRect,0.050000X0.050000X-0.387500X0.050000X0.387500X-0.050000X0.387500X-0.050000X-0.387500X0*%
%ADD12RoundRect,0.050000X0.387500X-0.050000X0.387500X0.050000X-0.387500X0.050000X-0.387500X-0.050000X0*%
%ADD13R,3.200000X3.200000*%
%ADD14RoundRect,0.140000X-0.140000X-0.170000X0.140000X-0.170000X0.140000X0.170000X-0.140000X0.170000X0*%
%ADD15RoundRect,0.140000X0.140000X0.170000X-0.140000X0.170000X-0.140000X-0.170000X0.140000X-0.170000X0*%
%ADD16C,1.700000*%
%ADD17R,1.700000X1.700000*%
%ADD18RoundRect,0.243750X0.243750X0.456250X-0.243750X0.456250X-0.243750X-0.456250X0.243750X-0.456250X0*%
%ADD19RoundRect,0.150000X0.650000X0.150000X-0.650000X0.150000X-0.650000X-0.150000X0.650000X-0.150000X0*%
%ADD20RoundRect,0.135000X-0.135000X-0.185000X0.135000X-0.185000X0.135000X0.185000X-0.135000X0.185000X0*%
%ADD21RoundRect,0.135000X0.135000X0.185000X-0.135000X0.185000X-0.135000X-0.185000X0.135000X-0.185000X0*%
%ADD22RoundRect,0.112500X-0.187500X-0.112500X0.187500X-0.112500X0.187500X0.112500X-0.187500X0.112500X0*%
%ADD23RoundRect,0.140000X0.170000X-0.140000X0.170000X0.140000X-0.170000X0.140000X-0.170000X-0.140000X0*%
%ADD24RoundRect,0.175000X-0.175000X-0.325000X0.175000X-0.325000X0.175000X0.325000X-0.175000X0.325000X0*%
%ADD25RoundRect,0.150000X-0.200000X-0.150000X0.200000X-0.150000X0.200000X0.150000X-0.200000X0.150000X0*%
%ADD26RoundRect,0.135000X-0.185000X0.135000X-0.185000X-0.135000X0.185000X-0.135000X0.185000X0.135000X0*%
%ADD27RoundRect,0.150000X0.150000X-0.512500X0.150000X0.512500X-0.150000X0.512500X-0.150000X-0.512500X0*%
%ADD28R,1.100000X1.800000*%
%ADD29RoundRect,0.112500X0.112500X-0.187500X0.112500X0.187500X-0.112500X0.187500X-0.112500X-0.187500X0*%
%ADD30RoundRect,0.140000X-0.170000X0.140000X-0.170000X-0.140000X0.170000X-0.140000X0.170000X0.140000X0*%
%ADD31RoundRect,0.112500X0.187500X0.112500X-0.187500X0.112500X-0.187500X-0.112500X0.187500X-0.112500X0*%
%ADD32R,1.200000X1.400000*%
%ADD33RoundRect,0.218750X-0.256250X0.218750X-0.256250X-0.218750X0.256250X-0.218750X0.256250X0.218750X0*%
%ADD34C,0.650000*%
%ADD35R,0.600000X2.450000*%
%ADD36R,0.300000X2.450000*%
%ADD37C,1.900000*%
%ADD38C,1.600000*%
%ADD39C,5.050000*%
%ADD40C,3.050000*%
%ADD41RoundRect,0.250000X-1.025000X-1.000000X1.025000X-1.000000X1.025000X1.000000X-1.025000X1.000000X0*%
G04 APERTURE END LIST*
D10*
X218281250Y-25143750D03*
X218281250Y-27243750D03*
X37306250Y-6093750D03*
X37306250Y-8193750D03*
X256381250Y-25143750D03*
X256381250Y-27243750D03*
X56356250Y-6093750D03*
X56356250Y-8193750D03*
D11*
X17243750Y-85987500D03*
X17643750Y-85987500D03*
X18043750Y-85987500D03*
X18443750Y-85987500D03*
X18843750Y-85987500D03*
X19243750Y-85987500D03*
X19643750Y-85987500D03*
X20043750Y-85987500D03*
X20443750Y-85987500D03*
X20843750Y-85987500D03*
X21243750Y-85987500D03*
X21643750Y-85987500D03*
X22043750Y-85987500D03*
X22443750Y-85987500D03*
D12*
X23281250Y-85150000D03*
X23281250Y-84750000D03*
X23281250Y-84350000D03*
X23281250Y-83950000D03*
X23281250Y-83550000D03*
X23281250Y-83150000D03*
X23281250Y-82750000D03*
X23281250Y-82350000D03*
X23281250Y-81950000D03*
X23281250Y-81550000D03*
X23281250Y-81150000D03*
X23281250Y-80750000D03*
X23281250Y-80350000D03*
X23281250Y-79950000D03*
D11*
X22443750Y-79112500D03*
X22043750Y-79112500D03*
X21643750Y-79112500D03*
X21243750Y-79112500D03*
X20843750Y-79112500D03*
X20443750Y-79112500D03*
X20043750Y-79112500D03*
X19643750Y-79112500D03*
X19243750Y-79112500D03*
X18843750Y-79112500D03*
X18443750Y-79112500D03*
X18043750Y-79112500D03*
X17643750Y-79112500D03*
X17243750Y-79112500D03*
D12*
X16406250Y-79950000D03*
X16406250Y-80350000D03*
X16406250Y-80750000D03*
X16406250Y-81150000D03*
X16406250Y-81550000D03*
X16406250Y-81950000D03*
X16406250Y-82350000D03*
X16406250Y-82750000D03*
X16406250Y-83150000D03*
X16406250Y-83550000D03*
X16406250Y-83950000D03*
X16406250Y-84350000D03*
X16406250Y-84750000D03*
X16406250Y-85150000D03*
D13*
X19843750Y-82550000D03*
D10*
X23018750Y-28318750D03*
X23018750Y-30418750D03*
X132556250Y-6093750D03*
X132556250Y-8193750D03*
X184943750Y-63243750D03*
X184943750Y-65343750D03*
D14*
X30355600Y-80264000D03*
X31315600Y-80264000D03*
D10*
X18256250Y-66418750D03*
X18256250Y-68518750D03*
D15*
X4762500Y-25400000D03*
X3802500Y-25400000D03*
D16*
X40005000Y-77978000D03*
X42545000Y-77978000D03*
X40005000Y-80518000D03*
X42545000Y-80518000D03*
X40005000Y-83058000D03*
D17*
X42545000Y-83058000D03*
D18*
X10638000Y-4064000D03*
X8763000Y-4064000D03*
D10*
X251618750Y-44193750D03*
X251618750Y-46293750D03*
X142081250Y-25143750D03*
X142081250Y-27243750D03*
D14*
X29393000Y-84582000D03*
X30353000Y-84582000D03*
D15*
X9494400Y-82499200D03*
X8534400Y-82499200D03*
D10*
X277812500Y-44193750D03*
X277812500Y-46293750D03*
D19*
X12490000Y-90805000D03*
X12490000Y-89535000D03*
X12490000Y-88265000D03*
X12490000Y-86995000D03*
X5290000Y-86995000D03*
X5290000Y-88265000D03*
X5290000Y-89535000D03*
X5290000Y-90805000D03*
D10*
X213518750Y-44193750D03*
X213518750Y-46293750D03*
X146843750Y-63243750D03*
X146843750Y-65343750D03*
X156368750Y-44193750D03*
X156368750Y-46293750D03*
D20*
X12569000Y-80518000D03*
X13589000Y-80518000D03*
D15*
X9499600Y-81483200D03*
X8539600Y-81483200D03*
D10*
X118268750Y-44193750D03*
X118268750Y-46293750D03*
D21*
X30353000Y-83566000D03*
X29333000Y-83566000D03*
D10*
X103981250Y-25143750D03*
X103981250Y-27243750D03*
X80168750Y-44193750D03*
X80168750Y-46293750D03*
X265906250Y-6093750D03*
X265906250Y-8193750D03*
X84931250Y-25143750D03*
X84931250Y-27243750D03*
X70643750Y-63243750D03*
X70643750Y-65343750D03*
X175418750Y-43937500D03*
X175418750Y-46037500D03*
X237331250Y-25143750D03*
X237331250Y-27243750D03*
D22*
X281525000Y-6350000D03*
X283625000Y-6350000D03*
D10*
X199231250Y-25143750D03*
X199231250Y-27243750D03*
D23*
X14122400Y-77774800D03*
X14122400Y-76814800D03*
D10*
X46831250Y-25143750D03*
X46831250Y-27243750D03*
D15*
X9471600Y-80518000D03*
X8511600Y-80518000D03*
D10*
X94456250Y-6093750D03*
X94456250Y-8193750D03*
X123031250Y-25143750D03*
X123031250Y-27243750D03*
X29845000Y-46067000D03*
X29845000Y-48167000D03*
X61118750Y-44193750D03*
X61118750Y-46293750D03*
D23*
X20828000Y-76403200D03*
X20828000Y-75443200D03*
D24*
X17685000Y-7317000D03*
D25*
X17685000Y-9017000D03*
X19685000Y-9017000D03*
X19685000Y-7117000D03*
D10*
X232568750Y-82293750D03*
X232568750Y-84393750D03*
X113506250Y-6093750D03*
X113506250Y-8193750D03*
X232568750Y-44193750D03*
X232568750Y-46293750D03*
D21*
X51816000Y-73787000D03*
X50796000Y-73787000D03*
D10*
X208756250Y-6093750D03*
X208756250Y-8193750D03*
X151606250Y-6093750D03*
X151606250Y-8193750D03*
X223043750Y-63243750D03*
X223043750Y-65343750D03*
D26*
X27178000Y-79375000D03*
X27178000Y-80395000D03*
D10*
X227806250Y-6093750D03*
X227806250Y-8193750D03*
D23*
X15189200Y-77774800D03*
X15189200Y-76814800D03*
D27*
X3968750Y-29368750D03*
X5868750Y-29368750D03*
X4918750Y-27093750D03*
D10*
X127793750Y-63243750D03*
X127793750Y-65343750D03*
X161131250Y-25143750D03*
X161131250Y-27243750D03*
D15*
X5242500Y-30956250D03*
X4282500Y-30956250D03*
D10*
X75406250Y-6093750D03*
X75406250Y-8193750D03*
D21*
X13589000Y-81534000D03*
X12569000Y-81534000D03*
D28*
X48156250Y-72156250D03*
X48156250Y-65956250D03*
X51856250Y-72156250D03*
X51856250Y-65956250D03*
D10*
X242093750Y-63243750D03*
X242093750Y-65343750D03*
D14*
X30304800Y-81229200D03*
X31264800Y-81229200D03*
D29*
X18256250Y-17181250D03*
X18256250Y-15081250D03*
D14*
X21265000Y-88798400D03*
X22225000Y-88798400D03*
D10*
X108743750Y-63243750D03*
X108743750Y-65343750D03*
D30*
X30424000Y-85979000D03*
X30424000Y-86939000D03*
D10*
X246856250Y-6093750D03*
X246856250Y-8193750D03*
X170656250Y-6093750D03*
X170656250Y-8193750D03*
X189706250Y-5837500D03*
X189706250Y-7937500D03*
X165893750Y-82293750D03*
X165893750Y-84393750D03*
X89662000Y-85564000D03*
X89662000Y-87664000D03*
X137318750Y-44193750D03*
X137318750Y-46293750D03*
D26*
X19939000Y-3933000D03*
X19939000Y-4953000D03*
D31*
X136781250Y-89693750D03*
X134681250Y-89693750D03*
D32*
X33450000Y-86299750D03*
X33450000Y-84099750D03*
X31750000Y-84099750D03*
X31750000Y-86299750D03*
D23*
X13106400Y-77774800D03*
X13106400Y-76814800D03*
D15*
X16583600Y-87223600D03*
X15623600Y-87223600D03*
D10*
X180181250Y-25143750D03*
X180181250Y-27243750D03*
D33*
X25400000Y-2870000D03*
X25400000Y-4445000D03*
D10*
X203993750Y-63243750D03*
X203993750Y-65343750D03*
X280193750Y-25143750D03*
X280193750Y-27243750D03*
X44450000Y-63243750D03*
X44450000Y-65343750D03*
D23*
X16967200Y-77645200D03*
X16967200Y-76685200D03*
D31*
X279656250Y-70643750D03*
X277556250Y-70643750D03*
D10*
X65881250Y-25143750D03*
X65881250Y-27243750D03*
X165893750Y-63243750D03*
X165893750Y-65343750D03*
X194468750Y-44193750D03*
X194468750Y-46293750D03*
X256381250Y-82293750D03*
X256381250Y-84393750D03*
X89693750Y-63243750D03*
X89693750Y-65343750D03*
X99218750Y-44193750D03*
X99218750Y-46293750D03*
D31*
X203456250Y-89693750D03*
X201356250Y-89693750D03*
D34*
X21557000Y-105000D03*
X15777000Y-105000D03*
D35*
X21892000Y-2050000D03*
X21117000Y-2050000D03*
D36*
X20417000Y-2050000D03*
X19917000Y-2050000D03*
X19417000Y-2050000D03*
X18917000Y-2050000D03*
X18417000Y-2050000D03*
X17917000Y-2050000D03*
X17417000Y-2050000D03*
X16917000Y-2050000D03*
D35*
X16217000Y-2050000D03*
X15442000Y-2050000D03*
D10*
X65913000Y-85056000D03*
X65913000Y-87156000D03*
D21*
X16891000Y-5461000D03*
X15871000Y-5461000D03*
D37*
X227862500Y-66675000D03*
D38*
X228362500Y-61525000D03*
D39*
X233362500Y-66675000D03*
D40*
X233362500Y-72575000D03*
X238362500Y-70475000D03*
D37*
X238862500Y-66675000D03*
D41*
X229862500Y-72675000D03*
X241862500Y-70475000D03*
D37*
X137375000Y-9525000D03*
D38*
X137875000Y-4375000D03*
D39*
X142875000Y-9525000D03*
D40*
X142875000Y-15425000D03*
X147875000Y-13325000D03*
D37*
X148375000Y-9525000D03*
D41*
X139375000Y-15525000D03*
X151375000Y-13325000D03*
D37*
X115943750Y-85725000D03*
D38*
X116443750Y-80575000D03*
D39*
X121443750Y-85725000D03*
D40*
X121443750Y-91625000D03*
X126443750Y-89525000D03*
D37*
X126943750Y-85725000D03*
D41*
X117943750Y-91725000D03*
X129943750Y-89525000D03*
D37*
X251675000Y-9525000D03*
D38*
X252175000Y-4375000D03*
D39*
X257175000Y-9525000D03*
D40*
X257175000Y-15425000D03*
X262175000Y-13325000D03*
D37*
X262675000Y-9525000D03*
D41*
X253675000Y-15525000D03*
X265675000Y-13325000D03*
D37*
X23075000Y-9525000D03*
D38*
X23575000Y-4375000D03*
D39*
X28575000Y-9525000D03*
D40*
X28575000Y-15425000D03*
X33575000Y-13325000D03*
D37*
X34075000Y-9525000D03*
D41*
X25075000Y-15525000D03*
X37075000Y-13325000D03*
D37*
X182618750Y-85725000D03*
D38*
X183118750Y-80575000D03*
D39*
X188118750Y-85725000D03*
D40*
X188118750Y-91625000D03*
X193118750Y-89525000D03*
D37*
X193618750Y-85725000D03*
D41*
X184618750Y-91725000D03*
X196618750Y-89525000D03*
D37*
X118325000Y-9525000D03*
D38*
X118825000Y-4375000D03*
D39*
X123825000Y-9525000D03*
D40*
X123825000Y-15425000D03*
X128825000Y-13325000D03*
D37*
X129325000Y-9525000D03*
D41*
X120325000Y-15525000D03*
X132325000Y-13325000D03*
D37*
X51650000Y-28575000D03*
D38*
X52150000Y-23425000D03*
D39*
X57150000Y-28575000D03*
D40*
X57150000Y-34475000D03*
X62150000Y-32375000D03*
D37*
X62650000Y-28575000D03*
D41*
X53650000Y-34575000D03*
X65650000Y-32375000D03*
D37*
X75462500Y-66675000D03*
D38*
X75962500Y-61525000D03*
D39*
X80962500Y-66675000D03*
D40*
X80962500Y-72575000D03*
X85962500Y-70475000D03*
D37*
X86462500Y-66675000D03*
D41*
X77462500Y-72675000D03*
X89462500Y-70475000D03*
D37*
X237387500Y-47625000D03*
D38*
X237887500Y-42475000D03*
D39*
X242887500Y-47625000D03*
D40*
X242887500Y-53525000D03*
X247887500Y-51425000D03*
D37*
X248387500Y-47625000D03*
D41*
X239387500Y-53625000D03*
X251387500Y-51425000D03*
D37*
X218337500Y-47625000D03*
D38*
X218837500Y-42475000D03*
D39*
X223837500Y-47625000D03*
D40*
X223837500Y-53525000D03*
X228837500Y-51425000D03*
D37*
X229337500Y-47625000D03*
D41*
X220337500Y-53625000D03*
X232337500Y-51425000D03*
D37*
X51650000Y-85725000D03*
D38*
X52150000Y-80575000D03*
D39*
X57150000Y-85725000D03*
D40*
X57150000Y-91625000D03*
X62150000Y-89525000D03*
D37*
X62650000Y-85725000D03*
D41*
X53650000Y-91725000D03*
X65650000Y-89525000D03*
D37*
X165950000Y-28575000D03*
D38*
X166450000Y-23425000D03*
D39*
X171450000Y-28575000D03*
D40*
X171450000Y-34475000D03*
X176450000Y-32375000D03*
D37*
X176950000Y-28575000D03*
D41*
X167950000Y-34575000D03*
X179950000Y-32375000D03*
D37*
X30218750Y-66675000D03*
D38*
X30718750Y-61525000D03*
D39*
X35718750Y-66675000D03*
D40*
X35718750Y-72575000D03*
X40718750Y-70475000D03*
D37*
X41218750Y-66675000D03*
D41*
X32218750Y-72675000D03*
X44218750Y-70475000D03*
D37*
X108800000Y-28575000D03*
D38*
X109300000Y-23425000D03*
D39*
X114300000Y-28575000D03*
D40*
X114300000Y-34475000D03*
X119300000Y-32375000D03*
D37*
X119800000Y-28575000D03*
D41*
X110800000Y-34575000D03*
X122800000Y-32375000D03*
D37*
X61175000Y-9525000D03*
D38*
X61675000Y-4375000D03*
D39*
X66675000Y-9525000D03*
D40*
X66675000Y-15425000D03*
X71675000Y-13325000D03*
D37*
X72175000Y-9525000D03*
D41*
X63175000Y-15525000D03*
X75175000Y-13325000D03*
D37*
X232625000Y-9525000D03*
D38*
X233125000Y-4375000D03*
D39*
X238125000Y-9525000D03*
D40*
X238125000Y-15425000D03*
X243125000Y-13325000D03*
D37*
X243625000Y-9525000D03*
D41*
X234625000Y-15525000D03*
X246625000Y-13325000D03*
D37*
X32600000Y-28575000D03*
D38*
X33100000Y-23425000D03*
D39*
X38100000Y-28575000D03*
D40*
X38100000Y-34475000D03*
X43100000Y-32375000D03*
D37*
X43600000Y-28575000D03*
D41*
X34600000Y-34575000D03*
X46600000Y-32375000D03*
D37*
X170712500Y-66675000D03*
D38*
X171212500Y-61525000D03*
D39*
X176212500Y-66675000D03*
D40*
X176212500Y-72575000D03*
X181212500Y-70475000D03*
D37*
X181712500Y-66675000D03*
D41*
X172712500Y-72675000D03*
X184712500Y-70475000D03*
D37*
X65937500Y-47625000D03*
D38*
X66437500Y-42475000D03*
D39*
X71437500Y-47625000D03*
D40*
X71437500Y-53525000D03*
X76437500Y-51425000D03*
D37*
X76937500Y-47625000D03*
D41*
X67937500Y-53625000D03*
X79937500Y-51425000D03*
D37*
X151662500Y-66675000D03*
D38*
X152162500Y-61525000D03*
D39*
X157162500Y-66675000D03*
D40*
X157162500Y-72575000D03*
X162162500Y-70475000D03*
D37*
X162662500Y-66675000D03*
D41*
X153662500Y-72675000D03*
X165662500Y-70475000D03*
D37*
X89750000Y-28575000D03*
D38*
X90250000Y-23425000D03*
D39*
X95250000Y-28575000D03*
D40*
X95250000Y-34475000D03*
X100250000Y-32375000D03*
D37*
X100750000Y-28575000D03*
D41*
X91750000Y-34575000D03*
X103750000Y-32375000D03*
D37*
X161187500Y-47625000D03*
D38*
X161687500Y-42475000D03*
D39*
X166687500Y-47625000D03*
D40*
X166687500Y-53525000D03*
X171687500Y-51425000D03*
D37*
X172187500Y-47625000D03*
D41*
X163187500Y-53625000D03*
X175187500Y-51425000D03*
D37*
X175475000Y-9525000D03*
D38*
X175975000Y-4375000D03*
D39*
X180975000Y-9525000D03*
D40*
X180975000Y-15425000D03*
X185975000Y-13325000D03*
D37*
X186475000Y-9525000D03*
D41*
X177475000Y-15525000D03*
X189475000Y-13325000D03*
D37*
X218337500Y-85725000D03*
D38*
X218837500Y-80575000D03*
D39*
X223837500Y-85725000D03*
D40*
X223837500Y-91625000D03*
X228837500Y-89525000D03*
D37*
X229337500Y-85725000D03*
D41*
X220337500Y-91725000D03*
X232337500Y-89525000D03*
D37*
X151662500Y-85725000D03*
D38*
X152162500Y-80575000D03*
D39*
X157162500Y-85725000D03*
D40*
X157162500Y-91625000D03*
X162162500Y-89525000D03*
D37*
X162662500Y-85725000D03*
D41*
X153662500Y-91725000D03*
X165662500Y-89525000D03*
D37*
X94512500Y-66675000D03*
D38*
X95012500Y-61525000D03*
D39*
X100012500Y-66675000D03*
D40*
X100012500Y-72575000D03*
X105012500Y-70475000D03*
D37*
X105512500Y-66675000D03*
D41*
X96512500Y-72675000D03*
X108512500Y-70475000D03*
D37*
X80225000Y-9525000D03*
D38*
X80725000Y-4375000D03*
D39*
X85725000Y-9525000D03*
D40*
X85725000Y-15425000D03*
X90725000Y-13325000D03*
D37*
X91225000Y-9525000D03*
D41*
X82225000Y-15525000D03*
X94225000Y-13325000D03*
D37*
X265962500Y-28575000D03*
D38*
X266462500Y-23425000D03*
D39*
X271462500Y-28575000D03*
D40*
X271462500Y-34475000D03*
X276462500Y-32375000D03*
D37*
X276962500Y-28575000D03*
D41*
X267962500Y-34575000D03*
X279962500Y-32375000D03*
D37*
X223100000Y-28575000D03*
D38*
X223600000Y-23425000D03*
D39*
X228600000Y-28575000D03*
D40*
X228600000Y-34475000D03*
X233600000Y-32375000D03*
D37*
X234100000Y-28575000D03*
D41*
X225100000Y-34575000D03*
X237100000Y-32375000D03*
D37*
X4025000Y-9525000D03*
D38*
X4525000Y-4375000D03*
D39*
X9525000Y-9525000D03*
D40*
X9525000Y-15425000D03*
X14525000Y-13325000D03*
D37*
X15025000Y-9525000D03*
D41*
X6025000Y-15525000D03*
X18025000Y-13325000D03*
D37*
X270725000Y-9525000D03*
D38*
X271225000Y-4375000D03*
D39*
X276225000Y-9525000D03*
D40*
X276225000Y-15425000D03*
X281225000Y-13325000D03*
D37*
X281725000Y-9525000D03*
D41*
X272725000Y-15525000D03*
X284725000Y-13325000D03*
D37*
X208812500Y-66675000D03*
D38*
X209312500Y-61525000D03*
D39*
X214312500Y-66675000D03*
D40*
X214312500Y-72575000D03*
X219312500Y-70475000D03*
D37*
X219812500Y-66675000D03*
D41*
X210812500Y-72675000D03*
X222812500Y-70475000D03*
D37*
X194525000Y-9525000D03*
D38*
X195025000Y-4375000D03*
D39*
X200025000Y-9525000D03*
D40*
X200025000Y-15425000D03*
X205025000Y-13325000D03*
D37*
X205525000Y-9525000D03*
D41*
X196525000Y-15525000D03*
X208525000Y-13325000D03*
D37*
X132612500Y-66675000D03*
D38*
X133112500Y-61525000D03*
D39*
X138112500Y-66675000D03*
D40*
X138112500Y-72575000D03*
X143112500Y-70475000D03*
D37*
X143612500Y-66675000D03*
D41*
X134612500Y-72675000D03*
X146612500Y-70475000D03*
D37*
X180237500Y-47625000D03*
D38*
X180737500Y-42475000D03*
D39*
X185737500Y-47625000D03*
D40*
X185737500Y-53525000D03*
X190737500Y-51425000D03*
D37*
X191237500Y-47625000D03*
D41*
X182237500Y-53625000D03*
X194237500Y-51425000D03*
D37*
X258818750Y-66675000D03*
D38*
X259318750Y-61525000D03*
D39*
X264318750Y-66675000D03*
D40*
X264318750Y-72575000D03*
X269318750Y-70475000D03*
D37*
X269818750Y-66675000D03*
D41*
X260818750Y-72675000D03*
X272818750Y-70475000D03*
D37*
X242150000Y-85725000D03*
D38*
X242650000Y-80575000D03*
D39*
X247650000Y-85725000D03*
D40*
X247650000Y-91625000D03*
X252650000Y-89525000D03*
D37*
X253150000Y-85725000D03*
D41*
X244150000Y-91725000D03*
X256150000Y-89525000D03*
D37*
X56412500Y-66675000D03*
D38*
X56912500Y-61525000D03*
D39*
X61912500Y-66675000D03*
D40*
X61912500Y-72575000D03*
X66912500Y-70475000D03*
D37*
X67412500Y-66675000D03*
D41*
X58412500Y-72675000D03*
X70412500Y-70475000D03*
D37*
X146900000Y-28575000D03*
D38*
X147400000Y-23425000D03*
D39*
X152400000Y-28575000D03*
D40*
X152400000Y-34475000D03*
X157400000Y-32375000D03*
D37*
X157900000Y-28575000D03*
D41*
X148900000Y-34575000D03*
X160900000Y-32375000D03*
D37*
X204050000Y-28575000D03*
D38*
X204550000Y-23425000D03*
D39*
X209550000Y-28575000D03*
D40*
X209550000Y-34475000D03*
X214550000Y-32375000D03*
D37*
X215050000Y-28575000D03*
D41*
X206050000Y-34575000D03*
X218050000Y-32375000D03*
D37*
X123087500Y-47625000D03*
D38*
X123587500Y-42475000D03*
D39*
X128587500Y-47625000D03*
D40*
X128587500Y-53525000D03*
X133587500Y-51425000D03*
D37*
X134087500Y-47625000D03*
D41*
X125087500Y-53625000D03*
X137087500Y-51425000D03*
D37*
X242150000Y-28575000D03*
D38*
X242650000Y-23425000D03*
D39*
X247650000Y-28575000D03*
D40*
X247650000Y-34475000D03*
X252650000Y-32375000D03*
D37*
X253150000Y-28575000D03*
D41*
X244150000Y-34575000D03*
X256150000Y-32375000D03*
D37*
X8787500Y-28575000D03*
D38*
X9287500Y-23425000D03*
D39*
X14287500Y-28575000D03*
D40*
X14287500Y-34475000D03*
X19287500Y-32375000D03*
D37*
X19787500Y-28575000D03*
D41*
X10787500Y-34575000D03*
X22787500Y-32375000D03*
D37*
X70700000Y-28575000D03*
D38*
X71200000Y-23425000D03*
D39*
X76200000Y-28575000D03*
D40*
X76200000Y-34475000D03*
X81200000Y-32375000D03*
D37*
X81700000Y-28575000D03*
D41*
X72700000Y-34575000D03*
X84700000Y-32375000D03*
D37*
X185000000Y-28575000D03*
D38*
X185500000Y-23425000D03*
D39*
X190500000Y-28575000D03*
D40*
X190500000Y-34475000D03*
X195500000Y-32375000D03*
D37*
X196000000Y-28575000D03*
D41*
X187000000Y-34575000D03*
X199000000Y-32375000D03*
D37*
X104037500Y-47625000D03*
D38*
X104537500Y-42475000D03*
D39*
X109537500Y-47625000D03*
D40*
X109537500Y-53525000D03*
X114537500Y-51425000D03*
D37*
X115037500Y-47625000D03*
D41*
X106037500Y-53625000D03*
X118037500Y-51425000D03*
D37*
X263581250Y-47625000D03*
D38*
X264081250Y-42475000D03*
D39*
X269081250Y-47625000D03*
D40*
X269081250Y-53525000D03*
X274081250Y-51425000D03*
D37*
X274581250Y-47625000D03*
D41*
X265581250Y-53625000D03*
X277581250Y-51425000D03*
D37*
X42125000Y-9525000D03*
D38*
X42625000Y-4375000D03*
D39*
X47625000Y-9525000D03*
D40*
X47625000Y-15425000D03*
X52625000Y-13325000D03*
D37*
X53125000Y-9525000D03*
D41*
X44125000Y-15525000D03*
X56125000Y-13325000D03*
D37*
X46887500Y-47625000D03*
D38*
X47387500Y-42475000D03*
D39*
X52387500Y-47625000D03*
D40*
X52387500Y-53525000D03*
X57387500Y-51425000D03*
D37*
X57887500Y-47625000D03*
D41*
X48887500Y-53625000D03*
X60887500Y-51425000D03*
D37*
X15931250Y-47625000D03*
D38*
X16431250Y-42475000D03*
D39*
X21431250Y-47625000D03*
D40*
X21431250Y-53525000D03*
X26431250Y-51425000D03*
D37*
X26931250Y-47625000D03*
D41*
X17931250Y-53625000D03*
X29931250Y-51425000D03*
D37*
X99275000Y-9525000D03*
D38*
X99775000Y-4375000D03*
D39*
X104775000Y-9525000D03*
D40*
X104775000Y-15425000D03*
X109775000Y-13325000D03*
D37*
X110275000Y-9525000D03*
D41*
X101275000Y-15525000D03*
X113275000Y-13325000D03*
D37*
X189762500Y-66675000D03*
D38*
X190262500Y-61525000D03*
D39*
X195262500Y-66675000D03*
D40*
X195262500Y-72575000D03*
X200262500Y-70475000D03*
D37*
X200762500Y-66675000D03*
D41*
X191762500Y-72675000D03*
X203762500Y-70475000D03*
D37*
X127850000Y-28575000D03*
D38*
X128350000Y-23425000D03*
D39*
X133350000Y-28575000D03*
D40*
X133350000Y-34475000D03*
X138350000Y-32375000D03*
D37*
X138850000Y-28575000D03*
D41*
X129850000Y-34575000D03*
X141850000Y-32375000D03*
D37*
X156425000Y-9525000D03*
D38*
X156925000Y-4375000D03*
D39*
X161925000Y-9525000D03*
D40*
X161925000Y-15425000D03*
X166925000Y-13325000D03*
D37*
X167425000Y-9525000D03*
D41*
X158425000Y-15525000D03*
X170425000Y-13325000D03*
D37*
X142137500Y-47625000D03*
D38*
X142637500Y-42475000D03*
D39*
X147637500Y-47625000D03*
D40*
X147637500Y-53525000D03*
X152637500Y-51425000D03*
D37*
X153137500Y-47625000D03*
D41*
X144137500Y-53625000D03*
X156137500Y-51425000D03*
D37*
X4025000Y-66675000D03*
D38*
X4525000Y-61525000D03*
D39*
X9525000Y-66675000D03*
D40*
X9525000Y-72575000D03*
X14525000Y-70475000D03*
D37*
X15025000Y-66675000D03*
D41*
X6025000Y-72675000D03*
X18025000Y-70475000D03*
D37*
X213575000Y-9525000D03*
D38*
X214075000Y-4375000D03*
D39*
X219075000Y-9525000D03*
D40*
X219075000Y-15425000D03*
X224075000Y-13325000D03*
D37*
X224575000Y-9525000D03*
D41*
X215575000Y-15525000D03*
X227575000Y-13325000D03*
D37*
X199287500Y-47625000D03*
D38*
X199787500Y-42475000D03*
D39*
X204787500Y-47625000D03*
D40*
X204787500Y-53525000D03*
X209787500Y-51425000D03*
D37*
X210287500Y-47625000D03*
D41*
X201287500Y-53625000D03*
X213287500Y-51425000D03*
D37*
X75462500Y-85725000D03*
D38*
X75962500Y-80575000D03*
D39*
X80962500Y-85725000D03*
D40*
X80962500Y-91625000D03*
X85962500Y-89525000D03*
D37*
X86462500Y-85725000D03*
D41*
X77462500Y-91725000D03*
X89462500Y-89525000D03*
D37*
X113562500Y-66675000D03*
D38*
X114062500Y-61525000D03*
D39*
X119062500Y-66675000D03*
D40*
X119062500Y-72575000D03*
X124062500Y-70475000D03*
D37*
X124562500Y-66675000D03*
D41*
X115562500Y-72675000D03*
X127562500Y-70475000D03*
D37*
X84987500Y-47625000D03*
D38*
X85487500Y-42475000D03*
D39*
X90487500Y-47625000D03*
D40*
X90487500Y-53525000D03*
X95487500Y-51425000D03*
D37*
X95987500Y-47625000D03*
D41*
X86987500Y-53625000D03*
X98987500Y-51425000D03*
M02*
