%TF.GenerationSoftware,KiCad,Pcbnew,8.0.7*%
%TF.CreationDate,2025-01-18T13:07:10-06:00*%
%TF.ProjectId,boethia60,626f6574-6869-4613-9630-2e6b69636164,rev?*%
%TF.SameCoordinates,Original*%
%TF.FileFunction,Drillmap*%
%TF.FilePolarity,Positive*%
%FSLAX45Y45*%
G04 Gerber Fmt 4.5, Leading zero omitted, Abs format (unit mm)*
G04 Created by KiCad (PCBNEW 8.0.7) date 2025-01-18 13:07:10*
%MOMM*%
%LPD*%
G01*
G04 APERTURE LIST*
%ADD10C,0.200000*%
%ADD11C,0.120000*%
%ADD12C,0.100000*%
%ADD13C,0.160000*%
%ADD14C,0.190000*%
%ADD15C,0.305000*%
%ADD16C,0.505000*%
G04 APERTURE END LIST*
D10*
X317500Y-9366250D02*
G75*
G02*
X-79375Y-8969375I0J396875D01*
G01*
X-79375Y-536575D02*
X-79375Y-8969375D01*
X28257500Y-139700D02*
X2460625Y-139700D01*
X1270000Y-139700D02*
X317500Y-139700D01*
X2460625Y-139700D02*
G75*
G02*
X2381250Y-60325I5J79380D01*
G01*
X28654375Y-8969375D02*
G75*
G02*
X28257500Y-9366245I-396875J5D01*
G01*
X28654375Y-8969375D02*
X28654375Y-536575D01*
X1349375Y-60325D02*
G75*
G02*
X1270000Y-139700I-79375J0D01*
G01*
X28257500Y-139700D02*
G75*
G02*
X28654370Y-536575I0J-396870D01*
G01*
X-79375Y-536575D02*
G75*
G02*
X317500Y-139700I396875J0D01*
G01*
X1349375Y476250D02*
X1349375Y-60325D01*
X317500Y-9366250D02*
X28257500Y-9366250D01*
X2381250Y476250D02*
X2381250Y-60325D01*
X2381250Y476250D02*
X1349375Y476250D01*
D11*
X17346875Y-8302500D02*
X17346875Y-8752500D01*
X17411875Y-7722500D02*
X17411875Y-7972500D01*
X17761875Y-7672500D02*
X17461875Y-7672500D01*
X17761875Y-8022500D02*
X17461875Y-8022500D01*
X17811875Y-7722500D02*
X17811875Y-7972500D01*
X17826875Y-8252500D02*
X17396875Y-8252500D01*
X17826875Y-8802500D02*
X17396875Y-8802500D01*
X17876875Y-8302500D02*
X17876875Y-8752500D01*
X19746875Y-8302500D02*
X19746875Y-8752500D01*
X19796875Y-8252500D02*
X20226875Y-8252500D01*
X19796875Y-8802500D02*
X20226875Y-8802500D01*
X19811875Y-7722500D02*
X19811875Y-7972500D01*
X19861875Y-7672500D02*
X20161875Y-7672500D01*
X19861875Y-8022500D02*
X20161875Y-8022500D01*
X20211875Y-7722500D02*
X20211875Y-7972500D01*
X20276875Y-8302500D02*
X20276875Y-8752500D01*
X17346875Y-8302500D02*
G75*
G02*
X17396875Y-8252500I50000J0D01*
G01*
X17396875Y-8802500D02*
G75*
G02*
X17346875Y-8752500I0J50000D01*
G01*
X17411875Y-7722500D02*
G75*
G02*
X17461875Y-7672500I50000J0D01*
G01*
X17461875Y-8022500D02*
G75*
G02*
X17411875Y-7972500I0J50000D01*
G01*
X17761875Y-7672500D02*
G75*
G02*
X17811875Y-7722500I0J-50000D01*
G01*
X17811875Y-7972500D02*
G75*
G02*
X17761875Y-8022500I-50000J0D01*
G01*
X17826875Y-8252500D02*
G75*
G02*
X17876875Y-8302500I0J-50000D01*
G01*
X17876875Y-8752500D02*
G75*
G02*
X17826875Y-8802500I-50000J0D01*
G01*
X19746875Y-8302500D02*
G75*
G02*
X19796875Y-8252500I50000J0D01*
G01*
X19796875Y-8802500D02*
G75*
G02*
X19746875Y-8752500I0J50000D01*
G01*
X19811875Y-7722500D02*
G75*
G02*
X19861875Y-7672500I50000J0D01*
G01*
X19861875Y-8022500D02*
G75*
G02*
X19811875Y-7972500I0J50000D01*
G01*
X20161875Y-7672500D02*
G75*
G02*
X20211875Y-7722500I0J-50000D01*
G01*
X20211875Y-7972500D02*
G75*
G02*
X20161875Y-8022500I-50000J0D01*
G01*
X20226875Y-8252500D02*
G75*
G02*
X20276875Y-8302500I0J-50000D01*
G01*
X20276875Y-8752500D02*
G75*
G02*
X20226875Y-8802500I-50000J0D01*
G01*
X10679375Y-8302500D02*
X10679375Y-8752500D01*
X10744375Y-7722500D02*
X10744375Y-7972500D01*
X11094375Y-7672500D02*
X10794375Y-7672500D01*
X11094375Y-8022500D02*
X10794375Y-8022500D01*
X11144375Y-7722500D02*
X11144375Y-7972500D01*
X11159375Y-8252500D02*
X10729375Y-8252500D01*
X11159375Y-8802500D02*
X10729375Y-8802500D01*
X11209375Y-8302500D02*
X11209375Y-8752500D01*
X13079375Y-8302500D02*
X13079375Y-8752500D01*
X13129375Y-8252500D02*
X13559375Y-8252500D01*
X13129375Y-8802500D02*
X13559375Y-8802500D01*
X13144375Y-7722500D02*
X13144375Y-7972500D01*
X13194375Y-7672500D02*
X13494375Y-7672500D01*
X13194375Y-8022500D02*
X13494375Y-8022500D01*
X13544375Y-7722500D02*
X13544375Y-7972500D01*
X13609375Y-8302500D02*
X13609375Y-8752500D01*
X10679375Y-8302500D02*
G75*
G02*
X10729375Y-8252500I50000J0D01*
G01*
X10729375Y-8802500D02*
G75*
G02*
X10679375Y-8752500I0J50000D01*
G01*
X10744375Y-7722500D02*
G75*
G02*
X10794375Y-7672500I50000J0D01*
G01*
X10794375Y-8022500D02*
G75*
G02*
X10744375Y-7972500I0J50000D01*
G01*
X11094375Y-7672500D02*
G75*
G02*
X11144375Y-7722500I0J-50000D01*
G01*
X11144375Y-7972500D02*
G75*
G02*
X11094375Y-8022500I-50000J0D01*
G01*
X11159375Y-8252500D02*
G75*
G02*
X11209375Y-8302500I0J-50000D01*
G01*
X11209375Y-8752500D02*
G75*
G02*
X11159375Y-8802500I-50000J0D01*
G01*
X13079375Y-8302500D02*
G75*
G02*
X13129375Y-8252500I50000J0D01*
G01*
X13129375Y-8802500D02*
G75*
G02*
X13079375Y-8752500I0J50000D01*
G01*
X13144375Y-7722500D02*
G75*
G02*
X13194375Y-7672500I50000J0D01*
G01*
X13194375Y-8022500D02*
G75*
G02*
X13144375Y-7972500I0J50000D01*
G01*
X13494375Y-7672500D02*
G75*
G02*
X13544375Y-7722500I0J-50000D01*
G01*
X13544375Y-7972500D02*
G75*
G02*
X13494375Y-8022500I-50000J0D01*
G01*
X13559375Y-8252500D02*
G75*
G02*
X13609375Y-8302500I0J-50000D01*
G01*
X13609375Y-8752500D02*
G75*
G02*
X13559375Y-8802500I-50000J0D01*
G01*
X678125Y-4492500D02*
X678125Y-4942500D01*
X743125Y-3912500D02*
X743125Y-4162500D01*
X1093125Y-3862500D02*
X793125Y-3862500D01*
X1093125Y-4212500D02*
X793125Y-4212500D01*
X1143125Y-3912500D02*
X1143125Y-4162500D01*
X1158125Y-4442500D02*
X728125Y-4442500D01*
X1158125Y-4992500D02*
X728125Y-4992500D01*
X1208125Y-4492500D02*
X1208125Y-4942500D01*
X3078125Y-4492500D02*
X3078125Y-4942500D01*
X3128125Y-4442500D02*
X3558125Y-4442500D01*
X3128125Y-4992500D02*
X3558125Y-4992500D01*
X3143125Y-3912500D02*
X3143125Y-4162500D01*
X3193125Y-3862500D02*
X3493125Y-3862500D01*
X3193125Y-4212500D02*
X3493125Y-4212500D01*
X3543125Y-3912500D02*
X3543125Y-4162500D01*
X3608125Y-4492500D02*
X3608125Y-4942500D01*
X678125Y-4492500D02*
G75*
G02*
X728125Y-4442500I50000J0D01*
G01*
X728125Y-4992500D02*
G75*
G02*
X678125Y-4942500I0J50000D01*
G01*
X743125Y-3912500D02*
G75*
G02*
X793125Y-3862500I50000J0D01*
G01*
X793125Y-4212500D02*
G75*
G02*
X743125Y-4162500I0J50000D01*
G01*
X1093125Y-3862500D02*
G75*
G02*
X1143125Y-3912500I0J-50000D01*
G01*
X1143125Y-4162500D02*
G75*
G02*
X1093125Y-4212500I-50000J0D01*
G01*
X1158125Y-4442500D02*
G75*
G02*
X1208125Y-4492500I0J-50000D01*
G01*
X1208125Y-4942500D02*
G75*
G02*
X1158125Y-4992500I-50000J0D01*
G01*
X3078125Y-4492500D02*
G75*
G02*
X3128125Y-4442500I50000J0D01*
G01*
X3128125Y-4992500D02*
G75*
G02*
X3078125Y-4942500I0J50000D01*
G01*
X3143125Y-3912500D02*
G75*
G02*
X3193125Y-3862500I50000J0D01*
G01*
X3193125Y-4212500D02*
G75*
G02*
X3143125Y-4162500I0J50000D01*
G01*
X3493125Y-3862500D02*
G75*
G02*
X3543125Y-3912500I0J-50000D01*
G01*
X3543125Y-4162500D02*
G75*
G02*
X3493125Y-4212500I-50000J0D01*
G01*
X3558125Y-4442500D02*
G75*
G02*
X3608125Y-4492500I0J-50000D01*
G01*
X3608125Y-4942500D02*
G75*
G02*
X3558125Y-4992500I-50000J0D01*
G01*
X24966875Y-6397500D02*
X24966875Y-6847500D01*
X25031875Y-5817500D02*
X25031875Y-6067500D01*
X25381875Y-5767500D02*
X25081875Y-5767500D01*
X25381875Y-6117500D02*
X25081875Y-6117500D01*
X25431875Y-5817500D02*
X25431875Y-6067500D01*
X25446875Y-6347500D02*
X25016875Y-6347500D01*
X25446875Y-6897500D02*
X25016875Y-6897500D01*
X25496875Y-6397500D02*
X25496875Y-6847500D01*
X27366875Y-6397500D02*
X27366875Y-6847500D01*
X27416875Y-6347500D02*
X27846875Y-6347500D01*
X27416875Y-6897500D02*
X27846875Y-6897500D01*
X27431875Y-5817500D02*
X27431875Y-6067500D01*
X27481875Y-5767500D02*
X27781875Y-5767500D01*
X27481875Y-6117500D02*
X27781875Y-6117500D01*
X27831875Y-5817500D02*
X27831875Y-6067500D01*
X27896875Y-6397500D02*
X27896875Y-6847500D01*
X24966875Y-6397500D02*
G75*
G02*
X25016875Y-6347500I50000J0D01*
G01*
X25016875Y-6897500D02*
G75*
G02*
X24966875Y-6847500I0J50000D01*
G01*
X25031875Y-5817500D02*
G75*
G02*
X25081875Y-5767500I50000J0D01*
G01*
X25081875Y-6117500D02*
G75*
G02*
X25031875Y-6067500I0J50000D01*
G01*
X25381875Y-5767500D02*
G75*
G02*
X25431875Y-5817500I0J-50000D01*
G01*
X25431875Y-6067500D02*
G75*
G02*
X25381875Y-6117500I-50000J0D01*
G01*
X25446875Y-6347500D02*
G75*
G02*
X25496875Y-6397500I0J-50000D01*
G01*
X25496875Y-6847500D02*
G75*
G02*
X25446875Y-6897500I-50000J0D01*
G01*
X27366875Y-6397500D02*
G75*
G02*
X27416875Y-6347500I50000J0D01*
G01*
X27416875Y-6897500D02*
G75*
G02*
X27366875Y-6847500I0J50000D01*
G01*
X27431875Y-5817500D02*
G75*
G02*
X27481875Y-5767500I50000J0D01*
G01*
X27481875Y-6117500D02*
G75*
G02*
X27431875Y-6067500I0J50000D01*
G01*
X27781875Y-5767500D02*
G75*
G02*
X27831875Y-5817500I0J-50000D01*
G01*
X27831875Y-6067500D02*
G75*
G02*
X27781875Y-6117500I-50000J0D01*
G01*
X27846875Y-6347500D02*
G75*
G02*
X27896875Y-6397500I0J-50000D01*
G01*
X27896875Y-6847500D02*
G75*
G02*
X27846875Y-6897500I-50000J0D01*
G01*
D10*
D12*
X1545200Y22000D02*
X1610200Y-43000D01*
X1610200Y22000D02*
X1545200Y-43000D01*
X2123200Y22000D02*
X2188200Y-43000D01*
X2188200Y22000D02*
X2123200Y-43000D01*
D13*
X532500Y-437500D02*
G75*
G02*
X372500Y-437500I-80000J0D01*
G01*
X372500Y-437500D02*
G75*
G02*
X532500Y-437500I80000J0D01*
G01*
X532500Y-6152500D02*
G75*
G02*
X372500Y-6152500I-80000J0D01*
G01*
X372500Y-6152500D02*
G75*
G02*
X532500Y-6152500I80000J0D01*
G01*
X1008750Y-2342500D02*
G75*
G02*
X848750Y-2342500I-80000J0D01*
G01*
X848750Y-2342500D02*
G75*
G02*
X1008750Y-2342500I80000J0D01*
G01*
X1723125Y-4247500D02*
G75*
G02*
X1563125Y-4247500I-80000J0D01*
G01*
X1563125Y-4247500D02*
G75*
G02*
X1723125Y-4247500I80000J0D01*
G01*
X2437500Y-437500D02*
G75*
G02*
X2277500Y-437500I-80000J0D01*
G01*
X2277500Y-437500D02*
G75*
G02*
X2437500Y-437500I80000J0D01*
G01*
X3151875Y-6152500D02*
G75*
G02*
X2991875Y-6152500I-80000J0D01*
G01*
X2991875Y-6152500D02*
G75*
G02*
X3151875Y-6152500I80000J0D01*
G01*
X3390000Y-2342500D02*
G75*
G02*
X3230000Y-2342500I-80000J0D01*
G01*
X3230000Y-2342500D02*
G75*
G02*
X3390000Y-2342500I80000J0D01*
G01*
X4342500Y-437500D02*
G75*
G02*
X4182500Y-437500I-80000J0D01*
G01*
X4182500Y-437500D02*
G75*
G02*
X4342500Y-437500I80000J0D01*
G01*
X4818750Y-4247500D02*
G75*
G02*
X4658750Y-4247500I-80000J0D01*
G01*
X4658750Y-4247500D02*
G75*
G02*
X4818750Y-4247500I80000J0D01*
G01*
X5295000Y-2342500D02*
G75*
G02*
X5135000Y-2342500I-80000J0D01*
G01*
X5135000Y-2342500D02*
G75*
G02*
X5295000Y-2342500I80000J0D01*
G01*
X5295000Y-8057500D02*
G75*
G02*
X5135000Y-8057500I-80000J0D01*
G01*
X5135000Y-8057500D02*
G75*
G02*
X5295000Y-8057500I80000J0D01*
G01*
X5771250Y-6152500D02*
G75*
G02*
X5611250Y-6152500I-80000J0D01*
G01*
X5611250Y-6152500D02*
G75*
G02*
X5771250Y-6152500I80000J0D01*
G01*
X6247500Y-437500D02*
G75*
G02*
X6087500Y-437500I-80000J0D01*
G01*
X6087500Y-437500D02*
G75*
G02*
X6247500Y-437500I80000J0D01*
G01*
X6723750Y-4247500D02*
G75*
G02*
X6563750Y-4247500I-80000J0D01*
G01*
X6563750Y-4247500D02*
G75*
G02*
X6723750Y-4247500I80000J0D01*
G01*
X7200000Y-2342500D02*
G75*
G02*
X7040000Y-2342500I-80000J0D01*
G01*
X7040000Y-2342500D02*
G75*
G02*
X7200000Y-2342500I80000J0D01*
G01*
X7676250Y-6152500D02*
G75*
G02*
X7516250Y-6152500I-80000J0D01*
G01*
X7516250Y-6152500D02*
G75*
G02*
X7676250Y-6152500I80000J0D01*
G01*
X7676250Y-8057500D02*
G75*
G02*
X7516250Y-8057500I-80000J0D01*
G01*
X7516250Y-8057500D02*
G75*
G02*
X7676250Y-8057500I80000J0D01*
G01*
X8152500Y-437500D02*
G75*
G02*
X7992500Y-437500I-80000J0D01*
G01*
X7992500Y-437500D02*
G75*
G02*
X8152500Y-437500I80000J0D01*
G01*
X8628750Y-4247500D02*
G75*
G02*
X8468750Y-4247500I-80000J0D01*
G01*
X8468750Y-4247500D02*
G75*
G02*
X8628750Y-4247500I80000J0D01*
G01*
X9105000Y-2342500D02*
G75*
G02*
X8945000Y-2342500I-80000J0D01*
G01*
X8945000Y-2342500D02*
G75*
G02*
X9105000Y-2342500I80000J0D01*
G01*
X9581250Y-6152500D02*
G75*
G02*
X9421250Y-6152500I-80000J0D01*
G01*
X9421250Y-6152500D02*
G75*
G02*
X9581250Y-6152500I80000J0D01*
G01*
X10057500Y-437500D02*
G75*
G02*
X9897500Y-437500I-80000J0D01*
G01*
X9897500Y-437500D02*
G75*
G02*
X10057500Y-437500I80000J0D01*
G01*
X10533750Y-4247500D02*
G75*
G02*
X10373750Y-4247500I-80000J0D01*
G01*
X10373750Y-4247500D02*
G75*
G02*
X10533750Y-4247500I80000J0D01*
G01*
X11010000Y-2342500D02*
G75*
G02*
X10850000Y-2342500I-80000J0D01*
G01*
X10850000Y-2342500D02*
G75*
G02*
X11010000Y-2342500I80000J0D01*
G01*
X11486250Y-6152500D02*
G75*
G02*
X11326250Y-6152500I-80000J0D01*
G01*
X11326250Y-6152500D02*
G75*
G02*
X11486250Y-6152500I80000J0D01*
G01*
X11724375Y-8057500D02*
G75*
G02*
X11564375Y-8057500I-80000J0D01*
G01*
X11564375Y-8057500D02*
G75*
G02*
X11724375Y-8057500I80000J0D01*
G01*
X11962500Y-437500D02*
G75*
G02*
X11802500Y-437500I-80000J0D01*
G01*
X11802500Y-437500D02*
G75*
G02*
X11962500Y-437500I80000J0D01*
G01*
X12438750Y-4247500D02*
G75*
G02*
X12278750Y-4247500I-80000J0D01*
G01*
X12278750Y-4247500D02*
G75*
G02*
X12438750Y-4247500I80000J0D01*
G01*
X12915000Y-2342500D02*
G75*
G02*
X12755000Y-2342500I-80000J0D01*
G01*
X12755000Y-2342500D02*
G75*
G02*
X12915000Y-2342500I80000J0D01*
G01*
X13391250Y-6152500D02*
G75*
G02*
X13231250Y-6152500I-80000J0D01*
G01*
X13231250Y-6152500D02*
G75*
G02*
X13391250Y-6152500I80000J0D01*
G01*
X13867500Y-437500D02*
G75*
G02*
X13707500Y-437500I-80000J0D01*
G01*
X13707500Y-437500D02*
G75*
G02*
X13867500Y-437500I80000J0D01*
G01*
X14343750Y-4247500D02*
G75*
G02*
X14183750Y-4247500I-80000J0D01*
G01*
X14183750Y-4247500D02*
G75*
G02*
X14343750Y-4247500I80000J0D01*
G01*
X14820000Y-2342500D02*
G75*
G02*
X14660000Y-2342500I-80000J0D01*
G01*
X14660000Y-2342500D02*
G75*
G02*
X14820000Y-2342500I80000J0D01*
G01*
X15296250Y-6152500D02*
G75*
G02*
X15136250Y-6152500I-80000J0D01*
G01*
X15136250Y-6152500D02*
G75*
G02*
X15296250Y-6152500I80000J0D01*
G01*
X15296250Y-8057500D02*
G75*
G02*
X15136250Y-8057500I-80000J0D01*
G01*
X15136250Y-8057500D02*
G75*
G02*
X15296250Y-8057500I80000J0D01*
G01*
X15772500Y-437500D02*
G75*
G02*
X15612500Y-437500I-80000J0D01*
G01*
X15612500Y-437500D02*
G75*
G02*
X15772500Y-437500I80000J0D01*
G01*
X16248750Y-4247500D02*
G75*
G02*
X16088750Y-4247500I-80000J0D01*
G01*
X16088750Y-4247500D02*
G75*
G02*
X16248750Y-4247500I80000J0D01*
G01*
X16725000Y-2342500D02*
G75*
G02*
X16565000Y-2342500I-80000J0D01*
G01*
X16565000Y-2342500D02*
G75*
G02*
X16725000Y-2342500I80000J0D01*
G01*
X17201250Y-6152500D02*
G75*
G02*
X17041250Y-6152500I-80000J0D01*
G01*
X17041250Y-6152500D02*
G75*
G02*
X17201250Y-6152500I80000J0D01*
G01*
X17677500Y-437500D02*
G75*
G02*
X17517500Y-437500I-80000J0D01*
G01*
X17517500Y-437500D02*
G75*
G02*
X17677500Y-437500I80000J0D01*
G01*
X18153750Y-4247500D02*
G75*
G02*
X17993750Y-4247500I-80000J0D01*
G01*
X17993750Y-4247500D02*
G75*
G02*
X18153750Y-4247500I80000J0D01*
G01*
X18391875Y-8057500D02*
G75*
G02*
X18231875Y-8057500I-80000J0D01*
G01*
X18231875Y-8057500D02*
G75*
G02*
X18391875Y-8057500I80000J0D01*
G01*
X18630000Y-2342500D02*
G75*
G02*
X18470000Y-2342500I-80000J0D01*
G01*
X18470000Y-2342500D02*
G75*
G02*
X18630000Y-2342500I80000J0D01*
G01*
X19106250Y-6152500D02*
G75*
G02*
X18946250Y-6152500I-80000J0D01*
G01*
X18946250Y-6152500D02*
G75*
G02*
X19106250Y-6152500I80000J0D01*
G01*
X19582500Y-437500D02*
G75*
G02*
X19422500Y-437500I-80000J0D01*
G01*
X19422500Y-437500D02*
G75*
G02*
X19582500Y-437500I80000J0D01*
G01*
X20058750Y-4247500D02*
G75*
G02*
X19898750Y-4247500I-80000J0D01*
G01*
X19898750Y-4247500D02*
G75*
G02*
X20058750Y-4247500I80000J0D01*
G01*
X20535000Y-2342500D02*
G75*
G02*
X20375000Y-2342500I-80000J0D01*
G01*
X20375000Y-2342500D02*
G75*
G02*
X20535000Y-2342500I80000J0D01*
G01*
X21011250Y-6152500D02*
G75*
G02*
X20851250Y-6152500I-80000J0D01*
G01*
X20851250Y-6152500D02*
G75*
G02*
X21011250Y-6152500I80000J0D01*
G01*
X21487500Y-437500D02*
G75*
G02*
X21327500Y-437500I-80000J0D01*
G01*
X21327500Y-437500D02*
G75*
G02*
X21487500Y-437500I80000J0D01*
G01*
X21963750Y-4247500D02*
G75*
G02*
X21803750Y-4247500I-80000J0D01*
G01*
X21803750Y-4247500D02*
G75*
G02*
X21963750Y-4247500I80000J0D01*
G01*
X21963750Y-8057500D02*
G75*
G02*
X21803750Y-8057500I-80000J0D01*
G01*
X21803750Y-8057500D02*
G75*
G02*
X21963750Y-8057500I80000J0D01*
G01*
X22440000Y-2342500D02*
G75*
G02*
X22280000Y-2342500I-80000J0D01*
G01*
X22280000Y-2342500D02*
G75*
G02*
X22440000Y-2342500I80000J0D01*
G01*
X22916250Y-6152500D02*
G75*
G02*
X22756250Y-6152500I-80000J0D01*
G01*
X22756250Y-6152500D02*
G75*
G02*
X22916250Y-6152500I80000J0D01*
G01*
X23392500Y-437500D02*
G75*
G02*
X23232500Y-437500I-80000J0D01*
G01*
X23232500Y-437500D02*
G75*
G02*
X23392500Y-437500I80000J0D01*
G01*
X23868750Y-4247500D02*
G75*
G02*
X23708750Y-4247500I-80000J0D01*
G01*
X23708750Y-4247500D02*
G75*
G02*
X23868750Y-4247500I80000J0D01*
G01*
X24345000Y-2342500D02*
G75*
G02*
X24185000Y-2342500I-80000J0D01*
G01*
X24185000Y-2342500D02*
G75*
G02*
X24345000Y-2342500I80000J0D01*
G01*
X24345000Y-8057500D02*
G75*
G02*
X24185000Y-8057500I-80000J0D01*
G01*
X24185000Y-8057500D02*
G75*
G02*
X24345000Y-8057500I80000J0D01*
G01*
X25297500Y-437500D02*
G75*
G02*
X25137500Y-437500I-80000J0D01*
G01*
X25137500Y-437500D02*
G75*
G02*
X25297500Y-437500I80000J0D01*
G01*
X26011875Y-6152500D02*
G75*
G02*
X25851875Y-6152500I-80000J0D01*
G01*
X25851875Y-6152500D02*
G75*
G02*
X26011875Y-6152500I80000J0D01*
G01*
X26488125Y-4247500D02*
G75*
G02*
X26328125Y-4247500I-80000J0D01*
G01*
X26328125Y-4247500D02*
G75*
G02*
X26488125Y-4247500I80000J0D01*
G01*
X26726250Y-2342500D02*
G75*
G02*
X26566250Y-2342500I-80000J0D01*
G01*
X26566250Y-2342500D02*
G75*
G02*
X26726250Y-2342500I80000J0D01*
G01*
X27202500Y-437500D02*
G75*
G02*
X27042500Y-437500I-80000J0D01*
G01*
X27042500Y-437500D02*
G75*
G02*
X27202500Y-437500I80000J0D01*
G01*
D14*
X402500Y-857500D02*
X402500Y-1047500D01*
X307500Y-952500D02*
X497500Y-952500D01*
X402500Y-6572500D02*
X402500Y-6762500D01*
X307500Y-6667500D02*
X497500Y-6667500D01*
X878750Y-2762500D02*
X878750Y-2952500D01*
X783750Y-2857500D02*
X973750Y-2857500D01*
X1502500Y-857500D02*
X1502500Y-1047500D01*
X1407500Y-952500D02*
X1597500Y-952500D01*
X1502500Y-6572500D02*
X1502500Y-6762500D01*
X1407500Y-6667500D02*
X1597500Y-6667500D01*
X1593125Y-4667500D02*
X1593125Y-4857500D01*
X1498125Y-4762500D02*
X1688125Y-4762500D01*
X1978750Y-2762500D02*
X1978750Y-2952500D01*
X1883750Y-2857500D02*
X2073750Y-2857500D01*
X2307500Y-857500D02*
X2307500Y-1047500D01*
X2212500Y-952500D02*
X2402500Y-952500D01*
X2693125Y-4667500D02*
X2693125Y-4857500D01*
X2598125Y-4762500D02*
X2788125Y-4762500D01*
X3021875Y-6572500D02*
X3021875Y-6762500D01*
X2926875Y-6667500D02*
X3116875Y-6667500D01*
X3260000Y-2762500D02*
X3260000Y-2952500D01*
X3165000Y-2857500D02*
X3355000Y-2857500D01*
X3407500Y-857500D02*
X3407500Y-1047500D01*
X3312500Y-952500D02*
X3502500Y-952500D01*
X4121875Y-6572500D02*
X4121875Y-6762500D01*
X4026875Y-6667500D02*
X4216875Y-6667500D01*
X4212500Y-857500D02*
X4212500Y-1047500D01*
X4117500Y-952500D02*
X4307500Y-952500D01*
X4360000Y-2762500D02*
X4360000Y-2952500D01*
X4265000Y-2857500D02*
X4455000Y-2857500D01*
X4688750Y-4667500D02*
X4688750Y-4857500D01*
X4593750Y-4762500D02*
X4783750Y-4762500D01*
X5165000Y-2762500D02*
X5165000Y-2952500D01*
X5070000Y-2857500D02*
X5260000Y-2857500D01*
X5165000Y-8477500D02*
X5165000Y-8667500D01*
X5070000Y-8572500D02*
X5260000Y-8572500D01*
X5312500Y-857500D02*
X5312500Y-1047500D01*
X5217500Y-952500D02*
X5407500Y-952500D01*
X5641250Y-6572500D02*
X5641250Y-6762500D01*
X5546250Y-6667500D02*
X5736250Y-6667500D01*
X5788750Y-4667500D02*
X5788750Y-4857500D01*
X5693750Y-4762500D02*
X5883750Y-4762500D01*
X6117500Y-857500D02*
X6117500Y-1047500D01*
X6022500Y-952500D02*
X6212500Y-952500D01*
X6265000Y-2762500D02*
X6265000Y-2952500D01*
X6170000Y-2857500D02*
X6360000Y-2857500D01*
X6265000Y-8477500D02*
X6265000Y-8667500D01*
X6170000Y-8572500D02*
X6360000Y-8572500D01*
X6593750Y-4667500D02*
X6593750Y-4857500D01*
X6498750Y-4762500D02*
X6688750Y-4762500D01*
X6741250Y-6572500D02*
X6741250Y-6762500D01*
X6646250Y-6667500D02*
X6836250Y-6667500D01*
X7070000Y-2762500D02*
X7070000Y-2952500D01*
X6975000Y-2857500D02*
X7165000Y-2857500D01*
X7217500Y-857500D02*
X7217500Y-1047500D01*
X7122500Y-952500D02*
X7312500Y-952500D01*
X7546250Y-6572500D02*
X7546250Y-6762500D01*
X7451250Y-6667500D02*
X7641250Y-6667500D01*
X7546250Y-8477500D02*
X7546250Y-8667500D01*
X7451250Y-8572500D02*
X7641250Y-8572500D01*
X7693750Y-4667500D02*
X7693750Y-4857500D01*
X7598750Y-4762500D02*
X7788750Y-4762500D01*
X8022500Y-857500D02*
X8022500Y-1047500D01*
X7927500Y-952500D02*
X8117500Y-952500D01*
X8170000Y-2762500D02*
X8170000Y-2952500D01*
X8075000Y-2857500D02*
X8265000Y-2857500D01*
X8498750Y-4667500D02*
X8498750Y-4857500D01*
X8403750Y-4762500D02*
X8593750Y-4762500D01*
X8646250Y-6572500D02*
X8646250Y-6762500D01*
X8551250Y-6667500D02*
X8741250Y-6667500D01*
X8646250Y-8477500D02*
X8646250Y-8667500D01*
X8551250Y-8572500D02*
X8741250Y-8572500D01*
X8975000Y-2762500D02*
X8975000Y-2952500D01*
X8880000Y-2857500D02*
X9070000Y-2857500D01*
X9122500Y-857500D02*
X9122500Y-1047500D01*
X9027500Y-952500D02*
X9217500Y-952500D01*
X9451250Y-6572500D02*
X9451250Y-6762500D01*
X9356250Y-6667500D02*
X9546250Y-6667500D01*
X9598750Y-4667500D02*
X9598750Y-4857500D01*
X9503750Y-4762500D02*
X9693750Y-4762500D01*
X9927500Y-857500D02*
X9927500Y-1047500D01*
X9832500Y-952500D02*
X10022500Y-952500D01*
X10075000Y-2762500D02*
X10075000Y-2952500D01*
X9980000Y-2857500D02*
X10170000Y-2857500D01*
X10403750Y-4667500D02*
X10403750Y-4857500D01*
X10308750Y-4762500D02*
X10498750Y-4762500D01*
X10551250Y-6572500D02*
X10551250Y-6762500D01*
X10456250Y-6667500D02*
X10646250Y-6667500D01*
X10880000Y-2762500D02*
X10880000Y-2952500D01*
X10785000Y-2857500D02*
X10975000Y-2857500D01*
X11027500Y-857500D02*
X11027500Y-1047500D01*
X10932500Y-952500D02*
X11122500Y-952500D01*
X11356250Y-6572500D02*
X11356250Y-6762500D01*
X11261250Y-6667500D02*
X11451250Y-6667500D01*
X11503750Y-4667500D02*
X11503750Y-4857500D01*
X11408750Y-4762500D02*
X11598750Y-4762500D01*
X11594375Y-8477500D02*
X11594375Y-8667500D01*
X11499375Y-8572500D02*
X11689375Y-8572500D01*
X11832500Y-857500D02*
X11832500Y-1047500D01*
X11737500Y-952500D02*
X11927500Y-952500D01*
X11980000Y-2762500D02*
X11980000Y-2952500D01*
X11885000Y-2857500D02*
X12075000Y-2857500D01*
X12308750Y-4667500D02*
X12308750Y-4857500D01*
X12213750Y-4762500D02*
X12403750Y-4762500D01*
X12456250Y-6572500D02*
X12456250Y-6762500D01*
X12361250Y-6667500D02*
X12551250Y-6667500D01*
X12694375Y-8477500D02*
X12694375Y-8667500D01*
X12599375Y-8572500D02*
X12789375Y-8572500D01*
X12785000Y-2762500D02*
X12785000Y-2952500D01*
X12690000Y-2857500D02*
X12880000Y-2857500D01*
X12932500Y-857500D02*
X12932500Y-1047500D01*
X12837500Y-952500D02*
X13027500Y-952500D01*
X13261250Y-6572500D02*
X13261250Y-6762500D01*
X13166250Y-6667500D02*
X13356250Y-6667500D01*
X13408750Y-4667500D02*
X13408750Y-4857500D01*
X13313750Y-4762500D02*
X13503750Y-4762500D01*
X13737500Y-857500D02*
X13737500Y-1047500D01*
X13642500Y-952500D02*
X13832500Y-952500D01*
X13885000Y-2762500D02*
X13885000Y-2952500D01*
X13790000Y-2857500D02*
X13980000Y-2857500D01*
X14213750Y-4667500D02*
X14213750Y-4857500D01*
X14118750Y-4762500D02*
X14308750Y-4762500D01*
X14361250Y-6572500D02*
X14361250Y-6762500D01*
X14266250Y-6667500D02*
X14456250Y-6667500D01*
X14690000Y-2762500D02*
X14690000Y-2952500D01*
X14595000Y-2857500D02*
X14785000Y-2857500D01*
X14837500Y-857500D02*
X14837500Y-1047500D01*
X14742500Y-952500D02*
X14932500Y-952500D01*
X15166250Y-6572500D02*
X15166250Y-6762500D01*
X15071250Y-6667500D02*
X15261250Y-6667500D01*
X15166250Y-8477500D02*
X15166250Y-8667500D01*
X15071250Y-8572500D02*
X15261250Y-8572500D01*
X15313750Y-4667500D02*
X15313750Y-4857500D01*
X15218750Y-4762500D02*
X15408750Y-4762500D01*
X15642500Y-857500D02*
X15642500Y-1047500D01*
X15547500Y-952500D02*
X15737500Y-952500D01*
X15790000Y-2762500D02*
X15790000Y-2952500D01*
X15695000Y-2857500D02*
X15885000Y-2857500D01*
X16118750Y-4667500D02*
X16118750Y-4857500D01*
X16023750Y-4762500D02*
X16213750Y-4762500D01*
X16266250Y-6572500D02*
X16266250Y-6762500D01*
X16171250Y-6667500D02*
X16361250Y-6667500D01*
X16266250Y-8477500D02*
X16266250Y-8667500D01*
X16171250Y-8572500D02*
X16361250Y-8572500D01*
X16595000Y-2762500D02*
X16595000Y-2952500D01*
X16500000Y-2857500D02*
X16690000Y-2857500D01*
X16742500Y-857500D02*
X16742500Y-1047500D01*
X16647500Y-952500D02*
X16837500Y-952500D01*
X17071250Y-6572500D02*
X17071250Y-6762500D01*
X16976250Y-6667500D02*
X17166250Y-6667500D01*
X17218750Y-4667500D02*
X17218750Y-4857500D01*
X17123750Y-4762500D02*
X17313750Y-4762500D01*
X17547500Y-857500D02*
X17547500Y-1047500D01*
X17452500Y-952500D02*
X17642500Y-952500D01*
X17695000Y-2762500D02*
X17695000Y-2952500D01*
X17600000Y-2857500D02*
X17790000Y-2857500D01*
X18023750Y-4667500D02*
X18023750Y-4857500D01*
X17928750Y-4762500D02*
X18118750Y-4762500D01*
X18171250Y-6572500D02*
X18171250Y-6762500D01*
X18076250Y-6667500D02*
X18266250Y-6667500D01*
X18261875Y-8477500D02*
X18261875Y-8667500D01*
X18166875Y-8572500D02*
X18356875Y-8572500D01*
X18500000Y-2762500D02*
X18500000Y-2952500D01*
X18405000Y-2857500D02*
X18595000Y-2857500D01*
X18647500Y-857500D02*
X18647500Y-1047500D01*
X18552500Y-952500D02*
X18742500Y-952500D01*
X18976250Y-6572500D02*
X18976250Y-6762500D01*
X18881250Y-6667500D02*
X19071250Y-6667500D01*
X19123750Y-4667500D02*
X19123750Y-4857500D01*
X19028750Y-4762500D02*
X19218750Y-4762500D01*
X19361875Y-8477500D02*
X19361875Y-8667500D01*
X19266875Y-8572500D02*
X19456875Y-8572500D01*
X19452500Y-857500D02*
X19452500Y-1047500D01*
X19357500Y-952500D02*
X19547500Y-952500D01*
X19600000Y-2762500D02*
X19600000Y-2952500D01*
X19505000Y-2857500D02*
X19695000Y-2857500D01*
X19928750Y-4667500D02*
X19928750Y-4857500D01*
X19833750Y-4762500D02*
X20023750Y-4762500D01*
X20076250Y-6572500D02*
X20076250Y-6762500D01*
X19981250Y-6667500D02*
X20171250Y-6667500D01*
X20405000Y-2762500D02*
X20405000Y-2952500D01*
X20310000Y-2857500D02*
X20500000Y-2857500D01*
X20552500Y-857500D02*
X20552500Y-1047500D01*
X20457500Y-952500D02*
X20647500Y-952500D01*
X20881250Y-6572500D02*
X20881250Y-6762500D01*
X20786250Y-6667500D02*
X20976250Y-6667500D01*
X21028750Y-4667500D02*
X21028750Y-4857500D01*
X20933750Y-4762500D02*
X21123750Y-4762500D01*
X21357500Y-857500D02*
X21357500Y-1047500D01*
X21262500Y-952500D02*
X21452500Y-952500D01*
X21505000Y-2762500D02*
X21505000Y-2952500D01*
X21410000Y-2857500D02*
X21600000Y-2857500D01*
X21833750Y-4667500D02*
X21833750Y-4857500D01*
X21738750Y-4762500D02*
X21928750Y-4762500D01*
X21833750Y-8477500D02*
X21833750Y-8667500D01*
X21738750Y-8572500D02*
X21928750Y-8572500D01*
X21981250Y-6572500D02*
X21981250Y-6762500D01*
X21886250Y-6667500D02*
X22076250Y-6667500D01*
X22310000Y-2762500D02*
X22310000Y-2952500D01*
X22215000Y-2857500D02*
X22405000Y-2857500D01*
X22457500Y-857500D02*
X22457500Y-1047500D01*
X22362500Y-952500D02*
X22552500Y-952500D01*
X22786250Y-6572500D02*
X22786250Y-6762500D01*
X22691250Y-6667500D02*
X22881250Y-6667500D01*
X22933750Y-4667500D02*
X22933750Y-4857500D01*
X22838750Y-4762500D02*
X23028750Y-4762500D01*
X22933750Y-8477500D02*
X22933750Y-8667500D01*
X22838750Y-8572500D02*
X23028750Y-8572500D01*
X23262500Y-857500D02*
X23262500Y-1047500D01*
X23167500Y-952500D02*
X23357500Y-952500D01*
X23410000Y-2762500D02*
X23410000Y-2952500D01*
X23315000Y-2857500D02*
X23505000Y-2857500D01*
X23738750Y-4667500D02*
X23738750Y-4857500D01*
X23643750Y-4762500D02*
X23833750Y-4762500D01*
X23886250Y-6572500D02*
X23886250Y-6762500D01*
X23791250Y-6667500D02*
X23981250Y-6667500D01*
X24215000Y-2762500D02*
X24215000Y-2952500D01*
X24120000Y-2857500D02*
X24310000Y-2857500D01*
X24215000Y-8477500D02*
X24215000Y-8667500D01*
X24120000Y-8572500D02*
X24310000Y-8572500D01*
X24362500Y-857500D02*
X24362500Y-1047500D01*
X24267500Y-952500D02*
X24457500Y-952500D01*
X24838750Y-4667500D02*
X24838750Y-4857500D01*
X24743750Y-4762500D02*
X24933750Y-4762500D01*
X25167500Y-857500D02*
X25167500Y-1047500D01*
X25072500Y-952500D02*
X25262500Y-952500D01*
X25315000Y-2762500D02*
X25315000Y-2952500D01*
X25220000Y-2857500D02*
X25410000Y-2857500D01*
X25315000Y-8477500D02*
X25315000Y-8667500D01*
X25220000Y-8572500D02*
X25410000Y-8572500D01*
X25881875Y-6572500D02*
X25881875Y-6762500D01*
X25786875Y-6667500D02*
X25976875Y-6667500D01*
X26267500Y-857500D02*
X26267500Y-1047500D01*
X26172500Y-952500D02*
X26362500Y-952500D01*
X26358125Y-4667500D02*
X26358125Y-4857500D01*
X26263125Y-4762500D02*
X26453125Y-4762500D01*
X26596250Y-2762500D02*
X26596250Y-2952500D01*
X26501250Y-2857500D02*
X26691250Y-2857500D01*
X26981875Y-6572500D02*
X26981875Y-6762500D01*
X26886875Y-6667500D02*
X27076875Y-6667500D01*
X27072500Y-857500D02*
X27072500Y-1047500D01*
X26977500Y-952500D02*
X27167500Y-952500D01*
X27458125Y-4667500D02*
X27458125Y-4857500D01*
X27363125Y-4762500D02*
X27553125Y-4762500D01*
X27696250Y-2762500D02*
X27696250Y-2952500D01*
X27601250Y-2857500D02*
X27791250Y-2857500D01*
X28172500Y-857500D02*
X28172500Y-1047500D01*
X28077500Y-952500D02*
X28267500Y-952500D01*
D15*
X1060335Y-1650335D02*
X1060335Y-1434665D01*
X844665Y-1434665D01*
X844665Y-1650335D01*
X1060335Y-1650335D01*
X1060335Y-7365335D02*
X1060335Y-7149665D01*
X844665Y-7149665D01*
X844665Y-7365335D01*
X1060335Y-7365335D01*
X1536585Y-3555335D02*
X1536585Y-3339665D01*
X1320915Y-3339665D01*
X1320915Y-3555335D01*
X1536585Y-3555335D01*
X1560335Y-1440335D02*
X1560335Y-1224665D01*
X1344665Y-1224665D01*
X1344665Y-1440335D01*
X1560335Y-1440335D01*
X1560335Y-7155335D02*
X1560335Y-6939665D01*
X1344665Y-6939665D01*
X1344665Y-7155335D01*
X1560335Y-7155335D01*
X2036585Y-3345335D02*
X2036585Y-3129665D01*
X1820915Y-3129665D01*
X1820915Y-3345335D01*
X2036585Y-3345335D01*
X2250960Y-5460335D02*
X2250960Y-5244665D01*
X2035290Y-5244665D01*
X2035290Y-5460335D01*
X2250960Y-5460335D01*
X2750960Y-5250335D02*
X2750960Y-5034665D01*
X2535290Y-5034665D01*
X2535290Y-5250335D01*
X2750960Y-5250335D01*
X2965335Y-1650335D02*
X2965335Y-1434665D01*
X2749665Y-1434665D01*
X2749665Y-1650335D01*
X2965335Y-1650335D01*
X3465335Y-1440335D02*
X3465335Y-1224665D01*
X3249665Y-1224665D01*
X3249665Y-1440335D01*
X3465335Y-1440335D01*
X3679710Y-7365335D02*
X3679710Y-7149665D01*
X3464040Y-7149665D01*
X3464040Y-7365335D01*
X3679710Y-7365335D01*
X3917835Y-3555335D02*
X3917835Y-3339665D01*
X3702165Y-3339665D01*
X3702165Y-3555335D01*
X3917835Y-3555335D01*
X4179710Y-7155335D02*
X4179710Y-6939665D01*
X3964040Y-6939665D01*
X3964040Y-7155335D01*
X4179710Y-7155335D01*
X4417835Y-3345335D02*
X4417835Y-3129665D01*
X4202165Y-3129665D01*
X4202165Y-3345335D01*
X4417835Y-3345335D01*
X4870335Y-1650335D02*
X4870335Y-1434665D01*
X4654665Y-1434665D01*
X4654665Y-1650335D01*
X4870335Y-1650335D01*
X5346585Y-5460335D02*
X5346585Y-5244665D01*
X5130915Y-5244665D01*
X5130915Y-5460335D01*
X5346585Y-5460335D01*
X5370335Y-1440335D02*
X5370335Y-1224665D01*
X5154665Y-1224665D01*
X5154665Y-1440335D01*
X5370335Y-1440335D01*
X5822835Y-3555335D02*
X5822835Y-3339665D01*
X5607165Y-3339665D01*
X5607165Y-3555335D01*
X5822835Y-3555335D01*
X5822835Y-9270335D02*
X5822835Y-9054665D01*
X5607165Y-9054665D01*
X5607165Y-9270335D01*
X5822835Y-9270335D01*
X5846585Y-5250335D02*
X5846585Y-5034665D01*
X5630915Y-5034665D01*
X5630915Y-5250335D01*
X5846585Y-5250335D01*
X6299085Y-7365335D02*
X6299085Y-7149665D01*
X6083415Y-7149665D01*
X6083415Y-7365335D01*
X6299085Y-7365335D01*
X6322835Y-3345335D02*
X6322835Y-3129665D01*
X6107165Y-3129665D01*
X6107165Y-3345335D01*
X6322835Y-3345335D01*
X6322835Y-9060335D02*
X6322835Y-8844665D01*
X6107165Y-8844665D01*
X6107165Y-9060335D01*
X6322835Y-9060335D01*
X6775335Y-1650335D02*
X6775335Y-1434665D01*
X6559665Y-1434665D01*
X6559665Y-1650335D01*
X6775335Y-1650335D01*
X6799085Y-7155335D02*
X6799085Y-6939665D01*
X6583415Y-6939665D01*
X6583415Y-7155335D01*
X6799085Y-7155335D01*
X7251585Y-5460335D02*
X7251585Y-5244665D01*
X7035915Y-5244665D01*
X7035915Y-5460335D01*
X7251585Y-5460335D01*
X7275335Y-1440335D02*
X7275335Y-1224665D01*
X7059665Y-1224665D01*
X7059665Y-1440335D01*
X7275335Y-1440335D01*
X7727835Y-3555335D02*
X7727835Y-3339665D01*
X7512165Y-3339665D01*
X7512165Y-3555335D01*
X7727835Y-3555335D01*
X7751585Y-5250335D02*
X7751585Y-5034665D01*
X7535915Y-5034665D01*
X7535915Y-5250335D01*
X7751585Y-5250335D01*
X8204085Y-7365335D02*
X8204085Y-7149665D01*
X7988415Y-7149665D01*
X7988415Y-7365335D01*
X8204085Y-7365335D01*
X8204085Y-9270335D02*
X8204085Y-9054665D01*
X7988415Y-9054665D01*
X7988415Y-9270335D01*
X8204085Y-9270335D01*
X8227835Y-3345335D02*
X8227835Y-3129665D01*
X8012165Y-3129665D01*
X8012165Y-3345335D01*
X8227835Y-3345335D01*
X8680335Y-1650335D02*
X8680335Y-1434665D01*
X8464665Y-1434665D01*
X8464665Y-1650335D01*
X8680335Y-1650335D01*
X8704085Y-7155335D02*
X8704085Y-6939665D01*
X8488415Y-6939665D01*
X8488415Y-7155335D01*
X8704085Y-7155335D01*
X8704085Y-9060335D02*
X8704085Y-8844665D01*
X8488415Y-8844665D01*
X8488415Y-9060335D01*
X8704085Y-9060335D01*
X9156585Y-5460335D02*
X9156585Y-5244665D01*
X8940915Y-5244665D01*
X8940915Y-5460335D01*
X9156585Y-5460335D01*
X9180335Y-1440335D02*
X9180335Y-1224665D01*
X8964665Y-1224665D01*
X8964665Y-1440335D01*
X9180335Y-1440335D01*
X9632835Y-3555335D02*
X9632835Y-3339665D01*
X9417165Y-3339665D01*
X9417165Y-3555335D01*
X9632835Y-3555335D01*
X9656585Y-5250335D02*
X9656585Y-5034665D01*
X9440915Y-5034665D01*
X9440915Y-5250335D01*
X9656585Y-5250335D01*
X10109085Y-7365335D02*
X10109085Y-7149665D01*
X9893415Y-7149665D01*
X9893415Y-7365335D01*
X10109085Y-7365335D01*
X10132835Y-3345335D02*
X10132835Y-3129665D01*
X9917165Y-3129665D01*
X9917165Y-3345335D01*
X10132835Y-3345335D01*
X10585335Y-1650335D02*
X10585335Y-1434665D01*
X10369665Y-1434665D01*
X10369665Y-1650335D01*
X10585335Y-1650335D01*
X10609085Y-7155335D02*
X10609085Y-6939665D01*
X10393415Y-6939665D01*
X10393415Y-7155335D01*
X10609085Y-7155335D01*
X11061585Y-5460335D02*
X11061585Y-5244665D01*
X10845915Y-5244665D01*
X10845915Y-5460335D01*
X11061585Y-5460335D01*
X11085335Y-1440335D02*
X11085335Y-1224665D01*
X10869665Y-1224665D01*
X10869665Y-1440335D01*
X11085335Y-1440335D01*
X11537835Y-3555335D02*
X11537835Y-3339665D01*
X11322165Y-3339665D01*
X11322165Y-3555335D01*
X11537835Y-3555335D01*
X11561585Y-5250335D02*
X11561585Y-5034665D01*
X11345915Y-5034665D01*
X11345915Y-5250335D01*
X11561585Y-5250335D01*
X12014085Y-7365335D02*
X12014085Y-7149665D01*
X11798415Y-7149665D01*
X11798415Y-7365335D01*
X12014085Y-7365335D01*
X12037835Y-3345335D02*
X12037835Y-3129665D01*
X11822165Y-3129665D01*
X11822165Y-3345335D01*
X12037835Y-3345335D01*
X12252210Y-9270335D02*
X12252210Y-9054665D01*
X12036540Y-9054665D01*
X12036540Y-9270335D01*
X12252210Y-9270335D01*
X12490335Y-1650335D02*
X12490335Y-1434665D01*
X12274665Y-1434665D01*
X12274665Y-1650335D01*
X12490335Y-1650335D01*
X12514085Y-7155335D02*
X12514085Y-6939665D01*
X12298415Y-6939665D01*
X12298415Y-7155335D01*
X12514085Y-7155335D01*
X12752210Y-9060335D02*
X12752210Y-8844665D01*
X12536540Y-8844665D01*
X12536540Y-9060335D01*
X12752210Y-9060335D01*
X12966585Y-5460335D02*
X12966585Y-5244665D01*
X12750915Y-5244665D01*
X12750915Y-5460335D01*
X12966585Y-5460335D01*
X12990335Y-1440335D02*
X12990335Y-1224665D01*
X12774665Y-1224665D01*
X12774665Y-1440335D01*
X12990335Y-1440335D01*
X13442835Y-3555335D02*
X13442835Y-3339665D01*
X13227165Y-3339665D01*
X13227165Y-3555335D01*
X13442835Y-3555335D01*
X13466585Y-5250335D02*
X13466585Y-5034665D01*
X13250915Y-5034665D01*
X13250915Y-5250335D01*
X13466585Y-5250335D01*
X13919085Y-7365335D02*
X13919085Y-7149665D01*
X13703415Y-7149665D01*
X13703415Y-7365335D01*
X13919085Y-7365335D01*
X13942835Y-3345335D02*
X13942835Y-3129665D01*
X13727165Y-3129665D01*
X13727165Y-3345335D01*
X13942835Y-3345335D01*
X14395335Y-1650335D02*
X14395335Y-1434665D01*
X14179665Y-1434665D01*
X14179665Y-1650335D01*
X14395335Y-1650335D01*
X14419085Y-7155335D02*
X14419085Y-6939665D01*
X14203415Y-6939665D01*
X14203415Y-7155335D01*
X14419085Y-7155335D01*
X14871585Y-5460335D02*
X14871585Y-5244665D01*
X14655915Y-5244665D01*
X14655915Y-5460335D01*
X14871585Y-5460335D01*
X14895335Y-1440335D02*
X14895335Y-1224665D01*
X14679665Y-1224665D01*
X14679665Y-1440335D01*
X14895335Y-1440335D01*
X15347835Y-3555335D02*
X15347835Y-3339665D01*
X15132165Y-3339665D01*
X15132165Y-3555335D01*
X15347835Y-3555335D01*
X15371585Y-5250335D02*
X15371585Y-5034665D01*
X15155915Y-5034665D01*
X15155915Y-5250335D01*
X15371585Y-5250335D01*
X15824085Y-7365335D02*
X15824085Y-7149665D01*
X15608415Y-7149665D01*
X15608415Y-7365335D01*
X15824085Y-7365335D01*
X15824085Y-9270335D02*
X15824085Y-9054665D01*
X15608415Y-9054665D01*
X15608415Y-9270335D01*
X15824085Y-9270335D01*
X15847835Y-3345335D02*
X15847835Y-3129665D01*
X15632165Y-3129665D01*
X15632165Y-3345335D01*
X15847835Y-3345335D01*
X16300335Y-1650335D02*
X16300335Y-1434665D01*
X16084665Y-1434665D01*
X16084665Y-1650335D01*
X16300335Y-1650335D01*
X16324085Y-7155335D02*
X16324085Y-6939665D01*
X16108415Y-6939665D01*
X16108415Y-7155335D01*
X16324085Y-7155335D01*
X16324085Y-9060335D02*
X16324085Y-8844665D01*
X16108415Y-8844665D01*
X16108415Y-9060335D01*
X16324085Y-9060335D01*
X16776585Y-5460335D02*
X16776585Y-5244665D01*
X16560915Y-5244665D01*
X16560915Y-5460335D01*
X16776585Y-5460335D01*
X16800335Y-1440335D02*
X16800335Y-1224665D01*
X16584665Y-1224665D01*
X16584665Y-1440335D01*
X16800335Y-1440335D01*
X17252835Y-3555335D02*
X17252835Y-3339665D01*
X17037165Y-3339665D01*
X17037165Y-3555335D01*
X17252835Y-3555335D01*
X17276585Y-5250335D02*
X17276585Y-5034665D01*
X17060915Y-5034665D01*
X17060915Y-5250335D01*
X17276585Y-5250335D01*
X17729085Y-7365335D02*
X17729085Y-7149665D01*
X17513415Y-7149665D01*
X17513415Y-7365335D01*
X17729085Y-7365335D01*
X17752835Y-3345335D02*
X17752835Y-3129665D01*
X17537165Y-3129665D01*
X17537165Y-3345335D01*
X17752835Y-3345335D01*
X18205335Y-1650335D02*
X18205335Y-1434665D01*
X17989665Y-1434665D01*
X17989665Y-1650335D01*
X18205335Y-1650335D01*
X18229085Y-7155335D02*
X18229085Y-6939665D01*
X18013415Y-6939665D01*
X18013415Y-7155335D01*
X18229085Y-7155335D01*
X18681585Y-5460335D02*
X18681585Y-5244665D01*
X18465915Y-5244665D01*
X18465915Y-5460335D01*
X18681585Y-5460335D01*
X18705335Y-1440335D02*
X18705335Y-1224665D01*
X18489665Y-1224665D01*
X18489665Y-1440335D01*
X18705335Y-1440335D01*
X18919710Y-9270335D02*
X18919710Y-9054665D01*
X18704040Y-9054665D01*
X18704040Y-9270335D01*
X18919710Y-9270335D01*
X19157835Y-3555335D02*
X19157835Y-3339665D01*
X18942165Y-3339665D01*
X18942165Y-3555335D01*
X19157835Y-3555335D01*
X19181585Y-5250335D02*
X19181585Y-5034665D01*
X18965915Y-5034665D01*
X18965915Y-5250335D01*
X19181585Y-5250335D01*
X19419710Y-9060335D02*
X19419710Y-8844665D01*
X19204040Y-8844665D01*
X19204040Y-9060335D01*
X19419710Y-9060335D01*
X19634085Y-7365335D02*
X19634085Y-7149665D01*
X19418415Y-7149665D01*
X19418415Y-7365335D01*
X19634085Y-7365335D01*
X19657835Y-3345335D02*
X19657835Y-3129665D01*
X19442165Y-3129665D01*
X19442165Y-3345335D01*
X19657835Y-3345335D01*
X20110335Y-1650335D02*
X20110335Y-1434665D01*
X19894665Y-1434665D01*
X19894665Y-1650335D01*
X20110335Y-1650335D01*
X20134085Y-7155335D02*
X20134085Y-6939665D01*
X19918415Y-6939665D01*
X19918415Y-7155335D01*
X20134085Y-7155335D01*
X20586585Y-5460335D02*
X20586585Y-5244665D01*
X20370915Y-5244665D01*
X20370915Y-5460335D01*
X20586585Y-5460335D01*
X20610335Y-1440335D02*
X20610335Y-1224665D01*
X20394665Y-1224665D01*
X20394665Y-1440335D01*
X20610335Y-1440335D01*
X21062835Y-3555335D02*
X21062835Y-3339665D01*
X20847165Y-3339665D01*
X20847165Y-3555335D01*
X21062835Y-3555335D01*
X21086585Y-5250335D02*
X21086585Y-5034665D01*
X20870915Y-5034665D01*
X20870915Y-5250335D01*
X21086585Y-5250335D01*
X21539085Y-7365335D02*
X21539085Y-7149665D01*
X21323415Y-7149665D01*
X21323415Y-7365335D01*
X21539085Y-7365335D01*
X21562835Y-3345335D02*
X21562835Y-3129665D01*
X21347165Y-3129665D01*
X21347165Y-3345335D01*
X21562835Y-3345335D01*
X22015335Y-1650335D02*
X22015335Y-1434665D01*
X21799665Y-1434665D01*
X21799665Y-1650335D01*
X22015335Y-1650335D01*
X22039085Y-7155335D02*
X22039085Y-6939665D01*
X21823415Y-6939665D01*
X21823415Y-7155335D01*
X22039085Y-7155335D01*
X22491585Y-5460335D02*
X22491585Y-5244665D01*
X22275915Y-5244665D01*
X22275915Y-5460335D01*
X22491585Y-5460335D01*
X22491585Y-9270335D02*
X22491585Y-9054665D01*
X22275915Y-9054665D01*
X22275915Y-9270335D01*
X22491585Y-9270335D01*
X22515335Y-1440335D02*
X22515335Y-1224665D01*
X22299665Y-1224665D01*
X22299665Y-1440335D01*
X22515335Y-1440335D01*
X22967835Y-3555335D02*
X22967835Y-3339665D01*
X22752165Y-3339665D01*
X22752165Y-3555335D01*
X22967835Y-3555335D01*
X22991585Y-5250335D02*
X22991585Y-5034665D01*
X22775915Y-5034665D01*
X22775915Y-5250335D01*
X22991585Y-5250335D01*
X22991585Y-9060335D02*
X22991585Y-8844665D01*
X22775915Y-8844665D01*
X22775915Y-9060335D01*
X22991585Y-9060335D01*
X23444085Y-7365335D02*
X23444085Y-7149665D01*
X23228415Y-7149665D01*
X23228415Y-7365335D01*
X23444085Y-7365335D01*
X23467835Y-3345335D02*
X23467835Y-3129665D01*
X23252165Y-3129665D01*
X23252165Y-3345335D01*
X23467835Y-3345335D01*
X23920335Y-1650335D02*
X23920335Y-1434665D01*
X23704665Y-1434665D01*
X23704665Y-1650335D01*
X23920335Y-1650335D01*
X23944085Y-7155335D02*
X23944085Y-6939665D01*
X23728415Y-6939665D01*
X23728415Y-7155335D01*
X23944085Y-7155335D01*
X24396585Y-5460335D02*
X24396585Y-5244665D01*
X24180915Y-5244665D01*
X24180915Y-5460335D01*
X24396585Y-5460335D01*
X24420335Y-1440335D02*
X24420335Y-1224665D01*
X24204665Y-1224665D01*
X24204665Y-1440335D01*
X24420335Y-1440335D01*
X24872835Y-3555335D02*
X24872835Y-3339665D01*
X24657165Y-3339665D01*
X24657165Y-3555335D01*
X24872835Y-3555335D01*
X24872835Y-9270335D02*
X24872835Y-9054665D01*
X24657165Y-9054665D01*
X24657165Y-9270335D01*
X24872835Y-9270335D01*
X24896585Y-5250335D02*
X24896585Y-5034665D01*
X24680915Y-5034665D01*
X24680915Y-5250335D01*
X24896585Y-5250335D01*
X25372835Y-3345335D02*
X25372835Y-3129665D01*
X25157165Y-3129665D01*
X25157165Y-3345335D01*
X25372835Y-3345335D01*
X25372835Y-9060335D02*
X25372835Y-8844665D01*
X25157165Y-8844665D01*
X25157165Y-9060335D01*
X25372835Y-9060335D01*
X25825335Y-1650335D02*
X25825335Y-1434665D01*
X25609665Y-1434665D01*
X25609665Y-1650335D01*
X25825335Y-1650335D01*
X26325335Y-1440335D02*
X26325335Y-1224665D01*
X26109665Y-1224665D01*
X26109665Y-1440335D01*
X26325335Y-1440335D01*
X26539710Y-7365335D02*
X26539710Y-7149665D01*
X26324040Y-7149665D01*
X26324040Y-7365335D01*
X26539710Y-7365335D01*
X27015960Y-5460335D02*
X27015960Y-5244665D01*
X26800290Y-5244665D01*
X26800290Y-5460335D01*
X27015960Y-5460335D01*
X27039710Y-7155335D02*
X27039710Y-6939665D01*
X26824040Y-6939665D01*
X26824040Y-7155335D01*
X27039710Y-7155335D01*
X27254085Y-3555335D02*
X27254085Y-3339665D01*
X27038415Y-3339665D01*
X27038415Y-3555335D01*
X27254085Y-3555335D01*
X27515960Y-5250335D02*
X27515960Y-5034665D01*
X27300290Y-5034665D01*
X27300290Y-5250335D01*
X27515960Y-5250335D01*
X27730335Y-1650335D02*
X27730335Y-1434665D01*
X27514665Y-1434665D01*
X27514665Y-1650335D01*
X27730335Y-1650335D01*
X27754085Y-3345335D02*
X27754085Y-3129665D01*
X27538415Y-3129665D01*
X27538415Y-3345335D01*
X27754085Y-3345335D01*
X28230335Y-1440335D02*
X28230335Y-1224665D01*
X28014665Y-1224665D01*
X28014665Y-1440335D01*
X28230335Y-1440335D01*
D16*
X952500Y-1205000D02*
X1205000Y-952500D01*
X952500Y-700000D01*
X700000Y-952500D01*
X952500Y-1205000D01*
X952500Y-6920000D02*
X1205000Y-6667500D01*
X952500Y-6415000D01*
X700000Y-6667500D01*
X952500Y-6920000D01*
X1428750Y-3110000D02*
X1681250Y-2857500D01*
X1428750Y-2605000D01*
X1176250Y-2857500D01*
X1428750Y-3110000D01*
X2143125Y-5015000D02*
X2395625Y-4762500D01*
X2143125Y-4510000D01*
X1890625Y-4762500D01*
X2143125Y-5015000D01*
X2857500Y-1205000D02*
X3110000Y-952500D01*
X2857500Y-700000D01*
X2605000Y-952500D01*
X2857500Y-1205000D01*
X3571875Y-6920000D02*
X3824375Y-6667500D01*
X3571875Y-6415000D01*
X3319375Y-6667500D01*
X3571875Y-6920000D01*
X3810000Y-3110000D02*
X4062500Y-2857500D01*
X3810000Y-2605000D01*
X3557500Y-2857500D01*
X3810000Y-3110000D01*
X4762500Y-1205000D02*
X5015000Y-952500D01*
X4762500Y-700000D01*
X4510000Y-952500D01*
X4762500Y-1205000D01*
X5238750Y-5015000D02*
X5491250Y-4762500D01*
X5238750Y-4510000D01*
X4986250Y-4762500D01*
X5238750Y-5015000D01*
X5715000Y-3110000D02*
X5967500Y-2857500D01*
X5715000Y-2605000D01*
X5462500Y-2857500D01*
X5715000Y-3110000D01*
X5715000Y-8825000D02*
X5967500Y-8572500D01*
X5715000Y-8320000D01*
X5462500Y-8572500D01*
X5715000Y-8825000D01*
X6191250Y-6920000D02*
X6443750Y-6667500D01*
X6191250Y-6415000D01*
X5938750Y-6667500D01*
X6191250Y-6920000D01*
X6667500Y-1205000D02*
X6920000Y-952500D01*
X6667500Y-700000D01*
X6415000Y-952500D01*
X6667500Y-1205000D01*
X7143750Y-5015000D02*
X7396250Y-4762500D01*
X7143750Y-4510000D01*
X6891250Y-4762500D01*
X7143750Y-5015000D01*
X7620000Y-3110000D02*
X7872500Y-2857500D01*
X7620000Y-2605000D01*
X7367500Y-2857500D01*
X7620000Y-3110000D01*
X8096250Y-6920000D02*
X8348750Y-6667500D01*
X8096250Y-6415000D01*
X7843750Y-6667500D01*
X8096250Y-6920000D01*
X8096250Y-8825000D02*
X8348750Y-8572500D01*
X8096250Y-8320000D01*
X7843750Y-8572500D01*
X8096250Y-8825000D01*
X8572500Y-1205000D02*
X8825000Y-952500D01*
X8572500Y-700000D01*
X8320000Y-952500D01*
X8572500Y-1205000D01*
X9048750Y-5015000D02*
X9301250Y-4762500D01*
X9048750Y-4510000D01*
X8796250Y-4762500D01*
X9048750Y-5015000D01*
X9525000Y-3110000D02*
X9777500Y-2857500D01*
X9525000Y-2605000D01*
X9272500Y-2857500D01*
X9525000Y-3110000D01*
X10001250Y-6920000D02*
X10253750Y-6667500D01*
X10001250Y-6415000D01*
X9748750Y-6667500D01*
X10001250Y-6920000D01*
X10477500Y-1205000D02*
X10730000Y-952500D01*
X10477500Y-700000D01*
X10225000Y-952500D01*
X10477500Y-1205000D01*
X10953750Y-5015000D02*
X11206250Y-4762500D01*
X10953750Y-4510000D01*
X10701250Y-4762500D01*
X10953750Y-5015000D01*
X11430000Y-3110000D02*
X11682500Y-2857500D01*
X11430000Y-2605000D01*
X11177500Y-2857500D01*
X11430000Y-3110000D01*
X11906250Y-6920000D02*
X12158750Y-6667500D01*
X11906250Y-6415000D01*
X11653750Y-6667500D01*
X11906250Y-6920000D01*
X12144375Y-8825000D02*
X12396875Y-8572500D01*
X12144375Y-8320000D01*
X11891875Y-8572500D01*
X12144375Y-8825000D01*
X12382500Y-1205000D02*
X12635000Y-952500D01*
X12382500Y-700000D01*
X12130000Y-952500D01*
X12382500Y-1205000D01*
X12858750Y-5015000D02*
X13111250Y-4762500D01*
X12858750Y-4510000D01*
X12606250Y-4762500D01*
X12858750Y-5015000D01*
X13335000Y-3110000D02*
X13587500Y-2857500D01*
X13335000Y-2605000D01*
X13082500Y-2857500D01*
X13335000Y-3110000D01*
X13811250Y-6920000D02*
X14063750Y-6667500D01*
X13811250Y-6415000D01*
X13558750Y-6667500D01*
X13811250Y-6920000D01*
X14287500Y-1205000D02*
X14540000Y-952500D01*
X14287500Y-700000D01*
X14035000Y-952500D01*
X14287500Y-1205000D01*
X14763750Y-5015000D02*
X15016250Y-4762500D01*
X14763750Y-4510000D01*
X14511250Y-4762500D01*
X14763750Y-5015000D01*
X15240000Y-3110000D02*
X15492500Y-2857500D01*
X15240000Y-2605000D01*
X14987500Y-2857500D01*
X15240000Y-3110000D01*
X15716250Y-6920000D02*
X15968750Y-6667500D01*
X15716250Y-6415000D01*
X15463750Y-6667500D01*
X15716250Y-6920000D01*
X15716250Y-8825000D02*
X15968750Y-8572500D01*
X15716250Y-8320000D01*
X15463750Y-8572500D01*
X15716250Y-8825000D01*
X16192500Y-1205000D02*
X16445000Y-952500D01*
X16192500Y-700000D01*
X15940000Y-952500D01*
X16192500Y-1205000D01*
X16668750Y-5015000D02*
X16921250Y-4762500D01*
X16668750Y-4510000D01*
X16416250Y-4762500D01*
X16668750Y-5015000D01*
X17145000Y-3110000D02*
X17397500Y-2857500D01*
X17145000Y-2605000D01*
X16892500Y-2857500D01*
X17145000Y-3110000D01*
X17621250Y-6920000D02*
X17873750Y-6667500D01*
X17621250Y-6415000D01*
X17368750Y-6667500D01*
X17621250Y-6920000D01*
X18097500Y-1205000D02*
X18350000Y-952500D01*
X18097500Y-700000D01*
X17845000Y-952500D01*
X18097500Y-1205000D01*
X18573750Y-5015000D02*
X18826250Y-4762500D01*
X18573750Y-4510000D01*
X18321250Y-4762500D01*
X18573750Y-5015000D01*
X18811875Y-8825000D02*
X19064375Y-8572500D01*
X18811875Y-8320000D01*
X18559375Y-8572500D01*
X18811875Y-8825000D01*
X19050000Y-3110000D02*
X19302500Y-2857500D01*
X19050000Y-2605000D01*
X18797500Y-2857500D01*
X19050000Y-3110000D01*
X19526250Y-6920000D02*
X19778750Y-6667500D01*
X19526250Y-6415000D01*
X19273750Y-6667500D01*
X19526250Y-6920000D01*
X20002500Y-1205000D02*
X20255000Y-952500D01*
X20002500Y-700000D01*
X19750000Y-952500D01*
X20002500Y-1205000D01*
X20478750Y-5015000D02*
X20731250Y-4762500D01*
X20478750Y-4510000D01*
X20226250Y-4762500D01*
X20478750Y-5015000D01*
X20955000Y-3110000D02*
X21207500Y-2857500D01*
X20955000Y-2605000D01*
X20702500Y-2857500D01*
X20955000Y-3110000D01*
X21431250Y-6920000D02*
X21683750Y-6667500D01*
X21431250Y-6415000D01*
X21178750Y-6667500D01*
X21431250Y-6920000D01*
X21907500Y-1205000D02*
X22160000Y-952500D01*
X21907500Y-700000D01*
X21655000Y-952500D01*
X21907500Y-1205000D01*
X22383750Y-5015000D02*
X22636250Y-4762500D01*
X22383750Y-4510000D01*
X22131250Y-4762500D01*
X22383750Y-5015000D01*
X22383750Y-8825000D02*
X22636250Y-8572500D01*
X22383750Y-8320000D01*
X22131250Y-8572500D01*
X22383750Y-8825000D01*
X22860000Y-3110000D02*
X23112500Y-2857500D01*
X22860000Y-2605000D01*
X22607500Y-2857500D01*
X22860000Y-3110000D01*
X23336250Y-6920000D02*
X23588750Y-6667500D01*
X23336250Y-6415000D01*
X23083750Y-6667500D01*
X23336250Y-6920000D01*
X23812500Y-1205000D02*
X24065000Y-952500D01*
X23812500Y-700000D01*
X23560000Y-952500D01*
X23812500Y-1205000D01*
X24288750Y-5015000D02*
X24541250Y-4762500D01*
X24288750Y-4510000D01*
X24036250Y-4762500D01*
X24288750Y-5015000D01*
X24765000Y-3110000D02*
X25017500Y-2857500D01*
X24765000Y-2605000D01*
X24512500Y-2857500D01*
X24765000Y-3110000D01*
X24765000Y-8825000D02*
X25017500Y-8572500D01*
X24765000Y-8320000D01*
X24512500Y-8572500D01*
X24765000Y-8825000D01*
X25717500Y-1205000D02*
X25970000Y-952500D01*
X25717500Y-700000D01*
X25465000Y-952500D01*
X25717500Y-1205000D01*
X26431875Y-6920000D02*
X26684375Y-6667500D01*
X26431875Y-6415000D01*
X26179375Y-6667500D01*
X26431875Y-6920000D01*
X26908125Y-5015000D02*
X27160625Y-4762500D01*
X26908125Y-4510000D01*
X26655625Y-4762500D01*
X26908125Y-5015000D01*
X27146250Y-3110000D02*
X27398750Y-2857500D01*
X27146250Y-2605000D01*
X26893750Y-2857500D01*
X27146250Y-3110000D01*
X27622500Y-1205000D02*
X27875000Y-952500D01*
X27622500Y-700000D01*
X27370000Y-952500D01*
X27622500Y-1205000D01*
D10*
X171402Y-9687734D02*
X171402Y-9487734D01*
X171402Y-9487734D02*
X219021Y-9487734D01*
X219021Y-9487734D02*
X247592Y-9497258D01*
X247592Y-9497258D02*
X266640Y-9516305D01*
X266640Y-9516305D02*
X276164Y-9535353D01*
X276164Y-9535353D02*
X285688Y-9573448D01*
X285688Y-9573448D02*
X285688Y-9602020D01*
X285688Y-9602020D02*
X276164Y-9640115D01*
X276164Y-9640115D02*
X266640Y-9659162D01*
X266640Y-9659162D02*
X247592Y-9678210D01*
X247592Y-9678210D02*
X219021Y-9687734D01*
X219021Y-9687734D02*
X171402Y-9687734D01*
X371402Y-9687734D02*
X371402Y-9554400D01*
X371402Y-9592496D02*
X380926Y-9573448D01*
X380926Y-9573448D02*
X390449Y-9563924D01*
X390449Y-9563924D02*
X409497Y-9554400D01*
X409497Y-9554400D02*
X428545Y-9554400D01*
X495211Y-9687734D02*
X495211Y-9554400D01*
X495211Y-9487734D02*
X485687Y-9497258D01*
X485687Y-9497258D02*
X495211Y-9506781D01*
X495211Y-9506781D02*
X504735Y-9497258D01*
X504735Y-9497258D02*
X495211Y-9487734D01*
X495211Y-9487734D02*
X495211Y-9506781D01*
X619021Y-9687734D02*
X599973Y-9678210D01*
X599973Y-9678210D02*
X590449Y-9659162D01*
X590449Y-9659162D02*
X590449Y-9487734D01*
X723783Y-9687734D02*
X704735Y-9678210D01*
X704735Y-9678210D02*
X695211Y-9659162D01*
X695211Y-9659162D02*
X695211Y-9487734D01*
X952354Y-9687734D02*
X952354Y-9487734D01*
X952354Y-9487734D02*
X1019021Y-9630591D01*
X1019021Y-9630591D02*
X1085688Y-9487734D01*
X1085688Y-9487734D02*
X1085688Y-9687734D01*
X1266640Y-9687734D02*
X1266640Y-9582972D01*
X1266640Y-9582972D02*
X1257116Y-9563924D01*
X1257116Y-9563924D02*
X1238069Y-9554400D01*
X1238069Y-9554400D02*
X1199973Y-9554400D01*
X1199973Y-9554400D02*
X1180926Y-9563924D01*
X1266640Y-9678210D02*
X1247592Y-9687734D01*
X1247592Y-9687734D02*
X1199973Y-9687734D01*
X1199973Y-9687734D02*
X1180926Y-9678210D01*
X1180926Y-9678210D02*
X1171402Y-9659162D01*
X1171402Y-9659162D02*
X1171402Y-9640115D01*
X1171402Y-9640115D02*
X1180926Y-9621067D01*
X1180926Y-9621067D02*
X1199973Y-9611543D01*
X1199973Y-9611543D02*
X1247592Y-9611543D01*
X1247592Y-9611543D02*
X1266640Y-9602020D01*
X1361878Y-9554400D02*
X1361878Y-9754400D01*
X1361878Y-9563924D02*
X1380926Y-9554400D01*
X1380926Y-9554400D02*
X1419021Y-9554400D01*
X1419021Y-9554400D02*
X1438068Y-9563924D01*
X1438068Y-9563924D02*
X1447592Y-9573448D01*
X1447592Y-9573448D02*
X1457116Y-9592496D01*
X1457116Y-9592496D02*
X1457116Y-9649639D01*
X1457116Y-9649639D02*
X1447592Y-9668686D01*
X1447592Y-9668686D02*
X1438068Y-9678210D01*
X1438068Y-9678210D02*
X1419021Y-9687734D01*
X1419021Y-9687734D02*
X1380926Y-9687734D01*
X1380926Y-9687734D02*
X1361878Y-9678210D01*
X1542830Y-9668686D02*
X1552354Y-9678210D01*
X1552354Y-9678210D02*
X1542830Y-9687734D01*
X1542830Y-9687734D02*
X1533307Y-9678210D01*
X1533307Y-9678210D02*
X1542830Y-9668686D01*
X1542830Y-9668686D02*
X1542830Y-9687734D01*
X1542830Y-9563924D02*
X1552354Y-9573448D01*
X1552354Y-9573448D02*
X1542830Y-9582972D01*
X1542830Y-9582972D02*
X1533307Y-9573448D01*
X1533307Y-9573448D02*
X1542830Y-9563924D01*
X1542830Y-9563924D02*
X1542830Y-9582972D01*
D12*
X-154375Y-9983750D02*
X-89375Y-10048750D01*
X-89375Y-9983750D02*
X-154375Y-10048750D01*
D10*
X209497Y-9907734D02*
X228545Y-9907734D01*
X228545Y-9907734D02*
X247592Y-9917258D01*
X247592Y-9917258D02*
X257116Y-9926781D01*
X257116Y-9926781D02*
X266640Y-9945829D01*
X266640Y-9945829D02*
X276164Y-9983924D01*
X276164Y-9983924D02*
X276164Y-10031543D01*
X276164Y-10031543D02*
X266640Y-10069639D01*
X266640Y-10069639D02*
X257116Y-10088686D01*
X257116Y-10088686D02*
X247592Y-10098210D01*
X247592Y-10098210D02*
X228545Y-10107734D01*
X228545Y-10107734D02*
X209497Y-10107734D01*
X209497Y-10107734D02*
X190449Y-10098210D01*
X190449Y-10098210D02*
X180926Y-10088686D01*
X180926Y-10088686D02*
X171402Y-10069639D01*
X171402Y-10069639D02*
X161878Y-10031543D01*
X161878Y-10031543D02*
X161878Y-9983924D01*
X161878Y-9983924D02*
X171402Y-9945829D01*
X171402Y-9945829D02*
X180926Y-9926781D01*
X180926Y-9926781D02*
X190449Y-9917258D01*
X190449Y-9917258D02*
X209497Y-9907734D01*
X361878Y-10088686D02*
X371402Y-10098210D01*
X371402Y-10098210D02*
X361878Y-10107734D01*
X361878Y-10107734D02*
X352354Y-10098210D01*
X352354Y-10098210D02*
X361878Y-10088686D01*
X361878Y-10088686D02*
X361878Y-10107734D01*
X542830Y-9907734D02*
X504735Y-9907734D01*
X504735Y-9907734D02*
X485687Y-9917258D01*
X485687Y-9917258D02*
X476164Y-9926781D01*
X476164Y-9926781D02*
X457116Y-9955353D01*
X457116Y-9955353D02*
X447592Y-9993448D01*
X447592Y-9993448D02*
X447592Y-10069639D01*
X447592Y-10069639D02*
X457116Y-10088686D01*
X457116Y-10088686D02*
X466640Y-10098210D01*
X466640Y-10098210D02*
X485687Y-10107734D01*
X485687Y-10107734D02*
X523783Y-10107734D01*
X523783Y-10107734D02*
X542830Y-10098210D01*
X542830Y-10098210D02*
X552354Y-10088686D01*
X552354Y-10088686D02*
X561878Y-10069639D01*
X561878Y-10069639D02*
X561878Y-10022020D01*
X561878Y-10022020D02*
X552354Y-10002972D01*
X552354Y-10002972D02*
X542830Y-9993448D01*
X542830Y-9993448D02*
X523783Y-9983924D01*
X523783Y-9983924D02*
X485687Y-9983924D01*
X485687Y-9983924D02*
X466640Y-9993448D01*
X466640Y-9993448D02*
X457116Y-10002972D01*
X457116Y-10002972D02*
X447592Y-10022020D01*
X742830Y-9907734D02*
X647592Y-9907734D01*
X647592Y-9907734D02*
X638069Y-10002972D01*
X638069Y-10002972D02*
X647592Y-9993448D01*
X647592Y-9993448D02*
X666640Y-9983924D01*
X666640Y-9983924D02*
X714259Y-9983924D01*
X714259Y-9983924D02*
X733307Y-9993448D01*
X733307Y-9993448D02*
X742830Y-10002972D01*
X742830Y-10002972D02*
X752354Y-10022020D01*
X752354Y-10022020D02*
X752354Y-10069639D01*
X752354Y-10069639D02*
X742830Y-10088686D01*
X742830Y-10088686D02*
X733307Y-10098210D01*
X733307Y-10098210D02*
X714259Y-10107734D01*
X714259Y-10107734D02*
X666640Y-10107734D01*
X666640Y-10107734D02*
X647592Y-10098210D01*
X647592Y-10098210D02*
X638069Y-10088686D01*
X876164Y-9907734D02*
X895211Y-9907734D01*
X895211Y-9907734D02*
X914259Y-9917258D01*
X914259Y-9917258D02*
X923783Y-9926781D01*
X923783Y-9926781D02*
X933307Y-9945829D01*
X933307Y-9945829D02*
X942830Y-9983924D01*
X942830Y-9983924D02*
X942830Y-10031543D01*
X942830Y-10031543D02*
X933307Y-10069639D01*
X933307Y-10069639D02*
X923783Y-10088686D01*
X923783Y-10088686D02*
X914259Y-10098210D01*
X914259Y-10098210D02*
X895211Y-10107734D01*
X895211Y-10107734D02*
X876164Y-10107734D01*
X876164Y-10107734D02*
X857116Y-10098210D01*
X857116Y-10098210D02*
X847592Y-10088686D01*
X847592Y-10088686D02*
X838068Y-10069639D01*
X838068Y-10069639D02*
X828545Y-10031543D01*
X828545Y-10031543D02*
X828545Y-9983924D01*
X828545Y-9983924D02*
X838068Y-9945829D01*
X838068Y-9945829D02*
X847592Y-9926781D01*
X847592Y-9926781D02*
X857116Y-9917258D01*
X857116Y-9917258D02*
X876164Y-9907734D01*
X1028545Y-10107734D02*
X1028545Y-9974400D01*
X1028545Y-9993448D02*
X1038068Y-9983924D01*
X1038068Y-9983924D02*
X1057116Y-9974400D01*
X1057116Y-9974400D02*
X1085688Y-9974400D01*
X1085688Y-9974400D02*
X1104735Y-9983924D01*
X1104735Y-9983924D02*
X1114259Y-10002972D01*
X1114259Y-10002972D02*
X1114259Y-10107734D01*
X1114259Y-10002972D02*
X1123783Y-9983924D01*
X1123783Y-9983924D02*
X1142830Y-9974400D01*
X1142830Y-9974400D02*
X1171402Y-9974400D01*
X1171402Y-9974400D02*
X1190450Y-9983924D01*
X1190450Y-9983924D02*
X1199973Y-10002972D01*
X1199973Y-10002972D02*
X1199973Y-10107734D01*
X1295211Y-10107734D02*
X1295211Y-9974400D01*
X1295211Y-9993448D02*
X1304735Y-9983924D01*
X1304735Y-9983924D02*
X1323783Y-9974400D01*
X1323783Y-9974400D02*
X1352354Y-9974400D01*
X1352354Y-9974400D02*
X1371402Y-9983924D01*
X1371402Y-9983924D02*
X1380926Y-10002972D01*
X1380926Y-10002972D02*
X1380926Y-10107734D01*
X1380926Y-10002972D02*
X1390450Y-9983924D01*
X1390450Y-9983924D02*
X1409497Y-9974400D01*
X1409497Y-9974400D02*
X1438068Y-9974400D01*
X1438068Y-9974400D02*
X1457116Y-9983924D01*
X1457116Y-9983924D02*
X1466640Y-10002972D01*
X1466640Y-10002972D02*
X1466640Y-10107734D01*
X1857116Y-9898210D02*
X1685688Y-10155353D01*
X2114259Y-9907734D02*
X2133307Y-9907734D01*
X2133307Y-9907734D02*
X2152354Y-9917258D01*
X2152354Y-9917258D02*
X2161878Y-9926781D01*
X2161878Y-9926781D02*
X2171402Y-9945829D01*
X2171402Y-9945829D02*
X2180926Y-9983924D01*
X2180926Y-9983924D02*
X2180926Y-10031543D01*
X2180926Y-10031543D02*
X2171402Y-10069639D01*
X2171402Y-10069639D02*
X2161878Y-10088686D01*
X2161878Y-10088686D02*
X2152354Y-10098210D01*
X2152354Y-10098210D02*
X2133307Y-10107734D01*
X2133307Y-10107734D02*
X2114259Y-10107734D01*
X2114259Y-10107734D02*
X2095211Y-10098210D01*
X2095211Y-10098210D02*
X2085688Y-10088686D01*
X2085688Y-10088686D02*
X2076164Y-10069639D01*
X2076164Y-10069639D02*
X2066640Y-10031543D01*
X2066640Y-10031543D02*
X2066640Y-9983924D01*
X2066640Y-9983924D02*
X2076164Y-9945829D01*
X2076164Y-9945829D02*
X2085688Y-9926781D01*
X2085688Y-9926781D02*
X2095211Y-9917258D01*
X2095211Y-9917258D02*
X2114259Y-9907734D01*
X2266640Y-10088686D02*
X2276164Y-10098210D01*
X2276164Y-10098210D02*
X2266640Y-10107734D01*
X2266640Y-10107734D02*
X2257116Y-10098210D01*
X2257116Y-10098210D02*
X2266640Y-10088686D01*
X2266640Y-10088686D02*
X2266640Y-10107734D01*
X2399973Y-9907734D02*
X2419021Y-9907734D01*
X2419021Y-9907734D02*
X2438069Y-9917258D01*
X2438069Y-9917258D02*
X2447593Y-9926781D01*
X2447593Y-9926781D02*
X2457116Y-9945829D01*
X2457116Y-9945829D02*
X2466640Y-9983924D01*
X2466640Y-9983924D02*
X2466640Y-10031543D01*
X2466640Y-10031543D02*
X2457116Y-10069639D01*
X2457116Y-10069639D02*
X2447593Y-10088686D01*
X2447593Y-10088686D02*
X2438069Y-10098210D01*
X2438069Y-10098210D02*
X2419021Y-10107734D01*
X2419021Y-10107734D02*
X2399973Y-10107734D01*
X2399973Y-10107734D02*
X2380926Y-10098210D01*
X2380926Y-10098210D02*
X2371402Y-10088686D01*
X2371402Y-10088686D02*
X2361878Y-10069639D01*
X2361878Y-10069639D02*
X2352354Y-10031543D01*
X2352354Y-10031543D02*
X2352354Y-9983924D01*
X2352354Y-9983924D02*
X2361878Y-9945829D01*
X2361878Y-9945829D02*
X2371402Y-9926781D01*
X2371402Y-9926781D02*
X2380926Y-9917258D01*
X2380926Y-9917258D02*
X2399973Y-9907734D01*
X2542831Y-9926781D02*
X2552354Y-9917258D01*
X2552354Y-9917258D02*
X2571402Y-9907734D01*
X2571402Y-9907734D02*
X2619021Y-9907734D01*
X2619021Y-9907734D02*
X2638069Y-9917258D01*
X2638069Y-9917258D02*
X2647593Y-9926781D01*
X2647593Y-9926781D02*
X2657116Y-9945829D01*
X2657116Y-9945829D02*
X2657116Y-9964877D01*
X2657116Y-9964877D02*
X2647593Y-9993448D01*
X2647593Y-9993448D02*
X2533307Y-10107734D01*
X2533307Y-10107734D02*
X2657116Y-10107734D01*
X2838069Y-9907734D02*
X2742831Y-9907734D01*
X2742831Y-9907734D02*
X2733307Y-10002972D01*
X2733307Y-10002972D02*
X2742831Y-9993448D01*
X2742831Y-9993448D02*
X2761878Y-9983924D01*
X2761878Y-9983924D02*
X2809497Y-9983924D01*
X2809497Y-9983924D02*
X2828545Y-9993448D01*
X2828545Y-9993448D02*
X2838069Y-10002972D01*
X2838069Y-10002972D02*
X2847592Y-10022020D01*
X2847592Y-10022020D02*
X2847592Y-10069639D01*
X2847592Y-10069639D02*
X2838069Y-10088686D01*
X2838069Y-10088686D02*
X2828545Y-10098210D01*
X2828545Y-10098210D02*
X2809497Y-10107734D01*
X2809497Y-10107734D02*
X2761878Y-10107734D01*
X2761878Y-10107734D02*
X2742831Y-10098210D01*
X2742831Y-10098210D02*
X2733307Y-10088686D01*
X3019021Y-9907734D02*
X2980926Y-9907734D01*
X2980926Y-9907734D02*
X2961878Y-9917258D01*
X2961878Y-9917258D02*
X2952354Y-9926781D01*
X2952354Y-9926781D02*
X2933307Y-9955353D01*
X2933307Y-9955353D02*
X2923783Y-9993448D01*
X2923783Y-9993448D02*
X2923783Y-10069639D01*
X2923783Y-10069639D02*
X2933307Y-10088686D01*
X2933307Y-10088686D02*
X2942831Y-10098210D01*
X2942831Y-10098210D02*
X2961878Y-10107734D01*
X2961878Y-10107734D02*
X2999973Y-10107734D01*
X2999973Y-10107734D02*
X3019021Y-10098210D01*
X3019021Y-10098210D02*
X3028545Y-10088686D01*
X3028545Y-10088686D02*
X3038069Y-10069639D01*
X3038069Y-10069639D02*
X3038069Y-10022020D01*
X3038069Y-10022020D02*
X3028545Y-10002972D01*
X3028545Y-10002972D02*
X3019021Y-9993448D01*
X3019021Y-9993448D02*
X2999973Y-9983924D01*
X2999973Y-9983924D02*
X2961878Y-9983924D01*
X2961878Y-9983924D02*
X2942831Y-9993448D01*
X2942831Y-9993448D02*
X2933307Y-10002972D01*
X2933307Y-10002972D02*
X2923783Y-10022020D01*
X3114259Y-9907734D02*
X3114259Y-9945829D01*
X3190450Y-9907734D02*
X3190450Y-9945829D01*
X3485688Y-10183924D02*
X3476164Y-10174400D01*
X3476164Y-10174400D02*
X3457116Y-10145829D01*
X3457116Y-10145829D02*
X3447593Y-10126781D01*
X3447593Y-10126781D02*
X3438069Y-10098210D01*
X3438069Y-10098210D02*
X3428545Y-10050591D01*
X3428545Y-10050591D02*
X3428545Y-10012496D01*
X3428545Y-10012496D02*
X3438069Y-9964877D01*
X3438069Y-9964877D02*
X3447593Y-9936305D01*
X3447593Y-9936305D02*
X3457116Y-9917258D01*
X3457116Y-9917258D02*
X3476164Y-9888686D01*
X3476164Y-9888686D02*
X3485688Y-9879162D01*
X3552354Y-9926781D02*
X3561878Y-9917258D01*
X3561878Y-9917258D02*
X3580926Y-9907734D01*
X3580926Y-9907734D02*
X3628545Y-9907734D01*
X3628545Y-9907734D02*
X3647593Y-9917258D01*
X3647593Y-9917258D02*
X3657116Y-9926781D01*
X3657116Y-9926781D02*
X3666640Y-9945829D01*
X3666640Y-9945829D02*
X3666640Y-9964877D01*
X3666640Y-9964877D02*
X3657116Y-9993448D01*
X3657116Y-9993448D02*
X3542831Y-10107734D01*
X3542831Y-10107734D02*
X3666640Y-10107734D01*
X3904735Y-10107734D02*
X3904735Y-9907734D01*
X3990450Y-10107734D02*
X3990450Y-10002972D01*
X3990450Y-10002972D02*
X3980926Y-9983924D01*
X3980926Y-9983924D02*
X3961878Y-9974400D01*
X3961878Y-9974400D02*
X3933307Y-9974400D01*
X3933307Y-9974400D02*
X3914259Y-9983924D01*
X3914259Y-9983924D02*
X3904735Y-9993448D01*
X4114259Y-10107734D02*
X4095212Y-10098210D01*
X4095212Y-10098210D02*
X4085688Y-10088686D01*
X4085688Y-10088686D02*
X4076164Y-10069639D01*
X4076164Y-10069639D02*
X4076164Y-10012496D01*
X4076164Y-10012496D02*
X4085688Y-9993448D01*
X4085688Y-9993448D02*
X4095212Y-9983924D01*
X4095212Y-9983924D02*
X4114259Y-9974400D01*
X4114259Y-9974400D02*
X4142831Y-9974400D01*
X4142831Y-9974400D02*
X4161878Y-9983924D01*
X4161878Y-9983924D02*
X4171402Y-9993448D01*
X4171402Y-9993448D02*
X4180926Y-10012496D01*
X4180926Y-10012496D02*
X4180926Y-10069639D01*
X4180926Y-10069639D02*
X4171402Y-10088686D01*
X4171402Y-10088686D02*
X4161878Y-10098210D01*
X4161878Y-10098210D02*
X4142831Y-10107734D01*
X4142831Y-10107734D02*
X4114259Y-10107734D01*
X4295212Y-10107734D02*
X4276164Y-10098210D01*
X4276164Y-10098210D02*
X4266640Y-10079162D01*
X4266640Y-10079162D02*
X4266640Y-9907734D01*
X4447593Y-10098210D02*
X4428545Y-10107734D01*
X4428545Y-10107734D02*
X4390450Y-10107734D01*
X4390450Y-10107734D02*
X4371402Y-10098210D01*
X4371402Y-10098210D02*
X4361878Y-10079162D01*
X4361878Y-10079162D02*
X4361878Y-10002972D01*
X4361878Y-10002972D02*
X4371402Y-9983924D01*
X4371402Y-9983924D02*
X4390450Y-9974400D01*
X4390450Y-9974400D02*
X4428545Y-9974400D01*
X4428545Y-9974400D02*
X4447593Y-9983924D01*
X4447593Y-9983924D02*
X4457117Y-10002972D01*
X4457117Y-10002972D02*
X4457117Y-10022020D01*
X4457117Y-10022020D02*
X4361878Y-10041067D01*
X4533307Y-10098210D02*
X4552355Y-10107734D01*
X4552355Y-10107734D02*
X4590450Y-10107734D01*
X4590450Y-10107734D02*
X4609498Y-10098210D01*
X4609498Y-10098210D02*
X4619021Y-10079162D01*
X4619021Y-10079162D02*
X4619021Y-10069639D01*
X4619021Y-10069639D02*
X4609498Y-10050591D01*
X4609498Y-10050591D02*
X4590450Y-10041067D01*
X4590450Y-10041067D02*
X4561878Y-10041067D01*
X4561878Y-10041067D02*
X4542831Y-10031543D01*
X4542831Y-10031543D02*
X4533307Y-10012496D01*
X4533307Y-10012496D02*
X4533307Y-10002972D01*
X4533307Y-10002972D02*
X4542831Y-9983924D01*
X4542831Y-9983924D02*
X4561878Y-9974400D01*
X4561878Y-9974400D02*
X4590450Y-9974400D01*
X4590450Y-9974400D02*
X4609498Y-9983924D01*
X4685688Y-10183924D02*
X4695212Y-10174400D01*
X4695212Y-10174400D02*
X4714259Y-10145829D01*
X4714259Y-10145829D02*
X4723783Y-10126781D01*
X4723783Y-10126781D02*
X4733307Y-10098210D01*
X4733307Y-10098210D02*
X4742831Y-10050591D01*
X4742831Y-10050591D02*
X4742831Y-10012496D01*
X4742831Y-10012496D02*
X4733307Y-9964877D01*
X4733307Y-9964877D02*
X4723783Y-9936305D01*
X4723783Y-9936305D02*
X4714259Y-9917258D01*
X4714259Y-9917258D02*
X4695212Y-9888686D01*
X4695212Y-9888686D02*
X4685688Y-9879162D01*
X5047593Y-10183924D02*
X5038069Y-10174400D01*
X5038069Y-10174400D02*
X5019021Y-10145829D01*
X5019021Y-10145829D02*
X5009498Y-10126781D01*
X5009498Y-10126781D02*
X4999974Y-10098210D01*
X4999974Y-10098210D02*
X4990450Y-10050591D01*
X4990450Y-10050591D02*
X4990450Y-10012496D01*
X4990450Y-10012496D02*
X4999974Y-9964877D01*
X4999974Y-9964877D02*
X5009498Y-9936305D01*
X5009498Y-9936305D02*
X5019021Y-9917258D01*
X5019021Y-9917258D02*
X5038069Y-9888686D01*
X5038069Y-9888686D02*
X5047593Y-9879162D01*
X5123783Y-9974400D02*
X5123783Y-10107734D01*
X5123783Y-9993448D02*
X5133307Y-9983924D01*
X5133307Y-9983924D02*
X5152355Y-9974400D01*
X5152355Y-9974400D02*
X5180926Y-9974400D01*
X5180926Y-9974400D02*
X5199974Y-9983924D01*
X5199974Y-9983924D02*
X5209498Y-10002972D01*
X5209498Y-10002972D02*
X5209498Y-10107734D01*
X5333307Y-10107734D02*
X5314259Y-10098210D01*
X5314259Y-10098210D02*
X5304736Y-10088686D01*
X5304736Y-10088686D02*
X5295212Y-10069639D01*
X5295212Y-10069639D02*
X5295212Y-10012496D01*
X5295212Y-10012496D02*
X5304736Y-9993448D01*
X5304736Y-9993448D02*
X5314259Y-9983924D01*
X5314259Y-9983924D02*
X5333307Y-9974400D01*
X5333307Y-9974400D02*
X5361879Y-9974400D01*
X5361879Y-9974400D02*
X5380926Y-9983924D01*
X5380926Y-9983924D02*
X5390450Y-9993448D01*
X5390450Y-9993448D02*
X5399974Y-10012496D01*
X5399974Y-10012496D02*
X5399974Y-10069639D01*
X5399974Y-10069639D02*
X5390450Y-10088686D01*
X5390450Y-10088686D02*
X5380926Y-10098210D01*
X5380926Y-10098210D02*
X5361879Y-10107734D01*
X5361879Y-10107734D02*
X5333307Y-10107734D01*
X5457117Y-9974400D02*
X5533307Y-9974400D01*
X5485688Y-9907734D02*
X5485688Y-10079162D01*
X5485688Y-10079162D02*
X5495212Y-10098210D01*
X5495212Y-10098210D02*
X5514259Y-10107734D01*
X5514259Y-10107734D02*
X5533307Y-10107734D01*
X5752355Y-9974400D02*
X5752355Y-10174400D01*
X5752355Y-9983924D02*
X5771402Y-9974400D01*
X5771402Y-9974400D02*
X5809498Y-9974400D01*
X5809498Y-9974400D02*
X5828545Y-9983924D01*
X5828545Y-9983924D02*
X5838069Y-9993448D01*
X5838069Y-9993448D02*
X5847593Y-10012496D01*
X5847593Y-10012496D02*
X5847593Y-10069639D01*
X5847593Y-10069639D02*
X5838069Y-10088686D01*
X5838069Y-10088686D02*
X5828545Y-10098210D01*
X5828545Y-10098210D02*
X5809498Y-10107734D01*
X5809498Y-10107734D02*
X5771402Y-10107734D01*
X5771402Y-10107734D02*
X5752355Y-10098210D01*
X5961878Y-10107734D02*
X5942831Y-10098210D01*
X5942831Y-10098210D02*
X5933307Y-10079162D01*
X5933307Y-10079162D02*
X5933307Y-9907734D01*
X6123783Y-10107734D02*
X6123783Y-10002972D01*
X6123783Y-10002972D02*
X6114259Y-9983924D01*
X6114259Y-9983924D02*
X6095212Y-9974400D01*
X6095212Y-9974400D02*
X6057117Y-9974400D01*
X6057117Y-9974400D02*
X6038069Y-9983924D01*
X6123783Y-10098210D02*
X6104736Y-10107734D01*
X6104736Y-10107734D02*
X6057117Y-10107734D01*
X6057117Y-10107734D02*
X6038069Y-10098210D01*
X6038069Y-10098210D02*
X6028545Y-10079162D01*
X6028545Y-10079162D02*
X6028545Y-10060115D01*
X6028545Y-10060115D02*
X6038069Y-10041067D01*
X6038069Y-10041067D02*
X6057117Y-10031543D01*
X6057117Y-10031543D02*
X6104736Y-10031543D01*
X6104736Y-10031543D02*
X6123783Y-10022020D01*
X6190450Y-9974400D02*
X6266640Y-9974400D01*
X6219021Y-9907734D02*
X6219021Y-10079162D01*
X6219021Y-10079162D02*
X6228545Y-10098210D01*
X6228545Y-10098210D02*
X6247593Y-10107734D01*
X6247593Y-10107734D02*
X6266640Y-10107734D01*
X6409498Y-10098210D02*
X6390450Y-10107734D01*
X6390450Y-10107734D02*
X6352355Y-10107734D01*
X6352355Y-10107734D02*
X6333307Y-10098210D01*
X6333307Y-10098210D02*
X6323783Y-10079162D01*
X6323783Y-10079162D02*
X6323783Y-10002972D01*
X6323783Y-10002972D02*
X6333307Y-9983924D01*
X6333307Y-9983924D02*
X6352355Y-9974400D01*
X6352355Y-9974400D02*
X6390450Y-9974400D01*
X6390450Y-9974400D02*
X6409498Y-9983924D01*
X6409498Y-9983924D02*
X6419021Y-10002972D01*
X6419021Y-10002972D02*
X6419021Y-10022020D01*
X6419021Y-10022020D02*
X6323783Y-10041067D01*
X6590450Y-10107734D02*
X6590450Y-9907734D01*
X6590450Y-10098210D02*
X6571402Y-10107734D01*
X6571402Y-10107734D02*
X6533307Y-10107734D01*
X6533307Y-10107734D02*
X6514259Y-10098210D01*
X6514259Y-10098210D02*
X6504736Y-10088686D01*
X6504736Y-10088686D02*
X6495212Y-10069639D01*
X6495212Y-10069639D02*
X6495212Y-10012496D01*
X6495212Y-10012496D02*
X6504736Y-9993448D01*
X6504736Y-9993448D02*
X6514259Y-9983924D01*
X6514259Y-9983924D02*
X6533307Y-9974400D01*
X6533307Y-9974400D02*
X6571402Y-9974400D01*
X6571402Y-9974400D02*
X6590450Y-9983924D01*
X6666640Y-10183924D02*
X6676164Y-10174400D01*
X6676164Y-10174400D02*
X6695212Y-10145829D01*
X6695212Y-10145829D02*
X6704736Y-10126781D01*
X6704736Y-10126781D02*
X6714259Y-10098210D01*
X6714259Y-10098210D02*
X6723783Y-10050591D01*
X6723783Y-10050591D02*
X6723783Y-10012496D01*
X6723783Y-10012496D02*
X6714259Y-9964877D01*
X6714259Y-9964877D02*
X6704736Y-9936305D01*
X6704736Y-9936305D02*
X6695212Y-9917258D01*
X6695212Y-9917258D02*
X6676164Y-9888686D01*
X6676164Y-9888686D02*
X6666640Y-9879162D01*
D13*
X-89375Y-10280250D02*
G75*
G02*
X-249375Y-10280250I-80000J0D01*
G01*
X-249375Y-10280250D02*
G75*
G02*
X-89375Y-10280250I80000J0D01*
G01*
D10*
X276164Y-10371734D02*
X161878Y-10371734D01*
X219021Y-10371734D02*
X219021Y-10171734D01*
X219021Y-10171734D02*
X199973Y-10200305D01*
X199973Y-10200305D02*
X180926Y-10219353D01*
X180926Y-10219353D02*
X161878Y-10228877D01*
X361878Y-10352686D02*
X371402Y-10362210D01*
X371402Y-10362210D02*
X361878Y-10371734D01*
X361878Y-10371734D02*
X352354Y-10362210D01*
X352354Y-10362210D02*
X361878Y-10352686D01*
X361878Y-10352686D02*
X361878Y-10371734D01*
X542830Y-10171734D02*
X504735Y-10171734D01*
X504735Y-10171734D02*
X485687Y-10181258D01*
X485687Y-10181258D02*
X476164Y-10190781D01*
X476164Y-10190781D02*
X457116Y-10219353D01*
X457116Y-10219353D02*
X447592Y-10257448D01*
X447592Y-10257448D02*
X447592Y-10333639D01*
X447592Y-10333639D02*
X457116Y-10352686D01*
X457116Y-10352686D02*
X466640Y-10362210D01*
X466640Y-10362210D02*
X485687Y-10371734D01*
X485687Y-10371734D02*
X523783Y-10371734D01*
X523783Y-10371734D02*
X542830Y-10362210D01*
X542830Y-10362210D02*
X552354Y-10352686D01*
X552354Y-10352686D02*
X561878Y-10333639D01*
X561878Y-10333639D02*
X561878Y-10286020D01*
X561878Y-10286020D02*
X552354Y-10266972D01*
X552354Y-10266972D02*
X542830Y-10257448D01*
X542830Y-10257448D02*
X523783Y-10247924D01*
X523783Y-10247924D02*
X485687Y-10247924D01*
X485687Y-10247924D02*
X466640Y-10257448D01*
X466640Y-10257448D02*
X457116Y-10266972D01*
X457116Y-10266972D02*
X447592Y-10286020D01*
X685688Y-10171734D02*
X704735Y-10171734D01*
X704735Y-10171734D02*
X723783Y-10181258D01*
X723783Y-10181258D02*
X733307Y-10190781D01*
X733307Y-10190781D02*
X742830Y-10209829D01*
X742830Y-10209829D02*
X752354Y-10247924D01*
X752354Y-10247924D02*
X752354Y-10295543D01*
X752354Y-10295543D02*
X742830Y-10333639D01*
X742830Y-10333639D02*
X733307Y-10352686D01*
X733307Y-10352686D02*
X723783Y-10362210D01*
X723783Y-10362210D02*
X704735Y-10371734D01*
X704735Y-10371734D02*
X685688Y-10371734D01*
X685688Y-10371734D02*
X666640Y-10362210D01*
X666640Y-10362210D02*
X657116Y-10352686D01*
X657116Y-10352686D02*
X647592Y-10333639D01*
X647592Y-10333639D02*
X638069Y-10295543D01*
X638069Y-10295543D02*
X638069Y-10247924D01*
X638069Y-10247924D02*
X647592Y-10209829D01*
X647592Y-10209829D02*
X657116Y-10190781D01*
X657116Y-10190781D02*
X666640Y-10181258D01*
X666640Y-10181258D02*
X685688Y-10171734D01*
X876164Y-10171734D02*
X895211Y-10171734D01*
X895211Y-10171734D02*
X914259Y-10181258D01*
X914259Y-10181258D02*
X923783Y-10190781D01*
X923783Y-10190781D02*
X933307Y-10209829D01*
X933307Y-10209829D02*
X942830Y-10247924D01*
X942830Y-10247924D02*
X942830Y-10295543D01*
X942830Y-10295543D02*
X933307Y-10333639D01*
X933307Y-10333639D02*
X923783Y-10352686D01*
X923783Y-10352686D02*
X914259Y-10362210D01*
X914259Y-10362210D02*
X895211Y-10371734D01*
X895211Y-10371734D02*
X876164Y-10371734D01*
X876164Y-10371734D02*
X857116Y-10362210D01*
X857116Y-10362210D02*
X847592Y-10352686D01*
X847592Y-10352686D02*
X838068Y-10333639D01*
X838068Y-10333639D02*
X828545Y-10295543D01*
X828545Y-10295543D02*
X828545Y-10247924D01*
X828545Y-10247924D02*
X838068Y-10209829D01*
X838068Y-10209829D02*
X847592Y-10190781D01*
X847592Y-10190781D02*
X857116Y-10181258D01*
X857116Y-10181258D02*
X876164Y-10171734D01*
X1028545Y-10371734D02*
X1028545Y-10238400D01*
X1028545Y-10257448D02*
X1038068Y-10247924D01*
X1038068Y-10247924D02*
X1057116Y-10238400D01*
X1057116Y-10238400D02*
X1085688Y-10238400D01*
X1085688Y-10238400D02*
X1104735Y-10247924D01*
X1104735Y-10247924D02*
X1114259Y-10266972D01*
X1114259Y-10266972D02*
X1114259Y-10371734D01*
X1114259Y-10266972D02*
X1123783Y-10247924D01*
X1123783Y-10247924D02*
X1142830Y-10238400D01*
X1142830Y-10238400D02*
X1171402Y-10238400D01*
X1171402Y-10238400D02*
X1190450Y-10247924D01*
X1190450Y-10247924D02*
X1199973Y-10266972D01*
X1199973Y-10266972D02*
X1199973Y-10371734D01*
X1295211Y-10371734D02*
X1295211Y-10238400D01*
X1295211Y-10257448D02*
X1304735Y-10247924D01*
X1304735Y-10247924D02*
X1323783Y-10238400D01*
X1323783Y-10238400D02*
X1352354Y-10238400D01*
X1352354Y-10238400D02*
X1371402Y-10247924D01*
X1371402Y-10247924D02*
X1380926Y-10266972D01*
X1380926Y-10266972D02*
X1380926Y-10371734D01*
X1380926Y-10266972D02*
X1390450Y-10247924D01*
X1390450Y-10247924D02*
X1409497Y-10238400D01*
X1409497Y-10238400D02*
X1438068Y-10238400D01*
X1438068Y-10238400D02*
X1457116Y-10247924D01*
X1457116Y-10247924D02*
X1466640Y-10266972D01*
X1466640Y-10266972D02*
X1466640Y-10371734D01*
X1857116Y-10162210D02*
X1685688Y-10419353D01*
X2114259Y-10171734D02*
X2133307Y-10171734D01*
X2133307Y-10171734D02*
X2152354Y-10181258D01*
X2152354Y-10181258D02*
X2161878Y-10190781D01*
X2161878Y-10190781D02*
X2171402Y-10209829D01*
X2171402Y-10209829D02*
X2180926Y-10247924D01*
X2180926Y-10247924D02*
X2180926Y-10295543D01*
X2180926Y-10295543D02*
X2171402Y-10333639D01*
X2171402Y-10333639D02*
X2161878Y-10352686D01*
X2161878Y-10352686D02*
X2152354Y-10362210D01*
X2152354Y-10362210D02*
X2133307Y-10371734D01*
X2133307Y-10371734D02*
X2114259Y-10371734D01*
X2114259Y-10371734D02*
X2095211Y-10362210D01*
X2095211Y-10362210D02*
X2085688Y-10352686D01*
X2085688Y-10352686D02*
X2076164Y-10333639D01*
X2076164Y-10333639D02*
X2066640Y-10295543D01*
X2066640Y-10295543D02*
X2066640Y-10247924D01*
X2066640Y-10247924D02*
X2076164Y-10209829D01*
X2076164Y-10209829D02*
X2085688Y-10190781D01*
X2085688Y-10190781D02*
X2095211Y-10181258D01*
X2095211Y-10181258D02*
X2114259Y-10171734D01*
X2266640Y-10352686D02*
X2276164Y-10362210D01*
X2276164Y-10362210D02*
X2266640Y-10371734D01*
X2266640Y-10371734D02*
X2257116Y-10362210D01*
X2257116Y-10362210D02*
X2266640Y-10352686D01*
X2266640Y-10352686D02*
X2266640Y-10371734D01*
X2399973Y-10171734D02*
X2419021Y-10171734D01*
X2419021Y-10171734D02*
X2438069Y-10181258D01*
X2438069Y-10181258D02*
X2447593Y-10190781D01*
X2447593Y-10190781D02*
X2457116Y-10209829D01*
X2457116Y-10209829D02*
X2466640Y-10247924D01*
X2466640Y-10247924D02*
X2466640Y-10295543D01*
X2466640Y-10295543D02*
X2457116Y-10333639D01*
X2457116Y-10333639D02*
X2447593Y-10352686D01*
X2447593Y-10352686D02*
X2438069Y-10362210D01*
X2438069Y-10362210D02*
X2419021Y-10371734D01*
X2419021Y-10371734D02*
X2399973Y-10371734D01*
X2399973Y-10371734D02*
X2380926Y-10362210D01*
X2380926Y-10362210D02*
X2371402Y-10352686D01*
X2371402Y-10352686D02*
X2361878Y-10333639D01*
X2361878Y-10333639D02*
X2352354Y-10295543D01*
X2352354Y-10295543D02*
X2352354Y-10247924D01*
X2352354Y-10247924D02*
X2361878Y-10209829D01*
X2361878Y-10209829D02*
X2371402Y-10190781D01*
X2371402Y-10190781D02*
X2380926Y-10181258D01*
X2380926Y-10181258D02*
X2399973Y-10171734D01*
X2638069Y-10171734D02*
X2599973Y-10171734D01*
X2599973Y-10171734D02*
X2580926Y-10181258D01*
X2580926Y-10181258D02*
X2571402Y-10190781D01*
X2571402Y-10190781D02*
X2552354Y-10219353D01*
X2552354Y-10219353D02*
X2542831Y-10257448D01*
X2542831Y-10257448D02*
X2542831Y-10333639D01*
X2542831Y-10333639D02*
X2552354Y-10352686D01*
X2552354Y-10352686D02*
X2561878Y-10362210D01*
X2561878Y-10362210D02*
X2580926Y-10371734D01*
X2580926Y-10371734D02*
X2619021Y-10371734D01*
X2619021Y-10371734D02*
X2638069Y-10362210D01*
X2638069Y-10362210D02*
X2647593Y-10352686D01*
X2647593Y-10352686D02*
X2657116Y-10333639D01*
X2657116Y-10333639D02*
X2657116Y-10286020D01*
X2657116Y-10286020D02*
X2647593Y-10266972D01*
X2647593Y-10266972D02*
X2638069Y-10257448D01*
X2638069Y-10257448D02*
X2619021Y-10247924D01*
X2619021Y-10247924D02*
X2580926Y-10247924D01*
X2580926Y-10247924D02*
X2561878Y-10257448D01*
X2561878Y-10257448D02*
X2552354Y-10266972D01*
X2552354Y-10266972D02*
X2542831Y-10286020D01*
X2723783Y-10171734D02*
X2847592Y-10171734D01*
X2847592Y-10171734D02*
X2780926Y-10247924D01*
X2780926Y-10247924D02*
X2809497Y-10247924D01*
X2809497Y-10247924D02*
X2828545Y-10257448D01*
X2828545Y-10257448D02*
X2838069Y-10266972D01*
X2838069Y-10266972D02*
X2847592Y-10286020D01*
X2847592Y-10286020D02*
X2847592Y-10333639D01*
X2847592Y-10333639D02*
X2838069Y-10352686D01*
X2838069Y-10352686D02*
X2828545Y-10362210D01*
X2828545Y-10362210D02*
X2809497Y-10371734D01*
X2809497Y-10371734D02*
X2752354Y-10371734D01*
X2752354Y-10371734D02*
X2733307Y-10362210D01*
X2733307Y-10362210D02*
X2723783Y-10352686D01*
X2971402Y-10171734D02*
X2990450Y-10171734D01*
X2990450Y-10171734D02*
X3009497Y-10181258D01*
X3009497Y-10181258D02*
X3019021Y-10190781D01*
X3019021Y-10190781D02*
X3028545Y-10209829D01*
X3028545Y-10209829D02*
X3038069Y-10247924D01*
X3038069Y-10247924D02*
X3038069Y-10295543D01*
X3038069Y-10295543D02*
X3028545Y-10333639D01*
X3028545Y-10333639D02*
X3019021Y-10352686D01*
X3019021Y-10352686D02*
X3009497Y-10362210D01*
X3009497Y-10362210D02*
X2990450Y-10371734D01*
X2990450Y-10371734D02*
X2971402Y-10371734D01*
X2971402Y-10371734D02*
X2952354Y-10362210D01*
X2952354Y-10362210D02*
X2942831Y-10352686D01*
X2942831Y-10352686D02*
X2933307Y-10333639D01*
X2933307Y-10333639D02*
X2923783Y-10295543D01*
X2923783Y-10295543D02*
X2923783Y-10247924D01*
X2923783Y-10247924D02*
X2933307Y-10209829D01*
X2933307Y-10209829D02*
X2942831Y-10190781D01*
X2942831Y-10190781D02*
X2952354Y-10181258D01*
X2952354Y-10181258D02*
X2971402Y-10171734D01*
X3114259Y-10171734D02*
X3114259Y-10209829D01*
X3190450Y-10171734D02*
X3190450Y-10209829D01*
X3485688Y-10447924D02*
X3476164Y-10438400D01*
X3476164Y-10438400D02*
X3457116Y-10409829D01*
X3457116Y-10409829D02*
X3447593Y-10390781D01*
X3447593Y-10390781D02*
X3438069Y-10362210D01*
X3438069Y-10362210D02*
X3428545Y-10314591D01*
X3428545Y-10314591D02*
X3428545Y-10276496D01*
X3428545Y-10276496D02*
X3438069Y-10228877D01*
X3438069Y-10228877D02*
X3447593Y-10200305D01*
X3447593Y-10200305D02*
X3457116Y-10181258D01*
X3457116Y-10181258D02*
X3476164Y-10152686D01*
X3476164Y-10152686D02*
X3485688Y-10143162D01*
X3647593Y-10171734D02*
X3609497Y-10171734D01*
X3609497Y-10171734D02*
X3590450Y-10181258D01*
X3590450Y-10181258D02*
X3580926Y-10190781D01*
X3580926Y-10190781D02*
X3561878Y-10219353D01*
X3561878Y-10219353D02*
X3552354Y-10257448D01*
X3552354Y-10257448D02*
X3552354Y-10333639D01*
X3552354Y-10333639D02*
X3561878Y-10352686D01*
X3561878Y-10352686D02*
X3571402Y-10362210D01*
X3571402Y-10362210D02*
X3590450Y-10371734D01*
X3590450Y-10371734D02*
X3628545Y-10371734D01*
X3628545Y-10371734D02*
X3647593Y-10362210D01*
X3647593Y-10362210D02*
X3657116Y-10352686D01*
X3657116Y-10352686D02*
X3666640Y-10333639D01*
X3666640Y-10333639D02*
X3666640Y-10286020D01*
X3666640Y-10286020D02*
X3657116Y-10266972D01*
X3657116Y-10266972D02*
X3647593Y-10257448D01*
X3647593Y-10257448D02*
X3628545Y-10247924D01*
X3628545Y-10247924D02*
X3590450Y-10247924D01*
X3590450Y-10247924D02*
X3571402Y-10257448D01*
X3571402Y-10257448D02*
X3561878Y-10266972D01*
X3561878Y-10266972D02*
X3552354Y-10286020D01*
X3742831Y-10190781D02*
X3752354Y-10181258D01*
X3752354Y-10181258D02*
X3771402Y-10171734D01*
X3771402Y-10171734D02*
X3819021Y-10171734D01*
X3819021Y-10171734D02*
X3838069Y-10181258D01*
X3838069Y-10181258D02*
X3847593Y-10190781D01*
X3847593Y-10190781D02*
X3857116Y-10209829D01*
X3857116Y-10209829D02*
X3857116Y-10228877D01*
X3857116Y-10228877D02*
X3847593Y-10257448D01*
X3847593Y-10257448D02*
X3733307Y-10371734D01*
X3733307Y-10371734D02*
X3857116Y-10371734D01*
X4095212Y-10371734D02*
X4095212Y-10171734D01*
X4180926Y-10371734D02*
X4180926Y-10266972D01*
X4180926Y-10266972D02*
X4171402Y-10247924D01*
X4171402Y-10247924D02*
X4152355Y-10238400D01*
X4152355Y-10238400D02*
X4123783Y-10238400D01*
X4123783Y-10238400D02*
X4104735Y-10247924D01*
X4104735Y-10247924D02*
X4095212Y-10257448D01*
X4304736Y-10371734D02*
X4285688Y-10362210D01*
X4285688Y-10362210D02*
X4276164Y-10352686D01*
X4276164Y-10352686D02*
X4266640Y-10333639D01*
X4266640Y-10333639D02*
X4266640Y-10276496D01*
X4266640Y-10276496D02*
X4276164Y-10257448D01*
X4276164Y-10257448D02*
X4285688Y-10247924D01*
X4285688Y-10247924D02*
X4304736Y-10238400D01*
X4304736Y-10238400D02*
X4333307Y-10238400D01*
X4333307Y-10238400D02*
X4352355Y-10247924D01*
X4352355Y-10247924D02*
X4361878Y-10257448D01*
X4361878Y-10257448D02*
X4371402Y-10276496D01*
X4371402Y-10276496D02*
X4371402Y-10333639D01*
X4371402Y-10333639D02*
X4361878Y-10352686D01*
X4361878Y-10352686D02*
X4352355Y-10362210D01*
X4352355Y-10362210D02*
X4333307Y-10371734D01*
X4333307Y-10371734D02*
X4304736Y-10371734D01*
X4485688Y-10371734D02*
X4466640Y-10362210D01*
X4466640Y-10362210D02*
X4457117Y-10343162D01*
X4457117Y-10343162D02*
X4457117Y-10171734D01*
X4638069Y-10362210D02*
X4619021Y-10371734D01*
X4619021Y-10371734D02*
X4580926Y-10371734D01*
X4580926Y-10371734D02*
X4561878Y-10362210D01*
X4561878Y-10362210D02*
X4552355Y-10343162D01*
X4552355Y-10343162D02*
X4552355Y-10266972D01*
X4552355Y-10266972D02*
X4561878Y-10247924D01*
X4561878Y-10247924D02*
X4580926Y-10238400D01*
X4580926Y-10238400D02*
X4619021Y-10238400D01*
X4619021Y-10238400D02*
X4638069Y-10247924D01*
X4638069Y-10247924D02*
X4647593Y-10266972D01*
X4647593Y-10266972D02*
X4647593Y-10286020D01*
X4647593Y-10286020D02*
X4552355Y-10305067D01*
X4723783Y-10362210D02*
X4742831Y-10371734D01*
X4742831Y-10371734D02*
X4780926Y-10371734D01*
X4780926Y-10371734D02*
X4799974Y-10362210D01*
X4799974Y-10362210D02*
X4809498Y-10343162D01*
X4809498Y-10343162D02*
X4809498Y-10333639D01*
X4809498Y-10333639D02*
X4799974Y-10314591D01*
X4799974Y-10314591D02*
X4780926Y-10305067D01*
X4780926Y-10305067D02*
X4752355Y-10305067D01*
X4752355Y-10305067D02*
X4733307Y-10295543D01*
X4733307Y-10295543D02*
X4723783Y-10276496D01*
X4723783Y-10276496D02*
X4723783Y-10266972D01*
X4723783Y-10266972D02*
X4733307Y-10247924D01*
X4733307Y-10247924D02*
X4752355Y-10238400D01*
X4752355Y-10238400D02*
X4780926Y-10238400D01*
X4780926Y-10238400D02*
X4799974Y-10247924D01*
X4876164Y-10447924D02*
X4885688Y-10438400D01*
X4885688Y-10438400D02*
X4904736Y-10409829D01*
X4904736Y-10409829D02*
X4914259Y-10390781D01*
X4914259Y-10390781D02*
X4923783Y-10362210D01*
X4923783Y-10362210D02*
X4933307Y-10314591D01*
X4933307Y-10314591D02*
X4933307Y-10276496D01*
X4933307Y-10276496D02*
X4923783Y-10228877D01*
X4923783Y-10228877D02*
X4914259Y-10200305D01*
X4914259Y-10200305D02*
X4904736Y-10181258D01*
X4904736Y-10181258D02*
X4885688Y-10152686D01*
X4885688Y-10152686D02*
X4876164Y-10143162D01*
X5238069Y-10447924D02*
X5228545Y-10438400D01*
X5228545Y-10438400D02*
X5209498Y-10409829D01*
X5209498Y-10409829D02*
X5199974Y-10390781D01*
X5199974Y-10390781D02*
X5190450Y-10362210D01*
X5190450Y-10362210D02*
X5180926Y-10314591D01*
X5180926Y-10314591D02*
X5180926Y-10276496D01*
X5180926Y-10276496D02*
X5190450Y-10228877D01*
X5190450Y-10228877D02*
X5199974Y-10200305D01*
X5199974Y-10200305D02*
X5209498Y-10181258D01*
X5209498Y-10181258D02*
X5228545Y-10152686D01*
X5228545Y-10152686D02*
X5238069Y-10143162D01*
X5314259Y-10238400D02*
X5314259Y-10371734D01*
X5314259Y-10257448D02*
X5323783Y-10247924D01*
X5323783Y-10247924D02*
X5342831Y-10238400D01*
X5342831Y-10238400D02*
X5371402Y-10238400D01*
X5371402Y-10238400D02*
X5390450Y-10247924D01*
X5390450Y-10247924D02*
X5399974Y-10266972D01*
X5399974Y-10266972D02*
X5399974Y-10371734D01*
X5523783Y-10371734D02*
X5504736Y-10362210D01*
X5504736Y-10362210D02*
X5495212Y-10352686D01*
X5495212Y-10352686D02*
X5485688Y-10333639D01*
X5485688Y-10333639D02*
X5485688Y-10276496D01*
X5485688Y-10276496D02*
X5495212Y-10257448D01*
X5495212Y-10257448D02*
X5504736Y-10247924D01*
X5504736Y-10247924D02*
X5523783Y-10238400D01*
X5523783Y-10238400D02*
X5552355Y-10238400D01*
X5552355Y-10238400D02*
X5571402Y-10247924D01*
X5571402Y-10247924D02*
X5580926Y-10257448D01*
X5580926Y-10257448D02*
X5590450Y-10276496D01*
X5590450Y-10276496D02*
X5590450Y-10333639D01*
X5590450Y-10333639D02*
X5580926Y-10352686D01*
X5580926Y-10352686D02*
X5571402Y-10362210D01*
X5571402Y-10362210D02*
X5552355Y-10371734D01*
X5552355Y-10371734D02*
X5523783Y-10371734D01*
X5647593Y-10238400D02*
X5723783Y-10238400D01*
X5676164Y-10171734D02*
X5676164Y-10343162D01*
X5676164Y-10343162D02*
X5685688Y-10362210D01*
X5685688Y-10362210D02*
X5704736Y-10371734D01*
X5704736Y-10371734D02*
X5723783Y-10371734D01*
X5942831Y-10238400D02*
X5942831Y-10438400D01*
X5942831Y-10247924D02*
X5961878Y-10238400D01*
X5961878Y-10238400D02*
X5999974Y-10238400D01*
X5999974Y-10238400D02*
X6019021Y-10247924D01*
X6019021Y-10247924D02*
X6028545Y-10257448D01*
X6028545Y-10257448D02*
X6038069Y-10276496D01*
X6038069Y-10276496D02*
X6038069Y-10333639D01*
X6038069Y-10333639D02*
X6028545Y-10352686D01*
X6028545Y-10352686D02*
X6019021Y-10362210D01*
X6019021Y-10362210D02*
X5999974Y-10371734D01*
X5999974Y-10371734D02*
X5961878Y-10371734D01*
X5961878Y-10371734D02*
X5942831Y-10362210D01*
X6152355Y-10371734D02*
X6133307Y-10362210D01*
X6133307Y-10362210D02*
X6123783Y-10343162D01*
X6123783Y-10343162D02*
X6123783Y-10171734D01*
X6314259Y-10371734D02*
X6314259Y-10266972D01*
X6314259Y-10266972D02*
X6304736Y-10247924D01*
X6304736Y-10247924D02*
X6285688Y-10238400D01*
X6285688Y-10238400D02*
X6247593Y-10238400D01*
X6247593Y-10238400D02*
X6228545Y-10247924D01*
X6314259Y-10362210D02*
X6295212Y-10371734D01*
X6295212Y-10371734D02*
X6247593Y-10371734D01*
X6247593Y-10371734D02*
X6228545Y-10362210D01*
X6228545Y-10362210D02*
X6219021Y-10343162D01*
X6219021Y-10343162D02*
X6219021Y-10324115D01*
X6219021Y-10324115D02*
X6228545Y-10305067D01*
X6228545Y-10305067D02*
X6247593Y-10295543D01*
X6247593Y-10295543D02*
X6295212Y-10295543D01*
X6295212Y-10295543D02*
X6314259Y-10286020D01*
X6380926Y-10238400D02*
X6457117Y-10238400D01*
X6409498Y-10171734D02*
X6409498Y-10343162D01*
X6409498Y-10343162D02*
X6419021Y-10362210D01*
X6419021Y-10362210D02*
X6438069Y-10371734D01*
X6438069Y-10371734D02*
X6457117Y-10371734D01*
X6599974Y-10362210D02*
X6580926Y-10371734D01*
X6580926Y-10371734D02*
X6542831Y-10371734D01*
X6542831Y-10371734D02*
X6523783Y-10362210D01*
X6523783Y-10362210D02*
X6514259Y-10343162D01*
X6514259Y-10343162D02*
X6514259Y-10266972D01*
X6514259Y-10266972D02*
X6523783Y-10247924D01*
X6523783Y-10247924D02*
X6542831Y-10238400D01*
X6542831Y-10238400D02*
X6580926Y-10238400D01*
X6580926Y-10238400D02*
X6599974Y-10247924D01*
X6599974Y-10247924D02*
X6609498Y-10266972D01*
X6609498Y-10266972D02*
X6609498Y-10286020D01*
X6609498Y-10286020D02*
X6514259Y-10305067D01*
X6780926Y-10371734D02*
X6780926Y-10171734D01*
X6780926Y-10362210D02*
X6761879Y-10371734D01*
X6761879Y-10371734D02*
X6723783Y-10371734D01*
X6723783Y-10371734D02*
X6704736Y-10362210D01*
X6704736Y-10362210D02*
X6695212Y-10352686D01*
X6695212Y-10352686D02*
X6685688Y-10333639D01*
X6685688Y-10333639D02*
X6685688Y-10276496D01*
X6685688Y-10276496D02*
X6695212Y-10257448D01*
X6695212Y-10257448D02*
X6704736Y-10247924D01*
X6704736Y-10247924D02*
X6723783Y-10238400D01*
X6723783Y-10238400D02*
X6761879Y-10238400D01*
X6761879Y-10238400D02*
X6780926Y-10247924D01*
X6857117Y-10447924D02*
X6866640Y-10438400D01*
X6866640Y-10438400D02*
X6885688Y-10409829D01*
X6885688Y-10409829D02*
X6895212Y-10390781D01*
X6895212Y-10390781D02*
X6904736Y-10362210D01*
X6904736Y-10362210D02*
X6914259Y-10314591D01*
X6914259Y-10314591D02*
X6914259Y-10276496D01*
X6914259Y-10276496D02*
X6904736Y-10228877D01*
X6904736Y-10228877D02*
X6895212Y-10200305D01*
X6895212Y-10200305D02*
X6885688Y-10181258D01*
X6885688Y-10181258D02*
X6866640Y-10152686D01*
X6866640Y-10152686D02*
X6857117Y-10143162D01*
D14*
X-184375Y-10465250D02*
X-184375Y-10655250D01*
X-279375Y-10560250D02*
X-89375Y-10560250D01*
D10*
X276164Y-10651734D02*
X161878Y-10651734D01*
X219021Y-10651734D02*
X219021Y-10451734D01*
X219021Y-10451734D02*
X199973Y-10480305D01*
X199973Y-10480305D02*
X180926Y-10499353D01*
X180926Y-10499353D02*
X161878Y-10508877D01*
X361878Y-10632686D02*
X371402Y-10642210D01*
X371402Y-10642210D02*
X361878Y-10651734D01*
X361878Y-10651734D02*
X352354Y-10642210D01*
X352354Y-10642210D02*
X361878Y-10632686D01*
X361878Y-10632686D02*
X361878Y-10651734D01*
X466640Y-10651734D02*
X504735Y-10651734D01*
X504735Y-10651734D02*
X523783Y-10642210D01*
X523783Y-10642210D02*
X533307Y-10632686D01*
X533307Y-10632686D02*
X552354Y-10604115D01*
X552354Y-10604115D02*
X561878Y-10566020D01*
X561878Y-10566020D02*
X561878Y-10489829D01*
X561878Y-10489829D02*
X552354Y-10470781D01*
X552354Y-10470781D02*
X542830Y-10461258D01*
X542830Y-10461258D02*
X523783Y-10451734D01*
X523783Y-10451734D02*
X485687Y-10451734D01*
X485687Y-10451734D02*
X466640Y-10461258D01*
X466640Y-10461258D02*
X457116Y-10470781D01*
X457116Y-10470781D02*
X447592Y-10489829D01*
X447592Y-10489829D02*
X447592Y-10537448D01*
X447592Y-10537448D02*
X457116Y-10556496D01*
X457116Y-10556496D02*
X466640Y-10566020D01*
X466640Y-10566020D02*
X485687Y-10575543D01*
X485687Y-10575543D02*
X523783Y-10575543D01*
X523783Y-10575543D02*
X542830Y-10566020D01*
X542830Y-10566020D02*
X552354Y-10556496D01*
X552354Y-10556496D02*
X561878Y-10537448D01*
X685688Y-10451734D02*
X704735Y-10451734D01*
X704735Y-10451734D02*
X723783Y-10461258D01*
X723783Y-10461258D02*
X733307Y-10470781D01*
X733307Y-10470781D02*
X742830Y-10489829D01*
X742830Y-10489829D02*
X752354Y-10527924D01*
X752354Y-10527924D02*
X752354Y-10575543D01*
X752354Y-10575543D02*
X742830Y-10613639D01*
X742830Y-10613639D02*
X733307Y-10632686D01*
X733307Y-10632686D02*
X723783Y-10642210D01*
X723783Y-10642210D02*
X704735Y-10651734D01*
X704735Y-10651734D02*
X685688Y-10651734D01*
X685688Y-10651734D02*
X666640Y-10642210D01*
X666640Y-10642210D02*
X657116Y-10632686D01*
X657116Y-10632686D02*
X647592Y-10613639D01*
X647592Y-10613639D02*
X638069Y-10575543D01*
X638069Y-10575543D02*
X638069Y-10527924D01*
X638069Y-10527924D02*
X647592Y-10489829D01*
X647592Y-10489829D02*
X657116Y-10470781D01*
X657116Y-10470781D02*
X666640Y-10461258D01*
X666640Y-10461258D02*
X685688Y-10451734D01*
X876164Y-10451734D02*
X895211Y-10451734D01*
X895211Y-10451734D02*
X914259Y-10461258D01*
X914259Y-10461258D02*
X923783Y-10470781D01*
X923783Y-10470781D02*
X933307Y-10489829D01*
X933307Y-10489829D02*
X942830Y-10527924D01*
X942830Y-10527924D02*
X942830Y-10575543D01*
X942830Y-10575543D02*
X933307Y-10613639D01*
X933307Y-10613639D02*
X923783Y-10632686D01*
X923783Y-10632686D02*
X914259Y-10642210D01*
X914259Y-10642210D02*
X895211Y-10651734D01*
X895211Y-10651734D02*
X876164Y-10651734D01*
X876164Y-10651734D02*
X857116Y-10642210D01*
X857116Y-10642210D02*
X847592Y-10632686D01*
X847592Y-10632686D02*
X838068Y-10613639D01*
X838068Y-10613639D02*
X828545Y-10575543D01*
X828545Y-10575543D02*
X828545Y-10527924D01*
X828545Y-10527924D02*
X838068Y-10489829D01*
X838068Y-10489829D02*
X847592Y-10470781D01*
X847592Y-10470781D02*
X857116Y-10461258D01*
X857116Y-10461258D02*
X876164Y-10451734D01*
X1028545Y-10651734D02*
X1028545Y-10518400D01*
X1028545Y-10537448D02*
X1038068Y-10527924D01*
X1038068Y-10527924D02*
X1057116Y-10518400D01*
X1057116Y-10518400D02*
X1085688Y-10518400D01*
X1085688Y-10518400D02*
X1104735Y-10527924D01*
X1104735Y-10527924D02*
X1114259Y-10546972D01*
X1114259Y-10546972D02*
X1114259Y-10651734D01*
X1114259Y-10546972D02*
X1123783Y-10527924D01*
X1123783Y-10527924D02*
X1142830Y-10518400D01*
X1142830Y-10518400D02*
X1171402Y-10518400D01*
X1171402Y-10518400D02*
X1190450Y-10527924D01*
X1190450Y-10527924D02*
X1199973Y-10546972D01*
X1199973Y-10546972D02*
X1199973Y-10651734D01*
X1295211Y-10651734D02*
X1295211Y-10518400D01*
X1295211Y-10537448D02*
X1304735Y-10527924D01*
X1304735Y-10527924D02*
X1323783Y-10518400D01*
X1323783Y-10518400D02*
X1352354Y-10518400D01*
X1352354Y-10518400D02*
X1371402Y-10527924D01*
X1371402Y-10527924D02*
X1380926Y-10546972D01*
X1380926Y-10546972D02*
X1380926Y-10651734D01*
X1380926Y-10546972D02*
X1390450Y-10527924D01*
X1390450Y-10527924D02*
X1409497Y-10518400D01*
X1409497Y-10518400D02*
X1438068Y-10518400D01*
X1438068Y-10518400D02*
X1457116Y-10527924D01*
X1457116Y-10527924D02*
X1466640Y-10546972D01*
X1466640Y-10546972D02*
X1466640Y-10651734D01*
X1857116Y-10442210D02*
X1685688Y-10699353D01*
X2114259Y-10451734D02*
X2133307Y-10451734D01*
X2133307Y-10451734D02*
X2152354Y-10461258D01*
X2152354Y-10461258D02*
X2161878Y-10470781D01*
X2161878Y-10470781D02*
X2171402Y-10489829D01*
X2171402Y-10489829D02*
X2180926Y-10527924D01*
X2180926Y-10527924D02*
X2180926Y-10575543D01*
X2180926Y-10575543D02*
X2171402Y-10613639D01*
X2171402Y-10613639D02*
X2161878Y-10632686D01*
X2161878Y-10632686D02*
X2152354Y-10642210D01*
X2152354Y-10642210D02*
X2133307Y-10651734D01*
X2133307Y-10651734D02*
X2114259Y-10651734D01*
X2114259Y-10651734D02*
X2095211Y-10642210D01*
X2095211Y-10642210D02*
X2085688Y-10632686D01*
X2085688Y-10632686D02*
X2076164Y-10613639D01*
X2076164Y-10613639D02*
X2066640Y-10575543D01*
X2066640Y-10575543D02*
X2066640Y-10527924D01*
X2066640Y-10527924D02*
X2076164Y-10489829D01*
X2076164Y-10489829D02*
X2085688Y-10470781D01*
X2085688Y-10470781D02*
X2095211Y-10461258D01*
X2095211Y-10461258D02*
X2114259Y-10451734D01*
X2266640Y-10632686D02*
X2276164Y-10642210D01*
X2276164Y-10642210D02*
X2266640Y-10651734D01*
X2266640Y-10651734D02*
X2257116Y-10642210D01*
X2257116Y-10642210D02*
X2266640Y-10632686D01*
X2266640Y-10632686D02*
X2266640Y-10651734D01*
X2399973Y-10451734D02*
X2419021Y-10451734D01*
X2419021Y-10451734D02*
X2438069Y-10461258D01*
X2438069Y-10461258D02*
X2447593Y-10470781D01*
X2447593Y-10470781D02*
X2457116Y-10489829D01*
X2457116Y-10489829D02*
X2466640Y-10527924D01*
X2466640Y-10527924D02*
X2466640Y-10575543D01*
X2466640Y-10575543D02*
X2457116Y-10613639D01*
X2457116Y-10613639D02*
X2447593Y-10632686D01*
X2447593Y-10632686D02*
X2438069Y-10642210D01*
X2438069Y-10642210D02*
X2419021Y-10651734D01*
X2419021Y-10651734D02*
X2399973Y-10651734D01*
X2399973Y-10651734D02*
X2380926Y-10642210D01*
X2380926Y-10642210D02*
X2371402Y-10632686D01*
X2371402Y-10632686D02*
X2361878Y-10613639D01*
X2361878Y-10613639D02*
X2352354Y-10575543D01*
X2352354Y-10575543D02*
X2352354Y-10527924D01*
X2352354Y-10527924D02*
X2361878Y-10489829D01*
X2361878Y-10489829D02*
X2371402Y-10470781D01*
X2371402Y-10470781D02*
X2380926Y-10461258D01*
X2380926Y-10461258D02*
X2399973Y-10451734D01*
X2533307Y-10451734D02*
X2666640Y-10451734D01*
X2666640Y-10451734D02*
X2580926Y-10651734D01*
X2828545Y-10518400D02*
X2828545Y-10651734D01*
X2780926Y-10442210D02*
X2733307Y-10585067D01*
X2733307Y-10585067D02*
X2857116Y-10585067D01*
X2961878Y-10537448D02*
X2942831Y-10527924D01*
X2942831Y-10527924D02*
X2933307Y-10518400D01*
X2933307Y-10518400D02*
X2923783Y-10499353D01*
X2923783Y-10499353D02*
X2923783Y-10489829D01*
X2923783Y-10489829D02*
X2933307Y-10470781D01*
X2933307Y-10470781D02*
X2942831Y-10461258D01*
X2942831Y-10461258D02*
X2961878Y-10451734D01*
X2961878Y-10451734D02*
X2999973Y-10451734D01*
X2999973Y-10451734D02*
X3019021Y-10461258D01*
X3019021Y-10461258D02*
X3028545Y-10470781D01*
X3028545Y-10470781D02*
X3038069Y-10489829D01*
X3038069Y-10489829D02*
X3038069Y-10499353D01*
X3038069Y-10499353D02*
X3028545Y-10518400D01*
X3028545Y-10518400D02*
X3019021Y-10527924D01*
X3019021Y-10527924D02*
X2999973Y-10537448D01*
X2999973Y-10537448D02*
X2961878Y-10537448D01*
X2961878Y-10537448D02*
X2942831Y-10546972D01*
X2942831Y-10546972D02*
X2933307Y-10556496D01*
X2933307Y-10556496D02*
X2923783Y-10575543D01*
X2923783Y-10575543D02*
X2923783Y-10613639D01*
X2923783Y-10613639D02*
X2933307Y-10632686D01*
X2933307Y-10632686D02*
X2942831Y-10642210D01*
X2942831Y-10642210D02*
X2961878Y-10651734D01*
X2961878Y-10651734D02*
X2999973Y-10651734D01*
X2999973Y-10651734D02*
X3019021Y-10642210D01*
X3019021Y-10642210D02*
X3028545Y-10632686D01*
X3028545Y-10632686D02*
X3038069Y-10613639D01*
X3038069Y-10613639D02*
X3038069Y-10575543D01*
X3038069Y-10575543D02*
X3028545Y-10556496D01*
X3028545Y-10556496D02*
X3019021Y-10546972D01*
X3019021Y-10546972D02*
X2999973Y-10537448D01*
X3114259Y-10451734D02*
X3114259Y-10489829D01*
X3190450Y-10451734D02*
X3190450Y-10489829D01*
X3485688Y-10727924D02*
X3476164Y-10718400D01*
X3476164Y-10718400D02*
X3457116Y-10689829D01*
X3457116Y-10689829D02*
X3447593Y-10670781D01*
X3447593Y-10670781D02*
X3438069Y-10642210D01*
X3438069Y-10642210D02*
X3428545Y-10594591D01*
X3428545Y-10594591D02*
X3428545Y-10556496D01*
X3428545Y-10556496D02*
X3438069Y-10508877D01*
X3438069Y-10508877D02*
X3447593Y-10480305D01*
X3447593Y-10480305D02*
X3457116Y-10461258D01*
X3457116Y-10461258D02*
X3476164Y-10432686D01*
X3476164Y-10432686D02*
X3485688Y-10423162D01*
X3666640Y-10651734D02*
X3552354Y-10651734D01*
X3609497Y-10651734D02*
X3609497Y-10451734D01*
X3609497Y-10451734D02*
X3590450Y-10480305D01*
X3590450Y-10480305D02*
X3571402Y-10499353D01*
X3571402Y-10499353D02*
X3552354Y-10508877D01*
X3742831Y-10470781D02*
X3752354Y-10461258D01*
X3752354Y-10461258D02*
X3771402Y-10451734D01*
X3771402Y-10451734D02*
X3819021Y-10451734D01*
X3819021Y-10451734D02*
X3838069Y-10461258D01*
X3838069Y-10461258D02*
X3847593Y-10470781D01*
X3847593Y-10470781D02*
X3857116Y-10489829D01*
X3857116Y-10489829D02*
X3857116Y-10508877D01*
X3857116Y-10508877D02*
X3847593Y-10537448D01*
X3847593Y-10537448D02*
X3733307Y-10651734D01*
X3733307Y-10651734D02*
X3857116Y-10651734D01*
X4028545Y-10518400D02*
X4028545Y-10651734D01*
X3980926Y-10442210D02*
X3933307Y-10585067D01*
X3933307Y-10585067D02*
X4057116Y-10585067D01*
X4285688Y-10651734D02*
X4285688Y-10451734D01*
X4371402Y-10651734D02*
X4371402Y-10546972D01*
X4371402Y-10546972D02*
X4361878Y-10527924D01*
X4361878Y-10527924D02*
X4342831Y-10518400D01*
X4342831Y-10518400D02*
X4314259Y-10518400D01*
X4314259Y-10518400D02*
X4295212Y-10527924D01*
X4295212Y-10527924D02*
X4285688Y-10537448D01*
X4495212Y-10651734D02*
X4476164Y-10642210D01*
X4476164Y-10642210D02*
X4466640Y-10632686D01*
X4466640Y-10632686D02*
X4457117Y-10613639D01*
X4457117Y-10613639D02*
X4457117Y-10556496D01*
X4457117Y-10556496D02*
X4466640Y-10537448D01*
X4466640Y-10537448D02*
X4476164Y-10527924D01*
X4476164Y-10527924D02*
X4495212Y-10518400D01*
X4495212Y-10518400D02*
X4523783Y-10518400D01*
X4523783Y-10518400D02*
X4542831Y-10527924D01*
X4542831Y-10527924D02*
X4552355Y-10537448D01*
X4552355Y-10537448D02*
X4561878Y-10556496D01*
X4561878Y-10556496D02*
X4561878Y-10613639D01*
X4561878Y-10613639D02*
X4552355Y-10632686D01*
X4552355Y-10632686D02*
X4542831Y-10642210D01*
X4542831Y-10642210D02*
X4523783Y-10651734D01*
X4523783Y-10651734D02*
X4495212Y-10651734D01*
X4676164Y-10651734D02*
X4657117Y-10642210D01*
X4657117Y-10642210D02*
X4647593Y-10623162D01*
X4647593Y-10623162D02*
X4647593Y-10451734D01*
X4828545Y-10642210D02*
X4809498Y-10651734D01*
X4809498Y-10651734D02*
X4771402Y-10651734D01*
X4771402Y-10651734D02*
X4752355Y-10642210D01*
X4752355Y-10642210D02*
X4742831Y-10623162D01*
X4742831Y-10623162D02*
X4742831Y-10546972D01*
X4742831Y-10546972D02*
X4752355Y-10527924D01*
X4752355Y-10527924D02*
X4771402Y-10518400D01*
X4771402Y-10518400D02*
X4809498Y-10518400D01*
X4809498Y-10518400D02*
X4828545Y-10527924D01*
X4828545Y-10527924D02*
X4838069Y-10546972D01*
X4838069Y-10546972D02*
X4838069Y-10566020D01*
X4838069Y-10566020D02*
X4742831Y-10585067D01*
X4914259Y-10642210D02*
X4933307Y-10651734D01*
X4933307Y-10651734D02*
X4971402Y-10651734D01*
X4971402Y-10651734D02*
X4990450Y-10642210D01*
X4990450Y-10642210D02*
X4999974Y-10623162D01*
X4999974Y-10623162D02*
X4999974Y-10613639D01*
X4999974Y-10613639D02*
X4990450Y-10594591D01*
X4990450Y-10594591D02*
X4971402Y-10585067D01*
X4971402Y-10585067D02*
X4942831Y-10585067D01*
X4942831Y-10585067D02*
X4923783Y-10575543D01*
X4923783Y-10575543D02*
X4914259Y-10556496D01*
X4914259Y-10556496D02*
X4914259Y-10546972D01*
X4914259Y-10546972D02*
X4923783Y-10527924D01*
X4923783Y-10527924D02*
X4942831Y-10518400D01*
X4942831Y-10518400D02*
X4971402Y-10518400D01*
X4971402Y-10518400D02*
X4990450Y-10527924D01*
X5066640Y-10727924D02*
X5076164Y-10718400D01*
X5076164Y-10718400D02*
X5095212Y-10689829D01*
X5095212Y-10689829D02*
X5104736Y-10670781D01*
X5104736Y-10670781D02*
X5114259Y-10642210D01*
X5114259Y-10642210D02*
X5123783Y-10594591D01*
X5123783Y-10594591D02*
X5123783Y-10556496D01*
X5123783Y-10556496D02*
X5114259Y-10508877D01*
X5114259Y-10508877D02*
X5104736Y-10480305D01*
X5104736Y-10480305D02*
X5095212Y-10461258D01*
X5095212Y-10461258D02*
X5076164Y-10432686D01*
X5076164Y-10432686D02*
X5066640Y-10423162D01*
X5428545Y-10727924D02*
X5419021Y-10718400D01*
X5419021Y-10718400D02*
X5399974Y-10689829D01*
X5399974Y-10689829D02*
X5390450Y-10670781D01*
X5390450Y-10670781D02*
X5380926Y-10642210D01*
X5380926Y-10642210D02*
X5371402Y-10594591D01*
X5371402Y-10594591D02*
X5371402Y-10556496D01*
X5371402Y-10556496D02*
X5380926Y-10508877D01*
X5380926Y-10508877D02*
X5390450Y-10480305D01*
X5390450Y-10480305D02*
X5399974Y-10461258D01*
X5399974Y-10461258D02*
X5419021Y-10432686D01*
X5419021Y-10432686D02*
X5428545Y-10423162D01*
X5504736Y-10518400D02*
X5504736Y-10651734D01*
X5504736Y-10537448D02*
X5514259Y-10527924D01*
X5514259Y-10527924D02*
X5533307Y-10518400D01*
X5533307Y-10518400D02*
X5561879Y-10518400D01*
X5561879Y-10518400D02*
X5580926Y-10527924D01*
X5580926Y-10527924D02*
X5590450Y-10546972D01*
X5590450Y-10546972D02*
X5590450Y-10651734D01*
X5714259Y-10651734D02*
X5695212Y-10642210D01*
X5695212Y-10642210D02*
X5685688Y-10632686D01*
X5685688Y-10632686D02*
X5676164Y-10613639D01*
X5676164Y-10613639D02*
X5676164Y-10556496D01*
X5676164Y-10556496D02*
X5685688Y-10537448D01*
X5685688Y-10537448D02*
X5695212Y-10527924D01*
X5695212Y-10527924D02*
X5714259Y-10518400D01*
X5714259Y-10518400D02*
X5742831Y-10518400D01*
X5742831Y-10518400D02*
X5761878Y-10527924D01*
X5761878Y-10527924D02*
X5771402Y-10537448D01*
X5771402Y-10537448D02*
X5780926Y-10556496D01*
X5780926Y-10556496D02*
X5780926Y-10613639D01*
X5780926Y-10613639D02*
X5771402Y-10632686D01*
X5771402Y-10632686D02*
X5761878Y-10642210D01*
X5761878Y-10642210D02*
X5742831Y-10651734D01*
X5742831Y-10651734D02*
X5714259Y-10651734D01*
X5838069Y-10518400D02*
X5914259Y-10518400D01*
X5866640Y-10451734D02*
X5866640Y-10623162D01*
X5866640Y-10623162D02*
X5876164Y-10642210D01*
X5876164Y-10642210D02*
X5895212Y-10651734D01*
X5895212Y-10651734D02*
X5914259Y-10651734D01*
X6133307Y-10518400D02*
X6133307Y-10718400D01*
X6133307Y-10527924D02*
X6152355Y-10518400D01*
X6152355Y-10518400D02*
X6190450Y-10518400D01*
X6190450Y-10518400D02*
X6209498Y-10527924D01*
X6209498Y-10527924D02*
X6219021Y-10537448D01*
X6219021Y-10537448D02*
X6228545Y-10556496D01*
X6228545Y-10556496D02*
X6228545Y-10613639D01*
X6228545Y-10613639D02*
X6219021Y-10632686D01*
X6219021Y-10632686D02*
X6209498Y-10642210D01*
X6209498Y-10642210D02*
X6190450Y-10651734D01*
X6190450Y-10651734D02*
X6152355Y-10651734D01*
X6152355Y-10651734D02*
X6133307Y-10642210D01*
X6342831Y-10651734D02*
X6323783Y-10642210D01*
X6323783Y-10642210D02*
X6314259Y-10623162D01*
X6314259Y-10623162D02*
X6314259Y-10451734D01*
X6504736Y-10651734D02*
X6504736Y-10546972D01*
X6504736Y-10546972D02*
X6495212Y-10527924D01*
X6495212Y-10527924D02*
X6476164Y-10518400D01*
X6476164Y-10518400D02*
X6438069Y-10518400D01*
X6438069Y-10518400D02*
X6419021Y-10527924D01*
X6504736Y-10642210D02*
X6485688Y-10651734D01*
X6485688Y-10651734D02*
X6438069Y-10651734D01*
X6438069Y-10651734D02*
X6419021Y-10642210D01*
X6419021Y-10642210D02*
X6409498Y-10623162D01*
X6409498Y-10623162D02*
X6409498Y-10604115D01*
X6409498Y-10604115D02*
X6419021Y-10585067D01*
X6419021Y-10585067D02*
X6438069Y-10575543D01*
X6438069Y-10575543D02*
X6485688Y-10575543D01*
X6485688Y-10575543D02*
X6504736Y-10566020D01*
X6571402Y-10518400D02*
X6647593Y-10518400D01*
X6599974Y-10451734D02*
X6599974Y-10623162D01*
X6599974Y-10623162D02*
X6609498Y-10642210D01*
X6609498Y-10642210D02*
X6628545Y-10651734D01*
X6628545Y-10651734D02*
X6647593Y-10651734D01*
X6790450Y-10642210D02*
X6771402Y-10651734D01*
X6771402Y-10651734D02*
X6733307Y-10651734D01*
X6733307Y-10651734D02*
X6714259Y-10642210D01*
X6714259Y-10642210D02*
X6704736Y-10623162D01*
X6704736Y-10623162D02*
X6704736Y-10546972D01*
X6704736Y-10546972D02*
X6714259Y-10527924D01*
X6714259Y-10527924D02*
X6733307Y-10518400D01*
X6733307Y-10518400D02*
X6771402Y-10518400D01*
X6771402Y-10518400D02*
X6790450Y-10527924D01*
X6790450Y-10527924D02*
X6799974Y-10546972D01*
X6799974Y-10546972D02*
X6799974Y-10566020D01*
X6799974Y-10566020D02*
X6704736Y-10585067D01*
X6971402Y-10651734D02*
X6971402Y-10451734D01*
X6971402Y-10642210D02*
X6952355Y-10651734D01*
X6952355Y-10651734D02*
X6914259Y-10651734D01*
X6914259Y-10651734D02*
X6895212Y-10642210D01*
X6895212Y-10642210D02*
X6885688Y-10632686D01*
X6885688Y-10632686D02*
X6876164Y-10613639D01*
X6876164Y-10613639D02*
X6876164Y-10556496D01*
X6876164Y-10556496D02*
X6885688Y-10537448D01*
X6885688Y-10537448D02*
X6895212Y-10527924D01*
X6895212Y-10527924D02*
X6914259Y-10518400D01*
X6914259Y-10518400D02*
X6952355Y-10518400D01*
X6952355Y-10518400D02*
X6971402Y-10527924D01*
X7047593Y-10727924D02*
X7057117Y-10718400D01*
X7057117Y-10718400D02*
X7076164Y-10689829D01*
X7076164Y-10689829D02*
X7085688Y-10670781D01*
X7085688Y-10670781D02*
X7095212Y-10642210D01*
X7095212Y-10642210D02*
X7104736Y-10594591D01*
X7104736Y-10594591D02*
X7104736Y-10556496D01*
X7104736Y-10556496D02*
X7095212Y-10508877D01*
X7095212Y-10508877D02*
X7085688Y-10480305D01*
X7085688Y-10480305D02*
X7076164Y-10461258D01*
X7076164Y-10461258D02*
X7057117Y-10432686D01*
X7057117Y-10432686D02*
X7047593Y-10423162D01*
X-118664Y-10940961D02*
X-118664Y-10799539D01*
X-260086Y-10799539D01*
X-260086Y-10940961D01*
X-118664Y-10940961D01*
X152354Y-10761734D02*
X276164Y-10761734D01*
X276164Y-10761734D02*
X209497Y-10837924D01*
X209497Y-10837924D02*
X238068Y-10837924D01*
X238068Y-10837924D02*
X257116Y-10847448D01*
X257116Y-10847448D02*
X266640Y-10856972D01*
X266640Y-10856972D02*
X276164Y-10876020D01*
X276164Y-10876020D02*
X276164Y-10923639D01*
X276164Y-10923639D02*
X266640Y-10942686D01*
X266640Y-10942686D02*
X257116Y-10952210D01*
X257116Y-10952210D02*
X238068Y-10961734D01*
X238068Y-10961734D02*
X180926Y-10961734D01*
X180926Y-10961734D02*
X161878Y-10952210D01*
X161878Y-10952210D02*
X152354Y-10942686D01*
X361878Y-10942686D02*
X371402Y-10952210D01*
X371402Y-10952210D02*
X361878Y-10961734D01*
X361878Y-10961734D02*
X352354Y-10952210D01*
X352354Y-10952210D02*
X361878Y-10942686D01*
X361878Y-10942686D02*
X361878Y-10961734D01*
X495211Y-10761734D02*
X514259Y-10761734D01*
X514259Y-10761734D02*
X533307Y-10771258D01*
X533307Y-10771258D02*
X542830Y-10780781D01*
X542830Y-10780781D02*
X552354Y-10799829D01*
X552354Y-10799829D02*
X561878Y-10837924D01*
X561878Y-10837924D02*
X561878Y-10885543D01*
X561878Y-10885543D02*
X552354Y-10923639D01*
X552354Y-10923639D02*
X542830Y-10942686D01*
X542830Y-10942686D02*
X533307Y-10952210D01*
X533307Y-10952210D02*
X514259Y-10961734D01*
X514259Y-10961734D02*
X495211Y-10961734D01*
X495211Y-10961734D02*
X476164Y-10952210D01*
X476164Y-10952210D02*
X466640Y-10942686D01*
X466640Y-10942686D02*
X457116Y-10923639D01*
X457116Y-10923639D02*
X447592Y-10885543D01*
X447592Y-10885543D02*
X447592Y-10837924D01*
X447592Y-10837924D02*
X457116Y-10799829D01*
X457116Y-10799829D02*
X466640Y-10780781D01*
X466640Y-10780781D02*
X476164Y-10771258D01*
X476164Y-10771258D02*
X495211Y-10761734D01*
X742830Y-10761734D02*
X647592Y-10761734D01*
X647592Y-10761734D02*
X638069Y-10856972D01*
X638069Y-10856972D02*
X647592Y-10847448D01*
X647592Y-10847448D02*
X666640Y-10837924D01*
X666640Y-10837924D02*
X714259Y-10837924D01*
X714259Y-10837924D02*
X733307Y-10847448D01*
X733307Y-10847448D02*
X742830Y-10856972D01*
X742830Y-10856972D02*
X752354Y-10876020D01*
X752354Y-10876020D02*
X752354Y-10923639D01*
X752354Y-10923639D02*
X742830Y-10942686D01*
X742830Y-10942686D02*
X733307Y-10952210D01*
X733307Y-10952210D02*
X714259Y-10961734D01*
X714259Y-10961734D02*
X666640Y-10961734D01*
X666640Y-10961734D02*
X647592Y-10952210D01*
X647592Y-10952210D02*
X638069Y-10942686D01*
X876164Y-10761734D02*
X895211Y-10761734D01*
X895211Y-10761734D02*
X914259Y-10771258D01*
X914259Y-10771258D02*
X923783Y-10780781D01*
X923783Y-10780781D02*
X933307Y-10799829D01*
X933307Y-10799829D02*
X942830Y-10837924D01*
X942830Y-10837924D02*
X942830Y-10885543D01*
X942830Y-10885543D02*
X933307Y-10923639D01*
X933307Y-10923639D02*
X923783Y-10942686D01*
X923783Y-10942686D02*
X914259Y-10952210D01*
X914259Y-10952210D02*
X895211Y-10961734D01*
X895211Y-10961734D02*
X876164Y-10961734D01*
X876164Y-10961734D02*
X857116Y-10952210D01*
X857116Y-10952210D02*
X847592Y-10942686D01*
X847592Y-10942686D02*
X838068Y-10923639D01*
X838068Y-10923639D02*
X828545Y-10885543D01*
X828545Y-10885543D02*
X828545Y-10837924D01*
X828545Y-10837924D02*
X838068Y-10799829D01*
X838068Y-10799829D02*
X847592Y-10780781D01*
X847592Y-10780781D02*
X857116Y-10771258D01*
X857116Y-10771258D02*
X876164Y-10761734D01*
X1028545Y-10961734D02*
X1028545Y-10828400D01*
X1028545Y-10847448D02*
X1038068Y-10837924D01*
X1038068Y-10837924D02*
X1057116Y-10828400D01*
X1057116Y-10828400D02*
X1085688Y-10828400D01*
X1085688Y-10828400D02*
X1104735Y-10837924D01*
X1104735Y-10837924D02*
X1114259Y-10856972D01*
X1114259Y-10856972D02*
X1114259Y-10961734D01*
X1114259Y-10856972D02*
X1123783Y-10837924D01*
X1123783Y-10837924D02*
X1142830Y-10828400D01*
X1142830Y-10828400D02*
X1171402Y-10828400D01*
X1171402Y-10828400D02*
X1190450Y-10837924D01*
X1190450Y-10837924D02*
X1199973Y-10856972D01*
X1199973Y-10856972D02*
X1199973Y-10961734D01*
X1295211Y-10961734D02*
X1295211Y-10828400D01*
X1295211Y-10847448D02*
X1304735Y-10837924D01*
X1304735Y-10837924D02*
X1323783Y-10828400D01*
X1323783Y-10828400D02*
X1352354Y-10828400D01*
X1352354Y-10828400D02*
X1371402Y-10837924D01*
X1371402Y-10837924D02*
X1380926Y-10856972D01*
X1380926Y-10856972D02*
X1380926Y-10961734D01*
X1380926Y-10856972D02*
X1390450Y-10837924D01*
X1390450Y-10837924D02*
X1409497Y-10828400D01*
X1409497Y-10828400D02*
X1438068Y-10828400D01*
X1438068Y-10828400D02*
X1457116Y-10837924D01*
X1457116Y-10837924D02*
X1466640Y-10856972D01*
X1466640Y-10856972D02*
X1466640Y-10961734D01*
X1857116Y-10752210D02*
X1685688Y-11009353D01*
X2114259Y-10761734D02*
X2133307Y-10761734D01*
X2133307Y-10761734D02*
X2152354Y-10771258D01*
X2152354Y-10771258D02*
X2161878Y-10780781D01*
X2161878Y-10780781D02*
X2171402Y-10799829D01*
X2171402Y-10799829D02*
X2180926Y-10837924D01*
X2180926Y-10837924D02*
X2180926Y-10885543D01*
X2180926Y-10885543D02*
X2171402Y-10923639D01*
X2171402Y-10923639D02*
X2161878Y-10942686D01*
X2161878Y-10942686D02*
X2152354Y-10952210D01*
X2152354Y-10952210D02*
X2133307Y-10961734D01*
X2133307Y-10961734D02*
X2114259Y-10961734D01*
X2114259Y-10961734D02*
X2095211Y-10952210D01*
X2095211Y-10952210D02*
X2085688Y-10942686D01*
X2085688Y-10942686D02*
X2076164Y-10923639D01*
X2076164Y-10923639D02*
X2066640Y-10885543D01*
X2066640Y-10885543D02*
X2066640Y-10837924D01*
X2066640Y-10837924D02*
X2076164Y-10799829D01*
X2076164Y-10799829D02*
X2085688Y-10780781D01*
X2085688Y-10780781D02*
X2095211Y-10771258D01*
X2095211Y-10771258D02*
X2114259Y-10761734D01*
X2266640Y-10942686D02*
X2276164Y-10952210D01*
X2276164Y-10952210D02*
X2266640Y-10961734D01*
X2266640Y-10961734D02*
X2257116Y-10952210D01*
X2257116Y-10952210D02*
X2266640Y-10942686D01*
X2266640Y-10942686D02*
X2266640Y-10961734D01*
X2466640Y-10961734D02*
X2352354Y-10961734D01*
X2409497Y-10961734D02*
X2409497Y-10761734D01*
X2409497Y-10761734D02*
X2390450Y-10790305D01*
X2390450Y-10790305D02*
X2371402Y-10809353D01*
X2371402Y-10809353D02*
X2352354Y-10818877D01*
X2542831Y-10780781D02*
X2552354Y-10771258D01*
X2552354Y-10771258D02*
X2571402Y-10761734D01*
X2571402Y-10761734D02*
X2619021Y-10761734D01*
X2619021Y-10761734D02*
X2638069Y-10771258D01*
X2638069Y-10771258D02*
X2647593Y-10780781D01*
X2647593Y-10780781D02*
X2657116Y-10799829D01*
X2657116Y-10799829D02*
X2657116Y-10818877D01*
X2657116Y-10818877D02*
X2647593Y-10847448D01*
X2647593Y-10847448D02*
X2533307Y-10961734D01*
X2533307Y-10961734D02*
X2657116Y-10961734D01*
X2780926Y-10761734D02*
X2799973Y-10761734D01*
X2799973Y-10761734D02*
X2819021Y-10771258D01*
X2819021Y-10771258D02*
X2828545Y-10780781D01*
X2828545Y-10780781D02*
X2838069Y-10799829D01*
X2838069Y-10799829D02*
X2847592Y-10837924D01*
X2847592Y-10837924D02*
X2847592Y-10885543D01*
X2847592Y-10885543D02*
X2838069Y-10923639D01*
X2838069Y-10923639D02*
X2828545Y-10942686D01*
X2828545Y-10942686D02*
X2819021Y-10952210D01*
X2819021Y-10952210D02*
X2799973Y-10961734D01*
X2799973Y-10961734D02*
X2780926Y-10961734D01*
X2780926Y-10961734D02*
X2761878Y-10952210D01*
X2761878Y-10952210D02*
X2752354Y-10942686D01*
X2752354Y-10942686D02*
X2742831Y-10923639D01*
X2742831Y-10923639D02*
X2733307Y-10885543D01*
X2733307Y-10885543D02*
X2733307Y-10837924D01*
X2733307Y-10837924D02*
X2742831Y-10799829D01*
X2742831Y-10799829D02*
X2752354Y-10780781D01*
X2752354Y-10780781D02*
X2761878Y-10771258D01*
X2761878Y-10771258D02*
X2780926Y-10761734D01*
X3038069Y-10961734D02*
X2923783Y-10961734D01*
X2980926Y-10961734D02*
X2980926Y-10761734D01*
X2980926Y-10761734D02*
X2961878Y-10790305D01*
X2961878Y-10790305D02*
X2942831Y-10809353D01*
X2942831Y-10809353D02*
X2923783Y-10818877D01*
X3114259Y-10761734D02*
X3114259Y-10799829D01*
X3190450Y-10761734D02*
X3190450Y-10799829D01*
X3485688Y-11037924D02*
X3476164Y-11028400D01*
X3476164Y-11028400D02*
X3457116Y-10999829D01*
X3457116Y-10999829D02*
X3447593Y-10980781D01*
X3447593Y-10980781D02*
X3438069Y-10952210D01*
X3438069Y-10952210D02*
X3428545Y-10904591D01*
X3428545Y-10904591D02*
X3428545Y-10866496D01*
X3428545Y-10866496D02*
X3438069Y-10818877D01*
X3438069Y-10818877D02*
X3447593Y-10790305D01*
X3447593Y-10790305D02*
X3457116Y-10771258D01*
X3457116Y-10771258D02*
X3476164Y-10742686D01*
X3476164Y-10742686D02*
X3485688Y-10733162D01*
X3666640Y-10961734D02*
X3552354Y-10961734D01*
X3609497Y-10961734D02*
X3609497Y-10761734D01*
X3609497Y-10761734D02*
X3590450Y-10790305D01*
X3590450Y-10790305D02*
X3571402Y-10809353D01*
X3571402Y-10809353D02*
X3552354Y-10818877D01*
X3742831Y-10780781D02*
X3752354Y-10771258D01*
X3752354Y-10771258D02*
X3771402Y-10761734D01*
X3771402Y-10761734D02*
X3819021Y-10761734D01*
X3819021Y-10761734D02*
X3838069Y-10771258D01*
X3838069Y-10771258D02*
X3847593Y-10780781D01*
X3847593Y-10780781D02*
X3857116Y-10799829D01*
X3857116Y-10799829D02*
X3857116Y-10818877D01*
X3857116Y-10818877D02*
X3847593Y-10847448D01*
X3847593Y-10847448D02*
X3733307Y-10961734D01*
X3733307Y-10961734D02*
X3857116Y-10961734D01*
X4028545Y-10828400D02*
X4028545Y-10961734D01*
X3980926Y-10752210D02*
X3933307Y-10895067D01*
X3933307Y-10895067D02*
X4057116Y-10895067D01*
X4285688Y-10961734D02*
X4285688Y-10761734D01*
X4371402Y-10961734D02*
X4371402Y-10856972D01*
X4371402Y-10856972D02*
X4361878Y-10837924D01*
X4361878Y-10837924D02*
X4342831Y-10828400D01*
X4342831Y-10828400D02*
X4314259Y-10828400D01*
X4314259Y-10828400D02*
X4295212Y-10837924D01*
X4295212Y-10837924D02*
X4285688Y-10847448D01*
X4495212Y-10961734D02*
X4476164Y-10952210D01*
X4476164Y-10952210D02*
X4466640Y-10942686D01*
X4466640Y-10942686D02*
X4457117Y-10923639D01*
X4457117Y-10923639D02*
X4457117Y-10866496D01*
X4457117Y-10866496D02*
X4466640Y-10847448D01*
X4466640Y-10847448D02*
X4476164Y-10837924D01*
X4476164Y-10837924D02*
X4495212Y-10828400D01*
X4495212Y-10828400D02*
X4523783Y-10828400D01*
X4523783Y-10828400D02*
X4542831Y-10837924D01*
X4542831Y-10837924D02*
X4552355Y-10847448D01*
X4552355Y-10847448D02*
X4561878Y-10866496D01*
X4561878Y-10866496D02*
X4561878Y-10923639D01*
X4561878Y-10923639D02*
X4552355Y-10942686D01*
X4552355Y-10942686D02*
X4542831Y-10952210D01*
X4542831Y-10952210D02*
X4523783Y-10961734D01*
X4523783Y-10961734D02*
X4495212Y-10961734D01*
X4676164Y-10961734D02*
X4657117Y-10952210D01*
X4657117Y-10952210D02*
X4647593Y-10933162D01*
X4647593Y-10933162D02*
X4647593Y-10761734D01*
X4828545Y-10952210D02*
X4809498Y-10961734D01*
X4809498Y-10961734D02*
X4771402Y-10961734D01*
X4771402Y-10961734D02*
X4752355Y-10952210D01*
X4752355Y-10952210D02*
X4742831Y-10933162D01*
X4742831Y-10933162D02*
X4742831Y-10856972D01*
X4742831Y-10856972D02*
X4752355Y-10837924D01*
X4752355Y-10837924D02*
X4771402Y-10828400D01*
X4771402Y-10828400D02*
X4809498Y-10828400D01*
X4809498Y-10828400D02*
X4828545Y-10837924D01*
X4828545Y-10837924D02*
X4838069Y-10856972D01*
X4838069Y-10856972D02*
X4838069Y-10876020D01*
X4838069Y-10876020D02*
X4742831Y-10895067D01*
X4914259Y-10952210D02*
X4933307Y-10961734D01*
X4933307Y-10961734D02*
X4971402Y-10961734D01*
X4971402Y-10961734D02*
X4990450Y-10952210D01*
X4990450Y-10952210D02*
X4999974Y-10933162D01*
X4999974Y-10933162D02*
X4999974Y-10923639D01*
X4999974Y-10923639D02*
X4990450Y-10904591D01*
X4990450Y-10904591D02*
X4971402Y-10895067D01*
X4971402Y-10895067D02*
X4942831Y-10895067D01*
X4942831Y-10895067D02*
X4923783Y-10885543D01*
X4923783Y-10885543D02*
X4914259Y-10866496D01*
X4914259Y-10866496D02*
X4914259Y-10856972D01*
X4914259Y-10856972D02*
X4923783Y-10837924D01*
X4923783Y-10837924D02*
X4942831Y-10828400D01*
X4942831Y-10828400D02*
X4971402Y-10828400D01*
X4971402Y-10828400D02*
X4990450Y-10837924D01*
X5066640Y-11037924D02*
X5076164Y-11028400D01*
X5076164Y-11028400D02*
X5095212Y-10999829D01*
X5095212Y-10999829D02*
X5104736Y-10980781D01*
X5104736Y-10980781D02*
X5114259Y-10952210D01*
X5114259Y-10952210D02*
X5123783Y-10904591D01*
X5123783Y-10904591D02*
X5123783Y-10866496D01*
X5123783Y-10866496D02*
X5114259Y-10818877D01*
X5114259Y-10818877D02*
X5104736Y-10790305D01*
X5104736Y-10790305D02*
X5095212Y-10771258D01*
X5095212Y-10771258D02*
X5076164Y-10742686D01*
X5076164Y-10742686D02*
X5066640Y-10733162D01*
X5428545Y-11037924D02*
X5419021Y-11028400D01*
X5419021Y-11028400D02*
X5399974Y-10999829D01*
X5399974Y-10999829D02*
X5390450Y-10980781D01*
X5390450Y-10980781D02*
X5380926Y-10952210D01*
X5380926Y-10952210D02*
X5371402Y-10904591D01*
X5371402Y-10904591D02*
X5371402Y-10866496D01*
X5371402Y-10866496D02*
X5380926Y-10818877D01*
X5380926Y-10818877D02*
X5390450Y-10790305D01*
X5390450Y-10790305D02*
X5399974Y-10771258D01*
X5399974Y-10771258D02*
X5419021Y-10742686D01*
X5419021Y-10742686D02*
X5428545Y-10733162D01*
X5504736Y-10828400D02*
X5504736Y-10961734D01*
X5504736Y-10847448D02*
X5514259Y-10837924D01*
X5514259Y-10837924D02*
X5533307Y-10828400D01*
X5533307Y-10828400D02*
X5561879Y-10828400D01*
X5561879Y-10828400D02*
X5580926Y-10837924D01*
X5580926Y-10837924D02*
X5590450Y-10856972D01*
X5590450Y-10856972D02*
X5590450Y-10961734D01*
X5714259Y-10961734D02*
X5695212Y-10952210D01*
X5695212Y-10952210D02*
X5685688Y-10942686D01*
X5685688Y-10942686D02*
X5676164Y-10923639D01*
X5676164Y-10923639D02*
X5676164Y-10866496D01*
X5676164Y-10866496D02*
X5685688Y-10847448D01*
X5685688Y-10847448D02*
X5695212Y-10837924D01*
X5695212Y-10837924D02*
X5714259Y-10828400D01*
X5714259Y-10828400D02*
X5742831Y-10828400D01*
X5742831Y-10828400D02*
X5761878Y-10837924D01*
X5761878Y-10837924D02*
X5771402Y-10847448D01*
X5771402Y-10847448D02*
X5780926Y-10866496D01*
X5780926Y-10866496D02*
X5780926Y-10923639D01*
X5780926Y-10923639D02*
X5771402Y-10942686D01*
X5771402Y-10942686D02*
X5761878Y-10952210D01*
X5761878Y-10952210D02*
X5742831Y-10961734D01*
X5742831Y-10961734D02*
X5714259Y-10961734D01*
X5838069Y-10828400D02*
X5914259Y-10828400D01*
X5866640Y-10761734D02*
X5866640Y-10933162D01*
X5866640Y-10933162D02*
X5876164Y-10952210D01*
X5876164Y-10952210D02*
X5895212Y-10961734D01*
X5895212Y-10961734D02*
X5914259Y-10961734D01*
X6133307Y-10828400D02*
X6133307Y-11028400D01*
X6133307Y-10837924D02*
X6152355Y-10828400D01*
X6152355Y-10828400D02*
X6190450Y-10828400D01*
X6190450Y-10828400D02*
X6209498Y-10837924D01*
X6209498Y-10837924D02*
X6219021Y-10847448D01*
X6219021Y-10847448D02*
X6228545Y-10866496D01*
X6228545Y-10866496D02*
X6228545Y-10923639D01*
X6228545Y-10923639D02*
X6219021Y-10942686D01*
X6219021Y-10942686D02*
X6209498Y-10952210D01*
X6209498Y-10952210D02*
X6190450Y-10961734D01*
X6190450Y-10961734D02*
X6152355Y-10961734D01*
X6152355Y-10961734D02*
X6133307Y-10952210D01*
X6342831Y-10961734D02*
X6323783Y-10952210D01*
X6323783Y-10952210D02*
X6314259Y-10933162D01*
X6314259Y-10933162D02*
X6314259Y-10761734D01*
X6504736Y-10961734D02*
X6504736Y-10856972D01*
X6504736Y-10856972D02*
X6495212Y-10837924D01*
X6495212Y-10837924D02*
X6476164Y-10828400D01*
X6476164Y-10828400D02*
X6438069Y-10828400D01*
X6438069Y-10828400D02*
X6419021Y-10837924D01*
X6504736Y-10952210D02*
X6485688Y-10961734D01*
X6485688Y-10961734D02*
X6438069Y-10961734D01*
X6438069Y-10961734D02*
X6419021Y-10952210D01*
X6419021Y-10952210D02*
X6409498Y-10933162D01*
X6409498Y-10933162D02*
X6409498Y-10914115D01*
X6409498Y-10914115D02*
X6419021Y-10895067D01*
X6419021Y-10895067D02*
X6438069Y-10885543D01*
X6438069Y-10885543D02*
X6485688Y-10885543D01*
X6485688Y-10885543D02*
X6504736Y-10876020D01*
X6571402Y-10828400D02*
X6647593Y-10828400D01*
X6599974Y-10761734D02*
X6599974Y-10933162D01*
X6599974Y-10933162D02*
X6609498Y-10952210D01*
X6609498Y-10952210D02*
X6628545Y-10961734D01*
X6628545Y-10961734D02*
X6647593Y-10961734D01*
X6790450Y-10952210D02*
X6771402Y-10961734D01*
X6771402Y-10961734D02*
X6733307Y-10961734D01*
X6733307Y-10961734D02*
X6714259Y-10952210D01*
X6714259Y-10952210D02*
X6704736Y-10933162D01*
X6704736Y-10933162D02*
X6704736Y-10856972D01*
X6704736Y-10856972D02*
X6714259Y-10837924D01*
X6714259Y-10837924D02*
X6733307Y-10828400D01*
X6733307Y-10828400D02*
X6771402Y-10828400D01*
X6771402Y-10828400D02*
X6790450Y-10837924D01*
X6790450Y-10837924D02*
X6799974Y-10856972D01*
X6799974Y-10856972D02*
X6799974Y-10876020D01*
X6799974Y-10876020D02*
X6704736Y-10895067D01*
X6971402Y-10961734D02*
X6971402Y-10761734D01*
X6971402Y-10952210D02*
X6952355Y-10961734D01*
X6952355Y-10961734D02*
X6914259Y-10961734D01*
X6914259Y-10961734D02*
X6895212Y-10952210D01*
X6895212Y-10952210D02*
X6885688Y-10942686D01*
X6885688Y-10942686D02*
X6876164Y-10923639D01*
X6876164Y-10923639D02*
X6876164Y-10866496D01*
X6876164Y-10866496D02*
X6885688Y-10847448D01*
X6885688Y-10847448D02*
X6895212Y-10837924D01*
X6895212Y-10837924D02*
X6914259Y-10828400D01*
X6914259Y-10828400D02*
X6952355Y-10828400D01*
X6952355Y-10828400D02*
X6971402Y-10837924D01*
X7047593Y-11037924D02*
X7057117Y-11028400D01*
X7057117Y-11028400D02*
X7076164Y-10999829D01*
X7076164Y-10999829D02*
X7085688Y-10980781D01*
X7085688Y-10980781D02*
X7095212Y-10952210D01*
X7095212Y-10952210D02*
X7104736Y-10904591D01*
X7104736Y-10904591D02*
X7104736Y-10866496D01*
X7104736Y-10866496D02*
X7095212Y-10818877D01*
X7095212Y-10818877D02*
X7085688Y-10790305D01*
X7085688Y-10790305D02*
X7076164Y-10771258D01*
X7076164Y-10771258D02*
X7057117Y-10742686D01*
X7057117Y-10742686D02*
X7047593Y-10733162D01*
X-189375Y-11290250D02*
X-89375Y-11190250D01*
X-189375Y-11090250D01*
X-289375Y-11190250D01*
X-189375Y-11290250D01*
X266640Y-11081734D02*
X171402Y-11081734D01*
X171402Y-11081734D02*
X161878Y-11176972D01*
X161878Y-11176972D02*
X171402Y-11167448D01*
X171402Y-11167448D02*
X190449Y-11157924D01*
X190449Y-11157924D02*
X238068Y-11157924D01*
X238068Y-11157924D02*
X257116Y-11167448D01*
X257116Y-11167448D02*
X266640Y-11176972D01*
X266640Y-11176972D02*
X276164Y-11196019D01*
X276164Y-11196019D02*
X276164Y-11243638D01*
X276164Y-11243638D02*
X266640Y-11262686D01*
X266640Y-11262686D02*
X257116Y-11272210D01*
X257116Y-11272210D02*
X238068Y-11281734D01*
X238068Y-11281734D02*
X190449Y-11281734D01*
X190449Y-11281734D02*
X171402Y-11272210D01*
X171402Y-11272210D02*
X161878Y-11262686D01*
X361878Y-11262686D02*
X371402Y-11272210D01*
X371402Y-11272210D02*
X361878Y-11281734D01*
X361878Y-11281734D02*
X352354Y-11272210D01*
X352354Y-11272210D02*
X361878Y-11262686D01*
X361878Y-11262686D02*
X361878Y-11281734D01*
X495211Y-11081734D02*
X514259Y-11081734D01*
X514259Y-11081734D02*
X533307Y-11091258D01*
X533307Y-11091258D02*
X542830Y-11100781D01*
X542830Y-11100781D02*
X552354Y-11119829D01*
X552354Y-11119829D02*
X561878Y-11157924D01*
X561878Y-11157924D02*
X561878Y-11205543D01*
X561878Y-11205543D02*
X552354Y-11243638D01*
X552354Y-11243638D02*
X542830Y-11262686D01*
X542830Y-11262686D02*
X533307Y-11272210D01*
X533307Y-11272210D02*
X514259Y-11281734D01*
X514259Y-11281734D02*
X495211Y-11281734D01*
X495211Y-11281734D02*
X476164Y-11272210D01*
X476164Y-11272210D02*
X466640Y-11262686D01*
X466640Y-11262686D02*
X457116Y-11243638D01*
X457116Y-11243638D02*
X447592Y-11205543D01*
X447592Y-11205543D02*
X447592Y-11157924D01*
X447592Y-11157924D02*
X457116Y-11119829D01*
X457116Y-11119829D02*
X466640Y-11100781D01*
X466640Y-11100781D02*
X476164Y-11091258D01*
X476164Y-11091258D02*
X495211Y-11081734D01*
X742830Y-11081734D02*
X647592Y-11081734D01*
X647592Y-11081734D02*
X638069Y-11176972D01*
X638069Y-11176972D02*
X647592Y-11167448D01*
X647592Y-11167448D02*
X666640Y-11157924D01*
X666640Y-11157924D02*
X714259Y-11157924D01*
X714259Y-11157924D02*
X733307Y-11167448D01*
X733307Y-11167448D02*
X742830Y-11176972D01*
X742830Y-11176972D02*
X752354Y-11196019D01*
X752354Y-11196019D02*
X752354Y-11243638D01*
X752354Y-11243638D02*
X742830Y-11262686D01*
X742830Y-11262686D02*
X733307Y-11272210D01*
X733307Y-11272210D02*
X714259Y-11281734D01*
X714259Y-11281734D02*
X666640Y-11281734D01*
X666640Y-11281734D02*
X647592Y-11272210D01*
X647592Y-11272210D02*
X638069Y-11262686D01*
X876164Y-11081734D02*
X895211Y-11081734D01*
X895211Y-11081734D02*
X914259Y-11091258D01*
X914259Y-11091258D02*
X923783Y-11100781D01*
X923783Y-11100781D02*
X933307Y-11119829D01*
X933307Y-11119829D02*
X942830Y-11157924D01*
X942830Y-11157924D02*
X942830Y-11205543D01*
X942830Y-11205543D02*
X933307Y-11243638D01*
X933307Y-11243638D02*
X923783Y-11262686D01*
X923783Y-11262686D02*
X914259Y-11272210D01*
X914259Y-11272210D02*
X895211Y-11281734D01*
X895211Y-11281734D02*
X876164Y-11281734D01*
X876164Y-11281734D02*
X857116Y-11272210D01*
X857116Y-11272210D02*
X847592Y-11262686D01*
X847592Y-11262686D02*
X838068Y-11243638D01*
X838068Y-11243638D02*
X828545Y-11205543D01*
X828545Y-11205543D02*
X828545Y-11157924D01*
X828545Y-11157924D02*
X838068Y-11119829D01*
X838068Y-11119829D02*
X847592Y-11100781D01*
X847592Y-11100781D02*
X857116Y-11091258D01*
X857116Y-11091258D02*
X876164Y-11081734D01*
X1028545Y-11281734D02*
X1028545Y-11148400D01*
X1028545Y-11167448D02*
X1038068Y-11157924D01*
X1038068Y-11157924D02*
X1057116Y-11148400D01*
X1057116Y-11148400D02*
X1085688Y-11148400D01*
X1085688Y-11148400D02*
X1104735Y-11157924D01*
X1104735Y-11157924D02*
X1114259Y-11176972D01*
X1114259Y-11176972D02*
X1114259Y-11281734D01*
X1114259Y-11176972D02*
X1123783Y-11157924D01*
X1123783Y-11157924D02*
X1142830Y-11148400D01*
X1142830Y-11148400D02*
X1171402Y-11148400D01*
X1171402Y-11148400D02*
X1190450Y-11157924D01*
X1190450Y-11157924D02*
X1199973Y-11176972D01*
X1199973Y-11176972D02*
X1199973Y-11281734D01*
X1295211Y-11281734D02*
X1295211Y-11148400D01*
X1295211Y-11167448D02*
X1304735Y-11157924D01*
X1304735Y-11157924D02*
X1323783Y-11148400D01*
X1323783Y-11148400D02*
X1352354Y-11148400D01*
X1352354Y-11148400D02*
X1371402Y-11157924D01*
X1371402Y-11157924D02*
X1380926Y-11176972D01*
X1380926Y-11176972D02*
X1380926Y-11281734D01*
X1380926Y-11176972D02*
X1390450Y-11157924D01*
X1390450Y-11157924D02*
X1409497Y-11148400D01*
X1409497Y-11148400D02*
X1438068Y-11148400D01*
X1438068Y-11148400D02*
X1457116Y-11157924D01*
X1457116Y-11157924D02*
X1466640Y-11176972D01*
X1466640Y-11176972D02*
X1466640Y-11281734D01*
X1857116Y-11072210D02*
X1685688Y-11329353D01*
X2114259Y-11081734D02*
X2133307Y-11081734D01*
X2133307Y-11081734D02*
X2152354Y-11091258D01*
X2152354Y-11091258D02*
X2161878Y-11100781D01*
X2161878Y-11100781D02*
X2171402Y-11119829D01*
X2171402Y-11119829D02*
X2180926Y-11157924D01*
X2180926Y-11157924D02*
X2180926Y-11205543D01*
X2180926Y-11205543D02*
X2171402Y-11243638D01*
X2171402Y-11243638D02*
X2161878Y-11262686D01*
X2161878Y-11262686D02*
X2152354Y-11272210D01*
X2152354Y-11272210D02*
X2133307Y-11281734D01*
X2133307Y-11281734D02*
X2114259Y-11281734D01*
X2114259Y-11281734D02*
X2095211Y-11272210D01*
X2095211Y-11272210D02*
X2085688Y-11262686D01*
X2085688Y-11262686D02*
X2076164Y-11243638D01*
X2076164Y-11243638D02*
X2066640Y-11205543D01*
X2066640Y-11205543D02*
X2066640Y-11157924D01*
X2066640Y-11157924D02*
X2076164Y-11119829D01*
X2076164Y-11119829D02*
X2085688Y-11100781D01*
X2085688Y-11100781D02*
X2095211Y-11091258D01*
X2095211Y-11091258D02*
X2114259Y-11081734D01*
X2266640Y-11262686D02*
X2276164Y-11272210D01*
X2276164Y-11272210D02*
X2266640Y-11281734D01*
X2266640Y-11281734D02*
X2257116Y-11272210D01*
X2257116Y-11272210D02*
X2266640Y-11262686D01*
X2266640Y-11262686D02*
X2266640Y-11281734D01*
X2466640Y-11281734D02*
X2352354Y-11281734D01*
X2409497Y-11281734D02*
X2409497Y-11081734D01*
X2409497Y-11081734D02*
X2390450Y-11110305D01*
X2390450Y-11110305D02*
X2371402Y-11129353D01*
X2371402Y-11129353D02*
X2352354Y-11138877D01*
X2561878Y-11281734D02*
X2599973Y-11281734D01*
X2599973Y-11281734D02*
X2619021Y-11272210D01*
X2619021Y-11272210D02*
X2628545Y-11262686D01*
X2628545Y-11262686D02*
X2647593Y-11234115D01*
X2647593Y-11234115D02*
X2657116Y-11196019D01*
X2657116Y-11196019D02*
X2657116Y-11119829D01*
X2657116Y-11119829D02*
X2647593Y-11100781D01*
X2647593Y-11100781D02*
X2638069Y-11091258D01*
X2638069Y-11091258D02*
X2619021Y-11081734D01*
X2619021Y-11081734D02*
X2580926Y-11081734D01*
X2580926Y-11081734D02*
X2561878Y-11091258D01*
X2561878Y-11091258D02*
X2552354Y-11100781D01*
X2552354Y-11100781D02*
X2542831Y-11119829D01*
X2542831Y-11119829D02*
X2542831Y-11167448D01*
X2542831Y-11167448D02*
X2552354Y-11186496D01*
X2552354Y-11186496D02*
X2561878Y-11196019D01*
X2561878Y-11196019D02*
X2580926Y-11205543D01*
X2580926Y-11205543D02*
X2619021Y-11205543D01*
X2619021Y-11205543D02*
X2638069Y-11196019D01*
X2638069Y-11196019D02*
X2647593Y-11186496D01*
X2647593Y-11186496D02*
X2657116Y-11167448D01*
X2771402Y-11167448D02*
X2752354Y-11157924D01*
X2752354Y-11157924D02*
X2742831Y-11148400D01*
X2742831Y-11148400D02*
X2733307Y-11129353D01*
X2733307Y-11129353D02*
X2733307Y-11119829D01*
X2733307Y-11119829D02*
X2742831Y-11100781D01*
X2742831Y-11100781D02*
X2752354Y-11091258D01*
X2752354Y-11091258D02*
X2771402Y-11081734D01*
X2771402Y-11081734D02*
X2809497Y-11081734D01*
X2809497Y-11081734D02*
X2828545Y-11091258D01*
X2828545Y-11091258D02*
X2838069Y-11100781D01*
X2838069Y-11100781D02*
X2847592Y-11119829D01*
X2847592Y-11119829D02*
X2847592Y-11129353D01*
X2847592Y-11129353D02*
X2838069Y-11148400D01*
X2838069Y-11148400D02*
X2828545Y-11157924D01*
X2828545Y-11157924D02*
X2809497Y-11167448D01*
X2809497Y-11167448D02*
X2771402Y-11167448D01*
X2771402Y-11167448D02*
X2752354Y-11176972D01*
X2752354Y-11176972D02*
X2742831Y-11186496D01*
X2742831Y-11186496D02*
X2733307Y-11205543D01*
X2733307Y-11205543D02*
X2733307Y-11243638D01*
X2733307Y-11243638D02*
X2742831Y-11262686D01*
X2742831Y-11262686D02*
X2752354Y-11272210D01*
X2752354Y-11272210D02*
X2771402Y-11281734D01*
X2771402Y-11281734D02*
X2809497Y-11281734D01*
X2809497Y-11281734D02*
X2828545Y-11272210D01*
X2828545Y-11272210D02*
X2838069Y-11262686D01*
X2838069Y-11262686D02*
X2847592Y-11243638D01*
X2847592Y-11243638D02*
X2847592Y-11205543D01*
X2847592Y-11205543D02*
X2838069Y-11186496D01*
X2838069Y-11186496D02*
X2828545Y-11176972D01*
X2828545Y-11176972D02*
X2809497Y-11167448D01*
X2961878Y-11167448D02*
X2942831Y-11157924D01*
X2942831Y-11157924D02*
X2933307Y-11148400D01*
X2933307Y-11148400D02*
X2923783Y-11129353D01*
X2923783Y-11129353D02*
X2923783Y-11119829D01*
X2923783Y-11119829D02*
X2933307Y-11100781D01*
X2933307Y-11100781D02*
X2942831Y-11091258D01*
X2942831Y-11091258D02*
X2961878Y-11081734D01*
X2961878Y-11081734D02*
X2999973Y-11081734D01*
X2999973Y-11081734D02*
X3019021Y-11091258D01*
X3019021Y-11091258D02*
X3028545Y-11100781D01*
X3028545Y-11100781D02*
X3038069Y-11119829D01*
X3038069Y-11119829D02*
X3038069Y-11129353D01*
X3038069Y-11129353D02*
X3028545Y-11148400D01*
X3028545Y-11148400D02*
X3019021Y-11157924D01*
X3019021Y-11157924D02*
X2999973Y-11167448D01*
X2999973Y-11167448D02*
X2961878Y-11167448D01*
X2961878Y-11167448D02*
X2942831Y-11176972D01*
X2942831Y-11176972D02*
X2933307Y-11186496D01*
X2933307Y-11186496D02*
X2923783Y-11205543D01*
X2923783Y-11205543D02*
X2923783Y-11243638D01*
X2923783Y-11243638D02*
X2933307Y-11262686D01*
X2933307Y-11262686D02*
X2942831Y-11272210D01*
X2942831Y-11272210D02*
X2961878Y-11281734D01*
X2961878Y-11281734D02*
X2999973Y-11281734D01*
X2999973Y-11281734D02*
X3019021Y-11272210D01*
X3019021Y-11272210D02*
X3028545Y-11262686D01*
X3028545Y-11262686D02*
X3038069Y-11243638D01*
X3038069Y-11243638D02*
X3038069Y-11205543D01*
X3038069Y-11205543D02*
X3028545Y-11186496D01*
X3028545Y-11186496D02*
X3019021Y-11176972D01*
X3019021Y-11176972D02*
X2999973Y-11167448D01*
X3114259Y-11081734D02*
X3114259Y-11119829D01*
X3190450Y-11081734D02*
X3190450Y-11119829D01*
X3485688Y-11357924D02*
X3476164Y-11348400D01*
X3476164Y-11348400D02*
X3457116Y-11319829D01*
X3457116Y-11319829D02*
X3447593Y-11300781D01*
X3447593Y-11300781D02*
X3438069Y-11272210D01*
X3438069Y-11272210D02*
X3428545Y-11224591D01*
X3428545Y-11224591D02*
X3428545Y-11186496D01*
X3428545Y-11186496D02*
X3438069Y-11138877D01*
X3438069Y-11138877D02*
X3447593Y-11110305D01*
X3447593Y-11110305D02*
X3457116Y-11091258D01*
X3457116Y-11091258D02*
X3476164Y-11062686D01*
X3476164Y-11062686D02*
X3485688Y-11053162D01*
X3647593Y-11081734D02*
X3609497Y-11081734D01*
X3609497Y-11081734D02*
X3590450Y-11091258D01*
X3590450Y-11091258D02*
X3580926Y-11100781D01*
X3580926Y-11100781D02*
X3561878Y-11129353D01*
X3561878Y-11129353D02*
X3552354Y-11167448D01*
X3552354Y-11167448D02*
X3552354Y-11243638D01*
X3552354Y-11243638D02*
X3561878Y-11262686D01*
X3561878Y-11262686D02*
X3571402Y-11272210D01*
X3571402Y-11272210D02*
X3590450Y-11281734D01*
X3590450Y-11281734D02*
X3628545Y-11281734D01*
X3628545Y-11281734D02*
X3647593Y-11272210D01*
X3647593Y-11272210D02*
X3657116Y-11262686D01*
X3657116Y-11262686D02*
X3666640Y-11243638D01*
X3666640Y-11243638D02*
X3666640Y-11196019D01*
X3666640Y-11196019D02*
X3657116Y-11176972D01*
X3657116Y-11176972D02*
X3647593Y-11167448D01*
X3647593Y-11167448D02*
X3628545Y-11157924D01*
X3628545Y-11157924D02*
X3590450Y-11157924D01*
X3590450Y-11157924D02*
X3571402Y-11167448D01*
X3571402Y-11167448D02*
X3561878Y-11176972D01*
X3561878Y-11176972D02*
X3552354Y-11196019D01*
X3742831Y-11100781D02*
X3752354Y-11091258D01*
X3752354Y-11091258D02*
X3771402Y-11081734D01*
X3771402Y-11081734D02*
X3819021Y-11081734D01*
X3819021Y-11081734D02*
X3838069Y-11091258D01*
X3838069Y-11091258D02*
X3847593Y-11100781D01*
X3847593Y-11100781D02*
X3857116Y-11119829D01*
X3857116Y-11119829D02*
X3857116Y-11138877D01*
X3857116Y-11138877D02*
X3847593Y-11167448D01*
X3847593Y-11167448D02*
X3733307Y-11281734D01*
X3733307Y-11281734D02*
X3857116Y-11281734D01*
X4095212Y-11281734D02*
X4095212Y-11081734D01*
X4180926Y-11281734D02*
X4180926Y-11176972D01*
X4180926Y-11176972D02*
X4171402Y-11157924D01*
X4171402Y-11157924D02*
X4152355Y-11148400D01*
X4152355Y-11148400D02*
X4123783Y-11148400D01*
X4123783Y-11148400D02*
X4104735Y-11157924D01*
X4104735Y-11157924D02*
X4095212Y-11167448D01*
X4304736Y-11281734D02*
X4285688Y-11272210D01*
X4285688Y-11272210D02*
X4276164Y-11262686D01*
X4276164Y-11262686D02*
X4266640Y-11243638D01*
X4266640Y-11243638D02*
X4266640Y-11186496D01*
X4266640Y-11186496D02*
X4276164Y-11167448D01*
X4276164Y-11167448D02*
X4285688Y-11157924D01*
X4285688Y-11157924D02*
X4304736Y-11148400D01*
X4304736Y-11148400D02*
X4333307Y-11148400D01*
X4333307Y-11148400D02*
X4352355Y-11157924D01*
X4352355Y-11157924D02*
X4361878Y-11167448D01*
X4361878Y-11167448D02*
X4371402Y-11186496D01*
X4371402Y-11186496D02*
X4371402Y-11243638D01*
X4371402Y-11243638D02*
X4361878Y-11262686D01*
X4361878Y-11262686D02*
X4352355Y-11272210D01*
X4352355Y-11272210D02*
X4333307Y-11281734D01*
X4333307Y-11281734D02*
X4304736Y-11281734D01*
X4485688Y-11281734D02*
X4466640Y-11272210D01*
X4466640Y-11272210D02*
X4457117Y-11253162D01*
X4457117Y-11253162D02*
X4457117Y-11081734D01*
X4638069Y-11272210D02*
X4619021Y-11281734D01*
X4619021Y-11281734D02*
X4580926Y-11281734D01*
X4580926Y-11281734D02*
X4561878Y-11272210D01*
X4561878Y-11272210D02*
X4552355Y-11253162D01*
X4552355Y-11253162D02*
X4552355Y-11176972D01*
X4552355Y-11176972D02*
X4561878Y-11157924D01*
X4561878Y-11157924D02*
X4580926Y-11148400D01*
X4580926Y-11148400D02*
X4619021Y-11148400D01*
X4619021Y-11148400D02*
X4638069Y-11157924D01*
X4638069Y-11157924D02*
X4647593Y-11176972D01*
X4647593Y-11176972D02*
X4647593Y-11196019D01*
X4647593Y-11196019D02*
X4552355Y-11215067D01*
X4723783Y-11272210D02*
X4742831Y-11281734D01*
X4742831Y-11281734D02*
X4780926Y-11281734D01*
X4780926Y-11281734D02*
X4799974Y-11272210D01*
X4799974Y-11272210D02*
X4809498Y-11253162D01*
X4809498Y-11253162D02*
X4809498Y-11243638D01*
X4809498Y-11243638D02*
X4799974Y-11224591D01*
X4799974Y-11224591D02*
X4780926Y-11215067D01*
X4780926Y-11215067D02*
X4752355Y-11215067D01*
X4752355Y-11215067D02*
X4733307Y-11205543D01*
X4733307Y-11205543D02*
X4723783Y-11186496D01*
X4723783Y-11186496D02*
X4723783Y-11176972D01*
X4723783Y-11176972D02*
X4733307Y-11157924D01*
X4733307Y-11157924D02*
X4752355Y-11148400D01*
X4752355Y-11148400D02*
X4780926Y-11148400D01*
X4780926Y-11148400D02*
X4799974Y-11157924D01*
X4876164Y-11357924D02*
X4885688Y-11348400D01*
X4885688Y-11348400D02*
X4904736Y-11319829D01*
X4904736Y-11319829D02*
X4914259Y-11300781D01*
X4914259Y-11300781D02*
X4923783Y-11272210D01*
X4923783Y-11272210D02*
X4933307Y-11224591D01*
X4933307Y-11224591D02*
X4933307Y-11186496D01*
X4933307Y-11186496D02*
X4923783Y-11138877D01*
X4923783Y-11138877D02*
X4914259Y-11110305D01*
X4914259Y-11110305D02*
X4904736Y-11091258D01*
X4904736Y-11091258D02*
X4885688Y-11062686D01*
X4885688Y-11062686D02*
X4876164Y-11053162D01*
X5238069Y-11357924D02*
X5228545Y-11348400D01*
X5228545Y-11348400D02*
X5209498Y-11319829D01*
X5209498Y-11319829D02*
X5199974Y-11300781D01*
X5199974Y-11300781D02*
X5190450Y-11272210D01*
X5190450Y-11272210D02*
X5180926Y-11224591D01*
X5180926Y-11224591D02*
X5180926Y-11186496D01*
X5180926Y-11186496D02*
X5190450Y-11138877D01*
X5190450Y-11138877D02*
X5199974Y-11110305D01*
X5199974Y-11110305D02*
X5209498Y-11091258D01*
X5209498Y-11091258D02*
X5228545Y-11062686D01*
X5228545Y-11062686D02*
X5238069Y-11053162D01*
X5314259Y-11148400D02*
X5314259Y-11281734D01*
X5314259Y-11167448D02*
X5323783Y-11157924D01*
X5323783Y-11157924D02*
X5342831Y-11148400D01*
X5342831Y-11148400D02*
X5371402Y-11148400D01*
X5371402Y-11148400D02*
X5390450Y-11157924D01*
X5390450Y-11157924D02*
X5399974Y-11176972D01*
X5399974Y-11176972D02*
X5399974Y-11281734D01*
X5523783Y-11281734D02*
X5504736Y-11272210D01*
X5504736Y-11272210D02*
X5495212Y-11262686D01*
X5495212Y-11262686D02*
X5485688Y-11243638D01*
X5485688Y-11243638D02*
X5485688Y-11186496D01*
X5485688Y-11186496D02*
X5495212Y-11167448D01*
X5495212Y-11167448D02*
X5504736Y-11157924D01*
X5504736Y-11157924D02*
X5523783Y-11148400D01*
X5523783Y-11148400D02*
X5552355Y-11148400D01*
X5552355Y-11148400D02*
X5571402Y-11157924D01*
X5571402Y-11157924D02*
X5580926Y-11167448D01*
X5580926Y-11167448D02*
X5590450Y-11186496D01*
X5590450Y-11186496D02*
X5590450Y-11243638D01*
X5590450Y-11243638D02*
X5580926Y-11262686D01*
X5580926Y-11262686D02*
X5571402Y-11272210D01*
X5571402Y-11272210D02*
X5552355Y-11281734D01*
X5552355Y-11281734D02*
X5523783Y-11281734D01*
X5647593Y-11148400D02*
X5723783Y-11148400D01*
X5676164Y-11081734D02*
X5676164Y-11253162D01*
X5676164Y-11253162D02*
X5685688Y-11272210D01*
X5685688Y-11272210D02*
X5704736Y-11281734D01*
X5704736Y-11281734D02*
X5723783Y-11281734D01*
X5942831Y-11148400D02*
X5942831Y-11348400D01*
X5942831Y-11157924D02*
X5961878Y-11148400D01*
X5961878Y-11148400D02*
X5999974Y-11148400D01*
X5999974Y-11148400D02*
X6019021Y-11157924D01*
X6019021Y-11157924D02*
X6028545Y-11167448D01*
X6028545Y-11167448D02*
X6038069Y-11186496D01*
X6038069Y-11186496D02*
X6038069Y-11243638D01*
X6038069Y-11243638D02*
X6028545Y-11262686D01*
X6028545Y-11262686D02*
X6019021Y-11272210D01*
X6019021Y-11272210D02*
X5999974Y-11281734D01*
X5999974Y-11281734D02*
X5961878Y-11281734D01*
X5961878Y-11281734D02*
X5942831Y-11272210D01*
X6152355Y-11281734D02*
X6133307Y-11272210D01*
X6133307Y-11272210D02*
X6123783Y-11253162D01*
X6123783Y-11253162D02*
X6123783Y-11081734D01*
X6314259Y-11281734D02*
X6314259Y-11176972D01*
X6314259Y-11176972D02*
X6304736Y-11157924D01*
X6304736Y-11157924D02*
X6285688Y-11148400D01*
X6285688Y-11148400D02*
X6247593Y-11148400D01*
X6247593Y-11148400D02*
X6228545Y-11157924D01*
X6314259Y-11272210D02*
X6295212Y-11281734D01*
X6295212Y-11281734D02*
X6247593Y-11281734D01*
X6247593Y-11281734D02*
X6228545Y-11272210D01*
X6228545Y-11272210D02*
X6219021Y-11253162D01*
X6219021Y-11253162D02*
X6219021Y-11234115D01*
X6219021Y-11234115D02*
X6228545Y-11215067D01*
X6228545Y-11215067D02*
X6247593Y-11205543D01*
X6247593Y-11205543D02*
X6295212Y-11205543D01*
X6295212Y-11205543D02*
X6314259Y-11196019D01*
X6380926Y-11148400D02*
X6457117Y-11148400D01*
X6409498Y-11081734D02*
X6409498Y-11253162D01*
X6409498Y-11253162D02*
X6419021Y-11272210D01*
X6419021Y-11272210D02*
X6438069Y-11281734D01*
X6438069Y-11281734D02*
X6457117Y-11281734D01*
X6599974Y-11272210D02*
X6580926Y-11281734D01*
X6580926Y-11281734D02*
X6542831Y-11281734D01*
X6542831Y-11281734D02*
X6523783Y-11272210D01*
X6523783Y-11272210D02*
X6514259Y-11253162D01*
X6514259Y-11253162D02*
X6514259Y-11176972D01*
X6514259Y-11176972D02*
X6523783Y-11157924D01*
X6523783Y-11157924D02*
X6542831Y-11148400D01*
X6542831Y-11148400D02*
X6580926Y-11148400D01*
X6580926Y-11148400D02*
X6599974Y-11157924D01*
X6599974Y-11157924D02*
X6609498Y-11176972D01*
X6609498Y-11176972D02*
X6609498Y-11196019D01*
X6609498Y-11196019D02*
X6514259Y-11215067D01*
X6780926Y-11281734D02*
X6780926Y-11081734D01*
X6780926Y-11272210D02*
X6761879Y-11281734D01*
X6761879Y-11281734D02*
X6723783Y-11281734D01*
X6723783Y-11281734D02*
X6704736Y-11272210D01*
X6704736Y-11272210D02*
X6695212Y-11262686D01*
X6695212Y-11262686D02*
X6685688Y-11243638D01*
X6685688Y-11243638D02*
X6685688Y-11186496D01*
X6685688Y-11186496D02*
X6695212Y-11167448D01*
X6695212Y-11167448D02*
X6704736Y-11157924D01*
X6704736Y-11157924D02*
X6723783Y-11148400D01*
X6723783Y-11148400D02*
X6761879Y-11148400D01*
X6761879Y-11148400D02*
X6780926Y-11157924D01*
X6857117Y-11357924D02*
X6866640Y-11348400D01*
X6866640Y-11348400D02*
X6885688Y-11319829D01*
X6885688Y-11319829D02*
X6895212Y-11300781D01*
X6895212Y-11300781D02*
X6904736Y-11272210D01*
X6904736Y-11272210D02*
X6914259Y-11224591D01*
X6914259Y-11224591D02*
X6914259Y-11186496D01*
X6914259Y-11186496D02*
X6904736Y-11138877D01*
X6904736Y-11138877D02*
X6895212Y-11110305D01*
X6895212Y-11110305D02*
X6885688Y-11091258D01*
X6885688Y-11091258D02*
X6866640Y-11062686D01*
X6866640Y-11062686D02*
X6857117Y-11053162D01*
M02*
