  0
SECTION
  2
HEADER
  9
$ACADVER
  1
AC1009
  9
$FILLMODE
 70
 0
  9
$SPLFRAME
 70
 1
  9
$EXTMIN
 10
0
 20
0
 30
0.0
  9
$EXTMAX
 10
1058.33
 20
1058.33
 30
0.0
  0
ENDSEC
  0
SECTION
  2
TABLES
  0
TABLE
  2
LAYER
 70
1
  0
LAYER
  2
0
 70
     0
 62
     7
  6
CONTINUOUS
  0
ENDTAB
  0
ENDSEC
  0
SECTION
  2
ENTITIES
  0
LINE
  8
0
 62
     0
 10
304.316
 20
119.479
 30
0.0
 11
304.785
 21
119.423
 31
0.0
  0
LINE
  8
0
 62
     0
 10
304.785
 20
119.423
 30
0.0
 11
305.247
 21
119.331
 31
0.0
  0
LINE
  8
0
 62
     0
 10
305.247
 20
119.331
 30
0.0
 11
305.7
 21
119.203
 31
0.0
  0
LINE
  8
0
 62
     0
 10
305.7
 20
119.203
 30
0.0
 11
306.142
 21
119.041
 31
0.0
  0
LINE
  8
0
 62
     0
 10
306.142
 20
119.041
 30
0.0
 11
306.57
 21
118.843
 31
0.0
  0
LINE
  8
0
 62
     0
 10
306.57
 20
118.843
 30
0.0
 11
306.98
 21
118.612
 31
0.0
  0
LINE
  8
0
 62
     0
 10
306.98
 20
118.612
 30
0.0
 11
307.373
 21
118.351
 31
0.0
  0
LINE
  8
0
 62
     0
 10
307.373
 20
118.351
 30
0.0
 11
307.742
 21
118.059
 31
0.0
  0
LINE
  8
0
 62
     0
 10
307.742
 20
118.059
 30
0.0
 11
308.088
 21
117.74
 31
0.0
  0
LINE
  8
0
 62
     0
 10
308.088
 20
117.74
 30
0.0
 11
308.409
 21
117.394
 31
0.0
  0
LINE
  8
0
 62
     0
 10
308.409
 20
117.394
 30
0.0
 11
308.7
 21
117.023
 31
0.0
  0
LINE
  8
0
 62
     0
 10
308.7
 20
117.023
 30
0.0
 11
308.962
 21
116.632
 31
0.0
  0
LINE
  8
0
 62
     0
 10
308.962
 20
116.632
 30
0.0
 11
309.193
 21
116.219
 31
0.0
  0
LINE
  8
0
 62
     0
 10
309.193
 20
116.219
 30
0.0
 11
309.389
 21
115.794
 31
0.0
  0
LINE
  8
0
 62
     0
 10
309.389
 20
115.794
 30
0.0
 11
309.553
 21
115.351
 31
0.0
  0
LINE
  8
0
 62
     0
 10
309.553
 20
115.351
 30
0.0
 11
309.681
 21
114.897
 31
0.0
  0
LINE
  8
0
 62
     0
 10
309.681
 20
114.897
 30
0.0
 11
309.772
 21
114.435
 31
0.0
  0
LINE
  8
0
 62
     0
 10
309.772
 20
114.435
 30
0.0
 11
309.827
 21
113.967
 31
0.0
  0
LINE
  8
0
 62
     0
 10
309.827
 20
113.967
 30
0.0
 11
309.846
 21
113.497
 31
0.0
  0
LINE
  8
0
 62
     0
 10
309.846
 20
113.497
 30
0.0
 11
309.846
 21
6.24664
 31
0.0
  0
LINE
  8
0
 62
     0
 10
309.846
 20
6.24664
 30
0.0
 11
309.827
 21
5.77536
 31
0.0
  0
LINE
  8
0
 62
     0
 10
309.827
 20
5.77536
 30
0.0
 11
309.772
 21
5.30684
 31
0.0
  0
LINE
  8
0
 62
     0
 10
309.772
 20
5.30684
 30
0.0
 11
309.681
 21
4.84519
 31
0.0
  0
LINE
  8
0
 62
     0
 10
309.681
 20
4.84519
 30
0.0
 11
309.553
 21
4.3918
 31
0.0
  0
LINE
  8
0
 62
     0
 10
309.553
 20
4.3918
 30
0.0
 11
309.389
 21
3.94945
 31
0.0
  0
LINE
  8
0
 62
     0
 10
309.389
 20
3.94945
 30
0.0
 11
309.193
 21
3.52227
 31
0.0
  0
LINE
  8
0
 62
     0
 10
309.193
 20
3.52227
 30
0.0
 11
308.962
 21
3.11161
 31
0.0
  0
LINE
  8
0
 62
     0
 10
308.962
 20
3.11161
 30
0.0
 11
308.7
 21
2.71887
 31
0.0
  0
LINE
  8
0
 62
     0
 10
308.7
 20
2.71887
 30
0.0
 11
308.409
 21
2.34956
 31
0.0
  0
LINE
  8
0
 62
     0
 10
308.409
 20
2.34956
 30
0.0
 11
308.088
 21
2.00367
 31
0.0
  0
LINE
  8
0
 62
     0
 10
308.088
 20
2.00367
 30
0.0
 11
307.742
 21
1.68258
 31
0.0
  0
LINE
  8
0
 62
     0
 10
307.742
 20
1.68258
 30
0.0
 11
307.373
 21
1.39182
 31
0.0
  0
LINE
  8
0
 62
     0
 10
307.373
 20
1.39182
 30
0.0
 11
306.98
 21
1.12999
 31
0.0
  0
LINE
  8
0
 62
     0
 10
306.98
 20
1.12999
 30
0.0
 11
306.57
 21
0.898483
 31
0.0
  0
LINE
  8
0
 62
     0
 10
306.57
 20
0.898483
 30
0.0
 11
306.142
 21
0.7028
 31
0.0
  0
LINE
  8
0
 62
     0
 10
306.142
 20
0.7028
 30
0.0
 11
305.7
 21
0.538812
 31
0.0
  0
LINE
  8
0
 62
     0
 10
305.7
 20
0.538812
 30
0.0
 11
305.247
 21
0.410655
 31
0.0
  0
LINE
  8
0
 62
     0
 10
305.247
 20
0.410655
 30
0.0
 11
304.785
 21
0.319705
 31
0.0
  0
LINE
  8
0
 62
     0
 10
304.785
 20
0.319705
 30
0.0
 11
304.316
 21
0.264583
 31
0.0
  0
LINE
  8
0
 62
     0
 10
304.316
 20
0.264583
 30
0.0
 11
303.846
 21
0.246669
 31
0.0
  0
LINE
  8
0
 62
     0
 10
303.846
 20
0.246669
 30
0.0
 11
6.09505
 21
0.246669
 31
0.0
  0
LINE
  8
0
 62
     0
 10
6.09505
 20
0.246669
 30
0.0
 11
5.62515
 21
0.264583
 31
0.0
  0
LINE
  8
0
 62
     0
 10
5.62515
 20
0.264583
 30
0.0
 11
5.15662
 21
0.319705
 31
0.0
  0
LINE
  8
0
 62
     0
 10
5.15662
 20
0.319705
 30
0.0
 11
4.69498
 21
0.410655
 31
0.0
  0
LINE
  8
0
 62
     0
 10
4.69498
 20
0.410655
 30
0.0
 11
4.24021
 21
0.538812
 31
0.0
  0
LINE
  8
0
 62
     0
 10
4.24021
 20
0.538812
 30
0.0
 11
3.79786
 21
0.7028
 31
0.0
  0
LINE
  8
0
 62
     0
 10
3.79786
 20
0.7028
 30
0.0
 11
3.37206
 21
0.898483
 31
0.0
  0
LINE
  8
0
 62
     0
 10
3.37206
 20
0.898483
 30
0.0
 11
2.96003
 21
1.12999
 31
0.0
  0
LINE
  8
0
 62
     0
 10
2.96003
 20
1.12999
 30
0.0
 11
2.56866
 21
1.39182
 31
0.0
  0
LINE
  8
0
 62
     0
 10
2.56866
 20
1.39182
 30
0.0
 11
2.19797
 21
1.68258
 31
0.0
  0
LINE
  8
0
 62
     0
 10
2.19797
 20
1.68258
 30
0.0
 11
1.85208
 21
2.00367
 31
0.0
  0
LINE
  8
0
 62
     0
 10
1.85208
 20
2.00367
 30
0.0
 11
1.53238
 21
2.34956
 31
0.0
  0
LINE
  8
0
 62
     0
 10
1.53238
 20
2.34956
 30
0.0
 11
1.24024
 21
2.71887
 31
0.0
  0
LINE
  8
0
 62
     0
 10
1.24024
 20
2.71887
 30
0.0
 11
0.979784
 21
3.11161
 31
0.0
  0
LINE
  8
0
 62
     0
 10
0.979784
 20
3.11161
 30
0.0
 11
0.748273
 21
3.52227
 31
0.0
  0
LINE
  8
0
 62
     0
 10
0.748273
 20
3.52227
 30
0.0
 11
0.551215
 21
3.94945
 31
0.0
  0
LINE
  8
0
 62
     0
 10
0.551215
 20
3.94945
 30
0.0
 11
0.388606
 21
4.3918
 31
0.0
  0
LINE
  8
0
 62
     0
 10
0.388606
 20
4.3918
 30
0.0
 11
0.260449
 21
4.84519
 31
0.0
  0
LINE
  8
0
 62
     0
 10
0.260449
 20
4.84519
 30
0.0
 11
0.168121
 21
5.30684
 31
0.0
  0
LINE
  8
0
 62
     0
 10
0.168121
 20
5.30684
 30
0.0
 11
0.112999
 21
5.77536
 31
0.0
  0
LINE
  8
0
 62
     0
 10
0.112999
 20
5.77536
 30
0.0
 11
0.0950846
 21
6.24664
 31
0.0
  0
LINE
  8
0
 62
     0
 10
0.0950846
 20
6.24664
 30
0.0
 11
0.0950846
 21
113.497
 31
0.0
  0
LINE
  8
0
 62
     0
 10
0.0950846
 20
113.497
 30
0.0
 11
0.112999
 21
113.967
 31
0.0
  0
LINE
  8
0
 62
     0
 10
0.112999
 20
113.967
 30
0.0
 11
0.168121
 21
114.435
 31
0.0
  0
LINE
  8
0
 62
     0
 10
0.168121
 20
114.435
 30
0.0
 11
0.260449
 21
114.897
 31
0.0
  0
LINE
  8
0
 62
     0
 10
0.260449
 20
114.897
 30
0.0
 11
0.388606
 21
115.351
 31
0.0
  0
LINE
  8
0
 62
     0
 10
0.388606
 20
115.351
 30
0.0
 11
0.551215
 21
115.794
 31
0.0
  0
LINE
  8
0
 62
     0
 10
0.551215
 20
115.794
 30
0.0
 11
0.748273
 21
116.219
 31
0.0
  0
LINE
  8
0
 62
     0
 10
0.748273
 20
116.219
 30
0.0
 11
0.979784
 21
116.632
 31
0.0
  0
LINE
  8
0
 62
     0
 10
0.979784
 20
116.632
 30
0.0
 11
1.24024
 21
117.023
 31
0.0
  0
LINE
  8
0
 62
     0
 10
1.24024
 20
117.023
 30
0.0
 11
1.53238
 21
117.394
 31
0.0
  0
LINE
  8
0
 62
     0
 10
1.53238
 20
117.394
 30
0.0
 11
1.85208
 21
117.74
 31
0.0
  0
LINE
  8
0
 62
     0
 10
1.85208
 20
117.74
 30
0.0
 11
2.19797
 21
118.059
 31
0.0
  0
LINE
  8
0
 62
     0
 10
2.19797
 20
118.059
 30
0.0
 11
2.56866
 21
118.351
 31
0.0
  0
LINE
  8
0
 62
     0
 10
2.56866
 20
118.351
 30
0.0
 11
2.96003
 21
118.612
 31
0.0
  0
LINE
  8
0
 62
     0
 10
2.96003
 20
118.612
 30
0.0
 11
3.37206
 21
118.843
 31
0.0
  0
LINE
  8
0
 62
     0
 10
3.37206
 20
118.843
 30
0.0
 11
3.79786
 21
119.041
 31
0.0
  0
LINE
  8
0
 62
     0
 10
3.79786
 20
119.041
 30
0.0
 11
4.24021
 21
119.203
 31
0.0
  0
LINE
  8
0
 62
     0
 10
4.24021
 20
119.203
 30
0.0
 11
4.69498
 21
119.331
 31
0.0
  0
LINE
  8
0
 62
     0
 10
4.69498
 20
119.331
 30
0.0
 11
5.15662
 21
119.423
 31
0.0
  0
LINE
  8
0
 62
     0
 10
5.15662
 20
119.423
 30
0.0
 11
5.62515
 21
119.479
 31
0.0
  0
LINE
  8
0
 62
     0
 10
5.62515
 20
119.479
 30
0.0
 11
6.09505
 21
119.496
 31
0.0
  0
LINE
  8
0
 62
     0
 10
6.09505
 20
119.496
 30
0.0
 11
303.846
 21
119.496
 31
0.0
  0
LINE
  8
0
 62
     0
 10
303.846
 20
119.496
 30
0.0
 11
304.316
 21
119.479
 31
0.0
  0
LINE
  8
0
 62
     0
 10
303.506
 20
7.29259
 30
0.0
 11
303.2
 21
7.1355
 31
0.0
  0
LINE
  8
0
 62
     0
 10
303.2
 20
7.1355
 30
0.0
 11
302.956
 21
6.89158
 31
0.0
  0
LINE
  8
0
 62
     0
 10
302.956
 20
6.89158
 30
0.0
 11
302.799
 21
6.58566
 31
0.0
  0
LINE
  8
0
 62
     0
 10
302.799
 20
6.58566
 30
0.0
 11
302.747
 21
6.24526
 31
0.0
  0
LINE
  8
0
 62
     0
 10
302.747
 20
6.24526
 30
0.0
 11
302.799
 21
5.90628
 31
0.0
  0
LINE
  8
0
 62
     0
 10
302.799
 20
5.90628
 30
0.0
 11
302.956
 21
5.59897
 31
0.0
  0
LINE
  8
0
 62
     0
 10
302.956
 20
5.59897
 30
0.0
 11
303.2
 21
5.35644
 31
0.0
  0
LINE
  8
0
 62
     0
 10
303.2
 20
5.35644
 30
0.0
 11
303.506
 21
5.19934
 31
0.0
  0
LINE
  8
0
 62
     0
 10
303.506
 20
5.19934
 30
0.0
 11
303.846
 21
5.14558
 31
0.0
  0
LINE
  8
0
 62
     0
 10
303.846
 20
5.14558
 30
0.0
 11
304.185
 21
5.19934
 31
0.0
  0
LINE
  8
0
 62
     0
 10
304.185
 20
5.19934
 30
0.0
 11
304.493
 21
5.35644
 31
0.0
  0
LINE
  8
0
 62
     0
 10
304.493
 20
5.35644
 30
0.0
 11
304.735
 21
5.59897
 31
0.0
  0
LINE
  8
0
 62
     0
 10
304.735
 20
5.59897
 30
0.0
 11
304.892
 21
5.90628
 31
0.0
  0
LINE
  8
0
 62
     0
 10
304.892
 20
5.90628
 30
0.0
 11
304.946
 21
6.24526
 31
0.0
  0
LINE
  8
0
 62
     0
 10
304.946
 20
6.24526
 30
0.0
 11
304.892
 21
6.58566
 31
0.0
  0
LINE
  8
0
 62
     0
 10
304.892
 20
6.58566
 30
0.0
 11
304.735
 21
6.89158
 31
0.0
  0
LINE
  8
0
 62
     0
 10
304.735
 20
6.89158
 30
0.0
 11
304.493
 21
7.1355
 31
0.0
  0
LINE
  8
0
 62
     0
 10
304.493
 20
7.1355
 30
0.0
 11
304.185
 21
7.29259
 31
0.0
  0
LINE
  8
0
 62
     0
 10
304.185
 20
7.29259
 30
0.0
 11
303.846
 21
7.34494
 31
0.0
  0
LINE
  8
0
 62
     0
 10
303.846
 20
7.34494
 30
0.0
 11
303.506
 21
7.29259
 31
0.0
  0
LINE
  8
0
 62
     0
 10
204.256
 20
7.29259
 30
0.0
 11
203.95
 21
7.1355
 31
0.0
  0
LINE
  8
0
 62
     0
 10
203.95
 20
7.1355
 30
0.0
 11
203.706
 21
6.89158
 31
0.0
  0
LINE
  8
0
 62
     0
 10
203.706
 20
6.89158
 30
0.0
 11
203.55
 21
6.58566
 31
0.0
  0
LINE
  8
0
 62
     0
 10
203.55
 20
6.58566
 30
0.0
 11
203.495
 21
6.24526
 31
0.0
  0
LINE
  8
0
 62
     0
 10
203.495
 20
6.24526
 30
0.0
 11
203.55
 21
5.90628
 31
0.0
  0
LINE
  8
0
 62
     0
 10
203.55
 20
5.90628
 30
0.0
 11
203.706
 21
5.59897
 31
0.0
  0
LINE
  8
0
 62
     0
 10
203.706
 20
5.59897
 30
0.0
 11
203.95
 21
5.35644
 31
0.0
  0
LINE
  8
0
 62
     0
 10
203.95
 20
5.35644
 30
0.0
 11
204.256
 21
5.19934
 31
0.0
  0
LINE
  8
0
 62
     0
 10
204.256
 20
5.19934
 30
0.0
 11
204.596
 21
5.14558
 31
0.0
  0
LINE
  8
0
 62
     0
 10
204.596
 20
5.14558
 30
0.0
 11
204.935
 21
5.19934
 31
0.0
  0
LINE
  8
0
 62
     0
 10
204.935
 20
5.19934
 30
0.0
 11
205.242
 21
5.35644
 31
0.0
  0
LINE
  8
0
 62
     0
 10
205.242
 20
5.35644
 30
0.0
 11
205.486
 21
5.59897
 31
0.0
  0
LINE
  8
0
 62
     0
 10
205.486
 20
5.59897
 30
0.0
 11
205.642
 21
5.90628
 31
0.0
  0
LINE
  8
0
 62
     0
 10
205.642
 20
5.90628
 30
0.0
 11
205.696
 21
6.24526
 31
0.0
  0
LINE
  8
0
 62
     0
 10
205.696
 20
6.24526
 30
0.0
 11
205.642
 21
6.58566
 31
0.0
  0
LINE
  8
0
 62
     0
 10
205.642
 20
6.58566
 30
0.0
 11
205.486
 21
6.89158
 31
0.0
  0
LINE
  8
0
 62
     0
 10
205.486
 20
6.89158
 30
0.0
 11
205.242
 21
7.1355
 31
0.0
  0
LINE
  8
0
 62
     0
 10
205.242
 20
7.1355
 30
0.0
 11
204.935
 21
7.29259
 31
0.0
  0
LINE
  8
0
 62
     0
 10
204.935
 20
7.29259
 30
0.0
 11
204.596
 21
7.34494
 31
0.0
  0
LINE
  8
0
 62
     0
 10
204.596
 20
7.34494
 30
0.0
 11
204.256
 21
7.29259
 31
0.0
  0
LINE
  8
0
 62
     0
 10
105.005
 20
7.29259
 30
0.0
 11
104.698
 21
7.1355
 31
0.0
  0
LINE
  8
0
 62
     0
 10
104.698
 20
7.1355
 30
0.0
 11
104.455
 21
6.89158
 31
0.0
  0
LINE
  8
0
 62
     0
 10
104.455
 20
6.89158
 30
0.0
 11
104.299
 21
6.58566
 31
0.0
  0
LINE
  8
0
 62
     0
 10
104.299
 20
6.58566
 30
0.0
 11
104.246
 21
6.24526
 31
0.0
  0
LINE
  8
0
 62
     0
 10
104.246
 20
6.24526
 30
0.0
 11
104.299
 21
5.90628
 31
0.0
  0
LINE
  8
0
 62
     0
 10
104.299
 20
5.90628
 30
0.0
 11
104.455
 21
5.59897
 31
0.0
  0
LINE
  8
0
 62
     0
 10
104.455
 20
5.59897
 30
0.0
 11
104.698
 21
5.35644
 31
0.0
  0
LINE
  8
0
 62
     0
 10
104.698
 20
5.35644
 30
0.0
 11
105.005
 21
5.19934
 31
0.0
  0
LINE
  8
0
 62
     0
 10
105.005
 20
5.19934
 30
0.0
 11
105.345
 21
5.14558
 31
0.0
  0
LINE
  8
0
 62
     0
 10
105.345
 20
5.14558
 30
0.0
 11
105.686
 21
5.19934
 31
0.0
  0
LINE
  8
0
 62
     0
 10
105.686
 20
5.19934
 30
0.0
 11
105.992
 21
5.35644
 31
0.0
  0
LINE
  8
0
 62
     0
 10
105.992
 20
5.35644
 30
0.0
 11
106.236
 21
5.59897
 31
0.0
  0
LINE
  8
0
 62
     0
 10
106.236
 20
5.59897
 30
0.0
 11
106.391
 21
5.90628
 31
0.0
  0
LINE
  8
0
 62
     0
 10
106.391
 20
5.90628
 30
0.0
 11
106.445
 21
6.24526
 31
0.0
  0
LINE
  8
0
 62
     0
 10
106.445
 20
6.24526
 30
0.0
 11
106.391
 21
6.58566
 31
0.0
  0
LINE
  8
0
 62
     0
 10
106.391
 20
6.58566
 30
0.0
 11
106.236
 21
6.89158
 31
0.0
  0
LINE
  8
0
 62
     0
 10
106.236
 20
6.89158
 30
0.0
 11
105.992
 21
7.1355
 31
0.0
  0
LINE
  8
0
 62
     0
 10
105.992
 20
7.1355
 30
0.0
 11
105.686
 21
7.29259
 31
0.0
  0
LINE
  8
0
 62
     0
 10
105.686
 20
7.29259
 30
0.0
 11
105.345
 21
7.34494
 31
0.0
  0
LINE
  8
0
 62
     0
 10
105.345
 20
7.34494
 30
0.0
 11
105.005
 21
7.29259
 31
0.0
  0
LINE
  8
0
 62
     0
 10
5.75606
 20
7.29259
 30
0.0
 11
5.44876
 21
7.1355
 31
0.0
  0
LINE
  8
0
 62
     0
 10
5.44876
 20
7.1355
 30
0.0
 11
5.20485
 21
6.89158
 31
0.0
  0
LINE
  8
0
 62
     0
 10
5.20485
 20
6.89158
 30
0.0
 11
5.04913
 21
6.58566
 31
0.0
  0
LINE
  8
0
 62
     0
 10
5.04913
 20
6.58566
 30
0.0
 11
4.9954
 21
6.24526
 31
0.0
  0
LINE
  8
0
 62
     0
 10
4.9954
 20
6.24526
 30
0.0
 11
5.04913
 21
5.90628
 31
0.0
  0
LINE
  8
0
 62
     0
 10
5.04913
 20
5.90628
 30
0.0
 11
5.20485
 21
5.59897
 31
0.0
  0
LINE
  8
0
 62
     0
 10
5.20485
 20
5.59897
 30
0.0
 11
5.44876
 21
5.35644
 31
0.0
  0
LINE
  8
0
 62
     0
 10
5.44876
 20
5.35644
 30
0.0
 11
5.75606
 21
5.19934
 31
0.0
  0
LINE
  8
0
 62
     0
 10
5.75606
 20
5.19934
 30
0.0
 11
6.09505
 21
5.14558
 31
0.0
  0
LINE
  8
0
 62
     0
 10
6.09505
 20
5.14558
 30
0.0
 11
6.43407
 21
5.19934
 31
0.0
  0
LINE
  8
0
 62
     0
 10
6.43407
 20
5.19934
 30
0.0
 11
6.74137
 21
5.35644
 31
0.0
  0
LINE
  8
0
 62
     0
 10
6.74137
 20
5.35644
 30
0.0
 11
6.98391
 21
5.59897
 31
0.0
  0
LINE
  8
0
 62
     0
 10
6.98391
 20
5.59897
 30
0.0
 11
7.141
 21
5.90628
 31
0.0
  0
LINE
  8
0
 62
     0
 10
7.141
 20
5.90628
 30
0.0
 11
7.1961
 21
6.24526
 31
0.0
  0
LINE
  8
0
 62
     0
 10
7.1961
 20
6.24526
 30
0.0
 11
7.141
 21
6.58566
 31
0.0
  0
LINE
  8
0
 62
     0
 10
7.141
 20
6.58566
 30
0.0
 11
6.98391
 21
6.89158
 31
0.0
  0
LINE
  8
0
 62
     0
 10
6.98391
 20
6.89158
 30
0.0
 11
6.74137
 21
7.1355
 31
0.0
  0
LINE
  8
0
 62
     0
 10
6.74137
 20
7.1355
 30
0.0
 11
6.43407
 21
7.29259
 31
0.0
  0
LINE
  8
0
 62
     0
 10
6.43407
 20
7.29259
 30
0.0
 11
6.09505
 21
7.34494
 31
0.0
  0
LINE
  8
0
 62
     0
 10
6.09505
 20
7.34494
 30
0.0
 11
5.75606
 21
7.29259
 31
0.0
  0
LINE
  8
0
 62
     0
 10
12.0951
 20
107.497
 30
0.0
 11
12.0951
 21
31.2952
 31
0.0
  0
LINE
  8
0
 62
     0
 10
12.0951
 20
31.2952
 30
0.0
 11
40.67
 21
31.2952
 31
0.0
  0
LINE
  8
0
 62
     0
 10
40.67
 20
31.2952
 30
0.0
 11
40.67
 21
12.2466
 31
0.0
  0
LINE
  8
0
 62
     0
 10
40.67
 20
12.2466
 30
0.0
 11
250.221
 21
12.2466
 31
0.0
  0
LINE
  8
0
 62
     0
 10
250.221
 20
12.2466
 30
0.0
 11
250.221
 21
31.2952
 31
0.0
  0
LINE
  8
0
 62
     0
 10
250.221
 20
31.2952
 30
0.0
 11
297.846
 21
31.2952
 31
0.0
  0
LINE
  8
0
 62
     0
 10
297.846
 20
31.2952
 30
0.0
 11
297.846
 21
107.497
 31
0.0
  0
LINE
  8
0
 62
     0
 10
297.846
 20
107.497
 30
0.0
 11
12.0951
 21
107.497
 31
0.0
  0
LINE
  8
0
 62
     0
 10
105.005
 20
114.543
 30
0.0
 11
104.698
 21
114.387
 31
0.0
  0
LINE
  8
0
 62
     0
 10
104.698
 20
114.387
 30
0.0
 11
104.455
 21
114.143
 31
0.0
  0
LINE
  8
0
 62
     0
 10
104.455
 20
114.143
 30
0.0
 11
104.299
 21
113.836
 31
0.0
  0
LINE
  8
0
 62
     0
 10
104.299
 20
113.836
 30
0.0
 11
104.246
 21
113.497
 31
0.0
  0
LINE
  8
0
 62
     0
 10
104.246
 20
113.497
 30
0.0
 11
104.299
 21
113.158
 31
0.0
  0
LINE
  8
0
 62
     0
 10
104.299
 20
113.158
 30
0.0
 11
104.455
 21
112.85
 31
0.0
  0
LINE
  8
0
 62
     0
 10
104.455
 20
112.85
 30
0.0
 11
104.698
 21
112.608
 31
0.0
  0
LINE
  8
0
 62
     0
 10
104.698
 20
112.608
 30
0.0
 11
105.005
 21
112.451
 31
0.0
  0
LINE
  8
0
 62
     0
 10
105.005
 20
112.451
 30
0.0
 11
105.345
 21
112.396
 31
0.0
  0
LINE
  8
0
 62
     0
 10
105.345
 20
112.396
 30
0.0
 11
105.686
 21
112.451
 31
0.0
  0
LINE
  8
0
 62
     0
 10
105.686
 20
112.451
 30
0.0
 11
105.992
 21
112.608
 31
0.0
  0
LINE
  8
0
 62
     0
 10
105.992
 20
112.608
 30
0.0
 11
106.236
 21
112.85
 31
0.0
  0
LINE
  8
0
 62
     0
 10
106.236
 20
112.85
 30
0.0
 11
106.391
 21
113.158
 31
0.0
  0
LINE
  8
0
 62
     0
 10
106.391
 20
113.158
 30
0.0
 11
106.445
 21
113.497
 31
0.0
  0
LINE
  8
0
 62
     0
 10
106.445
 20
113.497
 30
0.0
 11
106.391
 21
113.836
 31
0.0
  0
LINE
  8
0
 62
     0
 10
106.391
 20
113.836
 30
0.0
 11
106.236
 21
114.143
 31
0.0
  0
LINE
  8
0
 62
     0
 10
106.236
 20
114.143
 30
0.0
 11
105.992
 21
114.387
 31
0.0
  0
LINE
  8
0
 62
     0
 10
105.992
 20
114.387
 30
0.0
 11
105.686
 21
114.543
 31
0.0
  0
LINE
  8
0
 62
     0
 10
105.686
 20
114.543
 30
0.0
 11
105.345
 21
114.596
 31
0.0
  0
LINE
  8
0
 62
     0
 10
105.345
 20
114.596
 30
0.0
 11
105.005
 21
114.543
 31
0.0
  0
LINE
  8
0
 62
     0
 10
204.256
 20
114.543
 30
0.0
 11
203.95
 21
114.387
 31
0.0
  0
LINE
  8
0
 62
     0
 10
203.95
 20
114.387
 30
0.0
 11
203.706
 21
114.143
 31
0.0
  0
LINE
  8
0
 62
     0
 10
203.706
 20
114.143
 30
0.0
 11
203.55
 21
113.836
 31
0.0
  0
LINE
  8
0
 62
     0
 10
203.55
 20
113.836
 30
0.0
 11
203.495
 21
113.497
 31
0.0
  0
LINE
  8
0
 62
     0
 10
203.495
 20
113.497
 30
0.0
 11
203.55
 21
113.158
 31
0.0
  0
LINE
  8
0
 62
     0
 10
203.55
 20
113.158
 30
0.0
 11
203.706
 21
112.85
 31
0.0
  0
LINE
  8
0
 62
     0
 10
203.706
 20
112.85
 30
0.0
 11
203.95
 21
112.608
 31
0.0
  0
LINE
  8
0
 62
     0
 10
203.95
 20
112.608
 30
0.0
 11
204.256
 21
112.451
 31
0.0
  0
LINE
  8
0
 62
     0
 10
204.256
 20
112.451
 30
0.0
 11
204.596
 21
112.396
 31
0.0
  0
LINE
  8
0
 62
     0
 10
204.596
 20
112.396
 30
0.0
 11
204.935
 21
112.451
 31
0.0
  0
LINE
  8
0
 62
     0
 10
204.935
 20
112.451
 30
0.0
 11
205.242
 21
112.608
 31
0.0
  0
LINE
  8
0
 62
     0
 10
205.242
 20
112.608
 30
0.0
 11
205.486
 21
112.85
 31
0.0
  0
LINE
  8
0
 62
     0
 10
205.486
 20
112.85
 30
0.0
 11
205.642
 21
113.158
 31
0.0
  0
LINE
  8
0
 62
     0
 10
205.642
 20
113.158
 30
0.0
 11
205.696
 21
113.497
 31
0.0
  0
LINE
  8
0
 62
     0
 10
205.696
 20
113.497
 30
0.0
 11
205.642
 21
113.836
 31
0.0
  0
LINE
  8
0
 62
     0
 10
205.642
 20
113.836
 30
0.0
 11
205.486
 21
114.143
 31
0.0
  0
LINE
  8
0
 62
     0
 10
205.486
 20
114.143
 30
0.0
 11
205.242
 21
114.387
 31
0.0
  0
LINE
  8
0
 62
     0
 10
205.242
 20
114.387
 30
0.0
 11
204.935
 21
114.543
 31
0.0
  0
LINE
  8
0
 62
     0
 10
204.935
 20
114.543
 30
0.0
 11
204.596
 21
114.596
 31
0.0
  0
LINE
  8
0
 62
     0
 10
204.596
 20
114.596
 30
0.0
 11
204.256
 21
114.543
 31
0.0
  0
LINE
  8
0
 62
     0
 10
303.506
 20
114.543
 30
0.0
 11
303.2
 21
114.387
 31
0.0
  0
LINE
  8
0
 62
     0
 10
303.2
 20
114.387
 30
0.0
 11
302.956
 21
114.143
 31
0.0
  0
LINE
  8
0
 62
     0
 10
302.956
 20
114.143
 30
0.0
 11
302.799
 21
113.836
 31
0.0
  0
LINE
  8
0
 62
     0
 10
302.799
 20
113.836
 30
0.0
 11
302.747
 21
113.497
 31
0.0
  0
LINE
  8
0
 62
     0
 10
302.747
 20
113.497
 30
0.0
 11
302.799
 21
113.158
 31
0.0
  0
LINE
  8
0
 62
     0
 10
302.799
 20
113.158
 30
0.0
 11
302.956
 21
112.85
 31
0.0
  0
LINE
  8
0
 62
     0
 10
302.956
 20
112.85
 30
0.0
 11
303.2
 21
112.608
 31
0.0
  0
LINE
  8
0
 62
     0
 10
303.2
 20
112.608
 30
0.0
 11
303.506
 21
112.451
 31
0.0
  0
LINE
  8
0
 62
     0
 10
303.506
 20
112.451
 30
0.0
 11
303.846
 21
112.396
 31
0.0
  0
LINE
  8
0
 62
     0
 10
303.846
 20
112.396
 30
0.0
 11
304.185
 21
112.451
 31
0.0
  0
LINE
  8
0
 62
     0
 10
304.185
 20
112.451
 30
0.0
 11
304.493
 21
112.608
 31
0.0
  0
LINE
  8
0
 62
     0
 10
304.493
 20
112.608
 30
0.0
 11
304.735
 21
112.85
 31
0.0
  0
LINE
  8
0
 62
     0
 10
304.735
 20
112.85
 30
0.0
 11
304.892
 21
113.158
 31
0.0
  0
LINE
  8
0
 62
     0
 10
304.892
 20
113.158
 30
0.0
 11
304.946
 21
113.497
 31
0.0
  0
LINE
  8
0
 62
     0
 10
304.946
 20
113.497
 30
0.0
 11
304.892
 21
113.836
 31
0.0
  0
LINE
  8
0
 62
     0
 10
304.892
 20
113.836
 30
0.0
 11
304.735
 21
114.143
 31
0.0
  0
LINE
  8
0
 62
     0
 10
304.735
 20
114.143
 30
0.0
 11
304.493
 21
114.387
 31
0.0
  0
LINE
  8
0
 62
     0
 10
304.493
 20
114.387
 30
0.0
 11
304.185
 21
114.543
 31
0.0
  0
LINE
  8
0
 62
     0
 10
304.185
 20
114.543
 30
0.0
 11
303.846
 21
114.596
 31
0.0
  0
LINE
  8
0
 62
     0
 10
303.846
 20
114.596
 30
0.0
 11
303.506
 21
114.543
 31
0.0
  0
LINE
  8
0
 62
     0
 10
5.75606
 20
114.543
 30
0.0
 11
5.44876
 21
114.387
 31
0.0
  0
LINE
  8
0
 62
     0
 10
5.44876
 20
114.387
 30
0.0
 11
5.20485
 21
114.143
 31
0.0
  0
LINE
  8
0
 62
     0
 10
5.20485
 20
114.143
 30
0.0
 11
5.04913
 21
113.836
 31
0.0
  0
LINE
  8
0
 62
     0
 10
5.04913
 20
113.836
 30
0.0
 11
4.9954
 21
113.497
 31
0.0
  0
LINE
  8
0
 62
     0
 10
4.9954
 20
113.497
 30
0.0
 11
5.04913
 21
113.158
 31
0.0
  0
LINE
  8
0
 62
     0
 10
5.04913
 20
113.158
 30
0.0
 11
5.20485
 21
112.85
 31
0.0
  0
LINE
  8
0
 62
     0
 10
5.20485
 20
112.85
 30
0.0
 11
5.44876
 21
112.608
 31
0.0
  0
LINE
  8
0
 62
     0
 10
5.44876
 20
112.608
 30
0.0
 11
5.75606
 21
112.451
 31
0.0
  0
LINE
  8
0
 62
     0
 10
5.75606
 20
112.451
 30
0.0
 11
6.09505
 21
112.396
 31
0.0
  0
LINE
  8
0
 62
     0
 10
6.09505
 20
112.396
 30
0.0
 11
6.43407
 21
112.451
 31
0.0
  0
LINE
  8
0
 62
     0
 10
6.43407
 20
112.451
 30
0.0
 11
6.74137
 21
112.608
 31
0.0
  0
LINE
  8
0
 62
     0
 10
6.74137
 20
112.608
 30
0.0
 11
6.98391
 21
112.85
 31
0.0
  0
LINE
  8
0
 62
     0
 10
6.98391
 20
112.85
 30
0.0
 11
7.141
 21
113.158
 31
0.0
  0
LINE
  8
0
 62
     0
 10
7.141
 20
113.158
 30
0.0
 11
7.1961
 21
113.497
 31
0.0
  0
LINE
  8
0
 62
     0
 10
7.1961
 20
113.497
 30
0.0
 11
7.141
 21
113.836
 31
0.0
  0
LINE
  8
0
 62
     0
 10
7.141
 20
113.836
 30
0.0
 11
6.98391
 21
114.143
 31
0.0
  0
LINE
  8
0
 62
     0
 10
6.98391
 20
114.143
 30
0.0
 11
6.74137
 21
114.387
 31
0.0
  0
LINE
  8
0
 62
     0
 10
6.74137
 20
114.387
 30
0.0
 11
6.43407
 21
114.543
 31
0.0
  0
LINE
  8
0
 62
     0
 10
6.43407
 20
114.543
 30
0.0
 11
6.09505
 21
114.596
 31
0.0
  0
LINE
  8
0
 62
     0
 10
6.09505
 20
114.596
 30
0.0
 11
5.75606
 21
114.543
 31
0.0
  0
ENDSEC
  0
EOF
