<?xml version="1.0"?>
<!-- Generated by SVGo -->
<svg width="319.752mm" height="129.251mm"
     viewBox="0.000 0.000 319.752 129.251"
     xmlns="http://www.w3.org/2000/svg" 
     xmlns:xlink="http://www.w3.org/1999/xlink">
<polygon points="309.222,5.019 309.690,5.074 310.152,5.166 310.606,5.294 311.048,5.457 311.475,5.654 311.886,5.885 312.278,6.146 312.648,6.438 312.994,6.758 313.314,7.104 313.606,7.474 313.867,7.866 314.098,8.277 314.295,8.704 314.458,9.146 314.586,9.600 314.678,10.062 314.733,10.530 314.752,11.001 314.752,118.251 314.733,118.722 314.678,119.190 314.586,119.652 314.458,120.106 314.295,120.548 314.098,120.975 313.867,121.386 313.606,121.778 313.314,122.148 312.994,122.494 312.648,122.814 312.278,123.106 311.886,123.367 311.475,123.598 311.048,123.795 310.606,123.958 310.152,124.086 309.690,124.178 309.222,124.233 308.752,124.251 11.001,124.251 10.530,124.233 10.062,124.178 9.600,124.086 9.146,123.958 8.704,123.795 8.277,123.598 7.866,123.367 7.474,123.106 7.104,122.814 6.758,122.494 6.438,122.148 6.146,121.778 5.885,121.386 5.654,120.975 5.457,120.548 5.294,120.106 5.166,119.652 5.074,119.190 5.019,118.722 5.000,118.251 5.001,11.000 5.019,10.530 5.074,10.062 5.166,9.600 5.294,9.146 5.457,8.704 5.654,8.277 5.885,7.866 6.146,7.474 6.438,7.104 6.758,6.758 7.104,6.438 7.474,6.146 7.866,5.885 8.277,5.654 8.704,5.457 9.146,5.294 9.600,5.166 10.062,5.074 10.530,5.019 11.001,5.000 308.752,5.000" style="fill:none;stroke-width:0.050000mm;stroke:black"/>
<polygon points="308.412,117.205 308.105,117.362 307.862,117.605 307.705,117.912 307.652,118.252 307.705,118.591 307.862,118.898 308.105,119.141 308.412,119.298 308.752,119.352 309.091,119.298 309.398,119.141 309.641,118.898 309.798,118.591 309.852,118.252 309.798,117.912 309.641,117.605 309.398,117.362 309.091,117.205 308.752,117.152" style="fill:none;stroke-width:0.050000mm;stroke:black"/>
<polygon points="209.161,117.205 208.855,117.362 208.611,117.605 208.455,117.912 208.401,118.252 208.455,118.591 208.611,118.898 208.855,119.141 209.161,119.298 209.501,119.352 209.841,119.298 210.148,119.141 210.391,118.898 210.547,118.591 210.601,118.252 210.547,117.912 210.391,117.605 210.148,117.362 209.841,117.205 209.501,117.152" style="fill:none;stroke-width:0.050000mm;stroke:black"/>
<polygon points="109.911,117.205 109.604,117.362 109.361,117.605 109.205,117.912 109.151,118.252 109.205,118.591 109.361,118.898 109.604,119.141 109.911,119.298 110.251,119.352 110.591,119.298 110.897,119.141 111.141,118.898 111.297,118.591 111.351,118.252 111.297,117.912 111.141,117.605 110.897,117.362 110.591,117.205 110.251,117.152" style="fill:none;stroke-width:0.050000mm;stroke:black"/>
<polygon points="10.661,117.205 10.354,117.362 10.111,117.605 9.954,117.912 9.901,118.252 9.954,118.591 10.111,118.898 10.354,119.141 10.661,119.298 11.001,119.352 11.340,119.298 11.647,119.141 11.890,118.898 12.047,118.591 12.101,118.252 12.047,117.912 11.890,117.605 11.647,117.362 11.340,117.205 11.001,117.152" style="fill:none;stroke-width:0.050000mm;stroke:black"/>
<polygon points="17.000,17.000 17.000,93.202 45.575,93.202 45.575,112.251 255.127,112.251 255.127,93.202 302.752,93.202 302.752,17.000" style="fill:none;stroke-width:0.050000mm;stroke:black"/>
<polygon points="109.911,9.954 109.604,10.111 109.361,10.354 109.205,10.661 109.151,11.001 109.205,11.340 109.361,11.647 109.604,11.890 109.911,12.047 110.251,12.101 110.591,12.047 110.897,11.890 111.141,11.647 111.297,11.340 111.351,11.001 111.297,10.661 111.141,10.354 110.897,10.111 110.591,9.954 110.251,9.901" style="fill:none;stroke-width:0.050000mm;stroke:black"/>
<polygon points="209.161,9.954 208.855,10.111 208.611,10.354 208.455,10.661 208.401,11.001 208.455,11.340 208.611,11.647 208.855,11.890 209.161,12.047 209.501,12.101 209.841,12.047 210.148,11.890 210.391,11.647 210.547,11.340 210.601,11.001 210.547,10.661 210.391,10.354 210.148,10.111 209.841,9.954 209.501,9.901" style="fill:none;stroke-width:0.050000mm;stroke:black"/>
<polygon points="308.412,9.954 308.105,10.111 307.862,10.354 307.705,10.661 307.652,11.001 307.705,11.340 307.862,11.647 308.105,11.890 308.412,12.047 308.752,12.101 309.091,12.047 309.398,11.890 309.641,11.647 309.798,11.340 309.852,11.001 309.798,10.661 309.641,10.354 309.398,10.111 309.091,9.954 308.752,9.901" style="fill:none;stroke-width:0.050000mm;stroke:black"/>
<polygon points="10.661,9.954 10.354,10.111 10.111,10.354 9.954,10.661 9.901,11.001 9.954,11.340 10.111,11.647 10.354,11.890 10.661,12.047 11.001,12.101 11.340,12.047 11.647,11.890 11.890,11.647 12.047,11.340 12.101,11.001 12.047,10.661 11.890,10.354 11.647,10.111 11.340,9.954 11.001,9.901" style="fill:none;stroke-width:0.050000mm;stroke:black"/>
</svg>
