<?xml version="1.0"?>
<!-- Generated by SVGo -->
<svg width="319.752mm" height="129.251mm"
     viewBox="0.000 0.000 319.752 129.251"
     xmlns="http://www.w3.org/2000/svg" 
     xmlns:xlink="http://www.w3.org/1999/xlink">
<polygon points="309.222,5.019 309.690,5.074 310.152,5.166 310.606,5.294 311.048,5.457 311.475,5.654 311.886,5.885 312.278,6.146 312.648,6.438 312.994,6.758 313.314,7.104 313.606,7.474 313.867,7.866 314.098,8.277 314.295,8.704 314.458,9.146 314.586,9.600 314.678,10.062 314.733,10.530 314.752,11.001 314.752,118.251 314.733,118.722 314.678,119.190 314.586,119.652 314.458,120.106 314.295,120.548 314.098,120.975 313.867,121.386 313.606,121.778 313.314,122.148 312.994,122.494 312.648,122.814 312.278,123.106 311.886,123.367 311.475,123.598 311.048,123.795 310.606,123.958 310.152,124.086 309.690,124.178 309.222,124.233 308.752,124.251 11.001,124.251 10.530,124.233 10.062,124.178 9.600,124.086 9.146,123.958 8.704,123.795 8.277,123.598 7.866,123.367 7.474,123.106 7.104,122.814 6.758,122.494 6.438,122.148 6.146,121.778 5.885,121.386 5.654,120.975 5.457,120.548 5.294,120.106 5.166,119.652 5.074,119.190 5.019,118.722 5.000,118.251 5.001,11.000 5.019,10.530 5.074,10.062 5.166,9.600 5.294,9.146 5.457,8.704 5.654,8.277 5.885,7.866 6.146,7.474 6.438,7.104 6.758,6.758 7.104,6.438 7.474,6.146 7.866,5.885 8.277,5.654 8.704,5.457 9.146,5.294 9.600,5.166 10.062,5.074 10.530,5.019 11.001,5.000 308.752,5.000" style="fill:none;stroke-width:0.050000mm;stroke:black"/>
<polygon points="308.412,117.205 308.105,117.362 307.862,117.605 307.705,117.912 307.652,118.252 307.705,118.591 307.862,118.898 308.105,119.141 308.412,119.298 308.752,119.352 309.091,119.298 309.398,119.141 309.641,118.898 309.798,118.591 309.852,118.252 309.798,117.912 309.641,117.605 309.398,117.362 309.091,117.205 308.752,117.152" style="fill:none;stroke-width:0.050000mm;stroke:black"/>
<polygon points="209.161,117.205 208.855,117.362 208.611,117.605 208.455,117.912 208.401,118.252 208.455,118.591 208.611,118.898 208.855,119.141 209.161,119.298 209.501,119.352 209.841,119.298 210.148,119.141 210.391,118.898 210.547,118.591 210.601,118.252 210.547,117.912 210.391,117.605 210.148,117.362 209.841,117.205 209.501,117.152" style="fill:none;stroke-width:0.050000mm;stroke:black"/>
<polygon points="109.911,117.205 109.604,117.362 109.361,117.605 109.205,117.912 109.151,118.252 109.205,118.591 109.361,118.898 109.604,119.141 109.911,119.298 110.251,119.352 110.591,119.298 110.897,119.141 111.141,118.898 111.297,118.591 111.351,118.252 111.297,117.912 111.141,117.605 110.897,117.362 110.591,117.205 110.251,117.152" style="fill:none;stroke-width:0.050000mm;stroke:black"/>
<polygon points="10.661,117.205 10.354,117.362 10.111,117.605 9.954,117.912 9.901,118.252 9.954,118.591 10.111,118.898 10.354,119.141 10.661,119.298 11.001,119.352 11.340,119.298 11.647,119.141 11.890,118.898 12.047,118.591 12.101,118.252 12.047,117.912 11.890,117.605 11.647,117.362 11.340,117.205 11.001,117.152" style="fill:none;stroke-width:0.050000mm;stroke:black"/>
<polygon points="48.101,95.726 48.101,109.726 62.101,109.726 62.101,95.726" style="fill:none;stroke-width:0.050000mm;stroke:black"/>
<polygon points="71.913,95.726 71.913,109.726 85.913,109.726 85.913,95.726" style="fill:none;stroke-width:0.050000mm;stroke:black"/>
<polygon points="107.632,95.726 107.632,109.726 121.632,109.726 121.632,95.726" style="fill:none;stroke-width:0.050000mm;stroke:black"/>
<polygon points="138.588,95.726 138.588,109.726 152.588,109.726 152.588,95.726" style="fill:none;stroke-width:0.050000mm;stroke:black"/>
<polygon points="174.307,95.726 174.307,109.726 188.307,109.726 188.307,95.726" style="fill:none;stroke-width:0.050000mm;stroke:black"/>
<polygon points="214.788,95.726 214.788,109.726 228.788,109.726 228.788,95.726" style="fill:none;stroke-width:0.050000mm;stroke:black"/>
<polygon points="238.601,95.726 238.601,109.726 252.601,109.726 252.601,95.726" style="fill:none;stroke-width:0.050000mm;stroke:black"/>
<polygon points="31.432,76.676 31.432,90.676 45.432,90.676 45.432,76.676" style="fill:none;stroke-width:0.050000mm;stroke:black"/>
<polygon points="62.388,76.676 62.388,90.676 76.388,90.676 76.388,76.676" style="fill:none;stroke-width:0.050000mm;stroke:black"/>
<polygon points="81.438,76.676 81.438,90.676 95.438,90.676 95.438,76.676" style="fill:none;stroke-width:0.050000mm;stroke:black"/>
<polygon points="100.488,76.676 100.488,90.676 114.488,90.676 114.488,76.676" style="fill:none;stroke-width:0.050000mm;stroke:black"/>
<polygon points="119.538,76.676 119.538,90.676 133.538,90.676 133.538,76.676" style="fill:none;stroke-width:0.050000mm;stroke:black"/>
<polygon points="138.588,76.676 138.588,90.676 152.588,90.676 152.588,76.676" style="fill:none;stroke-width:0.050000mm;stroke:black"/>
<polygon points="157.638,76.676 157.638,90.676 171.638,90.676 171.638,76.676" style="fill:none;stroke-width:0.050000mm;stroke:black"/>
<polygon points="176.688,76.676 176.688,90.676 190.688,90.676 190.688,76.676" style="fill:none;stroke-width:0.050000mm;stroke:black"/>
<polygon points="195.738,76.676 195.738,90.676 209.738,90.676 209.738,76.676" style="fill:none;stroke-width:0.050000mm;stroke:black"/>
<polygon points="214.788,76.676 214.788,90.676 228.788,90.676 228.788,76.676" style="fill:none;stroke-width:0.050000mm;stroke:black"/>
<polygon points="233.838,76.676 233.838,90.676 247.838,90.676 247.838,76.676" style="fill:none;stroke-width:0.050000mm;stroke:black"/>
<polygon points="260.032,76.676 260.032,90.676 274.032,90.676 274.032,76.676" style="fill:none;stroke-width:0.050000mm;stroke:black"/>
<polygon points="286.226,76.676 286.226,90.676 300.226,90.676 300.226,76.676" style="fill:none;stroke-width:0.050000mm;stroke:black"/>
<polygon points="26.669,57.626 26.669,71.626 40.669,71.626 40.669,57.626" style="fill:none;stroke-width:0.050000mm;stroke:black"/>
<polygon points="52.863,57.626 52.863,71.626 66.863,71.626 66.863,57.626" style="fill:none;stroke-width:0.050000mm;stroke:black"/>
<polygon points="71.913,57.626 71.913,71.626 85.913,71.626 85.913,57.626" style="fill:none;stroke-width:0.050000mm;stroke:black"/>
<polygon points="90.963,57.626 90.963,71.626 104.963,71.626 104.963,57.626" style="fill:none;stroke-width:0.050000mm;stroke:black"/>
<polygon points="110.013,57.626 110.013,71.626 124.013,71.626 124.013,57.626" style="fill:none;stroke-width:0.050000mm;stroke:black"/>
<polygon points="129.063,57.626 129.063,71.626 143.063,71.626 143.063,57.626" style="fill:none;stroke-width:0.050000mm;stroke:black"/>
<polygon points="148.113,57.626 148.113,71.626 162.113,71.626 162.113,57.626" style="fill:none;stroke-width:0.050000mm;stroke:black"/>
<polygon points="167.163,57.626 167.163,71.626 181.163,71.626 181.163,57.626" style="fill:none;stroke-width:0.050000mm;stroke:black"/>
<polygon points="186.213,57.626 186.213,71.626 200.213,71.626 200.213,57.626" style="fill:none;stroke-width:0.050000mm;stroke:black"/>
<polygon points="205.263,57.626 205.263,71.626 219.263,71.626 219.263,57.626" style="fill:none;stroke-width:0.050000mm;stroke:black"/>
<polygon points="224.313,57.626 224.313,71.626 238.313,71.626 238.313,57.626" style="fill:none;stroke-width:0.050000mm;stroke:black"/>
<polygon points="243.363,57.626 243.363,71.626 257.363,71.626 257.363,57.626" style="fill:none;stroke-width:0.050000mm;stroke:black"/>
<polygon points="274.319,57.626 274.319,71.626 288.319,71.626 288.319,57.626" style="fill:none;stroke-width:0.050000mm;stroke:black"/>
<polygon points="24.288,38.576 24.288,52.576 38.288,52.576 38.288,38.576" style="fill:none;stroke-width:0.050000mm;stroke:black"/>
<polygon points="48.101,38.576 48.101,52.576 62.101,52.576 62.101,38.576" style="fill:none;stroke-width:0.050000mm;stroke:black"/>
<polygon points="67.151,38.576 67.151,52.576 81.151,52.576 81.151,38.576" style="fill:none;stroke-width:0.050000mm;stroke:black"/>
<polygon points="86.201,38.576 86.201,52.576 100.201,52.576 100.201,38.576" style="fill:none;stroke-width:0.050000mm;stroke:black"/>
<polygon points="105.251,38.576 105.251,52.576 119.251,52.576 119.251,38.576" style="fill:none;stroke-width:0.050000mm;stroke:black"/>
<polygon points="124.301,38.576 124.301,52.576 138.301,52.576 138.301,38.576" style="fill:none;stroke-width:0.050000mm;stroke:black"/>
<polygon points="143.351,38.576 143.351,52.576 157.351,52.576 157.351,38.576" style="fill:none;stroke-width:0.050000mm;stroke:black"/>
<polygon points="162.401,38.576 162.401,52.576 176.401,52.576 176.401,38.576" style="fill:none;stroke-width:0.050000mm;stroke:black"/>
<polygon points="181.451,38.576 181.451,52.576 195.451,52.576 195.451,38.576" style="fill:none;stroke-width:0.050000mm;stroke:black"/>
<polygon points="200.501,38.576 200.501,52.576 214.501,52.576 214.501,38.576" style="fill:none;stroke-width:0.050000mm;stroke:black"/>
<polygon points="219.551,38.576 219.551,52.576 233.551,52.576 233.551,38.576" style="fill:none;stroke-width:0.050000mm;stroke:black"/>
<polygon points="238.601,38.576 238.601,52.576 252.601,52.576 252.601,38.576" style="fill:none;stroke-width:0.050000mm;stroke:black"/>
<polygon points="257.650,38.576 257.650,52.576 271.651,52.576 271.651,38.576" style="fill:none;stroke-width:0.050000mm;stroke:black"/>
<polygon points="281.463,38.576 281.463,52.576 295.463,52.576 295.463,38.576" style="fill:none;stroke-width:0.050000mm;stroke:black"/>
<polygon points="19.526,19.526 19.526,33.526 33.526,33.526 33.526,19.526" style="fill:none;stroke-width:0.050000mm;stroke:black"/>
<polygon points="38.576,19.526 38.576,33.526 52.576,33.526 52.576,19.526" style="fill:none;stroke-width:0.050000mm;stroke:black"/>
<polygon points="57.626,19.526 57.626,33.526 71.626,33.526 71.626,19.526" style="fill:none;stroke-width:0.050000mm;stroke:black"/>
<polygon points="76.676,19.526 76.676,33.526 90.676,33.526 90.676,19.526" style="fill:none;stroke-width:0.050000mm;stroke:black"/>
<polygon points="95.726,19.526 95.726,33.526 109.726,33.526 109.726,19.526" style="fill:none;stroke-width:0.050000mm;stroke:black"/>
<polygon points="114.775,19.526 114.775,33.526 128.775,33.526 128.775,19.526" style="fill:none;stroke-width:0.050000mm;stroke:black"/>
<polygon points="133.826,19.526 133.826,33.526 147.826,33.526 147.826,19.526" style="fill:none;stroke-width:0.050000mm;stroke:black"/>
<polygon points="152.876,19.526 152.876,33.526 166.876,33.526 166.876,19.526" style="fill:none;stroke-width:0.050000mm;stroke:black"/>
<polygon points="171.926,19.526 171.926,33.526 185.926,33.526 185.926,19.526" style="fill:none;stroke-width:0.050000mm;stroke:black"/>
<polygon points="190.976,19.526 190.976,33.526 204.976,33.526 204.976,19.526" style="fill:none;stroke-width:0.050000mm;stroke:black"/>
<polygon points="210.026,19.526 210.026,33.526 224.026,33.526 224.026,19.526" style="fill:none;stroke-width:0.050000mm;stroke:black"/>
<polygon points="229.076,19.526 229.076,33.526 243.076,33.526 243.076,19.526" style="fill:none;stroke-width:0.050000mm;stroke:black"/>
<polygon points="248.126,19.526 248.126,33.526 262.126,33.526 262.126,19.526" style="fill:none;stroke-width:0.050000mm;stroke:black"/>
<polygon points="267.176,19.526 267.176,33.526 281.176,33.526 281.176,19.526" style="fill:none;stroke-width:0.050000mm;stroke:black"/>
<polygon points="286.226,19.526 286.226,33.526 300.226,33.526 300.226,19.526" style="fill:none;stroke-width:0.050000mm;stroke:black"/>
<polygon points="109.911,9.954 109.604,10.111 109.361,10.354 109.205,10.661 109.151,11.001 109.205,11.340 109.361,11.647 109.604,11.890 109.911,12.047 110.251,12.101 110.591,12.047 110.897,11.890 111.141,11.647 111.297,11.340 111.351,11.001 111.297,10.661 111.141,10.354 110.897,10.111 110.591,9.954 110.251,9.901" style="fill:none;stroke-width:0.050000mm;stroke:black"/>
<polygon points="209.161,9.954 208.855,10.111 208.611,10.354 208.455,10.661 208.401,11.001 208.455,11.340 208.611,11.647 208.855,11.890 209.161,12.047 209.501,12.101 209.841,12.047 210.148,11.890 210.391,11.647 210.547,11.340 210.601,11.001 210.547,10.661 210.391,10.354 210.148,10.111 209.841,9.954 209.501,9.901" style="fill:none;stroke-width:0.050000mm;stroke:black"/>
<polygon points="308.412,9.954 308.105,10.111 307.862,10.354 307.705,10.661 307.652,11.001 307.705,11.340 307.862,11.647 308.105,11.890 308.412,12.047 308.752,12.101 309.091,12.047 309.398,11.890 309.641,11.647 309.798,11.340 309.852,11.001 309.798,10.661 309.641,10.354 309.398,10.111 309.091,9.954 308.752,9.901" style="fill:none;stroke-width:0.050000mm;stroke:black"/>
<polygon points="10.661,9.954 10.354,10.111 10.111,10.354 9.954,10.661 9.901,11.001 9.954,11.340 10.111,11.647 10.354,11.890 10.661,12.047 11.001,12.101 11.340,12.047 11.647,11.890 11.890,11.647 12.047,11.340 12.101,11.001 12.047,10.661 11.890,10.354 11.647,10.111 11.340,9.954 11.001,9.901" style="fill:none;stroke-width:0.050000mm;stroke:black"/>
</svg>
