  0
SECTION
  2
HEADER
  9
$ACADVER
  1
AC1009
  9
$FILLMODE
 70
 0
  9
$SPLFRAME
 70
 1
  9
$EXTMIN
 10
0
 20
0
 30
0.0
  9
$EXTMAX
 10
1058.33
 20
1058.33
 30
0.0
  0
ENDSEC
  0
SECTION
  2
TABLES
  0
TABLE
  2
LAYER
 70
1
  0
LAYER
  2
0
 70
     0
 62
     7
  6
CONTINUOUS
  0
ENDTAB
  0
ENDSEC
  0
SECTION
  2
ENTITIES
  0
LINE
  8
0
 62
     0
 10
304.316
 20
119.479
 30
0.0
 11
304.785
 21
119.423
 31
0.0
  0
LINE
  8
0
 62
     0
 10
304.785
 20
119.423
 30
0.0
 11
305.247
 21
119.331
 31
0.0
  0
LINE
  8
0
 62
     0
 10
305.247
 20
119.331
 30
0.0
 11
305.7
 21
119.203
 31
0.0
  0
LINE
  8
0
 62
     0
 10
305.7
 20
119.203
 30
0.0
 11
306.142
 21
119.041
 31
0.0
  0
LINE
  8
0
 62
     0
 10
306.142
 20
119.041
 30
0.0
 11
306.57
 21
118.843
 31
0.0
  0
LINE
  8
0
 62
     0
 10
306.57
 20
118.843
 30
0.0
 11
306.98
 21
118.612
 31
0.0
  0
LINE
  8
0
 62
     0
 10
306.98
 20
118.612
 30
0.0
 11
307.373
 21
118.351
 31
0.0
  0
LINE
  8
0
 62
     0
 10
307.373
 20
118.351
 30
0.0
 11
307.742
 21
118.059
 31
0.0
  0
LINE
  8
0
 62
     0
 10
307.742
 20
118.059
 30
0.0
 11
308.088
 21
117.74
 31
0.0
  0
LINE
  8
0
 62
     0
 10
308.088
 20
117.74
 30
0.0
 11
308.409
 21
117.394
 31
0.0
  0
LINE
  8
0
 62
     0
 10
308.409
 20
117.394
 30
0.0
 11
308.7
 21
117.023
 31
0.0
  0
LINE
  8
0
 62
     0
 10
308.7
 20
117.023
 30
0.0
 11
308.962
 21
116.632
 31
0.0
  0
LINE
  8
0
 62
     0
 10
308.962
 20
116.632
 30
0.0
 11
309.193
 21
116.219
 31
0.0
  0
LINE
  8
0
 62
     0
 10
309.193
 20
116.219
 30
0.0
 11
309.389
 21
115.794
 31
0.0
  0
LINE
  8
0
 62
     0
 10
309.389
 20
115.794
 30
0.0
 11
309.553
 21
115.351
 31
0.0
  0
LINE
  8
0
 62
     0
 10
309.553
 20
115.351
 30
0.0
 11
309.681
 21
114.897
 31
0.0
  0
LINE
  8
0
 62
     0
 10
309.681
 20
114.897
 30
0.0
 11
309.772
 21
114.435
 31
0.0
  0
LINE
  8
0
 62
     0
 10
309.772
 20
114.435
 30
0.0
 11
309.827
 21
113.967
 31
0.0
  0
LINE
  8
0
 62
     0
 10
309.827
 20
113.967
 30
0.0
 11
309.846
 21
113.497
 31
0.0
  0
LINE
  8
0
 62
     0
 10
309.846
 20
113.497
 30
0.0
 11
309.846
 21
6.24664
 31
0.0
  0
LINE
  8
0
 62
     0
 10
309.846
 20
6.24664
 30
0.0
 11
309.827
 21
5.77536
 31
0.0
  0
LINE
  8
0
 62
     0
 10
309.827
 20
5.77536
 30
0.0
 11
309.772
 21
5.30684
 31
0.0
  0
LINE
  8
0
 62
     0
 10
309.772
 20
5.30684
 30
0.0
 11
309.681
 21
4.84519
 31
0.0
  0
LINE
  8
0
 62
     0
 10
309.681
 20
4.84519
 30
0.0
 11
309.553
 21
4.3918
 31
0.0
  0
LINE
  8
0
 62
     0
 10
309.553
 20
4.3918
 30
0.0
 11
309.389
 21
3.94945
 31
0.0
  0
LINE
  8
0
 62
     0
 10
309.389
 20
3.94945
 30
0.0
 11
309.193
 21
3.52227
 31
0.0
  0
LINE
  8
0
 62
     0
 10
309.193
 20
3.52227
 30
0.0
 11
308.962
 21
3.11161
 31
0.0
  0
LINE
  8
0
 62
     0
 10
308.962
 20
3.11161
 30
0.0
 11
308.7
 21
2.71887
 31
0.0
  0
LINE
  8
0
 62
     0
 10
308.7
 20
2.71887
 30
0.0
 11
308.409
 21
2.34956
 31
0.0
  0
LINE
  8
0
 62
     0
 10
308.409
 20
2.34956
 30
0.0
 11
308.088
 21
2.00367
 31
0.0
  0
LINE
  8
0
 62
     0
 10
308.088
 20
2.00367
 30
0.0
 11
307.742
 21
1.68258
 31
0.0
  0
LINE
  8
0
 62
     0
 10
307.742
 20
1.68258
 30
0.0
 11
307.373
 21
1.39182
 31
0.0
  0
LINE
  8
0
 62
     0
 10
307.373
 20
1.39182
 30
0.0
 11
306.98
 21
1.12999
 31
0.0
  0
LINE
  8
0
 62
     0
 10
306.98
 20
1.12999
 30
0.0
 11
306.57
 21
0.898483
 31
0.0
  0
LINE
  8
0
 62
     0
 10
306.57
 20
0.898483
 30
0.0
 11
306.142
 21
0.7028
 31
0.0
  0
LINE
  8
0
 62
     0
 10
306.142
 20
0.7028
 30
0.0
 11
305.7
 21
0.538812
 31
0.0
  0
LINE
  8
0
 62
     0
 10
305.7
 20
0.538812
 30
0.0
 11
305.247
 21
0.410655
 31
0.0
  0
LINE
  8
0
 62
     0
 10
305.247
 20
0.410655
 30
0.0
 11
304.785
 21
0.319705
 31
0.0
  0
LINE
  8
0
 62
     0
 10
304.785
 20
0.319705
 30
0.0
 11
304.316
 21
0.264583
 31
0.0
  0
LINE
  8
0
 62
     0
 10
304.316
 20
0.264583
 30
0.0
 11
303.846
 21
0.246669
 31
0.0
  0
LINE
  8
0
 62
     0
 10
303.846
 20
0.246669
 30
0.0
 11
6.09505
 21
0.246669
 31
0.0
  0
LINE
  8
0
 62
     0
 10
6.09505
 20
0.246669
 30
0.0
 11
5.62515
 21
0.264583
 31
0.0
  0
LINE
  8
0
 62
     0
 10
5.62515
 20
0.264583
 30
0.0
 11
5.15662
 21
0.319705
 31
0.0
  0
LINE
  8
0
 62
     0
 10
5.15662
 20
0.319705
 30
0.0
 11
4.69498
 21
0.410655
 31
0.0
  0
LINE
  8
0
 62
     0
 10
4.69498
 20
0.410655
 30
0.0
 11
4.24021
 21
0.538812
 31
0.0
  0
LINE
  8
0
 62
     0
 10
4.24021
 20
0.538812
 30
0.0
 11
3.79786
 21
0.7028
 31
0.0
  0
LINE
  8
0
 62
     0
 10
3.79786
 20
0.7028
 30
0.0
 11
3.37206
 21
0.898483
 31
0.0
  0
LINE
  8
0
 62
     0
 10
3.37206
 20
0.898483
 30
0.0
 11
2.96003
 21
1.12999
 31
0.0
  0
LINE
  8
0
 62
     0
 10
2.96003
 20
1.12999
 30
0.0
 11
2.56866
 21
1.39182
 31
0.0
  0
LINE
  8
0
 62
     0
 10
2.56866
 20
1.39182
 30
0.0
 11
2.19797
 21
1.68258
 31
0.0
  0
LINE
  8
0
 62
     0
 10
2.19797
 20
1.68258
 30
0.0
 11
1.85208
 21
2.00367
 31
0.0
  0
LINE
  8
0
 62
     0
 10
1.85208
 20
2.00367
 30
0.0
 11
1.53238
 21
2.34956
 31
0.0
  0
LINE
  8
0
 62
     0
 10
1.53238
 20
2.34956
 30
0.0
 11
1.24024
 21
2.71887
 31
0.0
  0
LINE
  8
0
 62
     0
 10
1.24024
 20
2.71887
 30
0.0
 11
0.979784
 21
3.11161
 31
0.0
  0
LINE
  8
0
 62
     0
 10
0.979784
 20
3.11161
 30
0.0
 11
0.748273
 21
3.52227
 31
0.0
  0
LINE
  8
0
 62
     0
 10
0.748273
 20
3.52227
 30
0.0
 11
0.551215
 21
3.94945
 31
0.0
  0
LINE
  8
0
 62
     0
 10
0.551215
 20
3.94945
 30
0.0
 11
0.388606
 21
4.3918
 31
0.0
  0
LINE
  8
0
 62
     0
 10
0.388606
 20
4.3918
 30
0.0
 11
0.260449
 21
4.84519
 31
0.0
  0
LINE
  8
0
 62
     0
 10
0.260449
 20
4.84519
 30
0.0
 11
0.168121
 21
5.30684
 31
0.0
  0
LINE
  8
0
 62
     0
 10
0.168121
 20
5.30684
 30
0.0
 11
0.112999
 21
5.77536
 31
0.0
  0
LINE
  8
0
 62
     0
 10
0.112999
 20
5.77536
 30
0.0
 11
0.0950846
 21
6.24664
 31
0.0
  0
LINE
  8
0
 62
     0
 10
0.0950846
 20
6.24664
 30
0.0
 11
0.0950846
 21
113.497
 31
0.0
  0
LINE
  8
0
 62
     0
 10
0.0950846
 20
113.497
 30
0.0
 11
0.112999
 21
113.967
 31
0.0
  0
LINE
  8
0
 62
     0
 10
0.112999
 20
113.967
 30
0.0
 11
0.168121
 21
114.435
 31
0.0
  0
LINE
  8
0
 62
     0
 10
0.168121
 20
114.435
 30
0.0
 11
0.260449
 21
114.897
 31
0.0
  0
LINE
  8
0
 62
     0
 10
0.260449
 20
114.897
 30
0.0
 11
0.388606
 21
115.351
 31
0.0
  0
LINE
  8
0
 62
     0
 10
0.388606
 20
115.351
 30
0.0
 11
0.551215
 21
115.794
 31
0.0
  0
LINE
  8
0
 62
     0
 10
0.551215
 20
115.794
 30
0.0
 11
0.748273
 21
116.219
 31
0.0
  0
LINE
  8
0
 62
     0
 10
0.748273
 20
116.219
 30
0.0
 11
0.979784
 21
116.632
 31
0.0
  0
LINE
  8
0
 62
     0
 10
0.979784
 20
116.632
 30
0.0
 11
1.24024
 21
117.023
 31
0.0
  0
LINE
  8
0
 62
     0
 10
1.24024
 20
117.023
 30
0.0
 11
1.53238
 21
117.394
 31
0.0
  0
LINE
  8
0
 62
     0
 10
1.53238
 20
117.394
 30
0.0
 11
1.85208
 21
117.74
 31
0.0
  0
LINE
  8
0
 62
     0
 10
1.85208
 20
117.74
 30
0.0
 11
2.19797
 21
118.059
 31
0.0
  0
LINE
  8
0
 62
     0
 10
2.19797
 20
118.059
 30
0.0
 11
2.56866
 21
118.351
 31
0.0
  0
LINE
  8
0
 62
     0
 10
2.56866
 20
118.351
 30
0.0
 11
2.96003
 21
118.612
 31
0.0
  0
LINE
  8
0
 62
     0
 10
2.96003
 20
118.612
 30
0.0
 11
3.37206
 21
118.843
 31
0.0
  0
LINE
  8
0
 62
     0
 10
3.37206
 20
118.843
 30
0.0
 11
3.79786
 21
119.041
 31
0.0
  0
LINE
  8
0
 62
     0
 10
3.79786
 20
119.041
 30
0.0
 11
4.24021
 21
119.203
 31
0.0
  0
LINE
  8
0
 62
     0
 10
4.24021
 20
119.203
 30
0.0
 11
4.69498
 21
119.331
 31
0.0
  0
LINE
  8
0
 62
     0
 10
4.69498
 20
119.331
 30
0.0
 11
5.15662
 21
119.423
 31
0.0
  0
LINE
  8
0
 62
     0
 10
5.15662
 20
119.423
 30
0.0
 11
5.62515
 21
119.479
 31
0.0
  0
LINE
  8
0
 62
     0
 10
5.62515
 20
119.479
 30
0.0
 11
6.09505
 21
119.496
 31
0.0
  0
LINE
  8
0
 62
     0
 10
6.09505
 20
119.496
 30
0.0
 11
303.846
 21
119.496
 31
0.0
  0
LINE
  8
0
 62
     0
 10
303.846
 20
119.496
 30
0.0
 11
304.316
 21
119.479
 31
0.0
  0
LINE
  8
0
 62
     0
 10
303.506
 20
7.29259
 30
0.0
 11
303.2
 21
7.1355
 31
0.0
  0
LINE
  8
0
 62
     0
 10
303.2
 20
7.1355
 30
0.0
 11
302.956
 21
6.89158
 31
0.0
  0
LINE
  8
0
 62
     0
 10
302.956
 20
6.89158
 30
0.0
 11
302.799
 21
6.58566
 31
0.0
  0
LINE
  8
0
 62
     0
 10
302.799
 20
6.58566
 30
0.0
 11
302.747
 21
6.24526
 31
0.0
  0
LINE
  8
0
 62
     0
 10
302.747
 20
6.24526
 30
0.0
 11
302.799
 21
5.90628
 31
0.0
  0
LINE
  8
0
 62
     0
 10
302.799
 20
5.90628
 30
0.0
 11
302.956
 21
5.59897
 31
0.0
  0
LINE
  8
0
 62
     0
 10
302.956
 20
5.59897
 30
0.0
 11
303.2
 21
5.35644
 31
0.0
  0
LINE
  8
0
 62
     0
 10
303.2
 20
5.35644
 30
0.0
 11
303.506
 21
5.19934
 31
0.0
  0
LINE
  8
0
 62
     0
 10
303.506
 20
5.19934
 30
0.0
 11
303.846
 21
5.14558
 31
0.0
  0
LINE
  8
0
 62
     0
 10
303.846
 20
5.14558
 30
0.0
 11
304.185
 21
5.19934
 31
0.0
  0
LINE
  8
0
 62
     0
 10
304.185
 20
5.19934
 30
0.0
 11
304.493
 21
5.35644
 31
0.0
  0
LINE
  8
0
 62
     0
 10
304.493
 20
5.35644
 30
0.0
 11
304.735
 21
5.59897
 31
0.0
  0
LINE
  8
0
 62
     0
 10
304.735
 20
5.59897
 30
0.0
 11
304.892
 21
5.90628
 31
0.0
  0
LINE
  8
0
 62
     0
 10
304.892
 20
5.90628
 30
0.0
 11
304.946
 21
6.24526
 31
0.0
  0
LINE
  8
0
 62
     0
 10
304.946
 20
6.24526
 30
0.0
 11
304.892
 21
6.58566
 31
0.0
  0
LINE
  8
0
 62
     0
 10
304.892
 20
6.58566
 30
0.0
 11
304.735
 21
6.89158
 31
0.0
  0
LINE
  8
0
 62
     0
 10
304.735
 20
6.89158
 30
0.0
 11
304.493
 21
7.1355
 31
0.0
  0
LINE
  8
0
 62
     0
 10
304.493
 20
7.1355
 30
0.0
 11
304.185
 21
7.29259
 31
0.0
  0
LINE
  8
0
 62
     0
 10
304.185
 20
7.29259
 30
0.0
 11
303.846
 21
7.34494
 31
0.0
  0
LINE
  8
0
 62
     0
 10
303.846
 20
7.34494
 30
0.0
 11
303.506
 21
7.29259
 31
0.0
  0
LINE
  8
0
 62
     0
 10
204.256
 20
7.29259
 30
0.0
 11
203.95
 21
7.1355
 31
0.0
  0
LINE
  8
0
 62
     0
 10
203.95
 20
7.1355
 30
0.0
 11
203.706
 21
6.89158
 31
0.0
  0
LINE
  8
0
 62
     0
 10
203.706
 20
6.89158
 30
0.0
 11
203.55
 21
6.58566
 31
0.0
  0
LINE
  8
0
 62
     0
 10
203.55
 20
6.58566
 30
0.0
 11
203.495
 21
6.24526
 31
0.0
  0
LINE
  8
0
 62
     0
 10
203.495
 20
6.24526
 30
0.0
 11
203.55
 21
5.90628
 31
0.0
  0
LINE
  8
0
 62
     0
 10
203.55
 20
5.90628
 30
0.0
 11
203.706
 21
5.59897
 31
0.0
  0
LINE
  8
0
 62
     0
 10
203.706
 20
5.59897
 30
0.0
 11
203.95
 21
5.35644
 31
0.0
  0
LINE
  8
0
 62
     0
 10
203.95
 20
5.35644
 30
0.0
 11
204.256
 21
5.19934
 31
0.0
  0
LINE
  8
0
 62
     0
 10
204.256
 20
5.19934
 30
0.0
 11
204.596
 21
5.14558
 31
0.0
  0
LINE
  8
0
 62
     0
 10
204.596
 20
5.14558
 30
0.0
 11
204.935
 21
5.19934
 31
0.0
  0
LINE
  8
0
 62
     0
 10
204.935
 20
5.19934
 30
0.0
 11
205.242
 21
5.35644
 31
0.0
  0
LINE
  8
0
 62
     0
 10
205.242
 20
5.35644
 30
0.0
 11
205.486
 21
5.59897
 31
0.0
  0
LINE
  8
0
 62
     0
 10
205.486
 20
5.59897
 30
0.0
 11
205.642
 21
5.90628
 31
0.0
  0
LINE
  8
0
 62
     0
 10
205.642
 20
5.90628
 30
0.0
 11
205.696
 21
6.24526
 31
0.0
  0
LINE
  8
0
 62
     0
 10
205.696
 20
6.24526
 30
0.0
 11
205.642
 21
6.58566
 31
0.0
  0
LINE
  8
0
 62
     0
 10
205.642
 20
6.58566
 30
0.0
 11
205.486
 21
6.89158
 31
0.0
  0
LINE
  8
0
 62
     0
 10
205.486
 20
6.89158
 30
0.0
 11
205.242
 21
7.1355
 31
0.0
  0
LINE
  8
0
 62
     0
 10
205.242
 20
7.1355
 30
0.0
 11
204.935
 21
7.29259
 31
0.0
  0
LINE
  8
0
 62
     0
 10
204.935
 20
7.29259
 30
0.0
 11
204.596
 21
7.34494
 31
0.0
  0
LINE
  8
0
 62
     0
 10
204.596
 20
7.34494
 30
0.0
 11
204.256
 21
7.29259
 31
0.0
  0
LINE
  8
0
 62
     0
 10
105.005
 20
7.29259
 30
0.0
 11
104.698
 21
7.1355
 31
0.0
  0
LINE
  8
0
 62
     0
 10
104.698
 20
7.1355
 30
0.0
 11
104.455
 21
6.89158
 31
0.0
  0
LINE
  8
0
 62
     0
 10
104.455
 20
6.89158
 30
0.0
 11
104.299
 21
6.58566
 31
0.0
  0
LINE
  8
0
 62
     0
 10
104.299
 20
6.58566
 30
0.0
 11
104.246
 21
6.24526
 31
0.0
  0
LINE
  8
0
 62
     0
 10
104.246
 20
6.24526
 30
0.0
 11
104.299
 21
5.90628
 31
0.0
  0
LINE
  8
0
 62
     0
 10
104.299
 20
5.90628
 30
0.0
 11
104.455
 21
5.59897
 31
0.0
  0
LINE
  8
0
 62
     0
 10
104.455
 20
5.59897
 30
0.0
 11
104.698
 21
5.35644
 31
0.0
  0
LINE
  8
0
 62
     0
 10
104.698
 20
5.35644
 30
0.0
 11
105.005
 21
5.19934
 31
0.0
  0
LINE
  8
0
 62
     0
 10
105.005
 20
5.19934
 30
0.0
 11
105.345
 21
5.14558
 31
0.0
  0
LINE
  8
0
 62
     0
 10
105.345
 20
5.14558
 30
0.0
 11
105.686
 21
5.19934
 31
0.0
  0
LINE
  8
0
 62
     0
 10
105.686
 20
5.19934
 30
0.0
 11
105.992
 21
5.35644
 31
0.0
  0
LINE
  8
0
 62
     0
 10
105.992
 20
5.35644
 30
0.0
 11
106.236
 21
5.59897
 31
0.0
  0
LINE
  8
0
 62
     0
 10
106.236
 20
5.59897
 30
0.0
 11
106.391
 21
5.90628
 31
0.0
  0
LINE
  8
0
 62
     0
 10
106.391
 20
5.90628
 30
0.0
 11
106.445
 21
6.24526
 31
0.0
  0
LINE
  8
0
 62
     0
 10
106.445
 20
6.24526
 30
0.0
 11
106.391
 21
6.58566
 31
0.0
  0
LINE
  8
0
 62
     0
 10
106.391
 20
6.58566
 30
0.0
 11
106.236
 21
6.89158
 31
0.0
  0
LINE
  8
0
 62
     0
 10
106.236
 20
6.89158
 30
0.0
 11
105.992
 21
7.1355
 31
0.0
  0
LINE
  8
0
 62
     0
 10
105.992
 20
7.1355
 30
0.0
 11
105.686
 21
7.29259
 31
0.0
  0
LINE
  8
0
 62
     0
 10
105.686
 20
7.29259
 30
0.0
 11
105.345
 21
7.34494
 31
0.0
  0
LINE
  8
0
 62
     0
 10
105.345
 20
7.34494
 30
0.0
 11
105.005
 21
7.29259
 31
0.0
  0
LINE
  8
0
 62
     0
 10
5.75606
 20
7.29259
 30
0.0
 11
5.44876
 21
7.1355
 31
0.0
  0
LINE
  8
0
 62
     0
 10
5.44876
 20
7.1355
 30
0.0
 11
5.20485
 21
6.89158
 31
0.0
  0
LINE
  8
0
 62
     0
 10
5.20485
 20
6.89158
 30
0.0
 11
5.04913
 21
6.58566
 31
0.0
  0
LINE
  8
0
 62
     0
 10
5.04913
 20
6.58566
 30
0.0
 11
4.9954
 21
6.24526
 31
0.0
  0
LINE
  8
0
 62
     0
 10
4.9954
 20
6.24526
 30
0.0
 11
5.04913
 21
5.90628
 31
0.0
  0
LINE
  8
0
 62
     0
 10
5.04913
 20
5.90628
 30
0.0
 11
5.20485
 21
5.59897
 31
0.0
  0
LINE
  8
0
 62
     0
 10
5.20485
 20
5.59897
 30
0.0
 11
5.44876
 21
5.35644
 31
0.0
  0
LINE
  8
0
 62
     0
 10
5.44876
 20
5.35644
 30
0.0
 11
5.75606
 21
5.19934
 31
0.0
  0
LINE
  8
0
 62
     0
 10
5.75606
 20
5.19934
 30
0.0
 11
6.09505
 21
5.14558
 31
0.0
  0
LINE
  8
0
 62
     0
 10
6.09505
 20
5.14558
 30
0.0
 11
6.43407
 21
5.19934
 31
0.0
  0
LINE
  8
0
 62
     0
 10
6.43407
 20
5.19934
 30
0.0
 11
6.74137
 21
5.35644
 31
0.0
  0
LINE
  8
0
 62
     0
 10
6.74137
 20
5.35644
 30
0.0
 11
6.98391
 21
5.59897
 31
0.0
  0
LINE
  8
0
 62
     0
 10
6.98391
 20
5.59897
 30
0.0
 11
7.141
 21
5.90628
 31
0.0
  0
LINE
  8
0
 62
     0
 10
7.141
 20
5.90628
 30
0.0
 11
7.1961
 21
6.24526
 31
0.0
  0
LINE
  8
0
 62
     0
 10
7.1961
 20
6.24526
 30
0.0
 11
7.141
 21
6.58566
 31
0.0
  0
LINE
  8
0
 62
     0
 10
7.141
 20
6.58566
 30
0.0
 11
6.98391
 21
6.89158
 31
0.0
  0
LINE
  8
0
 62
     0
 10
6.98391
 20
6.89158
 30
0.0
 11
6.74137
 21
7.1355
 31
0.0
  0
LINE
  8
0
 62
     0
 10
6.74137
 20
7.1355
 30
0.0
 11
6.43407
 21
7.29259
 31
0.0
  0
LINE
  8
0
 62
     0
 10
6.43407
 20
7.29259
 30
0.0
 11
6.09505
 21
7.34494
 31
0.0
  0
LINE
  8
0
 62
     0
 10
6.09505
 20
7.34494
 30
0.0
 11
5.75606
 21
7.29259
 31
0.0
  0
LINE
  8
0
 62
     0
 10
43.1959
 20
28.7707
 30
0.0
 11
57.1955
 21
28.7707
 31
0.0
  0
LINE
  8
0
 62
     0
 10
57.1955
 20
28.7707
 30
0.0
 11
57.1955
 21
14.7712
 31
0.0
  0
LINE
  8
0
 62
     0
 10
57.1955
 20
14.7712
 30
0.0
 11
43.1959
 21
14.7712
 31
0.0
  0
LINE
  8
0
 62
     0
 10
43.1959
 20
14.7712
 30
0.0
 11
43.1959
 21
28.7707
 31
0.0
  0
LINE
  8
0
 62
     0
 10
67.007
 20
28.7707
 30
0.0
 11
81.008
 21
28.7707
 31
0.0
  0
LINE
  8
0
 62
     0
 10
81.008
 20
28.7707
 30
0.0
 11
81.008
 21
14.7712
 31
0.0
  0
LINE
  8
0
 62
     0
 10
81.008
 20
14.7712
 30
0.0
 11
67.007
 21
14.7712
 31
0.0
  0
LINE
  8
0
 62
     0
 10
67.007
 20
14.7712
 30
0.0
 11
67.007
 21
28.7707
 31
0.0
  0
LINE
  8
0
 62
     0
 10
102.726
 20
28.7707
 30
0.0
 11
116.727
 21
28.7707
 31
0.0
  0
LINE
  8
0
 62
     0
 10
116.727
 20
28.7707
 30
0.0
 11
116.727
 21
14.7712
 31
0.0
  0
LINE
  8
0
 62
     0
 10
116.727
 20
14.7712
 30
0.0
 11
102.726
 21
14.7712
 31
0.0
  0
LINE
  8
0
 62
     0
 10
102.726
 20
14.7712
 30
0.0
 11
102.726
 21
28.7707
 31
0.0
  0
LINE
  8
0
 62
     0
 10
133.682
 20
28.7707
 30
0.0
 11
147.683
 21
28.7707
 31
0.0
  0
LINE
  8
0
 62
     0
 10
147.683
 20
28.7707
 30
0.0
 11
147.683
 21
14.7712
 31
0.0
  0
LINE
  8
0
 62
     0
 10
147.683
 20
14.7712
 30
0.0
 11
133.682
 21
14.7712
 31
0.0
  0
LINE
  8
0
 62
     0
 10
133.682
 20
14.7712
 30
0.0
 11
133.682
 21
28.7707
 31
0.0
  0
LINE
  8
0
 62
     0
 10
169.401
 20
28.7707
 30
0.0
 11
183.402
 21
28.7707
 31
0.0
  0
LINE
  8
0
 62
     0
 10
183.402
 20
28.7707
 30
0.0
 11
183.402
 21
14.7712
 31
0.0
  0
LINE
  8
0
 62
     0
 10
183.402
 20
14.7712
 30
0.0
 11
169.401
 21
14.7712
 31
0.0
  0
LINE
  8
0
 62
     0
 10
169.401
 20
14.7712
 30
0.0
 11
169.401
 21
28.7707
 31
0.0
  0
LINE
  8
0
 62
     0
 10
209.882
 20
28.7707
 30
0.0
 11
223.883
 21
28.7707
 31
0.0
  0
LINE
  8
0
 62
     0
 10
223.883
 20
28.7707
 30
0.0
 11
223.883
 21
14.7712
 31
0.0
  0
LINE
  8
0
 62
     0
 10
223.883
 20
14.7712
 30
0.0
 11
209.882
 21
14.7712
 31
0.0
  0
LINE
  8
0
 62
     0
 10
209.882
 20
14.7712
 30
0.0
 11
209.882
 21
28.7707
 31
0.0
  0
LINE
  8
0
 62
     0
 10
233.696
 20
28.7707
 30
0.0
 11
247.696
 21
28.7707
 31
0.0
  0
LINE
  8
0
 62
     0
 10
247.696
 20
28.7707
 30
0.0
 11
247.696
 21
14.7712
 31
0.0
  0
LINE
  8
0
 62
     0
 10
247.696
 20
14.7712
 30
0.0
 11
233.696
 21
14.7712
 31
0.0
  0
LINE
  8
0
 62
     0
 10
233.696
 20
14.7712
 30
0.0
 11
233.696
 21
28.7707
 31
0.0
  0
LINE
  8
0
 62
     0
 10
26.5259
 20
47.8208
 30
0.0
 11
40.5268
 21
47.8208
 31
0.0
  0
LINE
  8
0
 62
     0
 10
40.5268
 20
47.8208
 30
0.0
 11
40.5268
 21
33.8212
 31
0.0
  0
LINE
  8
0
 62
     0
 10
40.5268
 20
33.8212
 30
0.0
 11
26.5259
 21
33.8212
 31
0.0
  0
LINE
  8
0
 62
     0
 10
26.5259
 20
33.8212
 30
0.0
 11
26.5259
 21
47.8208
 31
0.0
  0
LINE
  8
0
 62
     0
 10
57.482
 20
47.8208
 30
0.0
 11
71.483
 21
47.8208
 31
0.0
  0
LINE
  8
0
 62
     0
 10
71.483
 20
47.8208
 30
0.0
 11
71.483
 21
33.8212
 31
0.0
  0
LINE
  8
0
 62
     0
 10
71.483
 20
33.8212
 30
0.0
 11
57.482
 21
33.8212
 31
0.0
  0
LINE
  8
0
 62
     0
 10
57.482
 20
33.8212
 30
0.0
 11
57.482
 21
47.8208
 31
0.0
  0
LINE
  8
0
 62
     0
 10
76.532
 20
47.8208
 30
0.0
 11
90.533
 21
47.8208
 31
0.0
  0
LINE
  8
0
 62
     0
 10
90.533
 20
47.8208
 30
0.0
 11
90.533
 21
33.8212
 31
0.0
  0
LINE
  8
0
 62
     0
 10
90.533
 20
33.8212
 30
0.0
 11
76.532
 21
33.8212
 31
0.0
  0
LINE
  8
0
 62
     0
 10
76.532
 20
33.8212
 30
0.0
 11
76.532
 21
47.8208
 31
0.0
  0
LINE
  8
0
 62
     0
 10
95.582
 20
47.8208
 30
0.0
 11
109.583
 21
47.8208
 31
0.0
  0
LINE
  8
0
 62
     0
 10
109.583
 20
47.8208
 30
0.0
 11
109.583
 21
33.8212
 31
0.0
  0
LINE
  8
0
 62
     0
 10
109.583
 20
33.8212
 30
0.0
 11
95.582
 21
33.8212
 31
0.0
  0
LINE
  8
0
 62
     0
 10
95.582
 20
33.8212
 30
0.0
 11
95.582
 21
47.8208
 31
0.0
  0
LINE
  8
0
 62
     0
 10
114.632
 20
47.8208
 30
0.0
 11
128.633
 21
47.8208
 31
0.0
  0
LINE
  8
0
 62
     0
 10
128.633
 20
47.8208
 30
0.0
 11
128.633
 21
33.8212
 31
0.0
  0
LINE
  8
0
 62
     0
 10
128.633
 20
33.8212
 30
0.0
 11
114.632
 21
33.8212
 31
0.0
  0
LINE
  8
0
 62
     0
 10
114.632
 20
33.8212
 30
0.0
 11
114.632
 21
47.8208
 31
0.0
  0
LINE
  8
0
 62
     0
 10
133.682
 20
47.8208
 30
0.0
 11
147.683
 21
47.8208
 31
0.0
  0
LINE
  8
0
 62
     0
 10
147.683
 20
47.8208
 30
0.0
 11
147.683
 21
33.8212
 31
0.0
  0
LINE
  8
0
 62
     0
 10
147.683
 20
33.8212
 30
0.0
 11
133.682
 21
33.8212
 31
0.0
  0
LINE
  8
0
 62
     0
 10
133.682
 20
33.8212
 30
0.0
 11
133.682
 21
47.8208
 31
0.0
  0
LINE
  8
0
 62
     0
 10
152.732
 20
47.8208
 30
0.0
 11
166.733
 21
47.8208
 31
0.0
  0
LINE
  8
0
 62
     0
 10
166.733
 20
47.8208
 30
0.0
 11
166.733
 21
33.8212
 31
0.0
  0
LINE
  8
0
 62
     0
 10
166.733
 20
33.8212
 30
0.0
 11
152.732
 21
33.8212
 31
0.0
  0
LINE
  8
0
 62
     0
 10
152.732
 20
33.8212
 30
0.0
 11
152.732
 21
47.8208
 31
0.0
  0
LINE
  8
0
 62
     0
 10
171.782
 20
47.8208
 30
0.0
 11
185.783
 21
47.8208
 31
0.0
  0
LINE
  8
0
 62
     0
 10
185.783
 20
47.8208
 30
0.0
 11
185.783
 21
33.8212
 31
0.0
  0
LINE
  8
0
 62
     0
 10
185.783
 20
33.8212
 30
0.0
 11
171.782
 21
33.8212
 31
0.0
  0
LINE
  8
0
 62
     0
 10
171.782
 20
33.8212
 30
0.0
 11
171.782
 21
47.8208
 31
0.0
  0
LINE
  8
0
 62
     0
 10
190.832
 20
47.8208
 30
0.0
 11
204.833
 21
47.8208
 31
0.0
  0
LINE
  8
0
 62
     0
 10
204.833
 20
47.8208
 30
0.0
 11
204.833
 21
33.8212
 31
0.0
  0
LINE
  8
0
 62
     0
 10
204.833
 20
33.8212
 30
0.0
 11
190.832
 21
33.8212
 31
0.0
  0
LINE
  8
0
 62
     0
 10
190.832
 20
33.8212
 30
0.0
 11
190.832
 21
47.8208
 31
0.0
  0
LINE
  8
0
 62
     0
 10
209.882
 20
47.8208
 30
0.0
 11
223.883
 21
47.8208
 31
0.0
  0
LINE
  8
0
 62
     0
 10
223.883
 20
47.8208
 30
0.0
 11
223.883
 21
33.8212
 31
0.0
  0
LINE
  8
0
 62
     0
 10
223.883
 20
33.8212
 30
0.0
 11
209.882
 21
33.8212
 31
0.0
  0
LINE
  8
0
 62
     0
 10
209.882
 20
33.8212
 30
0.0
 11
209.882
 21
47.8208
 31
0.0
  0
LINE
  8
0
 62
     0
 10
228.932
 20
47.8208
 30
0.0
 11
242.933
 21
47.8208
 31
0.0
  0
LINE
  8
0
 62
     0
 10
242.933
 20
47.8208
 30
0.0
 11
242.933
 21
33.8212
 31
0.0
  0
LINE
  8
0
 62
     0
 10
242.933
 20
33.8212
 30
0.0
 11
228.932
 21
33.8212
 31
0.0
  0
LINE
  8
0
 62
     0
 10
228.932
 20
33.8212
 30
0.0
 11
228.932
 21
47.8208
 31
0.0
  0
LINE
  8
0
 62
     0
 10
255.126
 20
47.8208
 30
0.0
 11
269.127
 21
47.8208
 31
0.0
  0
LINE
  8
0
 62
     0
 10
269.127
 20
47.8208
 30
0.0
 11
269.127
 21
33.8212
 31
0.0
  0
LINE
  8
0
 62
     0
 10
269.127
 20
33.8212
 30
0.0
 11
255.126
 21
33.8212
 31
0.0
  0
LINE
  8
0
 62
     0
 10
255.126
 20
33.8212
 30
0.0
 11
255.126
 21
47.8208
 31
0.0
  0
LINE
  8
0
 62
     0
 10
281.321
 20
47.8208
 30
0.0
 11
295.321
 21
47.8208
 31
0.0
  0
LINE
  8
0
 62
     0
 10
295.321
 20
47.8208
 30
0.0
 11
295.321
 21
33.8212
 31
0.0
  0
LINE
  8
0
 62
     0
 10
295.321
 20
33.8212
 30
0.0
 11
281.321
 21
33.8212
 31
0.0
  0
LINE
  8
0
 62
     0
 10
281.321
 20
33.8212
 30
0.0
 11
281.321
 21
47.8208
 31
0.0
  0
LINE
  8
0
 62
     0
 10
21.7634
 20
66.8708
 30
0.0
 11
35.7628
 21
66.8708
 31
0.0
  0
LINE
  8
0
 62
     0
 10
35.7628
 20
66.8708
 30
0.0
 11
35.7628
 21
52.8712
 31
0.0
  0
LINE
  8
0
 62
     0
 10
35.7628
 20
52.8712
 30
0.0
 11
21.7634
 21
52.8712
 31
0.0
  0
LINE
  8
0
 62
     0
 10
21.7634
 20
52.8712
 30
0.0
 11
21.7634
 21
66.8708
 31
0.0
  0
LINE
  8
0
 62
     0
 10
47.957
 20
66.8708
 30
0.0
 11
61.958
 21
66.8708
 31
0.0
  0
LINE
  8
0
 62
     0
 10
61.958
 20
66.8708
 30
0.0
 11
61.958
 21
52.8712
 31
0.0
  0
LINE
  8
0
 62
     0
 10
61.958
 20
52.8712
 30
0.0
 11
47.957
 21
52.8712
 31
0.0
  0
LINE
  8
0
 62
     0
 10
47.957
 20
52.8712
 30
0.0
 11
47.957
 21
66.8708
 31
0.0
  0
LINE
  8
0
 62
     0
 10
67.007
 20
66.8708
 30
0.0
 11
81.008
 21
66.8708
 31
0.0
  0
LINE
  8
0
 62
     0
 10
81.008
 20
66.8708
 30
0.0
 11
81.008
 21
52.8712
 31
0.0
  0
LINE
  8
0
 62
     0
 10
81.008
 20
52.8712
 30
0.0
 11
67.007
 21
52.8712
 31
0.0
  0
LINE
  8
0
 62
     0
 10
67.007
 20
52.8712
 30
0.0
 11
67.007
 21
66.8708
 31
0.0
  0
LINE
  8
0
 62
     0
 10
86.057
 20
66.8708
 30
0.0
 11
100.058
 21
66.8708
 31
0.0
  0
LINE
  8
0
 62
     0
 10
100.058
 20
66.8708
 30
0.0
 11
100.058
 21
52.8712
 31
0.0
  0
LINE
  8
0
 62
     0
 10
100.058
 20
52.8712
 30
0.0
 11
86.057
 21
52.8712
 31
0.0
  0
LINE
  8
0
 62
     0
 10
86.057
 20
52.8712
 30
0.0
 11
86.057
 21
66.8708
 31
0.0
  0
LINE
  8
0
 62
     0
 10
105.107
 20
66.8708
 30
0.0
 11
119.108
 21
66.8708
 31
0.0
  0
LINE
  8
0
 62
     0
 10
119.108
 20
66.8708
 30
0.0
 11
119.108
 21
52.8712
 31
0.0
  0
LINE
  8
0
 62
     0
 10
119.108
 20
52.8712
 30
0.0
 11
105.107
 21
52.8712
 31
0.0
  0
LINE
  8
0
 62
     0
 10
105.107
 20
52.8712
 30
0.0
 11
105.107
 21
66.8708
 31
0.0
  0
LINE
  8
0
 62
     0
 10
124.157
 20
66.8708
 30
0.0
 11
138.158
 21
66.8708
 31
0.0
  0
LINE
  8
0
 62
     0
 10
138.158
 20
66.8708
 30
0.0
 11
138.158
 21
52.8712
 31
0.0
  0
LINE
  8
0
 62
     0
 10
138.158
 20
52.8712
 30
0.0
 11
124.157
 21
52.8712
 31
0.0
  0
LINE
  8
0
 62
     0
 10
124.157
 20
52.8712
 30
0.0
 11
124.157
 21
66.8708
 31
0.0
  0
LINE
  8
0
 62
     0
 10
143.207
 20
66.8708
 30
0.0
 11
157.208
 21
66.8708
 31
0.0
  0
LINE
  8
0
 62
     0
 10
157.208
 20
66.8708
 30
0.0
 11
157.208
 21
52.8712
 31
0.0
  0
LINE
  8
0
 62
     0
 10
157.208
 20
52.8712
 30
0.0
 11
143.207
 21
52.8712
 31
0.0
  0
LINE
  8
0
 62
     0
 10
143.207
 20
52.8712
 30
0.0
 11
143.207
 21
66.8708
 31
0.0
  0
LINE
  8
0
 62
     0
 10
162.257
 20
66.8708
 30
0.0
 11
176.258
 21
66.8708
 31
0.0
  0
LINE
  8
0
 62
     0
 10
176.258
 20
66.8708
 30
0.0
 11
176.258
 21
52.8712
 31
0.0
  0
LINE
  8
0
 62
     0
 10
176.258
 20
52.8712
 30
0.0
 11
162.257
 21
52.8712
 31
0.0
  0
LINE
  8
0
 62
     0
 10
162.257
 20
52.8712
 30
0.0
 11
162.257
 21
66.8708
 31
0.0
  0
LINE
  8
0
 62
     0
 10
181.307
 20
66.8708
 30
0.0
 11
195.308
 21
66.8708
 31
0.0
  0
LINE
  8
0
 62
     0
 10
195.308
 20
66.8708
 30
0.0
 11
195.308
 21
52.8712
 31
0.0
  0
LINE
  8
0
 62
     0
 10
195.308
 20
52.8712
 30
0.0
 11
181.307
 21
52.8712
 31
0.0
  0
LINE
  8
0
 62
     0
 10
181.307
 20
52.8712
 30
0.0
 11
181.307
 21
66.8708
 31
0.0
  0
LINE
  8
0
 62
     0
 10
200.357
 20
66.8708
 30
0.0
 11
214.358
 21
66.8708
 31
0.0
  0
LINE
  8
0
 62
     0
 10
214.358
 20
66.8708
 30
0.0
 11
214.358
 21
52.8712
 31
0.0
  0
LINE
  8
0
 62
     0
 10
214.358
 20
52.8712
 30
0.0
 11
200.357
 21
52.8712
 31
0.0
  0
LINE
  8
0
 62
     0
 10
200.357
 20
52.8712
 30
0.0
 11
200.357
 21
66.8708
 31
0.0
  0
LINE
  8
0
 62
     0
 10
219.407
 20
66.8708
 30
0.0
 11
233.408
 21
66.8708
 31
0.0
  0
LINE
  8
0
 62
     0
 10
233.408
 20
66.8708
 30
0.0
 11
233.408
 21
52.8712
 31
0.0
  0
LINE
  8
0
 62
     0
 10
233.408
 20
52.8712
 30
0.0
 11
219.407
 21
52.8712
 31
0.0
  0
LINE
  8
0
 62
     0
 10
219.407
 20
52.8712
 30
0.0
 11
219.407
 21
66.8708
 31
0.0
  0
LINE
  8
0
 62
     0
 10
238.457
 20
66.8708
 30
0.0
 11
252.458
 21
66.8708
 31
0.0
  0
LINE
  8
0
 62
     0
 10
252.458
 20
66.8708
 30
0.0
 11
252.458
 21
52.8712
 31
0.0
  0
LINE
  8
0
 62
     0
 10
252.458
 20
52.8712
 30
0.0
 11
238.457
 21
52.8712
 31
0.0
  0
LINE
  8
0
 62
     0
 10
238.457
 20
52.8712
 30
0.0
 11
238.457
 21
66.8708
 31
0.0
  0
LINE
  8
0
 62
     0
 10
269.413
 20
66.8708
 30
0.0
 11
283.413
 21
66.8708
 31
0.0
  0
LINE
  8
0
 62
     0
 10
283.413
 20
66.8708
 30
0.0
 11
283.413
 21
52.8712
 31
0.0
  0
LINE
  8
0
 62
     0
 10
283.413
 20
52.8712
 30
0.0
 11
269.413
 21
52.8712
 31
0.0
  0
LINE
  8
0
 62
     0
 10
269.413
 20
52.8712
 30
0.0
 11
269.413
 21
66.8708
 31
0.0
  0
LINE
  8
0
 62
     0
 10
19.3821
 20
85.9208
 30
0.0
 11
33.383
 21
85.9208
 31
0.0
  0
LINE
  8
0
 62
     0
 10
33.383
 20
85.9208
 30
0.0
 11
33.383
 21
71.9212
 31
0.0
  0
LINE
  8
0
 62
     0
 10
33.383
 20
71.9212
 30
0.0
 11
19.3821
 21
71.9212
 31
0.0
  0
LINE
  8
0
 62
     0
 10
19.3821
 20
71.9212
 30
0.0
 11
19.3821
 21
85.9208
 31
0.0
  0
LINE
  8
0
 62
     0
 10
43.1959
 20
85.9208
 30
0.0
 11
57.1955
 21
85.9208
 31
0.0
  0
LINE
  8
0
 62
     0
 10
57.1955
 20
85.9208
 30
0.0
 11
57.1955
 21
71.9212
 31
0.0
  0
LINE
  8
0
 62
     0
 10
57.1955
 20
71.9212
 30
0.0
 11
43.1959
 21
71.9212
 31
0.0
  0
LINE
  8
0
 62
     0
 10
43.1959
 20
71.9212
 30
0.0
 11
43.1959
 21
85.9208
 31
0.0
  0
LINE
  8
0
 62
     0
 10
62.2459
 20
85.9208
 30
0.0
 11
76.2455
 21
85.9208
 31
0.0
  0
LINE
  8
0
 62
     0
 10
76.2455
 20
85.9208
 30
0.0
 11
76.2455
 21
71.9212
 31
0.0
  0
LINE
  8
0
 62
     0
 10
76.2455
 20
71.9212
 30
0.0
 11
62.2459
 21
71.9212
 31
0.0
  0
LINE
  8
0
 62
     0
 10
62.2459
 20
71.9212
 30
0.0
 11
62.2459
 21
85.9208
 31
0.0
  0
LINE
  8
0
 62
     0
 10
81.2959
 20
85.9208
 30
0.0
 11
95.2955
 21
85.9208
 31
0.0
  0
LINE
  8
0
 62
     0
 10
95.2955
 20
85.9208
 30
0.0
 11
95.2955
 21
71.9212
 31
0.0
  0
LINE
  8
0
 62
     0
 10
95.2955
 20
71.9212
 30
0.0
 11
81.2959
 21
71.9212
 31
0.0
  0
LINE
  8
0
 62
     0
 10
81.2959
 20
71.9212
 30
0.0
 11
81.2959
 21
85.9208
 31
0.0
  0
LINE
  8
0
 62
     0
 10
100.346
 20
85.9208
 30
0.0
 11
114.346
 21
85.9208
 31
0.0
  0
LINE
  8
0
 62
     0
 10
114.346
 20
85.9208
 30
0.0
 11
114.346
 21
71.9212
 31
0.0
  0
LINE
  8
0
 62
     0
 10
114.346
 20
71.9212
 30
0.0
 11
100.346
 21
71.9212
 31
0.0
  0
LINE
  8
0
 62
     0
 10
100.346
 20
71.9212
 30
0.0
 11
100.346
 21
85.9208
 31
0.0
  0
LINE
  8
0
 62
     0
 10
119.396
 20
85.9208
 30
0.0
 11
133.396
 21
85.9208
 31
0.0
  0
LINE
  8
0
 62
     0
 10
133.396
 20
85.9208
 30
0.0
 11
133.396
 21
71.9212
 31
0.0
  0
LINE
  8
0
 62
     0
 10
133.396
 20
71.9212
 30
0.0
 11
119.396
 21
71.9212
 31
0.0
  0
LINE
  8
0
 62
     0
 10
119.396
 20
71.9212
 30
0.0
 11
119.396
 21
85.9208
 31
0.0
  0
LINE
  8
0
 62
     0
 10
138.446
 20
85.9208
 30
0.0
 11
152.446
 21
85.9208
 31
0.0
  0
LINE
  8
0
 62
     0
 10
152.446
 20
85.9208
 30
0.0
 11
152.446
 21
71.9212
 31
0.0
  0
LINE
  8
0
 62
     0
 10
152.446
 20
71.9212
 30
0.0
 11
138.446
 21
71.9212
 31
0.0
  0
LINE
  8
0
 62
     0
 10
138.446
 20
71.9212
 30
0.0
 11
138.446
 21
85.9208
 31
0.0
  0
LINE
  8
0
 62
     0
 10
157.496
 20
85.9208
 30
0.0
 11
171.496
 21
85.9208
 31
0.0
  0
LINE
  8
0
 62
     0
 10
171.496
 20
85.9208
 30
0.0
 11
171.496
 21
71.9212
 31
0.0
  0
LINE
  8
0
 62
     0
 10
171.496
 20
71.9212
 30
0.0
 11
157.496
 21
71.9212
 31
0.0
  0
LINE
  8
0
 62
     0
 10
157.496
 20
71.9212
 30
0.0
 11
157.496
 21
85.9208
 31
0.0
  0
LINE
  8
0
 62
     0
 10
176.546
 20
85.9208
 30
0.0
 11
190.546
 21
85.9208
 31
0.0
  0
LINE
  8
0
 62
     0
 10
190.546
 20
85.9208
 30
0.0
 11
190.546
 21
71.9212
 31
0.0
  0
LINE
  8
0
 62
     0
 10
190.546
 20
71.9212
 30
0.0
 11
176.546
 21
71.9212
 31
0.0
  0
LINE
  8
0
 62
     0
 10
176.546
 20
71.9212
 30
0.0
 11
176.546
 21
85.9208
 31
0.0
  0
LINE
  8
0
 62
     0
 10
195.596
 20
85.9208
 30
0.0
 11
209.596
 21
85.9208
 31
0.0
  0
LINE
  8
0
 62
     0
 10
209.596
 20
85.9208
 30
0.0
 11
209.596
 21
71.9212
 31
0.0
  0
LINE
  8
0
 62
     0
 10
209.596
 20
71.9212
 30
0.0
 11
195.596
 21
71.9212
 31
0.0
  0
LINE
  8
0
 62
     0
 10
195.596
 20
71.9212
 30
0.0
 11
195.596
 21
85.9208
 31
0.0
  0
LINE
  8
0
 62
     0
 10
214.646
 20
85.9208
 30
0.0
 11
228.646
 21
85.9208
 31
0.0
  0
LINE
  8
0
 62
     0
 10
228.646
 20
85.9208
 30
0.0
 11
228.646
 21
71.9212
 31
0.0
  0
LINE
  8
0
 62
     0
 10
228.646
 20
71.9212
 30
0.0
 11
214.646
 21
71.9212
 31
0.0
  0
LINE
  8
0
 62
     0
 10
214.646
 20
71.9212
 30
0.0
 11
214.646
 21
85.9208
 31
0.0
  0
LINE
  8
0
 62
     0
 10
233.696
 20
85.9208
 30
0.0
 11
247.696
 21
85.9208
 31
0.0
  0
LINE
  8
0
 62
     0
 10
247.696
 20
85.9208
 30
0.0
 11
247.696
 21
71.9212
 31
0.0
  0
LINE
  8
0
 62
     0
 10
247.696
 20
71.9212
 30
0.0
 11
233.696
 21
71.9212
 31
0.0
  0
LINE
  8
0
 62
     0
 10
233.696
 20
71.9212
 30
0.0
 11
233.696
 21
85.9208
 31
0.0
  0
LINE
  8
0
 62
     0
 10
252.744
 20
85.9208
 30
0.0
 11
266.746
 21
85.9208
 31
0.0
  0
LINE
  8
0
 62
     0
 10
266.746
 20
85.9208
 30
0.0
 11
266.746
 21
71.9212
 31
0.0
  0
LINE
  8
0
 62
     0
 10
266.746
 20
71.9212
 30
0.0
 11
252.744
 21
71.9212
 31
0.0
  0
LINE
  8
0
 62
     0
 10
252.744
 20
71.9212
 30
0.0
 11
252.744
 21
85.9208
 31
0.0
  0
LINE
  8
0
 62
     0
 10
276.557
 20
85.9208
 30
0.0
 11
290.558
 21
85.9208
 31
0.0
  0
LINE
  8
0
 62
     0
 10
290.558
 20
85.9208
 30
0.0
 11
290.558
 21
71.9212
 31
0.0
  0
LINE
  8
0
 62
     0
 10
290.558
 20
71.9212
 30
0.0
 11
276.557
 21
71.9212
 31
0.0
  0
LINE
  8
0
 62
     0
 10
276.557
 20
71.9212
 30
0.0
 11
276.557
 21
85.9208
 31
0.0
  0
LINE
  8
0
 62
     0
 10
14.621
 20
104.971
 30
0.0
 11
28.6205
 21
104.971
 31
0.0
  0
LINE
  8
0
 62
     0
 10
28.6205
 20
104.971
 30
0.0
 11
28.6205
 21
90.9712
 31
0.0
  0
LINE
  8
0
 62
     0
 10
28.6205
 20
90.9712
 30
0.0
 11
14.621
 21
90.9712
 31
0.0
  0
LINE
  8
0
 62
     0
 10
14.621
 20
90.9712
 30
0.0
 11
14.621
 21
104.971
 31
0.0
  0
LINE
  8
0
 62
     0
 10
33.671
 20
104.971
 30
0.0
 11
47.6705
 21
104.971
 31
0.0
  0
LINE
  8
0
 62
     0
 10
47.6705
 20
104.971
 30
0.0
 11
47.6705
 21
90.9712
 31
0.0
  0
LINE
  8
0
 62
     0
 10
47.6705
 20
90.9712
 30
0.0
 11
33.671
 21
90.9712
 31
0.0
  0
LINE
  8
0
 62
     0
 10
33.671
 20
90.9712
 30
0.0
 11
33.671
 21
104.971
 31
0.0
  0
LINE
  8
0
 62
     0
 10
52.7209
 20
104.971
 30
0.0
 11
66.7205
 21
104.971
 31
0.0
  0
LINE
  8
0
 62
     0
 10
66.7205
 20
104.971
 30
0.0
 11
66.7205
 21
90.9712
 31
0.0
  0
LINE
  8
0
 62
     0
 10
66.7205
 20
90.9712
 30
0.0
 11
52.7209
 21
90.9712
 31
0.0
  0
LINE
  8
0
 62
     0
 10
52.7209
 20
90.9712
 30
0.0
 11
52.7209
 21
104.971
 31
0.0
  0
LINE
  8
0
 62
     0
 10
71.7709
 20
104.971
 30
0.0
 11
85.7705
 21
104.971
 31
0.0
  0
LINE
  8
0
 62
     0
 10
85.7705
 20
104.971
 30
0.0
 11
85.7705
 21
90.9712
 31
0.0
  0
LINE
  8
0
 62
     0
 10
85.7705
 20
90.9712
 30
0.0
 11
71.7709
 21
90.9712
 31
0.0
  0
LINE
  8
0
 62
     0
 10
71.7709
 20
90.9712
 30
0.0
 11
71.7709
 21
104.971
 31
0.0
  0
LINE
  8
0
 62
     0
 10
90.8209
 20
104.971
 30
0.0
 11
104.821
 21
104.971
 31
0.0
  0
LINE
  8
0
 62
     0
 10
104.821
 20
104.971
 30
0.0
 11
104.821
 21
90.9712
 31
0.0
  0
LINE
  8
0
 62
     0
 10
104.821
 20
90.9712
 30
0.0
 11
90.8209
 21
90.9712
 31
0.0
  0
LINE
  8
0
 62
     0
 10
90.8209
 20
90.9712
 30
0.0
 11
90.8209
 21
104.971
 31
0.0
  0
LINE
  8
0
 62
     0
 10
109.869
 20
104.971
 30
0.0
 11
123.869
 21
104.971
 31
0.0
  0
LINE
  8
0
 62
     0
 10
123.869
 20
104.971
 30
0.0
 11
123.869
 21
90.9712
 31
0.0
  0
LINE
  8
0
 62
     0
 10
123.869
 20
90.9712
 30
0.0
 11
109.869
 21
90.9712
 31
0.0
  0
LINE
  8
0
 62
     0
 10
109.869
 20
90.9712
 30
0.0
 11
109.869
 21
104.971
 31
0.0
  0
LINE
  8
0
 62
     0
 10
128.921
 20
104.971
 30
0.0
 11
142.921
 21
104.971
 31
0.0
  0
LINE
  8
0
 62
     0
 10
142.921
 20
104.971
 30
0.0
 11
142.921
 21
90.9712
 31
0.0
  0
LINE
  8
0
 62
     0
 10
142.921
 20
90.9712
 30
0.0
 11
128.921
 21
90.9712
 31
0.0
  0
LINE
  8
0
 62
     0
 10
128.921
 20
90.9712
 30
0.0
 11
128.921
 21
104.971
 31
0.0
  0
LINE
  8
0
 62
     0
 10
147.971
 20
104.971
 30
0.0
 11
161.971
 21
104.971
 31
0.0
  0
LINE
  8
0
 62
     0
 10
161.971
 20
104.971
 30
0.0
 11
161.971
 21
90.9712
 31
0.0
  0
LINE
  8
0
 62
     0
 10
161.971
 20
90.9712
 30
0.0
 11
147.971
 21
90.9712
 31
0.0
  0
LINE
  8
0
 62
     0
 10
147.971
 20
90.9712
 30
0.0
 11
147.971
 21
104.971
 31
0.0
  0
LINE
  8
0
 62
     0
 10
167.021
 20
104.971
 30
0.0
 11
181.021
 21
104.971
 31
0.0
  0
LINE
  8
0
 62
     0
 10
181.021
 20
104.971
 30
0.0
 11
181.021
 21
90.9712
 31
0.0
  0
LINE
  8
0
 62
     0
 10
181.021
 20
90.9712
 30
0.0
 11
167.021
 21
90.9712
 31
0.0
  0
LINE
  8
0
 62
     0
 10
167.021
 20
90.9712
 30
0.0
 11
167.021
 21
104.971
 31
0.0
  0
LINE
  8
0
 62
     0
 10
186.071
 20
104.971
 30
0.0
 11
200.071
 21
104.971
 31
0.0
  0
LINE
  8
0
 62
     0
 10
200.071
 20
104.971
 30
0.0
 11
200.071
 21
90.9712
 31
0.0
  0
LINE
  8
0
 62
     0
 10
200.071
 20
90.9712
 30
0.0
 11
186.071
 21
90.9712
 31
0.0
  0
LINE
  8
0
 62
     0
 10
186.071
 20
90.9712
 30
0.0
 11
186.071
 21
104.971
 31
0.0
  0
LINE
  8
0
 62
     0
 10
205.121
 20
104.971
 30
0.0
 11
219.121
 21
104.971
 31
0.0
  0
LINE
  8
0
 62
     0
 10
219.121
 20
104.971
 30
0.0
 11
219.121
 21
90.9712
 31
0.0
  0
LINE
  8
0
 62
     0
 10
219.121
 20
90.9712
 30
0.0
 11
205.121
 21
90.9712
 31
0.0
  0
LINE
  8
0
 62
     0
 10
205.121
 20
90.9712
 30
0.0
 11
205.121
 21
104.971
 31
0.0
  0
LINE
  8
0
 62
     0
 10
224.171
 20
104.971
 30
0.0
 11
238.171
 21
104.971
 31
0.0
  0
LINE
  8
0
 62
     0
 10
238.171
 20
104.971
 30
0.0
 11
238.171
 21
90.9712
 31
0.0
  0
LINE
  8
0
 62
     0
 10
238.171
 20
90.9712
 30
0.0
 11
224.171
 21
90.9712
 31
0.0
  0
LINE
  8
0
 62
     0
 10
224.171
 20
90.9712
 30
0.0
 11
224.171
 21
104.971
 31
0.0
  0
LINE
  8
0
 62
     0
 10
243.221
 20
104.971
 30
0.0
 11
257.221
 21
104.971
 31
0.0
  0
LINE
  8
0
 62
     0
 10
257.221
 20
104.971
 30
0.0
 11
257.221
 21
90.9712
 31
0.0
  0
LINE
  8
0
 62
     0
 10
257.221
 20
90.9712
 30
0.0
 11
243.221
 21
90.9712
 31
0.0
  0
LINE
  8
0
 62
     0
 10
243.221
 20
90.9712
 30
0.0
 11
243.221
 21
104.971
 31
0.0
  0
LINE
  8
0
 62
     0
 10
262.271
 20
104.971
 30
0.0
 11
276.271
 21
104.971
 31
0.0
  0
LINE
  8
0
 62
     0
 10
276.271
 20
104.971
 30
0.0
 11
276.271
 21
90.9712
 31
0.0
  0
LINE
  8
0
 62
     0
 10
276.271
 20
90.9712
 30
0.0
 11
262.271
 21
90.9712
 31
0.0
  0
LINE
  8
0
 62
     0
 10
262.271
 20
90.9712
 30
0.0
 11
262.271
 21
104.971
 31
0.0
  0
LINE
  8
0
 62
     0
 10
281.321
 20
104.971
 30
0.0
 11
295.321
 21
104.971
 31
0.0
  0
LINE
  8
0
 62
     0
 10
295.321
 20
104.971
 30
0.0
 11
295.321
 21
90.9712
 31
0.0
  0
LINE
  8
0
 62
     0
 10
295.321
 20
90.9712
 30
0.0
 11
281.321
 21
90.9712
 31
0.0
  0
LINE
  8
0
 62
     0
 10
281.321
 20
90.9712
 30
0.0
 11
281.321
 21
104.971
 31
0.0
  0
LINE
  8
0
 62
     0
 10
105.005
 20
114.543
 30
0.0
 11
104.698
 21
114.387
 31
0.0
  0
LINE
  8
0
 62
     0
 10
104.698
 20
114.387
 30
0.0
 11
104.455
 21
114.143
 31
0.0
  0
LINE
  8
0
 62
     0
 10
104.455
 20
114.143
 30
0.0
 11
104.299
 21
113.836
 31
0.0
  0
LINE
  8
0
 62
     0
 10
104.299
 20
113.836
 30
0.0
 11
104.246
 21
113.497
 31
0.0
  0
LINE
  8
0
 62
     0
 10
104.246
 20
113.497
 30
0.0
 11
104.299
 21
113.158
 31
0.0
  0
LINE
  8
0
 62
     0
 10
104.299
 20
113.158
 30
0.0
 11
104.455
 21
112.85
 31
0.0
  0
LINE
  8
0
 62
     0
 10
104.455
 20
112.85
 30
0.0
 11
104.698
 21
112.608
 31
0.0
  0
LINE
  8
0
 62
     0
 10
104.698
 20
112.608
 30
0.0
 11
105.005
 21
112.451
 31
0.0
  0
LINE
  8
0
 62
     0
 10
105.005
 20
112.451
 30
0.0
 11
105.345
 21
112.396
 31
0.0
  0
LINE
  8
0
 62
     0
 10
105.345
 20
112.396
 30
0.0
 11
105.686
 21
112.451
 31
0.0
  0
LINE
  8
0
 62
     0
 10
105.686
 20
112.451
 30
0.0
 11
105.992
 21
112.608
 31
0.0
  0
LINE
  8
0
 62
     0
 10
105.992
 20
112.608
 30
0.0
 11
106.236
 21
112.85
 31
0.0
  0
LINE
  8
0
 62
     0
 10
106.236
 20
112.85
 30
0.0
 11
106.391
 21
113.158
 31
0.0
  0
LINE
  8
0
 62
     0
 10
106.391
 20
113.158
 30
0.0
 11
106.445
 21
113.497
 31
0.0
  0
LINE
  8
0
 62
     0
 10
106.445
 20
113.497
 30
0.0
 11
106.391
 21
113.836
 31
0.0
  0
LINE
  8
0
 62
     0
 10
106.391
 20
113.836
 30
0.0
 11
106.236
 21
114.143
 31
0.0
  0
LINE
  8
0
 62
     0
 10
106.236
 20
114.143
 30
0.0
 11
105.992
 21
114.387
 31
0.0
  0
LINE
  8
0
 62
     0
 10
105.992
 20
114.387
 30
0.0
 11
105.686
 21
114.543
 31
0.0
  0
LINE
  8
0
 62
     0
 10
105.686
 20
114.543
 30
0.0
 11
105.345
 21
114.596
 31
0.0
  0
LINE
  8
0
 62
     0
 10
105.345
 20
114.596
 30
0.0
 11
105.005
 21
114.543
 31
0.0
  0
LINE
  8
0
 62
     0
 10
204.256
 20
114.543
 30
0.0
 11
203.95
 21
114.387
 31
0.0
  0
LINE
  8
0
 62
     0
 10
203.95
 20
114.387
 30
0.0
 11
203.706
 21
114.143
 31
0.0
  0
LINE
  8
0
 62
     0
 10
203.706
 20
114.143
 30
0.0
 11
203.55
 21
113.836
 31
0.0
  0
LINE
  8
0
 62
     0
 10
203.55
 20
113.836
 30
0.0
 11
203.495
 21
113.497
 31
0.0
  0
LINE
  8
0
 62
     0
 10
203.495
 20
113.497
 30
0.0
 11
203.55
 21
113.158
 31
0.0
  0
LINE
  8
0
 62
     0
 10
203.55
 20
113.158
 30
0.0
 11
203.706
 21
112.85
 31
0.0
  0
LINE
  8
0
 62
     0
 10
203.706
 20
112.85
 30
0.0
 11
203.95
 21
112.608
 31
0.0
  0
LINE
  8
0
 62
     0
 10
203.95
 20
112.608
 30
0.0
 11
204.256
 21
112.451
 31
0.0
  0
LINE
  8
0
 62
     0
 10
204.256
 20
112.451
 30
0.0
 11
204.596
 21
112.396
 31
0.0
  0
LINE
  8
0
 62
     0
 10
204.596
 20
112.396
 30
0.0
 11
204.935
 21
112.451
 31
0.0
  0
LINE
  8
0
 62
     0
 10
204.935
 20
112.451
 30
0.0
 11
205.242
 21
112.608
 31
0.0
  0
LINE
  8
0
 62
     0
 10
205.242
 20
112.608
 30
0.0
 11
205.486
 21
112.85
 31
0.0
  0
LINE
  8
0
 62
     0
 10
205.486
 20
112.85
 30
0.0
 11
205.642
 21
113.158
 31
0.0
  0
LINE
  8
0
 62
     0
 10
205.642
 20
113.158
 30
0.0
 11
205.696
 21
113.497
 31
0.0
  0
LINE
  8
0
 62
     0
 10
205.696
 20
113.497
 30
0.0
 11
205.642
 21
113.836
 31
0.0
  0
LINE
  8
0
 62
     0
 10
205.642
 20
113.836
 30
0.0
 11
205.486
 21
114.143
 31
0.0
  0
LINE
  8
0
 62
     0
 10
205.486
 20
114.143
 30
0.0
 11
205.242
 21
114.387
 31
0.0
  0
LINE
  8
0
 62
     0
 10
205.242
 20
114.387
 30
0.0
 11
204.935
 21
114.543
 31
0.0
  0
LINE
  8
0
 62
     0
 10
204.935
 20
114.543
 30
0.0
 11
204.596
 21
114.596
 31
0.0
  0
LINE
  8
0
 62
     0
 10
204.596
 20
114.596
 30
0.0
 11
204.256
 21
114.543
 31
0.0
  0
LINE
  8
0
 62
     0
 10
303.506
 20
114.543
 30
0.0
 11
303.2
 21
114.387
 31
0.0
  0
LINE
  8
0
 62
     0
 10
303.2
 20
114.387
 30
0.0
 11
302.956
 21
114.143
 31
0.0
  0
LINE
  8
0
 62
     0
 10
302.956
 20
114.143
 30
0.0
 11
302.799
 21
113.836
 31
0.0
  0
LINE
  8
0
 62
     0
 10
302.799
 20
113.836
 30
0.0
 11
302.747
 21
113.497
 31
0.0
  0
LINE
  8
0
 62
     0
 10
302.747
 20
113.497
 30
0.0
 11
302.799
 21
113.158
 31
0.0
  0
LINE
  8
0
 62
     0
 10
302.799
 20
113.158
 30
0.0
 11
302.956
 21
112.85
 31
0.0
  0
LINE
  8
0
 62
     0
 10
302.956
 20
112.85
 30
0.0
 11
303.2
 21
112.608
 31
0.0
  0
LINE
  8
0
 62
     0
 10
303.2
 20
112.608
 30
0.0
 11
303.506
 21
112.451
 31
0.0
  0
LINE
  8
0
 62
     0
 10
303.506
 20
112.451
 30
0.0
 11
303.846
 21
112.396
 31
0.0
  0
LINE
  8
0
 62
     0
 10
303.846
 20
112.396
 30
0.0
 11
304.185
 21
112.451
 31
0.0
  0
LINE
  8
0
 62
     0
 10
304.185
 20
112.451
 30
0.0
 11
304.493
 21
112.608
 31
0.0
  0
LINE
  8
0
 62
     0
 10
304.493
 20
112.608
 30
0.0
 11
304.735
 21
112.85
 31
0.0
  0
LINE
  8
0
 62
     0
 10
304.735
 20
112.85
 30
0.0
 11
304.892
 21
113.158
 31
0.0
  0
LINE
  8
0
 62
     0
 10
304.892
 20
113.158
 30
0.0
 11
304.946
 21
113.497
 31
0.0
  0
LINE
  8
0
 62
     0
 10
304.946
 20
113.497
 30
0.0
 11
304.892
 21
113.836
 31
0.0
  0
LINE
  8
0
 62
     0
 10
304.892
 20
113.836
 30
0.0
 11
304.735
 21
114.143
 31
0.0
  0
LINE
  8
0
 62
     0
 10
304.735
 20
114.143
 30
0.0
 11
304.493
 21
114.387
 31
0.0
  0
LINE
  8
0
 62
     0
 10
304.493
 20
114.387
 30
0.0
 11
304.185
 21
114.543
 31
0.0
  0
LINE
  8
0
 62
     0
 10
304.185
 20
114.543
 30
0.0
 11
303.846
 21
114.596
 31
0.0
  0
LINE
  8
0
 62
     0
 10
303.846
 20
114.596
 30
0.0
 11
303.506
 21
114.543
 31
0.0
  0
LINE
  8
0
 62
     0
 10
5.75606
 20
114.543
 30
0.0
 11
5.44876
 21
114.387
 31
0.0
  0
LINE
  8
0
 62
     0
 10
5.44876
 20
114.387
 30
0.0
 11
5.20485
 21
114.143
 31
0.0
  0
LINE
  8
0
 62
     0
 10
5.20485
 20
114.143
 30
0.0
 11
5.04913
 21
113.836
 31
0.0
  0
LINE
  8
0
 62
     0
 10
5.04913
 20
113.836
 30
0.0
 11
4.9954
 21
113.497
 31
0.0
  0
LINE
  8
0
 62
     0
 10
4.9954
 20
113.497
 30
0.0
 11
5.04913
 21
113.158
 31
0.0
  0
LINE
  8
0
 62
     0
 10
5.04913
 20
113.158
 30
0.0
 11
5.20485
 21
112.85
 31
0.0
  0
LINE
  8
0
 62
     0
 10
5.20485
 20
112.85
 30
0.0
 11
5.44876
 21
112.608
 31
0.0
  0
LINE
  8
0
 62
     0
 10
5.44876
 20
112.608
 30
0.0
 11
5.75606
 21
112.451
 31
0.0
  0
LINE
  8
0
 62
     0
 10
5.75606
 20
112.451
 30
0.0
 11
6.09505
 21
112.396
 31
0.0
  0
LINE
  8
0
 62
     0
 10
6.09505
 20
112.396
 30
0.0
 11
6.43407
 21
112.451
 31
0.0
  0
LINE
  8
0
 62
     0
 10
6.43407
 20
112.451
 30
0.0
 11
6.74137
 21
112.608
 31
0.0
  0
LINE
  8
0
 62
     0
 10
6.74137
 20
112.608
 30
0.0
 11
6.98391
 21
112.85
 31
0.0
  0
LINE
  8
0
 62
     0
 10
6.98391
 20
112.85
 30
0.0
 11
7.141
 21
113.158
 31
0.0
  0
LINE
  8
0
 62
     0
 10
7.141
 20
113.158
 30
0.0
 11
7.1961
 21
113.497
 31
0.0
  0
LINE
  8
0
 62
     0
 10
7.1961
 20
113.497
 30
0.0
 11
7.141
 21
113.836
 31
0.0
  0
LINE
  8
0
 62
     0
 10
7.141
 20
113.836
 30
0.0
 11
6.98391
 21
114.143
 31
0.0
  0
LINE
  8
0
 62
     0
 10
6.98391
 20
114.143
 30
0.0
 11
6.74137
 21
114.387
 31
0.0
  0
LINE
  8
0
 62
     0
 10
6.74137
 20
114.387
 30
0.0
 11
6.43407
 21
114.543
 31
0.0
  0
LINE
  8
0
 62
     0
 10
6.43407
 20
114.543
 30
0.0
 11
6.09505
 21
114.596
 31
0.0
  0
LINE
  8
0
 62
     0
 10
6.09505
 20
114.596
 30
0.0
 11
5.75606
 21
114.543
 31
0.0
  0
ENDSEC
  0
EOF
