%TF.GenerationSoftware,KiCad,Pcbnew,8.0.7*%
%TF.CreationDate,2025-01-18T15:19:19-06:00*%
%TF.ProjectId,bottom-plate,626f7474-6f6d-42d7-906c-6174652e6b69,rev?*%
%TF.SameCoordinates,Original*%
%TF.FileFunction,Legend,Top*%
%TF.FilePolarity,Positive*%
%FSLAX46Y46*%
G04 Gerber Fmt 4.6, Leading zero omitted, Abs format (unit mm)*
G04 Created by KiCad (PCBNEW 8.0.7) date 2025-01-18 15:19:19*
%MOMM*%
%LPD*%
G01*
G04 APERTURE LIST*
%ADD10C,0.300000*%
%ADD11C,0.000000*%
G04 APERTURE END LIST*
D10*
X267029572Y-78116757D02*
X266886715Y-78045328D01*
X266886715Y-78045328D02*
X266672429Y-78045328D01*
X266672429Y-78045328D02*
X266458143Y-78116757D01*
X266458143Y-78116757D02*
X266315286Y-78259614D01*
X266315286Y-78259614D02*
X266243857Y-78402471D01*
X266243857Y-78402471D02*
X266172429Y-78688185D01*
X266172429Y-78688185D02*
X266172429Y-78902471D01*
X266172429Y-78902471D02*
X266243857Y-79188185D01*
X266243857Y-79188185D02*
X266315286Y-79331042D01*
X266315286Y-79331042D02*
X266458143Y-79473900D01*
X266458143Y-79473900D02*
X266672429Y-79545328D01*
X266672429Y-79545328D02*
X266815286Y-79545328D01*
X266815286Y-79545328D02*
X267029572Y-79473900D01*
X267029572Y-79473900D02*
X267101000Y-79402471D01*
X267101000Y-79402471D02*
X267101000Y-78902471D01*
X267101000Y-78902471D02*
X266815286Y-78902471D01*
X267958143Y-78045328D02*
X267958143Y-78402471D01*
X267601000Y-78259614D02*
X267958143Y-78402471D01*
X267958143Y-78402471D02*
X268315286Y-78259614D01*
X267743857Y-78688185D02*
X267958143Y-78402471D01*
X267958143Y-78402471D02*
X268172429Y-78688185D01*
X269101000Y-78045328D02*
X269101000Y-78402471D01*
X268743857Y-78259614D02*
X269101000Y-78402471D01*
X269101000Y-78402471D02*
X269458143Y-78259614D01*
X268886714Y-78688185D02*
X269101000Y-78402471D01*
X269101000Y-78402471D02*
X269315286Y-78688185D01*
X270243857Y-78045328D02*
X270243857Y-78402471D01*
X269886714Y-78259614D02*
X270243857Y-78402471D01*
X270243857Y-78402471D02*
X270601000Y-78259614D01*
X270029571Y-78688185D02*
X270243857Y-78402471D01*
X270243857Y-78402471D02*
X270458143Y-78688185D01*
D11*
%TO.C,G\u002A\u002A\u002A*%
G36*
X227575080Y-113653956D02*
G01*
X227532605Y-113696431D01*
X227490130Y-113653956D01*
X227532605Y-113611481D01*
X227575080Y-113653956D01*
G37*
G36*
X227660030Y-112124859D02*
G01*
X227617555Y-112167334D01*
X227575080Y-112124859D01*
X227617555Y-112082385D01*
X227660030Y-112124859D01*
G37*
G36*
X228169729Y-103205127D02*
G01*
X228127254Y-103247602D01*
X228084779Y-103205127D01*
X228127254Y-103162652D01*
X228169729Y-103205127D01*
G37*
G36*
X258836619Y-89443254D02*
G01*
X258794144Y-89485729D01*
X258751669Y-89443254D01*
X258794144Y-89400779D01*
X258836619Y-89443254D01*
G37*
G36*
X281348324Y-101506130D02*
G01*
X281305849Y-101548605D01*
X281263374Y-101506130D01*
X281305849Y-101463655D01*
X281348324Y-101506130D01*
G37*
G36*
X265604289Y-54939464D02*
G01*
X265592628Y-54989966D01*
X265547655Y-54996097D01*
X265477732Y-54965015D01*
X265491022Y-54939464D01*
X265591838Y-54929297D01*
X265604289Y-54939464D01*
G37*
G36*
X278686563Y-63689296D02*
G01*
X278674902Y-63739799D01*
X278629930Y-63745930D01*
X278560006Y-63714848D01*
X278573296Y-63689296D01*
X278674112Y-63679130D01*
X278686563Y-63689296D01*
G37*
G36*
X278603278Y-63885753D02*
G01*
X278587455Y-63915829D01*
X278507414Y-63996957D01*
X278492478Y-64000779D01*
X278486682Y-63945906D01*
X278502505Y-63915829D01*
X278582546Y-63834702D01*
X278597482Y-63830879D01*
X278603278Y-63885753D01*
G37*
G36*
X270352914Y-69323891D02*
G01*
X270357704Y-69710341D01*
X270376177Y-70134831D01*
X270389796Y-70329542D01*
X270432271Y-70839241D01*
X269938571Y-70864874D01*
X269444871Y-70890507D01*
X268791748Y-70258359D01*
X268449124Y-69944897D01*
X268077203Y-69633577D01*
X267734881Y-69372672D01*
X267594519Y-69277041D01*
X267050412Y-68927869D01*
X268454636Y-68927869D01*
X268945341Y-68924899D01*
X269393205Y-68916691D01*
X269763224Y-68904305D01*
X270020393Y-68888796D01*
X270108684Y-68877905D01*
X270358508Y-68827940D01*
X270352914Y-69323891D01*
G37*
G36*
X271909016Y-69478143D02*
G01*
X272033782Y-69795234D01*
X272163087Y-70065882D01*
X272269764Y-70233474D01*
X272273398Y-70237472D01*
X272390461Y-70399315D01*
X272428592Y-70508872D01*
X272347980Y-70609142D01*
X272122989Y-70709318D01*
X271778885Y-70800020D01*
X271516795Y-70847384D01*
X271280559Y-70871063D01*
X271155437Y-70837799D01*
X271092045Y-70743685D01*
X271064172Y-70593267D01*
X271042257Y-70318490D01*
X271029238Y-69964868D01*
X271026920Y-69734893D01*
X271026920Y-68885395D01*
X271363374Y-68885395D01*
X271699828Y-68885395D01*
X271909016Y-69478143D01*
G37*
G36*
X273296191Y-71052873D02*
G01*
X273406211Y-71274568D01*
X273447990Y-71514749D01*
X273481165Y-71801885D01*
X273568924Y-72172961D01*
X273693618Y-72558137D01*
X273744192Y-72686900D01*
X273759264Y-72760475D01*
X273709036Y-72804886D01*
X273563234Y-72827331D01*
X273291581Y-72835008D01*
X273118898Y-72835562D01*
X272778863Y-72833210D01*
X272571255Y-72818376D01*
X272458600Y-72779387D01*
X272403427Y-72704574D01*
X272373567Y-72603427D01*
X272339989Y-72388941D01*
X272315749Y-72084827D01*
X272308236Y-71867790D01*
X272301167Y-71364287D01*
X272722780Y-71114848D01*
X273144392Y-70865410D01*
X273296191Y-71052873D01*
G37*
G36*
X271085301Y-71482378D02*
G01*
X271377402Y-71498575D01*
X271562604Y-71522194D01*
X271607444Y-71540077D01*
X271643312Y-71675339D01*
X271666474Y-71905977D01*
X271676286Y-72178466D01*
X271672103Y-72439281D01*
X271653279Y-72634896D01*
X271621568Y-72711519D01*
X271497950Y-72707169D01*
X271263485Y-72675772D01*
X271026920Y-72634767D01*
X270732672Y-72569432D01*
X270495518Y-72499640D01*
X270389796Y-72453288D01*
X270288144Y-72337396D01*
X270153105Y-72127924D01*
X270017936Y-71884429D01*
X269915895Y-71666468D01*
X269879861Y-71540077D01*
X269958892Y-71513259D01*
X270171722Y-71492011D01*
X270482272Y-71479053D01*
X270724582Y-71476364D01*
X271085301Y-71482378D01*
G37*
G36*
X277354863Y-69807493D02*
G01*
X277662226Y-70009522D01*
X277723406Y-70066143D01*
X278025422Y-70466632D01*
X278169511Y-70919925D01*
X278153974Y-71412054D01*
X277977115Y-71929053D01*
X277955145Y-71972621D01*
X277811497Y-72204130D01*
X277639147Y-72362918D01*
X277403014Y-72463919D01*
X277068019Y-72522069D01*
X276599081Y-72552300D01*
X276592942Y-72552538D01*
X276144157Y-72570307D01*
X275671109Y-72589890D01*
X275259288Y-72607726D01*
X275169755Y-72611777D01*
X274822299Y-72618592D01*
X274603566Y-72596181D01*
X274473998Y-72538727D01*
X274437854Y-72504143D01*
X274288384Y-72211208D01*
X274237917Y-71810438D01*
X274262454Y-71498828D01*
X274388865Y-71131902D01*
X274660042Y-70785174D01*
X275084892Y-70449508D01*
X275549191Y-70178719D01*
X276128058Y-69906887D01*
X276608287Y-69755113D01*
X277010386Y-69722336D01*
X277354863Y-69807493D01*
G37*
G36*
X268589358Y-59455233D02*
G01*
X269115198Y-59628798D01*
X269573833Y-59924460D01*
X269940795Y-60314938D01*
X270191614Y-60772948D01*
X270301822Y-61271207D01*
X270304846Y-61367990D01*
X270255500Y-61720849D01*
X270099024Y-62099698D01*
X269822758Y-62529856D01*
X269551564Y-62874762D01*
X269333204Y-63129516D01*
X269173994Y-63279867D01*
X269027499Y-63354520D01*
X268847285Y-63382180D01*
X268721950Y-63387610D01*
X268393839Y-63366319D01*
X268021486Y-63297849D01*
X267841301Y-63247445D01*
X267396466Y-63078846D01*
X266919548Y-62861068D01*
X266480629Y-62628073D01*
X266206017Y-62455003D01*
X266062784Y-62329592D01*
X265993445Y-62176814D01*
X265972879Y-61932839D01*
X265972405Y-61861393D01*
X266009673Y-61553698D01*
X266131775Y-61245104D01*
X266354152Y-60911272D01*
X266692248Y-60527863D01*
X267030749Y-60193418D01*
X267517712Y-59791707D01*
X267972128Y-59539864D01*
X268385055Y-59442124D01*
X268589358Y-59455233D01*
G37*
G36*
X275434226Y-66073651D02*
G01*
X275840572Y-66313520D01*
X275994053Y-66451972D01*
X276327878Y-66841973D01*
X276532108Y-67243336D01*
X276637502Y-67707477D01*
X276655512Y-68081497D01*
X276586093Y-68391003D01*
X276410145Y-68669103D01*
X276108567Y-68948905D01*
X275787927Y-69180143D01*
X275079608Y-69623798D01*
X274457373Y-69941766D01*
X273926321Y-70132155D01*
X273491554Y-70193068D01*
X273200509Y-70141233D01*
X272927895Y-69961145D01*
X272662121Y-69664251D01*
X272436899Y-69301507D01*
X272285941Y-68923867D01*
X272243646Y-68694985D01*
X272278075Y-68501059D01*
X272389789Y-68232547D01*
X272557952Y-67920011D01*
X272761727Y-67594014D01*
X272980279Y-67285116D01*
X273192771Y-67023880D01*
X273378366Y-66840869D01*
X273516229Y-66766643D01*
X273553201Y-66774171D01*
X273604060Y-66776413D01*
X273586949Y-66737836D01*
X273608473Y-66627091D01*
X273755218Y-66479939D01*
X273993470Y-66320023D01*
X274289515Y-66170981D01*
X274520194Y-66083459D01*
X274999170Y-65998232D01*
X275434226Y-66073651D01*
G37*
G36*
X273529254Y-53350308D02*
G01*
X273737086Y-53453542D01*
X273868740Y-53548924D01*
X273879260Y-53562500D01*
X273964037Y-53627229D01*
X273985670Y-53622918D01*
X274104166Y-53640332D01*
X274234041Y-53770608D01*
X274338922Y-53963557D01*
X274382435Y-54168990D01*
X274382438Y-54170394D01*
X274353179Y-54471314D01*
X274274781Y-54843382D01*
X274161316Y-55244687D01*
X274026852Y-55633322D01*
X273885462Y-55967375D01*
X273751215Y-56204937D01*
X273670726Y-56290281D01*
X273517061Y-56329917D01*
X273256424Y-56344979D01*
X272949793Y-56336563D01*
X272658145Y-56305769D01*
X272486997Y-56268970D01*
X272291672Y-56171450D01*
X272044043Y-55997115D01*
X271879556Y-55857558D01*
X271601175Y-55628161D01*
X271299361Y-55419364D01*
X271151454Y-55334422D01*
X270791874Y-55150977D01*
X271210895Y-54911664D01*
X271464374Y-54754651D01*
X271666086Y-54607995D01*
X271742331Y-54536900D01*
X271864608Y-54425873D01*
X271924998Y-54401448D01*
X272012653Y-54346422D01*
X272192538Y-54198129D01*
X272435075Y-53981751D01*
X272614724Y-53814237D01*
X273234198Y-53227025D01*
X273529254Y-53350308D01*
G37*
G36*
X265197463Y-54924826D02*
G01*
X265350014Y-54959776D01*
X265377756Y-54986643D01*
X265304967Y-55042515D01*
X265132009Y-55103313D01*
X264926991Y-55150561D01*
X264758025Y-55165784D01*
X264729590Y-55162459D01*
X264634942Y-55207692D01*
X264622705Y-55222453D01*
X264522704Y-55297318D01*
X264320337Y-55414838D01*
X264145983Y-55505796D01*
X263898184Y-55641980D01*
X263714261Y-55765527D01*
X263653300Y-55824358D01*
X263541545Y-55921062D01*
X263500537Y-55930545D01*
X263407710Y-55987048D01*
X263226252Y-56139187D01*
X262986095Y-56360902D01*
X262817509Y-56525194D01*
X262561787Y-56776337D01*
X262353620Y-56975018D01*
X262220256Y-57095559D01*
X262186589Y-57119843D01*
X262189026Y-57051705D01*
X262238830Y-56896373D01*
X262355212Y-56665025D01*
X262536185Y-56388383D01*
X262756051Y-56096643D01*
X262989114Y-55820000D01*
X263209676Y-55588653D01*
X263392039Y-55432796D01*
X263510507Y-55382626D01*
X263523145Y-55387200D01*
X263590681Y-55369706D01*
X263593809Y-55347013D01*
X263670241Y-55261053D01*
X263869988Y-55161645D01*
X264148728Y-55062970D01*
X264462137Y-54979207D01*
X264765892Y-54924537D01*
X264956193Y-54911147D01*
X265197463Y-54924826D01*
G37*
G36*
X278643958Y-99063782D02*
G01*
X278830227Y-99237515D01*
X279073314Y-99495385D01*
X279350702Y-99811469D01*
X279639876Y-100159841D01*
X279918317Y-100514580D01*
X280163508Y-100849759D01*
X280237283Y-100957624D01*
X280780278Y-101847107D01*
X281193525Y-102709698D01*
X281498764Y-103595432D01*
X281649882Y-104208841D01*
X281721648Y-104696659D01*
X281760732Y-105292104D01*
X281767280Y-105936106D01*
X281741442Y-106569595D01*
X281683365Y-107133501D01*
X281641951Y-107372515D01*
X281550927Y-107759565D01*
X281436569Y-108167932D01*
X281310878Y-108562910D01*
X281185854Y-108909795D01*
X281073500Y-109173882D01*
X280985815Y-109320466D01*
X280962327Y-109337877D01*
X280881910Y-109284583D01*
X280789184Y-109116671D01*
X280762382Y-109046669D01*
X280624676Y-108701624D01*
X280417824Y-108247494D01*
X280160618Y-107720562D01*
X279871853Y-107157113D01*
X279570323Y-106593431D01*
X279274820Y-106065800D01*
X279004139Y-105610505D01*
X278887035Y-105425995D01*
X278284565Y-104503719D01*
X278372248Y-102962450D01*
X278402755Y-102350281D01*
X278428652Y-101685807D01*
X278447922Y-101032368D01*
X278458544Y-100453303D01*
X278459981Y-100210645D01*
X278465083Y-99778247D01*
X278479082Y-99414394D01*
X278500070Y-99149054D01*
X278526140Y-99012195D01*
X278537026Y-99000110D01*
X278643958Y-99063782D01*
G37*
G36*
X266527699Y-92144360D02*
G01*
X266786198Y-92204748D01*
X267150953Y-92307825D01*
X267595643Y-92444866D01*
X268093946Y-92607145D01*
X268619541Y-92785938D01*
X269146105Y-92972518D01*
X269647317Y-93158161D01*
X270096856Y-93334141D01*
X270393899Y-93458738D01*
X270572449Y-93541197D01*
X270695315Y-93625763D01*
X270785937Y-93748973D01*
X270867754Y-93947367D01*
X270964206Y-94257481D01*
X271012923Y-94423693D01*
X271117856Y-94785935D01*
X271207490Y-95101121D01*
X271268951Y-95323706D01*
X271285984Y-95389742D01*
X271324206Y-95543405D01*
X271393444Y-95815635D01*
X271481996Y-96160556D01*
X271534167Y-96362599D01*
X271622180Y-96724041D01*
X271712982Y-97132836D01*
X271800144Y-97555084D01*
X271877235Y-97956886D01*
X271937827Y-98304342D01*
X271975488Y-98563552D01*
X271983790Y-98700618D01*
X271979896Y-98712575D01*
X271905175Y-98681535D01*
X271749649Y-98574850D01*
X271703928Y-98539952D01*
X271569966Y-98441580D01*
X271316565Y-98260993D01*
X270964101Y-98012502D01*
X270532951Y-97710417D01*
X270043493Y-97369047D01*
X269516104Y-97002702D01*
X269423586Y-96938585D01*
X267395504Y-95533550D01*
X267153992Y-94595692D01*
X267020521Y-94114738D01*
X266861455Y-93597303D01*
X266701772Y-93122723D01*
X266623132Y-92909741D01*
X266505133Y-92584822D01*
X266425362Y-92325268D01*
X266394030Y-92166799D01*
X266401778Y-92135387D01*
X266527699Y-92144360D01*
G37*
G36*
X275324640Y-54532883D02*
G01*
X275474402Y-54642227D01*
X275703076Y-54846778D01*
X275976622Y-55114827D01*
X276198594Y-55346896D01*
X276845983Y-56043747D01*
X276844682Y-56603032D01*
X276835071Y-56902848D01*
X276811246Y-57136659D01*
X276780970Y-57247751D01*
X276678834Y-57347754D01*
X276501991Y-57491862D01*
X276302408Y-57641117D01*
X276132053Y-57756562D01*
X276045028Y-57799441D01*
X275970002Y-57856106D01*
X275800862Y-58010437D01*
X275562600Y-58238944D01*
X275280209Y-58518135D01*
X275276836Y-58521515D01*
X274991772Y-58801612D01*
X274747589Y-59031068D01*
X274570178Y-59186266D01*
X274485429Y-59243587D01*
X274485305Y-59243589D01*
X274387443Y-59187277D01*
X274227474Y-59046152D01*
X274164719Y-58982788D01*
X273919988Y-58760857D01*
X273649966Y-58561521D01*
X273617890Y-58541461D01*
X273386186Y-58381532D01*
X273235170Y-58210009D01*
X273125571Y-57969904D01*
X273048021Y-57714492D01*
X272971533Y-57438613D01*
X272905970Y-57203325D01*
X272889506Y-57144624D01*
X272867477Y-57023194D01*
X272924944Y-56992040D01*
X273101463Y-57032983D01*
X273120547Y-57038437D01*
X273411742Y-57095542D01*
X273718376Y-57119834D01*
X273722983Y-57119843D01*
X273933320Y-57099728D01*
X274089775Y-57014215D01*
X274254186Y-56825550D01*
X274294195Y-56771109D01*
X274585468Y-56265749D01*
X274826675Y-55636095D01*
X274995473Y-54956591D01*
X275098075Y-54415721D01*
X275324640Y-54532883D01*
G37*
G36*
X272693870Y-61829262D02*
G01*
X272908146Y-62015463D01*
X273149216Y-62299909D01*
X273398563Y-62652998D01*
X273637671Y-63045123D01*
X273848024Y-63446682D01*
X274011105Y-63828069D01*
X274108397Y-64159680D01*
X274127589Y-64333309D01*
X274108030Y-64548747D01*
X274059054Y-64670364D01*
X274037625Y-64680378D01*
X273981236Y-64726579D01*
X273990193Y-64749194D01*
X273966974Y-64851736D01*
X273859684Y-65031325D01*
X273703229Y-65243720D01*
X273532512Y-65444682D01*
X273382439Y-65589969D01*
X273290480Y-65636063D01*
X273213527Y-65663189D01*
X273214378Y-65689545D01*
X273182274Y-65800303D01*
X273076041Y-65981009D01*
X273041935Y-66029344D01*
X272936100Y-66162591D01*
X272829313Y-66241512D01*
X272675666Y-66280315D01*
X272429249Y-66293208D01*
X272185357Y-66294425D01*
X271864572Y-66287625D01*
X271612940Y-66269610D01*
X271475930Y-66243960D01*
X271465827Y-66237791D01*
X271431366Y-66124958D01*
X271411289Y-65907595D01*
X271409194Y-65804029D01*
X271367074Y-65472325D01*
X271217310Y-65182471D01*
X271168755Y-65117352D01*
X270976540Y-64860082D01*
X270757681Y-64553373D01*
X270653281Y-64401828D01*
X270498513Y-64158056D01*
X270431626Y-63989632D01*
X270436665Y-63837426D01*
X270469931Y-63722230D01*
X270626006Y-63406711D01*
X270881093Y-63053035D01*
X271203346Y-62691441D01*
X271560920Y-62352169D01*
X271921970Y-62065458D01*
X272254649Y-61861547D01*
X272524904Y-61770913D01*
X272693870Y-61829262D01*
G37*
G36*
X277676590Y-57618053D02*
G01*
X277764297Y-57803190D01*
X277850268Y-58047133D01*
X277903286Y-58250495D01*
X277954381Y-58418638D01*
X277977751Y-58479040D01*
X278062230Y-58757310D01*
X278143212Y-59160995D01*
X278212899Y-59645666D01*
X278255027Y-60058865D01*
X278311633Y-60737609D01*
X277882187Y-61123717D01*
X277358339Y-61522154D01*
X276745584Y-61872499D01*
X276110868Y-62140170D01*
X275678541Y-62262140D01*
X275300103Y-62338409D01*
X275047874Y-62368653D01*
X274882300Y-62344105D01*
X274763825Y-62256003D01*
X274652896Y-62095581D01*
X274611449Y-62025696D01*
X274339054Y-61624288D01*
X274003586Y-61221528D01*
X273655048Y-60873590D01*
X273416623Y-60683417D01*
X273118215Y-60478945D01*
X273166586Y-59924979D01*
X273201676Y-59628399D01*
X273245677Y-59399355D01*
X273285567Y-59293742D01*
X273398711Y-59283848D01*
X273587675Y-59373373D01*
X273815080Y-59535038D01*
X274043545Y-59741567D01*
X274235691Y-59965684D01*
X274265577Y-60008862D01*
X274407490Y-60207370D01*
X274515069Y-60329430D01*
X274545311Y-60347936D01*
X274620651Y-60282179D01*
X274734574Y-60120369D01*
X274756153Y-60084700D01*
X274936164Y-59839581D01*
X275221884Y-59520423D01*
X275583693Y-59155907D01*
X275991968Y-58774712D01*
X276417086Y-58405517D01*
X276829425Y-58077003D01*
X276831381Y-58075528D01*
X277130731Y-57854987D01*
X277381964Y-57679215D01*
X277553273Y-57569926D01*
X277609172Y-57544592D01*
X277676590Y-57618053D01*
G37*
G36*
X278190034Y-61953126D02*
G01*
X278174669Y-62105544D01*
X278160386Y-62192659D01*
X278047188Y-62760561D01*
X277892279Y-63386502D01*
X277715158Y-63998653D01*
X277535326Y-64525182D01*
X277508101Y-64595428D01*
X277389573Y-64892223D01*
X277297221Y-65118372D01*
X277246709Y-65235685D01*
X277242112Y-65243904D01*
X277172721Y-65207399D01*
X277023835Y-65103475D01*
X277015883Y-65097586D01*
X276786155Y-64976784D01*
X276450591Y-64857384D01*
X276072474Y-64757078D01*
X275715084Y-64693559D01*
X275523552Y-64680378D01*
X275256214Y-64680378D01*
X275247118Y-64552953D01*
X275316886Y-64552953D01*
X275359361Y-64595428D01*
X275401836Y-64552953D01*
X275486786Y-64552953D01*
X275529261Y-64595428D01*
X275571736Y-64552953D01*
X275529261Y-64510478D01*
X275486786Y-64552953D01*
X275401836Y-64552953D01*
X275359361Y-64510478D01*
X275316886Y-64552953D01*
X275247118Y-64552953D01*
X275209219Y-64022017D01*
X275179211Y-63686350D01*
X275143083Y-63404023D01*
X275107935Y-63229017D01*
X275103042Y-63214993D01*
X275091252Y-63109153D01*
X275196728Y-63069636D01*
X275294209Y-63066331D01*
X275604633Y-63033280D01*
X276014765Y-62944536D01*
X276470098Y-62815709D01*
X276916129Y-62662412D01*
X277298350Y-62500254D01*
X277336416Y-62481408D01*
X277602416Y-62359987D01*
X277809186Y-62289296D01*
X277911254Y-62284482D01*
X277941792Y-62287158D01*
X277925827Y-62253223D01*
X277943817Y-62137336D01*
X278044033Y-62016675D01*
X278152346Y-61932362D01*
X278190034Y-61953126D01*
G37*
G36*
X271804692Y-94115495D02*
G01*
X271943258Y-94210024D01*
X271975493Y-94219311D01*
X272102305Y-94272992D01*
X272342812Y-94399449D01*
X272666869Y-94581036D01*
X273044333Y-94800107D01*
X273445060Y-95039016D01*
X273838905Y-95280116D01*
X274195725Y-95505760D01*
X274382438Y-95628349D01*
X274792669Y-95909655D01*
X275255362Y-96237874D01*
X275738919Y-96589493D01*
X276211742Y-96940997D01*
X276642232Y-97268871D01*
X276998792Y-97549602D01*
X277249822Y-97759675D01*
X277266192Y-97774342D01*
X277610532Y-98085432D01*
X277609597Y-100432905D01*
X277606845Y-101278372D01*
X277598930Y-101965171D01*
X277585258Y-102504471D01*
X277565233Y-102907443D01*
X277538258Y-103185255D01*
X277503737Y-103349079D01*
X277461076Y-103410083D01*
X277450754Y-103410842D01*
X277376065Y-103350846D01*
X277205305Y-103190002D01*
X276960423Y-102949682D01*
X276663367Y-102651257D01*
X276506184Y-102491081D01*
X276104562Y-102092050D01*
X275656832Y-101666741D01*
X275215626Y-101264099D01*
X274833574Y-100933068D01*
X274808246Y-100912057D01*
X274488569Y-100647263D01*
X274211336Y-100416394D01*
X274005947Y-100244016D01*
X273901803Y-100154697D01*
X273901101Y-100154060D01*
X273781967Y-100059421D01*
X273570966Y-99903354D01*
X273338231Y-99736974D01*
X272876540Y-99411964D01*
X272822095Y-98826153D01*
X272756262Y-98308747D01*
X272647699Y-97673024D01*
X272506067Y-96962291D01*
X272341023Y-96219852D01*
X272162227Y-95489011D01*
X271979339Y-94813075D01*
X271802018Y-94235347D01*
X271790314Y-94200445D01*
X271771401Y-94099597D01*
X271804692Y-94115495D01*
G37*
G36*
X274569535Y-84202057D02*
G01*
X274618873Y-84321347D01*
X274673716Y-84560655D01*
X274723070Y-84870902D01*
X274727950Y-84909342D01*
X274828267Y-85601499D01*
X274961840Y-86349696D01*
X275115739Y-87089473D01*
X275277035Y-87756371D01*
X275356193Y-88041582D01*
X275451192Y-88371287D01*
X275524614Y-88637698D01*
X275565302Y-88799819D01*
X275569953Y-88827156D01*
X275507663Y-88906355D01*
X275341660Y-89058001D01*
X275106110Y-89255271D01*
X274835180Y-89471340D01*
X274563038Y-89679383D01*
X274323850Y-89852577D01*
X274151782Y-89964097D01*
X274087380Y-89991128D01*
X273978746Y-89952797D01*
X273756067Y-89852966D01*
X273456018Y-89708555D01*
X273235615Y-89598160D01*
X272909725Y-89429550D01*
X272643993Y-89286539D01*
X272472924Y-89188013D01*
X272428592Y-89156473D01*
X272331329Y-89091058D01*
X272137010Y-88989289D01*
X272046318Y-88946124D01*
X271857275Y-88849184D01*
X271556093Y-88683746D01*
X271176325Y-88468715D01*
X270751525Y-88222997D01*
X270487397Y-88067761D01*
X269268276Y-87346728D01*
X269510474Y-87087754D01*
X269736190Y-86866433D01*
X270045444Y-86589901D01*
X270403608Y-86286273D01*
X270776056Y-85983661D01*
X271128159Y-85710178D01*
X271425291Y-85493936D01*
X271632824Y-85363049D01*
X271638350Y-85360201D01*
X271847788Y-85246875D01*
X271984138Y-85160661D01*
X272003843Y-85143191D01*
X272142784Y-85037996D01*
X272397004Y-84904074D01*
X272732755Y-84753804D01*
X273116291Y-84599564D01*
X273513863Y-84453733D01*
X273891725Y-84328692D01*
X274216128Y-84236818D01*
X274453325Y-84190491D01*
X274569535Y-84202057D01*
G37*
G36*
X258977829Y-89549441D02*
G01*
X259074006Y-89647955D01*
X259110564Y-89655629D01*
X259222644Y-89690051D01*
X259448359Y-89782349D01*
X259748565Y-89916066D01*
X259918841Y-89995428D01*
X260240225Y-90143783D01*
X260505205Y-90259306D01*
X260675477Y-90325623D01*
X260713848Y-90335227D01*
X260789396Y-90394235D01*
X260790465Y-90406019D01*
X260858154Y-90475097D01*
X260896652Y-90481718D01*
X261015186Y-90512585D01*
X261255232Y-90592509D01*
X261580025Y-90708789D01*
X261894813Y-90826551D01*
X262365441Y-90995223D01*
X262919619Y-91177629D01*
X263475757Y-91347553D01*
X263806184Y-91440652D01*
X264208481Y-91549613D01*
X264557769Y-91645627D01*
X264817454Y-91718538D01*
X264950943Y-91758192D01*
X264953007Y-91758897D01*
X265153303Y-91808160D01*
X265229052Y-91819444D01*
X265371412Y-91851135D01*
X265406715Y-91871362D01*
X265451694Y-91970887D01*
X265536970Y-92196909D01*
X265652242Y-92518919D01*
X265787206Y-92906405D01*
X265931559Y-93328859D01*
X266074997Y-93755769D01*
X266207216Y-94156624D01*
X266317915Y-94500916D01*
X266396789Y-94758132D01*
X266433535Y-94897764D01*
X266434154Y-94913835D01*
X266399753Y-94885526D01*
X266397154Y-94851727D01*
X266330916Y-94758763D01*
X266295908Y-94752619D01*
X266183352Y-94711592D01*
X265970954Y-94605266D01*
X265702704Y-94458775D01*
X265422593Y-94297254D01*
X265174612Y-94145834D01*
X265002751Y-94029650D01*
X264953007Y-93985368D01*
X264846000Y-93915695D01*
X264719395Y-93866370D01*
X264571198Y-93790789D01*
X264528257Y-93727496D01*
X264462114Y-93652185D01*
X264432428Y-93648271D01*
X264318706Y-93601175D01*
X264089538Y-93469840D01*
X263767430Y-93269195D01*
X263374892Y-93014169D01*
X262934432Y-92719691D01*
X262468557Y-92400690D01*
X261999775Y-92072094D01*
X261550596Y-91748833D01*
X261385114Y-91627079D01*
X260968669Y-91312150D01*
X262829261Y-91312150D01*
X262871736Y-91354625D01*
X262914211Y-91312150D01*
X262871736Y-91269675D01*
X262829261Y-91312150D01*
X260968669Y-91312150D01*
X260915178Y-91271698D01*
X260453392Y-90909503D01*
X260019204Y-90557072D01*
X259632061Y-90230981D01*
X259311412Y-89947807D01*
X259076705Y-89724128D01*
X258947389Y-89576520D01*
X258928275Y-89532962D01*
X258956702Y-89509884D01*
X258977829Y-89549441D01*
G37*
G36*
X264338513Y-78472914D02*
G01*
X264569409Y-78552857D01*
X264859980Y-78664008D01*
X265165684Y-78788296D01*
X265441984Y-78907651D01*
X265644337Y-79004002D01*
X265727053Y-79057013D01*
X265800013Y-79118918D01*
X265812003Y-79116640D01*
X265929641Y-79119952D01*
X266090098Y-79185166D01*
X266209336Y-79272819D01*
X266227254Y-79311632D01*
X266260002Y-79366162D01*
X266278008Y-79354262D01*
X266384568Y-79359705D01*
X266587278Y-79460808D01*
X266857776Y-79637627D01*
X267167703Y-79870222D01*
X267488698Y-80138650D01*
X267779306Y-80409917D01*
X268259035Y-80956349D01*
X268599046Y-81517350D01*
X268826327Y-82140283D01*
X268872646Y-82328706D01*
X268938964Y-82576032D01*
X269003180Y-82737979D01*
X269036830Y-82774692D01*
X269112620Y-82708152D01*
X269241706Y-82536221D01*
X269354455Y-82362736D01*
X269667188Y-81927264D01*
X270086817Y-81448126D01*
X270573358Y-80967048D01*
X271086825Y-80525756D01*
X271196819Y-80440146D01*
X271482098Y-80233968D01*
X271804737Y-80018758D01*
X272135020Y-79811969D01*
X272443233Y-79631051D01*
X272699657Y-79493455D01*
X272874578Y-79416633D01*
X272938291Y-79417446D01*
X272986566Y-79414199D01*
X273058744Y-79353332D01*
X273195714Y-79271775D01*
X273454592Y-79160578D01*
X273793181Y-79034099D01*
X274169284Y-78906693D01*
X274540704Y-78792718D01*
X274865245Y-78706530D01*
X275083460Y-78664450D01*
X275387047Y-78626796D01*
X275255288Y-78938035D01*
X275032005Y-79550918D01*
X274863928Y-80216879D01*
X274744850Y-80969462D01*
X274668563Y-81842209D01*
X274649553Y-82211176D01*
X274594813Y-83474081D01*
X274000164Y-83626332D01*
X272987974Y-83962601D01*
X271966488Y-84449731D01*
X270961826Y-85072415D01*
X270000107Y-85815346D01*
X269513805Y-86255424D01*
X268733274Y-87001567D01*
X268478425Y-86815501D01*
X267493983Y-86079710D01*
X266650757Y-85411863D01*
X265938518Y-84802898D01*
X265347033Y-84243757D01*
X264866072Y-83725378D01*
X264567337Y-83351982D01*
X264207927Y-82867398D01*
X264245911Y-81780410D01*
X264255342Y-81232829D01*
X264251091Y-80603732D01*
X264234412Y-79980847D01*
X264214334Y-79567836D01*
X264193456Y-79153338D01*
X264185067Y-78807603D01*
X264189237Y-78561744D01*
X264206035Y-78446873D01*
X264211831Y-78442251D01*
X264338513Y-78472914D01*
G37*
G36*
X259611212Y-73954764D02*
G01*
X259845421Y-74964063D01*
X260163856Y-75867743D01*
X260558235Y-76643681D01*
X260699772Y-76862332D01*
X260845005Y-77083557D01*
X260939606Y-77247106D01*
X260960364Y-77300419D01*
X261019351Y-77391197D01*
X261177095Y-77566640D01*
X261404776Y-77799208D01*
X261673572Y-78061365D01*
X261954662Y-78325572D01*
X262219224Y-78564291D01*
X262438436Y-78749984D01*
X262583478Y-78855113D01*
X262592749Y-78860113D01*
X262742886Y-78959118D01*
X262787107Y-79036182D01*
X262786136Y-79037951D01*
X262734707Y-79205003D01*
X262691868Y-79500823D01*
X262659782Y-79884404D01*
X262640611Y-80314735D01*
X262636518Y-80750807D01*
X262649665Y-81151612D01*
X262664768Y-81339658D01*
X262704372Y-81673554D01*
X262756033Y-81952171D01*
X262834355Y-82205690D01*
X262953945Y-82464291D01*
X263129407Y-82758156D01*
X263375349Y-83117466D01*
X263706375Y-83572404D01*
X263818866Y-83724499D01*
X264027979Y-83989525D01*
X264308030Y-84319687D01*
X264640026Y-84695031D01*
X265004975Y-85095603D01*
X265383884Y-85501448D01*
X265757760Y-85892613D01*
X266107611Y-86249143D01*
X266414443Y-86551084D01*
X266659265Y-86778481D01*
X266823083Y-86911381D01*
X266877176Y-86937640D01*
X266976138Y-86991037D01*
X267150350Y-87127185D01*
X267272617Y-87234964D01*
X267459501Y-87402694D01*
X267587627Y-87510348D01*
X267620095Y-87531883D01*
X267698243Y-87572913D01*
X267889133Y-87683388D01*
X268160394Y-87844386D01*
X268358678Y-87963656D01*
X268662207Y-88137545D01*
X269081529Y-88364363D01*
X269578860Y-88624374D01*
X270116418Y-88897840D01*
X270656419Y-89165025D01*
X270687120Y-89179963D01*
X271760472Y-89720596D01*
X272702876Y-90240122D01*
X273547416Y-90761698D01*
X274327176Y-91308479D01*
X275075239Y-91903624D01*
X275824691Y-92570288D01*
X276585557Y-93308471D01*
X277007351Y-93731846D01*
X277331873Y-94059618D01*
X277581488Y-94316818D01*
X277778560Y-94528480D01*
X277945453Y-94719638D01*
X278104532Y-94915323D01*
X278278161Y-95140570D01*
X278488704Y-95420410D01*
X278573926Y-95534112D01*
X279460531Y-96842687D01*
X280187767Y-98194032D01*
X280764089Y-99604439D01*
X280902500Y-100021438D01*
X281071222Y-100569723D01*
X281180556Y-100961991D01*
X281229427Y-101201801D01*
X281216764Y-101292714D01*
X281141493Y-101238292D01*
X281002542Y-101042093D01*
X280798837Y-100707678D01*
X280730827Y-100591101D01*
X280107439Y-99607812D01*
X279410097Y-98693654D01*
X278596496Y-97793732D01*
X278495930Y-97691068D01*
X277305893Y-96591403D01*
X275987578Y-95575624D01*
X274537365Y-94641976D01*
X272951635Y-93788705D01*
X271226767Y-93014058D01*
X269359142Y-92316280D01*
X267345140Y-91693617D01*
X265181140Y-91144314D01*
X264815593Y-91061977D01*
X264065991Y-90894121D01*
X263453541Y-90751833D01*
X262948866Y-90626989D01*
X262522592Y-90511463D01*
X262145344Y-90397130D01*
X261787747Y-90275866D01*
X261420427Y-90139546D01*
X261270340Y-90081386D01*
X260183887Y-89585422D01*
X259167463Y-88980286D01*
X258249401Y-88285768D01*
X257458029Y-87521656D01*
X257231628Y-87260172D01*
X256982319Y-86939987D01*
X256717499Y-86569993D01*
X256459436Y-86184884D01*
X256230396Y-85819359D01*
X256052643Y-85508111D01*
X255948445Y-85285838D01*
X255934064Y-85238237D01*
X255878547Y-85098178D01*
X255854091Y-85068338D01*
X255785234Y-84955320D01*
X255680150Y-84717000D01*
X255552257Y-84390559D01*
X255414973Y-84013179D01*
X255281714Y-83622042D01*
X255165899Y-83254331D01*
X255080944Y-82947226D01*
X255066340Y-82885347D01*
X254953809Y-82130740D01*
X254926610Y-81296635D01*
X254983312Y-80449611D01*
X255122484Y-79656247D01*
X255136997Y-79597643D01*
X255504969Y-78475130D01*
X256038241Y-77350328D01*
X256732464Y-76230162D01*
X257583288Y-75121561D01*
X258586364Y-74031453D01*
X258706500Y-73912289D01*
X259469011Y-73162595D01*
X259611212Y-73954764D01*
G37*
G36*
X271687493Y-48634036D02*
G01*
X272013827Y-48963030D01*
X272283665Y-49203270D01*
X272551759Y-49394420D01*
X272872858Y-49576141D01*
X273238877Y-49757886D01*
X273918255Y-50122228D01*
X274652029Y-50578939D01*
X275385414Y-51090217D01*
X276063621Y-51618256D01*
X276534427Y-52031850D01*
X277446804Y-52995216D01*
X278206300Y-54022812D01*
X278810155Y-55109550D01*
X279255608Y-56250346D01*
X279539898Y-57440114D01*
X279568384Y-57621890D01*
X279617157Y-58137409D01*
X279635412Y-58762455D01*
X279625117Y-59442016D01*
X279588245Y-60121081D01*
X279526767Y-60744642D01*
X279442652Y-61257686D01*
X279437234Y-61282385D01*
X279336618Y-61695391D01*
X279217035Y-62127858D01*
X279088867Y-62548588D01*
X278962498Y-62926387D01*
X278848309Y-63230058D01*
X278756683Y-63428404D01*
X278702150Y-63491080D01*
X278653060Y-63425716D01*
X278664226Y-63342418D01*
X278732037Y-63054888D01*
X278801373Y-62648424D01*
X278865999Y-62173818D01*
X278919679Y-61681859D01*
X278956179Y-61223336D01*
X278969271Y-60857635D01*
X278925791Y-60065712D01*
X278803999Y-59217540D01*
X278617561Y-58399720D01*
X278540376Y-58139241D01*
X278133424Y-57118229D01*
X277576537Y-56121441D01*
X276889678Y-55172866D01*
X276092813Y-54296493D01*
X275205905Y-53516313D01*
X274248919Y-52856316D01*
X274045226Y-52737662D01*
X273456072Y-52405127D01*
X273430793Y-51470679D01*
X273417942Y-51061805D01*
X273401272Y-50792407D01*
X273373941Y-50632089D01*
X273329108Y-50550454D01*
X273259933Y-50517107D01*
X273214378Y-50509085D01*
X273132235Y-50503383D01*
X273077815Y-50532873D01*
X273045410Y-50625732D01*
X273029317Y-50810137D01*
X273023829Y-51114266D01*
X273023241Y-51453063D01*
X273023241Y-52424187D01*
X272322405Y-53096473D01*
X271274971Y-53989810D01*
X270155750Y-54729165D01*
X268964786Y-55314516D01*
X267702121Y-55745842D01*
X266684100Y-55972454D01*
X266350695Y-56029809D01*
X266085963Y-56073874D01*
X265930672Y-56097927D01*
X265907903Y-56100445D01*
X265954768Y-56057848D01*
X266115504Y-55943558D01*
X266361107Y-55777822D01*
X266516306Y-55675696D01*
X266804867Y-55489375D01*
X267035023Y-55344632D01*
X267173424Y-55262254D01*
X267197809Y-55250946D01*
X267279355Y-55195554D01*
X267457135Y-55044989D01*
X267705718Y-54822667D01*
X267999671Y-54552007D01*
X268313564Y-54256424D01*
X268621966Y-53959336D01*
X268899446Y-53684160D01*
X268900299Y-53683297D01*
X269492072Y-53084726D01*
X269229693Y-53058914D01*
X268949711Y-53072924D01*
X268526554Y-53153082D01*
X267972181Y-53296250D01*
X267298547Y-53499293D01*
X266517610Y-53759072D01*
X266384725Y-53805264D01*
X265676390Y-54034931D01*
X265099332Y-54181095D01*
X264638393Y-54246411D01*
X264278414Y-54233532D01*
X264133641Y-54199272D01*
X263987990Y-54086290D01*
X263817084Y-53852371D01*
X263708892Y-53657725D01*
X263564557Y-53384920D01*
X263434729Y-53164516D01*
X263360325Y-53060038D01*
X263263256Y-52913910D01*
X263204840Y-52707907D01*
X263179948Y-52407704D01*
X263183456Y-51978973D01*
X263186347Y-51895143D01*
X263211535Y-51215829D01*
X263752976Y-51149123D01*
X264109685Y-51082324D01*
X264532370Y-50970217D01*
X264931793Y-50836587D01*
X264945664Y-50831269D01*
X265405577Y-50622086D01*
X265953347Y-50321725D01*
X266286443Y-50117074D01*
X267926251Y-50117074D01*
X267955027Y-50205045D01*
X268070133Y-50224413D01*
X268244813Y-50199601D01*
X268510096Y-50128421D01*
X268731662Y-50032567D01*
X268748069Y-50022511D01*
X268897121Y-49878023D01*
X268998467Y-49696531D01*
X269021292Y-49541959D01*
X268999841Y-49500234D01*
X268894053Y-49484252D01*
X268691790Y-49503745D01*
X268642794Y-49512265D01*
X268367931Y-49612546D01*
X268125525Y-49782781D01*
X267964447Y-49981719D01*
X267926251Y-50117074D01*
X266286443Y-50117074D01*
X266551802Y-49954040D01*
X267163766Y-49542887D01*
X267752067Y-49112120D01*
X268250096Y-48710784D01*
X268581120Y-48519949D01*
X269073059Y-48373237D01*
X269722540Y-48271449D01*
X270285821Y-48226429D01*
X271243718Y-48173883D01*
X271687493Y-48634036D01*
G37*
G36*
X264576332Y-62354810D02*
G01*
X264809663Y-62418069D01*
X265111715Y-62537104D01*
X265504200Y-62718898D01*
X266008827Y-62970431D01*
X266439629Y-63191330D01*
X266809845Y-63384786D01*
X267250870Y-63619134D01*
X267739848Y-63881828D01*
X268253930Y-64160324D01*
X268770261Y-64442080D01*
X269265990Y-64714549D01*
X269718263Y-64965188D01*
X270104229Y-65181452D01*
X270401035Y-65350798D01*
X270585828Y-65460680D01*
X270635130Y-65494347D01*
X270647974Y-65609371D01*
X270590922Y-65822663D01*
X270483351Y-66087936D01*
X270344636Y-66358901D01*
X270194154Y-66589270D01*
X270158249Y-66633598D01*
X269750505Y-67006924D01*
X269259717Y-67263954D01*
X268674654Y-67406925D01*
X267984090Y-67438077D01*
X267176793Y-67359648D01*
X266821903Y-67298708D01*
X266549508Y-67241350D01*
X266344576Y-67187918D01*
X266273323Y-67161046D01*
X266128242Y-67112883D01*
X266002637Y-67091901D01*
X265933945Y-67088982D01*
X265883778Y-67112650D01*
X265848631Y-67186239D01*
X265825003Y-67333082D01*
X265809392Y-67576510D01*
X265798295Y-67939858D01*
X265788210Y-68446456D01*
X265786668Y-68530729D01*
X265774855Y-69074467D01*
X265759766Y-69478913D01*
X265737771Y-69774674D01*
X265705238Y-69992357D01*
X265658539Y-70162568D01*
X265594041Y-70315916D01*
X265568893Y-70366735D01*
X265436808Y-70641712D01*
X265388312Y-70793543D01*
X265421220Y-70845744D01*
X265526418Y-70824286D01*
X265743758Y-70694347D01*
X265996255Y-70466296D01*
X266235265Y-70189816D01*
X266406845Y-69925010D01*
X266571547Y-69605429D01*
X266845387Y-69743889D01*
X267327634Y-70044143D01*
X267818705Y-70447398D01*
X268258018Y-70901582D01*
X268404033Y-71083657D01*
X268586729Y-71343429D01*
X268777481Y-71641793D01*
X268957888Y-71945881D01*
X269109544Y-72222823D01*
X269214048Y-72439750D01*
X269252994Y-72563793D01*
X269242238Y-72580712D01*
X269247495Y-72641205D01*
X269318256Y-72771849D01*
X269426599Y-73005621D01*
X269545930Y-73367965D01*
X269665925Y-73818896D01*
X269776260Y-74318427D01*
X269866609Y-74826574D01*
X269889671Y-74984887D01*
X269940509Y-75340502D01*
X269983418Y-75559122D01*
X270032456Y-75672222D01*
X270101678Y-75711279D01*
X270205142Y-75707767D01*
X270212139Y-75706960D01*
X270432271Y-75681381D01*
X270474746Y-74473011D01*
X270517221Y-73264641D01*
X273830264Y-73241239D01*
X277143308Y-73217836D01*
X277166497Y-74670602D01*
X277189686Y-76123369D01*
X276826698Y-76459005D01*
X276577758Y-76710851D01*
X276346512Y-76979908D01*
X276251334Y-77108166D01*
X276112028Y-77297522D01*
X276008386Y-77409410D01*
X275984457Y-77422272D01*
X275925596Y-77494450D01*
X275876976Y-77633934D01*
X275759467Y-77822250D01*
X275634154Y-77882844D01*
X274403774Y-78174221D01*
X273305624Y-78537162D01*
X272312179Y-78985407D01*
X271395913Y-79532695D01*
X270529299Y-80192765D01*
X269943962Y-80723016D01*
X269622775Y-81026388D01*
X269403174Y-81216982D01*
X269270231Y-81305677D01*
X269209018Y-81303351D01*
X269200498Y-81264785D01*
X269172680Y-81110223D01*
X269134660Y-81061537D01*
X269050008Y-80976735D01*
X268925930Y-80804108D01*
X268901048Y-80765155D01*
X268450135Y-80179978D01*
X267851136Y-79615671D01*
X267125763Y-79087304D01*
X266295731Y-78609944D01*
X265382752Y-78198662D01*
X264995481Y-78054726D01*
X264503440Y-77852077D01*
X264148172Y-77631562D01*
X264016297Y-77513791D01*
X263757635Y-77270468D01*
X263476617Y-77032295D01*
X263398552Y-76971761D01*
X263220961Y-76816331D01*
X263130341Y-76692010D01*
X263129139Y-76654173D01*
X263112660Y-76609041D01*
X263057537Y-76621482D01*
X262927351Y-76589168D01*
X262754591Y-76438870D01*
X262710288Y-76386897D01*
X262515356Y-76148453D01*
X262329079Y-75924754D01*
X262302831Y-75893756D01*
X261987439Y-75469624D01*
X261651444Y-74925815D01*
X261318650Y-74306647D01*
X261012863Y-73656437D01*
X260757886Y-73019502D01*
X260755727Y-73013500D01*
X260683625Y-72807006D01*
X260628745Y-72623198D01*
X260588729Y-72434958D01*
X260561220Y-72215169D01*
X260543861Y-71936714D01*
X260534294Y-71572477D01*
X260530162Y-71095339D01*
X260529107Y-70478184D01*
X260529080Y-70406321D01*
X260528415Y-68428227D01*
X260829807Y-67829742D01*
X261139120Y-67137698D01*
X261405087Y-66367205D01*
X261640189Y-65480189D01*
X261725701Y-65096825D01*
X261811972Y-64700356D01*
X261879183Y-64437445D01*
X261943214Y-64275382D01*
X262019950Y-64181460D01*
X262125272Y-64122969D01*
X262215063Y-64089006D01*
X262444342Y-63960372D01*
X262736193Y-63732358D01*
X263051012Y-63441325D01*
X263349198Y-63123636D01*
X263571881Y-62843192D01*
X263780793Y-62625295D01*
X264041380Y-62445010D01*
X264071582Y-62429895D01*
X264229001Y-62367705D01*
X264390015Y-62340349D01*
X264576332Y-62354810D01*
G37*
%TD*%
M02*
