%TF.GenerationSoftware,KiCad,Pcbnew,8.0.7*%
%TF.CreationDate,2025-01-18T15:19:19-06:00*%
%TF.ProjectId,bottom-plate,626f7474-6f6d-42d7-906c-6174652e6b69,rev?*%
%TF.SameCoordinates,Original*%
%TF.FileFunction,Copper,L2,Bot*%
%TF.FilePolarity,Positive*%
%FSLAX46Y46*%
G04 Gerber Fmt 4.6, Leading zero omitted, Abs format (unit mm)*
G04 Created by KiCad (PCBNEW 8.0.7) date 2025-01-18 15:19:19*
%MOMM*%
%LPD*%
G01*
G04 APERTURE LIST*
G04 APERTURE END LIST*
%TA.AperFunction,NonConductor*%
G36*
X320010395Y-17898601D02*
G01*
X320443858Y-17916124D01*
X320453321Y-17916870D01*
X320872916Y-17966179D01*
X320882631Y-17967715D01*
X321255340Y-18041934D01*
X321296282Y-18050087D01*
X321305718Y-18052352D01*
X321712583Y-18167068D01*
X321721792Y-18170059D01*
X322117695Y-18316053D01*
X322126724Y-18319794D01*
X322482494Y-18483932D01*
X322508700Y-18496022D01*
X322517511Y-18500522D01*
X322886240Y-18707774D01*
X322894201Y-18712652D01*
X323245648Y-18946633D01*
X323253738Y-18952503D01*
X323427979Y-19090015D01*
X323584744Y-19213734D01*
X323592121Y-19220040D01*
X323902252Y-19506884D01*
X323909089Y-19513721D01*
X324195942Y-19823873D01*
X324202248Y-19831250D01*
X324463480Y-20162271D01*
X324469353Y-20170364D01*
X324703350Y-20521786D01*
X324708235Y-20529758D01*
X324915479Y-20898510D01*
X324919974Y-20907312D01*
X325096213Y-21289275D01*
X325099961Y-21298323D01*
X325245933Y-21694160D01*
X325248940Y-21703416D01*
X325363646Y-22110289D01*
X325365910Y-22119716D01*
X325430773Y-22445408D01*
X325444805Y-22515866D01*
X325448289Y-22533357D01*
X325449830Y-22543106D01*
X325499128Y-22962642D01*
X325499874Y-22972111D01*
X325512110Y-23275225D01*
X325516827Y-23392085D01*
X325517413Y-23406588D01*
X325517514Y-23411590D01*
X325517514Y-130636408D01*
X325517413Y-130641408D01*
X325517336Y-130643313D01*
X325499874Y-131075888D01*
X325499128Y-131085357D01*
X325449831Y-131504889D01*
X325448290Y-131514638D01*
X325365910Y-131928281D01*
X325363646Y-131937707D01*
X325248940Y-132344586D01*
X325245933Y-132353843D01*
X325099964Y-132749667D01*
X325096216Y-132758715D01*
X324919964Y-133140704D01*
X324915469Y-133149505D01*
X324708234Y-133518243D01*
X324703349Y-133526216D01*
X324469355Y-133877631D01*
X324463482Y-133885723D01*
X324202253Y-134216745D01*
X324195947Y-134224123D01*
X323909089Y-134534280D01*
X323902252Y-134541117D01*
X323592121Y-134827962D01*
X323584744Y-134834268D01*
X323253751Y-135095488D01*
X323245648Y-135101368D01*
X322894211Y-135335338D01*
X322886252Y-135340215D01*
X322517505Y-135547481D01*
X322508692Y-135551981D01*
X322126726Y-135728200D01*
X322117684Y-135731946D01*
X321721821Y-135877928D01*
X321712568Y-135880934D01*
X321305714Y-135995646D01*
X321296281Y-135997911D01*
X320882641Y-136080282D01*
X320872897Y-136081823D01*
X320453981Y-136131053D01*
X320444253Y-136131809D01*
X320010806Y-136148409D01*
X320006061Y-136148500D01*
X22278941Y-136148500D01*
X22274206Y-136148410D01*
X21839693Y-136131806D01*
X21829955Y-136131048D01*
X21411111Y-136081824D01*
X21401366Y-136080284D01*
X20987714Y-135997909D01*
X20978283Y-135995644D01*
X20571425Y-135880935D01*
X20562170Y-135877929D01*
X20166308Y-135731942D01*
X20157266Y-135728196D01*
X19775306Y-135551977D01*
X19766497Y-135547478D01*
X19397740Y-135340218D01*
X19389785Y-135335345D01*
X19038347Y-135101357D01*
X19030271Y-135095496D01*
X18699253Y-134834260D01*
X18691878Y-134827956D01*
X18381731Y-134541114D01*
X18374890Y-134534273D01*
X18088039Y-134224115D01*
X18081735Y-134216740D01*
X17989868Y-134100332D01*
X17820497Y-133885715D01*
X17814641Y-133877646D01*
X17580648Y-133526211D01*
X17575783Y-133518271D01*
X17368510Y-133149483D01*
X17364027Y-133140704D01*
X17187794Y-132758715D01*
X17184051Y-132749681D01*
X17038068Y-132353830D01*
X17035062Y-132344573D01*
X17007525Y-132246902D01*
X16920352Y-131937707D01*
X16918090Y-131928288D01*
X16913273Y-131904101D01*
X16835715Y-131514634D01*
X16834176Y-131504890D01*
X16832333Y-131489204D01*
X16784873Y-131085363D01*
X16784127Y-131075899D01*
X16782250Y-131029380D01*
X16766667Y-130643082D01*
X20662202Y-130643082D01*
X20662206Y-130657085D01*
X20662329Y-130662211D01*
X20670192Y-130712505D01*
X20670968Y-130718392D01*
X20676418Y-130769045D01*
X20677611Y-130773962D01*
X20682861Y-130793543D01*
X20715537Y-131002549D01*
X20716865Y-131027991D01*
X20716796Y-131029344D01*
X20716797Y-131029355D01*
X20716797Y-131029359D01*
X20726942Y-131076744D01*
X20728200Y-131083546D01*
X20735684Y-131131409D01*
X20735685Y-131131415D01*
X20736232Y-131132649D01*
X20744100Y-131156883D01*
X20744386Y-131158218D01*
X20744387Y-131158221D01*
X20744388Y-131158223D01*
X20766446Y-131201356D01*
X20769423Y-131207602D01*
X20789045Y-131251910D01*
X20789890Y-131252957D01*
X20803771Y-131274343D01*
X20860415Y-131385106D01*
X20901292Y-131465037D01*
X20910287Y-131488415D01*
X20910609Y-131489191D01*
X20910610Y-131489193D01*
X20911165Y-131490154D01*
X20935610Y-131532495D01*
X20938622Y-131538033D01*
X20961391Y-131582554D01*
X20961394Y-131582557D01*
X20961875Y-131583256D01*
X20976013Y-131602683D01*
X20976504Y-131603323D01*
X21011849Y-131638666D01*
X21016196Y-131643239D01*
X21049718Y-131680358D01*
X21049720Y-131680359D01*
X21049721Y-131680360D01*
X21050388Y-131680929D01*
X21069838Y-131696654D01*
X21103780Y-131730595D01*
X21219348Y-131846161D01*
X21235073Y-131865608D01*
X21235644Y-131866278D01*
X21235647Y-131866283D01*
X21235650Y-131866286D01*
X21235653Y-131866289D01*
X21272767Y-131899806D01*
X21277341Y-131904153D01*
X21312685Y-131939498D01*
X21313401Y-131940048D01*
X21332733Y-131954114D01*
X21333448Y-131954607D01*
X21333449Y-131954607D01*
X21333451Y-131954609D01*
X21377979Y-131977380D01*
X21383472Y-131980367D01*
X21426818Y-132005393D01*
X21426820Y-132005393D01*
X21426823Y-132005395D01*
X21427623Y-132005727D01*
X21450977Y-132014712D01*
X21640971Y-132111873D01*
X21662593Y-132125944D01*
X21663049Y-132126314D01*
X21708009Y-132146355D01*
X21713951Y-132149195D01*
X21757783Y-132171610D01*
X21758353Y-132171732D01*
X21782888Y-132179731D01*
X21783411Y-132179964D01*
X21783416Y-132179966D01*
X21832054Y-132187690D01*
X21838497Y-132188891D01*
X21886646Y-132199201D01*
X21887230Y-132199171D01*
X21912991Y-132200544D01*
X22123649Y-132234002D01*
X22124071Y-132234069D01*
X22148958Y-132240731D01*
X22149587Y-132240972D01*
X22179166Y-132244054D01*
X22198446Y-132246063D01*
X22205047Y-132246930D01*
X22220972Y-132249459D01*
X22253570Y-132254637D01*
X22254229Y-132254567D01*
X22279999Y-132254562D01*
X22280661Y-132254631D01*
X22329194Y-132246899D01*
X22335775Y-132246032D01*
X22354716Y-132244049D01*
X22384638Y-132240918D01*
X22385256Y-132240680D01*
X22410143Y-132234004D01*
X22620099Y-132200560D01*
X22645910Y-132199178D01*
X22646354Y-132199201D01*
X22694660Y-132188857D01*
X22701029Y-132187668D01*
X22749805Y-132179900D01*
X22750199Y-132179723D01*
X22774793Y-132171701D01*
X22774909Y-132171675D01*
X22775217Y-132171610D01*
X22819160Y-132149136D01*
X22825072Y-132146308D01*
X22825368Y-132146176D01*
X22870148Y-132126192D01*
X22870454Y-132125944D01*
X22870485Y-132125919D01*
X22892155Y-132111808D01*
X22892396Y-132111685D01*
X23082024Y-132014709D01*
X23105381Y-132005724D01*
X23106179Y-132005393D01*
X23106182Y-132005393D01*
X23149497Y-131980384D01*
X23155027Y-131977376D01*
X23199549Y-131954609D01*
X23199550Y-131954607D01*
X23199552Y-131954607D01*
X23200320Y-131954077D01*
X23219573Y-131940067D01*
X23220311Y-131939501D01*
X23226778Y-131933034D01*
X23255678Y-131904133D01*
X23260233Y-131899804D01*
X23260259Y-131899781D01*
X23297353Y-131866283D01*
X23297353Y-131866282D01*
X23297943Y-131865590D01*
X23313652Y-131846160D01*
X23463159Y-131696655D01*
X23482605Y-131680934D01*
X23483283Y-131680357D01*
X23516792Y-131643251D01*
X23521142Y-131638674D01*
X23521725Y-131638091D01*
X23556497Y-131603321D01*
X23556498Y-131603318D01*
X23557060Y-131602587D01*
X23571093Y-131583301D01*
X23571602Y-131582560D01*
X23571609Y-131582554D01*
X23594377Y-131538033D01*
X23597388Y-131532496D01*
X23597801Y-131531781D01*
X23622390Y-131489193D01*
X23622391Y-131489187D01*
X23622745Y-131488334D01*
X23631709Y-131465031D01*
X23631967Y-131464527D01*
X23728811Y-131275156D01*
X23742919Y-131253490D01*
X23743196Y-131253150D01*
X23743749Y-131251911D01*
X23763311Y-131208077D01*
X23766137Y-131202170D01*
X23788612Y-131158223D01*
X23788703Y-131157795D01*
X23796725Y-131133204D01*
X23796903Y-131132807D01*
X23804670Y-131084040D01*
X23805869Y-131077623D01*
X23816202Y-131029366D01*
X23816202Y-131029363D01*
X23816203Y-131029359D01*
X23816180Y-131028917D01*
X23817562Y-131003105D01*
X23851008Y-130793142D01*
X23857686Y-130768251D01*
X23857689Y-130768244D01*
X23857922Y-130767636D01*
X23863040Y-130718726D01*
X23863903Y-130712186D01*
X23871634Y-130663659D01*
X23871565Y-130662997D01*
X23871570Y-130637227D01*
X23871640Y-130636568D01*
X23871639Y-130636562D01*
X119912360Y-130636562D01*
X119912360Y-130636563D01*
X119912363Y-130636587D01*
X119912428Y-130637211D01*
X119912432Y-130637244D01*
X119912437Y-130662978D01*
X119912366Y-130663655D01*
X119912366Y-130663660D01*
X119920094Y-130712176D01*
X119920964Y-130718770D01*
X119926078Y-130767633D01*
X119926318Y-130768257D01*
X119932992Y-130793141D01*
X119966309Y-131002295D01*
X119967575Y-131026493D01*
X119967696Y-131028059D01*
X119978072Y-131077141D01*
X119979209Y-131083280D01*
X119987098Y-131132803D01*
X119987540Y-131134292D01*
X119994446Y-131155556D01*
X119994949Y-131156981D01*
X119994952Y-131156988D01*
X119994953Y-131156990D01*
X120017497Y-131201356D01*
X120017676Y-131201708D01*
X120020363Y-131207344D01*
X120023433Y-131214222D01*
X120040804Y-131253146D01*
X120040809Y-131253156D01*
X120041635Y-131254502D01*
X120054821Y-131274809D01*
X120151224Y-131464526D01*
X120160451Y-131488604D01*
X120160606Y-131489184D01*
X120160607Y-131489187D01*
X120185214Y-131531809D01*
X120188370Y-131537631D01*
X120210091Y-131580375D01*
X120210651Y-131581477D01*
X120211051Y-131581922D01*
X120226195Y-131602789D01*
X120226500Y-131603317D01*
X120226502Y-131603319D01*
X120261274Y-131638091D01*
X120265834Y-131642901D01*
X120266169Y-131643274D01*
X120298723Y-131679509D01*
X120299228Y-131679838D01*
X120319259Y-131696076D01*
X120469344Y-131846160D01*
X120485088Y-131865632D01*
X120485642Y-131866281D01*
X120485646Y-131866287D01*
X120485649Y-131866289D01*
X120485651Y-131866292D01*
X120522774Y-131899817D01*
X120527349Y-131904165D01*
X120562679Y-131939496D01*
X120563411Y-131940058D01*
X120582725Y-131954111D01*
X120583444Y-131954606D01*
X120583451Y-131954612D01*
X120627969Y-131977377D01*
X120633507Y-131980389D01*
X120676808Y-132005390D01*
X120677628Y-132005730D01*
X120700972Y-132014709D01*
X120890979Y-132111875D01*
X120912602Y-132125948D01*
X120913049Y-132126311D01*
X120913050Y-132126311D01*
X120913051Y-132126312D01*
X120958026Y-132146359D01*
X120963969Y-132149201D01*
X121007790Y-132171611D01*
X121008349Y-132171730D01*
X121032888Y-132179729D01*
X121033419Y-132179966D01*
X121033422Y-132179966D01*
X121033424Y-132179967D01*
X121053082Y-132183088D01*
X121082024Y-132187685D01*
X121088507Y-132188892D01*
X121136654Y-132199201D01*
X121137232Y-132199171D01*
X121162992Y-132200544D01*
X121373934Y-132234047D01*
X121398875Y-132240731D01*
X121399361Y-132240918D01*
X121399360Y-132240918D01*
X121431801Y-132244313D01*
X121448364Y-132246047D01*
X121454895Y-132246906D01*
X121503568Y-132254637D01*
X121504083Y-132254582D01*
X121529903Y-132254582D01*
X121530429Y-132254637D01*
X121579104Y-132246905D01*
X121585618Y-132246049D01*
X121601588Y-132244377D01*
X121634636Y-132240919D01*
X121635116Y-132240734D01*
X121660063Y-132234047D01*
X121871424Y-132200478D01*
X121897023Y-132199097D01*
X121898023Y-132199147D01*
X121945750Y-132188861D01*
X121952390Y-132187620D01*
X122000585Y-132179966D01*
X122001500Y-132179557D01*
X122025868Y-132171596D01*
X122026850Y-132171385D01*
X122070277Y-132149102D01*
X122076384Y-132146179D01*
X122120953Y-132126314D01*
X122121737Y-132125677D01*
X122143211Y-132111683D01*
X122160979Y-132102567D01*
X122331705Y-132014973D01*
X122349897Y-132007983D01*
X122355225Y-132005788D01*
X122355231Y-132005787D01*
X122379594Y-131991786D01*
X122399516Y-131980339D01*
X122404677Y-131977534D01*
X122450102Y-131954229D01*
X122450109Y-131954221D01*
X122454914Y-131950900D01*
X122464826Y-131943693D01*
X122469486Y-131940133D01*
X122469494Y-131940129D01*
X122505700Y-131904070D01*
X122509908Y-131900074D01*
X122547789Y-131865774D01*
X122547793Y-131865767D01*
X122551539Y-131861356D01*
X122563774Y-131846233D01*
X122714378Y-131696248D01*
X122734226Y-131680192D01*
X122735276Y-131679509D01*
X122767729Y-131643383D01*
X122772452Y-131638411D01*
X122806867Y-131604139D01*
X122807492Y-131603061D01*
X122822517Y-131582401D01*
X122823349Y-131581476D01*
X122823354Y-131581468D01*
X122845349Y-131538179D01*
X122848627Y-131532147D01*
X122869200Y-131496683D01*
X122872992Y-131490148D01*
X122873248Y-131489203D01*
X122873318Y-131488941D01*
X122882479Y-131465108D01*
X122979179Y-131274806D01*
X122992348Y-131254524D01*
X122993189Y-131253156D01*
X122993192Y-131253152D01*
X123013647Y-131207315D01*
X123016309Y-131201733D01*
X123039046Y-131156990D01*
X123039048Y-131156981D01*
X123039573Y-131155496D01*
X123046436Y-131134365D01*
X123046897Y-131132813D01*
X123046900Y-131132808D01*
X123054796Y-131083228D01*
X123055915Y-131077188D01*
X123066303Y-131028055D01*
X123066302Y-131028046D01*
X123066426Y-131026464D01*
X123067689Y-131002292D01*
X123068394Y-130997866D01*
X123101006Y-130793139D01*
X123107680Y-130768257D01*
X123107920Y-130767634D01*
X123113037Y-130718734D01*
X123113905Y-130712164D01*
X123113907Y-130712156D01*
X123121632Y-130663661D01*
X123121563Y-130662998D01*
X123121569Y-130637222D01*
X123121570Y-130637211D01*
X123121638Y-130636566D01*
X123121637Y-130636562D01*
X219162360Y-130636562D01*
X219162360Y-130636563D01*
X219162363Y-130636587D01*
X219162428Y-130637211D01*
X219162432Y-130637244D01*
X219162437Y-130662978D01*
X219162366Y-130663655D01*
X219162366Y-130663660D01*
X219170094Y-130712176D01*
X219170964Y-130718770D01*
X219176078Y-130767633D01*
X219176318Y-130768257D01*
X219182992Y-130793141D01*
X219182993Y-130793145D01*
X219216307Y-131002285D01*
X219216308Y-131002288D01*
X219217572Y-131026463D01*
X219217695Y-131028051D01*
X219228069Y-131077125D01*
X219229206Y-131083262D01*
X219237098Y-131132808D01*
X219237550Y-131134329D01*
X219244426Y-131155495D01*
X219244948Y-131156976D01*
X219267668Y-131201691D01*
X219270353Y-131207323D01*
X219290804Y-131253147D01*
X219291628Y-131254488D01*
X219304817Y-131274806D01*
X219401511Y-131465108D01*
X219410667Y-131488923D01*
X219410997Y-131490145D01*
X219411001Y-131490154D01*
X219435357Y-131532140D01*
X219438640Y-131538179D01*
X219460636Y-131581468D01*
X219461479Y-131582407D01*
X219476496Y-131603055D01*
X219477128Y-131604146D01*
X219511518Y-131638393D01*
X219516261Y-131643386D01*
X219548707Y-131679502D01*
X219549765Y-131680191D01*
X219569612Y-131696246D01*
X219720143Y-131846154D01*
X219720219Y-131846230D01*
X219732462Y-131861360D01*
X219736207Y-131865770D01*
X219736210Y-131865774D01*
X219773806Y-131899817D01*
X219774063Y-131900049D01*
X219778324Y-131904096D01*
X219814512Y-131940134D01*
X219814514Y-131940135D01*
X219819159Y-131943684D01*
X219829114Y-131950921D01*
X219833896Y-131954228D01*
X219833897Y-131954229D01*
X219879349Y-131977548D01*
X219884484Y-131980339D01*
X219903771Y-131991421D01*
X219928775Y-132005790D01*
X219934105Y-132007985D01*
X219952297Y-132014976D01*
X220140790Y-132111685D01*
X220162260Y-132125677D01*
X220163046Y-132126314D01*
X220207607Y-132146176D01*
X220207614Y-132146179D01*
X220213737Y-132149112D01*
X220236563Y-132160823D01*
X220257144Y-132171383D01*
X220257148Y-132171385D01*
X220258126Y-132171595D01*
X220282498Y-132179558D01*
X220283414Y-132179967D01*
X220331656Y-132187628D01*
X220338234Y-132188858D01*
X220385975Y-132199147D01*
X220386973Y-132199097D01*
X220412572Y-132200478D01*
X220623939Y-132234047D01*
X220648884Y-132240732D01*
X220649370Y-132240919D01*
X220698410Y-132246051D01*
X220704914Y-132246907D01*
X220753579Y-132254637D01*
X220754094Y-132254582D01*
X220779913Y-132254582D01*
X220780439Y-132254637D01*
X220829106Y-132246906D01*
X220835649Y-132246046D01*
X220835802Y-132246030D01*
X220884647Y-132240918D01*
X220885136Y-132240730D01*
X220910068Y-132234048D01*
X221121014Y-132200543D01*
X221146775Y-132199170D01*
X221147362Y-132199200D01*
X221147367Y-132199199D01*
X221147368Y-132199199D01*
X221195494Y-132188894D01*
X221201993Y-132187682D01*
X221250588Y-132179965D01*
X221251118Y-132179728D01*
X221275654Y-132171730D01*
X221276225Y-132171608D01*
X221320050Y-132149195D01*
X221325991Y-132146354D01*
X221370956Y-132126312D01*
X221371404Y-132125948D01*
X221393029Y-132111872D01*
X221583016Y-132014712D01*
X221606298Y-132005756D01*
X221607162Y-132005398D01*
X221607161Y-132005398D01*
X221607166Y-132005397D01*
X221650495Y-131980381D01*
X221656020Y-131977377D01*
X221656036Y-131977369D01*
X221700548Y-131954606D01*
X221700549Y-131954604D01*
X221701370Y-131954039D01*
X221720518Y-131940104D01*
X221721293Y-131939510D01*
X221721297Y-131939508D01*
X221756673Y-131904133D01*
X221761224Y-131899808D01*
X221761229Y-131899804D01*
X221798343Y-131866287D01*
X221798350Y-131866281D01*
X221798950Y-131865576D01*
X221814648Y-131846161D01*
X221964742Y-131696077D01*
X221984778Y-131679836D01*
X221985290Y-131679503D01*
X222018172Y-131642901D01*
X222022702Y-131638120D01*
X222057496Y-131603330D01*
X222057799Y-131602804D01*
X222072954Y-131581922D01*
X222073355Y-131581476D01*
X222073361Y-131581469D01*
X222095643Y-131537614D01*
X222098791Y-131531809D01*
X222123392Y-131489203D01*
X222123549Y-131488614D01*
X222132776Y-131464533D01*
X222209590Y-131313359D01*
X222229180Y-131274807D01*
X222242345Y-131254531D01*
X222243186Y-131253159D01*
X222243192Y-131253152D01*
X222263644Y-131207323D01*
X222266313Y-131201724D01*
X222289049Y-131156981D01*
X222289051Y-131156969D01*
X222289591Y-131155442D01*
X222296442Y-131134348D01*
X222296897Y-131132814D01*
X222296900Y-131132808D01*
X222304795Y-131083237D01*
X222305927Y-131077133D01*
X222305929Y-131077125D01*
X222316304Y-131028046D01*
X222316303Y-131028038D01*
X222316428Y-131026434D01*
X222317690Y-131002288D01*
X222351006Y-130793141D01*
X222357683Y-130768252D01*
X222357686Y-130768244D01*
X222357920Y-130767634D01*
X222363037Y-130718734D01*
X222363905Y-130712164D01*
X222363907Y-130712156D01*
X222371632Y-130663661D01*
X222371563Y-130662998D01*
X222371568Y-130643313D01*
X318413205Y-130643313D01*
X318413209Y-130656928D01*
X318413335Y-130662178D01*
X318421204Y-130712526D01*
X318421979Y-130718401D01*
X318427433Y-130769077D01*
X318428675Y-130774194D01*
X318433866Y-130793549D01*
X318466528Y-131002546D01*
X318467855Y-131027988D01*
X318467784Y-131029371D01*
X318467785Y-131029380D01*
X318477921Y-131076714D01*
X318479182Y-131083529D01*
X318486661Y-131131381D01*
X318487222Y-131132647D01*
X318495090Y-131156883D01*
X318495379Y-131158234D01*
X318495380Y-131158238D01*
X318517434Y-131201360D01*
X318520408Y-131207599D01*
X318531891Y-131233534D01*
X318540017Y-131251886D01*
X318540883Y-131252959D01*
X318554757Y-131274335D01*
X318652029Y-131464526D01*
X318652295Y-131465045D01*
X318661274Y-131488382D01*
X318661612Y-131489199D01*
X318661614Y-131489203D01*
X318662160Y-131490148D01*
X318686618Y-131532511D01*
X318689629Y-131538045D01*
X318712404Y-131582574D01*
X318712888Y-131583275D01*
X318726958Y-131602611D01*
X318727511Y-131603332D01*
X318762882Y-131638700D01*
X318767229Y-131643274D01*
X318800729Y-131680367D01*
X318801405Y-131680943D01*
X318820851Y-131696666D01*
X318970355Y-131846160D01*
X318986052Y-131865571D01*
X318986647Y-131866270D01*
X318986648Y-131866271D01*
X318986664Y-131866285D01*
X319023765Y-131899793D01*
X319028331Y-131904133D01*
X319063709Y-131939508D01*
X319064472Y-131940093D01*
X319083652Y-131954050D01*
X319084450Y-131954601D01*
X319128989Y-131977380D01*
X319134508Y-131980381D01*
X319177828Y-132005390D01*
X319177842Y-132005398D01*
X319178746Y-132005772D01*
X319201983Y-132014710D01*
X319391961Y-132111872D01*
X319413573Y-132125936D01*
X319414041Y-132126316D01*
X319458886Y-132146305D01*
X319458958Y-132146337D01*
X319464934Y-132149193D01*
X319508755Y-132171605D01*
X319508756Y-132171605D01*
X319508758Y-132171606D01*
X319509341Y-132171731D01*
X319533861Y-132179724D01*
X319534408Y-132179968D01*
X319541988Y-132181171D01*
X319583009Y-132187685D01*
X319589486Y-132188892D01*
X319637618Y-132199200D01*
X319638224Y-132199169D01*
X319663974Y-132200543D01*
X319875091Y-132234070D01*
X319899979Y-132240734D01*
X319900603Y-132240973D01*
X319949523Y-132246069D01*
X319956035Y-132246925D01*
X320004589Y-132254637D01*
X320005247Y-132254567D01*
X320031025Y-132254563D01*
X320031678Y-132254631D01*
X320080231Y-132246895D01*
X320086789Y-132246031D01*
X320135657Y-132240917D01*
X320136270Y-132240681D01*
X320161160Y-132234003D01*
X320371102Y-132200560D01*
X320396913Y-132199178D01*
X320397352Y-132199201D01*
X320397362Y-132199199D01*
X320404531Y-132197663D01*
X320445645Y-132188860D01*
X320452048Y-132187665D01*
X320500810Y-132179899D01*
X320501207Y-132179721D01*
X320525791Y-132171701D01*
X320526216Y-132171611D01*
X320544170Y-132162428D01*
X320570159Y-132149139D01*
X320576082Y-132146305D01*
X320585960Y-132141896D01*
X320621153Y-132126191D01*
X320621491Y-132125916D01*
X320643151Y-132111810D01*
X320833048Y-132014701D01*
X320856411Y-132005716D01*
X320857203Y-132005388D01*
X320857206Y-132005385D01*
X320857210Y-132005385D01*
X320900546Y-131980362D01*
X320906013Y-131977388D01*
X320950555Y-131954612D01*
X320950563Y-131954605D01*
X320951273Y-131954116D01*
X320970639Y-131940024D01*
X320971330Y-131939492D01*
X320971337Y-131939489D01*
X321006711Y-131904111D01*
X321011245Y-131899804D01*
X321048360Y-131866287D01*
X321048364Y-131866281D01*
X321048918Y-131865631D01*
X321064661Y-131846158D01*
X321214151Y-131696658D01*
X321233483Y-131681030D01*
X321234258Y-131680370D01*
X321234257Y-131680370D01*
X321234260Y-131680369D01*
X321267803Y-131643228D01*
X321272127Y-131638680D01*
X321289678Y-131621128D01*
X321307500Y-131603305D01*
X321307503Y-131603298D01*
X321308128Y-131602486D01*
X321321998Y-131583424D01*
X321322585Y-131582573D01*
X321322590Y-131582568D01*
X321345378Y-131538009D01*
X321348358Y-131532528D01*
X321373389Y-131489174D01*
X321373389Y-131489171D01*
X321373391Y-131489169D01*
X321373768Y-131488258D01*
X321382703Y-131465031D01*
X321479818Y-131275146D01*
X321493918Y-131253492D01*
X321494210Y-131253133D01*
X321514328Y-131208046D01*
X321517141Y-131202170D01*
X321539610Y-131158239D01*
X321539706Y-131157788D01*
X321547726Y-131133205D01*
X321547913Y-131132787D01*
X321548132Y-131131415D01*
X321555668Y-131084086D01*
X321556868Y-131077648D01*
X321567206Y-131029376D01*
X321567182Y-131028913D01*
X321568563Y-131003106D01*
X321602001Y-130793139D01*
X321608678Y-130768251D01*
X321608907Y-130767655D01*
X321608910Y-130767632D01*
X321610103Y-130756225D01*
X321614026Y-130718760D01*
X321614887Y-130712219D01*
X321622625Y-130663639D01*
X321622559Y-130663005D01*
X321622564Y-130637216D01*
X321622631Y-130636587D01*
X321615765Y-130593346D01*
X321614923Y-130588043D01*
X321614056Y-130581452D01*
X321608960Y-130532565D01*
X321608730Y-130531964D01*
X321602066Y-130507074D01*
X321568547Y-130295981D01*
X321567175Y-130270233D01*
X321567206Y-130269630D01*
X321556899Y-130221507D01*
X321555688Y-130215000D01*
X321548494Y-130169690D01*
X321547978Y-130166438D01*
X321547729Y-130165880D01*
X321539736Y-130141357D01*
X321539613Y-130140781D01*
X321539610Y-130140767D01*
X321517192Y-130096935D01*
X321514368Y-130091029D01*
X321494330Y-130046068D01*
X321493939Y-130045585D01*
X321479882Y-130023983D01*
X321461439Y-129987923D01*
X321382705Y-129833981D01*
X321373794Y-129810812D01*
X321373393Y-129809843D01*
X321373392Y-129809839D01*
X321348363Y-129766484D01*
X321345370Y-129760980D01*
X321322592Y-129716440D01*
X321322032Y-129715628D01*
X321308113Y-129696500D01*
X321307507Y-129695711D01*
X321307505Y-129695707D01*
X321272108Y-129660306D01*
X321267792Y-129655764D01*
X321234260Y-129618637D01*
X321234259Y-129618636D01*
X321233492Y-129617983D01*
X321214155Y-129602348D01*
X321064663Y-129452842D01*
X321048908Y-129433355D01*
X321048363Y-129432715D01*
X321048360Y-129432712D01*
X321011244Y-129399194D01*
X321006691Y-129394865D01*
X320971346Y-129359518D01*
X320971345Y-129359517D01*
X320971342Y-129359514D01*
X320971337Y-129359511D01*
X320970693Y-129359017D01*
X320951193Y-129344826D01*
X320950556Y-129344388D01*
X320950555Y-129344387D01*
X320906057Y-129321631D01*
X320900513Y-129318615D01*
X320857217Y-129293616D01*
X320856487Y-129293314D01*
X320833051Y-129284297D01*
X320642350Y-129186776D01*
X320620965Y-129172897D01*
X320620933Y-129172871D01*
X320619916Y-129172051D01*
X320619914Y-129172050D01*
X320619913Y-129172049D01*
X320575589Y-129152419D01*
X320569345Y-129149443D01*
X320569245Y-129149392D01*
X320559370Y-129144342D01*
X320526217Y-129127388D01*
X320526215Y-129127387D01*
X320524895Y-129127105D01*
X320500660Y-129119237D01*
X320499420Y-129118688D01*
X320499418Y-129118687D01*
X320451533Y-129111200D01*
X320444731Y-129109941D01*
X320397350Y-129099797D01*
X320395997Y-129099866D01*
X320370547Y-129098538D01*
X320209374Y-129073338D01*
X320161558Y-129065862D01*
X320142025Y-129060623D01*
X320137060Y-129059418D01*
X320086418Y-129053969D01*
X320080531Y-129053193D01*
X320030231Y-129045329D01*
X320025140Y-129045206D01*
X320011102Y-129045202D01*
X320006032Y-129045323D01*
X319955712Y-129053165D01*
X319949830Y-129053938D01*
X319899194Y-129059363D01*
X319894239Y-129060563D01*
X319874694Y-129065794D01*
X319664520Y-129098555D01*
X319639128Y-129099875D01*
X319637624Y-129099798D01*
X319637615Y-129099799D01*
X319590372Y-129109916D01*
X319583533Y-129111180D01*
X319535796Y-129118622D01*
X319535795Y-129118622D01*
X319535791Y-129118623D01*
X319534410Y-129119234D01*
X319510239Y-129127076D01*
X319508756Y-129127393D01*
X319465743Y-129149390D01*
X319459448Y-129152388D01*
X319415276Y-129171927D01*
X319415275Y-129171928D01*
X319414095Y-129172879D01*
X319392773Y-129186710D01*
X319254190Y-129257586D01*
X319201981Y-129284288D01*
X319178671Y-129293257D01*
X319177832Y-129293605D01*
X319134508Y-129318616D01*
X319128977Y-129321624D01*
X319084451Y-129344396D01*
X319083710Y-129344907D01*
X319064405Y-129358955D01*
X319063705Y-129359492D01*
X319028319Y-129394876D01*
X319023756Y-129399212D01*
X318986651Y-129432724D01*
X318986026Y-129433458D01*
X318970360Y-129452833D01*
X318820844Y-129602344D01*
X318801403Y-129618064D01*
X318800730Y-129618637D01*
X318767220Y-129655741D01*
X318762877Y-129660310D01*
X318727507Y-129695679D01*
X318726981Y-129696364D01*
X318712875Y-129715749D01*
X318712403Y-129716433D01*
X318689627Y-129760964D01*
X318686618Y-129766495D01*
X318665502Y-129803070D01*
X318662156Y-129808867D01*
X318661610Y-129809812D01*
X318661264Y-129810647D01*
X318652293Y-129833963D01*
X318554691Y-130024798D01*
X318540861Y-130046120D01*
X318539901Y-130047311D01*
X318539896Y-130047319D01*
X318520365Y-130091480D01*
X318517362Y-130097784D01*
X318495382Y-130140763D01*
X318495379Y-130140771D01*
X318495058Y-130142270D01*
X318487220Y-130166434D01*
X318486600Y-130167834D01*
X318486599Y-130167837D01*
X318479166Y-130215538D01*
X318477896Y-130222407D01*
X318467785Y-130269624D01*
X318467784Y-130269637D01*
X318467862Y-130271164D01*
X318466543Y-130296549D01*
X318433803Y-130506660D01*
X318428613Y-130526049D01*
X318427380Y-130531137D01*
X318421946Y-130581834D01*
X318421174Y-130587706D01*
X318413330Y-130638049D01*
X318413205Y-130643313D01*
X222371568Y-130643313D01*
X222371569Y-130637222D01*
X222371570Y-130637211D01*
X222371638Y-130636566D01*
X222363928Y-130588024D01*
X222363064Y-130581445D01*
X222357973Y-130532590D01*
X222357973Y-130532587D01*
X222357972Y-130532585D01*
X222357732Y-130531957D01*
X222351070Y-130507071D01*
X222351070Y-130507070D01*
X222317672Y-130296797D01*
X222316381Y-130271969D01*
X222316303Y-130270965D01*
X222316304Y-130270960D01*
X222306042Y-130222414D01*
X222305956Y-130222007D01*
X222304810Y-130215812D01*
X222304770Y-130215559D01*
X222296965Y-130166417D01*
X222296962Y-130166411D01*
X222296668Y-130165419D01*
X222289394Y-130143001D01*
X222289052Y-130142033D01*
X222289049Y-130142028D01*
X222289049Y-130142025D01*
X222266376Y-130097405D01*
X222263678Y-130091741D01*
X222263676Y-130091737D01*
X222243312Y-130046049D01*
X222243311Y-130046048D01*
X222243311Y-130046047D01*
X222242812Y-130045234D01*
X222229242Y-130024322D01*
X222132780Y-129834479D01*
X222123553Y-129810401D01*
X222123395Y-129809810D01*
X222122848Y-129808863D01*
X222098799Y-129767210D01*
X222095637Y-129761378D01*
X222073361Y-129717536D01*
X222072949Y-129717078D01*
X222057807Y-129696212D01*
X222057501Y-129695682D01*
X222057499Y-129695680D01*
X222057498Y-129695678D01*
X222022729Y-129660911D01*
X222018165Y-129656097D01*
X221985288Y-129619501D01*
X221984773Y-129619166D01*
X221964746Y-129602930D01*
X221814646Y-129452835D01*
X221798956Y-129433428D01*
X221798358Y-129432726D01*
X221798352Y-129432721D01*
X221798352Y-129432720D01*
X221761212Y-129399179D01*
X221756671Y-129394862D01*
X221721303Y-129359495D01*
X221721301Y-129359494D01*
X221720576Y-129358937D01*
X221701329Y-129344932D01*
X221700550Y-129344394D01*
X221700548Y-129344393D01*
X221700545Y-129344391D01*
X221700543Y-129344390D01*
X221656013Y-129321616D01*
X221650477Y-129318605D01*
X221607175Y-129293606D01*
X221606328Y-129293255D01*
X221583022Y-129284288D01*
X221392222Y-129186710D01*
X221370887Y-129172871D01*
X221369721Y-129171931D01*
X221325545Y-129152392D01*
X221319247Y-129149392D01*
X221276227Y-129127392D01*
X221276226Y-129127391D01*
X221276225Y-129127391D01*
X221274759Y-129127077D01*
X221250566Y-129119228D01*
X221249345Y-129118688D01*
X221249198Y-129118623D01*
X221201471Y-129111183D01*
X221194612Y-129109915D01*
X221147364Y-129099799D01*
X221147357Y-129099798D01*
X221145862Y-129099875D01*
X221120462Y-129098555D01*
X220910477Y-129065820D01*
X220891651Y-129060776D01*
X220886050Y-129059417D01*
X220835241Y-129053950D01*
X220829414Y-129053183D01*
X220821502Y-129051950D01*
X220778990Y-129045323D01*
X220773259Y-129045187D01*
X220760735Y-129045187D01*
X220755019Y-129045323D01*
X220704577Y-129053186D01*
X220698741Y-129053955D01*
X220647964Y-129059417D01*
X220642367Y-129060775D01*
X220623542Y-129065818D01*
X220413126Y-129098619D01*
X220387889Y-129099946D01*
X220385975Y-129099852D01*
X220385974Y-129099852D01*
X220385973Y-129099852D01*
X220339138Y-129109944D01*
X220332118Y-129111246D01*
X220284802Y-129118622D01*
X220284798Y-129118623D01*
X220283035Y-129119403D01*
X220259027Y-129127209D01*
X220257146Y-129127614D01*
X220214545Y-129149471D01*
X220208103Y-129152545D01*
X220164278Y-129171930D01*
X220164269Y-129171935D01*
X220162773Y-129173141D01*
X220141593Y-129186899D01*
X219952287Y-129284026D01*
X219934077Y-129291025D01*
X219928766Y-129293213D01*
X219884491Y-129318653D01*
X219879323Y-129321462D01*
X219833891Y-129344773D01*
X219829177Y-129348032D01*
X219819061Y-129355386D01*
X219814507Y-129358867D01*
X219778323Y-129394902D01*
X219774055Y-129398955D01*
X219736212Y-129433222D01*
X219732485Y-129437610D01*
X219720222Y-129452764D01*
X219569611Y-129602759D01*
X219549764Y-129618816D01*
X219548704Y-129619505D01*
X219516254Y-129655626D01*
X219511515Y-129660615D01*
X219477126Y-129694863D01*
X219477124Y-129694866D01*
X219476487Y-129695965D01*
X219461491Y-129716584D01*
X219460640Y-129717531D01*
X219460639Y-129717532D01*
X219438645Y-129760817D01*
X219435358Y-129766863D01*
X219411000Y-129808854D01*
X219410994Y-129808866D01*
X219410665Y-129810087D01*
X219401509Y-129833901D01*
X219304755Y-130024323D01*
X219291175Y-130045252D01*
X219290688Y-130046045D01*
X219270312Y-130091757D01*
X219267604Y-130097440D01*
X219244949Y-130142026D01*
X219244629Y-130142935D01*
X219237304Y-130165506D01*
X219237033Y-130166419D01*
X219229184Y-130215827D01*
X219228040Y-130222013D01*
X219217695Y-130270956D01*
X219217618Y-130271950D01*
X219216324Y-130296803D01*
X219182926Y-130507077D01*
X219176270Y-130531946D01*
X219176026Y-130532583D01*
X219176025Y-130532584D01*
X219170932Y-130581458D01*
X219170065Y-130588053D01*
X219162360Y-130636562D01*
X123121637Y-130636562D01*
X123113928Y-130588024D01*
X123113064Y-130581445D01*
X123107973Y-130532590D01*
X123107973Y-130532587D01*
X123107972Y-130532585D01*
X123107732Y-130531957D01*
X123101070Y-130507071D01*
X123101070Y-130507070D01*
X123067671Y-130296792D01*
X123066379Y-130271941D01*
X123066302Y-130270956D01*
X123066303Y-130270951D01*
X123055958Y-130222016D01*
X123055956Y-130222005D01*
X123054810Y-130215810D01*
X123054259Y-130212347D01*
X123046965Y-130166417D01*
X123046962Y-130166412D01*
X123046698Y-130165520D01*
X123039367Y-130142927D01*
X123039045Y-130142014D01*
X123016379Y-130097407D01*
X123013668Y-130091718D01*
X122997998Y-130056562D01*
X122993312Y-130046049D01*
X122993309Y-130046045D01*
X122992830Y-130045263D01*
X122979243Y-130024324D01*
X122882775Y-129834479D01*
X122882479Y-129833896D01*
X122873319Y-129810064D01*
X122872996Y-129808867D01*
X122872991Y-129808859D01*
X122848639Y-129766879D01*
X122845359Y-129760847D01*
X122823349Y-129717530D01*
X122823346Y-129717527D01*
X122823346Y-129717526D01*
X122822507Y-129716592D01*
X122807497Y-129695951D01*
X122806873Y-129694876D01*
X122806872Y-129694874D01*
X122772476Y-129660618D01*
X122767737Y-129655628D01*
X122735280Y-129619500D01*
X122735278Y-129619499D01*
X122735277Y-129619498D01*
X122735276Y-129619497D01*
X122734229Y-129618815D01*
X122714375Y-129602754D01*
X122713963Y-129602344D01*
X122563778Y-129452769D01*
X122551514Y-129437612D01*
X122547790Y-129433227D01*
X122547789Y-129433225D01*
X122509920Y-129398934D01*
X122505658Y-129394886D01*
X122469499Y-129358873D01*
X122464957Y-129355403D01*
X122454806Y-129348021D01*
X122450103Y-129344770D01*
X122404680Y-129321465D01*
X122399504Y-129318652D01*
X122355236Y-129293214D01*
X122349985Y-129291051D01*
X122331714Y-129284028D01*
X122142403Y-129186899D01*
X122121212Y-129173133D01*
X122119869Y-129172051D01*
X122119720Y-129171931D01*
X122119717Y-129171930D01*
X122119715Y-129171928D01*
X122075916Y-129152556D01*
X122069471Y-129149481D01*
X122026850Y-129127614D01*
X122024980Y-129127211D01*
X122000944Y-129119396D01*
X121999200Y-129118624D01*
X121951872Y-129111246D01*
X121944852Y-129109943D01*
X121898024Y-129099851D01*
X121896106Y-129099947D01*
X121870869Y-129098619D01*
X121870458Y-129098555D01*
X121660458Y-129065818D01*
X121641651Y-129060779D01*
X121636040Y-129059417D01*
X121585288Y-129053957D01*
X121579457Y-129053190D01*
X121528982Y-129045322D01*
X121523302Y-129045188D01*
X121510734Y-129045188D01*
X121505014Y-129045323D01*
X121461129Y-129052164D01*
X121454584Y-129053184D01*
X121448756Y-129053951D01*
X121397960Y-129059416D01*
X121392388Y-129060768D01*
X121373536Y-129065818D01*
X121163549Y-129098553D01*
X121138157Y-129099873D01*
X121136659Y-129099796D01*
X121136659Y-129099797D01*
X121136654Y-129099798D01*
X121135958Y-129099947D01*
X121089411Y-129109912D01*
X121082557Y-129111179D01*
X121043094Y-129117331D01*
X121034812Y-129118623D01*
X121034799Y-129118625D01*
X121034794Y-129118627D01*
X121033417Y-129119236D01*
X121009261Y-129127072D01*
X121007790Y-129127386D01*
X121007790Y-129127387D01*
X120964764Y-129149388D01*
X120958474Y-129152385D01*
X120914281Y-129171933D01*
X120914280Y-129171933D01*
X120913115Y-129172873D01*
X120891777Y-129186714D01*
X120700965Y-129284291D01*
X120677558Y-129293297D01*
X120676804Y-129293610D01*
X120633508Y-129318607D01*
X120627968Y-129321620D01*
X120583451Y-129344387D01*
X120583449Y-129344388D01*
X120582767Y-129344858D01*
X120563357Y-129358983D01*
X120562671Y-129359509D01*
X120527327Y-129394853D01*
X120522756Y-129399197D01*
X120485644Y-129432712D01*
X120485131Y-129433314D01*
X120469348Y-129452832D01*
X120319258Y-129602928D01*
X120299232Y-129619165D01*
X120298725Y-129619494D01*
X120265835Y-129656102D01*
X120261283Y-129660904D01*
X120226496Y-129695695D01*
X120226492Y-129695700D01*
X120226188Y-129696227D01*
X120211065Y-129717066D01*
X120210657Y-129717519D01*
X120210650Y-129717530D01*
X120188363Y-129761389D01*
X120185205Y-129767212D01*
X120160605Y-129809822D01*
X120160604Y-129809823D01*
X120160448Y-129810408D01*
X120151222Y-129834481D01*
X120054755Y-130024324D01*
X120041164Y-130045271D01*
X120040684Y-130046054D01*
X120020320Y-130091737D01*
X120017612Y-130097421D01*
X119994952Y-130142017D01*
X119994668Y-130142822D01*
X119987280Y-130165584D01*
X119987033Y-130166417D01*
X119979184Y-130215828D01*
X119978039Y-130222016D01*
X119967696Y-130270943D01*
X119967624Y-130271882D01*
X119966325Y-130296796D01*
X119932926Y-130507077D01*
X119926270Y-130531946D01*
X119926026Y-130532583D01*
X119926025Y-130532584D01*
X119920932Y-130581458D01*
X119920065Y-130588053D01*
X119912360Y-130636562D01*
X23871639Y-130636562D01*
X23863928Y-130588015D01*
X23863071Y-130581494D01*
X23857975Y-130532585D01*
X23857736Y-130531960D01*
X23851072Y-130507071D01*
X23851072Y-130507070D01*
X23817546Y-130295987D01*
X23816173Y-130270227D01*
X23816203Y-130269647D01*
X23805898Y-130221520D01*
X23804687Y-130215016D01*
X23796969Y-130166419D01*
X23796730Y-130165883D01*
X23788731Y-130141342D01*
X23788612Y-130140783D01*
X23766446Y-130097440D01*
X23766200Y-130096958D01*
X23763343Y-130090982D01*
X23743318Y-130046057D01*
X23743316Y-130046054D01*
X23743315Y-130046051D01*
X23742944Y-130045593D01*
X23728877Y-130023978D01*
X23631704Y-129833963D01*
X23622749Y-129810682D01*
X23622394Y-129809824D01*
X23622393Y-129809820D01*
X23597377Y-129766490D01*
X23594384Y-129760986D01*
X23571611Y-129716455D01*
X23571097Y-129715710D01*
X23557056Y-129696412D01*
X23556499Y-129695687D01*
X23521148Y-129660337D01*
X23516801Y-129655764D01*
X23484051Y-129619500D01*
X23483282Y-129618648D01*
X23483281Y-129618647D01*
X23482587Y-129618057D01*
X23463165Y-129602353D01*
X23313648Y-129452834D01*
X23297947Y-129433415D01*
X23297350Y-129432713D01*
X23260250Y-129399209D01*
X23255677Y-129394862D01*
X23220320Y-129359504D01*
X23219614Y-129358962D01*
X23200277Y-129344891D01*
X23199551Y-129344390D01*
X23165884Y-129327173D01*
X23155033Y-129321624D01*
X23149510Y-129318620D01*
X23106189Y-129293609D01*
X23105420Y-129293290D01*
X23082030Y-129284290D01*
X22891345Y-129186775D01*
X22869963Y-129172898D01*
X22868910Y-129172049D01*
X22824605Y-129152428D01*
X22818358Y-129149451D01*
X22775217Y-129127389D01*
X22775215Y-129127388D01*
X22775212Y-129127387D01*
X22775213Y-129127387D01*
X22773881Y-129127102D01*
X22749664Y-129119240D01*
X22748426Y-129118692D01*
X22748418Y-129118689D01*
X22748414Y-129118688D01*
X22748005Y-129118624D01*
X22700546Y-129111203D01*
X22693741Y-129109944D01*
X22693736Y-129109943D01*
X22646354Y-129099798D01*
X22646340Y-129099797D01*
X22644987Y-129099866D01*
X22619544Y-129098538D01*
X22410541Y-129065861D01*
X22390959Y-129060610D01*
X22386044Y-129059417D01*
X22335411Y-129053970D01*
X22329524Y-129053194D01*
X22279215Y-129045329D01*
X22274174Y-129045207D01*
X22260050Y-129045204D01*
X22255014Y-129045324D01*
X22204711Y-129053164D01*
X22198826Y-129053937D01*
X22148181Y-129059363D01*
X22143285Y-129060548D01*
X22123674Y-129065797D01*
X21913545Y-129098554D01*
X21888145Y-129099874D01*
X21886650Y-129099797D01*
X21886648Y-129099798D01*
X21886647Y-129099798D01*
X21886646Y-129099798D01*
X21869439Y-129103481D01*
X21839386Y-129109916D01*
X21832529Y-129111183D01*
X21784805Y-129118622D01*
X21783659Y-129119129D01*
X21783429Y-129119231D01*
X21759256Y-129127073D01*
X21757790Y-129127387D01*
X21757780Y-129127390D01*
X21714758Y-129149390D01*
X21708465Y-129152388D01*
X21664285Y-129171930D01*
X21664281Y-129171932D01*
X21663118Y-129172870D01*
X21641781Y-129186710D01*
X21450968Y-129284290D01*
X21427607Y-129293279D01*
X21426810Y-129293609D01*
X21383502Y-129318612D01*
X21377968Y-129321622D01*
X21333455Y-129344387D01*
X21332734Y-129344884D01*
X21313312Y-129359018D01*
X21312680Y-129359503D01*
X21277320Y-129394864D01*
X21272749Y-129399209D01*
X21235644Y-129432718D01*
X21235083Y-129433377D01*
X21219352Y-129452833D01*
X21069831Y-129602355D01*
X21050376Y-129618086D01*
X21049718Y-129618646D01*
X21016196Y-129655765D01*
X21011854Y-129660333D01*
X20976498Y-129695690D01*
X20976019Y-129696314D01*
X20961855Y-129715778D01*
X20961390Y-129716452D01*
X20938611Y-129760992D01*
X20935601Y-129766525D01*
X20910607Y-129809817D01*
X20910263Y-129810647D01*
X20901290Y-129833972D01*
X20803710Y-130024783D01*
X20789870Y-130046119D01*
X20788930Y-130047284D01*
X20788930Y-130047285D01*
X20788929Y-130047286D01*
X20788929Y-130047287D01*
X20788915Y-130047319D01*
X20769381Y-130091480D01*
X20766382Y-130097774D01*
X20744386Y-130140787D01*
X20744073Y-130142249D01*
X20736231Y-130166427D01*
X20735622Y-130167803D01*
X20735621Y-130167805D01*
X20728176Y-130215559D01*
X20726908Y-130222414D01*
X20716796Y-130269643D01*
X20716873Y-130271140D01*
X20715553Y-130296542D01*
X20682797Y-130506671D01*
X20677563Y-130526224D01*
X20676366Y-130531167D01*
X20676365Y-130531170D01*
X20676365Y-130531172D01*
X20671296Y-130578489D01*
X20670940Y-130581817D01*
X20670165Y-130587707D01*
X20662323Y-130638013D01*
X20662202Y-130643082D01*
X16766667Y-130643082D01*
X16766600Y-130641410D01*
X16766499Y-130636415D01*
X16766499Y-130587706D01*
X16767499Y-23409896D01*
X16767588Y-23405256D01*
X16768092Y-23392085D01*
X20662202Y-23392085D01*
X20662206Y-23406086D01*
X20662329Y-23411214D01*
X20670193Y-23461518D01*
X20670969Y-23467404D01*
X20676417Y-23518043D01*
X20677615Y-23522979D01*
X20682861Y-23542544D01*
X20715537Y-23751546D01*
X20716865Y-23776990D01*
X20716796Y-23778343D01*
X20716797Y-23778357D01*
X20726940Y-23825731D01*
X20728200Y-23832537D01*
X20735684Y-23880412D01*
X20736236Y-23881657D01*
X20744101Y-23905882D01*
X20744386Y-23907215D01*
X20744388Y-23907221D01*
X20766449Y-23950358D01*
X20769428Y-23956609D01*
X20789043Y-24000904D01*
X20789044Y-24000906D01*
X20789046Y-24000909D01*
X20789897Y-24001964D01*
X20803768Y-24023335D01*
X20901286Y-24214021D01*
X20901290Y-24214028D01*
X20910268Y-24237365D01*
X20910609Y-24238188D01*
X20911163Y-24239147D01*
X20935602Y-24281478D01*
X20938611Y-24287010D01*
X20961386Y-24331544D01*
X20961884Y-24332266D01*
X20975944Y-24351589D01*
X20976497Y-24352310D01*
X20976500Y-24352314D01*
X20976503Y-24352317D01*
X21011857Y-24387671D01*
X21016184Y-24392223D01*
X21048951Y-24428506D01*
X21049719Y-24429356D01*
X21050391Y-24429927D01*
X21069839Y-24445653D01*
X21219345Y-24595159D01*
X21235067Y-24614603D01*
X21235642Y-24615278D01*
X21235645Y-24615282D01*
X21272749Y-24648791D01*
X21272754Y-24648795D01*
X21277328Y-24653142D01*
X21312682Y-24688497D01*
X21313408Y-24689054D01*
X21332712Y-24703100D01*
X21333445Y-24703605D01*
X21333449Y-24703609D01*
X21333453Y-24703611D01*
X21377970Y-24726377D01*
X21383497Y-24729383D01*
X21426814Y-24754392D01*
X21426820Y-24754393D01*
X21427704Y-24754760D01*
X21450964Y-24763706D01*
X21640981Y-24860881D01*
X21662585Y-24874940D01*
X21663048Y-24875316D01*
X21707996Y-24895351D01*
X21713961Y-24898203D01*
X21757780Y-24920612D01*
X21758350Y-24920734D01*
X21782875Y-24928728D01*
X21783198Y-24928872D01*
X21783416Y-24928969D01*
X21832034Y-24936690D01*
X21838490Y-24937892D01*
X21886644Y-24948203D01*
X21887226Y-24948173D01*
X21912985Y-24949546D01*
X22123649Y-24983005D01*
X22124071Y-24983072D01*
X22148958Y-24989734D01*
X22149587Y-24989975D01*
X22179166Y-24993057D01*
X22198446Y-24995066D01*
X22205047Y-24995933D01*
X22220972Y-24998462D01*
X22253570Y-25003640D01*
X22254229Y-25003570D01*
X22279999Y-25003565D01*
X22280661Y-25003634D01*
X22329194Y-24995902D01*
X22335775Y-24995035D01*
X22354716Y-24993052D01*
X22384638Y-24989921D01*
X22385256Y-24989683D01*
X22410141Y-24983008D01*
X22620105Y-24949562D01*
X22645915Y-24948180D01*
X22646356Y-24948203D01*
X22646366Y-24948201D01*
X22652924Y-24946796D01*
X22694634Y-24937865D01*
X22701016Y-24936674D01*
X22749805Y-24928903D01*
X22750196Y-24928728D01*
X22774791Y-24920703D01*
X22775220Y-24920612D01*
X22819174Y-24898133D01*
X22825065Y-24895314D01*
X22870148Y-24875195D01*
X22870486Y-24874920D01*
X22892154Y-24860810D01*
X23082029Y-24763708D01*
X23105323Y-24754748D01*
X23106179Y-24754393D01*
X23106186Y-24754392D01*
X23149497Y-24729386D01*
X23155015Y-24726384D01*
X23155035Y-24726374D01*
X23199551Y-24703609D01*
X23199555Y-24703604D01*
X23200297Y-24703094D01*
X23219587Y-24689058D01*
X23220314Y-24688500D01*
X23220326Y-24688488D01*
X23255681Y-24653132D01*
X23260210Y-24648826D01*
X23297355Y-24615282D01*
X23297358Y-24615278D01*
X23297930Y-24614605D01*
X23313652Y-24595161D01*
X23463163Y-24445649D01*
X23482605Y-24429930D01*
X23483278Y-24429358D01*
X23483280Y-24429356D01*
X23483282Y-24429355D01*
X23516826Y-24392210D01*
X23521142Y-24387671D01*
X23556500Y-24352314D01*
X23556502Y-24352311D01*
X23557058Y-24351587D01*
X23571094Y-24332297D01*
X23571604Y-24331555D01*
X23571609Y-24331551D01*
X23594387Y-24287009D01*
X23597387Y-24281493D01*
X23622392Y-24238186D01*
X23622393Y-24238179D01*
X23622748Y-24237323D01*
X23631709Y-24214028D01*
X23728813Y-24024150D01*
X23742920Y-24002486D01*
X23743195Y-24002148D01*
X23763314Y-23957065D01*
X23766138Y-23951165D01*
X23766376Y-23950700D01*
X23788612Y-23907220D01*
X23788703Y-23906791D01*
X23796728Y-23882196D01*
X23796903Y-23881805D01*
X23804674Y-23833016D01*
X23805869Y-23826618D01*
X23805976Y-23826122D01*
X23816200Y-23778370D01*
X23816202Y-23778361D01*
X23816201Y-23778360D01*
X23816203Y-23778356D01*
X23816180Y-23777915D01*
X23817563Y-23752100D01*
X23851008Y-23542141D01*
X23857684Y-23517256D01*
X23857913Y-23516658D01*
X23857921Y-23516638D01*
X23863035Y-23467772D01*
X23863902Y-23461194D01*
X23871634Y-23412661D01*
X23871565Y-23411999D01*
X23871570Y-23386229D01*
X23871640Y-23385570D01*
X23871639Y-23385564D01*
X119912360Y-23385564D01*
X119912360Y-23385566D01*
X119912432Y-23386246D01*
X119912438Y-23411979D01*
X119912366Y-23412663D01*
X119920094Y-23461178D01*
X119920964Y-23467772D01*
X119926079Y-23516635D01*
X119926079Y-23516637D01*
X119926324Y-23517275D01*
X119932991Y-23542142D01*
X119966309Y-23751294D01*
X119967574Y-23775483D01*
X119967696Y-23777054D01*
X119978071Y-23826129D01*
X119979208Y-23832270D01*
X119987097Y-23881802D01*
X119987537Y-23883282D01*
X119994438Y-23904529D01*
X119994952Y-23905984D01*
X119994953Y-23905987D01*
X120017489Y-23950338D01*
X120017675Y-23950704D01*
X120020361Y-23956338D01*
X120030151Y-23978273D01*
X120040807Y-24002149D01*
X120040808Y-24002150D01*
X120041630Y-24003489D01*
X120054819Y-24023803D01*
X120151221Y-24213519D01*
X120160447Y-24237591D01*
X120160604Y-24238177D01*
X120160607Y-24238185D01*
X120185205Y-24280790D01*
X120188364Y-24286616D01*
X120210648Y-24330470D01*
X120210653Y-24330477D01*
X120211059Y-24330929D01*
X120226191Y-24351780D01*
X120226497Y-24352311D01*
X120261273Y-24387087D01*
X120265833Y-24391897D01*
X120298723Y-24428506D01*
X120299216Y-24428827D01*
X120299221Y-24428830D01*
X120319260Y-24445075D01*
X120469348Y-24595166D01*
X120485094Y-24614639D01*
X120485644Y-24615286D01*
X120522771Y-24648815D01*
X120527321Y-24653140D01*
X120562678Y-24688497D01*
X120562682Y-24688499D01*
X120563376Y-24689032D01*
X120582730Y-24703115D01*
X120583445Y-24703608D01*
X120583449Y-24703611D01*
X120627944Y-24726365D01*
X120627962Y-24726374D01*
X120633473Y-24729371D01*
X120676806Y-24754390D01*
X120676807Y-24754390D01*
X120676812Y-24754393D01*
X120677610Y-24754724D01*
X120700968Y-24763709D01*
X120890977Y-24860878D01*
X120912590Y-24874941D01*
X120913051Y-24875315D01*
X120958051Y-24895373D01*
X120963953Y-24898196D01*
X121007342Y-24920385D01*
X121007788Y-24920613D01*
X121008351Y-24920734D01*
X121032879Y-24928728D01*
X121033419Y-24928969D01*
X121033424Y-24928969D01*
X121033425Y-24928970D01*
X121053475Y-24932154D01*
X121082008Y-24936686D01*
X121082015Y-24936687D01*
X121088519Y-24937898D01*
X121136651Y-24948204D01*
X121137233Y-24948174D01*
X121162992Y-24949547D01*
X121373934Y-24983050D01*
X121398875Y-24989734D01*
X121399361Y-24989921D01*
X121399360Y-24989921D01*
X121431801Y-24993316D01*
X121448364Y-24995050D01*
X121454895Y-24995909D01*
X121503568Y-25003640D01*
X121504083Y-25003585D01*
X121529903Y-25003585D01*
X121530429Y-25003640D01*
X121579104Y-24995908D01*
X121585618Y-24995052D01*
X121601588Y-24993380D01*
X121634636Y-24989922D01*
X121635116Y-24989737D01*
X121660063Y-24983050D01*
X121871424Y-24949481D01*
X121897023Y-24948100D01*
X121898025Y-24948150D01*
X121945773Y-24937859D01*
X121952388Y-24936623D01*
X122000585Y-24928969D01*
X122001503Y-24928559D01*
X122025872Y-24920597D01*
X122026852Y-24920387D01*
X122070266Y-24898112D01*
X122076373Y-24895188D01*
X122101133Y-24884151D01*
X122120953Y-24875317D01*
X122121735Y-24874682D01*
X122143207Y-24860687D01*
X122331718Y-24763968D01*
X122349877Y-24756991D01*
X122355222Y-24754789D01*
X122355235Y-24754786D01*
X122399524Y-24729335D01*
X122404672Y-24726539D01*
X122450098Y-24703232D01*
X122450097Y-24703232D01*
X122450104Y-24703229D01*
X122450109Y-24703224D01*
X122454895Y-24699915D01*
X122464867Y-24692664D01*
X122469493Y-24689129D01*
X122469498Y-24689127D01*
X122505680Y-24653091D01*
X122509941Y-24649045D01*
X122547791Y-24614773D01*
X122547794Y-24614767D01*
X122551530Y-24610369D01*
X122563779Y-24595228D01*
X122714375Y-24445247D01*
X122734235Y-24429183D01*
X122735276Y-24428506D01*
X122767750Y-24392357D01*
X122772457Y-24387402D01*
X122806869Y-24353133D01*
X122807490Y-24352061D01*
X122822518Y-24331397D01*
X122823349Y-24330473D01*
X122845353Y-24287167D01*
X122848641Y-24281121D01*
X122872990Y-24239147D01*
X122872995Y-24239139D01*
X122873318Y-24237942D01*
X122882480Y-24214100D01*
X122979179Y-24023803D01*
X122992359Y-24003505D01*
X122993194Y-24002146D01*
X123010562Y-23963226D01*
X123013645Y-23956318D01*
X123016305Y-23950737D01*
X123039046Y-23905987D01*
X123039048Y-23905978D01*
X123039591Y-23904440D01*
X123046428Y-23883391D01*
X123046897Y-23881811D01*
X123046900Y-23881806D01*
X123054797Y-23832220D01*
X123055916Y-23826180D01*
X123066303Y-23777052D01*
X123066302Y-23777043D01*
X123066426Y-23775453D01*
X123067689Y-23751294D01*
X123101006Y-23542142D01*
X123107684Y-23517251D01*
X123107686Y-23517246D01*
X123107920Y-23516636D01*
X123110586Y-23491157D01*
X123113034Y-23467771D01*
X123113903Y-23461178D01*
X123121632Y-23412663D01*
X123121563Y-23412000D01*
X123121569Y-23386224D01*
X123121570Y-23386215D01*
X123121638Y-23385568D01*
X123121637Y-23385564D01*
X219162360Y-23385564D01*
X219162360Y-23385566D01*
X219162432Y-23386246D01*
X219162438Y-23411979D01*
X219162366Y-23412663D01*
X219170094Y-23461178D01*
X219170964Y-23467772D01*
X219176079Y-23516635D01*
X219176079Y-23516637D01*
X219176324Y-23517275D01*
X219182991Y-23542142D01*
X219216307Y-23751286D01*
X219217574Y-23775483D01*
X219217695Y-23777046D01*
X219228068Y-23826116D01*
X219229205Y-23832253D01*
X219237099Y-23881807D01*
X219237544Y-23883307D01*
X219244429Y-23904501D01*
X219244949Y-23905975D01*
X219244949Y-23905976D01*
X219244950Y-23905977D01*
X219267663Y-23950680D01*
X219267674Y-23950700D01*
X219270352Y-23956318D01*
X219278754Y-23975143D01*
X219290805Y-24002146D01*
X219291645Y-24003514D01*
X219304817Y-24023802D01*
X219401510Y-24214101D01*
X219410668Y-24237923D01*
X219410999Y-24239147D01*
X219435348Y-24281121D01*
X219435355Y-24281132D01*
X219438644Y-24287183D01*
X219460636Y-24330465D01*
X219461476Y-24331400D01*
X219476499Y-24352057D01*
X219476647Y-24352311D01*
X219477127Y-24353139D01*
X219511507Y-24387377D01*
X219516252Y-24392373D01*
X219548704Y-24428497D01*
X219549765Y-24429188D01*
X219569612Y-24445244D01*
X219720223Y-24595236D01*
X219732461Y-24610360D01*
X219736205Y-24614768D01*
X219736208Y-24614773D01*
X219774067Y-24649055D01*
X219778326Y-24653100D01*
X219814510Y-24689135D01*
X219819066Y-24692617D01*
X219829144Y-24699945D01*
X219833895Y-24703230D01*
X219879322Y-24726537D01*
X219884496Y-24729349D01*
X219928770Y-24754789D01*
X219934127Y-24756995D01*
X219952292Y-24763976D01*
X220140790Y-24860688D01*
X220162260Y-24874680D01*
X220163046Y-24875317D01*
X220163047Y-24875317D01*
X220163049Y-24875319D01*
X220207615Y-24895183D01*
X220213736Y-24898114D01*
X220257145Y-24920387D01*
X220258123Y-24920597D01*
X220282487Y-24928557D01*
X220283413Y-24928970D01*
X220288651Y-24929801D01*
X220331634Y-24936627D01*
X220338261Y-24937867D01*
X220373587Y-24945480D01*
X220383011Y-24947512D01*
X220385972Y-24948150D01*
X220386973Y-24948100D01*
X220412572Y-24949481D01*
X220623939Y-24983050D01*
X220648884Y-24989735D01*
X220649370Y-24989922D01*
X220698410Y-24995054D01*
X220704914Y-24995910D01*
X220753579Y-25003640D01*
X220754094Y-25003585D01*
X220779913Y-25003585D01*
X220780439Y-25003640D01*
X220829106Y-24995909D01*
X220835649Y-24995049D01*
X220835802Y-24995033D01*
X220884647Y-24989921D01*
X220885136Y-24989733D01*
X220910068Y-24983051D01*
X221121015Y-24949546D01*
X221146776Y-24948173D01*
X221147364Y-24948203D01*
X221195516Y-24937891D01*
X221201960Y-24936690D01*
X221250588Y-24928968D01*
X221251120Y-24928730D01*
X221275659Y-24920732D01*
X221275812Y-24920699D01*
X221276228Y-24920610D01*
X221320059Y-24898192D01*
X221325982Y-24895360D01*
X221370956Y-24875315D01*
X221371417Y-24874940D01*
X221393028Y-24860875D01*
X221583023Y-24763710D01*
X221606321Y-24754747D01*
X221607167Y-24754397D01*
X221607167Y-24754396D01*
X221607170Y-24754396D01*
X221650510Y-24729373D01*
X221655982Y-24726396D01*
X221700551Y-24703605D01*
X221700558Y-24703599D01*
X221701356Y-24703049D01*
X221720541Y-24689089D01*
X221721298Y-24688508D01*
X221721297Y-24688508D01*
X221721300Y-24688507D01*
X221756708Y-24653100D01*
X221761177Y-24648851D01*
X221798353Y-24615278D01*
X221798355Y-24615274D01*
X221798358Y-24615272D01*
X221798967Y-24614556D01*
X221814642Y-24595168D01*
X221964746Y-24445070D01*
X221984784Y-24428829D01*
X221985290Y-24428500D01*
X222018172Y-24391897D01*
X222022727Y-24387093D01*
X222038292Y-24371528D01*
X222057499Y-24352323D01*
X222057801Y-24351799D01*
X222072952Y-24330920D01*
X222073361Y-24330466D01*
X222095649Y-24286598D01*
X222098786Y-24280812D01*
X222123394Y-24238196D01*
X222123553Y-24237601D01*
X222132776Y-24213530D01*
X222229177Y-24023806D01*
X222242354Y-24003514D01*
X222243191Y-24002151D01*
X222243190Y-24002151D01*
X222243192Y-24002150D01*
X222260563Y-23963225D01*
X222263646Y-23956318D01*
X222266323Y-23950703D01*
X222289049Y-23905978D01*
X222289049Y-23905973D01*
X222289604Y-23904402D01*
X222296433Y-23883375D01*
X222296897Y-23881816D01*
X222296897Y-23881810D01*
X222296900Y-23881806D01*
X222304801Y-23832198D01*
X222305915Y-23826184D01*
X222316304Y-23777043D01*
X222316303Y-23777033D01*
X222316428Y-23775427D01*
X222317690Y-23751286D01*
X222351006Y-23542142D01*
X222357684Y-23517251D01*
X222357686Y-23517246D01*
X222357920Y-23516636D01*
X222360586Y-23491157D01*
X222363034Y-23467771D01*
X222363903Y-23461178D01*
X222371632Y-23412663D01*
X222371563Y-23412000D01*
X222371568Y-23392315D01*
X318413205Y-23392315D01*
X318413209Y-23405929D01*
X318413336Y-23411181D01*
X318421204Y-23461530D01*
X318421979Y-23467402D01*
X318422019Y-23467771D01*
X318427430Y-23518043D01*
X318427435Y-23518082D01*
X318428673Y-23523186D01*
X318433866Y-23542550D01*
X318466528Y-23751543D01*
X318467855Y-23776987D01*
X318467784Y-23778368D01*
X318467784Y-23778370D01*
X318477921Y-23825708D01*
X318479181Y-23832521D01*
X318486661Y-23880377D01*
X318486662Y-23880381D01*
X318487227Y-23881656D01*
X318495089Y-23905876D01*
X318495113Y-23905987D01*
X318495381Y-23907235D01*
X318495382Y-23907239D01*
X318517424Y-23950338D01*
X318520406Y-23956594D01*
X318540016Y-24000882D01*
X318540884Y-24001958D01*
X318554758Y-24023334D01*
X318652030Y-24213525D01*
X318652293Y-24214038D01*
X318661277Y-24237387D01*
X318661613Y-24238199D01*
X318686614Y-24281500D01*
X318689626Y-24287036D01*
X318712401Y-24331565D01*
X318712913Y-24332307D01*
X318726957Y-24351606D01*
X318727504Y-24352318D01*
X318727507Y-24352323D01*
X318727509Y-24352325D01*
X318727511Y-24352327D01*
X318762862Y-24387677D01*
X318767205Y-24392246D01*
X318800730Y-24429365D01*
X318801414Y-24429948D01*
X318820846Y-24445659D01*
X318970354Y-24595158D01*
X318986013Y-24614527D01*
X318986643Y-24615268D01*
X319023763Y-24648793D01*
X319028328Y-24653132D01*
X319063706Y-24688507D01*
X319064478Y-24689099D01*
X319083649Y-24703050D01*
X319084445Y-24703599D01*
X319128979Y-24726375D01*
X319134518Y-24729388D01*
X319177832Y-24754395D01*
X319177833Y-24754395D01*
X319177836Y-24754397D01*
X319177838Y-24754397D01*
X319178720Y-24754763D01*
X319201985Y-24763714D01*
X319279403Y-24803308D01*
X319391958Y-24860873D01*
X319413575Y-24874942D01*
X319414037Y-24875317D01*
X319414041Y-24875319D01*
X319458983Y-24895351D01*
X319464962Y-24898211D01*
X319489755Y-24910890D01*
X319508753Y-24920607D01*
X319509318Y-24920728D01*
X319509332Y-24920731D01*
X319533852Y-24928722D01*
X319534409Y-24928971D01*
X319583026Y-24936691D01*
X319589514Y-24937900D01*
X319637615Y-24948202D01*
X319638210Y-24948171D01*
X319663961Y-24949544D01*
X319875091Y-24983073D01*
X319899979Y-24989737D01*
X319900603Y-24989976D01*
X319949523Y-24995072D01*
X319956035Y-24995928D01*
X320004589Y-25003640D01*
X320005247Y-25003570D01*
X320031025Y-25003566D01*
X320031678Y-25003634D01*
X320080231Y-24995898D01*
X320086789Y-24995034D01*
X320135657Y-24989920D01*
X320136270Y-24989684D01*
X320161160Y-24983006D01*
X320371103Y-24949563D01*
X320396914Y-24948181D01*
X320397354Y-24948204D01*
X320445660Y-24937860D01*
X320452036Y-24936670D01*
X320500810Y-24928902D01*
X320501204Y-24928725D01*
X320525793Y-24920703D01*
X320526218Y-24920613D01*
X320570177Y-24898132D01*
X320576037Y-24895328D01*
X320621153Y-24875194D01*
X320621493Y-24874917D01*
X320643163Y-24860808D01*
X320643404Y-24860685D01*
X320833041Y-24763706D01*
X320856456Y-24754698D01*
X320857208Y-24754386D01*
X320857214Y-24754385D01*
X320900513Y-24729382D01*
X320906060Y-24726365D01*
X320950557Y-24703611D01*
X320950565Y-24703603D01*
X320951304Y-24703095D01*
X320970628Y-24689033D01*
X320971333Y-24688491D01*
X320971340Y-24688488D01*
X321006706Y-24653117D01*
X321011263Y-24648787D01*
X321048362Y-24615286D01*
X321048364Y-24615282D01*
X321048921Y-24614628D01*
X321064665Y-24595154D01*
X321214154Y-24445653D01*
X321233462Y-24430044D01*
X321234257Y-24429368D01*
X321234257Y-24429367D01*
X321234260Y-24429366D01*
X321267806Y-24392221D01*
X321272131Y-24387672D01*
X321275874Y-24383927D01*
X321307502Y-24352299D01*
X321307507Y-24352290D01*
X321308132Y-24351476D01*
X321322010Y-24332404D01*
X321322591Y-24331563D01*
X321345288Y-24287183D01*
X321345377Y-24287010D01*
X321348360Y-24281522D01*
X321373390Y-24238168D01*
X321373391Y-24238162D01*
X321373393Y-24238160D01*
X321373773Y-24237243D01*
X321382706Y-24214021D01*
X321382963Y-24213519D01*
X321479816Y-24024145D01*
X321493916Y-24002492D01*
X321494210Y-24002131D01*
X321514313Y-23957077D01*
X321517143Y-23951162D01*
X321539610Y-23907236D01*
X321539708Y-23906776D01*
X321547724Y-23882208D01*
X321547903Y-23881807D01*
X321547913Y-23881785D01*
X321555678Y-23833019D01*
X321556866Y-23826653D01*
X321567206Y-23778373D01*
X321567182Y-23777902D01*
X321568565Y-23752100D01*
X321569322Y-23747348D01*
X321602000Y-23542146D01*
X321608681Y-23517246D01*
X321608907Y-23516657D01*
X321614027Y-23467745D01*
X321614894Y-23461178D01*
X321622624Y-23412641D01*
X321622558Y-23412007D01*
X321622564Y-23386224D01*
X321622631Y-23385589D01*
X321614918Y-23337021D01*
X321614055Y-23330453D01*
X321608960Y-23281567D01*
X321608730Y-23280966D01*
X321602065Y-23256071D01*
X321568547Y-23044977D01*
X321567175Y-23019229D01*
X321567206Y-23018627D01*
X321556902Y-22970513D01*
X321555692Y-22964016D01*
X321555474Y-22962642D01*
X321547979Y-22915436D01*
X321547733Y-22914884D01*
X321539734Y-22890344D01*
X321539610Y-22889764D01*
X321517209Y-22845966D01*
X321514361Y-22840009D01*
X321494332Y-22795067D01*
X321494147Y-22794840D01*
X321493944Y-22794588D01*
X321479879Y-22772977D01*
X321382705Y-22582976D01*
X321373769Y-22559749D01*
X321373392Y-22558840D01*
X321373390Y-22558832D01*
X321348351Y-22515461D01*
X321345393Y-22510021D01*
X321322590Y-22465435D01*
X321322588Y-22465433D01*
X321322588Y-22465432D01*
X321322047Y-22464648D01*
X321308094Y-22445472D01*
X321307506Y-22444706D01*
X321307503Y-22444703D01*
X321307502Y-22444701D01*
X321272122Y-22409318D01*
X321267790Y-22404758D01*
X321234265Y-22367639D01*
X321234262Y-22367637D01*
X321234260Y-22367634D01*
X321234256Y-22367631D01*
X321233509Y-22366995D01*
X321214150Y-22351342D01*
X321064662Y-22201842D01*
X321048908Y-22182355D01*
X321048360Y-22181712D01*
X321011262Y-22148210D01*
X321006683Y-22143859D01*
X321006675Y-22143851D01*
X320971340Y-22108512D01*
X320971337Y-22108510D01*
X320971336Y-22108509D01*
X320970695Y-22108017D01*
X320951262Y-22093875D01*
X320950556Y-22093388D01*
X320906053Y-22070630D01*
X320900507Y-22067613D01*
X320857214Y-22042615D01*
X320856479Y-22042310D01*
X320833044Y-22033294D01*
X320642351Y-21935776D01*
X320620963Y-21921893D01*
X320619914Y-21921047D01*
X320619912Y-21921046D01*
X320619909Y-21921044D01*
X320575594Y-21901419D01*
X320569350Y-21898443D01*
X320526217Y-21876386D01*
X320524897Y-21876104D01*
X320500652Y-21868233D01*
X320500647Y-21868231D01*
X320500330Y-21868090D01*
X320499418Y-21867686D01*
X320499413Y-21867685D01*
X320451545Y-21860200D01*
X320444744Y-21858942D01*
X320397354Y-21848796D01*
X320397352Y-21848796D01*
X320397341Y-21848795D01*
X320395990Y-21848864D01*
X320370545Y-21847536D01*
X320161560Y-21814862D01*
X320142026Y-21809624D01*
X320137062Y-21808419D01*
X320086431Y-21802971D01*
X320080546Y-21802195D01*
X320030230Y-21794329D01*
X320025135Y-21794206D01*
X320011108Y-21794202D01*
X320006036Y-21794323D01*
X319955720Y-21802164D01*
X319949837Y-21802937D01*
X319899198Y-21808362D01*
X319894208Y-21809571D01*
X319874692Y-21814795D01*
X319664516Y-21847555D01*
X319639125Y-21848874D01*
X319637621Y-21848797D01*
X319637610Y-21848798D01*
X319590399Y-21858908D01*
X319583535Y-21860177D01*
X319535800Y-21867618D01*
X319535793Y-21867620D01*
X319534399Y-21868237D01*
X319510243Y-21876073D01*
X319508761Y-21876390D01*
X319508753Y-21876393D01*
X319465747Y-21898387D01*
X319459447Y-21901388D01*
X319415271Y-21920927D01*
X319415269Y-21920929D01*
X319414088Y-21921881D01*
X319392765Y-21935713D01*
X319201982Y-22033287D01*
X319178680Y-22042253D01*
X319177836Y-22042602D01*
X319134508Y-22067616D01*
X319128978Y-22070624D01*
X319084447Y-22093399D01*
X319083709Y-22093909D01*
X319064422Y-22107943D01*
X319063706Y-22108493D01*
X319028325Y-22143870D01*
X319023764Y-22148204D01*
X318986646Y-22181728D01*
X318986036Y-22182445D01*
X318970354Y-22201840D01*
X318820843Y-22351342D01*
X318801389Y-22367072D01*
X318800730Y-22367634D01*
X318767204Y-22404753D01*
X318762865Y-22409318D01*
X318727507Y-22444675D01*
X318726957Y-22445393D01*
X318712876Y-22464743D01*
X318712402Y-22465431D01*
X318689633Y-22509949D01*
X318686623Y-22515483D01*
X318661608Y-22558809D01*
X318661288Y-22559582D01*
X318652292Y-22582960D01*
X318554695Y-22773788D01*
X318540865Y-22795109D01*
X318539901Y-22796304D01*
X318539898Y-22796309D01*
X318520360Y-22840490D01*
X318517354Y-22846799D01*
X318495383Y-22889758D01*
X318495380Y-22889766D01*
X318495058Y-22891270D01*
X318487222Y-22915426D01*
X318486602Y-22916828D01*
X318486599Y-22916837D01*
X318479168Y-22964527D01*
X318477898Y-22971400D01*
X318467785Y-23018624D01*
X318467784Y-23018635D01*
X318467862Y-23020163D01*
X318466543Y-23045547D01*
X318433802Y-23255665D01*
X318428605Y-23275081D01*
X318427380Y-23280140D01*
X318421946Y-23330836D01*
X318421174Y-23336708D01*
X318413330Y-23387051D01*
X318413205Y-23392315D01*
X222371568Y-23392315D01*
X222371569Y-23386224D01*
X222371570Y-23386215D01*
X222371638Y-23385568D01*
X222363928Y-23337026D01*
X222363064Y-23330446D01*
X222357974Y-23281593D01*
X222357973Y-23281591D01*
X222357973Y-23281588D01*
X222357732Y-23280958D01*
X222351071Y-23256079D01*
X222317672Y-23045793D01*
X222316381Y-23020958D01*
X222316303Y-23019963D01*
X222316304Y-23019957D01*
X222305954Y-22970997D01*
X222304809Y-22964805D01*
X222304684Y-22964015D01*
X222296965Y-22915415D01*
X222296964Y-22915412D01*
X222296677Y-22914448D01*
X222289377Y-22891954D01*
X222289048Y-22891020D01*
X222266386Y-22846419D01*
X222263676Y-22840732D01*
X222247999Y-22805562D01*
X222243312Y-22795047D01*
X222243308Y-22795042D01*
X222242782Y-22794184D01*
X222229243Y-22773321D01*
X222132780Y-22583474D01*
X222123553Y-22559396D01*
X222123402Y-22558835D01*
X222123394Y-22558804D01*
X222108701Y-22533357D01*
X222098802Y-22516212D01*
X222095639Y-22510379D01*
X222073362Y-22466535D01*
X222072950Y-22466077D01*
X222057803Y-22445204D01*
X222057498Y-22444675D01*
X222057496Y-22444673D01*
X222022725Y-22409904D01*
X222018161Y-22405090D01*
X222017739Y-22404620D01*
X221985290Y-22368500D01*
X221984771Y-22368162D01*
X221964745Y-22351927D01*
X221814644Y-22201832D01*
X221798965Y-22182441D01*
X221798353Y-22181722D01*
X221761240Y-22148204D01*
X221756672Y-22143862D01*
X221721304Y-22108496D01*
X221720586Y-22107945D01*
X221701325Y-22093928D01*
X221700549Y-22093393D01*
X221656010Y-22070615D01*
X221650475Y-22067605D01*
X221650463Y-22067598D01*
X221607170Y-22042604D01*
X221607167Y-22042603D01*
X221607165Y-22042602D01*
X221606330Y-22042256D01*
X221583018Y-22033286D01*
X221392225Y-21935712D01*
X221370884Y-21921868D01*
X221369718Y-21920928D01*
X221325539Y-21901387D01*
X221319241Y-21898386D01*
X221276231Y-21876391D01*
X221276224Y-21876388D01*
X221274751Y-21876073D01*
X221250574Y-21868229D01*
X221249200Y-21867621D01*
X221249201Y-21867621D01*
X221201464Y-21860179D01*
X221194607Y-21858911D01*
X221147368Y-21848797D01*
X221147358Y-21848796D01*
X221145860Y-21848873D01*
X221120462Y-21847553D01*
X220910473Y-21814818D01*
X220891682Y-21809783D01*
X220886056Y-21808419D01*
X220835266Y-21802954D01*
X220829432Y-21802186D01*
X220778992Y-21794322D01*
X220773269Y-21794187D01*
X220760750Y-21794187D01*
X220755025Y-21794323D01*
X220704567Y-21802187D01*
X220698737Y-21802954D01*
X220647971Y-21808416D01*
X220647963Y-21808417D01*
X220647962Y-21808418D01*
X220647960Y-21808418D01*
X220642366Y-21809776D01*
X220623547Y-21814816D01*
X220413126Y-21847617D01*
X220387891Y-21848945D01*
X220385976Y-21848850D01*
X220385971Y-21848850D01*
X220339144Y-21858941D01*
X220332124Y-21860243D01*
X220284803Y-21867619D01*
X220284802Y-21867620D01*
X220283034Y-21868402D01*
X220259035Y-21876204D01*
X220257155Y-21876609D01*
X220257143Y-21876613D01*
X220214536Y-21898473D01*
X220208094Y-21901547D01*
X220164284Y-21920925D01*
X220164278Y-21920929D01*
X220162780Y-21922136D01*
X220141597Y-21935896D01*
X219952287Y-22033025D01*
X219934059Y-22040032D01*
X219928773Y-22042209D01*
X219884497Y-22067650D01*
X219879328Y-22070459D01*
X219833894Y-22093771D01*
X219829208Y-22097010D01*
X219819007Y-22104428D01*
X219814510Y-22107864D01*
X219778324Y-22143901D01*
X219774065Y-22147946D01*
X219773774Y-22148210D01*
X219736207Y-22182228D01*
X219732469Y-22186629D01*
X219720224Y-22201760D01*
X219569610Y-22351756D01*
X219549769Y-22367809D01*
X219548711Y-22368497D01*
X219548705Y-22368502D01*
X219516251Y-22404627D01*
X219511512Y-22409617D01*
X219477124Y-22443864D01*
X219476489Y-22444959D01*
X219461492Y-22465580D01*
X219460640Y-22466527D01*
X219460635Y-22466536D01*
X219438643Y-22509817D01*
X219435355Y-22515866D01*
X219410999Y-22557851D01*
X219410997Y-22557855D01*
X219410669Y-22559072D01*
X219401510Y-22582898D01*
X219304753Y-22773324D01*
X219291175Y-22794249D01*
X219290685Y-22795049D01*
X219270314Y-22840747D01*
X219267608Y-22846425D01*
X219244952Y-22891016D01*
X219244625Y-22891943D01*
X219237301Y-22914513D01*
X219237032Y-22915417D01*
X219229186Y-22964815D01*
X219228042Y-22971002D01*
X219217695Y-23019954D01*
X219217618Y-23020945D01*
X219216324Y-23045801D01*
X219182926Y-23256079D01*
X219176270Y-23280948D01*
X219176026Y-23281585D01*
X219176025Y-23281586D01*
X219170932Y-23330459D01*
X219170065Y-23337054D01*
X219162360Y-23385564D01*
X123121637Y-23385564D01*
X123113928Y-23337026D01*
X123113064Y-23330446D01*
X123107974Y-23281593D01*
X123107973Y-23281591D01*
X123107973Y-23281588D01*
X123107732Y-23280958D01*
X123101071Y-23256079D01*
X123067671Y-23045790D01*
X123066379Y-23020934D01*
X123066302Y-23019953D01*
X123066303Y-23019948D01*
X123056040Y-22971400D01*
X123055955Y-22970997D01*
X123054809Y-22964802D01*
X123047485Y-22918688D01*
X123046965Y-22915415D01*
X123046964Y-22915414D01*
X123046964Y-22915409D01*
X123046682Y-22914460D01*
X123039368Y-22891925D01*
X123039046Y-22891014D01*
X123039046Y-22891013D01*
X123016373Y-22846394D01*
X123013674Y-22840730D01*
X123010747Y-22834163D01*
X122993312Y-22795047D01*
X122993307Y-22795041D01*
X122992792Y-22794200D01*
X122979243Y-22773323D01*
X122979066Y-22772975D01*
X122882479Y-22582896D01*
X122873318Y-22559057D01*
X122872995Y-22557861D01*
X122848631Y-22515861D01*
X122845345Y-22509815D01*
X122823349Y-22466527D01*
X122822516Y-22465600D01*
X122807491Y-22444939D01*
X122806870Y-22443869D01*
X122806869Y-22443867D01*
X122772454Y-22409593D01*
X122767731Y-22404620D01*
X122735275Y-22368493D01*
X122734228Y-22367812D01*
X122714373Y-22351749D01*
X122563781Y-22201771D01*
X122551533Y-22186634D01*
X122547789Y-22182225D01*
X122509934Y-22147947D01*
X122505661Y-22143889D01*
X122469499Y-22107873D01*
X122464907Y-22104365D01*
X122454876Y-22097071D01*
X122450109Y-22093775D01*
X122450104Y-22093771D01*
X122445711Y-22091517D01*
X122404676Y-22070462D01*
X122399503Y-22067651D01*
X122355239Y-22042216D01*
X122355237Y-22042215D01*
X122355235Y-22042214D01*
X122355232Y-22042213D01*
X122349919Y-22040025D01*
X122331713Y-22033028D01*
X122142404Y-21935899D01*
X122121210Y-21922130D01*
X122119718Y-21920928D01*
X122119711Y-21920925D01*
X122075900Y-21901547D01*
X122069467Y-21898477D01*
X122026851Y-21876612D01*
X122024979Y-21876209D01*
X122000950Y-21868396D01*
X121999203Y-21867623D01*
X121999197Y-21867621D01*
X121999196Y-21867621D01*
X121989189Y-21866061D01*
X121951876Y-21860244D01*
X121944856Y-21858942D01*
X121924962Y-21854655D01*
X121898025Y-21848850D01*
X121898023Y-21848850D01*
X121898020Y-21848850D01*
X121896104Y-21848945D01*
X121870870Y-21847617D01*
X121660463Y-21814818D01*
X121641687Y-21809788D01*
X121636045Y-21808418D01*
X121636044Y-21808418D01*
X121636042Y-21808417D01*
X121636035Y-21808416D01*
X121585252Y-21802953D01*
X121579419Y-21802185D01*
X121528983Y-21794323D01*
X121523200Y-21794185D01*
X121510817Y-21794185D01*
X121505015Y-21794323D01*
X121454530Y-21802191D01*
X121448702Y-21802958D01*
X121397949Y-21808419D01*
X121392365Y-21809773D01*
X121373533Y-21814818D01*
X121163547Y-21847552D01*
X121138146Y-21848872D01*
X121136654Y-21848796D01*
X121136647Y-21848796D01*
X121089404Y-21858911D01*
X121082544Y-21860179D01*
X121034808Y-21867620D01*
X121033427Y-21868231D01*
X121009253Y-21876072D01*
X121007798Y-21876383D01*
X121007789Y-21876386D01*
X120964765Y-21898387D01*
X120958475Y-21901382D01*
X120958104Y-21901547D01*
X120914289Y-21920928D01*
X120914277Y-21920935D01*
X120913115Y-21921872D01*
X120891785Y-21935708D01*
X120701487Y-22033025D01*
X120700967Y-22033291D01*
X120677558Y-22042298D01*
X120676801Y-22042612D01*
X120633497Y-22067613D01*
X120627961Y-22070625D01*
X120583444Y-22093391D01*
X120582766Y-22093859D01*
X120563343Y-22107992D01*
X120562675Y-22108505D01*
X120527328Y-22143851D01*
X120522760Y-22148193D01*
X120485640Y-22181717D01*
X120485113Y-22182336D01*
X120469346Y-22201835D01*
X120319259Y-22351925D01*
X120299235Y-22368160D01*
X120298726Y-22368490D01*
X120298721Y-22368495D01*
X120265840Y-22405093D01*
X120261287Y-22409897D01*
X120226495Y-22444692D01*
X120226494Y-22444692D01*
X120226185Y-22445229D01*
X120211070Y-22466059D01*
X120210652Y-22466523D01*
X120210648Y-22466529D01*
X120188371Y-22510370D01*
X120185214Y-22516193D01*
X120160606Y-22558817D01*
X120160603Y-22558823D01*
X120160445Y-22559416D01*
X120151222Y-22583477D01*
X120054754Y-22773323D01*
X120041170Y-22794259D01*
X120040684Y-22795051D01*
X120020325Y-22840725D01*
X120017616Y-22846410D01*
X119994952Y-22891013D01*
X119994663Y-22891834D01*
X119987280Y-22914584D01*
X119987033Y-22915415D01*
X119979185Y-22964820D01*
X119978040Y-22971009D01*
X119967696Y-23019940D01*
X119967624Y-23020879D01*
X119966325Y-23045793D01*
X119932926Y-23256079D01*
X119926270Y-23280948D01*
X119926026Y-23281585D01*
X119926025Y-23281586D01*
X119920932Y-23330459D01*
X119920065Y-23337054D01*
X119912360Y-23385564D01*
X23871639Y-23385564D01*
X23863933Y-23337047D01*
X23863066Y-23330446D01*
X23861814Y-23318437D01*
X23857975Y-23281587D01*
X23857734Y-23280958D01*
X23851072Y-23256071D01*
X23844613Y-23215404D01*
X23817547Y-23044984D01*
X23816173Y-23019224D01*
X23816203Y-23018644D01*
X23805892Y-22970490D01*
X23804690Y-22964034D01*
X23796969Y-22915416D01*
X23796728Y-22914875D01*
X23788733Y-22890347D01*
X23788612Y-22889780D01*
X23766206Y-22845967D01*
X23763351Y-22839996D01*
X23760751Y-22834163D01*
X23743316Y-22795048D01*
X23742940Y-22794585D01*
X23728881Y-22772981D01*
X23631704Y-22582960D01*
X23622760Y-22559704D01*
X23622393Y-22558818D01*
X23622392Y-22558814D01*
X23597375Y-22515483D01*
X23594377Y-22509970D01*
X23571611Y-22465453D01*
X23571609Y-22465449D01*
X23571605Y-22465445D01*
X23571100Y-22464712D01*
X23557054Y-22445408D01*
X23556497Y-22444682D01*
X23521142Y-22409328D01*
X23516795Y-22404754D01*
X23483284Y-22367647D01*
X23482603Y-22367067D01*
X23463159Y-22351345D01*
X23313653Y-22201839D01*
X23297927Y-22182391D01*
X23297356Y-22181719D01*
X23297354Y-22181717D01*
X23260223Y-22148184D01*
X23255671Y-22143857D01*
X23220317Y-22108503D01*
X23220314Y-22108500D01*
X23220310Y-22108497D01*
X23219589Y-22107944D01*
X23200266Y-22093884D01*
X23199544Y-22093386D01*
X23155010Y-22070611D01*
X23149470Y-22067598D01*
X23106188Y-22042609D01*
X23105365Y-22042268D01*
X23082030Y-22033290D01*
X22891342Y-21935772D01*
X22869964Y-21921897D01*
X22868909Y-21921046D01*
X22868906Y-21921044D01*
X22868904Y-21921043D01*
X22824609Y-21901428D01*
X22818358Y-21898449D01*
X22818346Y-21898443D01*
X22784315Y-21881039D01*
X22775221Y-21876388D01*
X22775215Y-21876386D01*
X22773882Y-21876101D01*
X22749657Y-21868236D01*
X22748412Y-21867684D01*
X22700537Y-21860200D01*
X22693731Y-21858940D01*
X22646357Y-21848797D01*
X22646343Y-21848796D01*
X22644990Y-21848865D01*
X22619546Y-21847537D01*
X22410544Y-21814861D01*
X22390979Y-21809615D01*
X22386043Y-21808417D01*
X22335404Y-21802969D01*
X22329518Y-21802193D01*
X22279214Y-21794329D01*
X22274119Y-21794206D01*
X22260085Y-21794202D01*
X22255021Y-21794322D01*
X22223008Y-21799312D01*
X22204698Y-21802166D01*
X22198823Y-21802938D01*
X22148175Y-21808364D01*
X22143225Y-21809563D01*
X22123672Y-21814797D01*
X21913541Y-21847553D01*
X21888140Y-21848873D01*
X21886641Y-21848796D01*
X21839408Y-21858909D01*
X21832552Y-21860177D01*
X21784802Y-21867621D01*
X21784798Y-21867623D01*
X21783431Y-21868228D01*
X21759248Y-21876073D01*
X21757785Y-21876386D01*
X21757780Y-21876388D01*
X21714765Y-21898385D01*
X21708467Y-21901385D01*
X21664286Y-21920926D01*
X21664278Y-21920931D01*
X21663107Y-21921875D01*
X21641781Y-21935708D01*
X21450968Y-22033290D01*
X21427577Y-22042291D01*
X21426811Y-22042609D01*
X21383512Y-22067607D01*
X21377976Y-22070619D01*
X21333445Y-22093392D01*
X21332774Y-22093855D01*
X21313328Y-22108006D01*
X21312685Y-22108500D01*
X21277324Y-22143860D01*
X21272756Y-22148202D01*
X21235643Y-22181719D01*
X21235085Y-22182374D01*
X21219347Y-22201837D01*
X21069837Y-22351347D01*
X21050374Y-22367085D01*
X21049719Y-22367643D01*
X21016202Y-22404756D01*
X21011860Y-22409324D01*
X20976500Y-22444685D01*
X20976006Y-22445328D01*
X20961855Y-22464774D01*
X20961392Y-22465445D01*
X20938619Y-22509976D01*
X20935607Y-22515512D01*
X20910609Y-22558811D01*
X20910291Y-22559577D01*
X20901290Y-22582968D01*
X20803709Y-22773781D01*
X20789866Y-22795120D01*
X20788928Y-22796282D01*
X20769387Y-22840463D01*
X20766387Y-22846761D01*
X20744387Y-22889781D01*
X20744072Y-22891253D01*
X20736229Y-22915430D01*
X20735621Y-22916802D01*
X20735620Y-22916809D01*
X20728177Y-22964551D01*
X20726909Y-22971410D01*
X20716796Y-23018642D01*
X20716873Y-23020140D01*
X20715553Y-23045541D01*
X20682797Y-23255672D01*
X20677563Y-23275225D01*
X20676364Y-23280175D01*
X20670938Y-23330823D01*
X20670166Y-23336698D01*
X20667312Y-23355008D01*
X20662322Y-23387021D01*
X20662202Y-23392085D01*
X16768092Y-23392085D01*
X16784192Y-22971707D01*
X16784949Y-22961989D01*
X16785799Y-22954759D01*
X16834177Y-22543102D01*
X16835712Y-22533386D01*
X16918092Y-22119698D01*
X16920346Y-22110311D01*
X17035069Y-21703405D01*
X17038066Y-21694175D01*
X17184057Y-21298298D01*
X17187787Y-21289294D01*
X17364031Y-20907284D01*
X17368506Y-20898522D01*
X17575781Y-20529731D01*
X17580640Y-20521802D01*
X17814644Y-20170347D01*
X17820491Y-20162291D01*
X18081749Y-19831244D01*
X18088028Y-19823898D01*
X18374903Y-19513714D01*
X18381716Y-19506901D01*
X18691892Y-19220032D01*
X18699237Y-19213753D01*
X19030286Y-18952495D01*
X19038343Y-18946648D01*
X19389810Y-18712634D01*
X19397706Y-18707795D01*
X19766505Y-18500514D01*
X19775283Y-18496031D01*
X20157295Y-18319787D01*
X20166299Y-18316057D01*
X20562179Y-18170065D01*
X20571408Y-18167068D01*
X20978311Y-18052346D01*
X20987698Y-18050092D01*
X21401384Y-17967713D01*
X21411100Y-17966178D01*
X21830638Y-17916872D01*
X21840087Y-17916127D01*
X22274578Y-17898600D01*
X22279576Y-17898500D01*
X320005386Y-17898500D01*
X320010395Y-17898601D01*
G37*
%TD.AperFunction*%
M02*
