%TF.GenerationSoftware,KiCad,Pcbnew,8.0.7*%
%TF.CreationDate,2025-01-18T15:19:10-06:00*%
%TF.ProjectId,bottom-plate,626f7474-6f6d-42d7-906c-6174652e6b69,rev?*%
%TF.SameCoordinates,Original*%
%TF.FileFunction,Drillmap*%
%TF.FilePolarity,Positive*%
%FSLAX45Y45*%
G04 Gerber Fmt 4.5, Leading zero omitted, Abs format (unit mm)*
G04 Created by KiCad (PCBNEW 8.0.7) date 2025-01-18 15:19:10*
%MOMM*%
%LPD*%
G01*
G04 APERTURE LIST*
%ADD10C,0.188976*%
%ADD11C,0.200000*%
G04 APERTURE END LIST*
D10*
X22110700Y-12960300D02*
X22141400Y-12976000D01*
X22165701Y-13000300D01*
X22181300Y-13031000D01*
X22186700Y-13065000D01*
X22181300Y-13098900D01*
X22165701Y-13129600D01*
X22141400Y-13153900D01*
X22110700Y-13169600D01*
X22076701Y-13175000D01*
X22042700Y-13169600D01*
X22012100Y-13153900D01*
X21987699Y-13129600D01*
X21972100Y-13098900D01*
X21966700Y-13065000D01*
X21972100Y-13031000D01*
X21987699Y-13000300D01*
X22012100Y-12976000D01*
X22042700Y-12960300D01*
X22076701Y-12955000D01*
X22110700Y-12960300D01*
X2260600Y-12960300D02*
X2291300Y-12976000D01*
X2315600Y-13000300D01*
X2331300Y-13031000D01*
X2336700Y-13065000D01*
X2331300Y-13098900D01*
X2315600Y-13129600D01*
X2291300Y-13153900D01*
X2260600Y-13169600D01*
X2226700Y-13175000D01*
X2192700Y-13169600D01*
X2162000Y-13153900D01*
X2137700Y-13129600D01*
X2122000Y-13098900D01*
X2116700Y-13065000D01*
X2122000Y-13031000D01*
X2137700Y-13000300D01*
X2162000Y-12976000D01*
X2192700Y-12960300D01*
X2226700Y-12955000D01*
X2260600Y-12960300D01*
X12185700Y-12960300D02*
X12216300Y-12976000D01*
X12240700Y-13000300D01*
X12256300Y-13031000D01*
X12261700Y-13065000D01*
X12256300Y-13098900D01*
X12240700Y-13129600D01*
X12216300Y-13153900D01*
X12185700Y-13169600D01*
X12151700Y-13175000D01*
X12117700Y-13169600D01*
X12087000Y-13153900D01*
X12062700Y-13129600D01*
X12047100Y-13098900D01*
X12041700Y-13065000D01*
X12047100Y-13031000D01*
X12062700Y-13000300D01*
X12087000Y-12976000D01*
X12117700Y-12960300D01*
X12151700Y-12955000D01*
X12185700Y-12960300D01*
X12185700Y-2235200D02*
X12216300Y-2250900D01*
X12240700Y-2275200D01*
X12256300Y-2305900D01*
X12261700Y-2339900D01*
X12256300Y-2373800D01*
X12240700Y-2404500D01*
X12216300Y-2428800D01*
X12185700Y-2444500D01*
X12151700Y-2449900D01*
X12117700Y-2444500D01*
X12087000Y-2428800D01*
X12062700Y-2404500D01*
X12047100Y-2373800D01*
X12041700Y-2339900D01*
X12047100Y-2305900D01*
X12062700Y-2275200D01*
X12087000Y-2250900D01*
X12117700Y-2235200D01*
X12151700Y-2229900D01*
X12185700Y-2235200D01*
X32035700Y-12960300D02*
X32066401Y-12976000D01*
X32090699Y-13000300D01*
X32106400Y-13031000D01*
X32111799Y-13065000D01*
X32106400Y-13098900D01*
X32090699Y-13129600D01*
X32066401Y-13153900D01*
X32035700Y-13169600D01*
X32001801Y-13175000D01*
X31967799Y-13169600D01*
X31937101Y-13153900D01*
X31912800Y-13129600D01*
X31897099Y-13098900D01*
X31891801Y-13065000D01*
X31897099Y-13031000D01*
X31912800Y-13000300D01*
X31937101Y-12976000D01*
X31967799Y-12960300D01*
X32001801Y-12955000D01*
X32035700Y-12960300D01*
X2260600Y-2235200D02*
X2291300Y-2250900D01*
X2315600Y-2275200D01*
X2331300Y-2305900D01*
X2336700Y-2339900D01*
X2331300Y-2373800D01*
X2315600Y-2404500D01*
X2291300Y-2428800D01*
X2260600Y-2444500D01*
X2226700Y-2449900D01*
X2192700Y-2444500D01*
X2162000Y-2428800D01*
X2137700Y-2404500D01*
X2122000Y-2373800D01*
X2116700Y-2339900D01*
X2122000Y-2305900D01*
X2137700Y-2275200D01*
X2162000Y-2250900D01*
X2192700Y-2235200D01*
X2226700Y-2229900D01*
X2260600Y-2235200D01*
X32035700Y-2235200D02*
X32066401Y-2250900D01*
X32090699Y-2275200D01*
X32106400Y-2305900D01*
X32111799Y-2339900D01*
X32106400Y-2373800D01*
X32090699Y-2404500D01*
X32066401Y-2428800D01*
X32035700Y-2444500D01*
X32001801Y-2449900D01*
X31967799Y-2444500D01*
X31937101Y-2428800D01*
X31912800Y-2404500D01*
X31897099Y-2373800D01*
X31891801Y-2339900D01*
X31897099Y-2305900D01*
X31912800Y-2275200D01*
X31937101Y-2250900D01*
X31967799Y-2235200D01*
X32001801Y-2229900D01*
X32035700Y-2235200D01*
X22110700Y-2235200D02*
X22141400Y-2250900D01*
X22165701Y-2275200D01*
X22181300Y-2305900D01*
X22186700Y-2339900D01*
X22181300Y-2373800D01*
X22165701Y-2404500D01*
X22141400Y-2428800D01*
X22110700Y-2444500D01*
X22076701Y-2449900D01*
X22042700Y-2444500D01*
X22012100Y-2428800D01*
X21987699Y-2404500D01*
X21972100Y-2373800D01*
X21966700Y-2339900D01*
X21972100Y-2305900D01*
X21987699Y-2275200D01*
X22012100Y-2250900D01*
X22042700Y-2235200D01*
X22076701Y-2229900D01*
X22110700Y-2235200D01*
X32048798Y-1741700D02*
X32095600Y-1747200D01*
X32141801Y-1756400D01*
X32187199Y-1769200D01*
X32231400Y-1785500D01*
X32274101Y-1805200D01*
X32315199Y-1828300D01*
X32354401Y-1854400D01*
X32391401Y-1883600D01*
X32425999Y-1915600D01*
X32457999Y-1950200D01*
X32487199Y-1987200D01*
X32513300Y-2026400D01*
X32536399Y-2067500D01*
X32556101Y-2110200D01*
X32572401Y-2154400D01*
X32585200Y-2199800D01*
X32594401Y-2246000D01*
X32599900Y-2292800D01*
X32601801Y-2339900D01*
X32601801Y-13064900D01*
X32599900Y-13112000D01*
X32594401Y-13158800D01*
X32585200Y-13205000D01*
X32572401Y-13250400D01*
X32556101Y-13294600D01*
X32536399Y-13337300D01*
X32513300Y-13378400D01*
X32487199Y-13417600D01*
X32457999Y-13454600D01*
X32425999Y-13489200D01*
X32391401Y-13521200D01*
X32354401Y-13550400D01*
X32315199Y-13576500D01*
X32274101Y-13599600D01*
X32231400Y-13619300D01*
X32187199Y-13635600D01*
X32141801Y-13648400D01*
X32095600Y-13657600D01*
X32048798Y-13663100D01*
X32001801Y-13664900D01*
X2226700Y-13664900D01*
X2179600Y-13663100D01*
X2132800Y-13657600D01*
X2086600Y-13648400D01*
X2041200Y-13635600D01*
X1997000Y-13619300D01*
X1954300Y-13599600D01*
X1913200Y-13576500D01*
X1874000Y-13550400D01*
X1837000Y-13521200D01*
X1802400Y-13489200D01*
X1770400Y-13454600D01*
X1741200Y-13417600D01*
X1715100Y-13378400D01*
X1692000Y-13337300D01*
X1672300Y-13294600D01*
X1656000Y-13250400D01*
X1643200Y-13205000D01*
X1634000Y-13158800D01*
X1628500Y-13112000D01*
X1626600Y-13064900D01*
X1626700Y-2339800D01*
X1628500Y-2292800D01*
X1634000Y-2246000D01*
X1643200Y-2199800D01*
X1656000Y-2154400D01*
X1672300Y-2110200D01*
X1692000Y-2067500D01*
X1715100Y-2026400D01*
X1741200Y-1987200D01*
X1770400Y-1950200D01*
X1802400Y-1915600D01*
X1837000Y-1883600D01*
X1874000Y-1854400D01*
X1913200Y-1828300D01*
X1954300Y-1805200D01*
X1997000Y-1785500D01*
X2041200Y-1769200D01*
X2086600Y-1756400D01*
X2132800Y-1747200D01*
X2179600Y-1741700D01*
X2226700Y-1739800D01*
X32001801Y-1739800D01*
X32048798Y-1741700D01*
D11*
X1877928Y-13985833D02*
X1877928Y-13785833D01*
X1877928Y-13785833D02*
X1925547Y-13785833D01*
X1925547Y-13785833D02*
X1954118Y-13795356D01*
X1954118Y-13795356D02*
X1973166Y-13814404D01*
X1973166Y-13814404D02*
X1982690Y-13833452D01*
X1982690Y-13833452D02*
X1992214Y-13871547D01*
X1992214Y-13871547D02*
X1992214Y-13900118D01*
X1992214Y-13900118D02*
X1982690Y-13938213D01*
X1982690Y-13938213D02*
X1973166Y-13957261D01*
X1973166Y-13957261D02*
X1954118Y-13976309D01*
X1954118Y-13976309D02*
X1925547Y-13985833D01*
X1925547Y-13985833D02*
X1877928Y-13985833D01*
X2077928Y-13985833D02*
X2077928Y-13852499D01*
X2077928Y-13890594D02*
X2087452Y-13871547D01*
X2087452Y-13871547D02*
X2096976Y-13862023D01*
X2096976Y-13862023D02*
X2116023Y-13852499D01*
X2116023Y-13852499D02*
X2135071Y-13852499D01*
X2201738Y-13985833D02*
X2201738Y-13852499D01*
X2201738Y-13785833D02*
X2192214Y-13795356D01*
X2192214Y-13795356D02*
X2201738Y-13804880D01*
X2201738Y-13804880D02*
X2211261Y-13795356D01*
X2211261Y-13795356D02*
X2201738Y-13785833D01*
X2201738Y-13785833D02*
X2201738Y-13804880D01*
X2325547Y-13985833D02*
X2306499Y-13976309D01*
X2306499Y-13976309D02*
X2296976Y-13957261D01*
X2296976Y-13957261D02*
X2296976Y-13785833D01*
X2430309Y-13985833D02*
X2411261Y-13976309D01*
X2411261Y-13976309D02*
X2401738Y-13957261D01*
X2401738Y-13957261D02*
X2401738Y-13785833D01*
X2658880Y-13985833D02*
X2658880Y-13785833D01*
X2658880Y-13785833D02*
X2725547Y-13928690D01*
X2725547Y-13928690D02*
X2792214Y-13785833D01*
X2792214Y-13785833D02*
X2792214Y-13985833D01*
X2973166Y-13985833D02*
X2973166Y-13881071D01*
X2973166Y-13881071D02*
X2963642Y-13862023D01*
X2963642Y-13862023D02*
X2944595Y-13852499D01*
X2944595Y-13852499D02*
X2906499Y-13852499D01*
X2906499Y-13852499D02*
X2887452Y-13862023D01*
X2973166Y-13976309D02*
X2954118Y-13985833D01*
X2954118Y-13985833D02*
X2906499Y-13985833D01*
X2906499Y-13985833D02*
X2887452Y-13976309D01*
X2887452Y-13976309D02*
X2877928Y-13957261D01*
X2877928Y-13957261D02*
X2877928Y-13938213D01*
X2877928Y-13938213D02*
X2887452Y-13919166D01*
X2887452Y-13919166D02*
X2906499Y-13909642D01*
X2906499Y-13909642D02*
X2954118Y-13909642D01*
X2954118Y-13909642D02*
X2973166Y-13900118D01*
X3068404Y-13852499D02*
X3068404Y-14052499D01*
X3068404Y-13862023D02*
X3087452Y-13852499D01*
X3087452Y-13852499D02*
X3125547Y-13852499D01*
X3125547Y-13852499D02*
X3144595Y-13862023D01*
X3144595Y-13862023D02*
X3154118Y-13871547D01*
X3154118Y-13871547D02*
X3163642Y-13890594D01*
X3163642Y-13890594D02*
X3163642Y-13947737D01*
X3163642Y-13947737D02*
X3154118Y-13966785D01*
X3154118Y-13966785D02*
X3144595Y-13976309D01*
X3144595Y-13976309D02*
X3125547Y-13985833D01*
X3125547Y-13985833D02*
X3087452Y-13985833D01*
X3087452Y-13985833D02*
X3068404Y-13976309D01*
X3249357Y-13966785D02*
X3258880Y-13976309D01*
X3258880Y-13976309D02*
X3249357Y-13985833D01*
X3249357Y-13985833D02*
X3239833Y-13976309D01*
X3239833Y-13976309D02*
X3249357Y-13966785D01*
X3249357Y-13966785D02*
X3249357Y-13985833D01*
X3249357Y-13862023D02*
X3258880Y-13871547D01*
X3258880Y-13871547D02*
X3249357Y-13881071D01*
X3249357Y-13881071D02*
X3239833Y-13871547D01*
X3239833Y-13871547D02*
X3249357Y-13862023D01*
X3249357Y-13862023D02*
X3249357Y-13881071D01*
M02*
