%TF.GenerationSoftware,KiCad,Pcbnew,8.0.7*%
%TF.CreationDate,2025-01-18T14:51:17-06:00*%
%TF.ProjectId,top-plate,746f702d-706c-4617-9465-2e6b69636164,rev?*%
%TF.SameCoordinates,Original*%
%TF.FileFunction,Drillmap*%
%TF.FilePolarity,Positive*%
%FSLAX45Y45*%
G04 Gerber Fmt 4.5, Leading zero omitted, Abs format (unit mm)*
G04 Created by KiCad (PCBNEW 8.0.7) date 2025-01-18 14:51:17*
%MOMM*%
%LPD*%
G01*
G04 APERTURE LIST*
%ADD10C,0.188976*%
%ADD11C,0.050000*%
%ADD12C,0.200000*%
G04 APERTURE END LIST*
D10*
X1943100Y-1922250D02*
X1973800Y-1937950D01*
X1998100Y-1962250D01*
X2013800Y-1992950D01*
X2019200Y-2026950D01*
X2013800Y-2060850D01*
X1998100Y-2091550D01*
X1973800Y-2115850D01*
X1943100Y-2131550D01*
X1909200Y-2136950D01*
X1875200Y-2131550D01*
X1844500Y-2115850D01*
X1820200Y-2091550D01*
X1804500Y-2060850D01*
X1799200Y-2026950D01*
X1804500Y-1992950D01*
X1820200Y-1962250D01*
X1844500Y-1937950D01*
X1875200Y-1922250D01*
X1909200Y-1916950D01*
X1943100Y-1922250D01*
X23687899Y-9994450D02*
X22287899Y-9994450D01*
X22287899Y-8594450D01*
X23687899Y-8594450D01*
X23687899Y-9994450D01*
X26069200Y-11899449D02*
X24669200Y-11899449D01*
X24669200Y-10499450D01*
X26069200Y-10499450D01*
X26069200Y-11899449D01*
X17972900Y-9994450D02*
X16572900Y-9994450D01*
X16572900Y-8594450D01*
X17972900Y-8594450D01*
X17972900Y-9994450D01*
X11868200Y-12647350D02*
X11898800Y-12663050D01*
X11923200Y-12687350D01*
X11938800Y-12718050D01*
X11944200Y-12752050D01*
X11938800Y-12785950D01*
X11923200Y-12816650D01*
X11898800Y-12840950D01*
X11868200Y-12856649D01*
X11834200Y-12862049D01*
X11800200Y-12856649D01*
X11769500Y-12840950D01*
X11745200Y-12816650D01*
X11729600Y-12785950D01*
X11724200Y-12752050D01*
X11729600Y-12718050D01*
X11745200Y-12687350D01*
X11769500Y-12663050D01*
X11800200Y-12647350D01*
X11834200Y-12642050D01*
X11868200Y-12647350D01*
X22735400Y-8089450D02*
X21335400Y-8089450D01*
X21335400Y-6689450D01*
X22735400Y-6689450D01*
X22735400Y-8089450D01*
X18925399Y-8089450D02*
X17525399Y-8089450D01*
X17525399Y-6689450D01*
X18925399Y-6689450D01*
X18925399Y-8089450D01*
X19639801Y-11899449D02*
X18239801Y-11899449D01*
X18239801Y-10499450D01*
X19639801Y-10499450D01*
X19639801Y-11899449D01*
X12972300Y-11899449D02*
X11572300Y-11899449D01*
X11572300Y-10499450D01*
X12972300Y-10499450D01*
X12972300Y-11899449D01*
X7019200Y-11899449D02*
X5619200Y-11899449D01*
X5619200Y-10499450D01*
X7019200Y-10499450D01*
X7019200Y-11899449D01*
X29641000Y-8089450D02*
X28241000Y-8089450D01*
X28241000Y-6689450D01*
X29641000Y-6689450D01*
X29641000Y-8089450D01*
X12734200Y-6184450D02*
X11334200Y-6184450D01*
X11334200Y-4784450D01*
X12734200Y-4784450D01*
X12734200Y-6184450D01*
X28926699Y-4279450D02*
X27526699Y-4279450D01*
X27526699Y-2879450D01*
X28926699Y-2879450D01*
X28926699Y-4279450D01*
X4161700Y-4279450D02*
X2761700Y-4279450D01*
X2761700Y-2879450D01*
X4161700Y-2879450D01*
X4161700Y-4279450D01*
X7495400Y-8089450D02*
X6095400Y-8089450D01*
X6095400Y-6689450D01*
X7495400Y-6689450D01*
X7495400Y-8089450D01*
X21793200Y-12647350D02*
X21823900Y-12663050D01*
X21848201Y-12687350D01*
X21863800Y-12718050D01*
X21869200Y-12752050D01*
X21863800Y-12785950D01*
X21848201Y-12816650D01*
X21823900Y-12840950D01*
X21793200Y-12856649D01*
X21759201Y-12862049D01*
X21725200Y-12856649D01*
X21694600Y-12840950D01*
X21670199Y-12816650D01*
X21654600Y-12785950D01*
X21649200Y-12752050D01*
X21654600Y-12718050D01*
X21670199Y-12687350D01*
X21694600Y-12663050D01*
X21725200Y-12647350D01*
X21759201Y-12642050D01*
X21793200Y-12647350D01*
X6066700Y-4279450D02*
X4666700Y-4279450D01*
X4666700Y-2879450D01*
X6066700Y-2879450D01*
X6066700Y-4279450D01*
X8447900Y-9994450D02*
X7047900Y-9994450D01*
X7047900Y-8594450D01*
X8447900Y-8594450D01*
X8447900Y-9994450D01*
X10352900Y-9994450D02*
X8952900Y-9994450D01*
X8952900Y-8594450D01*
X10352900Y-8594450D01*
X10352900Y-9994450D01*
X7971700Y-4279450D02*
X6571700Y-4279450D01*
X6571700Y-2879450D01*
X7971700Y-2879450D01*
X7971700Y-4279450D01*
X12257900Y-9994450D02*
X10857900Y-9994450D01*
X10857900Y-8594450D01*
X12257900Y-8594450D01*
X12257900Y-9994450D01*
X26069200Y-6184450D02*
X24669200Y-6184450D01*
X24669200Y-4784450D01*
X26069200Y-4784450D01*
X26069200Y-6184450D01*
X7019200Y-6184450D02*
X5619200Y-6184450D01*
X5619200Y-4784450D01*
X7019200Y-4784450D01*
X7019200Y-6184450D01*
X21782901Y-9994450D02*
X20382901Y-9994450D01*
X20382901Y-8594450D01*
X21782901Y-8594450D01*
X21782901Y-9994450D01*
X27974200Y-6184450D02*
X26574099Y-6184450D01*
X26574099Y-4784450D01*
X27974200Y-4784450D01*
X27974200Y-6184450D01*
X13210400Y-8089450D02*
X11810400Y-8089450D01*
X11810400Y-6689450D01*
X13210400Y-6689450D01*
X13210400Y-8089450D01*
X20830400Y-8089450D02*
X19430400Y-8089450D01*
X19430400Y-6689450D01*
X20830400Y-6689450D01*
X20830400Y-8089450D01*
X21793200Y-1922250D02*
X21823900Y-1937950D01*
X21848201Y-1962250D01*
X21863800Y-1992950D01*
X21869200Y-2026950D01*
X21863800Y-2060850D01*
X21848201Y-2091550D01*
X21823900Y-2115850D01*
X21793200Y-2131550D01*
X21759201Y-2136950D01*
X21725200Y-2131550D01*
X21694600Y-2115850D01*
X21670199Y-2091550D01*
X21654600Y-2060850D01*
X21649200Y-2026950D01*
X21654600Y-1992950D01*
X21670199Y-1962250D01*
X21694600Y-1937950D01*
X21725200Y-1922250D01*
X21759201Y-1916950D01*
X21793200Y-1922250D01*
X15591700Y-4279450D02*
X14191700Y-4279450D01*
X14191700Y-2879450D01*
X15591700Y-2879450D01*
X15591700Y-4279450D01*
X23211700Y-4279450D02*
X21811700Y-4279450D01*
X21811700Y-2879450D01*
X23211700Y-2879450D01*
X23211700Y-4279450D01*
X23687899Y-11899449D02*
X22287899Y-11899449D01*
X22287899Y-10499450D01*
X23687899Y-10499450D01*
X23687899Y-11899449D01*
X30831701Y-4279450D02*
X29431701Y-4279450D01*
X29431701Y-2879450D01*
X30831701Y-2879450D01*
X30831701Y-4279450D01*
X16544200Y-6184450D02*
X15144200Y-6184450D01*
X15144200Y-4784450D01*
X16544200Y-4784450D01*
X16544200Y-6184450D01*
X15115400Y-8089450D02*
X13715400Y-8089450D01*
X13715400Y-6689450D01*
X15115400Y-6689450D01*
X15115400Y-8089450D01*
X22259201Y-6184450D02*
X20859201Y-6184450D01*
X20859201Y-4784450D01*
X22259201Y-4784450D01*
X22259201Y-6184450D01*
X24640400Y-8089450D02*
X23240400Y-8089450D01*
X23240400Y-6689450D01*
X24640400Y-6689450D01*
X24640400Y-8089450D01*
X19877900Y-9994450D02*
X18477900Y-9994450D01*
X18477900Y-8594450D01*
X19877900Y-8594450D01*
X19877900Y-9994450D01*
X11868200Y-1922250D02*
X11898800Y-1937950D01*
X11923200Y-1962250D01*
X11938800Y-1992950D01*
X11944200Y-2026950D01*
X11938800Y-2060850D01*
X11923200Y-2091550D01*
X11898800Y-2115850D01*
X11868200Y-2131550D01*
X11834200Y-2136950D01*
X11800200Y-2131550D01*
X11769500Y-2115850D01*
X11745200Y-2091550D01*
X11729600Y-2060850D01*
X11724200Y-2026950D01*
X11729600Y-1992950D01*
X11745200Y-1962250D01*
X11769500Y-1937950D01*
X11800200Y-1922250D01*
X11834200Y-1916950D01*
X11868200Y-1922250D01*
X31718200Y-12647350D02*
X31748901Y-12663050D01*
X31773199Y-12687350D01*
X31788900Y-12718050D01*
X31794299Y-12752050D01*
X31788900Y-12785950D01*
X31773199Y-12816650D01*
X31748901Y-12840950D01*
X31718200Y-12856649D01*
X31684301Y-12862049D01*
X31650299Y-12856649D01*
X31619601Y-12840950D01*
X31595300Y-12816650D01*
X31579599Y-12785950D01*
X31574301Y-12752050D01*
X31579599Y-12718050D01*
X31595300Y-12687350D01*
X31619601Y-12663050D01*
X31650299Y-12647350D01*
X31684301Y-12642050D01*
X31718200Y-12647350D01*
X30355401Y-6184450D02*
X28955401Y-6184450D01*
X28955401Y-4784450D01*
X30355401Y-4784450D01*
X30355401Y-6184450D01*
X17020401Y-8089450D02*
X15620401Y-8089450D01*
X15620401Y-6689450D01*
X17020401Y-6689450D01*
X17020401Y-8089450D01*
X26545401Y-8089450D02*
X25145401Y-8089450D01*
X25145401Y-6689450D01*
X26545401Y-6689450D01*
X26545401Y-8089450D01*
X13686599Y-4279450D02*
X12286600Y-4279450D01*
X12286600Y-2879450D01*
X13686599Y-2879450D01*
X13686599Y-4279450D01*
X25116700Y-4279450D02*
X23716700Y-4279450D01*
X23716700Y-2879450D01*
X25116700Y-2879450D01*
X25116700Y-4279450D01*
X19401700Y-4279450D02*
X18001700Y-4279450D01*
X18001700Y-2879450D01*
X19401700Y-2879450D01*
X19401700Y-4279450D01*
X4876000Y-8089450D02*
X3476000Y-8089450D01*
X3476000Y-6689450D01*
X4876000Y-6689450D01*
X4876000Y-8089450D01*
X4637900Y-6184450D02*
X3237900Y-6184450D01*
X3237900Y-4784450D01*
X4637900Y-4784450D01*
X4637900Y-6184450D01*
X9876700Y-4279450D02*
X8476700Y-4279450D01*
X8476700Y-2879450D01*
X9876700Y-2879450D01*
X9876700Y-4279450D01*
X16067900Y-11899449D02*
X14667900Y-11899449D01*
X14667900Y-10499450D01*
X16067900Y-10499450D01*
X16067900Y-11899449D01*
X30831701Y-9994450D02*
X29431701Y-9994450D01*
X29431701Y-8594450D01*
X30831701Y-8594450D01*
X30831701Y-9994450D01*
X14639199Y-6184450D02*
X13239200Y-6184450D01*
X13239200Y-4784450D01*
X14639199Y-4784450D01*
X14639199Y-6184450D01*
X21306700Y-4279450D02*
X19906700Y-4279450D01*
X19906700Y-2879450D01*
X21306700Y-2879450D01*
X21306700Y-4279450D01*
X31731298Y-1428750D02*
X31778100Y-1434250D01*
X31824301Y-1443450D01*
X31869699Y-1456250D01*
X31913900Y-1472550D01*
X31956601Y-1492250D01*
X31997699Y-1515350D01*
X32036901Y-1541450D01*
X32073901Y-1570650D01*
X32108499Y-1602650D01*
X32140499Y-1637250D01*
X32169699Y-1674250D01*
X32195800Y-1713450D01*
X32218899Y-1754550D01*
X32238601Y-1797250D01*
X32254901Y-1841450D01*
X32267700Y-1886850D01*
X32276901Y-1933050D01*
X32282400Y-1979850D01*
X32284301Y-2026950D01*
X32284301Y-12751950D01*
X32282400Y-12799050D01*
X32276901Y-12845850D01*
X32267700Y-12892050D01*
X32254901Y-12937450D01*
X32238601Y-12981649D01*
X32218899Y-13024349D01*
X32195800Y-13065450D01*
X32169699Y-13104650D01*
X32140499Y-13141650D01*
X32108499Y-13176250D01*
X32073901Y-13208250D01*
X32036901Y-13237450D01*
X31997699Y-13263549D01*
X31956601Y-13286650D01*
X31913900Y-13306349D01*
X31869699Y-13322650D01*
X31824301Y-13335450D01*
X31778100Y-13344650D01*
X31731298Y-13350150D01*
X31684301Y-13351950D01*
X1909200Y-13351950D01*
X1862100Y-13350150D01*
X1815300Y-13344650D01*
X1769100Y-13335450D01*
X1723700Y-13322650D01*
X1679500Y-13306349D01*
X1636800Y-13286650D01*
X1595700Y-13263549D01*
X1556500Y-13237450D01*
X1519500Y-13208250D01*
X1484900Y-13176250D01*
X1452900Y-13141650D01*
X1423700Y-13104650D01*
X1397600Y-13065450D01*
X1374500Y-13024349D01*
X1354800Y-12981649D01*
X1338500Y-12937450D01*
X1325700Y-12892050D01*
X1316500Y-12845850D01*
X1311000Y-12799050D01*
X1309100Y-12751950D01*
X1309200Y-2026850D01*
X1311000Y-1979850D01*
X1316500Y-1933050D01*
X1325700Y-1886850D01*
X1338500Y-1841450D01*
X1354800Y-1797250D01*
X1374500Y-1754550D01*
X1397600Y-1713450D01*
X1423700Y-1674250D01*
X1452900Y-1637250D01*
X1484900Y-1602650D01*
X1519500Y-1570650D01*
X1556500Y-1541450D01*
X1595700Y-1515350D01*
X1636800Y-1492250D01*
X1679500Y-1472550D01*
X1723700Y-1456250D01*
X1769100Y-1443450D01*
X1815300Y-1434250D01*
X1862100Y-1428750D01*
X1909200Y-1426850D01*
X31684301Y-1426850D01*
X31731298Y-1428750D01*
X28212301Y-9994450D02*
X26812301Y-9994450D01*
X26812301Y-8594450D01*
X28212301Y-8594450D01*
X28212301Y-9994450D01*
X17496701Y-4279450D02*
X16096701Y-4279450D01*
X16096701Y-2879450D01*
X17496701Y-2879450D01*
X17496701Y-4279450D01*
X24164199Y-6184450D02*
X22764199Y-6184450D01*
X22764199Y-4784450D01*
X24164199Y-4784450D01*
X24164199Y-6184450D01*
X11781700Y-4279450D02*
X10381700Y-4279450D01*
X10381700Y-2879450D01*
X11781700Y-2879450D01*
X11781700Y-4279450D01*
X1943100Y-12647350D02*
X1973800Y-12663050D01*
X1998100Y-12687350D01*
X2013800Y-12718050D01*
X2019200Y-12752050D01*
X2013800Y-12785950D01*
X1998100Y-12816650D01*
X1973800Y-12840950D01*
X1943100Y-12856649D01*
X1909200Y-12862049D01*
X1875200Y-12856649D01*
X1844500Y-12840950D01*
X1820200Y-12816650D01*
X1804500Y-12785950D01*
X1799200Y-12752050D01*
X1804500Y-12718050D01*
X1820200Y-12687350D01*
X1844500Y-12663050D01*
X1875200Y-12647350D01*
X1909200Y-12642050D01*
X1943100Y-12647350D01*
X25592900Y-9994450D02*
X24192900Y-9994450D01*
X24192900Y-8594450D01*
X25592900Y-8594450D01*
X25592900Y-9994450D01*
X11305400Y-8089450D02*
X9905400Y-8089450D01*
X9905400Y-6689450D01*
X11305400Y-6689450D01*
X11305400Y-8089450D01*
X18449200Y-6184450D02*
X17049200Y-6184450D01*
X17049200Y-4784450D01*
X18449200Y-4784450D01*
X18449200Y-6184450D01*
X9400400Y-11899449D02*
X8000400Y-11899449D01*
X8000400Y-10499450D01*
X9400400Y-10499450D01*
X9400400Y-11899449D01*
X5352300Y-9994450D02*
X3952300Y-9994450D01*
X3952300Y-8594450D01*
X5352300Y-8594450D01*
X5352300Y-9994450D01*
X27021701Y-4279450D02*
X25621701Y-4279450D01*
X25621701Y-2879450D01*
X27021701Y-2879450D01*
X27021701Y-4279450D01*
X9400400Y-8089450D02*
X8000400Y-8089450D01*
X8000400Y-6689450D01*
X9400400Y-6689450D01*
X9400400Y-8089450D01*
X16067900Y-9994450D02*
X14667900Y-9994450D01*
X14667900Y-8594450D01*
X16067900Y-8594450D01*
X16067900Y-9994450D01*
X20354200Y-6184450D02*
X18954200Y-6184450D01*
X18954200Y-4784450D01*
X20354200Y-4784450D01*
X20354200Y-6184450D01*
X10829200Y-6184450D02*
X9429200Y-6184450D01*
X9429200Y-4784450D01*
X10829200Y-4784450D01*
X10829200Y-6184450D01*
X8924200Y-6184450D02*
X7524200Y-6184450D01*
X7524200Y-4784450D01*
X8924200Y-4784450D01*
X8924200Y-6184450D01*
X14162899Y-9994450D02*
X12762900Y-9994450D01*
X12762900Y-8594450D01*
X14162899Y-8594450D01*
X14162899Y-9994450D01*
X31718200Y-1922250D02*
X31748901Y-1937950D01*
X31773199Y-1962250D01*
X31788900Y-1992950D01*
X31794299Y-2026950D01*
X31788900Y-2060850D01*
X31773199Y-2091550D01*
X31748901Y-2115850D01*
X31718200Y-2131550D01*
X31684301Y-2136950D01*
X31650299Y-2131550D01*
X31619601Y-2115850D01*
X31595300Y-2091550D01*
X31579599Y-2060850D01*
X31574301Y-2026950D01*
X31579599Y-1992950D01*
X31595300Y-1962250D01*
X31619601Y-1937950D01*
X31650299Y-1922250D01*
X31684301Y-1916950D01*
X31718200Y-1922250D01*
D11*
X27428300Y-7646400D02*
X27428300Y-7061400D01*
X27478300Y-7011400D02*
X27513300Y-7011400D01*
X27478300Y-7696400D02*
X28008300Y-7696400D01*
X27563300Y-6961400D02*
X27563300Y-6596400D01*
X27613300Y-6546400D02*
X27873300Y-6546400D01*
X27923300Y-6961400D02*
X27923300Y-6596400D01*
X28008300Y-7011400D02*
X27973300Y-7011400D01*
X28058300Y-7646400D02*
X28058300Y-7061400D01*
X29828300Y-7646400D02*
X29828300Y-7061400D01*
X29878300Y-7011400D02*
X29913300Y-7011400D01*
X29963300Y-6961400D02*
X29963300Y-6596400D01*
X30273300Y-6546400D02*
X30013300Y-6546400D01*
X30323300Y-6961400D02*
X30323300Y-6596400D01*
X30408300Y-7011400D02*
X30373300Y-7011400D01*
X30408300Y-7696400D02*
X29878300Y-7696400D01*
X30458300Y-7646400D02*
X30458300Y-7061400D01*
X27428300Y-7061400D02*
G75*
G02*
X27478300Y-7011400I50000J0D01*
G01*
X27478300Y-7696400D02*
G75*
G02*
X27428300Y-7646400I0J50000D01*
G01*
X27563300Y-6596400D02*
G75*
G02*
X27613300Y-6546400I50000J0D01*
G01*
X27563300Y-6961400D02*
G75*
G02*
X27513300Y-7011400I-50000J0D01*
G01*
X27873300Y-6546400D02*
G75*
G02*
X27923300Y-6596400I0J-50000D01*
G01*
X27973300Y-7011400D02*
G75*
G02*
X27923300Y-6961400I0J50000D01*
G01*
X28008300Y-7011400D02*
G75*
G02*
X28058300Y-7061400I0J-50000D01*
G01*
X28058300Y-7646400D02*
G75*
G02*
X28008300Y-7696400I-50000J0D01*
G01*
X29828300Y-7061400D02*
G75*
G02*
X29878300Y-7011400I50000J0D01*
G01*
X29878300Y-7696400D02*
G75*
G02*
X29828300Y-7646400I0J50000D01*
G01*
X29963300Y-6596400D02*
G75*
G02*
X30013300Y-6546400I50000J0D01*
G01*
X29963300Y-6961400D02*
G75*
G02*
X29913300Y-7011400I-50000J0D01*
G01*
X30273300Y-6546400D02*
G75*
G02*
X30323300Y-6596400I0J-50000D01*
G01*
X30373300Y-7011400D02*
G75*
G02*
X30323300Y-6961400I0J50000D01*
G01*
X30408300Y-7011400D02*
G75*
G02*
X30458300Y-7061400I0J-50000D01*
G01*
X30458300Y-7646400D02*
G75*
G02*
X30408300Y-7696400I-50000J0D01*
G01*
X17420700Y-11456400D02*
X17420700Y-10871400D01*
X17470700Y-10821400D02*
X17505700Y-10821400D01*
X17470700Y-11506400D02*
X18000700Y-11506400D01*
X17555700Y-10771400D02*
X17555700Y-10406400D01*
X17605700Y-10356400D02*
X17865700Y-10356400D01*
X17915700Y-10771400D02*
X17915700Y-10406400D01*
X18000700Y-10821400D02*
X17965700Y-10821400D01*
X18050700Y-11456400D02*
X18050700Y-10871400D01*
X19820700Y-11456400D02*
X19820700Y-10871400D01*
X19870700Y-10821400D02*
X19905700Y-10821400D01*
X19955700Y-10771400D02*
X19955700Y-10406400D01*
X20265700Y-10356400D02*
X20005700Y-10356400D01*
X20315700Y-10771400D02*
X20315700Y-10406400D01*
X20400700Y-10821400D02*
X20365700Y-10821400D01*
X20400700Y-11506400D02*
X19870700Y-11506400D01*
X20450700Y-11456400D02*
X20450700Y-10871400D01*
X17420700Y-10871400D02*
G75*
G02*
X17470700Y-10821400I50000J0D01*
G01*
X17470700Y-11506400D02*
G75*
G02*
X17420700Y-11456400I0J50000D01*
G01*
X17555700Y-10406400D02*
G75*
G02*
X17605700Y-10356400I50000J0D01*
G01*
X17555700Y-10771400D02*
G75*
G02*
X17505700Y-10821400I-50000J0D01*
G01*
X17865700Y-10356400D02*
G75*
G02*
X17915700Y-10406400I0J-50000D01*
G01*
X17965700Y-10821400D02*
G75*
G02*
X17915700Y-10771400I0J50000D01*
G01*
X18000700Y-10821400D02*
G75*
G02*
X18050700Y-10871400I0J-50000D01*
G01*
X18050700Y-11456400D02*
G75*
G02*
X18000700Y-11506400I-50000J0D01*
G01*
X19820700Y-10871400D02*
G75*
G02*
X19870700Y-10821400I50000J0D01*
G01*
X19870700Y-11506400D02*
G75*
G02*
X19820700Y-11456400I0J50000D01*
G01*
X19955700Y-10406400D02*
G75*
G02*
X20005700Y-10356400I50000J0D01*
G01*
X19955700Y-10771400D02*
G75*
G02*
X19905700Y-10821400I-50000J0D01*
G01*
X20265700Y-10356400D02*
G75*
G02*
X20315700Y-10406400I0J-50000D01*
G01*
X20365700Y-10821400D02*
G75*
G02*
X20315700Y-10771400I0J50000D01*
G01*
X20400700Y-10821400D02*
G75*
G02*
X20450700Y-10871400I0J-50000D01*
G01*
X20450700Y-11456400D02*
G75*
G02*
X20400700Y-11506400I-50000J0D01*
G01*
X3133200Y-9551400D02*
X3133200Y-8966400D01*
X3183200Y-8916400D02*
X3218200Y-8916400D01*
X3183200Y-9601400D02*
X3713200Y-9601400D01*
X3268200Y-8866400D02*
X3268200Y-8501400D01*
X3318200Y-8451400D02*
X3578200Y-8451400D01*
X3628200Y-8866400D02*
X3628200Y-8501400D01*
X3713200Y-8916400D02*
X3678200Y-8916400D01*
X3763200Y-9551400D02*
X3763200Y-8966400D01*
X5533200Y-9551400D02*
X5533200Y-8966400D01*
X5583200Y-8916400D02*
X5618200Y-8916400D01*
X5668200Y-8866400D02*
X5668200Y-8501400D01*
X5978200Y-8451400D02*
X5718200Y-8451400D01*
X6028200Y-8866400D02*
X6028200Y-8501400D01*
X6113200Y-8916400D02*
X6078200Y-8916400D01*
X6113200Y-9601400D02*
X5583200Y-9601400D01*
X6163200Y-9551400D02*
X6163200Y-8966400D01*
X3133200Y-8966400D02*
G75*
G02*
X3183200Y-8916400I50000J0D01*
G01*
X3183200Y-9601400D02*
G75*
G02*
X3133200Y-9551400I0J50000D01*
G01*
X3268200Y-8501400D02*
G75*
G02*
X3318200Y-8451400I50000J0D01*
G01*
X3268200Y-8866400D02*
G75*
G02*
X3218200Y-8916400I-50000J0D01*
G01*
X3578200Y-8451400D02*
G75*
G02*
X3628200Y-8501400I0J-50000D01*
G01*
X3678200Y-8916400D02*
G75*
G02*
X3628200Y-8866400I0J50000D01*
G01*
X3713200Y-8916400D02*
G75*
G02*
X3763200Y-8966400I0J-50000D01*
G01*
X3763200Y-9551400D02*
G75*
G02*
X3713200Y-9601400I-50000J0D01*
G01*
X5533200Y-8966400D02*
G75*
G02*
X5583200Y-8916400I50000J0D01*
G01*
X5583200Y-9601400D02*
G75*
G02*
X5533200Y-9551400I0J50000D01*
G01*
X5668200Y-8501400D02*
G75*
G02*
X5718200Y-8451400I50000J0D01*
G01*
X5668200Y-8866400D02*
G75*
G02*
X5618200Y-8916400I-50000J0D01*
G01*
X5978200Y-8451400D02*
G75*
G02*
X6028200Y-8501400I0J-50000D01*
G01*
X6078200Y-8916400D02*
G75*
G02*
X6028200Y-8866400I0J50000D01*
G01*
X6113200Y-8916400D02*
G75*
G02*
X6163200Y-8966400I0J-50000D01*
G01*
X6163200Y-9551400D02*
G75*
G02*
X6113200Y-9601400I-50000J0D01*
G01*
X10753200Y-11456400D02*
X10753200Y-10871400D01*
X10803200Y-10821400D02*
X10838200Y-10821400D01*
X10803200Y-11506400D02*
X11333200Y-11506400D01*
X10888200Y-10771400D02*
X10888200Y-10406400D01*
X10938200Y-10356400D02*
X11198200Y-10356400D01*
X11248200Y-10771400D02*
X11248200Y-10406400D01*
X11333200Y-10821400D02*
X11298200Y-10821400D01*
X11383200Y-11456400D02*
X11383200Y-10871400D01*
X13153200Y-11456400D02*
X13153200Y-10871400D01*
X13203200Y-10821400D02*
X13238200Y-10821400D01*
X13288200Y-10771400D02*
X13288200Y-10406400D01*
X13598200Y-10356400D02*
X13338200Y-10356400D01*
X13648200Y-10771400D02*
X13648200Y-10406400D01*
X13733200Y-10821400D02*
X13698200Y-10821400D01*
X13733200Y-11506400D02*
X13203200Y-11506400D01*
X13783200Y-11456400D02*
X13783200Y-10871400D01*
X10753200Y-10871400D02*
G75*
G02*
X10803200Y-10821400I50000J0D01*
G01*
X10803200Y-11506400D02*
G75*
G02*
X10753200Y-11456400I0J50000D01*
G01*
X10888200Y-10406400D02*
G75*
G02*
X10938200Y-10356400I50000J0D01*
G01*
X10888200Y-10771400D02*
G75*
G02*
X10838200Y-10821400I-50000J0D01*
G01*
X11198200Y-10356400D02*
G75*
G02*
X11248200Y-10406400I0J-50000D01*
G01*
X11298200Y-10821400D02*
G75*
G02*
X11248200Y-10771400I0J50000D01*
G01*
X11333200Y-10821400D02*
G75*
G02*
X11383200Y-10871400I0J-50000D01*
G01*
X11383200Y-11456400D02*
G75*
G02*
X11333200Y-11506400I-50000J0D01*
G01*
X13153200Y-10871400D02*
G75*
G02*
X13203200Y-10821400I50000J0D01*
G01*
X13203200Y-11506400D02*
G75*
G02*
X13153200Y-11456400I0J50000D01*
G01*
X13288200Y-10406400D02*
G75*
G02*
X13338200Y-10356400I50000J0D01*
G01*
X13288200Y-10771400D02*
G75*
G02*
X13238200Y-10821400I-50000J0D01*
G01*
X13598200Y-10356400D02*
G75*
G02*
X13648200Y-10406400I0J-50000D01*
G01*
X13698200Y-10821400D02*
G75*
G02*
X13648200Y-10771400I0J50000D01*
G01*
X13733200Y-10821400D02*
G75*
G02*
X13783200Y-10871400I0J-50000D01*
G01*
X13783200Y-11456400D02*
G75*
G02*
X13733200Y-11506400I-50000J0D01*
G01*
D12*
X1560428Y-13672882D02*
X1560428Y-13472882D01*
X1560428Y-13472882D02*
X1608047Y-13472882D01*
X1608047Y-13472882D02*
X1636618Y-13482406D01*
X1636618Y-13482406D02*
X1655666Y-13501454D01*
X1655666Y-13501454D02*
X1665190Y-13520501D01*
X1665190Y-13520501D02*
X1674714Y-13558596D01*
X1674714Y-13558596D02*
X1674714Y-13587168D01*
X1674714Y-13587168D02*
X1665190Y-13625263D01*
X1665190Y-13625263D02*
X1655666Y-13644311D01*
X1655666Y-13644311D02*
X1636618Y-13663358D01*
X1636618Y-13663358D02*
X1608047Y-13672882D01*
X1608047Y-13672882D02*
X1560428Y-13672882D01*
X1760428Y-13672882D02*
X1760428Y-13539549D01*
X1760428Y-13577644D02*
X1769952Y-13558596D01*
X1769952Y-13558596D02*
X1779476Y-13549073D01*
X1779476Y-13549073D02*
X1798523Y-13539549D01*
X1798523Y-13539549D02*
X1817571Y-13539549D01*
X1884237Y-13672882D02*
X1884237Y-13539549D01*
X1884237Y-13472882D02*
X1874714Y-13482406D01*
X1874714Y-13482406D02*
X1884237Y-13491930D01*
X1884237Y-13491930D02*
X1893761Y-13482406D01*
X1893761Y-13482406D02*
X1884237Y-13472882D01*
X1884237Y-13472882D02*
X1884237Y-13491930D01*
X2008047Y-13672882D02*
X1988999Y-13663358D01*
X1988999Y-13663358D02*
X1979476Y-13644311D01*
X1979476Y-13644311D02*
X1979476Y-13472882D01*
X2112809Y-13672882D02*
X2093761Y-13663358D01*
X2093761Y-13663358D02*
X2084237Y-13644311D01*
X2084237Y-13644311D02*
X2084237Y-13472882D01*
X2341380Y-13672882D02*
X2341380Y-13472882D01*
X2341380Y-13472882D02*
X2408047Y-13615739D01*
X2408047Y-13615739D02*
X2474714Y-13472882D01*
X2474714Y-13472882D02*
X2474714Y-13672882D01*
X2655666Y-13672882D02*
X2655666Y-13568120D01*
X2655666Y-13568120D02*
X2646142Y-13549073D01*
X2646142Y-13549073D02*
X2627095Y-13539549D01*
X2627095Y-13539549D02*
X2588999Y-13539549D01*
X2588999Y-13539549D02*
X2569952Y-13549073D01*
X2655666Y-13663358D02*
X2636619Y-13672882D01*
X2636619Y-13672882D02*
X2588999Y-13672882D01*
X2588999Y-13672882D02*
X2569952Y-13663358D01*
X2569952Y-13663358D02*
X2560428Y-13644311D01*
X2560428Y-13644311D02*
X2560428Y-13625263D01*
X2560428Y-13625263D02*
X2569952Y-13606216D01*
X2569952Y-13606216D02*
X2588999Y-13596692D01*
X2588999Y-13596692D02*
X2636619Y-13596692D01*
X2636619Y-13596692D02*
X2655666Y-13587168D01*
X2750904Y-13539549D02*
X2750904Y-13739549D01*
X2750904Y-13549073D02*
X2769952Y-13539549D01*
X2769952Y-13539549D02*
X2808047Y-13539549D01*
X2808047Y-13539549D02*
X2827095Y-13549073D01*
X2827095Y-13549073D02*
X2836618Y-13558596D01*
X2836618Y-13558596D02*
X2846142Y-13577644D01*
X2846142Y-13577644D02*
X2846142Y-13634787D01*
X2846142Y-13634787D02*
X2836618Y-13653835D01*
X2836618Y-13653835D02*
X2827095Y-13663358D01*
X2827095Y-13663358D02*
X2808047Y-13672882D01*
X2808047Y-13672882D02*
X2769952Y-13672882D01*
X2769952Y-13672882D02*
X2750904Y-13663358D01*
X2931857Y-13653835D02*
X2941380Y-13663358D01*
X2941380Y-13663358D02*
X2931857Y-13672882D01*
X2931857Y-13672882D02*
X2922333Y-13663358D01*
X2922333Y-13663358D02*
X2931857Y-13653835D01*
X2931857Y-13653835D02*
X2931857Y-13672882D01*
X2931857Y-13549073D02*
X2941380Y-13558596D01*
X2941380Y-13558596D02*
X2931857Y-13568120D01*
X2931857Y-13568120D02*
X2922333Y-13558596D01*
X2922333Y-13558596D02*
X2931857Y-13549073D01*
X2931857Y-13549073D02*
X2931857Y-13568120D01*
M02*
