%TF.GenerationSoftware,KiCad,Pcbnew,8.0.7*%
%TF.CreationDate,2025-01-18T14:51:30-06:00*%
%TF.ProjectId,top-plate,746f702d-706c-4617-9465-2e6b69636164,rev?*%
%TF.SameCoordinates,Original*%
%TF.FileFunction,Profile,NP*%
%FSLAX46Y46*%
G04 Gerber Fmt 4.6, Leading zero omitted, Abs format (unit mm)*
G04 Created by KiCad (PCBNEW 8.0.7) date 2025-01-18 14:51:30*
%MOMM*%
%LPD*%
G01*
G04 APERTURE LIST*
%TA.AperFunction,Profile*%
%ADD10C,0.188976*%
%TD*%
%TA.AperFunction,Profile*%
%ADD11C,0.050000*%
%TD*%
G04 APERTURE END LIST*
D10*
X19431000Y-19222497D02*
X19738000Y-19379497D01*
X19981000Y-19622497D01*
X20138000Y-19929497D01*
X20192000Y-20269497D01*
X20138000Y-20608497D01*
X19981000Y-20915497D01*
X19738000Y-21158497D01*
X19431000Y-21315497D01*
X19092000Y-21369497D01*
X18752000Y-21315497D01*
X18445000Y-21158497D01*
X18202000Y-20915497D01*
X18045000Y-20608497D01*
X17992000Y-20269497D01*
X18045000Y-19929497D01*
X18202000Y-19622497D01*
X18445000Y-19379497D01*
X18752000Y-19222497D01*
X19092000Y-19169497D01*
X19431000Y-19222497D01*
X236878994Y-99944500D02*
X222878994Y-99944500D01*
X222878994Y-85944500D01*
X236878994Y-85944500D01*
X236878994Y-99944500D01*
X260691998Y-118994495D02*
X246691998Y-118994495D01*
X246691998Y-104994495D01*
X260691998Y-104994495D01*
X260691998Y-118994495D01*
X179729000Y-99944500D02*
X165729000Y-99944500D01*
X165729000Y-85944500D01*
X179729000Y-85944500D01*
X179729000Y-99944500D01*
X118682003Y-126473499D02*
X118988003Y-126630497D01*
X119231999Y-126873500D01*
X119387997Y-127180500D01*
X119441998Y-127520496D01*
X119387997Y-127859500D01*
X119231999Y-128166500D01*
X118988003Y-128409496D01*
X118682003Y-128566494D01*
X118341999Y-128620494D01*
X118002003Y-128566494D01*
X117694996Y-128409496D01*
X117452000Y-128166500D01*
X117296002Y-127859500D01*
X117242001Y-127520496D01*
X117296002Y-127180500D01*
X117452000Y-126873500D01*
X117694996Y-126630497D01*
X118002003Y-126473499D01*
X118341999Y-126420497D01*
X118682003Y-126473499D01*
X227354000Y-80894496D02*
X213354000Y-80894496D01*
X213354000Y-66894496D01*
X227354000Y-66894496D01*
X227354000Y-80894496D01*
X189253994Y-80894496D02*
X175253994Y-80894496D01*
X175253994Y-66894496D01*
X189253994Y-66894496D01*
X189253994Y-80894496D01*
X196398007Y-118994495D02*
X182398007Y-118994495D01*
X182398007Y-104994495D01*
X196398007Y-104994495D01*
X196398007Y-118994495D01*
X129723004Y-118994495D02*
X115723004Y-118994495D01*
X115723004Y-104994495D01*
X129723004Y-104994495D01*
X129723004Y-118994495D01*
X70192002Y-118994495D02*
X56192002Y-118994495D01*
X56192002Y-104994495D01*
X70192002Y-104994495D01*
X70192002Y-118994495D01*
X296410000Y-80894496D02*
X282410000Y-80894496D01*
X282410000Y-66894496D01*
X296410000Y-66894496D01*
X296410000Y-80894496D01*
X127341999Y-61844497D02*
X113341999Y-61844497D01*
X113341999Y-47844497D01*
X127341999Y-47844497D01*
X127341999Y-61844497D01*
X289266995Y-42794498D02*
X275266995Y-42794498D01*
X275266995Y-28794496D01*
X289266995Y-28794496D01*
X289266995Y-42794498D01*
X41617001Y-42794498D02*
X27616999Y-42794498D01*
X27616999Y-28794496D01*
X41617001Y-28794496D01*
X41617001Y-42794498D01*
X74953999Y-80894496D02*
X60953999Y-80894496D01*
X60953999Y-66894496D01*
X74953999Y-66894496D01*
X74953999Y-80894496D01*
X217932003Y-126473499D02*
X218238995Y-126630497D01*
X218482006Y-126873500D01*
X218637997Y-127180500D01*
X218691998Y-127520496D01*
X218637997Y-127859500D01*
X218482006Y-128166500D01*
X218238995Y-128409496D01*
X217932003Y-128566494D01*
X217592007Y-128620494D01*
X217251995Y-128566494D01*
X216945996Y-128409496D01*
X216701992Y-128166500D01*
X216546002Y-127859500D01*
X216492001Y-127520496D01*
X216546002Y-127180500D01*
X216701992Y-126873500D01*
X216945996Y-126630497D01*
X217251995Y-126473499D01*
X217592007Y-126420497D01*
X217932003Y-126473499D01*
X60667000Y-42794498D02*
X46667000Y-42794498D01*
X46667000Y-28794496D01*
X60667000Y-28794496D01*
X60667000Y-42794498D01*
X84479000Y-99944500D02*
X70479000Y-99944500D01*
X70479000Y-85944500D01*
X84479000Y-85944500D01*
X84479000Y-99944500D01*
X103529004Y-99944500D02*
X89529004Y-99944500D01*
X89529004Y-85944500D01*
X103529004Y-85944500D01*
X103529004Y-99944500D01*
X79716999Y-42794498D02*
X65716999Y-42794498D01*
X65716999Y-28794496D01*
X79716999Y-28794496D01*
X79716999Y-42794498D01*
X122578999Y-99944500D02*
X108578999Y-99944500D01*
X108578999Y-85944500D01*
X122578999Y-85944500D01*
X122578999Y-99944500D01*
X260691998Y-61844497D02*
X246691998Y-61844497D01*
X246691998Y-47844497D01*
X260691998Y-47844497D01*
X260691998Y-61844497D01*
X70192002Y-61844497D02*
X56192002Y-61844497D01*
X56192002Y-47844497D01*
X70192002Y-47844497D01*
X70192002Y-61844497D01*
X217829007Y-99944500D02*
X203829007Y-99944500D01*
X203829007Y-85944500D01*
X217829007Y-85944500D01*
X217829007Y-99944500D01*
X279742001Y-61844497D02*
X265740994Y-61844497D01*
X265740994Y-47844497D01*
X279742001Y-47844497D01*
X279742001Y-61844497D01*
X132104000Y-80894496D02*
X118104000Y-80894496D01*
X118104000Y-66894496D01*
X132104000Y-66894496D01*
X132104000Y-80894496D01*
X208303997Y-80894496D02*
X194303997Y-80894496D01*
X194303997Y-66894496D01*
X208303997Y-66894496D01*
X208303997Y-80894496D01*
X217932003Y-19222497D02*
X218238995Y-19379497D01*
X218482006Y-19622497D01*
X218637997Y-19929497D01*
X218691998Y-20269497D01*
X218637997Y-20608497D01*
X218482006Y-20915497D01*
X218238995Y-21158497D01*
X217932003Y-21315497D01*
X217592007Y-21369497D01*
X217251995Y-21315497D01*
X216945996Y-21158497D01*
X216701992Y-20915497D01*
X216546002Y-20608497D01*
X216492001Y-20269497D01*
X216546002Y-19929497D01*
X216701992Y-19622497D01*
X216945996Y-19379497D01*
X217251995Y-19222497D01*
X217592007Y-19169497D01*
X217932003Y-19222497D01*
X155917004Y-42794498D02*
X141917004Y-42794498D01*
X141917004Y-28794496D01*
X155917004Y-28794496D01*
X155917004Y-42794498D01*
X232117001Y-42794498D02*
X218117001Y-42794498D01*
X218117001Y-28794496D01*
X232117001Y-28794496D01*
X232117001Y-42794498D01*
X236878994Y-118994495D02*
X222878994Y-118994495D01*
X222878994Y-104994495D01*
X236878994Y-104994495D01*
X236878994Y-118994495D01*
X308317013Y-42794498D02*
X294317013Y-42794498D01*
X294317013Y-28794496D01*
X308317013Y-28794496D01*
X308317013Y-42794498D01*
X165441998Y-61844497D02*
X151441998Y-61844497D01*
X151441998Y-47844497D01*
X165441998Y-47844497D01*
X165441998Y-61844497D01*
X151154004Y-80894496D02*
X137154004Y-80894496D01*
X137154004Y-66894496D01*
X151154004Y-66894496D01*
X151154004Y-80894496D01*
X222592007Y-61844497D02*
X208592007Y-61844497D01*
X208592007Y-47844497D01*
X222592007Y-47844497D01*
X222592007Y-61844497D01*
X246404004Y-80894496D02*
X232404004Y-80894496D01*
X232404004Y-66894496D01*
X246404004Y-66894496D01*
X246404004Y-80894496D01*
X198779004Y-99944500D02*
X184779004Y-99944500D01*
X184779004Y-85944500D01*
X198779004Y-85944500D01*
X198779004Y-99944500D01*
X118682003Y-19222497D02*
X118988003Y-19379497D01*
X119231999Y-19622497D01*
X119387997Y-19929497D01*
X119441998Y-20269497D01*
X119387997Y-20608497D01*
X119231999Y-20915497D01*
X118988003Y-21158497D01*
X118682003Y-21315497D01*
X118341999Y-21369497D01*
X118002003Y-21315497D01*
X117694996Y-21158497D01*
X117452000Y-20915497D01*
X117296002Y-20608497D01*
X117242001Y-20269497D01*
X117296002Y-19929497D01*
X117452000Y-19622497D01*
X117694996Y-19379497D01*
X118002003Y-19222497D01*
X118341999Y-19169497D01*
X118682003Y-19222497D01*
X317182003Y-126473499D02*
X317489010Y-126630497D01*
X317731991Y-126873500D01*
X317889004Y-127180500D01*
X317942990Y-127520496D01*
X317889004Y-127859500D01*
X317731991Y-128166500D01*
X317489010Y-128409496D01*
X317182003Y-128566494D01*
X316843014Y-128620494D01*
X316502987Y-128566494D01*
X316196011Y-128409496D01*
X315953000Y-128166500D01*
X315795987Y-127859500D01*
X315743008Y-127520496D01*
X315795987Y-127180500D01*
X315953000Y-126873500D01*
X316196011Y-126630497D01*
X316502987Y-126473499D01*
X316843014Y-126420497D01*
X317182003Y-126473499D01*
X303554013Y-61844497D02*
X289554013Y-61844497D01*
X289554013Y-47844497D01*
X303554013Y-47844497D01*
X303554013Y-61844497D01*
X170204007Y-80894496D02*
X156204007Y-80894496D01*
X156204007Y-66894496D01*
X170204007Y-66894496D01*
X170204007Y-80894496D01*
X265454007Y-80894496D02*
X251454007Y-80894496D01*
X251454007Y-66894496D01*
X265454007Y-66894496D01*
X265454007Y-80894496D01*
X136865994Y-42794498D02*
X122866002Y-42794498D01*
X122866002Y-28794496D01*
X136865994Y-28794496D01*
X136865994Y-42794498D01*
X251167004Y-42794498D02*
X237167004Y-42794498D01*
X237167004Y-28794496D01*
X251167004Y-28794496D01*
X251167004Y-42794498D01*
X194016995Y-42794498D02*
X180016995Y-42794498D01*
X180016995Y-28794496D01*
X194016995Y-28794496D01*
X194016995Y-42794498D01*
X48759999Y-80894496D02*
X34760001Y-80894496D01*
X34760001Y-66894496D01*
X48759999Y-66894496D01*
X48759999Y-80894496D01*
X46378998Y-61844497D02*
X32379000Y-61844497D01*
X32379000Y-47844497D01*
X46378998Y-47844497D01*
X46378998Y-61844497D01*
X98767003Y-42794498D02*
X84767003Y-42794498D01*
X84767003Y-28794496D01*
X98767003Y-28794496D01*
X98767003Y-42794498D01*
X160678997Y-118994495D02*
X146678997Y-118994495D01*
X146678997Y-104994495D01*
X160678997Y-104994495D01*
X160678997Y-118994495D01*
X308317013Y-99944500D02*
X294317013Y-99944500D01*
X294317013Y-85944500D01*
X308317013Y-85944500D01*
X308317013Y-99944500D01*
X146391995Y-61844497D02*
X132392003Y-61844497D01*
X132392003Y-47844497D01*
X146391995Y-47844497D01*
X146391995Y-61844497D01*
X213066998Y-42794498D02*
X199066998Y-42794498D01*
X199066998Y-28794496D01*
X213066998Y-28794496D01*
X213066998Y-42794498D01*
X317312985Y-14287497D02*
X317781002Y-14342497D01*
X318243008Y-14434497D01*
X318696987Y-14562497D01*
X319139004Y-14725497D01*
X319566006Y-14922497D01*
X319976986Y-15153497D01*
X320369015Y-15414497D01*
X320739010Y-15706497D01*
X321084988Y-16026497D01*
X321404995Y-16372497D01*
X321696987Y-16742497D01*
X321958004Y-17134497D01*
X322188992Y-17545497D01*
X322386013Y-17972497D01*
X322549008Y-18414497D01*
X322676999Y-18868497D01*
X322769009Y-19330497D01*
X322824002Y-19798497D01*
X322843014Y-20269497D01*
X322843014Y-127519497D01*
X322824002Y-127990497D01*
X322769009Y-128458500D01*
X322676999Y-128920497D01*
X322549008Y-129374500D01*
X322386013Y-129816494D01*
X322188992Y-130243495D01*
X321958004Y-130654499D01*
X321696987Y-131046497D01*
X321404995Y-131416500D01*
X321084988Y-131762500D01*
X320739010Y-132082500D01*
X320369015Y-132374500D01*
X319976986Y-132635494D01*
X319566006Y-132866497D01*
X319139004Y-133063495D01*
X318696987Y-133226497D01*
X318243008Y-133354496D01*
X317781002Y-133446499D01*
X317312985Y-133501499D01*
X316843014Y-133519497D01*
X19092000Y-133519497D01*
X18621000Y-133501499D01*
X18153000Y-133446499D01*
X17691000Y-133354496D01*
X17237000Y-133226497D01*
X16795000Y-133063495D01*
X16368000Y-132866497D01*
X15957000Y-132635494D01*
X15565000Y-132374500D01*
X15195000Y-132082500D01*
X14849000Y-131762500D01*
X14529000Y-131416500D01*
X14237000Y-131046497D01*
X13976000Y-130654499D01*
X13745000Y-130243495D01*
X13548000Y-129816494D01*
X13385000Y-129374500D01*
X13257000Y-128920497D01*
X13165000Y-128458500D01*
X13110000Y-127990497D01*
X13091000Y-127519497D01*
X13092000Y-20268497D01*
X13110000Y-19798497D01*
X13165000Y-19330497D01*
X13257000Y-18868497D01*
X13385000Y-18414497D01*
X13548000Y-17972497D01*
X13745000Y-17545497D01*
X13976000Y-17134497D01*
X14237000Y-16742497D01*
X14529000Y-16372497D01*
X14849000Y-16026497D01*
X15195000Y-15706497D01*
X15565000Y-15414497D01*
X15957000Y-15153497D01*
X16368000Y-14922497D01*
X16795000Y-14725497D01*
X17237000Y-14562497D01*
X17691000Y-14434497D01*
X18153000Y-14342497D01*
X18621000Y-14287497D01*
X19092000Y-14268497D01*
X316843014Y-14268497D01*
X317312985Y-14287497D01*
X282123013Y-99944500D02*
X268123013Y-99944500D01*
X268123013Y-85944500D01*
X282123013Y-85944500D01*
X282123013Y-99944500D01*
X174967007Y-42794498D02*
X160967007Y-42794498D01*
X160967007Y-28794496D01*
X174967007Y-28794496D01*
X174967007Y-42794498D01*
X241641995Y-61844497D02*
X227641995Y-61844497D01*
X227641995Y-47844497D01*
X241641995Y-47844497D01*
X241641995Y-61844497D01*
X117816998Y-42794498D02*
X103816998Y-42794498D01*
X103816998Y-28794496D01*
X117816998Y-28794496D01*
X117816998Y-42794498D01*
X19431000Y-126473499D02*
X19738000Y-126630497D01*
X19981000Y-126873500D01*
X20138000Y-127180500D01*
X20192000Y-127520496D01*
X20138000Y-127859500D01*
X19981000Y-128166500D01*
X19738000Y-128409496D01*
X19431000Y-128566494D01*
X19092000Y-128620494D01*
X18752000Y-128566494D01*
X18445000Y-128409496D01*
X18202000Y-128166500D01*
X18045000Y-127859500D01*
X17992000Y-127520496D01*
X18045000Y-127180500D01*
X18202000Y-126873500D01*
X18445000Y-126630497D01*
X18752000Y-126473499D01*
X19092000Y-126420497D01*
X19431000Y-126473499D01*
X255928997Y-99944500D02*
X241928997Y-99944500D01*
X241928997Y-85944500D01*
X255928997Y-85944500D01*
X255928997Y-99944500D01*
X113053997Y-80894496D02*
X99053997Y-80894496D01*
X99053997Y-66894496D01*
X113053997Y-66894496D01*
X113053997Y-80894496D01*
X184492001Y-61844497D02*
X170492001Y-61844497D01*
X170492001Y-47844497D01*
X184492001Y-47844497D01*
X184492001Y-61844497D01*
X94004002Y-118994495D02*
X80004002Y-118994495D01*
X80004002Y-104994495D01*
X94004002Y-104994495D01*
X94004002Y-118994495D01*
X53522999Y-99944500D02*
X39522999Y-99944500D01*
X39522999Y-85944500D01*
X53522999Y-85944500D01*
X53522999Y-99944500D01*
X270217007Y-42794498D02*
X256217007Y-42794498D01*
X256217007Y-28794496D01*
X270217007Y-28794496D01*
X270217007Y-42794498D01*
X94004002Y-80894496D02*
X80004002Y-80894496D01*
X80004002Y-66894496D01*
X94004002Y-66894496D01*
X94004002Y-80894496D01*
X160678997Y-99944500D02*
X146678997Y-99944500D01*
X146678997Y-85944500D01*
X160678997Y-85944500D01*
X160678997Y-99944500D01*
X203542004Y-61844497D02*
X189542004Y-61844497D01*
X189542004Y-47844497D01*
X203542004Y-47844497D01*
X203542004Y-61844497D01*
X108291996Y-61844497D02*
X94291996Y-61844497D01*
X94291996Y-47844497D01*
X108291996Y-47844497D01*
X108291996Y-61844497D01*
X89242001Y-61844497D02*
X75242001Y-61844497D01*
X75242001Y-47844497D01*
X89242001Y-47844497D01*
X89242001Y-61844497D01*
X141628994Y-99944500D02*
X127629002Y-99944500D01*
X127629002Y-85944500D01*
X141628994Y-85944500D01*
X141628994Y-99944500D01*
X317182003Y-19222497D02*
X317489010Y-19379497D01*
X317731991Y-19622497D01*
X317889004Y-19929497D01*
X317942990Y-20269497D01*
X317889004Y-20608497D01*
X317731991Y-20915497D01*
X317489010Y-21158497D01*
X317182003Y-21315497D01*
X316843014Y-21369497D01*
X316502987Y-21315497D01*
X316196011Y-21158497D01*
X315953000Y-20915497D01*
X315795987Y-20608497D01*
X315743008Y-20269497D01*
X315795987Y-19929497D01*
X315953000Y-19622497D01*
X316196011Y-19379497D01*
X316502987Y-19222497D01*
X316843014Y-19169497D01*
X317182003Y-19222497D01*
D11*
%TO.C,REF\u002A\u002A*%
X274283000Y-76464000D02*
X274283000Y-70614000D01*
X274783000Y-70114000D02*
X275133000Y-70114000D01*
X274783000Y-76964000D02*
X280083000Y-76964000D01*
X275633000Y-69614000D02*
X275633000Y-65964000D01*
X276133000Y-65464000D02*
X278733000Y-65464000D01*
X279233000Y-69614000D02*
X279233000Y-65964000D01*
X280083000Y-70114000D02*
X279733000Y-70114000D01*
X280583000Y-76464000D02*
X280583000Y-70614000D01*
X298283000Y-76464000D02*
X298283000Y-70614000D01*
X298783000Y-70114000D02*
X299133000Y-70114000D01*
X299633000Y-69614000D02*
X299633000Y-65964000D01*
X302733000Y-65464000D02*
X300133000Y-65464000D01*
X303233000Y-69614000D02*
X303233000Y-65964000D01*
X304083000Y-70114000D02*
X303733000Y-70114000D01*
X304083000Y-76964000D02*
X298783000Y-76964000D01*
X304583000Y-76464000D02*
X304583000Y-70614000D01*
X274283000Y-70614000D02*
G75*
G02*
X274783000Y-70114000I500001J-1D01*
G01*
X274783000Y-76964000D02*
G75*
G02*
X274283000Y-76464000I1J500001D01*
G01*
X275633000Y-65964000D02*
G75*
G02*
X276133000Y-65464000I500001J-1D01*
G01*
X275633000Y-69614000D02*
G75*
G02*
X275133000Y-70114000I-500001J1D01*
G01*
X278733000Y-65464000D02*
G75*
G02*
X279233000Y-65964000I-1J-500001D01*
G01*
X279733000Y-70114000D02*
G75*
G02*
X279233000Y-69614000I1J500001D01*
G01*
X280083000Y-70114000D02*
G75*
G02*
X280583000Y-70614000I-1J-500001D01*
G01*
X280583000Y-76464000D02*
G75*
G02*
X280083000Y-76964000I-500001J1D01*
G01*
X298283000Y-70614000D02*
G75*
G02*
X298783000Y-70114000I500000J0D01*
G01*
X298783000Y-76964000D02*
G75*
G02*
X298283000Y-76464000I0J500000D01*
G01*
X299633000Y-65964000D02*
G75*
G02*
X300133000Y-65464000I500000J0D01*
G01*
X299633000Y-69614000D02*
G75*
G02*
X299133000Y-70114000I-500000J0D01*
G01*
X302733000Y-65464000D02*
G75*
G02*
X303233000Y-65964000I0J-500000D01*
G01*
X303733000Y-70114000D02*
G75*
G02*
X303233000Y-69614000I0J500000D01*
G01*
X304083000Y-70114000D02*
G75*
G02*
X304583000Y-70614000I0J-500000D01*
G01*
X304583000Y-76464000D02*
G75*
G02*
X304083000Y-76964000I-500000J0D01*
G01*
X174207000Y-114564000D02*
X174207000Y-108714000D01*
X174707000Y-108214000D02*
X175057000Y-108214000D01*
X174707000Y-115064000D02*
X180007000Y-115064000D01*
X175557000Y-107714000D02*
X175557000Y-104064000D01*
X176057000Y-103564000D02*
X178657000Y-103564000D01*
X179157000Y-107714000D02*
X179157000Y-104064000D01*
X180007000Y-108214000D02*
X179657000Y-108214000D01*
X180507000Y-114564000D02*
X180507000Y-108714000D01*
X198207000Y-114564000D02*
X198207000Y-108714000D01*
X198707000Y-108214000D02*
X199057000Y-108214000D01*
X199557000Y-107714000D02*
X199557000Y-104064000D01*
X202657000Y-103564000D02*
X200057000Y-103564000D01*
X203157000Y-107714000D02*
X203157000Y-104064000D01*
X204007000Y-108214000D02*
X203657000Y-108214000D01*
X204007000Y-115064000D02*
X198707000Y-115064000D01*
X204507000Y-114564000D02*
X204507000Y-108714000D01*
X174207000Y-108714000D02*
G75*
G02*
X174707000Y-108214000I500001J-1D01*
G01*
X174707000Y-115064000D02*
G75*
G02*
X174207000Y-114564000I1J500001D01*
G01*
X175557000Y-104064000D02*
G75*
G02*
X176057000Y-103564000I500001J-1D01*
G01*
X175557000Y-107714000D02*
G75*
G02*
X175057000Y-108214000I-500001J1D01*
G01*
X178657000Y-103564000D02*
G75*
G02*
X179157000Y-104064000I-1J-500001D01*
G01*
X179657000Y-108214000D02*
G75*
G02*
X179157000Y-107714000I1J500001D01*
G01*
X180007000Y-108214000D02*
G75*
G02*
X180507000Y-108714000I-1J-500001D01*
G01*
X180507000Y-114564000D02*
G75*
G02*
X180007000Y-115064000I-500001J1D01*
G01*
X198207000Y-108714000D02*
G75*
G02*
X198707000Y-108214000I500000J0D01*
G01*
X198707000Y-115064000D02*
G75*
G02*
X198207000Y-114564000I0J500000D01*
G01*
X199557000Y-104064000D02*
G75*
G02*
X200057000Y-103564000I500000J0D01*
G01*
X199557000Y-107714000D02*
G75*
G02*
X199057000Y-108214000I-500000J0D01*
G01*
X202657000Y-103564000D02*
G75*
G02*
X203157000Y-104064000I0J-500000D01*
G01*
X203657000Y-108214000D02*
G75*
G02*
X203157000Y-107714000I0J500000D01*
G01*
X204007000Y-108214000D02*
G75*
G02*
X204507000Y-108714000I0J-500000D01*
G01*
X204507000Y-114564000D02*
G75*
G02*
X204007000Y-115064000I-500000J0D01*
G01*
X31332000Y-95514000D02*
X31332000Y-89664000D01*
X31832000Y-89164000D02*
X32182000Y-89164000D01*
X31832000Y-96014000D02*
X37132000Y-96014000D01*
X32682000Y-88664000D02*
X32682000Y-85014000D01*
X33182000Y-84514000D02*
X35782000Y-84514000D01*
X36282000Y-88664000D02*
X36282000Y-85014000D01*
X37132000Y-89164000D02*
X36782000Y-89164000D01*
X37632000Y-95514000D02*
X37632000Y-89664000D01*
X55332000Y-95514000D02*
X55332000Y-89664000D01*
X55832000Y-89164000D02*
X56182000Y-89164000D01*
X56682000Y-88664000D02*
X56682000Y-85014000D01*
X59782000Y-84514000D02*
X57182000Y-84514000D01*
X60282000Y-88664000D02*
X60282000Y-85014000D01*
X61132000Y-89164000D02*
X60782000Y-89164000D01*
X61132000Y-96014000D02*
X55832000Y-96014000D01*
X61632000Y-95514000D02*
X61632000Y-89664000D01*
X31332000Y-89664000D02*
G75*
G02*
X31832000Y-89164000I500001J-1D01*
G01*
X31832000Y-96014000D02*
G75*
G02*
X31332000Y-95514000I1J500001D01*
G01*
X32682000Y-85014000D02*
G75*
G02*
X33182000Y-84514000I500001J-1D01*
G01*
X32682000Y-88664000D02*
G75*
G02*
X32182000Y-89164000I-500001J1D01*
G01*
X35782000Y-84514000D02*
G75*
G02*
X36282000Y-85014000I-1J-500001D01*
G01*
X36782000Y-89164000D02*
G75*
G02*
X36282000Y-88664000I1J500001D01*
G01*
X37132000Y-89164000D02*
G75*
G02*
X37632000Y-89664000I-1J-500001D01*
G01*
X37632000Y-95514000D02*
G75*
G02*
X37132000Y-96014000I-500001J1D01*
G01*
X55332000Y-89664000D02*
G75*
G02*
X55832000Y-89164000I500000J0D01*
G01*
X55832000Y-96014000D02*
G75*
G02*
X55332000Y-95514000I0J500000D01*
G01*
X56682000Y-85014000D02*
G75*
G02*
X57182000Y-84514000I500000J0D01*
G01*
X56682000Y-88664000D02*
G75*
G02*
X56182000Y-89164000I-500000J0D01*
G01*
X59782000Y-84514000D02*
G75*
G02*
X60282000Y-85014000I0J-500000D01*
G01*
X60782000Y-89164000D02*
G75*
G02*
X60282000Y-88664000I0J500000D01*
G01*
X61132000Y-89164000D02*
G75*
G02*
X61632000Y-89664000I0J-500000D01*
G01*
X61632000Y-95514000D02*
G75*
G02*
X61132000Y-96014000I-500000J0D01*
G01*
X107532000Y-114564000D02*
X107532000Y-108714000D01*
X108032000Y-108214000D02*
X108382000Y-108214000D01*
X108032000Y-115064000D02*
X113332000Y-115064000D01*
X108882000Y-107714000D02*
X108882000Y-104064000D01*
X109382000Y-103564000D02*
X111982000Y-103564000D01*
X112482000Y-107714000D02*
X112482000Y-104064000D01*
X113332000Y-108214000D02*
X112982000Y-108214000D01*
X113832000Y-114564000D02*
X113832000Y-108714000D01*
X131532000Y-114564000D02*
X131532000Y-108714000D01*
X132032000Y-108214000D02*
X132382000Y-108214000D01*
X132882000Y-107714000D02*
X132882000Y-104064000D01*
X135982000Y-103564000D02*
X133382000Y-103564000D01*
X136482000Y-107714000D02*
X136482000Y-104064000D01*
X137332000Y-108214000D02*
X136982000Y-108214000D01*
X137332000Y-115064000D02*
X132032000Y-115064000D01*
X137832000Y-114564000D02*
X137832000Y-108714000D01*
X107532000Y-108714000D02*
G75*
G02*
X108032000Y-108214000I500001J-1D01*
G01*
X108032000Y-115064000D02*
G75*
G02*
X107532000Y-114564000I1J500001D01*
G01*
X108882000Y-104064000D02*
G75*
G02*
X109382000Y-103564000I500001J-1D01*
G01*
X108882000Y-107714000D02*
G75*
G02*
X108382000Y-108214000I-500001J1D01*
G01*
X111982000Y-103564000D02*
G75*
G02*
X112482000Y-104064000I-1J-500001D01*
G01*
X112982000Y-108214000D02*
G75*
G02*
X112482000Y-107714000I1J500001D01*
G01*
X113332000Y-108214000D02*
G75*
G02*
X113832000Y-108714000I-1J-500001D01*
G01*
X113832000Y-114564000D02*
G75*
G02*
X113332000Y-115064000I-500001J1D01*
G01*
X131532000Y-108714000D02*
G75*
G02*
X132032000Y-108214000I500000J0D01*
G01*
X132032000Y-115064000D02*
G75*
G02*
X131532000Y-114564000I0J500000D01*
G01*
X132882000Y-104064000D02*
G75*
G02*
X133382000Y-103564000I500000J0D01*
G01*
X132882000Y-107714000D02*
G75*
G02*
X132382000Y-108214000I-500000J0D01*
G01*
X135982000Y-103564000D02*
G75*
G02*
X136482000Y-104064000I0J-500000D01*
G01*
X136982000Y-108214000D02*
G75*
G02*
X136482000Y-107714000I0J500000D01*
G01*
X137332000Y-108214000D02*
G75*
G02*
X137832000Y-108714000I0J-500000D01*
G01*
X137832000Y-114564000D02*
G75*
G02*
X137332000Y-115064000I-500000J0D01*
G01*
%TD*%
M02*
